<?xml version="1.0" encoding="utf-8"?>
<!-- Generator: Adobe Illustrator 18.0.0, SVG Export Plug-In . SVG Version: 6.00 Build 0)  -->
<!DOCTYPE svg PUBLIC "-//W3C//DTD SVG 1.1//EN" "http://www.w3.org/Graphics/SVG/1.1/DTD/svg11.dtd">
<svg version="1.1" id="Layer_1" xmlns="http://www.w3.org/2000/svg" xmlns:xlink="http://www.w3.org/1999/xlink" x="0px" y="0px"
	 viewBox="0 0 50 50" enable-background="new 0 0 50 50" xml:space="preserve">
<g>
	<g>
		<g>
			<path fill="#030304" d="M21.8,5.7c1.8-0.5,3.6-0.7,5.4-0.8c2.1,0.2,4.1,0.4,6.1,1.1c4.9,1.5,9.1,5,11.5,9.5
				c2.2,3.9,3,8.5,2.2,12.9c-0.6,4.3-2.8,8.3-5.9,11.3c-3,2.8-6.8,4.8-10.9,5.4c-4.3,0.7-8.8-0.1-12.6-2.1c-0.5-0.3-1.1-0.6-1.6-0.9
				c-1.4,1.2-3.3,1.7-5.1,1.8c-2.4,0.1-4.8-0.7-6.5-2.4c-1.2-1.2-1.8-3-1.7-4.7c0-4.3,0-8.6,0-12.8c0-1.1,0.6-2.2,1.6-2.5
				c0.6-0.2,1.2-0.1,1.8,0.1c-0.1-1.1,0.6-2.3,1.8-2.5c1.1-3.4,3.1-6.5,5.8-8.8C16,8,18.8,6.5,21.8,5.7z M15.8,9.9
				c-3,2.3-5.3,5.4-6.6,9c0.2,0.1,0.3,0.2,0.5,0.3c0.3-1,1.1-1.8,2.2-1.8c1.3-0.1,2.4,1.1,2.4,2.4c0.6-0.3,1.3-0.5,1.9-0.2
				c0.6,0.1,1,0.6,1.4,1.1c0.1,0.4,0.2,0.8,0.2,1.2c0,3.6,0,7.2,0,10.8c0.6-0.8,1.2-1.7,1.9-2.4c1.1-1.1,3-0.6,3.6,0.7
				c0.4,0.8,0.2,1.8-0.4,2.5c-2,2.5-3.9,5.2-5.9,7.7c3.3,2.2,7.4,3.2,11.3,2.9c3.5-0.2,7-1.5,9.9-3.5c3.2-2.3,5.7-5.7,7-9.5
				c1.3-3.9,1.2-8.3-0.2-12.2c-1.3-3.8-3.9-7-7.2-9.3c-3.1-2.1-6.8-3.2-10.6-3.2C23.1,6.2,19,7.5,15.8,9.9z M10.7,19.6
				c0,3.2,0,6.3,0,9.5c-0.3,0-0.6,0-1,0c-0.1-2.7,0-5.3,0-8c0-0.9-1.1-1.5-1.8-1.1c-0.4,0.2-0.5,0.5-0.7,0.8c0,2.8,0,5.5,0,8.3
				c-0.3,0-0.7,0-1,0c0-2.1,0-4.2,0-6.3c-0.3-0.3-0.6-0.6-1-0.6c-0.7-0.1-1.3,0.5-1.3,1.2c0,4.8,0,9.7,0,14.5
				c0.2,1.2,0.8,2.3,1.7,3.1c1.5,1.3,3.5,1.8,5.4,1.7c2.2-0.1,4.5-1.1,5.7-3.1c1.8-2.4,3.7-4.8,5.5-7.3c0.5-0.7,0-1.8-0.8-1.9
				c-0.5-0.1-1,0.2-1.3,0.6c-0.8,1.1-1.6,2.1-2.4,3.2c-0.1,0-0.3,0.1-0.4,0.1c-0.1,0-0.3-0.1-0.4-0.2c0-0.2-0.1-0.4-0.1-0.5
				c0.1-4,0-7.9,0-11.9c0.1-1-1.1-1.6-1.9-1.2c-0.2,0.3-0.6,0.6-0.6,1c0,2.5,0,5,0,7.5c-0.3,0-0.7,0-1,0c-0.1-3.2,0-6.4-0.1-9.5
				c0-0.6-0.6-1-1.1-1.2C11.5,18.4,10.8,18.9,10.7,19.6z"/>
		</g>
		<path fill="#030304" d="M29.8,31.7c1.1-1.4,3-2,4.8-1.7c1.8,0.3,3.3,1.6,3.9,3.3c-0.4,0.1-0.9,0.2-1.3,0.3c-0.5-0.9-1.1-1.6-2-2
			c-1.2-0.5-2.7-0.3-3.8,0.5c-0.9,0.7-1.4,1.8-1.4,2.9c-0.5,0.1-0.9,0.2-1.4,0.3C28.5,34,28.9,32.7,29.8,31.7z"/>
	</g>
	<g>
		<g>
			<path fill="#FFFFFF" d="M15.8,9.9c3.2-2.4,7.3-3.8,11.3-3.8c3.7,0,7.4,1.2,10.6,3.2c3.3,2.3,5.9,5.5,7.2,9.3
				c1.4,3.9,1.5,8.3,0.2,12.2c-1.2,3.8-3.7,7.2-7,9.5c-2.9,2.1-6.3,3.3-9.9,3.5c-3.9,0.2-8-0.8-11.3-2.9c2-2.5,3.9-5.1,5.9-7.7
				c0.6-0.7,0.8-1.7,0.4-2.5c-0.6-1.4-2.6-1.8-3.6-0.7c-0.7,0.8-1.3,1.6-1.9,2.4c0-3.6,0-7.2,0-10.8c0-0.4-0.1-0.8-0.2-1.2
				c-0.4-0.4-0.8-0.9-1.4-1.1c-0.6-0.2-1.3-0.1-1.9,0.2c0.1-1.3-1.1-2.4-2.4-2.4c-1,0-1.9,0.8-2.2,1.8c-0.2-0.1-0.3-0.2-0.5-0.3
				C10.5,15.3,12.8,12.2,15.8,9.9z"/>
		</g>
		<path fill="#FFFFFF" d="M10.7,19.6c0.1-0.7,0.7-1.1,1.4-1.2c0.5,0.2,1.1,0.6,1.1,1.2c0.1,3.2,0,6.4,0.1,9.5c0.3,0,0.6,0,1,0
			c0.1-2.5,0-5,0-7.5c0-0.4,0.3-0.7,0.6-1c0.8-0.4,2,0.2,1.9,1.2c0,4,0.1,8,0,11.9c0,0.2,0.1,0.4,0.1,0.5c0.1,0,0.3,0.1,0.4,0.2
			c0.1,0,0.3-0.1,0.4-0.1c0.8-1,1.6-2.1,2.4-3.2c0.3-0.4,0.8-0.7,1.3-0.6c0.8,0.1,1.3,1.2,0.8,1.9c-1.8,2.4-3.7,4.8-5.5,7.3
			c-1.1,2-3.5,3-5.7,3.1c-1.9,0.1-3.9-0.5-5.4-1.7C4.7,40.3,4,39.2,3.9,38c0-4.8,0-9.7,0-14.5c0-0.7,0.6-1.3,1.3-1.2
			c0.4,0,0.7,0.3,1,0.6c0,2.1,0,4.2,0,6.3c0.3,0,0.7,0,1,0c0-2.8,0-5.5,0-8.3c0.2-0.3,0.3-0.7,0.7-0.8c0.7-0.5,1.8,0.2,1.8,1.1
			c0,2.7,0,5.3,0,8c0.3,0,0.6,0,1,0C10.8,25.9,10.7,22.7,10.7,19.6z"/>
	</g>
	<path fill="#030304" d="M20.7,22.3c-0.4,0.1-0.9,0.3-1.3,0.4c-0.2-1.6,0.3-3.3,1.5-4.4c1.6-1.6,4.3-1.9,6.2-0.7
		c0.9,0.5,1.6,1.3,2,2.2c-0.4,0.1-0.8,0.3-1.3,0.4c-0.6-0.9-1.4-1.7-2.5-1.9c-1.7-0.5-3.6,0.5-4.3,2.1C20.8,21,20.8,21.7,20.7,22.3z
		"/>
	<path fill="#030304" d="M32.6,19.4c-0.4,0.1-0.9,0.2-1.3,0.3c-0.2-1.6,0.3-3.2,1.4-4.3c1.5-1.6,4.1-2,6.1-0.9
		c1,0.5,1.7,1.4,2.2,2.4c-0.4,0.1-0.9,0.2-1.3,0.4c-0.5-0.8-1.2-1.5-2.1-1.8c-0.5-0.2-1.1-0.2-1.7-0.2c-1.2,0.2-2.4,1-2.9,2.2
		C32.6,18.1,32.6,18.8,32.6,19.4z"/>
	<path d="M28.3,27.1l7.2-2.6c1-0.4,1.9,0.8,1.5,1.8l-1.9,4.1c-0.3,0.6-0.9,0.9-1.5,0.6l-5.3-2.3C27.4,28.5,27.5,27.4,28.3,27.1z"/>
</g>
</svg>
