<?xml version="1.0" encoding="utf-8"?>
<!-- Generator: Adobe Illustrator 18.0.0, SVG Export Plug-In . SVG Version: 6.00 Build 0)  -->
<!DOCTYPE svg PUBLIC "-//W3C//DTD SVG 1.1//EN" "http://www.w3.org/Graphics/SVG/1.1/DTD/svg11.dtd">
<svg version="1.1" id="Layer_1" xmlns="http://www.w3.org/2000/svg" xmlns:xlink="http://www.w3.org/1999/xlink" x="0px" y="0px"
	 viewBox="0 0 50 50" enable-background="new 0 0 50 50" xml:space="preserve">
<g>
	<g>
		<g>
			<path fill="#030304" d="M21.6,4.5c1.9-0.5,3.8-0.7,5.7-0.9c2.2,0.2,4.4,0.4,6.5,1.1c5.1,1.6,9.6,5.3,12.2,10
				c2.3,4.1,3.2,9,2.4,13.6c-0.7,4.5-2.9,8.7-6.2,11.9c-3.1,3-7.2,5.1-11.5,5.7c-4.5,0.7-9.3-0.1-13.4-2.2c-0.6-0.3-1.1-0.7-1.7-0.9
				c-1.5,1.2-3.4,1.8-5.4,1.9c-2.5,0.1-5.1-0.7-6.9-2.5C2,41,1.4,39.1,1.5,37.3c0-4.5,0-9.1,0-13.6c0-1.1,0.6-2.3,1.7-2.7
				c0.6-0.2,1.3-0.1,1.9,0.1C5,20,5.7,18.8,6.9,18.5c1.2-3.6,3.3-6.9,6.1-9.3C15.5,7,18.4,5.4,21.6,4.5z M15.3,9
				c-3.2,2.4-5.6,5.7-7,9.5c0.2,0.1,0.4,0.2,0.5,0.3c0.3-1,1.2-1.9,2.3-1.9c1.4-0.1,2.6,1.1,2.5,2.5c0.6-0.3,1.4-0.5,2-0.2
				c0.6,0.1,1,0.7,1.4,1.2c0.1,0.4,0.3,0.8,0.2,1.2c0,3.8,0,7.6,0,11.4c0.6-0.9,1.3-1.8,2-2.6c1.1-1.1,3.2-0.7,3.8,0.8
				c0.5,0.8,0.2,1.9-0.4,2.6c-2.1,2.7-4.1,5.5-6.3,8.1c3.5,2.3,7.8,3.4,12,3.1c3.7-0.2,7.4-1.5,10.4-3.7c3.4-2.5,6.1-6,7.4-10.1
				c1.4-4.2,1.3-8.8-0.2-12.9c-1.4-4-4.2-7.5-7.6-9.8C35.1,6.3,31.2,5.1,27.3,5C23,5.1,18.7,6.4,15.3,9z M9.9,19.3
				c0,3.4,0,6.7,0,10.1c-0.3,0-0.7,0-1,0c-0.1-2.8,0-5.7,0-8.5c0-0.9-1.1-1.6-1.9-1.1c-0.4,0.2-0.6,0.5-0.7,0.9c0,2.9,0,5.8,0,8.7
				c-0.3,0-0.7,0-1,0c0-2.2,0-4.4,0-6.6c-0.3-0.3-0.6-0.6-1-0.6c-0.7-0.1-1.4,0.6-1.4,1.3c0,5.1,0,10.2,0,15.4
				C2.8,40,3.5,41.2,4.5,42c1.6,1.3,3.7,1.9,5.7,1.9c2.3-0.1,4.8-1.2,6-3.3c1.9-2.6,3.9-5.1,5.8-7.7c0.6-0.7,0-1.9-0.9-2
				c-0.5-0.1-1,0.2-1.3,0.6c-0.9,1.1-1.7,2.2-2.6,3.4c-0.1,0-0.3,0.1-0.4,0.1c-0.1,0-0.3-0.1-0.4-0.2c0-0.2-0.1-0.4-0.1-0.6
				c0.1-4.2,0-8.4,0-12.6c0.1-1.1-1.2-1.7-2.1-1.2c-0.2,0.3-0.6,0.6-0.6,1c0,2.6,0,5.3,0,7.9c-0.3,0-0.7,0-1,0
				c-0.1-3.4,0-6.7-0.1-10.1c0-0.6-0.6-1-1.2-1.2C10.7,18.1,10,18.5,9.9,19.3z"/>
		</g>
		<path fill="#030304" d="M41.7,15.3c0.5-0.1,0.9-0.2,1.4-0.3c0.1,1.7-0.7,3.5-2,4.5c-1.8,1.5-4.7,1.6-6.6,0.1
			c-0.9-0.6-1.5-1.5-1.9-2.5c0.5-0.1,0.9-0.2,1.4-0.3c0.5,1,1.3,1.9,2.4,2.3c1.7,0.7,3.8-0.2,4.7-1.8C41.5,16.6,41.6,15.9,41.7,15.3
			z"/>
		<path fill="#030304" d="M29,17.2c0.5-0.1,0.9-0.2,1.4-0.2c0.1,1.7-0.6,3.4-1.9,4.4c-1.8,1.5-4.6,1.7-6.5,0.3
			c-1-0.6-1.7-1.6-2.1-2.7c0.5-0.1,0.9-0.2,1.4-0.3c0.5,0.9,1.1,1.7,2,2.1c0.6,0.3,1.2,0.3,1.8,0.4c1.3-0.1,2.7-0.8,3.3-2
			C28.8,18.6,28.9,17.9,29,17.2z"/>
		<path fill="#030304" d="M30.1,32.1c1.2-1.4,3.2-2.1,5-1.8c1.9,0.3,3.5,1.7,4.1,3.5c-0.5,0.1-0.9,0.2-1.4,0.3
			c-0.5-0.9-1.2-1.7-2.1-2.1c-1.3-0.6-2.9-0.4-4,0.6c-1,0.7-1.4,1.9-1.5,3.1c-0.5,0.1-1,0.2-1.5,0.3C28.7,34.6,29.2,33.2,30.1,32.1z
			"/>
	</g>
	<g>
		<g>
			<path fill="#FFFFFF" d="M15.3,9c3.4-2.6,7.7-4,12-4c4,0,7.9,1.2,11.2,3.4c3.5,2.4,6.2,5.9,7.6,9.8c1.5,4.1,1.6,8.7,0.2,12.9
				c-1.3,4-3.9,7.6-7.4,10.1c-3,2.2-6.7,3.5-10.4,3.7c-4.2,0.3-8.4-0.8-12-3.1c2.1-2.7,4.2-5.4,6.3-8.1c0.6-0.7,0.8-1.7,0.4-2.6
				c-0.6-1.4-2.7-1.9-3.8-0.8c-0.7,0.8-1.3,1.7-2,2.6c0-3.8,0-7.6,0-11.4c0-0.4-0.1-0.8-0.2-1.2c-0.4-0.5-0.8-1-1.4-1.2
				c-0.7-0.3-1.4-0.1-2,0.2c0.1-1.4-1.2-2.6-2.5-2.5c-1.1,0-2,0.9-2.3,1.9c-0.2-0.1-0.4-0.2-0.5-0.3C9.6,14.8,12.1,11.4,15.3,9z"/>
		</g>
		<path fill="#FFFFFF" d="M9.9,19.3c0.1-0.8,0.8-1.2,1.5-1.3c0.5,0.2,1.1,0.6,1.2,1.2c0.1,3.4,0,6.7,0.1,10.1c0.3,0,0.7,0,1,0
			c0.1-2.6,0-5.3,0-7.9c0-0.4,0.3-0.7,0.6-1c0.9-0.5,2.1,0.2,2.1,1.2c0,4.2,0.1,8.4,0,12.6c0,0.2,0.1,0.4,0.1,0.6
			c0.1,0,0.3,0.1,0.4,0.2c0.1,0,0.3-0.1,0.4-0.1c0.9-1.1,1.7-2.2,2.6-3.4c0.3-0.4,0.8-0.7,1.3-0.6c0.9,0.1,1.4,1.3,0.9,2
			c-1.9,2.6-3.9,5.1-5.8,7.7c-1.2,2.1-3.7,3.1-6,3.3C8.1,44,6,43.4,4.5,42c-1-0.8-1.6-2-1.8-3.3c0-5.1,0-10.2,0-15.4
			c0-0.7,0.7-1.4,1.4-1.3c0.4,0,0.8,0.3,1,0.6c0,2.2,0,4.4,0,6.6c0.3,0,0.7,0,1,0c0-2.9,0-5.8,0-8.7c0.2-0.3,0.4-0.7,0.7-0.9
			c0.8-0.5,1.9,0.2,1.9,1.1c0,2.8,0,5.7,0,8.5c0.3,0,0.7,0,1,0C9.9,26,9.9,22.6,9.9,19.3z"/>
	</g>
	<circle id="Eye_29_" cx="22.6" cy="20.3" r="2.4"/>
	<circle id="Eye_1_" cx="38.8" cy="17.4" r="2.4"/>
	<path d="M38.9,13.4l-3.7,2.4c-0.5,0.3-1.2,0.2-1.5-0.3v0c-0.3-0.5-0.2-1.2,0.3-1.5l3.7-2.4c0.5-0.3,1.2-0.2,1.5,0.3v0
		C39.6,12.4,39.4,13,38.9,13.4z"/>
	<path d="M20.7,15.8l4.2,1.4c0.6,0.2,1.2-0.1,1.4-0.7v0c0.2-0.6-0.1-1.2-0.7-1.4l-4.2-1.4c-0.6-0.2-1.2,0.1-1.4,0.7v0
		C19.8,15,20.2,15.6,20.7,15.8z"/>
	<ellipse id="Surprise_3_" cx="32.7" cy="31.5" rx="4.7" ry="5.2"/>
</g>
</svg>
