<?xml version="1.0" encoding="utf-8"?>
<!-- Generator: Adobe Illustrator 18.0.0, SVG Export Plug-In . SVG Version: 6.00 Build 0)  -->
<!DOCTYPE svg PUBLIC "-//W3C//DTD SVG 1.1//EN" "http://www.w3.org/Graphics/SVG/1.1/DTD/svg11.dtd">
<svg version="1.1" id="Layer_1" xmlns="http://www.w3.org/2000/svg" xmlns:xlink="http://www.w3.org/1999/xlink" x="0px" y="0px"
	 viewBox="0 0 50 50" enable-background="new 0 0 50 50" xml:space="preserve">
<g>
	<g>
		<g>
			<path fill="#030304" d="M21.8,5.8c1.7-0.5,3.5-0.7,5.2-0.8c2,0.2,4,0.4,6,1c4.7,1.5,8.9,4.9,11.2,9.2c2.1,3.8,2.9,8.3,2.2,12.6
				c-0.6,4.2-2.7,8.1-5.7,11c-2.9,2.8-6.6,4.7-10.6,5.3c-4.2,0.7-8.6,0-12.3-2.1c-0.5-0.3-1-0.6-1.6-0.9c-1.4,1.2-3.2,1.7-4.9,1.8
				C9,43,6.6,42.3,4.9,40.6c-1.2-1.2-1.7-2.9-1.7-4.6c0-4.2,0-8.4,0-12.5c0-1,0.6-2.2,1.6-2.5c0.6-0.2,1.2-0.1,1.7,0.1
				c-0.1-1.1,0.6-2.2,1.7-2.5c1.1-3.3,3-6.3,5.6-8.6C16.2,8,18.9,6.6,21.8,5.8z M16,9.9c-3,2.2-5.2,5.3-6.4,8.8
				c0.2,0.1,0.3,0.2,0.5,0.3c0.3-1,1.1-1.7,2.1-1.8c1.3-0.1,2.4,1.1,2.3,2.3c0.6-0.3,1.3-0.5,1.9-0.2c0.6,0.1,1,0.6,1.3,1.1
				c0.1,0.4,0.2,0.7,0.2,1.1c0,3.5,0,7,0,10.5c0.6-0.8,1.2-1.6,1.8-2.4c1-1,3-0.6,3.5,0.7c0.4,0.8,0.2,1.7-0.4,2.4
				c-1.9,2.5-3.8,5-5.8,7.5c3.2,2.1,7.2,3.1,11,2.9c3.5-0.2,6.8-1.4,9.6-3.4c3.2-2.3,5.6-5.6,6.8-9.3c1.3-3.8,1.2-8.1-0.2-11.9
				c-1.3-3.7-3.8-6.9-7-9.1c-3-2-6.7-3.1-10.3-3.2C23.1,6.3,19.2,7.5,16,9.9z M11.1,19.4c0,3.1,0,6.2,0,9.3c-0.3,0-0.6,0-0.9,0
				c-0.1-2.6,0-5.2,0-7.8c0-0.8-1-1.5-1.8-1.1c-0.4,0.1-0.5,0.5-0.7,0.8c0,2.7,0,5.4,0,8.1c-0.3,0-0.6,0-1,0c0-2,0-4.1,0-6.1
				c-0.3-0.3-0.6-0.6-1-0.6c-0.7-0.1-1.3,0.5-1.3,1.2c0,4.7,0,9.5,0,14.2c0.2,1.2,0.8,2.3,1.7,3c1.4,1.2,3.4,1.8,5.3,1.7
				c2.2-0.1,4.4-1.1,5.6-3c1.8-2.4,3.6-4.7,5.4-7.1c0.5-0.7,0-1.7-0.8-1.8c-0.5-0.1-0.9,0.2-1.2,0.5c-0.8,1-1.6,2.1-2.4,3.1
				c-0.1,0-0.3,0.1-0.4,0.1c-0.1,0-0.3-0.1-0.4-0.2c0-0.2-0.1-0.4-0.1-0.5c0.1-3.9,0-7.8,0-11.6c0.1-1-1.1-1.6-1.9-1.1
				c-0.2,0.3-0.5,0.6-0.5,1c0,2.4,0,4.9,0,7.3c-0.3,0-0.6,0-1,0c-0.1-3.1,0-6.2-0.1-9.3c0-0.6-0.6-0.9-1.1-1.1
				C11.8,18.3,11.1,18.7,11.1,19.4z"/>
		</g>
		<path fill="#030304" d="M28.7,17.5c0.4-0.1,0.9-0.2,1.3-0.2c0.1,1.5-0.6,3.1-1.8,4.1c-1.6,1.4-4.2,1.5-6,0.3
			c-0.9-0.6-1.6-1.5-1.9-2.5c0.4-0.1,0.9-0.2,1.3-0.2c0.4,0.8,1,1.5,1.9,1.9c0.5,0.3,1.1,0.3,1.6,0.4c1.2-0.1,2.5-0.7,3.1-1.9
			C28.5,18.8,28.6,18.1,28.7,17.5z"/>
		<path fill="#030304" d="M29.7,31.2c1.1-1.3,3-2,4.6-1.6c1.7,0.3,3.2,1.6,3.8,3.2c-0.4,0.1-0.9,0.2-1.3,0.3c-0.4-0.8-1.1-1.6-2-2
			c-1.2-0.5-2.7-0.3-3.7,0.5c-0.9,0.7-1.3,1.8-1.4,2.9c-0.5,0.1-0.9,0.2-1.4,0.2C28.5,33.5,28.9,32.2,29.7,31.2z"/>
	</g>
	<g>
		<g>
			<path fill="#FFFFFF" d="M16,9.9c3.2-2.4,7.1-3.7,11.1-3.7c3.7,0,7.3,1.2,10.3,3.2c3.2,2.2,5.8,5.4,7,9.1
				c1.4,3.8,1.4,8.1,0.2,11.9c-1.2,3.7-3.6,7-6.8,9.3c-2.8,2-6.2,3.2-9.6,3.4c-3.9,0.2-7.8-0.8-11-2.9c2-2.5,3.8-5,5.8-7.5
				c0.5-0.7,0.8-1.6,0.4-2.4c-0.6-1.3-2.5-1.8-3.5-0.7c-0.6,0.8-1.2,1.6-1.8,2.4c0-3.5,0-7,0-10.5c0-0.4-0.1-0.8-0.2-1.1
				c-0.4-0.4-0.7-0.9-1.3-1.1c-0.6-0.2-1.3-0.1-1.9,0.2c0.1-1.3-1.1-2.4-2.3-2.3c-1,0-1.9,0.8-2.1,1.8c-0.2-0.1-0.3-0.2-0.5-0.3
				C10.8,15.2,13,12.1,16,9.9z"/>
		</g>
		<path fill="#FFFFFF" d="M11.1,19.4c0.1-0.7,0.7-1.1,1.4-1.2c0.5,0.2,1,0.6,1.1,1.1c0.1,3.1,0,6.2,0.1,9.3c0.3,0,0.6,0,1,0
			c0-2.4,0-4.9,0-7.3c0-0.4,0.3-0.7,0.5-1c0.8-0.4,2,0.2,1.9,1.1c0,3.9,0.1,7.8,0,11.6c0,0.2,0.1,0.4,0.1,0.5c0.1,0,0.3,0.1,0.4,0.2
			c0.1,0,0.3-0.1,0.4-0.1c0.8-1,1.6-2.1,2.4-3.1c0.3-0.4,0.8-0.7,1.2-0.5c0.8,0.1,1.3,1.2,0.8,1.8c-1.8,2.4-3.6,4.7-5.4,7.1
			c-1.1,1.9-3.4,2.9-5.6,3c-1.9,0.1-3.8-0.5-5.3-1.7c-0.9-0.8-1.5-1.9-1.7-3c0-4.7,0-9.5,0-14.2c0-0.7,0.6-1.3,1.3-1.2
			c0.4,0,0.7,0.3,1,0.6c0,2,0,4.1,0,6.1c0.3,0,0.6,0,1,0c0-2.7,0-5.4,0-8.1c0.2-0.3,0.3-0.7,0.7-0.8c0.7-0.5,1.8,0.2,1.8,1.1
			c0,2.6,0,5.2,0,7.8c0.3,0,0.6,0,0.9,0C11.1,25.6,11,22.5,11.1,19.4z"/>
	</g>
	<path fill="none" stroke="#000000" stroke-width="5" stroke-miterlimit="10" d="M41.1,27.3"/>
	<path fill="none" stroke="#000000" stroke-width="5" stroke-miterlimit="10" d="M26.2,30.2"/>
	<path fill="none" stroke="#000000" stroke-width="2.5" stroke-miterlimit="10" d="M35.4,32.6"/>
	<path fill="none" stroke="#000000" stroke-width="2.5" stroke-miterlimit="10" d="M31.7,32.6"/>
	<ellipse transform="matrix(0.9964 -8.491962e-002 8.491962e-002 0.9964 -1.6387 1.9189)" cx="21.7" cy="20.2" rx="2.4" ry="2.4"/>
	<ellipse transform="matrix(0.9964 -8.491962e-002 8.491962e-002 0.9964 -1.2911 3.2939)" cx="38.1" cy="16.8" rx="2.4" ry="2.4"/>
	<g>
		<path d="M28.4,29.2l0-0.1c-0.1-0.4,0.1-0.8,0.5-1l7.1-2.2c0.4-0.1,0.8,0.1,1,0.5l0,0.1c0.1,0.4-0.1,0.8-0.5,1l-7.1,2.2
			C29,29.8,28.5,29.6,28.4,29.2z"/>
	</g>
	
		<ellipse transform="matrix(0.9964 -8.491962e-002 8.491962e-002 0.9964 -1.6387 1.9189)" fill="#FFFFFF" cx="21.7" cy="20.2" rx="0.9" ry="1"/>
	
		<ellipse transform="matrix(0.9964 -8.491962e-002 8.491962e-002 0.9964 -1.2882 3.3167)" fill="#FFFFFF" cx="38.3" cy="16.8" rx="0.9" ry="1"/>
</g>
</svg>
