<?xml version="1.0" encoding="utf-8"?>
<!-- Generator: Adobe Illustrator 18.0.0, SVG Export Plug-In . SVG Version: 6.00 Build 0)  -->
<!DOCTYPE svg PUBLIC "-//W3C//DTD SVG 1.1//EN" "http://www.w3.org/Graphics/SVG/1.1/DTD/svg11.dtd">
<svg version="1.1" id="Layer_1" xmlns="http://www.w3.org/2000/svg" xmlns:xlink="http://www.w3.org/1999/xlink" x="0px" y="0px"
	 viewBox="0 0 50 50" enable-background="new 0 0 50 50" xml:space="preserve">
<g>
	<g>
		<g>
			<g>
				<path fill="#030304" d="M21.8,6c1.6-0.5,3.3-0.6,5-0.8c1.9,0.2,3.9,0.4,5.7,1c4.6,1.4,8.5,4.7,10.8,8.9c2,3.6,2.8,8,2.1,12.1
					c-0.6,4-2.6,7.7-5.5,10.6c-2.8,2.7-6.4,4.5-10.2,5.1c-4,0.7-8.3,0-11.8-2c-0.5-0.3-1-0.6-1.5-0.8c-1.3,1.1-3.1,1.6-4.8,1.7
					c-2.2,0.1-4.5-0.6-6.1-2.3c-1.2-1.1-1.7-2.8-1.6-4.4c0-4,0-8,0-12c0-1,0.5-2.1,1.5-2.4c0.5-0.2,1.1-0.1,1.7,0.1
					c-0.1-1.1,0.6-2.1,1.6-2.4c1.1-3.2,2.9-6.1,5.4-8.3C16.4,8.2,19,6.8,21.8,6z M16.2,10c-2.8,2.1-5,5.1-6.2,8.4
					c0.2,0.1,0.3,0.2,0.5,0.3c0.3-0.9,1.1-1.7,2.1-1.7c1.2-0.1,2.3,1,2.2,2.2c0.6-0.3,1.2-0.4,1.8-0.2c0.6,0.1,0.9,0.6,1.3,1
					c0.1,0.4,0.2,0.7,0.2,1.1c0,3.4,0,6.7,0,10.1c0.6-0.8,1.1-1.6,1.8-2.3c1-1,2.9-0.6,3.4,0.7c0.4,0.7,0.2,1.7-0.3,2.3
					c-1.9,2.4-3.7,4.8-5.6,7.2c3.1,2,6.9,3,10.6,2.7c3.3-0.2,6.6-1.4,9.3-3.3c3-2.2,5.4-5.4,6.5-8.9c1.2-3.7,1.2-7.8-0.2-11.4
					c-1.2-3.5-3.7-6.6-6.8-8.7c-2.9-1.9-6.4-3-9.9-3C23,6.5,19.2,7.7,16.2,10z M11.4,19.1c0,3,0,5.9,0,8.9c-0.3,0-0.6,0-0.9,0
					c-0.1-2.5,0-5,0-7.5c0-0.8-1-1.4-1.7-1c-0.3,0.1-0.5,0.5-0.7,0.8c0,2.6,0,5.2,0,7.8c-0.3,0-0.6,0-0.9,0c0-2,0-3.9,0-5.9
					c-0.2-0.3-0.5-0.6-0.9-0.6C5.6,21.5,5,22.1,5,22.7c0,4.5,0,9.1,0,13.6c0.1,1.1,0.7,2.2,1.6,2.9c1.4,1.2,3.3,1.7,5.1,1.6
					c2.1-0.1,4.3-1,5.3-2.9c1.7-2.3,3.5-4.5,5.2-6.8c0.5-0.7,0-1.6-0.8-1.8c-0.5-0.1-0.9,0.2-1.2,0.5c-0.8,1-1.5,2-2.3,3
					c-0.1,0-0.3,0.1-0.4,0.1c-0.1,0-0.3-0.1-0.4-0.2c0-0.2-0.1-0.3-0.1-0.5c0.1-3.7,0-7.5,0-11.2c0.1-0.9-1-1.5-1.8-1.1
					c-0.2,0.3-0.5,0.5-0.5,0.9c0,2.3,0,4.7,0,7c-0.3,0-0.6,0-0.9,0c-0.1-3,0-6-0.1-9c0-0.6-0.5-0.9-1-1.1
					C12.1,18,11.5,18.4,11.4,19.1z"/>
			</g>
			<path fill="#030304" d="M28.3,17.3c0.4-0.1,0.8-0.2,1.3-0.2c0.1,1.5-0.6,3-1.7,3.9c-1.6,1.4-4,1.5-5.7,0.3
				c-0.9-0.6-1.5-1.4-1.8-2.4c0.4-0.1,0.8-0.2,1.3-0.2c0.4,0.8,1,1.5,1.8,1.8c0.5,0.3,1,0.3,1.6,0.3c1.2-0.1,2.4-0.7,2.9-1.8
				C28.1,18.5,28.2,17.9,28.3,17.3z"/>
			<path fill="#030304" d="M29.3,30.5c1.1-1.3,2.8-1.9,4.5-1.6c1.7,0.3,3.1,1.5,3.7,3.1c-0.4,0.1-0.8,0.2-1.3,0.3
				c-0.4-0.8-1-1.5-1.9-1.9c-1.1-0.5-2.6-0.3-3.5,0.5c-0.9,0.6-1.3,1.7-1.3,2.7c-0.4,0.1-0.9,0.2-1.3,0.2
				C28.1,32.7,28.5,31.4,29.3,30.5z"/>
		</g>
		<g>
			<g>
				<path fill="#FFFFFF" d="M16.2,10c3-2.3,6.8-3.5,10.6-3.5c3.5,0,7,1.1,9.9,3c3.1,2.1,5.5,5.2,6.8,8.7c1.3,3.7,1.4,7.8,0.2,11.4
					c-1.1,3.6-3.5,6.7-6.5,8.9c-2.7,1.9-5.9,3.1-9.3,3.3c-3.7,0.2-7.5-0.7-10.6-2.7c1.9-2.4,3.7-4.8,5.6-7.2
					c0.5-0.6,0.7-1.6,0.3-2.3c-0.5-1.3-2.4-1.7-3.4-0.7c-0.6,0.7-1.2,1.5-1.8,2.3c0-3.4,0-6.7,0-10.1c0-0.4-0.1-0.7-0.2-1.1
					c-0.4-0.4-0.7-0.9-1.3-1c-0.6-0.2-1.3-0.1-1.8,0.2c0.1-1.2-1-2.3-2.2-2.2c-1,0-1.8,0.8-2.1,1.7c-0.2-0.1-0.3-0.2-0.5-0.3
					C11.2,15.1,13.3,12.1,16.2,10z"/>
			</g>
			<path fill="#FFFFFF" d="M11.4,19.1c0.1-0.7,0.7-1.1,1.3-1.1c0.5,0.2,1,0.5,1,1.1c0.1,3,0,6,0.1,9c0.3,0,0.6,0,0.9,0
				c0-2.3,0-4.7,0-7c0-0.4,0.3-0.6,0.5-0.9c0.8-0.4,1.9,0.2,1.8,1.1c0,3.7,0,7.5,0,11.2c0,0.2,0.1,0.3,0.1,0.5
				c0.1,0,0.3,0.1,0.4,0.2c0.1,0,0.3-0.1,0.4-0.1c0.8-1,1.5-2,2.3-3c0.3-0.3,0.7-0.6,1.2-0.5c0.8,0.1,1.3,1.1,0.8,1.8
				c-1.7,2.3-3.5,4.5-5.2,6.8c-1.1,1.9-3.3,2.8-5.3,2.9C9.8,41,8,40.5,6.6,39.3c-0.9-0.7-1.5-1.8-1.6-2.9c0-4.5,0-9.1,0-13.6
				c0-0.6,0.6-1.2,1.3-1.1c0.4,0,0.7,0.3,0.9,0.6c0,2,0,3.9,0,5.9c0.3,0,0.6,0,0.9,0c0-2.6,0-5.2,0-7.8c0.2-0.3,0.3-0.6,0.7-0.8
				c0.7-0.4,1.7,0.2,1.7,1c0,2.5,0,5,0,7.5c0.3,0,0.6,0,0.9,0C11.4,25,11.4,22.1,11.4,19.1z"/>
		</g>
		<path fill="none" stroke="#000000" stroke-width="5" stroke-miterlimit="10" d="M40.2,26.7"/>
		<path fill="none" stroke="#000000" stroke-width="5" stroke-miterlimit="10" d="M26,29.5"/>
		<path fill="none" stroke="#000000" stroke-width="2.5" stroke-miterlimit="10" d="M34.8,31.8"/>
		<path fill="none" stroke="#000000" stroke-width="2.5" stroke-miterlimit="10" d="M31.2,31.8"/>
		<ellipse transform="matrix(0.9964 -8.491962e-002 8.491962e-002 0.9964 -1.6139 1.9112)" cx="21.7" cy="19.9" rx="2.3" ry="2.3"/>
		<ellipse transform="matrix(0.9964 -8.491962e-002 8.491962e-002 0.9964 -1.2801 3.2318)" cx="37.3" cy="16.7" rx="2.3" ry="2.3"/>
		
			<ellipse transform="matrix(0.9964 -8.491962e-002 8.491962e-002 0.9964 -1.6169 1.8393)" fill="#FFFFFF" cx="20.8" cy="19.9" rx="0.9" ry="0.9"/>
		
			<ellipse transform="matrix(0.9964 -8.491962e-002 8.491962e-002 0.9964 -1.2361 3.3065)" fill="#FFFFFF" cx="38.2" cy="16.2" rx="0.9" ry="0.9"/>
	</g>
	<path d="M36.6,25.9c-0.4,0.2-1.1-0.4-1.5-0.5c-0.3-0.1-0.7,0.1-0.9,0.3c-0.4,0.2-0.6,0.8-0.9,1.1c-0.3,0.3-1.7-0.2-2.2-0.3
		c-1.2-0.1-1.7,1.8-2.8,1c-0.7-0.5-1.7-0.1-2.2,0.5c-0.4,0.5,0.3,1.1,0.7,0.7c0.6-0.6,2.1,0.4,2.9,0.1c0.2-0.1,0.4-0.5,0.6-0.7
		c1-1.5,1.6-0.1,2.5-0.1c0.7,0,1.1-0.3,1.5-0.9c0.6-0.9,1.7,0.1,2.6-0.3C37.4,26.6,37.2,25.7,36.6,25.9z"/>
</g>
</svg>
