<?xml version="1.0" encoding="utf-8"?>
<!-- Generator: Adobe Illustrator 18.0.0, SVG Export Plug-In . SVG Version: 6.00 Build 0)  -->
<!DOCTYPE svg PUBLIC "-//W3C//DTD SVG 1.1//EN" "http://www.w3.org/Graphics/SVG/1.1/DTD/svg11.dtd">
<svg version="1.1" id="Layer_1" xmlns="http://www.w3.org/2000/svg" xmlns:xlink="http://www.w3.org/1999/xlink" x="0px" y="0px"
	 viewBox="0 0 50 50" enable-background="new 0 0 50 50" xml:space="preserve">
<g>
	<g>
		<path d="M26.6,27"/>
		<g>
			<g>
				<g>
					<path fill="#030304" d="M21.9,6.4c1.7-0.5,3.4-0.6,5.2-0.8c2,0.2,4,0.4,5.9,1c4.7,1.5,8.7,4.8,11.1,9.1
						c2.1,3.7,2.9,8.2,2.2,12.4c-0.6,4.1-2.7,7.9-5.6,10.8c-2.8,2.7-6.5,4.6-10.4,5.2c-4.1,0.7-8.5,0-12.2-2c-0.5-0.3-1-0.6-1.6-0.8
						c-1.4,1.1-3.1,1.7-4.9,1.8c-2.3,0.1-4.7-0.6-6.3-2.3c-1.2-1.2-1.7-2.9-1.6-4.5c0-4.1,0-8.2,0-12.4c0-1,0.6-2.1,1.6-2.4
						c0.6-0.2,1.2-0.1,1.7,0.1c-0.1-1.1,0.6-2.2,1.7-2.4c1.1-3.2,3-6.2,5.6-8.5C16.3,8.6,19,7.2,21.9,6.4z M16.1,10.5
						c-2.9,2.2-5.1,5.2-6.4,8.6c0.2,0.1,0.3,0.2,0.5,0.3c0.3-0.9,1.1-1.7,2.1-1.8c1.2-0.1,2.4,1,2.3,2.3c0.6-0.3,1.2-0.5,1.9-0.2
						c0.6,0.1,0.9,0.6,1.3,1c0.1,0.4,0.2,0.7,0.2,1.1c0,3.5,0,6.9,0,10.4c0.6-0.8,1.2-1.6,1.8-2.3c1-1,2.9-0.6,3.5,0.7
						c0.4,0.8,0.2,1.7-0.3,2.4c-1.9,2.5-3.8,5-5.7,7.4c3.2,2.1,7.1,3.1,10.9,2.8c3.4-0.2,6.7-1.4,9.5-3.4c3.1-2.3,5.5-5.5,6.7-9.2
						c1.2-3.8,1.2-8-0.2-11.7c-1.3-3.6-3.8-6.8-6.9-9c-3-2-6.6-3.1-10.2-3.1C23.2,6.9,19.3,8.1,16.1,10.5z M11.3,19.8
						c0,3.1,0,6.1,0,9.2c-0.3,0-0.6,0-0.9,0c-0.1-2.6,0-5.1,0-7.7c0-0.8-1-1.5-1.7-1C8.2,20.3,8,20.7,7.9,21c0,2.7,0,5.3,0,8
						c-0.3,0-0.6,0-0.9,0c0-2,0-4,0-6c-0.3-0.3-0.6-0.6-1-0.6c-0.7-0.1-1.3,0.5-1.3,1.2c0,4.7,0,9.3,0,14c0.2,1.2,0.8,2.2,1.6,3
						c1.4,1.2,3.4,1.8,5.2,1.7c2.1-0.1,4.4-1.1,5.5-3c1.7-2.4,3.6-4.6,5.3-7c0.5-0.7,0-1.7-0.8-1.8c-0.5-0.1-0.9,0.2-1.2,0.5
						c-0.8,1-1.6,2-2.4,3.1c-0.1,0-0.3,0.1-0.4,0.1c-0.1,0-0.3-0.1-0.4-0.2c0-0.2-0.1-0.3-0.1-0.5c0.1-3.8,0-7.7,0-11.5
						c0.1-1-1.1-1.6-1.9-1.1c-0.2,0.3-0.5,0.6-0.5,0.9c0,2.4,0,4.8,0,7.2c-0.3,0-0.6,0-0.9,0c-0.1-3.1,0-6.1-0.1-9.2
						c0-0.6-0.6-0.9-1-1.1C12,18.7,11.3,19.1,11.3,19.8z"/>
				</g>
				<path fill="#030304" d="M29.6,31.5c1.1-1.3,2.9-1.9,4.6-1.6c1.7,0.3,3.2,1.5,3.8,3.2c-0.4,0.1-0.9,0.2-1.3,0.3
					c-0.4-0.8-1.1-1.6-2-1.9c-1.2-0.5-2.6-0.3-3.6,0.5c-0.9,0.6-1.3,1.7-1.4,2.8c-0.4,0.1-0.9,0.2-1.3,0.2
					C28.4,33.7,28.8,32.4,29.6,31.5z"/>
			</g>
			<g>
				<path fill="#FFFFFF" d="M16.1,10.5c3.1-2.4,7-3.6,10.9-3.6c3.6,0,7.2,1.1,10.2,3.1c3.2,2.2,5.7,5.3,6.9,9
					c1.4,3.7,1.4,8,0.2,11.7c-1.2,3.7-3.6,6.9-6.7,9.2c-2.8,2-6.1,3.2-9.5,3.4c-3.8,0.2-7.7-0.7-10.9-2.8c1.9-2.4,3.8-4.9,5.7-7.4
					c0.5-0.6,0.8-1.6,0.3-2.4c-0.6-1.3-2.5-1.7-3.5-0.7c-0.6,0.7-1.2,1.5-1.8,2.3c0-3.5,0-6.9,0-10.4c0-0.4-0.1-0.8-0.2-1.1
					c-0.4-0.4-0.7-0.9-1.3-1c-0.6-0.2-1.3-0.1-1.9,0.2c0.1-1.2-1.1-2.3-2.3-2.3c-1,0-1.8,0.8-2.1,1.8c-0.2-0.1-0.3-0.2-0.5-0.3
					C11,15.7,13.2,12.6,16.1,10.5z"/>
			</g>
		</g>
		<g>
			<path fill="#FFFFFF" d="M16.9,21.3c-0.3-0.6-1.1-0.8-1.7-0.5c-0.2,0.3-0.5,0.5-0.5,0.8c0.1-0.3,0.4-0.5,0.5-0.8
				C15.8,20.5,16.6,20.8,16.9,21.3z"/>
			<path fill="#F9F9F9" d="M21.5,30.4c-0.5-0.1-0.9,0.2-1.2,0.5c-0.8,1-1.6,2-2.4,3.1c-0.1,0-0.3,0.1-0.4,0.1
				c-0.1,0-0.3-0.1-0.4-0.2c0-0.2-0.1-0.3-0.1-0.5c0.1-3.1,0-10.7,0-11.4c0-0.2,0-0.5-0.1-0.7c-0.3-0.5-1.1-0.9-1.7-0.5
				c-0.2,0.1-0.4,0.5-0.5,0.8c0,0,0,4.9,0,7.3c-0.3,0-0.6,0-0.9,0c-0.1-3.1,0-6.1-0.1-9.2c0-0.6-0.6-0.9-1-1.1
				c-0.6,0.1-1.3,0.5-1.3,1.2c0,3.1,0,6.1,0,9.2c-0.3,0-0.6,0-0.9,0c-0.1-2.6,0-5.1,0-7.7c0-0.8-1-1.5-1.7-1C8.2,20.3,8,20.7,7.9,21
				c0,2.7,0,5.3,0,8c-0.3,0-0.6,0-0.9,0c0-2,0-4,0-6c-0.3-0.3-0.6-0.6-1-0.6c-0.7-0.1-1.3,0.5-1.3,1.2c0,4.7,0,9.3,0,14
				c0.2,1.2,0.8,2.2,1.6,3c1.4,1.2,3.4,1.8,5.2,1.7c2.1-0.1,4.4-1.1,5.5-3c1.7-2.4,3.6-4.6,5.3-7C22.8,31.5,22.3,30.5,21.5,30.4z"/>
		</g>
	</g>
	<path d="M34.7,15.2c-0.1-0.2-0.3-0.3-0.5-0.2c0,0-1.5,0.7-3.1,1.3c0-0.2-0.1-0.5-0.2-0.7l0,0c1.7-0.6,3.2-1.3,3.3-1.3
		c0.2-0.1,0.3-0.3,0.2-0.5c-0.1-0.2-0.3-0.3-0.5-0.2c0,0-1.5,0.8-3.3,1.3l-0.3-0.7c1.8-0.6,3.5-1.4,3.5-1.4c0.2-0.1,0.3-0.3,0.2-0.5
		c-0.1-0.2-0.3-0.3-0.5-0.2c0,0-1.7,0.8-3.5,1.4l-1.4-2.3c0,0,0,0,0,0l0,2.7c-1.9,0.4-3.8,0.5-3.8,0.5c-0.2,0-0.4,0.2-0.3,0.4
		c0,0.2,0.2,0.4,0.4,0.3c0.1,0,1.9-0.1,3.8-0.5l0,0.8c-1.8,0.3-3.5,0.4-3.5,0.4c-0.2,0-0.4,0.2-0.3,0.4c0,0.2,0.2,0.4,0.4,0.3
		c0.1,0,1.7-0.1,3.5-0.4l0,0.1c0,0.2,0.1,0.4,0.2,0.6c-1.7,0.3-3.3,0.4-3.3,0.4c-0.2,0-0.4,0.2-0.3,0.4c0,0.2,0.2,0.4,0.4,0.3
		c0.1,0,1.9-0.1,3.8-0.5c0.1,0.1,0.2,0.2,0.2,0.2l0,0c0.4,0.3,1,0.1,1.2-0.3l0-0.1c0-0.1,0.1-0.2,0.1-0.3c1.8-0.6,3.4-1.4,3.5-1.4
		C34.7,15.6,34.8,15.4,34.7,15.2z"/>
	<path d="M28.4,34.2c0.1,0,2.1,0.2,6.1-0.9c3.9-1.1,5.4-2.2,5.6-2.4l0,0c0.4-0.3,0.5-0.9,0.1-1.3c-0.3-0.4-0.9-0.5-1.3-0.1l0,0
		c0,0,0,0,0,0c0,0-1.4,1-4.9,2c-3.6,1-5.4,0.9-5.4,0.9l0,0c-0.5-0.1-1,0.3-1,0.9C27.5,33.7,27.9,34.1,28.4,34.2L28.4,34.2z"/>
	<path fill="#030304" d="M22.5,26c0-0.5,0-1.1,0.2-1.6c0.3-1,1.3-1.7,2.3-1.9c0.5,0,0.9-0.1,1.4,0.1c0.7,0.2,1.3,0.7,1.8,1.3
		c0.3-0.1,0.7-0.2,1-0.4c-0.4-0.8-1.1-1.4-1.9-1.8c-1.6-0.8-3.7-0.3-4.9,1c-0.9,1-1.2,2.3-0.9,3.6C21.8,26.2,22.1,26.1,22.5,26z"/>
	<path fill="#030304" d="M35.6,23.2c0-0.5,0-1.1,0.2-1.6c0.3-1,1.3-1.7,2.3-1.9c0.5,0,0.9-0.1,1.4,0.1c0.7,0.2,1.3,0.7,1.8,1.3
		c0.3-0.1,0.7-0.2,1-0.4c-0.4-0.8-1.1-1.4-1.9-1.8c-1.6-0.8-3.7-0.3-4.9,1c-0.9,1-1.2,2.3-0.9,3.6C34.9,23.5,35.2,23.4,35.6,23.2z"
		/>
</g>
</svg>
