<?xml version="1.0" encoding="utf-8"?>
<!-- Generator: Adobe Illustrator 18.0.0, SVG Export Plug-In . SVG Version: 6.00 Build 0)  -->
<!DOCTYPE svg PUBLIC "-//W3C//DTD SVG 1.1//EN" "http://www.w3.org/Graphics/SVG/1.1/DTD/svg11.dtd">
<svg version="1.1" id="Layer_1" xmlns="http://www.w3.org/2000/svg" xmlns:xlink="http://www.w3.org/1999/xlink" x="0px" y="0px"
	 viewBox="0 0 82 82" enable-background="new 0 0 82 82" xml:space="preserve">
<g>
	<g>
		<g>
			<g>
				<g>
					<path fill="#030304" d="M35.4,7.8c3-0.8,6.1-1.2,9.2-1.4c3.5,0.3,7.1,0.7,10.5,1.8c8.4,2.6,15.6,8.6,19.8,16.2
						c3.7,6.7,5.1,14.6,3.8,22.2c-1.1,7.3-4.8,14.2-10.1,19.3c-5.1,4.9-11.7,8.2-18.7,9.3c-7.4,1.2-15.1-0.1-21.7-3.6
						c-0.9-0.5-1.8-1.1-2.8-1.5c-2.4,2-5.6,3-8.7,3.1c-4.1,0.1-8.3-1.1-11.2-4.1c-2.1-2.1-3-5.1-2.9-8c0-7.4,0-14.7,0-22.1
						c0-1.8,1-3.8,2.8-4.3c1-0.4,2.1-0.1,3.1,0.2c-0.2-2,1.1-3.9,3-4.3c2-5.8,5.3-11.1,9.9-15.2C25.5,11.8,30.3,9.2,35.4,7.8z
						 M25.2,15.1C20,18.9,16,24.4,13.8,30.5c0.3,0.2,0.6,0.4,0.9,0.6c0.5-1.7,2-3.1,3.8-3.1c2.2-0.1,4.2,1.9,4.1,4.1
						c1-0.5,2.2-0.8,3.3-0.4c1,0.2,1.7,1.1,2.3,1.9c0.2,0.6,0.4,1.3,0.4,2c0,6.2,0,12.3,0,18.5c1-1.4,2.1-2.9,3.2-4.2
						c1.8-1.8,5.2-1.1,6.2,1.3c0.7,1.4,0.3,3.1-0.6,4.2c-3.4,4.4-6.7,8.9-10.2,13.2c5.7,3.7,12.6,5.5,19.4,5c6.1-0.4,12-2.5,17-6
						c5.6-4,9.9-9.8,12-16.4c2.2-6.8,2.1-14.3-0.3-21c-2.3-6.5-6.8-12.1-12.4-16c-5.4-3.5-11.7-5.5-18.2-5.6
						C37.7,8.6,30.8,10.9,25.2,15.1z M16.5,31.7c-0.1,5.4,0.1,10.9-0.1,16.3c-0.6,0-1.1,0-1.7,0c-0.1-4.6,0-9.2,0-13.8
						c0-1.5-1.8-2.6-3.1-1.8c-0.6,0.3-0.9,0.9-1.2,1.4c0,4.7,0.1,9.5,0,14.2c-0.6,0-1.1,0-1.7,0c-0.1-3.6-0.1-7.2,0-10.8
						c-0.5-0.5-1-1-1.7-1c-1.2-0.2-2.3,0.9-2.3,2.1c0,8.3,0,16.6,0,25c0.3,2.1,1.3,4,2.9,5.3c2.5,2.2,6,3.1,9.3,3
						c3.8-0.2,7.8-1.9,9.8-5.4c3.1-4.2,6.4-8.3,9.5-12.5c0.9-1.2,0-3-1.4-3.2c-0.8-0.2-1.7,0.3-2.2,1c-1.4,1.8-2.8,3.6-4.2,5.4
						c-0.2,0.1-0.5,0.2-0.7,0.2c-0.2-0.1-0.5-0.2-0.7-0.3c-0.1-0.3-0.2-0.6-0.2-0.9c0.2-6.8,0-13.7,0.1-20.5c0.1-1.7-1.9-2.8-3.4-2
						c-0.4,0.5-0.9,1-0.9,1.7c0,4.3,0,8.6,0,12.8c-0.6,0-1.1,0-1.7,0c-0.2-5.5,0-10.9-0.1-16.4c0-1.1-1-1.7-1.9-2
						C17.7,29.7,16.6,30.5,16.5,31.7z"/>
				</g>
			</g>
			<g>
				<path fill="#030304" d="M68.2,25.2c0.8-0.1,1.5-0.3,2.3-0.4c0.2,2.8-1.1,5.6-3.3,7.3c-3,2.5-7.7,2.6-10.7,0.2
					c-1.4-1-2.5-2.5-3-4.1c0.7-0.2,1.5-0.3,2.2-0.5c0.8,1.6,2.2,3.1,4,3.7c2.8,1.1,6.3-0.3,7.7-3C67.9,27.4,68,26.3,68.2,25.2z"/>
			</g>
			<g>
				<path fill="#030304" d="M47.4,28.4c0.8-0.1,1.5-0.3,2.3-0.4c0.1,2.7-1,5.5-3.1,7.2c-2.9,2.5-7.4,2.7-10.5,0.5
					c-1.6-1-2.8-2.6-3.4-4.4c0.8-0.1,1.5-0.3,2.3-0.4c0.8,1.4,1.8,2.7,3.3,3.4c0.9,0.5,1.9,0.5,2.9,0.6c2.2-0.2,4.3-1.3,5.4-3.3
					C47.1,30.6,47.3,29.5,47.4,28.4z"/>
			</g>
			<g>
				<path fill="#030304" d="M49.3,52.6c1.9-2.3,5.2-3.5,8.2-2.9c3.1,0.5,5.7,2.8,6.7,5.7c-0.8,0.2-1.5,0.3-2.3,0.5
					c-0.8-1.5-1.9-2.8-3.5-3.4c-2.1-0.9-4.7-0.6-6.5,0.9c-1.6,1.2-2.3,3.1-2.4,5c-0.8,0.2-1.6,0.4-2.4,0.4
					C47.1,56.5,47.8,54.2,49.3,52.6z"/>
			</g>
		</g>
		<g>
			<g>
				<g>
					<path fill="#FFFFFF" d="M25.2,15.1c5.6-4.2,12.5-6.4,19.5-6.5c6.4,0,12.8,2,18.2,5.6c5.6,3.9,10.1,9.5,12.4,16
						c2.4,6.7,2.5,14.2,0.3,21c-2.1,6.6-6.4,12.4-12,16.4c-5,3.5-10.9,5.7-17,6c-6.8,0.4-13.7-1.3-19.4-5c3.5-4.3,6.8-8.8,10.2-13.2
						c1-1.1,1.4-2.8,0.6-4.2c-1-2.4-4.4-3.1-6.2-1.3c-1.1,1.3-2.2,2.8-3.2,4.2c0-6.2,0-12.3,0-18.5c0-0.7-0.2-1.3-0.4-2
						c-0.6-0.8-1.3-1.6-2.3-1.9c-1.1-0.4-2.3-0.1-3.3,0.4c0.1-2.2-1.9-4.2-4.1-4.1c-1.8,0.1-3.3,1.5-3.8,3.1
						c-0.3-0.2-0.6-0.4-0.9-0.6C16,24.4,20,18.9,25.2,15.1z"/>
				</g>
			</g>
			<g>
				<path fill="#FFFFFF" d="M16.5,31.7c0.1-1.2,1.2-2,2.4-2.1c0.9,0.4,1.8,1,1.9,2c0.1,5.5-0.1,10.9,0.1,16.4c0.6,0,1.1,0,1.7,0
					c0.1-4.3,0-8.6,0-12.8c0-0.7,0.6-1.2,0.9-1.7c1.5-0.8,3.4,0.3,3.4,2c-0.1,6.8,0.1,13.7-0.1,20.5c0.1,0.3,0.2,0.6,0.2,0.9
					c0.2,0.1,0.5,0.2,0.7,0.3c0.2-0.1,0.5-0.2,0.7-0.2c1.4-1.8,2.8-3.6,4.2-5.4c0.5-0.6,1.3-1.2,2.2-1c1.4,0.2,2.3,2,1.4,3.2
					c-3.1,4.2-6.4,8.3-9.5,12.5c-2,3.4-6,5.1-9.8,5.4c-3.3,0.1-6.8-0.8-9.3-3C6,67.3,5,65.4,4.7,63.3c0-8.3,0-16.6,0-25
					c0-1.2,1.1-2.3,2.3-2.1c0.7,0,1.3,0.5,1.7,1c0,3.6-0.1,7.2,0,10.8c0.6,0,1.1,0,1.7,0c0.1-4.7,0.1-9.5,0-14.2
					c0.3-0.6,0.6-1.2,1.2-1.4c1.3-0.8,3.1,0.4,3.1,1.8c0,4.6-0.1,9.2,0,13.8c0.6,0,1.1,0,1.7,0C16.5,42.6,16.4,37.1,16.5,31.7z"/>
			</g>
		</g>
		<g id="Eye_3_">
			<circle cx="40.4" cy="32.6" r="3.8"/>
		</g>
		<g id="Eye_2_">
			<circle cx="59.7" cy="31" r="3.8"/>
		</g>
		<g>
			<path d="M55.9,23.9l7.1,0.7c1,0.1,1.8-0.6,1.9-1.6v0c0.1-1-0.6-1.8-1.6-1.9l-7.1-0.7c-1-0.1-1.8,0.6-1.9,1.6v0
				C54.3,23,55,23.8,55.9,23.9z"/>
		</g>
		<g>
			<path d="M41.9,26l-6.8,2.2c-0.9,0.3-1.9-0.2-2.2-1.1v0c-0.3-0.9,0.2-1.9,1.1-2.2l6.8-2.2c0.9-0.3,1.9,0.2,2.2,1.1v0
				C43.3,24.7,42.8,25.7,41.9,26z"/>
		</g>
	</g>
	<g>
		<path d="M43.1,58.6c-0.3,0-0.7-0.2-0.9-0.4c-0.4-0.5-0.3-1.2,0.2-1.6c0.4-0.3,9.7-7.5,25-6.7c0.6,0,1.1,0.6,1.1,1.2
			c0,0.6-0.6,1.2-1.2,1.1c-14.4-0.7-23.3,6.1-23.4,6.2C43.6,58.5,43.4,58.6,43.1,58.6z"/>
	</g>
	<g>
		<path fill="none" stroke="#000000" stroke-width="4" stroke-linecap="round" stroke-linejoin="round" stroke-miterlimit="10" d="
			M67.3,43.1"/>
	</g>
	<g>
		<path d="M41.2,43.6c0.7,0,1.3-0.6,1.3-1.3s-1.3-3.9-1.3-3.9s-1.3,3.1-1.3,3.9S40.5,43.6,41.2,43.6z"/>
	</g>
</g>
</svg>
