<?xml version="1.0" encoding="utf-8"?>
<!-- Generator: Adobe Illustrator 18.0.0, SVG Export Plug-In . SVG Version: 6.00 Build 0)  -->
<!DOCTYPE svg PUBLIC "-//W3C//DTD SVG 1.1//EN" "http://www.w3.org/Graphics/SVG/1.1/DTD/svg11.dtd">
<svg version="1.1" id="Layer_1" xmlns="http://www.w3.org/2000/svg" xmlns:xlink="http://www.w3.org/1999/xlink" x="0px" y="0px"
	 viewBox="0 0 82 82" enable-background="new 0 0 82 82" xml:space="preserve">
<g>
	<g>
		<g>
			<g>
				<g>
					<path fill="#030304" d="M35.6,8.7c2.9-0.8,6-1.1,9-1.4C48,7.7,51.5,8,54.8,9.1c8.1,2.5,15.1,8.3,19.2,15.8
						c3.6,6.5,5,14.2,3.7,21.5c-1.1,7.1-4.6,13.8-9.8,18.8c-4.9,4.8-11.3,8-18.1,9c-7.2,1.2-14.7-0.1-21.1-3.5
						c-0.9-0.5-1.8-1-2.7-1.5c-2.3,2-5.4,2.9-8.5,3c-3.9,0.1-8.1-1.1-10.9-4c-2.1-2-2.9-5-2.8-7.8c0-7.1,0-14.3,0-21.4
						c0-1.8,1-3.7,2.8-4.2c1-0.4,2-0.1,3,0.2c-0.2-1.9,1-3.8,2.9-4.2c1.9-5.6,5.2-10.8,9.6-14.7C26,12.6,30.6,10.1,35.6,8.7z
						 M25.6,15.8c-5.1,3.8-8.9,9.1-11,15c0.3,0.2,0.6,0.4,0.8,0.5c0.5-1.6,1.9-3,3.7-3c2.1-0.1,4.1,1.8,4,4c1-0.5,2.1-0.8,3.2-0.4
						c1,0.2,1.6,1.1,2.3,1.8c0.2,0.6,0.4,1.3,0.4,1.9c0,6,0,12,0,18c1-1.4,2-2.8,3.1-4.1c1.8-1.8,5.1-1,6.1,1.2
						c0.7,1.3,0.3,3-0.6,4.1c-3.3,4.2-6.5,8.6-9.9,12.8c5.6,3.6,12.3,5.3,18.9,4.9c5.9-0.3,11.7-2.4,16.5-5.8
						c5.4-3.9,9.6-9.5,11.6-15.9c2.1-6.6,2.1-13.9-0.3-20.4c-2.2-6.3-6.6-11.8-12-15.5C57,11.5,50.8,9.5,44.6,9.5
						C37.8,9.5,31.1,11.7,25.6,15.8z M17.2,31.9c-0.1,5.3,0,10.6-0.1,15.9c-0.5,0-1.1,0-1.6,0c-0.1-4.5,0-8.9,0-13.4
						c0-1.4-1.8-2.6-3-1.8c-0.6,0.3-0.9,0.9-1.2,1.4c0,4.6,0.1,9.2,0,13.8c-0.5,0-1.1,0-1.6,0c-0.1-3.5-0.1-7,0-10.5
						c-0.4-0.5-1-1-1.7-1c-1.2-0.2-2.2,0.9-2.2,2c0,8.1,0,16.2,0,24.3c0.3,2,1.3,3.9,2.9,5.2c2.5,2.1,5.8,3,9,2.9
						c3.7-0.2,7.6-1.9,9.5-5.2c3-4.1,6.2-8,9.2-12.1c0.9-1.2,0-2.9-1.4-3.2c-0.8-0.2-1.6,0.3-2.1,0.9c-1.4,1.8-2.7,3.5-4.1,5.3
						c-0.2,0-0.5,0.1-0.7,0.2c-0.2-0.1-0.5-0.2-0.7-0.3c-0.1-0.3-0.2-0.6-0.2-0.9c0.2-6.6,0-13.3,0.1-19.9c0.1-1.7-1.8-2.7-3.3-1.9
						c-0.4,0.5-0.9,1-0.9,1.6c0,4.2,0,8.3,0,12.5c-0.5,0-1.1,0-1.6,0c-0.2-5.3,0-10.6-0.1-15.9c0-1-1-1.6-1.8-2
						C18.4,30,17.3,30.8,17.2,31.9z"/>
				</g>
			</g>
		</g>
		<g>
			<g>
				<g>
					<path fill="#FFFFFF" d="M25.6,15.8c5.4-4.1,12.2-6.3,18.9-6.3c6.2,0,12.4,2,17.6,5.4c5.5,3.8,9.8,9.2,12,15.5
						c2.4,6.5,2.5,13.8,0.3,20.4c-2,6.4-6.2,12-11.6,15.9c-4.8,3.4-10.6,5.5-16.5,5.8c-6.6,0.4-13.3-1.3-18.9-4.9
						c3.4-4.2,6.6-8.6,9.9-12.8c0.9-1.1,1.3-2.8,0.6-4.1c-1-2.3-4.3-3-6.1-1.2c-1.1,1.3-2.1,2.7-3.1,4.1c0-6,0-12,0-18
						c0-0.7-0.2-1.3-0.4-1.9c-0.6-0.7-1.3-1.6-2.3-1.8c-1.1-0.4-2.2-0.1-3.2,0.4c0.1-2.2-1.8-4.1-4-4c-1.7,0-3.2,1.4-3.7,3
						c-0.3-0.2-0.6-0.4-0.8-0.5C16.8,24.9,20.6,19.6,25.6,15.8z"/>
				</g>
			</g>
			<g>
				<path fill="#FFFFFF" d="M17.2,31.9c0.1-1.2,1.2-1.9,2.3-2c0.8,0.3,1.8,0.9,1.8,2c0.1,5.3-0.1,10.6,0.1,15.9c0.5,0,1.1,0,1.6,0
					c0.1-4.2,0-8.3,0-12.5c0-0.7,0.5-1.1,0.9-1.6c1.4-0.8,3.3,0.3,3.3,1.9c-0.1,6.6,0.1,13.3-0.1,19.9c0.1,0.3,0.2,0.6,0.2,0.9
					c0.2,0.1,0.5,0.2,0.7,0.3c0.2,0,0.5-0.1,0.7-0.2c1.4-1.7,2.7-3.5,4.1-5.3c0.5-0.6,1.3-1.1,2.1-0.9c1.4,0.2,2.2,2,1.4,3.2
					c-3,4.1-6.2,8-9.2,12.1c-1.9,3.3-5.8,5-9.5,5.2c-3.2,0.1-6.6-0.8-9-2.9C7,66.6,6,64.7,5.7,62.7c0-8.1,0-16.2,0-24.3
					c0-1.1,1.1-2.2,2.2-2c0.7,0,1.2,0.5,1.7,1c0,3.5-0.1,7,0,10.5c0.5,0,1.1,0,1.6,0c0.1-4.6,0-9.2,0-13.8c0.3-0.5,0.6-1.1,1.2-1.4
					c1.2-0.8,3,0.4,3,1.8c0,4.5-0.1,8.9,0,13.4c0.5,0,1.1,0,1.6,0C17.2,42.5,17.1,37.2,17.2,31.9z"/>
			</g>
		</g>
		<g opacity="0.95" enable-background="new    ">
			<path d="M43.5,53c0.4,0,0.7-0.3,0.7-0.7c0-2.9,2.4-5.3,5.3-5.3s5.3,2.4,5.3,5.3c0,0.4,0.3,0.7,0.7,0.7s0.7-0.3,0.7-0.7
				c0-3.7-3-6.7-6.7-6.7c-3.7,0-6.7,3-6.7,6.7C42.8,52.7,43.1,53,43.5,53z"/>
		</g>
	</g>
	<g>
		<path d="M38.6,32.9c-0.1,0-0.2,0-0.3,0l-7.6-2.5c-0.4-0.1-0.7-0.6-0.5-1.1c0.1-0.4,0.6-0.7,1.1-0.5l7.6,2.5
			c0.4,0.1,0.7,0.6,0.5,1.1C39.3,32.7,38.9,32.9,38.6,32.9z"/>
	</g>
	<g>
		<path d="M58.3,32.9c-0.4,0-0.7-0.2-0.8-0.6c-0.1-0.4,0.1-0.9,0.5-1.1l7.6-2.5c0.4-0.2,0.9,0.1,1.1,0.5c0.1,0.4-0.1,0.9-0.5,1.1
			l-7.6,2.5C58.5,32.9,58.4,32.9,58.3,32.9z"/>
	</g>
</g>
</svg>
