<?xml version="1.0" encoding="utf-8"?>
<!-- Generator: Adobe Illustrator 18.0.0, SVG Export Plug-In . SVG Version: 6.00 Build 0)  -->
<!DOCTYPE svg PUBLIC "-//W3C//DTD SVG 1.1//EN" "http://www.w3.org/Graphics/SVG/1.1/DTD/svg11.dtd">
<svg version="1.1" id="Layer_1" xmlns="http://www.w3.org/2000/svg" xmlns:xlink="http://www.w3.org/1999/xlink" x="0px" y="0px"
	 viewBox="0 0 82 82" enable-background="new 0 0 82 82" xml:space="preserve">
<g>
	<g>
		<g>
			<path d="M43.8,44.6"/>
			<g>
				<g>
					<g>
						<path fill="#030304" d="M35.5,8c3-0.8,6.1-1.1,9.2-1.4c3.5,0.3,7.1,0.7,10.4,1.8c8.3,2.6,15.5,8.5,19.6,16.1
							c3.7,6.6,5.1,14.5,3.8,22c-1.1,7.3-4.7,14.1-10,19.2c-5,4.9-11.6,8.2-18.5,9.2c-7.3,1.2-15-0.1-21.5-3.6
							c-0.9-0.5-1.8-1.1-2.8-1.5c-2.4,2-5.6,2.9-8.6,3.1c-4,0.1-8.3-1.1-11.1-4.1c-2.1-2.1-3-5.1-2.9-8c0-7.3,0-14.6,0-21.9
							c0-1.8,1-3.8,2.8-4.3c1-0.4,2.1-0.1,3,0.2c-0.2-1.9,1.1-3.9,3-4.3c1.9-5.7,5.3-11.1,9.8-15.1C25.6,12,30.4,9.4,35.5,8z
							 M25.3,15.2c-5.2,3.8-9.1,9.3-11.3,15.3c0.3,0.2,0.6,0.4,0.9,0.6c0.5-1.7,2-3.1,3.7-3.1c2.2-0.1,4.2,1.9,4.1,4.1
							c1-0.5,2.2-0.8,3.3-0.4c1,0.2,1.7,1.1,2.3,1.9c0.2,0.6,0.4,1.3,0.4,2c0,6.1,0,12.3,0,18.4c1-1.4,2.1-2.8,3.2-4.2
							c1.8-1.8,5.2-1.1,6.2,1.3c0.7,1.4,0.3,3-0.6,4.2C34,59.5,30.7,64,27.3,68.3c5.7,3.7,12.6,5.4,19.3,5c6-0.3,11.9-2.5,16.8-6
							c5.5-4,9.8-9.8,11.9-16.3c2.2-6.7,2.1-14.2-0.3-20.8c-2.3-6.4-6.7-12-12.3-15.9c-5.3-3.5-11.6-5.5-18-5.5
							C37.7,8.8,30.8,11.1,25.3,15.2z M16.7,31.7c-0.1,5.4,0.1,10.8-0.1,16.2c-0.5,0-1.1,0-1.6,0c-0.1-4.6,0-9.1,0-13.7
							c0-1.5-1.8-2.6-3.1-1.8c-0.6,0.3-0.9,0.9-1.2,1.4c0,4.7,0.1,9.4,0,14.1c-0.6,0-1.1,0-1.7,0c-0.1-3.6-0.1-7.1,0-10.7
							c-0.4-0.5-1-1-1.7-1C6,36.1,5,37.2,4.9,38.4c0,8.3,0,16.5,0,24.8c0.3,2.1,1.3,4,2.9,5.3c2.5,2.2,5.9,3.1,9.2,3
							c3.8-0.2,7.8-1.9,9.7-5.3c3.1-4.2,6.3-8.2,9.4-12.4c0.9-1.2,0-3-1.4-3.2c-0.8-0.2-1.7,0.3-2.2,0.9c-1.4,1.8-2.8,3.6-4.2,5.4
							c-0.2,0.1-0.5,0.1-0.7,0.2c-0.2-0.1-0.5-0.2-0.7-0.3c-0.1-0.3-0.2-0.6-0.2-0.9c0.2-6.8,0-13.6,0.1-20.4c0.1-1.7-1.9-2.8-3.3-2
							c-0.4,0.5-0.9,1-0.9,1.7c0,4.3,0,8.5,0,12.8c-0.6,0-1.1,0-1.7,0c-0.2-5.4,0-10.9-0.1-16.3c0-1-1-1.7-1.9-2
							C17.9,29.8,16.7,30.5,16.7,31.7z"/>
					</g>
					<path fill="#030304" d="M49.2,52.5c1.9-2.3,5.2-3.5,8.1-2.9c3,0.5,5.7,2.7,6.7,5.6c-0.8,0.2-1.5,0.3-2.3,0.5
						c-0.8-1.5-1.9-2.8-3.5-3.4c-2.1-0.9-4.7-0.6-6.4,0.9c-1.6,1.2-2.3,3.1-2.4,5c-0.8,0.2-1.6,0.4-2.4,0.4
						C47,56.4,47.7,54.1,49.2,52.5z"/>
				</g>
				<g>
					<path fill="#FFFFFF" d="M25.3,15.2c5.5-4.2,12.4-6.4,19.4-6.4c6.4,0,12.7,2,18,5.5c5.6,3.9,10.1,9.4,12.3,15.9
						c2.4,6.6,2.5,14.1,0.3,20.8c-2.1,6.5-6.4,12.3-11.9,16.3c-4.9,3.5-10.8,5.6-16.8,6c-6.7,0.4-13.6-1.3-19.3-5
						c3.5-4.3,6.7-8.7,10.1-13.1c1-1.1,1.4-2.8,0.6-4.2c-1-2.3-4.4-3.1-6.2-1.3c-1.1,1.3-2.2,2.7-3.2,4.2c0-6.1,0-12.3,0-18.4
						c0-0.7-0.2-1.3-0.4-2c-0.6-0.8-1.3-1.6-2.3-1.9c-1.1-0.4-2.3-0.1-3.3,0.4c0.1-2.2-1.9-4.2-4.1-4.1c-1.8,0.1-3.3,1.4-3.7,3.1
						c-0.3-0.2-0.6-0.4-0.9-0.6C16.2,24.5,20.1,19.1,25.3,15.2z"/>
				</g>
			</g>
			<g>
				<path fill="#FFFFFF" d="M26.7,34.4c-0.6-1-2-1.5-3.1-0.9c-0.3,0.4-0.8,0.9-0.9,1.4c0.2-0.5,0.7-1,1-1.4
					C24.7,33.1,26.1,33.5,26.7,34.4z"/>
				<path fill="#F9F9F9" d="M34.8,50.5c-0.8-0.2-1.7,0.3-2.2,0.9c-1.4,1.8-2.8,3.6-4.2,5.4c-0.2,0.1-0.5,0.1-0.7,0.2
					c-0.2-0.1-0.5-0.2-0.7-0.3c-0.1-0.3-0.2-0.6-0.2-0.9c0.1-5.5,0-19,0-20.3c0-0.4,0-0.8-0.2-1.2c-0.6-1-1.9-1.6-3.1-0.9
					c-0.4,0.2-0.7,0.9-0.9,1.4c0,0,0,8.7-0.1,13c-0.6,0-1.1,0-1.7,0c-0.2-5.4,0-10.9-0.1-16.3c0-1-1-1.7-1.9-2
					c-1.1,0.1-2.3,0.8-2.4,2.1c-0.1,5.4,0.1,10.8-0.1,16.2c-0.5,0-1.1,0-1.6,0c-0.1-4.6,0-9.1,0-13.7c0-1.5-1.8-2.6-3.1-1.8
					c-0.6,0.3-0.9,0.9-1.2,1.4c0,4.7,0.1,9.4,0,14.1c-0.6,0-1.1,0-1.7,0c-0.1-3.6-0.1-7.1,0-10.7c-0.4-0.5-1-1-1.7-1
					C6,36.1,5,37.2,4.9,38.4c0,8.3,0,16.5,0,24.8c0.3,2.1,1.3,4,2.9,5.3c2.5,2.2,5.9,3.1,9.2,3c3.8-0.2,7.8-1.9,9.7-5.3
					c3.1-4.2,6.3-8.2,9.4-12.4C37.1,52.6,36.2,50.8,34.8,50.5z"/>
			</g>
		</g>
		<path fill="#030304" d="M33.6,38.8c0-0.9,0-1.9,0.3-2.8c0.6-1.8,2.2-3,4-3.4c0.8,0,1.7-0.1,2.5,0.1c1.3,0.4,2.4,1.3,3.2,2.3
			c0.6-0.2,1.2-0.4,1.8-0.7c-0.7-1.4-2-2.5-3.4-3.2c-2.9-1.4-6.6-0.6-8.6,1.9c-1.5,1.7-2.1,4.1-1.6,6.4C32.4,39.3,33,39,33.6,38.8z"
			/>
		<path fill="#030304" d="M56.8,34c0-0.9,0-1.9,0.3-2.8c0.6-1.8,2.2-3,4-3.4c0.8,0,1.7-0.1,2.5,0.1c1.3,0.4,2.4,1.3,3.2,2.3
			c0.6-0.2,1.2-0.4,1.8-0.7c-0.7-1.4-2-2.5-3.4-3.2c-2.9-1.4-6.6-0.6-8.6,1.9c-1.5,1.7-2.1,4.1-1.6,6.4C55.6,34.5,56.2,34.2,56.8,34
			z"/>
	</g>
	<g>
		<path d="M66.2,42.2l0.1,0.5L65,46.3l2.1-0.6l0.3,1.1l-3.9,1.1l-0.1-0.5l1.4-3.7l-2,0.6l-0.3-1L66.2,42.2z"/>
	</g>
	<g>
		<path d="M69.4,38.1l0.1,0.4l-0.9,2.4l1.4-0.4l0.2,0.8l-2.6,0.7l-0.1-0.3l0.9-2.5l-1.4,0.4l-0.2-0.7L69.4,38.1z"/>
	</g>
	<path d="M66.4,51.3c0.9,2.2-2.3,5.6-7,7.5c-4.8,1.9-9.4,1.6-10.3-0.6c-0.9-2.2,1.7-6.9,6.5-8.8C60.3,47.6,65.5,49.1,66.4,51.3z"/>
</g>
</svg>
