<?xml version="1.0" encoding="utf-8"?>
<!-- Generator: Adobe Illustrator 18.0.0, SVG Export Plug-In . SVG Version: 6.00 Build 0)  -->
<!DOCTYPE svg PUBLIC "-//W3C//DTD SVG 1.1//EN" "http://www.w3.org/Graphics/SVG/1.1/DTD/svg11.dtd">
<svg version="1.1" id="Layer_1" xmlns="http://www.w3.org/2000/svg" xmlns:xlink="http://www.w3.org/1999/xlink" x="0px" y="0px"
	 viewBox="0 0 82 82" enable-background="new 0 0 82 82" xml:space="preserve">
<g>
	<g>
		<circle fill="#FFFFFF" cx="45.6" cy="41" r="31.5"/>
	</g>
	<g>
		<path d="M45.6,73.6c-17.7,0-32.3-14.4-32.6-32.1c-0.3-18,14.2-32.8,32.1-33c17.9-0.3,32.8,14.3,33,32.1c0.3,18-14.2,32.8-32.1,33
			C45.9,73.6,45.8,73.6,45.6,73.6z M45.6,10.6c-0.1,0-0.3,0-0.4,0c-16.8,0.2-30.2,14.1-30,30.8c0.2,16.5,13.9,30,30.4,30
			c0.1,0,0.3,0,0.4,0c16.8-0.2,30.2-14.1,30-30.8C75.8,24,62.2,10.6,45.6,10.6z"/>
	</g>
	<g>
		<path fill="#FFFFFF" d="M30.8,44.7v-3.5c0-1.9-1.5-3.4-3.3-3.4c-0.7,0-1.3,0.2-1.9,0.6V30c0-1.9-1.5-3.4-3.3-3.4s-3.3,1.5-3.3,3.4
			v6.9c-0.5-0.4-1.2-0.6-1.9-0.6c-1.1,0-2.1,0.6-2.7,1.5c-0.6-0.7-1.5-1.2-2.5-1.2c-0.7,0-1.3,0.2-1.9,0.6v-1.9
			c0-1.9-1.5-3.4-3.3-3.4s-3.3,1.5-3.3,3.4v6l0,0l0,1.5l0,6.5c0,7.9,6.1,14.2,13.5,14.2c3.4,0,6.7-1.4,9.2-3.8
			c2.5-2.4,4-5.7,4.3-9.2c0-0.2,0.1-0.4,0.1-0.6v-0.4l0,0l0-0.2v-3.1L30.8,44.7L30.8,44.7L30.8,44.7z"/>
	</g>
	<g>
		<path d="M30.8,44.7v-3.5c0-1.9-1.5-3.4-3.3-3.4c-0.7,0-1.3,0.2-1.9,0.6V30c0-1.9-1.5-3.4-3.3-3.4s-3.3,1.5-3.3,3.4v6.9
			c-0.5-0.4-1.2-0.6-1.9-0.6c-1.1,0-2.1,0.6-2.7,1.5c-0.6-0.7-1.5-1.2-2.5-1.2c-0.7,0-1.3,0.2-1.9,0.6v-1.9c0-1.9-1.5-3.4-3.3-3.4
			s-3.3,1.5-3.3,3.4v6l0,0l0,1.5l0,6.5c0,7.9,6.1,14.2,13.5,14.2c3.4,0,6.7-1.4,9.2-3.8c2.5-2.4,4-5.7,4.3-9.2
			c0-0.2,0.1-0.4,0.1-0.6v-0.4l0,0l0-0.2v-3.1L30.8,44.7L30.8,44.7L30.8,44.7z M15.4,39.7c0-1.1,0.8-2,1.9-2c1,0,1.9,0.9,1.9,2v8.8
			c0,1.1-0.8,2-1.9,2c-1,0-1.9-0.9-1.9-2v-0.7c0,0,0,0,0,0V40c0,0,0,0,0,0V39.7z M12.2,38c1,0,1.9,0.9,1.9,2v7.8c0,1.1-0.8,2-1.9,2
			c-1,0-1.9-0.9-1.9-2V40C10.3,38.9,11.1,38,12.2,38z M29.4,49.3C29.4,49.3,29.4,49.3,29.4,49.3l0,0.6c0,0.1,0,0.3,0,0.4
			C28.9,56.9,23.7,62,17.3,62c-6.7,0-12.1-5.7-12.1-12.8l0-5.1h0v-0.4V41v-5.6c0-1.1,0.8-2,1.9-2c1,0,1.9,0.9,1.9,2V40c0,0,0,0,0,0
			v1v2.8v4c0,1.9,1.5,3.4,3.3,3.4c0.9,0,1.7-0.4,2.3-1c0.6,1,1.6,1.7,2.8,1.7c1.8,0,3.3-1.5,3.3-3.4v-8.8c0,0,0,0,0,0V30
			c0-1.1,0.8-2,1.9-2c1,0,1.9,0.9,1.9,2v17.6h1.4v-6.4c0-1.1,0.8-2,1.9-2c1,0,1.9,0.9,1.9,2v5h0L29.4,49.3L29.4,49.3z"/>
	</g>
	<g>
		<path fill="#030304" d="M64.6,26.7c0.7-0.1,1.4-0.3,2.1-0.4c0.2,2.6-1,5.2-3,6.8c-2.8,2.3-7.1,2.4-9.9,0.2c-1.3-1-2.3-2.3-2.8-3.8
			c0.7-0.2,1.4-0.3,2.1-0.5c0.8,1.5,2,2.9,3.7,3.4c2.6,1,5.8-0.3,7.1-2.7C64.3,28.7,64.4,27.7,64.6,26.7z"/>
	</g>
	<g>
		<path fill="#030304" d="M45.4,29.6c-0.1,1-0.3,2.1-0.8,3c-0.9,1.8-3,2.9-5,3.1c-0.9-0.1-1.9-0.2-2.7-0.6c-1.4-0.6-2.3-1.8-3-3.1
			c-0.7,0.1-1.4,0.3-2.1,0.4c0.6,1.6,1.7,3.1,3.1,4.1c2.9,2,7.1,1.8,9.7-0.5c2-1.6,3-4.1,2.9-6.7C46.8,29.4,46.1,29.5,45.4,29.6z"/>
	</g>
	<g>
		<path d="M48.9,55.9l-2.4-1.3c0.1-0.2,2.7-4.8,7.6-5.9c3-0.7,6.1,0.2,9.2,2.4l-1.6,2.2c-2.5-1.8-4.9-2.5-7.1-2
			C51,52.1,48.9,55.9,48.9,55.9z"/>
	</g>
</g>
</svg>
