<?xml version="1.0" encoding="utf-8"?>
<!-- Generator: Adobe Illustrator 18.0.0, SVG Export Plug-In . SVG Version: 6.00 Build 0)  -->
<!DOCTYPE svg PUBLIC "-//W3C//DTD SVG 1.1//EN" "http://www.w3.org/Graphics/SVG/1.1/DTD/svg11.dtd">
<svg version="1.1" id="Layer_1" xmlns="http://www.w3.org/2000/svg" xmlns:xlink="http://www.w3.org/1999/xlink" x="0px" y="0px"
	 viewBox="0 0 82 82" enable-background="new 0 0 82 82" xml:space="preserve">
<g>
	<g>
		<g>
			<path fill="#D97882" d="M44.2,17.8c0,0-3.9-2.6-9-3.7c-5.1-1.1-6.8,0.1-8.4,1.1c-1.6,1-2.8,3.8-2.8,7.5s0.8,6.8,0.8,6.8
				s3.9-4.7,11.2-7c7.3-2.3,19.5,0.1,23.8,3.8c4.3,3.7,5.2,5.6,5.2,5.6s2.6-7.4,1.5-10.8c-1.1-3.4-0.9-5.2-6.8-5.7
				c-5.9-0.5-9.4,0.6-11.4,2.1C46.1,19.2,44.2,17.8,44.2,17.8z"/>
			<radialGradient id="SVGID_1_" cx="39.8866" cy="34.8552" r="25.8108" gradientUnits="userSpaceOnUse">
				<stop  offset="0" style="stop-color:#F0E23C"/>
				<stop  offset="0.1155" style="stop-color:#F0DE3B"/>
				<stop  offset="0.2572" style="stop-color:#EED437"/>
				<stop  offset="0.4126" style="stop-color:#ECC332"/>
				<stop  offset="0.5777" style="stop-color:#E9AA2C"/>
				<stop  offset="0.7488" style="stop-color:#E68C26"/>
				<stop  offset="0.7925" style="stop-color:#E58425"/>
				<stop  offset="0.9719" style="stop-color:#F3A91D"/>
			</radialGradient>
			<path fill="url(#SVGID_1_)" d="M21.8,35.3c0,0-2.8,6.7,0.8,13.7c3.5,7,14,15.2,29.5,9C67.7,51.8,64.4,41.8,64,39.8
				c-0.5-2,0.8-6.1-0.5-7.2c-1.4-1.1-2.1-1.2-2.1-1.2s-8-7.7-9.9-7.7C49.5,23.6,30.6,19.7,21.8,35.3z"/>
			
				<radialGradient id="SVGID_2_" cx="69.1957" cy="21.7802" r="14.7669" gradientTransform="matrix(1.1554 0 0 1 -38.0831 0)" gradientUnits="userSpaceOnUse">
				<stop  offset="0" style="stop-color:#FFFFFF"/>
				<stop  offset="0.6763" style="stop-color:#F4E87E"/>
				<stop  offset="0.9719" style="stop-color:#F0E23C"/>
			</radialGradient>
			<ellipse fill="url(#SVGID_2_)" cx="42.4" cy="35.2" rx="20.1" ry="12.2"/>
			<path fill="#F69321" d="M56.9,39.7c0,0,1.1,2.5-5.6,5.6c-6.7,3-13,1.6-13,1.6s6.9,1.3,12.3-0.6c5.3-1.9,6.9-4.2,6.9-4.2
				s-0.1,1.4,1.1,0c1.1-1.4,1.6-1.5,0.6-2C58.2,39.5,57.7,39.1,56.9,39.7z"/>
			<path fill="#F69321" d="M29.8,48.1c0,0,1.6,3.7,5.8,5.8c4.1,2.1,5.2,2.2,5.2,2.2s0.8-0.6,2.2-0.4c1.5,0.1,0.9,0.9,0.9,0.9
				s1.5,0.1,0.8,0.3c-0.7,0.2-2.3,0.3-2.3,0.3s-0.4-0.9-1.5-0.7c-1.1,0.2-0.6,0.6-0.6,0.6s-2.8-0.9-6.2-2.6
				c-3.4-1.6-5.6-3.5-5.6-3.5l-1.6-2.1c0,0,0.6,0.2,1.9-0.3C29.8,48.1,29.8,48.1,29.8,48.1z"/>
			<path fill="#F69321" d="M45.2,56.7c0,0,9.5-3.6,13.9-8.2c4.4-4.6,4.6-7,4.6-7s-0.8-1.7-0.8-4.2c-0.1-2.5,0.6-3.8,0.6-3.8
				s-0.9-0.6-1.6-1.3c-0.7-0.7-0.8-1.6-0.8-1.6S60,31,58.6,29.3c-1.3-1.7-1.3-2.4-1.3-2.4s-0.3,0.6-2.1-0.7c-1.8-1.3-2.5-2-2.5-2
				s0.3,0.4-1-0.2c-1.3-0.6-1.5-1-1.5-1l1-1.6c0,0,4,1.8,8,4.7c4,2.9,4.9,4.9,5.6,5.8c0.7,0.9,1.1,1.9,1.1,1.9s-1.7,1.5-1.9,3.5
				c-0.2,2,0.8,2.8,0.8,2.8l0.4,0.1c0,0-0.7,1.6-0.3,2.9c0.4,1.3,0.7,1.4,0.7,1.4s-2.2,4-7.4,7c-5.2,3-7.6,3.9-9.4,4.4
				C46.9,56.5,45.2,56.7,45.2,56.7z"/>
			<path fill="#F69321" d="M59.8,33.8c0,0-1.5,1.3-1.6,2.1c-0.2,0.8,1,0.6,1,0.6s-2.1,0.8-2.9,1.7c-0.8,0.9-3,3.9-6.8,4.1
				c-3.8,0.3-4.9-2.5-5.1-3.4c-0.2-0.8-0.3-1.3-0.3-1.3s6.2,2.2,9.2,0.1c3-2.1,3.1-3.9,3.1-3.9s0.2,0.9,0.8,0.3
				c0.6-0.6,1.2-1.1,1.2-1.1s-0.8,0.9-1,1.3c-0.3,0.4,0.6-0.1,1.6-0.6C59.8,33.3,60.7,33.6,59.8,33.8z"/>
			<path fill="#F69321" d="M35.8,50.3c0,0-1.3,1.1-0.1,2.7c1.3,1.5,3.8,0.6,5.9,0.6c2.2,0,4,2.2,7.2,0.2c3.2-2,2-4.9,2-4.9
				s-3.2,3.6-7.5,4.2c-4.2,0.6-5.8-0.5-6.6-1.1C36,51.3,35.8,50.3,35.8,50.3z"/>
			<path fill="#F69321" d="M21.1,45c0,0,1.9,3.9,4.5,6.3c2.6,2.4,4.4,3.4,6.5,4.3c2.1,0.9,4.7,1.6,4.7,1.6s0.1,0.6-0.6,0.6
				c-0.7,0-3.2-0.7-4.3-0.4c-1.1,0.3-0.8,0.3-1.3-0.1c-0.5-0.3-5.1-3.6-7-6.1C21.7,48.7,21.1,45,21.1,45z"/>
			<path fill="#F69321" d="M45.8,57.9c0,0,8.2-1.1,12-3.9c3.8-2.8,4.5-2.7,5.9-4.3c1.4-1.6,1.8-2.6,1.8-2.6s-0.4,2.9-1.4,4.2
				c-0.9,1.3-7,6.3-11.5,7.2c-4.4,0.9-5.1,1.1-5.1,1.1l-2.3-1.8L45.8,57.9z"/>
			<path fill="#F69321" d="M40.8,58.6c0.4,0.3,0.8,0.7,0.6,1.1c-0.3,0.4-0.4,0.6-1.4,0.4c-1-0.2-0.6,0-0.3-0.8
				c0.3-0.8,0.4-0.7,0.4-0.7L40.8,58.6z"/>
			<path fill="#F69321" d="M31.7,45.1c0,0-1.5-1-3-0.3c-1.5,0.7-1.5,1.1-1.5,1.1l-0.1-0.4c0,0-0.4,0.4-0.3,1.1s-1,0.4-1.2-0.3
				c-0.2-0.7,0.6-2.1,2.2-2.3C29.5,43.8,30.8,44.1,31.7,45.1z"/>
			<path fill="#F69321" d="M30.9,37.1c0,0-0.7,2.3,1.2,3.9c2,1.6,6.3,0.9,6.3,0.9s-2.7,0-5.2-1.5C30.7,38.9,30.9,37.1,30.9,37.1z"/>
			<path fill="#F69321" d="M32,36.3c0,0,1.1,2.4,2.9,3.6c1.8,1.2,4,1.3,4.8,1.1c0.8-0.2-2.3-0.7-3.8-1.6C34.5,38.4,32,36.3,32,36.3z
				"/>
			<path fill="#F69321" d="M38.5,22.4c0,0,2.3,0.2,3.6,1.3c1.3,1.1,2,2.1,2,2.1s0.4-0.5,1.7-1.1c1.3-0.6,2.7-0.9,2.7-0.9l-0.1-1.3
				c0,0-4.2-1.8-5.9-1.9c-1.7-0.1-3,0.3-3,0.3L38.5,22.4z"/>
			<path fill="#F69321" d="M30.4,27.9c0,0-0.4,2-1.1,2.3c-0.7,0.3-0.9-0.6-0.9-0.6s-0.3,1.6-1.3,2C26.1,32,25.9,31,25.9,31
				s-0.5,2-1.1,2.2c-0.6,0.2-1-0.3-1-0.3s-1.4,3.9-0.6,6.5c0.8,2.6,1.3,2.4,1.3,2.4s-0.8,0.9-1,1.8c-0.2,0.9-0.2,1.3-0.2,1.3
				s-1.4-2-2.2-3.5c-0.8-1.6-0.3-3-0.3-3s1.2-3.8,2.5-6.6c1.3-2.7,2-3.9,4.2-5.7c2.2-1.8,4.5-2.7,4.5-2.7l1.7-0.5l0.5,0.4
				c0,0-2.8,2.6-3.3,3.4C30.4,27.6,30.4,27.9,30.4,27.9z"/>
			<path fill-rule="evenodd" clip-rule="evenodd" fill="#F9F9FA" d="M32.1,35.1c0,0,1.4-3.4,4-4.5c2.6-1.2,3.9-1.2,4.8-1
				c0.8,0.2,1.4,0.8,1.4,0.8l0,2c0,0-2.8-1.5-5.8,0.2c-3,1.7-4.4,3.1-4.4,3.1L32.1,35.1z"/>
			<path fill-rule="evenodd" clip-rule="evenodd" fill="#FFFFFF" d="M43.2,33.9c0,0,1.9-3.9,5.2-3.5c3.4,0.5,3.9,0.9,5,1.9
				c1.2,0.9,2.3,1.6,2.5,1.6c0.2,0,0.5,0,0.5,0l-0.2,0.7c0,0-0.9-0.9-4.9-1.5c-4-0.6-7.1,0.5-7.1,0.5l-0.8,0.6
				C43.5,34.2,43,34.8,43.2,33.9z"/>
			<g>
				
					<ellipse transform="matrix(0.9991 4.353966e-002 -4.353966e-002 0.9991 1.4723 -2.1286)" fill-rule="evenodd" clip-rule="evenodd" fill="#595A5C" cx="49.6" cy="32.7" rx="2.3" ry="3.1"/>
				
					<linearGradient id="SVGID_3_" gradientUnits="userSpaceOnUse" x1="56.366" y1="26.3176" x2="60.3755" y2="26.3176" gradientTransform="matrix(0.999 4.370000e-002 -4.370000e-002 0.999 -7.5867 3.9173)">
					<stop  offset="0" style="stop-color:#A6A7AA"/>
					<stop  offset="1" style="stop-color:#6E6F71"/>
				</linearGradient>
				<path fill-rule="evenodd" clip-rule="evenodd" fill="url(#SVGID_3_)" d="M51.6,32.8c-0.1,1.5-1,2.7-2.1,2.7
					c-1.1,0-1.9-1.3-1.9-2.9c0.1-1.5,1-2.7,2.1-2.7C50.8,30,51.6,31.3,51.6,32.8z"/>
				
					<linearGradient id="SVGID_4_" gradientUnits="userSpaceOnUse" x1="57.0809" y1="25.6257" x2="60.3755" y2="25.6257" gradientTransform="matrix(0.999 4.370000e-002 -4.370000e-002 0.999 -7.5867 3.9173)">
					<stop  offset="0" style="stop-color:#D0D2D3"/>
					<stop  offset="1" style="stop-color:#6E6F71"/>
				</linearGradient>
				<path fill-rule="evenodd" clip-rule="evenodd" fill="url(#SVGID_4_)" d="M48.5,30.5c-0.2,0.8-0.3,2.1,0.8,3.1
					c0.9,0.8,1.6,0.8,2.1,0.5c0.2-0.4,0.3-0.8,0.3-1.3c0.1-1.5-0.8-2.8-1.9-2.9C49.2,29.9,48.8,30.1,48.5,30.5z"/>
				
					<ellipse transform="matrix(0.999 4.372746e-002 -4.372746e-002 0.999 1.4734 -2.1344)" fill-rule="evenodd" clip-rule="evenodd" fill="#010101" cx="49.5" cy="32.6" rx="1.3" ry="1.9"/>
				
					<ellipse transform="matrix(0.999 4.402099e-002 -4.402099e-002 0.999 1.4137 -2.1788)" fill-rule="evenodd" clip-rule="evenodd" fill="#FFFFFF" cx="50.2" cy="31" rx="0.5" ry="0.6"/>
				
					<ellipse transform="matrix(0.999 4.396917e-002 -4.396917e-002 0.999 1.5332 -2.099)" fill-rule="evenodd" clip-rule="evenodd" fill="#FFFFFF" cx="48.5" cy="33.8" rx="0.2" ry="0.3"/>
			</g>
			<g>
				
					<ellipse transform="matrix(0.9991 4.351510e-002 -4.351510e-002 0.9991 1.4315 -1.6524)" fill-rule="evenodd" clip-rule="evenodd" fill="#595A5C" cx="38.7" cy="32.1" rx="2.3" ry="3.1"/>
				
					<linearGradient id="SVGID_5_" gradientUnits="userSpaceOnUse" x1="45.4154" y1="26.116" x2="49.4246" y2="26.116" gradientTransform="matrix(0.999 4.370000e-002 -4.370000e-002 0.999 -7.5867 3.9173)">
					<stop  offset="0" style="stop-color:#A6A7AA"/>
					<stop  offset="1" style="stop-color:#6E6F71"/>
				</linearGradient>
				<path fill-rule="evenodd" clip-rule="evenodd" fill="url(#SVGID_5_)" d="M40.6,32.2c-0.1,1.5-1,2.7-2.1,2.7
					c-1.1,0-1.9-1.3-1.9-2.9c0.1-1.5,1-2.7,2.1-2.7C39.9,29.3,40.7,30.6,40.6,32.2z"/>
				
					<linearGradient id="SVGID_6_" gradientUnits="userSpaceOnUse" x1="46.1301" y1="25.424" x2="49.4246" y2="25.424" gradientTransform="matrix(0.999 4.370000e-002 -4.370000e-002 0.999 -7.5867 3.9173)">
					<stop  offset="0" style="stop-color:#D0D2D3"/>
					<stop  offset="1" style="stop-color:#6E6F71"/>
				</linearGradient>
				<path fill-rule="evenodd" clip-rule="evenodd" fill="url(#SVGID_6_)" d="M37.5,29.8c-0.2,0.8-0.3,2.1,0.8,3.1
					c0.9,0.8,1.6,0.8,2.1,0.5c0.2-0.4,0.3-0.8,0.3-1.3c0.1-1.5-0.8-2.8-1.9-2.9C38.3,29.3,37.9,29.5,37.5,29.8z"/>
				
					<ellipse transform="matrix(0.999 4.372556e-002 -4.372556e-002 0.999 1.4331 -1.657)" fill-rule="evenodd" clip-rule="evenodd" fill="#010101" cx="38.6" cy="31.9" rx="1.3" ry="1.9"/>
				
					<ellipse transform="matrix(0.999 4.390597e-002 -4.390597e-002 0.999 1.3695 -1.6939)" fill-rule="evenodd" clip-rule="evenodd" fill="#FFFFFF" cx="39.2" cy="30.3" rx="0.5" ry="0.6"/>
				
					<ellipse transform="matrix(0.999 4.424691e-002 -4.424691e-002 0.999 1.5024 -1.629)" fill-rule="evenodd" clip-rule="evenodd" fill="#FFFFFF" cx="37.5" cy="33.1" rx="0.2" ry="0.3"/>
			</g>
			<path fill="#F06724" d="M62.3,37.7c-1.8-2.6-5.4-1-6.9,1c-0.1,0.1,0.1,0.2,0.2,0.2c1.9-1.3,3.9-3.2,6.1-1.2
				c2,1.8-0.1,4.9-1.9,5.9c-0.1,0.1,0,0.2,0.1,0.1C62.2,42.8,63.9,40,62.3,37.7z"/>
			<path fill="#F06724" d="M56.9,39.7c-0.1,0.2,0.2,0.4,0.4,0.3c0.3-0.1,0.6-0.2,0.8-0.1c-0.1,1.5-1.9,3.1-3.1,4
				c-1.3,1-2.9,1.6-4.5,2.1c-3.5,1.2-7.3,1.4-11,0.8c-0.4-0.1-0.9-0.1-1.3-0.2c-0.1-0.1-0.2-0.1-0.3-0.1c-2.9-0.6-5.6-1.6-8.2-3
				c-1.3-0.7-2.8,0.1-3.8,1.1c-0.3,0.1-0.5,0.3-0.7,0.5c-0.2,0.3-0.4,1-0.1,1.3c0.2,0.2,0.5,0.2,0.6,0c0.1-0.2-0.1-0.3-0.1-0.5
				c0,0,0,0,0-0.1c0.1,0,0.2,0,0.3-0.2c0.4-0.5,0.9-0.8,1.4-1.1c0.8-0.5,1.4-0.6,2.4-0.1c1.4,0.8,2.8,1.4,4.4,1.9
				c1.2,0.4,2.5,0.7,3.8,1c0.5,1.5,2.6,2.4,4,2.7c2,0.3,3.7-1.2,5.2-2.3c2.4-0.4,4.7-1.1,6.8-2.2c1.7-0.9,4.7-3.1,4.4-5.4
				c0.7,0.3,1.3,1,1.8,1.5c0,0.1,0.1,0,0.1,0C60.8,40.2,57.3,38.2,56.9,39.7z M43.4,49.1c-1.7,0.5-3.2-0.5-4.3-1.6
				c1.9,0.3,3.7,0.5,5.6,0.4c0.5,0,1.1-0.1,1.6-0.1C45.4,48.3,44.4,48.8,43.4,49.1z"/>
			<path fill="#F06724" d="M30,47.2c-1.2,1.9-4.4,2.1-5.8,0.3c-1.4-1.9-0.8-6.3,2.2-6c0.1,0,0.1-0.1,0-0.1c-1.3-0.4-2.6,0.8-3.1,1.9
				c-0.7,1.4-0.4,3.3,0.4,4.6c0.8,1.4,2.5,1.7,4,1.5c0.9-0.2,2.7-0.8,2.6-2C30.3,47.1,30.1,47.1,30,47.2z"/>
			<path fill="#B7606B" d="M40.3,15.4c-3-1.8-6.7-2-10-1.8c-1.2,0.1-2.5,0.1-3.4,0.9c-0.2,0.2-0.4,0.4-0.6,0.6
				c-0.2,0.2-0.3,0.4-0.5,0.6c-0.6,0.7-1,1.6-1.3,2.4c-1.2,3.2-1.1,7.4,0,10.7c0,0,0,0,0,0.1c0,0.2,0,0.6,0.2,0.7
				c0.1,0.1,0.1,0,0.2,0c0.1,0.2,0.4,0.3,0.6,0.1c1.7-2.9,5-4.7,7.9-6.2c1.7-0.9,3.4-1.5,5.2-1.9c1-0.2,2.1-0.3,3.2-0.5
				c1-0.1,2.3-0.5,3.3-0.2c0.1,0,0.1-0.1,0-0.1c-0.6-0.3-1.2-0.2-1.8-0.2c-1.3,0.1-2.6,0.2-3.8,0.3c-1.9,0.2-3.8,0.9-5.6,1.7
				c-3,1.3-7,3.4-8.7,6.4c0,0,0,0,0,0c-1-3-1-6.4-0.4-9.4c0-0.1,0.1-0.2,0.1-0.4c-0.1,2.7,1,5.6,3.4,5.8c0.3,0,0.3-0.3,0.1-0.4
				c-2.5-0.9-3.6-4.5-2.8-7.2c0.4-0.7,0.8-1.4,1.4-2c1-1.1,2.6-1.1,3.9-1.1c2.9-0.1,6,0.1,8.7,1.4c2.1,1,4.8,2.9,5.6,5.3
				c0,0.1,0.2,0.1,0.2,0C44.9,18.4,42.1,16.6,40.3,15.4z"/>
			<path fill="#B7606B" d="M50.5,16c3.3-1.4,7.1-1.1,10.6-0.5c1.2,0.2,2.5,0.4,3.4,1.3c0.2,0.2,0.4,0.4,0.6,0.6
				c0.2,0.2,0.3,0.4,0.4,0.6c0.5,0.8,0.8,1.7,1,2.6c0.9,3.4,0.2,7.5-1.3,10.6c0,0,0,0.1,0,0.1c-0.1,0.2-0.1,0.6-0.3,0.7
				c-0.1,0.1-0.1,0-0.2-0.1c-0.1,0.2-0.5,0.3-0.6,0c-1.4-3.1-4.5-5.4-7.3-7.2c-1.6-1.1-3.3-1.9-5.1-2.6c-1-0.4-2.1-0.6-3.2-0.9
				c-1-0.3-2.3-0.8-3.3-0.7c-0.1,0-0.1-0.1,0-0.1c0.6-0.2,1.3-0.1,1.9,0c1.3,0.2,2.6,0.5,3.9,0.8c2,0.5,3.8,1.4,5.5,2.4
				c2.9,1.7,6.7,4.3,8.1,7.5c0,0,0,0,0,0c1.4-2.8,1.9-6.2,1.6-9.3c0-0.1,0-0.2,0-0.4c-0.2,2.7-1.8,5.4-4.3,5.3c-0.3,0-0.2-0.4,0-0.4
				c2.7-0.6,4.3-3.9,3.8-6.7c-0.3-0.8-0.7-1.5-1.2-2.2c-0.9-1.2-2.5-1.4-3.9-1.6c-3-0.5-6.2-0.7-9.1,0.2c-2.3,0.7-5.4,2.3-6.4,4.5
				c0,0.1-0.2,0.1-0.2,0C45.4,18.3,48.5,16.9,50.5,16z"/>
			<path fill="#F06724" d="M50.8,48.6c-0.6,0.5-1.1,1.1-1.7,1.6c-0.8,0.7-1.8,1.2-2.8,1.6c-1.1,0.5-2.3,0.8-3.5,1
				c-1.3,0.2-2.7,0.3-4-0.1c-1.5-0.3-3.5-2.3-1.8-3.7c0.2-0.1,0-0.4-0.2-0.4c-1.6,0.4-1.3,2.5-0.4,3.5c1.1,1.3,2.9,1.6,4.6,1.6
				c1.7,0,3.4-0.3,4.9-0.9c2-0.7,4.5-1.9,5.3-4C51.1,48.6,50.9,48.5,50.8,48.6z"/>
			<path fill="#F06724" d="M41.3,41.1c-3.3,0.9-9.4,0.3-10.2-4c0-0.1-0.2-0.1-0.2,0c-0.2,1.7,1.9,3.6,3.4,4.2c1.9,0.7,5.4,1.6,7-0.1
				C41.4,41.2,41.3,41.1,41.3,41.1z"/>
			<path fill="#F06724" d="M60.5,33.5c-0.8,0-1.5,0.3-2.1,0.8c-0.5,0.4-1.4,1.2-1.3,1.9c0,0.1,0.1,0.1,0.2,0.1
				c0.5-0.4,0.8-1.1,1.3-1.5c0.5-0.5,1.3-1,1.9-1.1C60.6,33.6,60.6,33.5,60.5,33.5z"/>
			<path fill="#F06724" d="M58.7,32.8c-0.9,0.6-1.5,1.5-2,2.5c0,0,0,0.1,0.1,0C57.5,34.5,57.9,33.6,58.7,32.8
				C58.8,32.8,58.7,32.8,58.7,32.8z"/>
			<path fill="#F06724" d="M65.9,46c-0.7,2.9-2.1,5.2-4.3,7.2c-2.3,2.1-5,3.8-7.9,4.9C47.8,60.3,41,60.3,35,58.6
				c-6.1-1.7-10.9-5.7-13.1-11.7c-2.2-6.1-0.6-12.2,3.1-17.3c0.1-0.2-0.1-0.7-0.2-0.6c-4.2,4.8-5.7,11.5-3.8,17.6
				C23,53,27.9,57.2,34,59.2c6.5,2.1,14,2,20.4-0.4c2.9-1.1,5.6-2.8,7.9-4.9c2.3-2.1,3.8-4.6,4.5-7.6C66.9,45.6,66.1,45.4,65.9,46z"
				/>
			<path fill="#B7606B" d="M63.7,29.6c-1.4-1.5-3-3-4.8-4c-0.1,0-0.1,0.1-0.1,0.1c1.2,1.3,2.6,2.4,3.8,3.7c0.7,0.8,1.4,1.7,2,2.6
				c0.5,0.8,0.6,1.8,1.1,2.6c0.1,0.2,0.5,0.2,0.5-0.1C66.1,32.5,65,31,63.7,29.6z"/>
			<path fill="#B7606B" d="M66.8,30.5c-0.2-0.2-0.4-0.3-0.6-0.5c-0.2-0.1-0.4-0.3-0.6-0.3c-0.1,0-0.2,0.1-0.2,0.2
				c0.1,0.2,0.4,0.4,0.6,0.5c0.3,0.2,0.5,0.5,0.5,0.8c0,0.1-0.1,0.4-0.2,0.4c-0.1,0.1-0.3-0.1-0.4-0.1c-0.3-0.2-0.5-0.5-0.8-0.7
				c-0.1-0.1-0.2,0-0.2,0c0-0.1-0.1-0.2-0.1-0.2c-0.1-0.2-0.4,0-0.3,0.2c0.2,0.4,0.3,0.7,0.3,1.1c-0.6,0.5-0.9,0.4-1.1-0.2
				c-0.1-0.2-0.1-0.3-0.1-0.5c-0.1-0.5-0.1-1.1-0.1-1.6c0-0.3-0.4-0.3-0.5,0c-1,0.4-1.5,0.2-1.4-0.6c0-0.4,0-0.7,0.1-1
				c0.1-0.2-0.3-0.5-0.4-0.2c-0.6,0.7-1.5-0.5-1.2-1.2c0.1-0.3-0.3-0.4-0.5-0.2c-0.8,1.3-1.8,0.1-1.7-0.8c0-0.1,0.1-0.2,0.1-0.3
				c0-0.3-0.4-0.4-0.5-0.1c0,0.1-0.1,0.2-0.1,0.3c-0.4,0.6-2.3,0.1-1.6-1.5c0.1-0.3-0.2-0.6-0.5-0.4c-1,1.2-2.1,0.1-2.2-1
				c0-0.2-0.4-0.3-0.5-0.1c-0.7,0.8-2.4,0.7-2.3-0.5c0-0.1,0.1-0.3,0.1-0.4c0-0.4-0.6-0.5-0.7-0.1c0,0.1,0,0.2-0.1,0.3
				c-0.3,0.8-1.8-0.6-2-1c-0.1-0.2-0.5-0.2-0.6,0c-0.5,1-1.5,0.6-1.9-0.2c-0.1-0.3-0.6-0.1-0.6,0.2c0,1.3-2.4,1.6-2.4,0.2
				c0-0.3-0.4-0.4-0.6-0.1c-0.5,0.7-1.7,1.6-2.4,0.5C39.2,21,39,21,38.8,20.8c-0.2-0.1-0.4,0-0.4,0.3c0,0.9-2.5,2.1-2.5,1
				c0-0.3-0.5-0.4-0.6-0.1c-0.1,0.6-1.7,1.9-1.9,0.9c-0.1-0.2-0.4-0.2-0.5,0c-0.1,0.3-0.1,0.5,0,0.6c-0.1,0.3-0.4,0.6-0.7,0.8
				c-0.2,0.1-0.7,0.4-0.9,0.2c0-0.2,0-0.3,0-0.5c-0.1-0.3-0.5-0.3-0.6,0c-0.1,0.3-0.1,0.5,0,0.6c-0.2,0.9-1.4,2.2-1.9,1
				c-0.1-0.3-0.6-0.2-0.5,0.1c0.1,0.5-0.1,0.8-0.3,1.2c-0.1,0.2-1.2,1.6-1.3,0.5c0,0,0,0,0,0c0,0,0-0.1,0-0.1
				c-0.1-0.3-0.7-0.3-0.6,0.1c0,0,0,0.1,0,0.1c0,0,0,0,0,0c0.2,0.9-0.3,1.5-1,1.9l-0.1-0.4c0-0.3-0.4-0.4-0.6-0.2
				c0,0.1-0.1,0.1-0.1,0.2c-0.4,0.7-0.7,0.6-1-0.1c0.3-0.2,0.7-0.4,1-0.4c0.3,0,0.4-0.6,0-0.5c-0.7,0.1-2.5,0.8-2.1,1.8
				c0.5,1,1.6,0.5,2.2-0.1c0,0.1,0.1,0.2,0.1,0.3c0.1,0.2,0.3,0.2,0.4,0.1c0.7-0.4,1.3-1,1.6-1.7c0.7,0.3,1.9-0.8,2.2-1.9
				c0.7,0.3,1.9-0.6,2.3-1.6c0.7,0.1,1.9-0.4,2.2-1.3c0.6,0.1,1.6-0.4,2.2-1c0.7,0.8,2.8-0.1,3.3-1.2c0.5,0.4,0.5,0.8,1.4,0.8
				c0.6,0,1.2-0.4,1.7-0.8c0.6,1.3,2.7,1.1,3.3-0.1c0.6,0.6,1.6,0.7,2.3,0c0.6,0.7,1.7,1.3,2.4,1.1c0.4,1,1.9,1.4,2.9,0.7
				c0.4,1.2,1.4,1.8,2.4,1.3c0,0.7,0.3,1.2,1.1,1.5c0.4,0.2,0.9,0.2,1.2,0c0.2,0.9,1.1,1.6,1.9,1.2c-0.1,0.5,0,1,0.6,1.5
				c0.4,0.3,0.9,0.2,1.3-0.1c-0.1,0.9,0.1,2,0.9,2.2c0.4,0.1,0.7,0.1,1-0.1c0,0.9,0.2,1.9,1,2.1c1.1,0.2,1.3-0.5,1.1-1.3
				c0.5,0.7,1.3,1.1,1.8,0.2C67.2,31.3,67.2,30.8,66.8,30.5z"/>
			<linearGradient id="SVGID_7_" gradientUnits="userSpaceOnUse" x1="42.8892" y1="36.5602" x2="56.0805" y2="36.5602">
				<stop  offset="0" style="stop-color:#F0E23C"/>
				<stop  offset="0.1155" style="stop-color:#F0DE3B"/>
				<stop  offset="0.2572" style="stop-color:#EED437"/>
				<stop  offset="0.4126" style="stop-color:#ECC332"/>
				<stop  offset="0.5777" style="stop-color:#E9AA2C"/>
				<stop  offset="0.7488" style="stop-color:#E68C26"/>
				<stop  offset="0.7925" style="stop-color:#E58425"/>
			</linearGradient>
			<path fill-rule="evenodd" clip-rule="evenodd" fill="url(#SVGID_7_)" d="M43.4,34.3c0,0,1.3-1,4.9-1.2c3.6-0.2,5.4,0.6,6.5,1
				c1.1,0.4,1.3,0.5,1.3,0.6c0,0.2-0.7,2.9-3.4,4.3c-2.7,1.4-6.1,1.3-8.2-1.1C42.2,35.3,42.9,34.5,43.4,34.3z"/>
			<radialGradient id="SVGID_8_" cx="49.5194" cy="29.0633" r="5.9825" gradientUnits="userSpaceOnUse">
				<stop  offset="0" style="stop-color:#FFFFFF"/>
				<stop  offset="0.1055" style="stop-color:#FFFEF8"/>
				<stop  offset="0.2349" style="stop-color:#FDFBEC"/>
				<stop  offset="0.3769" style="stop-color:#FBF7D8"/>
				<stop  offset="0.5278" style="stop-color:#F8F2BD"/>
				<stop  offset="0.6859" style="stop-color:#F6EC9A"/>
				<stop  offset="0.8474" style="stop-color:#F3E66E"/>
				<stop  offset="0.9719" style="stop-color:#F0E23C"/>
			</radialGradient>
			<path fill-rule="evenodd" clip-rule="evenodd" fill="url(#SVGID_8_)" d="M42.8,33.7c0,0,1.5-3.6,6.2-3.2c4.7,0.5,5.1,2,6,2.6
				c0.9,0.6,1.3,0.6,1.3,0.6s0.9-2.7-1-5.4c-1.9-2.8-4.5-4.6-8.3-3.8C43.3,25.4,41.8,30.2,42.8,33.7z"/>
			<radialGradient id="SVGID_9_" cx="36.3653" cy="26.3595" r="6.9096" gradientUnits="userSpaceOnUse">
				<stop  offset="0" style="stop-color:#FFFFFF"/>
				<stop  offset="0.1055" style="stop-color:#FFFEF8"/>
				<stop  offset="0.2349" style="stop-color:#FDFBEC"/>
				<stop  offset="0.3769" style="stop-color:#FBF7D8"/>
				<stop  offset="0.5278" style="stop-color:#F8F2BD"/>
				<stop  offset="0.6859" style="stop-color:#F6EC9A"/>
				<stop  offset="0.8474" style="stop-color:#F3E66E"/>
				<stop  offset="0.9719" style="stop-color:#F0E23C"/>
			</radialGradient>
			<path fill="url(#SVGID_9_)" d="M44.2,25.8c0,0-3.2-5.1-8.7-3c-5.5,2.1-5.4,6.6-5.6,7.9c-0.2,1.3,1.8,4.2,1.9,4.5
				c0,0.3,0.3,0.5,0.3,0.5s0.8-3.6,4.1-5.2c3.2-1.6,4.2-1.1,4.8-1c0.5,0.1,1.2,0.3,1.2,0.3S42.5,27.2,44.2,25.8z"/>
			<path fill="#F06724" d="M50.3,24.1c-2.1-0.6-3.9-0.1-5.7,1.4c-0.2,0.1-0.3,0.3-0.4,0.4c-1.3-3.2-5.1-4.1-8.3-3.3
				c-3.8,1-6.1,4.3-6,8.1c0.1,3.9,2.6,7.7,6.1,9.4c2.3,1.1,7.7,1.6,8.2-1.9c1.1,1.3,2.5,2.1,4.4,2.4c4.3,0.5,8.3-3.6,8.5-7.7
				C57.2,28.9,54.3,24.7,50.3,24.1z M56.2,34.4c-1.9-1.2-4.4-1.7-6.6-1.8c-1.8-0.1-4.3,0-6,1c0.4-0.9,0.9-1.5,1.9-2.1
				c1.6-0.9,3.6-0.8,5.4-0.3c1.5,0.4,2.6,1.3,3.9,2.2c0.5,0.3,1,0.7,1.6,0.6C56.3,34.2,56.2,34.3,56.2,34.4z M44.7,26.1
				c1.7-1.7,3.4-1.7,5.5-1.6c3.6,0.9,6.1,4.3,6.2,8.1c0,0.4,0,0.8-0.1,1.2C55.2,33.6,54,32,53,31.5c-1.5-0.9-3.3-1.3-5-1.2
				c-2.1,0.1-4.6,1.3-5.2,3.5c-0.1-0.7-0.2-1.5-0.2-2.1C42.5,29.5,43.2,27.6,44.7,26.1z M30.4,30.4C30.2,23.2,40.3,19.9,44,26
				c-1,1.1-1.6,2.4-1.9,3.8c-1.5-1.1-3.6-0.6-5.2,0.1c-2.2,1-4.3,3-5.1,5.3C31,33.7,30.5,32,30.4,30.4z M41.9,32
				c-3.2-0.9-7,0.9-9.4,3c0.8-1.8,2.3-3.4,4.1-4.3c1.6-0.9,3.8-1.5,5.5-0.5c0,0.3-0.1,0.7-0.1,1.1C41.9,31.5,41.9,31.8,41.9,32z
				 M43.4,38.1c-0.2,1.8-2.4,2.1-3.9,2.1c-1.6,0-3-0.4-4.3-1.3c-1.3-0.8-2.4-2-3.2-3.3c0.1,0,0.2-0.1,0.2-0.2c0,0,0,0,0-0.1
				c0.1,0.2,0.3,0.3,0.5,0.1c2.4-2.1,5.9-3.7,9.1-3.1c0.1,1.9,0.7,3.8,1.8,5.3C43.6,37.8,43.5,37.9,43.4,38.1z M48.9,40.1
				c-3-0.1-4.8-2.3-5.7-5c0,0,0,0,0-0.1c0-0.2,0.1-0.3,0.1-0.5c1-0.5,1.8-0.9,2.9-1.2c1.2-0.3,2.5-0.2,3.7-0.2
				c2.1,0.1,4.2,0.7,6.1,1.5C55.1,37.8,52,40.1,48.9,40.1z"/>
			<linearGradient id="SVGID_10_" gradientUnits="userSpaceOnUse" x1="32.1237" y1="36.312" x2="43.7749" y2="36.312">
				<stop  offset="0" style="stop-color:#F0E23C"/>
				<stop  offset="0.1155" style="stop-color:#F0DE3B"/>
				<stop  offset="0.2572" style="stop-color:#EED437"/>
				<stop  offset="0.4126" style="stop-color:#ECC332"/>
				<stop  offset="0.5777" style="stop-color:#E9AA2C"/>
				<stop  offset="0.7488" style="stop-color:#E68C26"/>
				<stop  offset="0.7925" style="stop-color:#E58425"/>
			</linearGradient>
			<path fill="url(#SVGID_10_)" d="M42,32.5c0,0-1.9-0.8-5.5,0.7c-3.7,1.5-4.3,2.6-4.3,2.6s1.2,3,4.9,4.1c3.7,1.1,5.3,0,6-0.7
				c0.8-0.7,0.7-1.4,0.7-1.4s-0.8-1.2-1.2-2.9C42.1,33.2,42,32.5,42,32.5z"/>
			<path fill="#F69321" d="M32,35.7c0,0,0.3-1.2,4.6-2.7c4.3-1.5,5.3-0.6,5.3-0.6s0.4,2.2,0.9,3.3c0.5,1.1,1,2,1,2s-0.9,1.1-2.5,1.2
				c-1.7,0.1,0,0.3,0.9-0.5c1-0.8,0.8-1.2,0.8-1.2s-1.7,0.8-2.8,0.7c-1.1-0.2,1.5-0.1,2.1-1.5c0.5-1.3-0.2-3-1.2-3.3
				c-0.9-0.2-5.9,1.3-7.2,2.1c-1.3,0.8-0.4,1,0.7,0.9c1.1-0.1,1.2-0.2,1.1-0.1s-0.9,0.2-1.5,0.7c-0.6,0.4,0.2,1.7,2.9,2.7
				c2.7,1,4.8,0.3,5.7-0.4c0.9-0.7,1.1-1.1,1.1-1.1s0.1,2.2-3.4,2.5C37,40.7,33,38.3,32,35.7z"/>
			<path fill="#F69321" d="M43.3,34.6c0,0,1.5-1.6,4.4-1.6c2.9,0,3.8,0.3,6,1c2.2,0.7,2.4,0.8,2.4,0.8s-0.8,3.5-5,4.9
				c-4.1,1.3-6.1-0.7-7-2.3c-0.9-1.7-0.9-1.9-0.9-1.9s1.3,2.3,2.8,3.2c1.5,0.9,6.7,0.1,7.5-1.2c0.8-1.3-0.1,0.6-3.1,0
				c-3-0.7,1.6,0.5,3.4-0.8c1.8-1.3,0.7-0.3-0.9-1c-1.6-0.7,0.3-0.6,1.4-0.4c1.1,0.2-2.2-1.3-5.5-1.5c-3.4-0.2-5.8,1.3-5.8,1.3
				S42.6,35.2,43.3,34.6z"/>
			<path fill="#F69321" d="M49.8,24.5c0,0,2.9,0.9,4.2,2.9c1.3,2,1.5,3.9,1.1,3.9c-0.4,0-1.8-2.1-3.5-2.4c-1.7-0.4,0.4,0.1,1.5,1.4
				c1.1,1.3,1.1,1.5,1.1,1.5s-2.6-2.7-6.9-1.6c-4.2,1.1-4.6,3.7-4.6,3.7s1.3-3.9,6.6-3.1c4.2,0.6,4.6,1.9,5.9,2.8
				c0,0,1.1,0.6,1.2,0.4c0.1-0.2,0-4.4-2.1-6.8C52.8,25.2,51.2,24.5,49.8,24.5z"/>
			<path fill="#F69321" d="M42.1,29.8c0,0-2.5-1.4-5.5,0.2c-3,1.7-4.8,5.1-4.8,5.1s0.8-3.7,4.3-5.5c3.5-1.7,5.4-1,5.2-1.3
				c-0.2-0.4-2.1-0.3-2.1-0.3s1.6-0.4,2.3-1.3c0.7-0.9-0.6-2.9-1.4-3.4c-0.9-0.5-1.2-0.3-1.2-0.3s0,2-2.6,1.8c-2.6-0.2-2-1.7-2-1.7
				s1.4,1,3.1,0.2c1.7-0.8,1.5-0.8,1.5-0.8s1.1,0,2.8,0.9c1.7,1,2.3,2.4,2.3,2.4S42.3,27.6,42.1,29.8z"/>
			<path fill="#F8EB32" d="M38,47.3c0,0,1.2,2.8,4.6,2.4c3.4-0.4,4.6-2.1,4.6-2.1s3.7-0.6,6.2-1.9c2.5-1.3,2.9-1.8,2.9-1.8
				s-1.5,2.1-5.8,3.3c0,0-2.8,0.7-3.2,1.5c-0.5,0.8-1.6,2.4-3.1,2.8c-1.5,0.3-2.7-0.4-2.7-0.4s-3.2,1.1-4.1-0.5
				c-0.9-1.6-0.2-3.1-0.2-3.1s-2.1-0.7-4.4-1.4c-2.3-0.7-3.5-1.9-3.5-1.9s2.4,1.2,5,2.1C36.8,47.2,38,47.3,38,47.3z"/>
			<path fill="#F8EB32" d="M36.2,50.8c-0.1-0.5,0-1.5,0.7-1.8c0,0-1.1,2.4,1.5,3.4c2.6,1,6.7-0.3,8.9-1.4c2.3-1.1,3.4-2.4,3.4-2.4
				s-2.1,3.4-7.4,4.5C38.9,54,36.5,52.3,36.2,50.8z"/>
			<ellipse fill="#FEFAD8" cx="44.1" cy="50.5" rx="1.5" ry="0.9"/>
			<ellipse fill="#FEFAD8" cx="40" cy="50.1" rx="1.1" ry="0.7"/>
			<path fill="#FEFAD8" d="M25.4,45.1c0,0,1.5-2.1,3.7-1.7c2.2,0.4,4.7,3.4,15.1,3.6c10.5,0.2,13.8-6.6,12.7-7.3
				c-1.2-0.7,0.3,0,0.3,0s-0.2-0.8,0.8-0.5c1,0.3,1.5,0.7,1.5,0.7l-0.9-0.9c0,0,2.3-0.3,1.8-1.1c-0.5-0.8-1.6-0.8-3,0.1
				c-1.4,0.9-1.7,2-1.4,2c0.3,0,0.3,0,0.3,0s0.2,3.3-5.7,5.4c-5.8,2-9.9,1.5-13.7,0.4c-3.8-1.1-7.4-2.8-7.9-3.1
				c-0.5-0.3-1.3-0.3-1.3,0c0,0.3-0.3,0.5-0.3,0.5S26.5,43,25.4,45.1z"/>
			<path fill="#F8EB32" d="M37,35.5c2.5-0.5,5.6-1.4,3.2-2.3c0,0-3.4,0.4-5.1,1.5c-1.8,1.1-1.8,1.4,0.2,1.1
				C35.7,35.7,36.4,35.6,37,35.5z"/>
			<path fill="#F8EB32" d="M36.8,36c0,0-1.8,0.1-1.3,1.3c0.5,1.2,3.7,1.8,4.7,1c0.9-0.8,0.2-1.2,0.2-1.2s1.5-1.4,0.2-2.4
				C39.3,33.7,35.2,35.6,36.8,36z"/>
			<path fill="#F8EB32" d="M44.1,34.6c0.4,0.1,2.8-1.4,6-0.7c3.1,0.7,3.3,0.8,2.1,0.8c-1.1,0-2.5,0.3-2.5,0.3s1.8,0.9,0.6,1.4
				c-1.1,0.5-1.8,0.5-1.6,0.5c0.2,0,2.1,1.5-0.1,1.5c-2.1,0-3.4-1.8-4-2.5c-0.5-0.8,0.3-1,0.3-1L44.1,34.6z"/>
			<path fill="#F8EB32" d="M25.8,41.5c0,0-1.8,0.4-1.9,1.9c-0.1,1.5,3.3,0,3.3-1.1S26.9,41.3,25.8,41.5z"/>
			<path fill="#F8EB32" d="M61.1,37.3c0,0,2.1,1.1,1,2.6c-1.1,1.5-2.1,0.2-2.1,0.2S61.8,38.2,61.1,37.3z"/>
			<linearGradient id="SVGID_11_" gradientUnits="userSpaceOnUse" x1="38.5059" y1="48.2236" x2="46.5451" y2="48.2236">
				<stop  offset="0" style="stop-color:#726659"/>
				<stop  offset="0.3152" style="stop-color:#FFFFFF"/>
				<stop  offset="0.6909" style="stop-color:#D0D2D3"/>
				<stop  offset="1" style="stop-color:#754D29"/>
			</linearGradient>
			<path fill="url(#SVGID_11_)" d="M39,47.4c0,0,0.8,1.7,3,1.8c2.2,0.1,3-0.6,3.6-1c0.6-0.4,1-0.6,1-0.6s-2.2,0.4-4.6,0.1
				c-2.4-0.3-3.4-0.6-3.4-0.6L39,47.4z"/>
			<path fill="#010101" d="M43.7,33.2c0,0,1.6-3.2,5.6-2.4c4,0.8,5.4,2.8,6.3,3.1c0.9,0.2,1.4,0.3,1.9-0.1c0.5-0.5,0.7-1.1,0.7-1.1
				S56.9,33,56,32.9c-0.9-0.1-1.5-0.3-1.5-0.3s-1.7-2.2-5.8-2.3C44.6,30.2,43.7,33.2,43.7,33.2z"/>
			<path fill="#010101" d="M42,30c0,0-3.9-1.6-6.6,0.7c-3.8,3.3-3.8,4.7-3.8,4.7s-0.7,0.1-1.4-0.6c-0.7-0.7-0.7-0.9-0.7-0.9
				s0.4,0.3,1.4-0.1c1-0.4,1.3-0.8,1.3-0.8s2.7-3.9,6.4-4C41.9,28.9,42.1,29.9,42,30L42,30z"/>
			<path fill="#E5A6AC" d="M27.7,14.5c0,0-3.3,1.4-2.6,5.1c0.7,3.6,2.4,4.5,2.4,4.5s-2-2.6-1.7-4.4c0.3-1.8,6.8-0.8,10.1-2
				c3.2-1.2,0.8-1.8,0.8-1.8s1.7,1,1.8,0.3c0.1-0.7-0.2-0.7-0.2-0.7s1.1,0.5,2.4,1c1.5,0.6,1.6,0.9,1.6,0.9s-3.2-2.6-7.7-3
				C30.1,13.8,29.1,14,27.7,14.5z"/>
			<path fill="#E5A6AC" d="M48.1,17.6c0,0,2.6-1.9,7.3-2c4.7-0.1,7.6,0.6,8.8,1.5c1.2,0.9,2.5,3.9,1.1,6.1c-1.4,2.2-2,2.4-2,2.4
				s1.6-1.4,1.8-3.3c0.2-1.9-0.3-2.5-0.3-2.5s-4.3,1.7-7.4,1.6c-3.1-0.1-7.5-1.4-6.7-2.7C51.5,17.5,48.1,17.6,48.1,17.6z"/>
			<path fill="#FFFFFF" d="M42.3,17.3c0,0-3.1-2.7-8-3.1c-4.9-0.4-7.4-0.3-8.7,2c-1.3,2.2-0.4,4.6-0.1,5.4c0.3,0.8,0.8,1.5,0.8,1.5
				s-1.2-2.8-1.1-4.3c0-1.5,0.6-2.2,0.6-2.2s2.6,0.5,5.6,0.2c3-0.3,3.6-0.8,2.9-1.1c-0.7-0.4,1.1,0.1,1.5-0.2
				c0.5-0.3-0.1-0.5-0.1-0.5s1.6,0,3.6,0.9c2.1,0.9,2.8,1.6,2.8,1.6S42.5,17.4,42.3,17.3z"/>
			<path fill="#FFFFFF" d="M48,17.7C48,17.7,48,17.6,48,17.7c0.5-0.4,2.3-1.6,6.4-2c4.7-0.5,8.5,0.5,9.6,1.2
				c1.1,0.7,2.1,2.4,2.1,4.3c0,1.8-0.9,3-1.6,3.9c-0.7,0.9-1,0.7-1,0.7s1.8-1.5,2.2-2.9c0.4-1.4-0.4-4-1-4.8
				c-0.6-0.8-0.8-0.5-1.2-0.4c-0.3,0.2-3,1.6-6.5,1.2c-3.6-0.4-4.1-0.5-3.8-1c0.3-0.5,0.9-0.3-0.5-0.5c-1.4-0.2-0.9-0.7-0.9-0.7
				s-1.4,0.3-2.4,0.6c-1,0.3-1.3,0.7-1.3,0.7L48,17.7z"/>
			<g>
				<path fill="#231F20" d="M51,20.6c0,0-0.1-0.1-0.1-0.1c-1.6-2.1-4-3.8-6.6-4.2c-2.3-0.4-2.6,2.4-2.1,4.1c0.6,2.4,3.1,3.9,5.5,3.5
					C49.2,23.7,51.8,22.6,51,20.6z M47.7,23.2c-2.1,0.4-4-1.1-4.7-3c-0.3-0.7-0.3-1.6-0.1-2.4c0.2-1.4,1.7-0.9,2.6-0.6
					c2,0.7,3.8,2.1,5,3.8c0.1,0.1,0.1,0.1,0.2,0.1C50.6,22.4,49,22.9,47.7,23.2z"/>
				<path fill="#231F20" d="M40.1,18.1c-1.1-1.6-3.8,0.2-5,0.9c-1.6,0.9-3.5,2.3-1.5,3.9c1.9,1.6,4.7,0.7,6-1.1
					C40.3,21.1,41.4,18.8,40.1,18.1z M39.1,21.4c-1.1,1.4-3.1,2.1-4.7,1.2c-2-1.2,0.6-2.5,1.6-3.1c1.2-0.7,2.5-1.6,3.9-0.9
					c0.1,0,0.2,0,0.2,0C40.6,19.5,39.8,20.6,39.1,21.4z"/>
				<path fill="#010101" d="M39.7,18.1c0,0-1.8-0.5-4.4,1.2c-2.6,1.7-2.6,2.1-1.2,3.4c1.4,1.2,3.3,1,4.6-0.3
					c1.3-1.4,1.6-2.8,1.6-3.1S40.3,18.4,39.7,18.1z"/>
				<path fill="#010101" d="M44.3,16.3c0,0-3,0.3-1.8,3.4c1.2,3.2,3.7,4.6,5.8,3.9c2.1-0.7,3.6-2.2,2.6-3.1c-1-0.9-5.5-3.8-5.5-3.8
					L44.3,16.3z"/>
				<path fill="#231F20" d="M42.8,16.9c0,0-0.4,2.3,3,4c3.4,1.7,6.1,1.4,4.8-0.5c-1.2-1.9-4.4-3.2-5.6-3.7
					C43.8,16.1,42.9,16.6,42.8,16.9z"/>
				<path fill="#231F20" d="M39.3,17.8c0,0,0.5,1.2-1,2.6c-1.5,1.4-5,1.6-5.2,0.9c-0.3-0.6,2.5-2.4,3.8-3.1
					C38.2,17.6,39.3,17.3,39.3,17.8z"/>
				<path fill="#2B2728" d="M43.6,16.6c0,0-1.2,1.9,1.5,3.2c2.7,1.2,3.9,0,1.9-1.7C45.1,16.4,44.2,16.6,43.6,16.6z"/>
				<path fill="#2B2728" d="M38.2,17.9c0,0-2.1,1.1-1.5,2c0.6,1,3.2-1.7,2.4-2.1C38.3,17.5,38.2,17.9,38.2,17.9z"/>
			</g>
			<path fill="#E5A6AC" d="M51.3,21.2c0,0,3.3,1.1,6.1,2.7c2.8,1.6,4.7,3,5.9,4.3c1.2,1.3,1.5,2.4,1.5,2.4s0.1-2.5-5.1-5.8
				C54.5,21.7,51.3,21.2,51.3,21.2z"/>
			<path fill="#E5A6AC" d="M33.1,22.5c0,0-3.4,1-5.4,2.6c-2.1,1.6-2.7,3.2-2.7,3.2s-1-2.2-0.8-5.3c0.2-3.1,0.6-3.8,0.6-3.8
				s-0.4,3-0.2,4.8c0.2,1.8,0.5,3.6,0.5,3.6s0.4-2.2,3.9-3.7C32.4,22.4,33.1,22.5,33.1,22.5z"/>
			<path fill="#D97882" d="M22.1,43.8c0,0,4.4,6.2,9.3,9.4c4.9,3.2,7.5,3.4,7.5,3.4l0.9,0l0.3,0.3c0,0,0.4-0.7,1.2-0.8
				c0.8-0.1,0.7,0.6,0.7,0.6s3.2,0.9,9.3-1.7c6.1-2.6,11.4-7.3,12.7-8.6c1.2-1.3,1.5-1.6,1.5-1.6l0.8,0.6c0,0-3.1,6.2-8.6,8.6
				c-5.5,2.4-9.3,3.3-10.7,3.3c-1.4,0-2.2,0.1-2.2,0.1s2.6,1.6,3.1,2.4c0.5,0.8,1.4,2,0.3,2.9c-1.1,0.9-2,2.1-3.5,1.1
				c-1.5-0.9-2.5-2.2-2.5-2.2s-0.8,0-0.3,1.2c0.5,1.1,1.4,2.3,2.1,2.8c0.7,0.4,1,0.6,1,0.6s-2.1,0.9-2.9,1.4
				c-0.8,0.5-0.8,0.5-0.8,0.5s-2.4-2.6-2.2-4.5c0.2-1.9,1.7-1.1,1.9-2.3c0.3-1.1-0.1-2.9-0.1-2.9l-1.1-0.2c0,0,0.1,3.3-5.6,4.9
				c-5.7,1.6-9-1.5-9-1.5s-0.2-1.8,0.1-2.2c0.3-0.4,0.2-1,1.5-0.3c1.3,0.7,2.2,1.4,2.2,1.4s2.6,0.8,3.8,0.6c1.2-0.2,2.1-0.7,2.3-1
				s0.2-0.2,0.2-0.2l-2.9,0.8c0,0-3.6,0.7-3.5-1.1c0.1-1.7,2.7-2.4,3.6-2.4c0.9,0.1,2.4,0.2,2.4,0.2h1.8l0.3-0.4
				c0,0-4.2-0.6-7.6-2.9c-3.4-2.3-5.5-4.2-6.3-5.8c-0.8-1.6-1.3-1.8-1.3-1.8L22.1,43.8z"/>
			<path fill="#B7606B" d="M66.6,44.7c-0.5,0.8-0.9,1.7-1.5,2.5c-0.6,0.9-1.4,1.8-2.2,2.6c-1.6,1.6-3.6,3-5.7,4.2
				c-3.9,2.3-8.6,3.3-13.3,3.2c0.3,0,0.7-0.1,1-0.1c1.2-0.1,2.5-0.4,3.7-0.6c2.3-0.5,4.5-1.5,6.5-2.7c2-1.2,3.9-2.5,5.8-3.9
				c1.9-1.5,3.6-3,4.7-5c0.1-0.1-0.1-0.3-0.2-0.1c-0.6,0.5-1,1.1-1.5,1.7c-0.8,1-1.7,1.7-2.7,2.5c-1.8,1.4-3.7,2.7-5.7,3.9
				c-1.8,1.1-3.8,2-5.8,2.7c-1.1,0.3-2.2,0.5-3.4,0.7c-1.1,0.2-2.8,0.6-3.9,0.4c0-0.1,0-0.1,0-0.2c-0.3-0.7-1.6-0.4-2.1-0.1
				c-0.1,0-0.1,0.1-0.1,0.1c-0.1,0.1-0.2,0.1-0.2,0.2c-2.3-0.8-4.4-1.6-6.4-2.7c-2-1.2-3.9-2.5-5.6-4c-1.8-1.5-3.3-3.2-4.6-5
				c-1.2-1.7-2.9-4.5-2.1-6.5c0-0.1-0.1-0.1-0.2-0.1c-0.4,0.4-0.6,0.9-0.5,1.5c0-0.6,0-1.2,0.4-1.4c0.1-0.1,0-0.3-0.1-0.2
				c-1.4,0.7-0.7,3.2-0.5,4.4c0.6,2.9,2.3,5.9,4.4,8.1c1.8,2.1,4.1,3.7,6.8,5c1.4,0.7,3.2,1.4,5,1.8c-0.2,0-0.4,0-0.6,0
				c-1-0.1-1.9-0.4-3-0.4c-1.1,0-2.7,0.5-3.3,1.4c-0.4,0.3-0.6,0.7-0.7,1.3c0,0.2,0,0.3,0,0.4c-0.4-0.4-0.9-0.7-1.4-1
				c-0.5-0.3-1.1-0.7-1.7-0.5c-0.5,0.1-0.7,0.9-0.7,1.3c-0.1,0.6-0.1,1.3-0.2,1.9c0,0.2,0.2,0.3,0.3,0.3c3,1.5,6.3,2.3,9.7,1.2
				c1.4-0.4,2.6-1.2,3.6-2.1c0.8-0.7,1.6-1.7,1.8-2.7c0.2,0,0.5,0,0.7,0.1c0.3,0.8,0.4,1.6,0.2,2.4c-0.1,0.8-1,0.6-1.6,0.9
				c-0.1,0-0.1,0-0.2,0C39,62,39,62.1,39,62.3c0,0,0,0,0,0c-0.5,0.7,0,1.9,0.2,2.6c0.4,1.2,1.1,2.3,1.8,3.3c-0.1,0.2,0,0.4,0.3,0.3
				c0,0,0,0,0,0c0.1,0.1,0.3,0,0.3-0.1c0.3-0.2,0.6-0.4,0.8-0.6c0.8-0.6,2-0.7,2.9-1.1c0.2-0.1,0.2-0.3,0.1-0.4
				c-0.6-0.6-1.4-0.8-2-1.4c-0.2-0.2-2-2.2-1.2-2.5c0.1,0,0.1-0.2,0-0.2c-0.1,0-0.1,0-0.1,0c0.1,0,0.3-0.1,0.4-0.2
				c0.8,1.4,1.8,2.6,3.2,2.5c0.1,0.1,0.3,0.1,0.4-0.1c0.5-0.1,1-0.3,1.6-0.8c1.5-1.2,1.7-2.4,0.5-3.8c-0.6-0.6-1.4-1.4-2.4-2
				c4.2-0.2,8.3-1.4,11.8-3.3c2.1-1.2,4.1-2.7,5.8-4.3c1.5-1.4,3.3-3.5,3.5-5.5C66.9,44.7,66.7,44.6,66.6,44.7z M31.7,55.1
				c-2.4-1.1-4.5-2.7-6.3-4.5c-1.9-1.9-3.1-4.2-4.1-6.6c-0.4-1-0.7-2.1-0.8-3.2c0-0.2-0.1-0.6-0.1-1c0,1.2,0.8,2.7,1.3,3.6
				c1.1,2.3,2.8,4.4,4.7,6.2c1.9,1.8,4,3.4,6.3,4.8c1.6,1,3.7,2.2,5.7,2.6C36.1,57,33.7,56,31.7,55.1z M31.5,57.8
				c1-0.3,1.9-0.3,2.9-0.1c1.2,0.3,2.7,0.4,4,0c0.4,0,0.8,0,1.2-0.1c0,0.1,0,0.1,0,0.2c-0.1,0.1-0.3,0.2-0.4,0.3
				c-0.4,0.2-0.8,0.3-1.2,0.5c-1.8,0.5-4.2,0.2-5.7-0.2c-0.5-0.2-1-0.2-1.5-0.3C30.9,58,31.2,57.9,31.5,57.8z M30,58.7
				c0.5-0.3,1.5,0.1,2,0.2c1.3,0.4,2.6,0.4,4,0.3c-0.8,0.3-1.7,0.6-2.5,0.9c-1,0.4-2.7,1.2-3.8,0.5C29,60.1,29.4,59.1,30,58.7z
				 M35.2,60.2c-0.5,0.4-1,0.6-1.7,0.8c-0.3,0.1-0.6,0.1-0.8,0.1C33.5,60.9,34.4,60.6,35.2,60.2z M34.1,63c-2.9,0.9-6.2,0-8.7-1.3
				c0-0.6,0-2.6,0.5-2.6c0.5,0,1.2,0.5,1.6,0.7c0.4,0.3,0.8,0.6,1.3,0.7c0,0,0.1,0,0.1,0c0.4,0.7,1.5,1,2.5,0.8c0.9,0.1,2,0,2.8-0.2
				c0.8-0.2,1.4-0.6,1.7-1.2c0.9-0.4,1.7-0.7,2.6-1.1c0.3-0.1,0.6-0.2,0.8-0.4c0,0,0.1,0,0.2-0.1c0,0,0,0,0.1,0
				c0.1,0.1,0.2,0.2,0.3,0.2c0,0,0.1,0,0.1,0C38.9,60.7,36.5,62.3,34.1,63z M40.1,58c0-0.2,0.1-0.3,0.1-0.5c0,0,0-0.1,0.1-0.1
				c0.1-0.2,0.2-0.4,0.3-0.6c0.2,0,0.3,0,0.5-0.1c0.3,0,0.7-0.2,0.7,0.1c0,0.3-0.2,0.6-0.3,1c-0.1,0-0.3,0.1-0.3,0.2
				C40.8,58,40.5,58,40.1,58z M42.8,65c0.6,0.6,1.3,0.9,1.9,1.4c-0.7,0.3-1.5,0.4-2.2,0.7c-0.4,0.2-0.8,0.5-1.1,0.8
				c-0.2-0.3-0.4-0.6-0.6-1c-0.5-0.8-0.9-1.6-1.2-2.5c-0.1-0.4-0.5-1.8,0.3-2c0.6,0,1.2,0,1.8-0.1c-0.3,0.2-0.1,0.8,0,1.1
				C42,63.9,42.3,64.5,42.8,65z M41.4,61.9c0.3-0.3,0.4-0.8,0.4-1.3c0.1,0.4,0.3,0.8,0.5,1.2C42,61.8,41.7,61.8,41.4,61.9z M42,59
				c0.7,0.6,1.5,1.2,2,2c0.7,0.9,1.1,1.9,1.4,2.9C43.7,63.7,42.5,60.8,42,59z M46.9,59.6c0.6,0.5,1.1,1.1,1.4,1.8
				c0.3,0.6-0.4,1.3-0.9,1.7c-0.4,0.4-0.9,0.7-1.3,0.8c-0.5-2.2-2-4.4-4.2-5.6c0.1-0.1,0.1-0.3,0.2-0.4c0.1,0,0.1,0.1,0.2,0.1
				c0.7,0.1,1.4,0.1,2,0.1C45.4,58.3,46.2,58.9,46.9,59.6z"/>
			<g>
				<path fill="#514922" d="M17,27.8c0,0-0.2,3.7,1.5,5.7c1.7,2,2.6,3.7,3.3,8.3c0.7,4.6,0.2,10.1,0.2,10.1s0.2,1.5-1.7,2.2
					c-1.9,0.7-3.9,0.3-4.2-0.4c-0.3-0.8-3.6-7.1-3.7-14.8c0-3.9,2.3-5.3,1.9-8c-0.4-2.7-0.6-3.1-0.6-3.1S14.5,29,17,27.8z"/>
				<path fill="#898058" d="M15.5,41.4c0,0,0.1,2.1,0.7,5.1c0.6,3,1.2,4.1,1.2,4.1s1.5,0.7,4.3-0.1l0.4-0.3c0,0,0.4-6.3-0.6-10.4
					c-0.5-1.8-1.1-2.2-2.7-1.8c-1.6,0.4-2.3,2.1-2.3,2.1S15.3,39.7,15.5,41.4z"/>
				<path fill="#5F542A" d="M14.9,28.5c0,0,1.2,3.9,0.7,6.9c-0.5,3-0.8,8.5,0.5,12.9c1.3,4.4,1,5.5,2.5,5.6c1.5,0.1,2.9-1,2.9-1
					s-0.5,1.3-2.5,1.3c-2,0.1-2.7-0.6-2.7-0.6s0.5-0.1,0.2-0.8c-0.3-0.7-3.1-8.6-3.1-12.7c0-4.1,1.5-5.5,1.4-7.6
					c-0.2-2.1-0.4-4.1-0.4-4.1L14.9,28.5z"/>
				<g>
					
						<linearGradient id="SVGID_12_" gradientUnits="userSpaceOnUse" x1="36.8179" y1="-14.2537" x2="46.8543" y2="-14.2537" gradientTransform="matrix(-1.2679 0.5219 0.3806 0.9247 67.2736 34.0239)">
						<stop  offset="0" style="stop-color:#F0E23C"/>
						<stop  offset="0.1155" style="stop-color:#F0DE3B"/>
						<stop  offset="0.2572" style="stop-color:#EED437"/>
						<stop  offset="0.4126" style="stop-color:#ECC332"/>
						<stop  offset="0.5777" style="stop-color:#E9AA2C"/>
						<stop  offset="0.7488" style="stop-color:#E68C26"/>
						<stop  offset="0.7925" style="stop-color:#E58425"/>
					</linearGradient>
					<path fill="url(#SVGID_12_)" d="M8.2,37.8c0,0-0.6,1.6-0.4,1.9C7.9,40,7.4,39.5,7,40.2c-0.4,0.7-0.4,1.6,0,2.3
						c0.4,0.7,0.5,0.9,0.5,0.9s-0.9,0.9-0.3,1.9c0.6,1,3.4,2.5,4.7,1.6c1.3-0.9,0.4-1.4,0.4-1.4s1.7,1,2.2-0.9
						c0.6-1.8-0.3-2.8-0.3-2.8s1.5-1.3,0.7-2.4c-0.8-1.2-4.9-2.6-5.7-2.1C8.3,37.6,8.2,37.8,8.2,37.8z"/>
					<path fill="#F69321" d="M9.6,37.4c0,0,2.1-0.1,3.3,1.7c1.3,1.8,0.9,2.5-0.7,2.2c-1.6-0.3-3.4-1.7-3.4-1.7l-0.1,0.6
						c0,0,1.5,0.9,2.8,1.5c1.3,0.7,2.1,1.5,2.4,2.3c0.2,0.9-0.5,1.3-1.1,1c-0.6-0.3-1.5-1.2-3.6-1.8c-2-0.7-2.3-1.2-2.3-1.2l0.7,1.9
						c0,0,2.4,1,3.2,1.7c0.8,0.7,0.6,1.1,0.6,1.1l1.1-1.1c0,0,1.6,0,2-1c0.5-1-0.6-2.6-0.6-2.6s1.4-1.1,1.1-1.9
						c-0.4-0.9-2.3-2.7-3.9-2.8C9.7,37.1,9.6,37.4,9.6,37.4z"/>
					<path fill="#F06724" d="M7.1,43.5c-0.6-0.6-1-1.4-0.9-2.1c0.1-0.6,0.7-1.7,1.5-1.9c-0.1-0.5-0.1-1,0.1-1.5c0.8-1.6,3-1.5,4.2-1
						c1.6,0.6,3.6,2,3.5,3.7c0,0.6-0.4,1.1-1,1.3c0.4,0.4,0.6,1,0.6,1.6c0,0.8-0.4,1.6-1.4,2.2c-0.3,0.2-0.6,0.2-0.9,0.2
						c-0.2,0.4-0.5,0.9-0.9,1.1c-1.2,0.8-2.9,0-3.8-0.4C7.7,46.3,6.3,44.3,7.1,43.5z M8.5,45.7c0.8,0.8,3.7,1.7,3.8,0
						c-0.1,0-0.1-0.1-0.2-0.2c-0.3-0.2-0.5-0.5-0.8-0.8c-0.2-0.2-0.6-0.3-0.6-0.6c0-0.1,0-0.2,0.1-0.2c0.9-0.5,1.6,0.8,2.2,1.2
						c0,0,0.1,0,0.1,0.1c0,0,0.1,0,0.1,0.1c0.8,0.3,1.4-0.9,1.5-1.4c0-0.6-0.2-1.2-0.6-1.7c-0.9,0.1-1.8-0.1-2.3-0.5
						c-0.1-0.1,0.1-0.3,0.3-0.3c0.5,0.1,1.3,0.5,1.9,0.4c0,0,0,0,0,0c0.3-0.1,0.5-0.2,0.7-0.5c0.4-0.6-0.1-1.2-0.4-1.6
						c-0.6-0.8-1.5-1.4-2.5-1.9c-1-0.5-3.2-0.7-3.3,0.9c-0.1,1,0.8,1.6,1.3,2.4c0.1,0.1-0.1,0.4-0.3,0.3c-0.6-0.2-1.2-0.6-1.5-1.2
						c-1,0.4-1,1.4-0.7,2.1c0.3,0.8,1.3,1.1,1.9,1.7c0.1,0.1-0.1,0.4-0.3,0.4c-0.4,0-0.8-0.1-1.2-0.3C7.4,44.6,8,45.2,8.5,45.7z"/>
					<path fill="#F0E23C" d="M9.1,37.6c0,0-0.7,0.7,0.1,1.8c0.8,1.1,2.9,2,3.5,2c0.6,0,0.7-0.3,0.7-0.3s-0.4,0.8-2.2,0.1
						c-1.7-0.7-2.5-1-2.8-1.8C8.2,38.6,8.3,37.8,9.1,37.6z"/>
					<path fill="#F0E23C" d="M7.7,40.2c0,0-0.9,1.7,0.7,2.3c1.6,0.6,3,0.8,3.8,1.5c0.8,0.7,1.4,1.5,0.9,1.3c-0.5-0.2-1.7-1.3-3-1.6
						c-1.3-0.4-2.4-0.3-2.8-1.4C6.8,41.2,7.4,40.4,7.7,40.2z"/>
					<path fill="#F0E23C" d="M7.7,43.9c0,0,0.5,1.4,1.6,1.7c1.1,0.4,2.6,0.8,2,0.9c-0.6,0.1-2.6,0-3.3-1.1
						C7.2,44.5,7.7,43.9,7.7,43.9z"/>
				</g>
				<path fill="#898058" d="M15.1,30.6c0,0,0.2,1.1-0.1,2c-0.4,0.9-0.5,0.9-0.5,0.9s0.6,1,2.3,0.9c1.7-0.1,1.7-0.9,1.7-0.9
					s-0.6-0.7-0.9-1.6c-0.3-0.7-0.4-1.7-0.4-1.7S16.6,30.6,15.1,30.6z"/>
				<ellipse fill="#514922" cx="15.4" cy="27.5" rx="2" ry="1.2"/>
				<ellipse fill="#3A341B" cx="15.3" cy="27" rx="1.4" ry="0.6"/>
				<ellipse fill="#2D2817" cx="15.3" cy="27.2" rx="1.1" ry="0.4"/>
				<path fill="#5F542A" d="M13.9,26.8c0,0-0.6,0.6,0.7,0.9c1.3,0.3,2.4-0.2,2.3-0.6c0-0.4,0.6,0.5-0.3,0.9c-0.9,0.4-2.6,0.4-3-0.2
					C13.1,27.1,13.9,26.8,13.9,26.8z"/>
				<path fill="#7D7242" d="M13.7,27c0,0-0.2,0.6,1.1,0.8c1.3,0.2,1.7-0.1,1.7-0.1s-1.1,0.6-2.4,0.2C13.3,27.7,13.7,27,13.7,27z"/>
				<path fill="#E5E3D9" d="M15.4,30.8c0,0,0.1,0.4,0,1.2c-0.1,0.7-0.5,1.4-0.5,1.4s0.7,0.7,1.8,0.6c1.1-0.1,1.6-0.7,1.6-0.7
					s-0.5-0.7-0.8-1.5c-0.2-0.7-0.4-1.4-0.4-1.4S16.3,31,15.4,30.8z"/>
				<path fill="#B1AB8E" d="M15.6,31c0,0,0.1,0.4,0,1.1c-0.1,0.7-0.4,1.4-0.4,1.4s0.6,0.5,1.6,0.4c1.2-0.1,1.5-0.6,1.5-0.6
					s-0.5-0.7-0.7-1.2c-0.1-0.5-0.4-1.3-0.4-1.3S16.9,31,15.6,31z"/>
				<path fill="#E5E3D9" d="M21.5,39.4c0,0-1.1-1.8-3-0.7C16.7,39.7,17,41,17,41s-1.1-0.5-1,0.6c0.1,1.1,0.7,6.3,1.6,8.5
					c0,0,0,0.2,0.4,0.3c0.4,0.1,2.3,0.1,3.2-0.2c0.8-0.3,1-0.8,1-0.8S22.5,44.7,21.5,39.4z"/>
				<path fill="#B1AB8E" d="M21.5,39.7c0,0-0.7-1.3-2.3-0.9c-1.6,0.4-1.9,1.7-1.9,2.1c0,0.4-0.1,0.4-0.1,0.4s-0.8-0.4-0.9,0.3
					c0,0.6,0.1,2.5,0.5,4.8c0.4,2.3,0.9,3.4,1.1,3.6c0.1,0.2,1.5,0.4,2.7,0.1c1.2-0.4,1.6-0.8,1.6-0.8s0-3.7-0.2-6
					C21.9,40.9,21.5,39.7,21.5,39.7z"/>
			</g>
			<path fill="#FFFFFF" d="M56.1,23c0,0,2.9,1.3,4.9,2.8c2,1.5,2.9,2.8,2.9,2.8S64.2,25.7,56.1,23z"/>
			<path fill="#FFFFFF" d="M31.5,22.9c0,0-3.5,1-4.7,2.2c-1.2,1.2-1.6,1.7-1.6,1.7S26.2,23.2,31.5,22.9z"/>
			<path fill="#C9717C" d="M42,58.1c0,0,0.8,0.3,2.1,1.2c1.3,0.9,1.8,1.1,0.8-0.1c-1-1.2-0.5-0.5,0.4,0.1c0.9,0.5,1.4,0.3,0.8-0.3
				c-0.6-0.6-1.5-1-1.5-1l-2.4-0.2L42,58.1z"/>
			<path fill="#C9717C" d="M42.9,62.1c-0.9-1.3-1.4-3.3-0.8-3.1c0,0,1.4,0.8,2.5,2.5c1.1,1.8,1.1,2.9,0.5,2.5
				C45.1,64.1,43.5,62.9,42.9,62.1z"/>
			<path fill="#C9717C" d="M36.6,59.1c0,0-1.1,0.2-3.3-0.2c-2.1-0.4-3.1-0.9-3.7-0.2s-1.2,2.5,1.6,2.2C34,60.6,36.6,59.1,36.6,59.1z
				"/>
			<path fill="#C9717C" d="M39.6,57.7c0,0-0.7,0.9-2.9,0.9c-2.2,0-2.2-0.2-1.7-0.2c0.6-0.1-0.9-0.3-1.2-0.6
				c-0.3-0.3-0.1-0.2-0.1-0.2S36,58,37,57.8c1-0.2,0.8-0.3,1.6-0.3C39.4,57.5,39.6,57.7,39.6,57.7z"/>
			<path fill="#C9717C" d="M40.6,56.8c0,0-0.4,0.5,0,0.7c0.4,0.2,0.6-0.3,0.6,0c0,0.2,0.2,0.2,0.4-0.1c0.2-0.3,0.3-0.6,0.3-0.6
				s0.1,0.7-0.1,1.1c-0.2,0.5-1,0.4-1.3,0.4C39.9,58.2,39.8,57.1,40.6,56.8z"/>
			<path fill="#C9717C" d="M41.6,62.3c0,0,0,0.5,0.4,1.2c0.3,0.7,0.5,0.9,0.5,0.9s-0.8-0.3-1.2,0.7c-0.4,0.9,0.2,2.6,0.2,2.6
				s-1.9-2.3-2-3.6c-0.1-1.3-0.1-1.7,0.6-1.8C40.8,62.2,41.6,62.3,41.6,62.3z"/>
			<path fill="#C9717C" d="M36.5,59.7c0,0-1.4,1.9-0.8,1.7C36.2,61.2,37,60,37,60s0.2-0.1,0.1,0.5c-0.1,0.6,0.1,0.8,0.5,0
				c0.5-0.8,0.6-1.2,0.6-1.2s0.6,0.4,1.1-0.1c0.4-0.5,0.5-0.7,0.5-0.7l-0.2-0.3L36.5,59.7z"/>
			<path fill="#C9717C" d="M22.2,44.3c0,0,1,1.5,2.1,2.9c1.1,1.4,0.8,1.4,0.4,1c-0.4-0.5-0.7,0.1,0.3,1.6c1,1.5,2.1,2.3,2.1,2.3
				S25,50.4,24,49c-1-1.4-1.7-2.9-1.7-2.9L22.2,44.3z"/>
			<path fill="#C9717C" d="M38.4,57c0,0-4.5-1.9-5.6-2.7c-1.1-0.7-3.4-2.3-3.4-2.3l-1.4-1c0,0,2.9,2.6,4.5,3.5
				c1.6,1-0.3,0.3-0.9-0.1c-0.6-0.4-0.3,0.3-0.3,0.3L28,52.9c0,0,3.5,2.8,6.7,3.6C37.9,57.3,38.4,57,38.4,57z"/>
			<path fill="#C9717C" d="M43.1,57.1c0,0,7.9-1.2,10.8-2.8c2.9-1.6,4.6-2.4,4.6-2.4s-1.6,1.6-6.7,3.8c-1.3,0.6,0.1,0.2,1.1-0.2
				c1.1-0.4,0.6,0.1-0.4,0.3c-0.9,0.3-1.8,0.4-1.8,0.4s1.2-0.1,3.7-0.9c2.4-0.8,3.3-1.5,3.3-1.5s-4.6,3.2-11,3.6
				c0,0-3.2,0.3-3.8,0.2c-0.6-0.1-0.5-0.1-0.1-0.2C43.1,57.2,42.2,57.4,43.1,57.1z"/>
			<path fill="#A15965" d="M36,59.1c0,0-1.6,0.8-3,1.2c-1.4,0.3-1.3,0.2-0.3-0.3c1-0.5-0.9,0.1-1.9-0.2c-1-0.3-1.2-1.6,0-1.4
				c1.2,0.2,2.8,0.6,3.8,0.6C35.5,59,36,59.1,36,59.1z"/>
			<path fill="#A15965" d="M42.1,59c0,0,0.1,1.1,0.8,2.3c0.7,1.3,0.9,1.2,0.7,0.7c-0.2-0.5,1.5,1.8,1.8,1.5c0.3-0.4-0.3-1.4-1.2-2.7
				C43.3,59.6,42.1,58.6,42.1,59z"/>
			<path fill="#E5A6AC" d="M44,59.9c0,0,1.4,1.6,1.8,2.8c0.4,1.2,0.1,1.8-0.5,1.7c-0.5-0.2-0.7-0.4-0.7-0.4s0.5,0.8,1.3,0.3
				c0.9-0.5,2.6-1.4,2.6-2.5c0-1.1-0.8-1.7-1.8-2.4c-1-0.7-1-0.7-1-0.7s1.8,1.9,1.3,2.2c-0.4,0.3-1-0.4-1-0.4s0.6,0.8-0.4,0.4
				C44.7,60.5,44,59.9,44,59.9z"/>
			<path fill="#E5A6AC" d="M41.7,62.7c0,0,0.2,1.1,1.1,2c0.9,0.9,2.1,1.6,2.1,1.6s-1.8,0.4-2.4,0.8c-0.6,0.4-1.1,0.8-1.1,0.8
				s0.1-2.2,0.9-2.3c0.8,0,1,0.2,1,0.2S41.8,64.3,41.7,62.7z"/>
			<path fill="#E5A6AC" d="M41.1,58.8c0,0,0.7,1.5,0.4,2.6c-0.3,1.1-1.3,0.8-1.8,0.9c-0.4,0.1-0.5,0.7-0.3,1.8c0.1,1.1,1,2,1.4,2.9
				c0.3,0.8,0.4,0.9,0.4,0.9s-1.1-1.8-1.4-2.3c-0.4-0.5-0.7-1.5-0.7-2.3c0.1-0.8,0.1-1.2,0.5-1.2c0.4,0,1,0,1.4-0.4
				C41.3,61.2,41.6,60.9,41.1,58.8z"/>
			<path fill="#E5A6AC" d="M28.5,60.5c0,0-0.8-0.6-1.4-1c-0.6-0.4-1.3-0.6-1.3-0.6s-0.1,0-0.4,0.8c-0.3,0.8-0.4,2.1-0.4,2.1
				s3.1,1.8,6.1,1.8c3,0,5.3-1,6.6-2.2c1.3-1.2,1.3-1.4,1.3-1.4s-1.9,1.7-2.4,1.6c-0.4-0.1-0.1-0.4-0.1-0.4s-1.6,1-2,0.9
				c-0.4-0.2,0.3-0.7,0.3-0.7s-1.6,0.7-2.4,0.8c-0.8,0.1-0.1,0.6-1.5,0.7c-1.4,0.1-5.6-0.8-5.3-1.6c0.3-0.9,1.4-0.8,1.4-0.8
				s-0.3-0.6,0.4-0.3C27.8,60.2,28.5,60.5,28.5,60.5z"/>
			<path fill="#E5A6AC" d="M41.8,57.4c0,0,0.4-0.8-0.2-0.8c-0.6,0-0.7,0.3-0.9,0.2c-0.3,0-0.5-0.1-0.6,0.4c-0.1,0.5,0,0.7,0,0.7
				s0-0.5,0.3-0.6c0.3-0.1,0.6,0.1,0.9-0.1C41.5,56.9,41.8,56.9,41.8,57.4z"/>
			<path fill="#E5A6AC" d="M39.6,57.8c0,0-0.9,1.1-4.3,1c-3.5-0.1-3.8-0.9-4.9-0.6c-1,0.2-1.6,1.2-1.3,2c0.2,0.8,1,0.8,1,0.8
				s-1.6,0.1-1.1-1.6c0.4-1.6,1.1-1.3,2.4-1.8c1.2-0.5,1.5-0.4,2.4-0.3c0.8,0.1,1.3,0.4,1.3,0.4s-1.4-0.1-1.3,0.2
				c0.1,0.3,0.6,0.3,0.6,0.3s-0.3,0.3,1.2,0.3C37,58.6,38.7,58.4,39.6,57.8z"/>
			<path fill="#E5A6AC" d="M26.1,49.4c0,0,3,2.6,4.9,3.8c1.9,1.2,3.7,2.3,3.7,2.3s-2.9-1.4-3.5-1.9c-0.6-0.5-0.1-0.1-0.5-0.1
				c-0.4,0-0.4,0-0.4,0s0.3,0.9-0.4,0.7c-0.7-0.2-2.8-1.9-3.3-2.4C26,51.2,26,51.2,26,51.2s1.2,0.8,1.5,0.6C27.8,51.6,27,51,27,51
				s0.7,0.2,0.1-0.6C26.5,49.7,26.1,49.4,26.1,49.4z"/>
			<path fill="#E5A6AC" d="M60.7,50c0,0-4.3,2.8-6.2,3.8c-1.9,1-2.2,1.2-2.2,1.2s2.8-1.4,3.3-1.6c0.6-0.3-0.9,0.7-0.5,0.7
				c0.4,0,1.5-0.6,1.5-0.6s-0.9,1-0.5,0.9C56.6,54.3,57,54,57,54s-1.3,0.8-2.2,1.2c-0.9,0.5-1.4,0.6-1.4,0.6s2.9-1.1,4.8-2.3
				c1.9-1.3,4-2.8,5.2-4.1c1.3-1.3,1.7-2.2,1.7-2.2s-2.5,3-4,3.7c-1.6,0.8-0.7-0.3-0.7-0.3s-0.5,0.4-0.3-0.1
				C60.4,50.2,60.7,50,60.7,50z"/>
			<g>
				<radialGradient id="SVGID_13_" cx="69.6239" cy="35.6407" r="7.9805" gradientUnits="userSpaceOnUse">
					<stop  offset="0" style="stop-color:#F0E23C"/>
					<stop  offset="0.1155" style="stop-color:#F0DE3B"/>
					<stop  offset="0.2572" style="stop-color:#EED437"/>
					<stop  offset="0.4126" style="stop-color:#ECC332"/>
					<stop  offset="0.5777" style="stop-color:#E9AA2C"/>
					<stop  offset="0.7488" style="stop-color:#E68C26"/>
					<stop  offset="0.7925" style="stop-color:#E58425"/>
					<stop  offset="0.9719" style="stop-color:#F3A91D"/>
				</radialGradient>
				<path fill="url(#SVGID_13_)" d="M67.5,26.4c0,0,1.2,2.3,0.3,4.8c-1,2.6-2.4,3-3,3.7c-0.5,0.8-1.2,3.1-0.4,4.2
					c0.8,1.1,1.2,0.9,0.6,2.1c-0.5,1.2,0.5,3.6,2.3,4c1.8,0.4,2.4-0.5,2.4-0.5s3.4-0.3,4-2c0.6-1.7-0.1-2.3,0.4-2.7
					c0.5-0.4,1.5-0.3,0.8-2.3c-0.7-1.9-0.9-2-0.6-2.7c0.3-0.7,0.4-1.4-1.2-2.1c-1.5-0.7-2.9-0.8-2.7-1.7c0.2-0.9,2-1.8,1-3.6
					c-1-1.7-3.1-2-3.1-2S67.3,25.5,67.5,26.4z"/>
				<path fill="#F06724" d="M63.6,37.3c0.3-1.8,1.8-3,3.1-4.1c0.6-0.8,0.8-2,0.9-2.7c0.3-1.5,0.3-3.2-0.3-4.7
					c-0.1-0.2,0.2-0.3,0.3-0.2c0.1,0.1,0.2-0.2,0.3-0.2c1-0.5,2.5,0.5,3.2,1.2c1.4,1.5,0.7,3,0.1,4.5c0.1,1.9,3.8,1.1,4,3.3
					c0.1,0.8-0.9,0.9,0,2c0.4,0.5,0.7,1,0.7,1.6c0,1.1-0.5,1.8-1.4,2.3c0.7,1.9-0.4,4-2.6,4.4c-0.3,0.1-0.7,0.2-1,0.3
					c-0.2,0.5-0.7,0.8-1.2,0.9c-0.9,0.3-2,0-2.9-0.4c-0.9-0.4-1.7-0.9-2.1-1.8c-0.5-1-0.4-2.4,0.3-3.4C63.8,40,63.4,38.4,63.6,37.3z
					 M65.7,40.7c-0.5,1.5-0.6,3.1,1.2,4c0.6,0.3,1.4,0.5,2.1,0.5c0,0,0,0,0.1,0c-0.6-0.1-1.3-0.5-1.5-1c-0.2-0.5-0.1-1.4,0.2-2
					c-0.4-0.1-0.8-0.4-1.1-0.8c-0.4-0.5-0.4-1.8,0.1-2.6c-0.5-0.1-0.9-0.4-1.1-0.9c-0.5-1.1,0.6-2.4,1.5-3c1.3-0.9,3.4-1.6,5-1.2
					c0.3,0.1,0.2,0.4,0,0.5c0,0,0,0,0,0c-1.2,0.3-2.4,0.3-3.5,0.8c-0.8,0.3-2.6,1.6-2.1,2.6c0.3,0.6,1.8,0.4,2.3,0.4
					c1.1-0.1,2.2-0.4,3.2-0.9c0.3-0.1,0.5,0.3,0.3,0.4c-0.8,0.4-2.8,1.3-4.4,1.4c0,0-0.1,0-0.1,0c0,0-0.1,0-0.1,0
					c-0.7,0.4-0.5,1.9,0,2.3c0.3,0.3,0.6,0.4,1,0.4c0,0,0,0,0.1,0c1.3,0.1,2.9-0.8,3.9-1c0.5-0.1,0.6,0.5,0.2,0.6
					c-1.2,0.4-2.8,1.1-4.2,1c-0.1,0.3-0.2,0.7-0.2,0.9c0,0.6,0.1,1,0.7,1.2c0.5,0.2,0.9,0.1,1.4,0c0,0,0,0,0,0
					c0.1-0.1,0.2-0.1,0.3-0.1c0.1,0,0.2-0.1,0.4-0.1c0.1-0.1,0.2-0.2,0.4-0.2c1.8-0.1,2.9-1.9,2.1-3.4c-0.1-0.2-0.1-0.5,0.2-0.6
					c0.9-0.5,1.4-1,1.2-2c-0.1-0.8-0.9-1.2-1.1-2c-0.1-0.3,0-0.8,0.2-1c0.6-1-0.5-1.3-1.2-1.5c-0.7-0.2-1.6-0.6-2-1.1c0,0,0,0,0,0
					c-0.2,0.5-1,0.3-0.9-0.2c0.3-1.2,1.1-2.2,1.2-3.5c0-1.2-1.6-2.8-2.9-2.4c0.7,1.2,0.5,3.1,0.3,4.4c-0.1,0.3-0.1,1-0.3,1.7
					c0.1,0,0.1,0.1,0.1,0.2c-0.1,0.4-0.3,0.7-0.5,1c-0.3,0.6-0.6,1-1.1,1.1c-0.2,0.2-0.5,0.4-0.7,0.6c-1.4,1.2-2.3,3.8-0.2,4.7
					C66.3,40.1,66.1,40.6,65.7,40.7z"/>
				<path fill="#F69321" d="M69.2,42.3c0,0-0.6,1.1,0.1,1.4c0.7,0.3,1.1-0.4,1.8-0.4c0.7,0,2-0.2,2.4-0.9c0.4-0.6,0.2-1.3,0.2-1.3
					s0.7,1.2-0.4,2.3c-1,1.1-2.6,1.2-3.6,1.4c-1,0.2-1.9-0.3-1.9-1.1c0-0.9,0.6-1.4,0.6-1.4L69.2,42.3z"/>
				<path fill="#F69321" d="M72.7,40.6c0,0-0.5,0.1-1.7,0.6c-1.1,0.5-3,0.8-3.8,0.1c-0.8-0.6-0.5-2-0.2-2.3c0.3-0.3,0.5-0.3,0.5-0.3
					s1.1-0.1,1.7-0.3c0.6-0.2,1.1-0.3,1.1-0.3s-2.7,0.9-2.8,1.8c-0.1,0.9,0.7,1.8,2.5,1.1C72,40.3,72.6,40.1,72.7,40.6z"/>
				<path fill="#F69321" d="M72.2,37c0,0-2,1-4.1,1.1c-2.2,0.1-2.5-0.9-1.4-1.9c1.1-1,2.1-1.4,2.1-1.4s-1.9,1.1-1.3,2.1
					c0.6,0.9,1.7,0.7,2.6,0.2C71.1,36.5,72.4,36.8,72.2,37z"/>
				<path fill="#F8EB32" d="M74,34c0,0,0.3,0.1-0.1,0.6c-0.3,0.5-0.6,1-0.5,1.3c0.2,0.3,0.5,0.4,0.5,0.4s-0.1-0.6,0.2-1
					C74.4,35,74.7,34.4,74,34z"/>
				<path fill="#F8EB32" d="M74.9,37.7c0,0,0.2,0.6-0.5,1.1c-0.8,0.5-1.1,0.8-1,1.1c0.1,0.3,0.1,0.5,0.1,0.5s0.1-0.4,0.7-0.8
					C74.9,39.3,75.4,38.6,74.9,37.7z"/>
				<path fill="#F69321" d="M65.8,40.1c0,0-0.7,1-0.5,2.7c0.2,1.7,2,2.3,2.7,2.5c0.7,0.1,1.1,0,1.1,0s-1.3-0.2-1.5-1
					c-0.1-0.9,0.2-2,0.2-2s-1.1-0.6-1.3-1.4c-0.2-0.8,0.4-2.1,0.4-2.1s-1.1,0-1.2-1c-0.2-1,0.4-1.8,0.4-1.8s-1,0.9-1.1,1.8
					C64.6,39.2,65.8,40.1,65.8,40.1z"/>
				<path fill="#F69321" d="M68.2,26.3c0,0,0.8,2.4,0.1,4.5c-0.6,2.1-1.5,3.1-2.3,4c-0.7,0.9-0.9,1.4-0.9,1.4s1.5-1.4,2.3-1.9
					c0.8-0.4,2.2-1.6,1.9-1.5C69,32.9,69,32.9,69,32.9s1-2,0.8-3c-0.2-0.9-0.5-1.2-0.8-2.3C68.7,26.6,68.6,26.2,68.2,26.3z"/>
				<path fill="#FFFFFF" d="M73.6,34.1c0,0,0.6,0.3-0.1,1.1c-0.7,0.8-0.8-0.5-0.5-0.9C73.4,33.8,73.6,34.1,73.6,34.1z"/>
				<path fill="#FFFFFF" d="M74.2,37.4c0,0,0.5,0.1,0,1.1c-0.6,1-1.1,0.5-0.8-0.4C73.6,37.2,74.2,37.4,74.2,37.4z"/>
				<path fill="#FFFFFF" d="M73.7,41.4c0,0-0.1,1.4-0.7,1.1C72.4,42.2,73.3,40.9,73.7,41.4z"/>
				<path fill="#FFFFFF" d="M74.2,36.8c0,0,0.9,1.2,0.7,1.7c-0.2,0.5-1.1,1.1-1.4,1.4c-0.4,0.3-0.1,0.8,0.1,1.1
					c0.2,0.4,0.4,1.1,0,1.9c-0.4,0.8-2.4,1.6-3.5,1.7c-1.1,0.1-2,0.1-2.2-0.7c-0.2-0.8,0.2-1.3,0.2-1.3s-0.6,0.4-0.3,1.5
					c0.3,1,1.7,0.9,2.9,0.5c1.2-0.3,2.6-0.6,3.1-1.6c0.6-1,0.2-1.9,0.1-2.3c-0.1-0.4,0.5-1.1,0.8-1.4c0.3-0.3,0.7-0.9,0-2.1
					c-0.7-1.1-0.4-1.9-0.2-2.4c0.2-0.4-0.2-0.8-1-1.1C73,33.4,71.8,33,71.8,33s2.5,1,2.5,1.4c0,0.4-0.4,0.8-0.5,1.4
					C73.8,36.3,74.2,36.8,74.2,36.8z"/>
				<path fill="#FFFFFF" d="M68.1,26.3c0,0,1-0.8,2.2,0.4c1.2,1.2,1,2.5,0.5,3.4c-0.5,0.9-0.8,2-0.8,2.3c0,0.3,0.4,0.3,0.5,0.2
					c0.2-0.1,0.2-0.1,0.2-0.1s0.4,0.3,1.1,0.6c0.7,0.3,1.1,0.5,1.1,0.5l0.1,0.1c0,0-1.3-0.4-1.7-0.7c-0.4-0.2-0.5-0.3-0.5-0.3
					s-0.5,0.3-0.8,0.3c-0.3,0-0.2-0.5-0.4-0.4c-0.2,0.1-0.2,0-0.2-0.1c0-0.1,0.9-1.8,1.1-2.5c0.1-0.7,0-0.8-0.4-2
					c-0.4-1.2-1.1-1.8-1.5-1.6c-0.4,0.1-0.2,0.7-0.1,1.1c0.1,0.4,0.6,2.8-0.3,4.4c-1,1.6-1.3,2-1.3,2s1.1-1.8,1.4-2.9
					c0.2-1.1,0.1-3-0.1-3.7C68,26.4,68.1,26.3,68.1,26.3z"/>
				<path fill="#FFFFFF" d="M66.2,34.5c0,0-1.5,1.1-1.7,3.2c-0.2,2.1,1.2,2.4,1.2,2.4s-1.3-1.4-0.7-3.1
					C65.5,35.2,66.2,34.5,66.2,34.5z"/>
			</g>
			<path fill="#FFFFFF" d="M42.7,58.7c0,0,1.8,1.6,2.6,3.1c0.8,1.5,0.7,2.2,0.3,2.4c-0.3,0.2-1-0.2-1.2-0.4
				c-0.3-0.2-0.3-0.2-0.3-0.2s0.9,1,1.6,0.7c0.7-0.3,0.3-1.6-0.3-2.5C45,60.8,43.3,59,42.7,58.7z"/>
			<path fill="#FFFFFF" d="M45,58.2c0,0,2.1,0.9,3,2c0.8,1.1,0.7,2,0.3,2.5c-0.5,0.5-0.7,0.6-0.7,0.6s0.5-0.4,0.6-0.8
				c0.2-0.4,0.1-0.5,0.1-0.5s-1,0.7-1.5,0.8c-0.6,0.1-1,0-1,0l-0.6-1.2c0,0,1.2,0.5,1.6,0.2c0.4-0.3,0.3-0.4,0.3-0.4s0.3,0.5,0.7,0
				c0.4-0.5-0.6-1.7-1.4-2.2C45.6,58.6,45,58.2,45,58.2z"/>
			<path fill="#FFFFFF" d="M41.7,62.5c0,0,0,0.8,1.1,2.1c1.1,1.2,2.4,1.8,2.4,1.8s-0.7,0.1-1.9,0.6c-1.2,0.5-1.9,1.1-1.9,1.1
				s-0.8-1.4-1-1.7C40.1,66,40,65.9,40,65.9s0.9,1.2,1.1,1.5c0.2,0.3,0.3,0.3,0.3,0.3l0.6-0.4c0,0,0.1-1,0.5-1.4
				c0.4-0.4,1.8,0.1,1.8,0.1S41.8,64.6,41.7,62.5z"/>
			<path fill="#FFFFFF" d="M40,57.8c0,0,0.1-0.5,0.5-0.5c0.4,0,0.6,0,0.7-0.1c0.1-0.1,0,0.3,0.2,0.1c0.3-0.2,0.2,0,0.2,0.3
				c0,0.3,0,0.3,0,0.3s0.2-0.6,0.1-0.9c-0.1-0.2-0.1-0.3-0.6-0.2c-0.5,0.2-0.5,0-0.7,0C40.2,57,39.9,57.1,40,57.8z"/>
			<path fill="#FFFFFF" d="M39.6,57.8c0,0-1.1,1.2-3.9,1.1c-2.8-0.2-4.4-0.9-5.4-0.6c-1,0.3-1.2,1.2-1.3,1.6c0,0.3,0,0.4,0,0.4
				s-0.4-1,0.6-1.8c1-0.8,2.1-0.5,2.8-0.9c0.7-0.3,1.1-0.1,1.1-0.1s-0.1-0.1-0.4,0.1c-0.3,0.2,0.1,0.5,0.1,0.5S32.8,58,33,58.2
				c0.2,0.2,1.8,0.5,3.3,0.5C37.9,58.8,39.4,58,39.6,57.8z"/>
			<path fill="#FFFFFF" d="M26.3,59.2c0,0-0.2,0.2-0.2,0.3c0.1,0.2,0.1,0.2,0.1,0.2s-0.9,0.6-1,1.2c-0.1,0.6,0.8,1.3,2.8,1.8
				c2,0.5,5.1,0.2,5.6,0c0.6-0.3,0.6-0.3,0.6-0.3s0.1,0.4,1.6-0.2c1.4-0.6,2-1.1,2-1.1s-1,1.3-3.4,1.9c-2.4,0.6-4.1,0.8-7.3-0.3
				L25,61.7c0,0-0.1-0.7,0.2-1.6c0.3-0.9,0.6-1.3,0.6-1.3s0.3,0,0.9,0.3c0.6,0.4,0.7,0.5,0.7,0.5S26.7,59.2,26.3,59.2z"/>
		</g>
		<g>
			<ellipse fill="#B9B9B9" cx="10.4" cy="22.2" rx="1.4" ry="1.3"/>
			<ellipse fill="#F5F6F6" cx="10.5" cy="22.2" rx="1.1" ry="1.1"/>
		</g>
		<g>
			<ellipse fill="#B9B9B9" cx="14.5" cy="25.1" rx="1.4" ry="1.3"/>
			<ellipse fill="#F5F6F6" cx="14.6" cy="25.1" rx="1.1" ry="1.1"/>
		</g>
		<g>
			<ellipse fill="#B9B9B9" cx="15.3" cy="20.9" rx="1.4" ry="1.3"/>
			<ellipse fill="#F5F6F6" cx="15.4" cy="20.9" rx="1.1" ry="1.1"/>
		</g>
		<g>
			<ellipse fill="#B9B9B9" cx="13.4" cy="22.6" rx="1" ry="0.9"/>
			<ellipse fill="#F5F6F6" cx="13.4" cy="22.6" rx="0.8" ry="0.8"/>
		</g>
		<g>
			<ellipse fill="#B9B9B9" cx="16.4" cy="26.3" rx="0.4" ry="0.4"/>
			<ellipse fill="#F5F6F6" cx="16.4" cy="26.3" rx="0.4" ry="0.3"/>
		</g>
		<g>
			<ellipse fill="#B9B9B9" cx="17.1" cy="23.4" rx="0.4" ry="0.4"/>
			<ellipse fill="#F5F6F6" cx="17.2" cy="23.4" rx="0.4" ry="0.3"/>
		</g>
		<g>
			<ellipse fill="#B9B9B9" cx="16.8" cy="18.7" rx="0.4" ry="0.4"/>
			<ellipse fill="#F5F6F6" cx="16.8" cy="18.7" rx="0.4" ry="0.3"/>
		</g>
		<g>
			<ellipse fill="#B9B9B9" cx="15.6" cy="20" rx="0.4" ry="0.4"/>
			<ellipse fill="#F5F6F6" cx="15.6" cy="20" rx="0.4" ry="0.3"/>
		</g>
		<g>
			<ellipse fill="#B9B9B9" cx="7.7" cy="18.5" rx="0.4" ry="0.4"/>
			<ellipse fill="#F5F6F6" cx="7.7" cy="18.5" rx="0.4" ry="0.3"/>
		</g>
		<g>
			<ellipse fill="#B9B9B9" cx="12.1" cy="16.3" rx="0.4" ry="0.4"/>
			<ellipse fill="#F5F6F6" cx="12.2" cy="16.3" rx="0.4" ry="0.3"/>
		</g>
		<g>
			<ellipse fill="#B9B9B9" cx="10.5" cy="24.9" rx="0.9" ry="0.8"/>
			<ellipse fill="#F5F6F6" cx="10.6" cy="24.9" rx="0.7" ry="0.7"/>
		</g>
		<g>
			<ellipse fill="#B9B9B9" cx="12.1" cy="19.3" rx="1" ry="0.9"/>
			<ellipse fill="#F5F6F6" cx="12.2" cy="19.3" rx="0.8" ry="0.8"/>
		</g>
	</g>
	<g>
		<path fill="#5E3824" d="M49.5,53.8c0-0.1-0.3-0.2-0.3,0c0,0.2,0,0.4,0.2,0.5c0.1,0,0.1,0,0.1-0.1C49.6,54.1,49.6,53.9,49.5,53.8z"
			/>
		<path fill="#5E3824" d="M48.6,53.9c0-0.2,0-0.4-0.1-0.5c-0.1-0.1-0.3-0.1-0.2,0.1c0,0.2-0.2,0.9,0.3,0.8
			C48.6,54.2,48.6,54,48.6,53.9z"/>
		<path fill="#5E3824" d="M50.5,53c0-0.2-0.2-0.1-0.3,0c0,0.3,0.1,0.5,0.3,0.6c0.1,0,0.1,0,0.1-0.1C50.6,53.3,50.5,53.2,50.5,53z"/>
		<path fill="#5E3824" d="M51.4,51.6c-0.1-0.1-0.3,0-0.2,0.1c0.1,0.2,0.2,0.4,0.4,0.4c0,0,0.1,0,0.1-0.1
			C51.7,51.9,51.6,51.8,51.4,51.6z"/>
		<path fill="#5E3824" d="M53.8,49.9c-0.1-0.1-0.3,0.1-0.2,0.2c0.1,0.1,0.1,0.1,0.2,0.2c0.1,0,0.1,0,0.1-0.1
			C54,50.1,53.9,50,53.8,49.9z"/>
		<path fill="#5E3824" d="M54,51.1c-0.1-0.1-0.3,0-0.3,0.2c0.1,0.2,0.2,0.4,0.3,0.4c0.1,0,0.1,0,0.2-0.1
			C54.3,51.4,54.1,51.2,54,51.1z"/>
		<path fill="#5E3824" d="M53,51.7c-0.1-0.2-0.3,0-0.3,0.1c0.1,0.2,0.2,0.4,0.3,0.6c0,0,0.1,0,0.1,0C53.4,52.1,53.1,51.9,53,51.7z"
			/>
		<path fill="#5E3824" d="M56.9,49.7c-0.1-0.1-0.1-0.2-0.2-0.3c-0.1-0.2-0.4,0-0.3,0.2c0.1,0.2,0.2,0.3,0.4,0.4
			C56.9,50,57,49.8,56.9,49.7z"/>
		<path fill="#5E3824" d="M56,48.5c-0.1-0.2-0.3-0.1-0.3,0c0,0.2,0.1,0.4,0.3,0.5c0.1,0,0.1-0.1,0.1-0.1
			C56.2,48.8,56.1,48.7,56,48.5z"/>
		<path fill="#5E3824" d="M57.4,48.1c-0.1-0.2-0.4,0-0.3,0.2c0.1,0.2,0.2,0.3,0.4,0.3c0.1,0,0.1,0,0.1-0.1
			C57.6,48.4,57.5,48.3,57.4,48.1z"/>
		<path fill="#5E3824" d="M59.2,47.2c-0.2-0.1-0.4,0.1-0.2,0.2c0.1,0.1,0.2,0.2,0.3,0.2c0.1,0,0.1,0,0.1-0.1
			C59.4,47.4,59.3,47.3,59.2,47.2z"/>
		<path fill="#5E3824" d="M59.9,46.4c-0.1-0.1-0.3,0.1-0.2,0.2c0.1,0.1,0.1,0.2,0.3,0.2c0.1,0,0.1,0,0.1-0.1
			C60,46.5,60,46.4,59.9,46.4z"/>
		<path fill="#5E3824" d="M61.1,47.2c0-0.2-0.3-0.2-0.3,0c0,0.2,0,0.4,0.2,0.5c0.1,0,0.1,0,0.2,0C61.2,47.5,61.2,47.4,61.1,47.2z"/>
		<path fill="#5E3824" d="M60.1,47.8c-0.1-0.1-0.3,0.1-0.2,0.2c0.1,0.1,0.1,0.1,0.2,0.2c0,0,0.1,0,0.1-0.1
			C60.2,48,60.2,47.9,60.1,47.8z"/>
		<path fill="#5E3824" d="M61.7,46.4c-0.1-0.1-0.2-0.2-0.4-0.2c-0.2-0.1-0.4,0.3-0.3,0.4c0.1,0.1,0.2,0.2,0.3,0.2
			C61.6,47,61.9,46.6,61.7,46.4z"/>
		<path fill="#5E3824" d="M61,44.9c-0.2,0.1-0.2,0.3,0,0.4c0.1,0,0.2,0.1,0.4,0.1c0,0,0.1-0.1,0.1-0.1C61.6,45,61.3,44.9,61,44.9z"
			/>
		<path fill="#5E3824" d="M63,45.7c-0.1-0.1-0.2-0.2-0.4-0.2c-0.2,0-0.3,0.4-0.1,0.4c0,0,0.1,0,0.1,0C62.9,46.1,63.1,45.9,63,45.7z"
			/>
		<path fill="#5E3824" d="M58.4,49.8c0-0.2-0.2-0.4-0.4-0.4c-0.2,0-0.2,0.2-0.2,0.3c0,0.1,0.1,0.2,0.2,0.3
			C58.1,50.2,58.4,50.1,58.4,49.8z"/>
		<path fill="#5E3824" d="M57.5,50.4c0-0.2-0.3-0.2-0.3,0c0,0.2-0.1,0.7,0.2,0.7c0,0,0.1,0,0.1,0C57.7,50.9,57.5,50.6,57.5,50.4z"/>
		<path fill="#5E3824" d="M54.9,51.5c-0.1-0.2-0.4-0.1-0.3,0.1c0,0.2,0,0.4,0.3,0.4c0.1,0,0.1,0,0.2-0.1
			C55.1,51.8,55,51.6,54.9,51.5z"/>
		<path fill="#5E3824" d="M55.4,50.5c-0.1,0-0.3,0.1-0.2,0.3c0.1,0.1,0.2,0.3,0.3,0.4c0.1,0,0.1,0,0.2-0.1
			C55.9,50.9,55.7,50.6,55.4,50.5z"/>
		<path fill="#5E3824" d="M46.2,54.5c-0.1-0.3-0.5-0.2-0.4,0.1c0,0.2,0,0.3,0.1,0.5c0,0.1,0.1,0.1,0.2,0
			C46.3,55,46.3,54.8,46.2,54.5z"/>
		<path fill="#5E3824" d="M47.1,55.1c0-0.3-0.4-0.3-0.4,0c0,0.2,0,0.4,0.2,0.5c0.1,0,0.1,0,0.2-0.1C47.1,55.4,47.1,55.3,47.1,55.1z"
			/>
		<path fill="#5E3824" d="M43.5,55.4c0-0.2-0.3-0.2-0.3,0c0,0.2-0.1,0.3,0,0.4c0,0.1,0.1,0.1,0.2,0C43.6,55.8,43.6,55.6,43.5,55.4z"
			/>
		<path fill="#5E3824" d="M41.8,55.3c0,0.1-0.1,0.1-0.1,0.3c0,0.1,0.1,0.1,0.1,0.1c0.1-0.1,0.2-0.1,0.2-0.3
			C42.1,55.2,41.8,55.1,41.8,55.3z"/>
		<path fill="#5E3824" d="M39.7,54.9c0,0.1,0,0.2,0.1,0.3c0,0,0.1,0,0.1,0c0.1-0.1,0.1-0.2,0.1-0.3C40.1,54.6,39.7,54.6,39.7,54.9z"
			/>
		<path fill="#5E3824" d="M32.3,50.2c-0.3,0-0.6,0.2-0.6,0.6c0,0.1,0.1,0.1,0.1,0.1c0.2,0,0.3-0.3,0.5-0.3
			C32.6,50.5,32.5,50.2,32.3,50.2z"/>
		<path fill="#5E3824" d="M30.9,50c-0.1,0.1-0.2,0.2-0.3,0.4c0,0,0,0.1,0,0.1c0.2,0,0.3-0.2,0.5-0.3C31.1,50.1,31,49.9,30.9,50z"/>
		<path fill="#5E3824" d="M29.7,49.6c-0.2,0.1-0.3,0.1-0.4,0.3c0,0.1,0.1,0.1,0.1,0.1c0.2,0,0.3-0.1,0.4-0.2
			C30,49.8,29.8,49.6,29.7,49.6z"/>
		<path fill="#5E3824" d="M28.8,49.9C28.9,49.9,28.9,49.9,28.8,49.9c0.2-0.4-0.5-0.4-0.3,0c0,0.1,0.1,0.1,0.1,0.1
			C28.7,50,28.8,49.9,28.8,49.9L28.8,49.9C28.8,49.9,28.8,49.9,28.8,49.9z"/>
		<path fill="#5E3824" d="M32.9,51.2c-0.2,0.1-0.4,0.3-0.3,0.5c0,0.1,0.1,0.1,0.1,0c0.1-0.1,0.2-0.2,0.4-0.3
			C33.1,51.4,33,51.1,32.9,51.2z"/>
		<path fill="#5E3824" d="M33.6,52.4c0-0.2-0.3-0.2-0.3,0c0,0.2-0.1,0.5,0.2,0.6c0,0,0.1,0,0.1,0C33.7,52.8,33.6,52.6,33.6,52.4z"/>
		<path fill="#5E3824" d="M34.7,53.3c-0.1-0.2-0.4-0.1-0.3,0.1c0,0.2,0.1,0.7,0.4,0.5c0.1,0,0.1-0.1,0.1-0.2
			C34.8,53.7,34.8,53.5,34.7,53.3z"/>
		<path fill="#5E3824" d="M35.8,54c-0.2-0.1-0.4,0.2-0.2,0.3c0.1,0.1,0.2,0.5,0.4,0.3C36.2,54.4,36,54.1,35.8,54z"/>
		<path fill="#5E3824" d="M31.4,52.2c-0.1,0.1-0.2,0.2-0.1,0.3c0,0,0.1,0.1,0.1,0.1c0.2,0,0.2-0.1,0.3-0.2
			C31.8,52.2,31.5,52,31.4,52.2z"/>
		<path fill="#5E3824" d="M30.4,51.2c-0.2,0-0.6,0.1-0.4,0.4c0,0.1,0.1,0.1,0.2,0.1c0.1,0,0.2,0,0.3,0
			C30.7,51.6,30.6,51.2,30.4,51.2z"/>
		<path fill="#5E3824" d="M37.2,54.6c-0.2-0.1-0.3,0-0.4,0.1c-0.2,0.3,0.4,0.5,0.4,0.2c0,0,0,0,0,0C37.3,54.8,37.3,54.6,37.2,54.6z"
			/>
		<path fill="#5E3824" d="M38.1,55.2c-0.2-0.2-0.6,0-0.4,0.2c0,0,0,0.1,0.1,0.1c0.1,0.2,0.3,0.1,0.4-0.1
			C38.2,55.4,38.2,55.3,38.1,55.2z"/>
		<path fill="#5E3824" d="M27.9,54.3c-0.2,0.1-0.3,0.2-0.3,0.4c-0.1,0.2,0.2,0.4,0.4,0.2c0.1-0.1,0.1-0.1,0.2-0.2
			C28.2,54.5,28.1,54.2,27.9,54.3z"/>
		<path fill="#5E3824" d="M28.5,55c-0.1,0.1-0.1,0.2-0.2,0.3c0,0.1,0,0.3,0.2,0.3c0.2,0,0.1,0,0.3-0.3C29,55.1,28.7,54.8,28.5,55z"
			/>
		<path fill="#5E3824" d="M29.7,55.9c0-0.1-0.1-0.2-0.1-0.3c-0.2-0.2-0.6,0.1-0.4,0.4c0.1,0.1,0.2,0.2,0.3,0.2
			C29.7,56.1,29.8,56,29.7,55.9z"/>
		<path fill="#5E3824" d="M30.4,56.3c-0.1-0.3-0.5,0-0.4,0.2c0,0.1,0.1,0.2,0.1,0.2c0.1,0.2,0.4,0.2,0.4-0.1
			C30.6,56.6,30.5,56.5,30.4,56.3z"/>
		<path fill="#5E3824" d="M25.3,52c-0.2,0-0.4,0-0.5,0.1c0,0,0,0.1,0,0.1c0.1,0.2,0.3,0.2,0.5,0.1C25.5,52.3,25.5,52,25.3,52z"/>
		<path fill="#5E3824" d="M24.6,51c-0.1,0-0.4,0-0.4,0.2c0,0.2,0.3,0.1,0.4,0.1C24.8,51.3,24.8,51,24.6,51z"/>
		<path fill="#5E3824" d="M26.2,53c-0.1,0.1-0.1,0.1-0.1,0.2c0,0.1,0,0.2,0.1,0.2c0,0,0,0,0.1,0c0.1,0,0.1,0,0.2-0.1
			c0,0,0-0.1,0.1-0.1C26.7,53.1,26.4,52.8,26.2,53z"/>
		<path fill="#5E3824" d="M48.8,58.2c-0.2-0.2-0.5,0.2-0.2,0.4c0.1,0.1,0.2,0.3,0.3,0.3c0,0,0.1,0,0.1,0
			C49.2,58.6,49,58.3,48.8,58.2z"/>
		<path fill="#5E3824" d="M50.6,57.9c0-0.3-0.5-0.3-0.5,0c0,0.2,0,0.4,0.2,0.5c0.1,0.1,0.1,0.1,0.2,0.1
			C50.8,58.3,50.6,58.1,50.6,57.9z"/>
		<path fill="#5E3824" d="M50.1,58.8c-0.1-0.2-0.5-0.1-0.4,0.1c0.1,0.2,0.2,0.5,0.3,0.5c0.1,0,0.1,0,0.2-0.1
			C50.4,59.1,50.2,58.9,50.1,58.8z"/>
		<path fill="#5E3824" d="M52.3,57.8c-0.1-0.2-0.5,0-0.4,0.2c0.1,0.2,0.2,0.3,0.4,0.3c0.1,0,0.1-0.1,0.1-0.1
			C52.5,58,52.4,57.9,52.3,57.8z"/>
		<path fill="#5E3824" d="M54.9,57c-0.1-0.1-0.1-0.1-0.2-0.1c-0.3-0.1-0.4,0.4-0.1,0.4c0,0,0.1,0,0.1,0C54.9,57.3,55,57.1,54.9,57z"
			/>
		<path fill="#5E3824" d="M57.1,55.8c-0.2-0.2-0.4,0.1-0.3,0.3c0.1,0.1,0.2,0.1,0.3,0.1c0.1,0,0.1,0,0.1-0.1
			C57.2,55.9,57.1,55.9,57.1,55.8z"/>
		<path fill="#5E3824" d="M58.4,54.8c-0.2-0.1-0.4,0.2-0.2,0.3c0.1,0.1,0.2,0.2,0.4,0.2c0.1,0,0.1-0.1,0.1-0.1
			C58.7,55,58.6,54.9,58.4,54.8z"/>
		<path fill="#5E3824" d="M60.1,54.2c-0.1-0.1-0.3-0.1-0.5-0.2c-0.2-0.1-0.3,0.3-0.1,0.4c0.2,0.1,0.5,0.1,0.6,0
			C60.1,54.3,60.1,54.3,60.1,54.2z"/>
		<path fill="#5E3824" d="M61,52.9c-0.3-0.1-0.4,0.4-0.1,0.4c0.1,0,0.1,0,0.2,0c0.1,0,0.1,0,0.2-0.1C61.5,53.1,61.2,53,61,52.9z"/>
		<path fill="#5E3824" d="M62.7,52c-0.2-0.1-0.4-0.1-0.6-0.1c-0.3,0-0.3,0.4,0,0.4c0.2,0,0.3,0,0.5,0C62.7,52.3,62.9,52.1,62.7,52z"
			/>
		<path fill="#5E3824" d="M63.9,50.7c-0.1,0-0.3,0.1-0.4,0.1c-0.3,0.1-0.2,0.5,0.1,0.4c0.2,0,0.3-0.1,0.5-0.1
			C64.3,51,64.2,50.6,63.9,50.7z"/>
		<path fill="#5E3824" d="M62.9,45c-0.1,0-0.3,0-0.4,0.1c-0.3,0.1-0.2,0.5,0.1,0.4c0.1,0,0.2,0,0.3,0c0.1,0,0.2-0.1,0.2-0.2
			c0,0,0-0.1,0-0.1C63.1,45,63,44.9,62.9,45z"/>
		<path fill="#5E3824" d="M22.8,39.6c-0.2,0.1-0.5,0.2-0.6,0.4c0,0.1,0,0.2,0.1,0.2c0.2,0,0.4-0.2,0.5-0.2
			C23.1,39.9,23,39.6,22.8,39.6z"/>
		<path fill="#5E3824" d="M23,40.3c-0.2,0.2-0.4,0.5-0.3,0.8c0,0.1,0.1,0.1,0.2,0.1c0.2-0.1,0.3-0.4,0.5-0.6
			C23.4,40.4,23.2,40.1,23,40.3z"/>
		<path fill="#5E3824" d="M23.1,42C23.1,42.1,23.1,42.1,23.1,42c0.1,0.1,0.1,0.1,0.1,0.1c0,0,0,0,0-0.1C23.4,41.9,23,41.9,23.1,42z"
			/>
		<path fill="#5E3824" d="M22.3,42.3C22.3,42.3,22.3,42.3,22.3,42.3c-0.3,0-0.3,0.4-0.1,0.3c0,0,0,0,0.1,0
			C22.5,42.7,22.5,42.3,22.3,42.3z"/>
		<path fill="#5E3824" d="M25,40.9c0-0.2-0.3-0.2-0.3,0c0,0.2,0,0.3,0.1,0.4c0,0,0.1,0,0.1,0C25,41.2,25,41.1,25,40.9z"/>
	</g>
</g>
</svg>
