<?xml version="1.0" encoding="utf-8"?>
<!-- Generator: Adobe Illustrator 18.0.0, SVG Export Plug-In . SVG Version: 6.00 Build 0)  -->
<!DOCTYPE svg PUBLIC "-//W3C//DTD SVG 1.1//EN" "http://www.w3.org/Graphics/SVG/1.1/DTD/svg11.dtd">
<svg version="1.1" id="Layer_1" xmlns="http://www.w3.org/2000/svg" xmlns:xlink="http://www.w3.org/1999/xlink" x="0px" y="0px"
	 viewBox="0 0 82 82" enable-background="new 0 0 82 82" xml:space="preserve">
<g>
	<path fill="#EFDD3A" d="M60,25.5c0,0-0.6-3.4-6.6-2.6c-5.9,0.9-7.9,4.1-6.3,6.1c1.6,2,10.9,2.1,12.2-0.1C60.7,26.6,60,25.5,60,25.5
		z"/>
	<polygon fill="#9EC4D4" points="16.6,57.3 15.5,56.8 14.5,57.4 14.6,56.2 13.7,55.4 14.9,55.2 15.4,54 16,55.1 17.2,55.2 
		16.4,56.1 	"/>
	<polygon fill="#9EC4D4" points="14.5,52.5 13.8,52.1 13.1,52.5 13.2,51.7 12.6,51.2 13.4,51.1 13.7,50.3 14.1,51 14.9,51.1 
		14.3,51.7 	"/>
	<polygon fill="#9EC4D4" points="13.7,46.9 12.7,46.4 11.6,47 11.8,45.8 10.9,45 12.1,44.8 12.5,43.7 13.1,44.7 14.3,44.9 
		13.5,45.7 	"/>
	<polygon fill="#9EC4D4" points="9.2,54.6 8.5,54.3 7.8,54.7 7.9,54 7.3,53.6 8.1,53.5 8.4,52.9 8.8,53.4 9.5,53.5 9,54 	"/>
	<polygon fill="#9EC4D4" points="15.9,61.2 15.2,60.9 14.6,61.3 14.7,60.6 14.1,60.2 14.9,60 15.2,59.4 15.6,60 16.3,60.1 
		15.8,60.6 	"/>
	<polygon fill="#9EC4D4" points="34,54.7 32.9,54.2 31.9,54.8 32,53.6 31.1,52.8 32.3,52.6 32.8,51.5 33.4,52.5 34.6,52.7 
		33.8,53.6 	"/>
	<polygon fill="#9EC4D4" points="22.3,59.1 21.2,58.5 20.1,59.1 20.3,57.9 19.4,57.1 20.6,56.9 21.1,55.8 21.7,56.9 22.9,57 
		22,57.9 	"/>
	<g>
		<path fill="#48494A" d="M29.5,54.6c0,0,0.5-0.1,1,0.2c0.5,0.3,0.5,1.1,0.5,1.1l1.3-1.6c0,0-0.6,0.1-1-0.2
			c-0.4-0.3-0.5-0.7-0.5-0.7l0.1-0.2l-0.1,0l-1.4,1.5L29.5,54.6z"/>
		<path fill="#595A5C" d="M30.9,55.9l3.2,0.8c0,0,0.2-0.1,0-0.2c-0.2-0.1-1.6-2.4-1.6-2.4s-0.3,0-0.9,0.7
			C31.1,55.5,30.9,55.8,30.9,55.9z"/>
		<path fill="#9B9B9D" d="M31.7,54.9l2.3,1.7c0,0,0.3,0.1-0.4,0C33,56.4,31,55.7,31,55.7S31.3,55.2,31.7,54.9z"/>
		<polygon fill="#010101" points="32.4,54.3 34.2,56.5 32.1,54.5 		"/>
		<path fill="#FFFFFF" d="M31,55.7c0,0,0.6-0.2,1.2,0c0.7,0.2,1.8,0.9,1.8,0.9L31,55.7z"/>
		<path fill="#242425" d="M30.7,53.4c0,0,0,0.4,0.4,0.7c0.4,0.3,1.1,0.3,1.1,0.3s-0.4,0.4-0.7,0.6c-0.3,0.3-0.5,0.5-0.5,0.5
			s0-0.6,0.1-0.8c0.1-0.2-0.4-0.8-0.6-0.8c-0.2,0-0.6,0.3-0.6,0.3S30.3,53.7,30.7,53.4z"/>
	</g>
	<path fill="#F69321" d="M19.5,39.3c0,0-0.9,0.1-0.6,1.2c0.2,1.2,1.5,3.6,3.6,5.6c2,2,4.2,3.6,4.6,3.9c0.5,0.3,1,0.4,1,0.4
		s-0.6-2.3-3.8-6.5C21,39.8,20.4,38.8,19.5,39.3z"/>
	<path fill="#F06724" d="M28.5,50.8c-1.8-1.4-3.7-2.5-5.3-4.1c-1.7-1.7-2.7-3.7-4-5.8c-0.1-0.2-0.4-0.1-0.4,0.1
		c0.7,2.1,2.2,4.1,3.6,5.7c1.5,1.7,3.6,3.6,5.8,4.2C28.5,51.1,28.6,50.9,28.5,50.8z"/>
	<path fill="#0F1333" d="M19.9,36.6c0,0-1,0.1-1.1,1.3c-0.1,1.1,0.2,2.5,0.2,2.5s0.5-2.7,1.7-3c1.1-0.2,4.2,1.3,5.1,3.8
		c0.9,2.5,1.5,7.3,1.5,7.3s0.8,2.1,1.2,3.6c0.4,1.4,0.1,2.7-0.4,2.8c-0.5,0.1-0.8,0-0.8,0s1.6,1.4,3.1,1.1c1.5-0.3,2-1.6,2-3.9
		c0-2.4-1.7-6.4-3.1-8.8c-1.4-2.4-5.4-6.2-5.9-6.5c-0.5-0.3-0.7-0.3-0.7-0.3L19.9,36.6L19.9,36.6z"/>
	<radialGradient id="SVGID_1_" cx="69.7363" cy="33.6764" r="7.6451" gradientUnits="userSpaceOnUse">
		<stop  offset="0" style="stop-color:#F0E23C"/>
		<stop  offset="0.1348" style="stop-color:#F0DF3B"/>
		<stop  offset="0.2546" style="stop-color:#EFD839"/>
		<stop  offset="0.3687" style="stop-color:#EDCB35"/>
		<stop  offset="0.4794" style="stop-color:#EBBA30"/>
		<stop  offset="0.5875" style="stop-color:#E8A22A"/>
		<stop  offset="0.6924" style="stop-color:#E58725"/>
		<stop  offset="0.7124" style="stop-color:#E58225"/>
	</radialGradient>
	<path fill="url(#SVGID_1_)" d="M66,36.3c0,0-1.4,0-1.5,0.8c-0.1,0.8,0.4,1.3,1.2,1.4c0.7,0.1,1.2-0.3,1.2-0.3s0.8,1,1.7,1
		c0.9,0,2.1-0.6,2.4-1c0.3-0.4,0.4-0.7,0.4-0.7s0.3,0.4,0.7,0.3c0.4-0.1,1.1-1,1.1-1.5c0-0.5,0.1-0.7,0.1-0.7s0.8,0.4,1.1-0.2
		c0.3-0.6,1.7-3.6-0.3-5.8c-2.1-2.2-6.5-2.1-7.4,0c-0.9,2.1-0.4,1.9-0.6,2.2c-0.3,0.4-1.1,1.2-1,2.1c0.1,0.9,1,2,1,2L66,36.3z"/>
	<linearGradient id="SVGID_2_" gradientUnits="userSpaceOnUse" x1="27.437" y1="37.92" x2="49.4895" y2="37.92">
		<stop  offset="0" style="stop-color:#726659"/>
		<stop  offset="0.3152" style="stop-color:#FFFFFF"/>
		<stop  offset="0.6909" style="stop-color:#D0D2D3"/>
		<stop  offset="1" style="stop-color:#754D29"/>
	</linearGradient>
	<path fill="url(#SVGID_2_)" d="M27.4,34.5c0,0,0.5,2.4,1.2,3.2c0.7,0.8,1.8,0.3,1.8,0.3s0.3,1.1,1.6,1.3c1.2,0.2,3.1,1,4.8,1.4
		c1.7,0.4,4,0.8,6.2,0.7c2.1-0.2,4-0.4,4.7-0.9c0.7-0.5,1-1.1,1.2-1.5c0.2-0.5,0.6-1.5,0.6-1.5s-2.3,1.6-9,0.9
		c-6.7-0.7-12-3.4-12-3.4L27.4,34.5z"/>
	<linearGradient id="SVGID_3_" gradientUnits="userSpaceOnUse" x1="29.3957" y1="45.2058" x2="48.1768" y2="45.2058">
		<stop  offset="0" style="stop-color:#726659"/>
		<stop  offset="0.3152" style="stop-color:#FFFFFF"/>
		<stop  offset="0.6909" style="stop-color:#D0D2D3"/>
		<stop  offset="1" style="stop-color:#754D29"/>
	</linearGradient>
	<path fill="url(#SVGID_3_)" d="M29.6,42c0,0,3.7,2,5.8,3.1c2.1,1.1,6.1,1.9,8.1,1.6c2.1-0.3,3.3-1.3,3.8-2c0.5-0.7,0.7-1.1,0.7-0.8
		c0,0.3,0.2,1.1,0.2,1.1s-1.3,2.8-5.7,3.3c-4.5,0.5-8.5-2.3-10.3-3.5C30.3,43.6,28.9,41.9,29.6,42z"/>
	<path fill="#9F1D20" d="M29.9,42.1c0,0,6.3,4.1,10,4.5c3.7,0.4,6.1-0.4,6.6-0.9c0.5-0.5,0.2-0.9,0.2-0.9s-1.2-2.6-2.3-2.9
		c-1.1-0.3-3.2,0.1-3.6,0.4c-0.3,0.3-1.2,0-3-0.8c-1.8-0.7-5.8-1.7-7.1-0.9C29.5,41.3,29.9,42.1,29.9,42.1z"/>
	<path fill="#411411" d="M23.2,30.8c0,0,1.2,1.5,2.1,2c0.9,0.5,2.3,1.6,2.3,1.6s0,2.2,0.9,3.3c0.9,1,2,0.4,2,0.4s0.7,1.3,1.7,1.4
		c1,0.1,3,0.7,4.3,1.2c1.3,0.5,3.7,0.9,6.9,0.9c3.2,0,4.7-1.1,4.7-1.1s1-1.8,1.2-2.1c0.2-0.4,0.3-0.7,0.3-0.7l2-0.7
		c0,0-1.3,2.9-1.8,4.1c-0.5,1.2-1.6,4-1.6,4l-0.4-1.1l-1.1,1.1c0,0-0.2-2.5-3-3c-2.9-0.5-3.6,1.5-3.6,1.5s-3.1-2.5-5.8-3
		c-2.6-0.5-3.9,0.7-4,1c-0.1,0.4,0,0.7,0,0.7l-1-0.1c0,0-2.7-1.7-4.2-5.1C23.6,33.6,23.2,30.8,23.2,30.8z"/>
	<radialGradient id="SVGID_4_" cx="36.4937" cy="27.4135" r="30.5502" gradientUnits="userSpaceOnUse">
		<stop  offset="0" style="stop-color:#F0E23C"/>
		<stop  offset="0.1348" style="stop-color:#F0DF3B"/>
		<stop  offset="0.2546" style="stop-color:#EFD839"/>
		<stop  offset="0.3687" style="stop-color:#EDCB35"/>
		<stop  offset="0.4794" style="stop-color:#EBBA30"/>
		<stop  offset="0.5875" style="stop-color:#E8A22A"/>
		<stop  offset="0.6924" style="stop-color:#E58725"/>
		<stop  offset="0.7124" style="stop-color:#E58225"/>
		<stop  offset="0.7504" style="stop-color:#EA9123"/>
		<stop  offset="0.7955" style="stop-color:#EF9E20"/>
		<stop  offset="0.8431" style="stop-color:#F2A61E"/>
		<stop  offset="0.8971" style="stop-color:#F3A91D"/>
	</radialGradient>
	<path fill="url(#SVGID_4_)" d="M33,45.4c0,0,4.3,3.3,9.1,3c4.8-0.3,6.7-3.7,7.5-6.2c0.8-2.5,2.1-5.7,3.5-6.8
		c1.3-1.1,3.3-2.3,3.3-2.3l-0.6-1l5.1-1.4c0,0,0.8,4.6-1.5,9.6c-2.3,5.1-9.1,10.7-15.2,11.9C38.1,53.5,33,51.4,33,51.4
		s-0.2-3.1-0.7-4.6c-0.5-1.5-0.5-1.8-0.5-1.8S32.8,45.1,33,45.4z"/>
	<radialGradient id="SVGID_5_" cx="34.1558" cy="29.3065" r="17.6671" gradientUnits="userSpaceOnUse">
		<stop  offset="0" style="stop-color:#F0E23C"/>
		<stop  offset="0.1348" style="stop-color:#F0DF3B"/>
		<stop  offset="0.2546" style="stop-color:#EFD839"/>
		<stop  offset="0.3687" style="stop-color:#EDCB35"/>
		<stop  offset="0.4794" style="stop-color:#EBBA30"/>
		<stop  offset="0.5875" style="stop-color:#E8A22A"/>
		<stop  offset="0.6924" style="stop-color:#E58725"/>
		<stop  offset="0.7124" style="stop-color:#E58225"/>
		<stop  offset="0.7504" style="stop-color:#EA9123"/>
		<stop  offset="0.7955" style="stop-color:#EF9E20"/>
		<stop  offset="0.8431" style="stop-color:#F2A61E"/>
		<stop  offset="0.8971" style="stop-color:#F3A91D"/>
	</radialGradient>
	<path fill="url(#SVGID_5_)" d="M21.4,17.2c0,0-4.1,3-4.7,6C16,26.2,16,28.4,16,28.4s-2.6,0.1-3.4,3.4s0.1,4.4,0.1,4.4
		s-0.3,2,0.1,3.1c0.3,1.1,1.2,2.1,1.2,2.1s-0.3-1.3,0.1-2.3c0.4-1.1,0.6-1.6,0.6-1.6l2.6-1.6c0,0,0.4-1.7,1.2-0.8
		c0.8,0.9,1.3,1.6,3.3,1.6c1.9-0.1,2.2-0.9,2.1-1.9c-0.1-1.1-0.6-4-0.6-4s0.1-0.1,0.3,0.3c0.2,0.4,1.7,1.7,3.5,2.7
		c1.8,1,8.6,4.5,16.7,4.5c8.1,0,12.4-5.3,12.4-5.3l-0.2-0.7c0,0-17.6,1.2-24.3-3.2C24.7,24.5,21.4,17.2,21.4,17.2z"/>
	<radialGradient id="SVGID_6_" cx="39.308" cy="29.9677" r="7.9948" gradientUnits="userSpaceOnUse">
		<stop  offset="0" style="stop-color:#FFFFFF"/>
		<stop  offset="0.6763" style="stop-color:#F4E87E"/>
		<stop  offset="0.9719" style="stop-color:#F0E23C"/>
	</radialGradient>
	<path fill="url(#SVGID_6_)" d="M24.8,30.3c0,0,2,4.5,11,6.2c9,1.7,14.5-0.1,16.4-1.2c1.9-1.1,2.4-2.1,2.4-2.1s-5.6-0.2-7.4-0.7
		c-1.8-0.4-2.8-1.2-4.1-0.6c-1.2,0.5-5.3,1.8-9.8,1.2C28.8,32.4,24.8,30.3,24.8,30.3z"/>
	<path fill="#F69321" d="M23.3,29.2c0,0,0.4-0.2,1.4,1.4c1,1.6,6.1,3.6,10.6,3.9c4.5,0.3,7.7-1.3,8.3-2c0.6-0.8,1.1-0.7,2,0
		c0.9,0.7,3.8,1.2,6.3,1c2.4-0.2,3.3-0.3,3.3,0c0,0.2,1-0.9,1-0.9s1-0.7,2.6-0.2c1.6,0.6,1.9,1.6,1.5,2.6c-0.4,1.1-1.3,1.5-1.5,1.5
		c-0.2,0-0.4,0-0.4,0s0.3,0.8,1,0.8c0.8,0,1,0.2,1.5-1.2c0.5-1.4,0.5-3.4,0.2-4.3c-0.3-0.9-0.5-1.4-0.5-1.4s-5.9,1.8-10.2,0.5
		c-4.3-1.3-5.2-2.2-5.2-2.2s-6.1,3.4-10.9,3.3c-4.8-0.1-9.5-3-9.5-3s-2.6-2.8-3.4-4c-0.8-1.2-0.8-1.9-0.8-1.9s-0.2,3.6-2.4,3.6
		c-2.2,0-0.8-5.3-0.8-5.3s-1,2.2-1.4,4.2c-0.4,2-0.1,2.8-0.1,2.8s0.6-0.1,1.9,0.3c1.4,0.4,2.1,2.7,2.1,2.7l0.7,1.2
		c0,0-0.8-1.3,0-2.3C21.3,29.2,21.9,28.5,23.3,29.2z"/>
	<path fill="#F69321" d="M28.9,42.2c0,0,2,2.4,2.7,4.4c0.7,2,1.1,4.5,1.1,4.5s4,1.6,8.4,1.4c4.4-0.2,9.1-2,10.8-3.5
		c1.7-1.4,2.4-2.3,2.4-2.3s-1.2,0.8-2.4,0.8c-1.2,0-1-0.6-1-0.6s-3.5,3.6-7.4,4.2c-3.8,0.6-7.5-0.8-8.3-2.3
		c-0.8-1.5,4.4,0.8,7.9,0.3c3.5-0.4,5.7-1.9,5.8-3.4c0.1-1.4,0-2,0-2s-2.1,4.1-5.2,4.4c-3.1,0.4-4.6,0.1-7.9-1.2
		c-3.3-1.3-5.1-3-5.1-3L28.9,42.2z"/>
	<radialGradient id="SVGID_7_" cx="40.8167" cy="9.7437" r="10.2117" gradientUnits="userSpaceOnUse">
		<stop  offset="0" style="stop-color:#FFFFFF"/>
		<stop  offset="0.6763" style="stop-color:#F4E87E"/>
		<stop  offset="0.9719" style="stop-color:#F0E23C"/>
	</radialGradient>
	<path fill="url(#SVGID_7_)" d="M24.7,13.7c0,0,5.7-1.4,8.7,0.7c3,2.1,7.9,7.5,9.8,8.5c2,1,4.2-1,4.2-1s4.6-2,7.4-2
		c2.8,0.1,2.9,0.5,2.9,0.5s-3.8-5.3-8.9-6.9s-8.9-3.4-13.6-3.1c-4.8,0.2-8.5,1.7-8.5,1.7S25.4,12.6,24.7,13.7z"/>
	<path fill="#F69321" d="M56.6,23.6c0,0-4-0.2-6.3,1.3c-2.3,1.5-2.1,2.6-1.7,3c0.4,0.4,2,0.6,2,0.6s-1-0.2-1,0.7
		c0,0.9,4.8,1.5,6.5,0.2c1.8-1.3,0.1-1.3,0.1-1.3s2.1,0.1,2.6-1.4c0.5-1.5,0-2.3,0-2.3s1.9,1.6,1,3.5c-0.9,2-8.1,3.9-11.8,2.5
		c-3.7-1.5-2.6-4.9,0.1-6.3C51.1,22.8,55.3,22.8,56.6,23.6z"/>
	<path fill="#EFDD3A" d="M38.2,18.7c0,0-5.6-4.2-9.7-1.9c-4.1,2.3-3.5,9.6,0.6,13.6c4.1,4,10,2.8,12-0.7
		C43.1,26.2,39.5,20.1,38.2,18.7z"/>
	<path fill="#F69321" d="M36.7,18.5c0,0-7.2-3.9-8.5,2.6c-1.3,6.5,3.5,9.9,5.8,10.4c2.3,0.5,5-0.8,5.8-2.9c0.8-2.1,0.7-3.9,0.7-3.9
		s1.2,4.4-1.5,6.5c-2.7,2.2-7.6,2.1-12-2.9C22.6,23.4,25.9,11.2,36.7,18.5z"/>
	<radialGradient id="SVGID_8_" cx="35.5331" cy="25.7242" r="7.8326" gradientUnits="userSpaceOnUse">
		<stop  offset="0" style="stop-color:#FFFFFF"/>
		<stop  offset="0.2184" style="stop-color:#F7F7F6"/>
		<stop  offset="0.4861" style="stop-color:#E8E7E7"/>
		<stop  offset="0.7784" style="stop-color:#D0D1D2"/>
		<stop  offset="1" style="stop-color:#BBBDBF"/>
	</radialGradient>
	<path fill="url(#SVGID_8_)" d="M36.3,20.4c0,0,2.2,0.9,2.7,5.4c0.4,4.5-3.4,6.5-5.7,5.5c-2.3-1-4.9-2.5-3.7-7.7
		C30.8,18.3,33.8,18.8,36.3,20.4z"/>
	<path fill="#010101" d="M22.2,16.7l3.3,4.2c0,0-0.5,4.8,1.7,7.8c2.2,3,5.8,3.8,8.5,3.8c2.7,0,4.5-1.9,5.1-3.6c0.6-1.7,0-5,0-5
		l6.2,1.6c0,0-1.8,2-0.5,3.6c1.3,1.6,5,2.9,9.9,1.3c4.9-1.6,3.6-4.8,2.8-5.7c-0.8-0.9-4.4-2.3-7.6-1.2c-3.2,1.1-4.1,1.7-4.1,1.7
		l-0.3-0.9c0,0,3.3-3.7,8.1-3.3c4.8,0.4,6.4,4,6.6,6.2c0.1,2.2,0.3,3.7-5.5,4.4c-5.8,0.7-7.3,0.8-8.3,0.4c-1-0.4-2.6-1.4-4.6-1
		c-2,0.4-6.4,2.3-9.2,2.3c-4.9,0-6.8-1.8-8.3-2.8c-1.6-1-2.1-1.5-3.4-3.5c-1.2-2-1.6-4.3-1.6-6c0-1.7,0.6-3,0.6-3l0.7-0.9L22.2,16.7
		z"/>
	<path fill="#F06724" d="M45.3,16.3C45.3,16.3,45.3,16.3,45.3,16.3c0.9,0.3,0,2.9-0.1,3.5c-0.4,1.3-1.6,2.3-2.9,2.2
		c-0.2,0-0.3,0.2-0.2,0.3c1.2,1.7,3.4-1,3.7-2.2C46,19.5,46.6,16.1,45.3,16.3z"/>
	<path fill="#F06724" d="M42.8,19.4C42.8,19.3,42.7,19.4,42.8,19.4c0,0.5-0.1,0.9-0.4,1.3c-0.3,0.3-0.7,0.4-1.1,0.4
		c-0.1,0-0.2,0.2-0.1,0.2c0.5,0.3,1.1,0,1.5-0.4C43,20.5,43.1,19.9,42.8,19.4z"/>
	<path fill="#F06724" d="M57.8,19.9c-1.5-2.6-4.6-4.3-7.1-5.7c-3.1-1.8-6.5-3-10-3.7c-3.3-0.6-6.7-0.6-10,0
		c-2.1,0.4-5.5,1.3-6.4,3.4c-0.1,0.2,0.3,0.4,0.4,0.2c1.2-2.2,5.2-2.8,7.4-3.1c3.2-0.4,6.5-0.2,9.6,0.5c5.8,1.3,11.4,4.5,15.7,8.6
		C57.7,20.2,57.9,20.1,57.8,19.9z"/>
	<path fill="#F06724" d="M50,42.9C50,42.9,49.9,43,50,43c1.5,1.4,0.5,3.9-0.6,5.2c-1.2,1.3-3,2-4.7,2.5c-2.1,0.6-4.3,0.7-6.4,0.3
		c-2.1-0.5-3.7-1.7-5.2-3.2c-0.2-0.2-0.4,0-0.4,0.2c0.5,2,3.7,3.2,5.4,3.7c2.5,0.7,5.4,0.3,7.8-0.6c2-0.7,4-1.9,4.9-3.9
		C51.5,45.9,51.5,43.8,50,42.9z"/>
	<path fill="#010101" d="M58.2,26.5c-0.2,0.6-0.8,0.8-1.4,0.8c-0.2,0-0.3,0-0.5-0.1c0-0.1,0-0.2,0-0.3c0.3,0,0.5-0.1,0.7-0.1
		c0.7-0.2,1.4-0.9,0.8-1.6c-0.1-0.1-0.2,0-0.2,0.1c0.2,0.6-0.4,0.8-0.9,0.9c-0.3,0-0.5,0-0.8,0c0-0.1-0.1-0.1-0.1-0.1
		c0.2-0.1,0.4-0.3,0.5-0.6c0.1-0.3-0.1-0.5-0.2-0.7c-0.1-0.1-0.2,0-0.1,0.1c0.2,0.4-0.3,0.6-0.6,0.7c0,0,0,0,0,0
		c-0.2-0.2-0.5-0.3-0.8-0.4c0-0.1-0.1-0.1-0.2-0.1c-0.4-0.2-0.8-0.3-1.2-0.3c-1.9-0.2-3.9,0.5-5,2.1c-0.1,0.1-0.1,0.3,0,0.4
		c0,0.2,0,0.4,0.1,0.6c0.1,0.2,0.4,0.2,0.6,0.1c0.4-0.2,0.6-0.7,1.1-1c0.7-0.4,1.6-0.5,2.4-0.6c1.2-0.1,2.2,0.1,3,0.8
		c0.1,0.2,0.3,0.3,0.5,0.4c0,0,0.1,0.1,0.1,0.1c0.1,0.1,0.2,0.1,0.3,0c0.3,0.1,0.6,0.1,0.7,0.1c0.7-0.1,1.4-0.5,1.5-1.2
		C58.4,26.4,58.2,26.3,58.2,26.5z"/>
	<path fill="#010101" d="M14.7,12c-1.2,0.4-1.1,1.6-0.4,2.5c0.4,0.5,0.9,0.9,1.4,1.2c-0.1,0-0.1,0-0.2,0c-1.6-0.2-3.1,0.3-4.5,1
		c-0.9,0.4-2,0.8-2.1,1.9c0,0.1,0.1,0.1,0.1,0c0.3-1,1.3-1.4,2.1-1.8c1.3-0.6,2.5-0.9,4-1c0.3,0,0.6,0,1,0.1c0.6,0.4,1.3,0.8,2,1.2
		c-1.3,0-2.8,0.3-3.6,0.5c-2.5,0.6-4.9,2-6.1,4.3c-2.4,4.3,3.2,9,7,5.9c0,0,0,0,0,0c-1.9,1.5-4.2,1.2-5.9-0.5
		c-1.7-1.6-1.6-4-0.4-5.9c1.1-1.7,3-2.7,4.8-3.3c0.9-0.3,3.2-0.9,4.8-0.7c0.3,0.1,0.6,0.3,0.9,0.4c-0.7-0.1-1.7,0.3-2.1,0.4
		c-1.3,0.4-2.9,1.2-3.6,2.3c-0.7,1.1,0.4,1.6,1.3,1.5c2-0.3,3.6-2.1,4.4-3.8c0-0.1-0.1-0.2-0.1-0.1c-0.9,1.3-1.9,2.5-3.3,3.2
		c-0.5,0.2-1,0.4-1.5,0.4c-1,0.1-0.6-0.8-0.5-1.1c0.1-0.2,0.3-0.4,0.5-0.5c1-0.9,3.6-2.4,5.1-2c0,0.1,0.1,0.2,0.1,0.4c0,0,0,0,0.1,0
		c0-0.1,0-0.2,0.1-0.3c0.1,0,0.1,0.1,0.2,0.1c0,0,0.1,0,0.1-0.1c-0.1-0.1-0.2-0.2-0.3-0.2c0,0,0-0.1,0-0.1c0.1,0.1,0.2,0.2,0.3,0.3
		c0,0,0.1,0,0.1,0c-0.1-0.2-0.3-0.4-0.5-0.6c-0.4-0.8-1.8-1.3-2.9-1.6c-0.6-0.4-1.2-0.8-1.7-1.3c-0.3-0.2-0.5-0.5-0.7-0.8
		c-0.9-1.3,0.7-1.6,1.3-1.7c3-0.3,4.9,2.4,5.4,5c0,0.2,0.3,0.1,0.3,0C21.3,13.9,18.2,10.7,14.7,12z M19.2,17.3c0,0-0.1,0-0.1,0
		c-0.5-0.3-1-0.6-1.5-0.9C18.2,16.6,18.8,16.9,19.2,17.3z"/>
	<path fill="#010101" d="M39.1,20.1c-1.8-2.5-4.6-4-7.4-4c-3.2,0.1-4.6,1.2-4.9,1.6c-1,1.2-1.5,2.5-1.6,4.2
		c-0.1,2.3,0.8,5.5,2.1,7.2c2.5,3.3,7.7,5.1,11.6,2.5C42.8,29.1,41.4,23.2,39.1,20.1z M38.1,31.5c-3.8,2.3-8.7-0.3-10.8-3.4
		c-1.1-1.6-1.5-3.7-1.5-5.7c0-1.5,0.5-3.5,1.8-4.5c1.5-1.3,3.7-1.3,5.7-0.9c2.3,0.4,4.2,1.9,5.5,3.8C40.9,23.9,41.9,29.2,38.1,31.5z
		"/>
	<path fill="#010101" d="M59,24.1c-2.7-2-7.5-1.3-10.2,0.2c-1.4,0.8-3,2.1-2.8,3.9c0.2,1.2,1.2,1.9,2.2,2.4c2.8,1.2,6.6,0.9,9.3-0.3
		c1.1-0.5,2.2-1.2,2.7-2.3C60.9,26.1,60.4,25.1,59,24.1z M59.3,28.3c-0.7,0.9-1.8,1.3-2.8,1.7c-2.3,0.8-5.1,1-7.5,0.3
		c-1-0.3-2-0.9-2.4-1.9c-0.6-1.8,1.5-3.2,2.8-3.9c2.8-1.5,7.4-2.1,9.7,0.6c0,0,0,0,0.1,0C59.8,26,60.1,27.2,59.3,28.3z"/>
	<path fill="#771213" d="M43.3,41.5c-1.1-0.1-3.5,0.3-3.5,1.7c-1.4-0.9-2.8-2-3.4-2.3c-1.5-0.7-3.3-1.1-4.9-0.6
		c-1.2,0.4-2,1.3-1.1,2.3c0,0,0.1,0.2,0.1,0.1c-0.7-1.4,0.7-1.8,1.4-2c0.6-0.2,1.3-0.1,2,0c0.8,0.1,1.6,0.4,2.3,0.7
		c0.9,0.4,1.8,1.1,2.6,1.7c0.2,0.1,0.6,0.4,1.1,0.7c0,0.1,0.1,0.1,0.1,0.2c0.1,0.1,0.2,0.1,0.2,0c1.1,0.5,2.4,0.9,2.7-0.2
		c0,0,0-0.1-0.1,0c-0.4,0.7-1.5,0.4-2.6-0.3c0.2-1.4,1.8-1.6,3.1-1.4c2,0.3,2.9,1.6,3,3.6c0,0.1,0.1-0.1,0.2-0.2
		C47.7,43.3,45.3,41.7,43.3,41.5z"/>
	<path fill="#F06724" d="M73.6,29c-2.7-2-8.4-1.4-7.8,2.8c-0.7,0.3-1.2,1.2-1.3,1.9c0,0.5,0.1,1,0.3,1.4c0.2,0.3,0.6,0.7,0.6,1.1
		c-0.6-0.1-1.1,0.3-1.2,0.9c-0.1,0.8,0.8,1.4,1.5,1.4c0.3,0,0.7,0,0.9-0.2c0.1,0.3,0.4,0.6,0.7,0.8c0.7,0.3,1.5,0.3,2.2,0.1
		c0.9-0.2,1.5-0.8,1.8-1.5c0.3,0.4,0.8,0.4,1.2,0c0.4-0.5,0.7-1.3,0.8-1.9c1.4,0.5,1.8-1.6,1.8-2.5C75.3,31.8,75,30,73.6,29z
		 M73.4,35.8c-0.1-0.3-0.5-0.2-0.5,0.1c0,0.5-0.2,1-0.4,1.4c-0.1,0.2-0.3,0.4-0.5,0.5c-0.2,0.1-0.4,0-0.5-0.1
		c0.3-0.9,0.2-1.9-0.6-2.6c-0.1-0.1-0.1,0-0.1,0.1c1.1,1.4,0.3,3.3-1.3,3.7c-0.5,0.1-1,0.1-1.5,0c-0.6-0.1-0.7-0.4-0.8-0.8
		c0.6-0.5,1-1.5,1.1-2.3c0.1,0.2,0.2,0.4,0.2,0.6c0,0.2-0.1,0.4,0.1,0.6c0.1,0.1,0.3,0.1,0.5,0c0.3-0.3,0.1-0.8-0.1-1.1
		c-0.1-0.3-0.4-0.5-0.7-0.6c0-0.2-0.1-0.4-0.2-0.6c0-0.3,0-0.6,0-0.9c0-0.1-0.1-0.1-0.1,0c0,0.1-0.1,0.3-0.1,0.5
		c-0.2-0.2-0.4-0.4-0.8-0.6c-0.2-0.1-0.3,0.2-0.2,0.3c0.5,0.6,0.8,1.2,0.8,2c0,0.6-0.3,1.2-0.7,1.6c-0.1,0-0.1,0-0.2,0.1
		c0,0,0,0.1,0,0.1c-0.1,0.1-0.1,0.1-0.2,0.1c-0.6,0.4-1.6,0.3-1.8-0.5c-0.2-0.5,0.1-0.8,0.5-0.9c0,0.1,0,0.1,0.1,0.1
		c0.9,0.3,0.9-0.5,0.7-1.1c-0.3-0.6-0.7-0.9-0.8-1.6c-0.1-1.1,0.7-1.7,1.5-2.3c0,0,0-0.1,0-0.1c-0.1,0-0.3,0-0.4,0
		c-0.2-3.7,4.6-4,6.9-2.4c1.2,0.8,1.4,2.1,1.6,3.3c0.1,0.6,0,1.2-0.1,1.7C74.5,35.1,74,35.4,73.4,35.8z"/>
	<path fill="#F06724" d="M73.6,32.2C73.5,32.2,73.5,32.2,73.6,32.2c0.1,0.5-0.1,0.9-0.3,1.3c0,0.1,0.1,0.2,0.2,0.2
		C74.2,33.5,74.1,32.5,73.6,32.2z"/>
	<path fill="#F06724" d="M71.6,33.1c-0.1-0.1-0.2,0-0.2,0.1c0.1,0.3-0.1,0.4-0.3,0.6c-0.1,0.1,0,0.2,0.1,0.2
		C71.7,34,71.9,33.5,71.6,33.1z"/>
	<path fill="#505D50" d="M68.3,36.3c-1.3-0.2-2.4,1-3.3,1.9c-1.5,1.4-2.7,3.1-4,4.7c-2.7,3.5-5,7.4-7.9,10.8c-2.7,3.2-5.8,6-9.5,8
		c-3.6,1.9-8.7,2.7-11.2-1.3c-0.2-0.3-0.6,0-0.5,0.3c4.1,7.7,13.3,2.8,17.6-1.2c3.3-3,6.7-7.8,9.2-11.5c1.4-2,2.8-4.2,4.3-6.1
		c0.7-0.9,1.4-1.9,2.2-2.7c0.7-0.7,1.8-2.2,2.9-2.2C68.6,36.9,68.7,36.4,68.3,36.3z"/>
	<path fill="#505D50" d="M70.5,53.4c-0.2-2.7,0.4-5.6-0.1-8.3c0-0.1,0-0.1-0.1-0.1c0.1-0.3,0.1-0.5,0.2-0.8c0.6-2,0.7-3.8,0.6-5.9
		c0-0.2-0.3-0.3-0.4,0c-0.2,1.1-0.3,2.3-0.4,3.4c0,0.2-0.1,0.3-0.1,0.5c-0.5,1.5-1.2,2.9-1.8,4.4c-1,2.4-1.6,5.2-2,7.8
		c-0.3,1.7-1.3,7,1.6,7.2c0.3,0.1,0.5,0.2,0.9,0.2c1.9,0,1.7-4.1,1.7-5.3C70.6,55.5,70.5,54.5,70.5,53.4z M69.7,58.1
		c0,0.7-0.1,2.2-0.7,2.8c0,0-0.1,0-0.1,0.1c-0.1-0.1-0.2-0.2-0.3-0.2c-0.1,0-0.2,0-0.2,0c-0.5-0.8-0.6-2.7-0.6-3.1
		c0-2.3,0.5-4.6,1-6.8c0.3-1.1,0.6-2.2,0.9-3.3c0,1.3,0,2.7,0,4c0,1.2,0.1,2.4,0.1,3.5C69.8,56.1,69.8,57.1,69.7,58.1z"/>
	<path fill="#F06724" d="M23,34.6c-0.1-0.1-0.3-0.1-0.5,0c-1.3,1.2-2.1-3.1-2.3-3.9c-0.5-1.7-2.5-3.3-4.2-2.6
		c-1.2-0.5-2.4,0.9-3,1.8c-1.3,1.8-1.5,4.6-0.8,6.7c0,0.1,0.1,0.2,0.2,0.2c-0.2,0.6-0.2,1.2-0.3,1.8c0,0.8,0.3,3.4,1.7,2.8
		c0.2-0.1,0.2-0.3,0.1-0.4c-1-0.7-1.1-1.4-1.1-2.6c0-1.4,0.6-2.6,1.6-3.6c0.1-0.1,0-0.3-0.1-0.2c-0.7,0.2-1.2,0.8-1.5,1.4
		c-0.4-1.7-0.3-3.5,0.5-5c0.4-0.8,1.2-1.9,2.1-2.2c0,0.1,0.1,0.2,0.2,0.1c3.5-1,3.8,2.6,4.7,4.9c0.4,1.1,1.2,2.2,2.2,1.7
		c0.4,0.3,0.4,1.1-0.2,1c-0.4,0.3-0.9,0.3-1.4,0.2c-0.5-0.1-0.9-0.5-1.2-0.8c-0.4-0.4-0.8-1.2-1.3-1.6c-0.7-0.4-1.4,0.7-1.5,1.3
		c0,0.3,0.4,0.5,0.5,0.1c0.1-0.5,0.4-0.7,0.9-0.7c0.1,0.2,0.3,0.3,0.4,0.5c0.4,0.4,0.7,0.8,1.2,1.2c0.6,0.5,1.3,0.6,2,0.5
		C23.3,37,23.9,35.7,23,34.6z"/>
	<path fill="#151743" d="M33.6,14.3c-1.7-1.8-5-1.8-7.2-1.2c-1.5,0.4-4.8,1.9-4.6,3.9c0,0.1,0.2,0.2,0.3,0.1c0.6-0.7,1-1.3,1.7-1.9
		c0.8-0.6,1.9-1.1,2.9-1.4c1-0.3,2.1-0.3,3.2-0.2c1.3,0.1,2.4,0.8,3.6,1C33.6,14.6,33.7,14.4,33.6,14.3z"/>
	<path fill="#F06724" d="M57.2,28.3c-0.8-0.3-2-0.6-2.8-0.2c-0.1,0.1-0.1,0.3,0,0.3c0.4,0.2,0.8,0.2,1.2,0.2c0.5,0,1,0,1.5,0
		C57.2,28.6,57.3,28.3,57.2,28.3z"/>
	<path fill="#F06724" d="M50.9,28.5c-0.8-0.2-1.6,0-2.4-0.4c-0.4-0.2-0.9-0.9-1.4-0.7c-0.1,0.1-0.1,0.2,0,0.3
		c0.2,0.1,0.5,0.6,0.6,0.7c0.3,0.3,0.7,0.5,1.1,0.6c0.7,0.2,1.6,0.3,2.2-0.2C51.1,28.8,51.1,28.6,50.9,28.5z"/>
	<path fill="#F06724" d="M37.5,20.7c-0.8-0.9-1.8-1.3-2.8-1.4c-0.4-0.1-0.8-0.2-1.3-0.2c-1.7,0-3,1.3-3.7,2.6
		c-1.9,3.5-0.6,7.9,2.8,9.8c1.7,0.9,3.5,0.5,4.9-0.6c1.4-1.2,2-3.1,2-4.9C39.5,24,38.8,22.1,37.5,20.7z M32.9,30.8
		c-2.9-1.4-3.9-4.9-3-7.8c0.4-1.3,1.4-2.7,2.8-3.1c1.4-0.5,3.1,0.3,4.3,1.4c0.8,0.9,1.4,2.2,1.6,3.7C38.9,28.1,36.6,32.6,32.9,30.8z
		"/>
	<path fill="#F06724" d="M44.4,31.4c0-0.2-0.3-0.2-0.3,0C44,32.8,44,34.6,43,35.6c-0.3,0.3,0.2,0.7,0.4,0.4
		C44.6,34.8,44.6,33,44.4,31.4z"/>
	<path fill="#F06724" d="M58.7,31.2c-0.1,0-0.1,0.2,0,0.2c1.2,0.3,1.7,1.4,1.7,2.5c0.1,1.4-0.8,2.3-2.1,2.5c-0.1,0-0.2,0.2-0.1,0.3
		c1.1,1.1,2.8-1.1,2.9-2.1C61.2,33.2,60.5,30.8,58.7,31.2z"/>
	<g>
		
			<ellipse transform="matrix(0.9991 4.355333e-002 -4.355333e-002 0.9991 1.1559 -1.4639)" fill-rule="evenodd" clip-rule="evenodd" fill="#595A5C" cx="34.2" cy="25.8" rx="2.5" ry="3.3"/>
		
			<radialGradient id="SVGID_9_" cx="42.6524" cy="20.0604" r="2.6346" gradientTransform="matrix(0.999 4.370000e-002 -4.370000e-002 0.999 -7.5867 3.9173)" gradientUnits="userSpaceOnUse">
			<stop  offset="0" style="stop-color:#A6A7AA"/>
			<stop  offset="1" style="stop-color:#6E6F71"/>
		</radialGradient>
		<path fill-rule="evenodd" clip-rule="evenodd" fill="url(#SVGID_9_)" d="M36.3,25.9c-0.1,1.7-1.1,3-2.3,2.9
			c-1.2-0.1-2.1-1.4-2-3.1c0.1-1.7,1.1-3,2.3-2.9C35.5,22.9,36.4,24.2,36.3,25.9z"/>
		
			<linearGradient id="SVGID_10_" gradientUnits="userSpaceOnUse" x1="41.2507" y1="19.3087" x2="44.8302" y2="19.3087" gradientTransform="matrix(0.999 4.370000e-002 -4.370000e-002 0.999 -7.5867 3.9173)">
			<stop  offset="0" style="stop-color:#D0D2D3"/>
			<stop  offset="1" style="stop-color:#6E6F71"/>
		</linearGradient>
		<path fill-rule="evenodd" clip-rule="evenodd" fill="url(#SVGID_10_)" d="M32.9,23.3c-0.2,0.9-0.3,2.3,0.8,3.3
			c1,0.9,1.7,0.8,2.2,0.6c0.2-0.4,0.3-0.9,0.3-1.4c0.1-1.7-0.8-3.1-2-3.1C33.8,22.8,33.3,23,32.9,23.3z"/>
		
			<ellipse transform="matrix(0.999 4.370125e-002 -4.370125e-002 0.999 1.154 -1.4653)" fill-rule="evenodd" clip-rule="evenodd" fill="#010101" cx="34.1" cy="25.7" rx="1.4" ry="2"/>
		
			<ellipse transform="matrix(0.999 4.400798e-002 -4.400798e-002 0.999 1.0864 -1.5083)" fill-rule="evenodd" clip-rule="evenodd" fill="#FFFFFF" cx="34.8" cy="23.9" rx="0.5" ry="0.7"/>
		
			<ellipse transform="matrix(0.999 4.438566e-002 -4.438566e-002 0.999 1.229 -1.4362)" fill-rule="evenodd" clip-rule="evenodd" fill="#FFFFFF" cx="33" cy="27" rx="0.2" ry="0.3"/>
	</g>
	<path fill="#F06724" d="M60.8,30.4c-0.1-0.2-0.3,0-0.3,0.1c1.3,2.8,0.2,6.7-1,9.4c-1.4,3.1-3.7,5.7-6.3,7.9
		c-2.6,2.2-5.8,3.7-9.1,4.3c-4,0.8-7.7-0.3-11.6-1c-0.3-0.1-0.4,0.3-0.1,0.4c3.6,1.3,7.7,1.9,11.5,1.3c3.6-0.6,7-2.3,9.8-4.6
		c2.9-2.3,5.3-5.4,6.7-8.9c0.6-1.5,0.9-3.1,1.1-4.6C61.6,33.2,61.7,31.6,60.8,30.4z"/>
	<path fill="#F06724" d="M21.9,16.4c-2.1,0.8-3.6,2.8-4.7,4.7c-1.3,2.2-1.5,4.6-1.5,7.1c0,0.4,0.6,0.4,0.6,0c0-2.5,0.2-4.7,1.4-6.9
		c0.6-1,1.4-2,2.2-2.9c0.6-0.7,1.6-1.2,2.1-1.9C22.1,16.5,22,16.4,21.9,16.4z"/>
	<path fill="#FFFFFF" d="M49.6,37.5c0-0.1-0.2-0.1-0.3,0c-0.2,1-0.9,1.7-1.3,2.6c-0.1,0.1-0.2,0.1-0.3,0.2c-0.9,0.9-2.5,0.8-3.7,0.9
		c-1.8,0.2-3.6,0.2-5.3-0.1c-1.6-0.2-3-0.8-4.4-1.4c-1.2-0.5-3.2-0.2-3.6-1.7c-0.1-0.3-0.5-0.2-0.5,0.1c0,0.4-1,0-1.2-0.2
		c-0.4-0.3-0.6-0.8-0.8-1.2c-0.3-0.7-0.4-1.4-0.6-2c0-0.1-0.2-0.1-0.2,0c-0.2,1.7,0.9,4.2,2.8,3.8c0.4,0.9,1.3,1.3,2.2,1.5
		c2,0.4,3.7,1.3,5.6,1.7c2.1,0.4,4.3,0.4,6.4,0.2c1.2-0.1,2.5-0.2,3.4-0.9c0.2,0.1,0.5-0.4,0.6-0.6C48.9,39.2,49.4,38.5,49.6,37.5z"
		/>
	<path fill="#FFFFFF" d="M48.3,44.3c0-0.2-0.1-0.4-0.2-0.6c-0.1-0.3-0.3-0.3-0.3-0.2c-0.5,0.2-0.8,1-1.1,1.4
		c-1.5,1.8-4.2,1.8-6.3,1.5c-2.1-0.3-4.1-1.2-6-2.1c-1.6-0.8-3-1.9-4.8-2.4c-0.2-0.1-0.5,0.2-0.3,0.5c0,0.1,0.1,0.1,0.1,0.2
		c0.1,0.2,0.3,0.2,0.4,0.1c1.8,0.6,3.4,1.8,5.1,2.6c1.8,0.9,3.8,1.6,5.9,1.9c1.7,0.2,3.3,0.1,4.8-0.6c0.6-0.3,1.2-0.8,1.6-1.3
		c0.1-0.1,0.5-0.7,0.6-1.1c0,0.1,0,0.2,0,0.3c0.1,0.3,0.1,0.4,0.1,0.6c0,0.1-0.1,0.1,0,0.1C48.4,45.1,48.3,44.6,48.3,44.3z"/>
	<path fill="#151743" d="M38.7,32.4c0,0,4-2,5.8-1.9c1.8,0.1,2.5,0.6,3.1,1.1c0.6,0.5,2.6,0.6,3.3,0.5c0.7,0,1.2,0,1.2,0
		s-3-0.4-3.7-0.7c-0.7-0.3-1.9-1.4-2.9-1.8c-1-0.4-1.4,0.1-3.1,0.8C40.6,31.2,38.7,32.4,38.7,32.4z"/>
	<path fill="#151743" d="M23.2,15.8c0,0-1.7,1.6-2.2,4.1c-0.5,2.5-0.1,3.7-0.1,3.7s-1.6-4.2,1.6-8.4c0,0,1.6-1.4,2-1.2
		c0.5,0.2,0.4,0.4,0.4,0.4S23.7,15.3,23.2,15.8z"/>
	<path fill="#010101" d="M70.4,45.1l-0.8,2.5c0,0,0,8.3,0,10c0,1.7-0.4,2.7-0.9,2.8c-0.4,0.1-0.8-0.5-0.8-0.5s0.4,1.4,1.3,1.4
		c0.9,0,1.2-2.4,1.2-4.5c0-2.1-0.3-4.9-0.3-4.9S70.9,47.2,70.4,45.1z"/>
	<ellipse fill="#010101" cx="69.8" cy="44.7" rx="0.2" ry="0.5"/>
	<path fill="#768476" d="M69.7,46.5c0,0-1.8,6.1-2.1,9.2c-0.3,3.1,0,4,0.4,4.8c0.4,0.8,0.7,1,0.7,1s-0.8-0.5-1.1-1.1
		c-0.3-0.6-0.4-1-0.4-1l-0.9-0.1c0,0-0.4-1.4,0.3-5.1c0.6-3.7,0.9-4.6,0.9-4.6l-0.7,3.6l0.8,0C67.7,53.2,68.6,49.3,69.7,46.5z"/>
	<path fill="#768476" d="M67.5,49.7c0,0,0.4,0.5,0.7,0.2c0.3-0.3,0.3,0.1,0.4,0c0.1-0.1,0.3-0.6,0.3-0.6l-0.4,1.4
		c0,0-0.5-0.1-0.8-0.1c-0.3,0-0.4,0-0.4,0L67.5,49.7z"/>
	<path fill="#C8CEC8" d="M67.3,50.5c0,0-0.5,2.3-0.6,3.2c-0.2,0.9-0.2,1.3-0.2,1.3s0.3-1.3,0.4-1.5c0.1-0.2,0.1-0.2,0.1-0.2l0.7,0.1
		l0.8-3.1l-0.1,0.2C68.3,50.6,67.7,50.3,67.3,50.5z"/>
	<path fill="#FFFFFF" d="M68.6,50.1c0,0-0.6,2.6-1,4.9c-0.4,2.3-0.3,4.3,0.1,5.3c0.4,1,0.9,1.3,1.3,1.3c0,0,0,0,0.1,0
		c0.4,0-1,0.5-1.5-1.2c-0.5-1.7-0.5-2.8-0.1-5.7C67.9,52,68.6,50.1,68.6,50.1z"/>
	<path fill="#768476" d="M34.2,62.3c0,0,1.8,1.5,5.1,1.1c3.4-0.4,6.8-2.5,9.7-5.1c2.9-2.6,4-4.1,4-4.1l2.7-3.4l2.2-3.1l1.9-3l-1,1.8
		l0.4,0.3c0,0-4.5,7-8.6,11.2c-4.1,4.2-7.9,6.3-11.9,6.4l-0.1-0.7C38.7,63.6,35.3,64,34.2,62.3z"/>
	<path fill="#C8CEC8" d="M36,63.2c0,0,2,0.9,5.9-0.6c4.5-1.7,7.7-4.8,9.4-6.6c1.7-1.8,3.2-3.7,3.2-3.7s-3.8,5.6-8.5,8.4
		C41.4,63.4,38.4,64.2,36,63.2z"/>
	<path fill="#C8CEC8" d="M47.6,59.6c0,0,0,1-0.5,1.4c-0.5,0.5-1.1-0.6-1.1-0.6L47.6,59.6z"/>
	<path fill="#C8CEC8" d="M45.7,60.8c0,0,0.1,1.4-0.3,1.4c-0.4,0-0.4-0.9-0.4-0.9L45.7,60.8z"/>
	<path fill="#C8CEC8" d="M51.4,56c0,0,0,1.2,0.8,0.4c0.8-0.9,0.7-2,0.7-2L51.2,56L51.4,56z"/>
	<path fill="#F0E23C" d="M21.1,17.5c0,0-2.8,1.7-4.1,5.1c-1.3,3.3-0.7,5.7-0.7,5.7s0.1-5,2.2-7.5C20.6,18.2,21.1,17.5,21.1,17.5z"/>
	<path fill="#F0E23C" d="M58.7,31.4c0,0,1.5-0.5,2.1,2c0.4,2.1-1.6,3.1-2.1,3.1c-0.4,0-0.4,0-0.4,0s1.4-0.5,1.7-1.3
		c0.3-0.8-0.4-1.8-0.4-1.8s-0.6,0.2-1.3-0.5C57.5,32.4,57.7,31.6,58.7,31.4z"/>
	<path fill="#F0E23C" d="M50,43c0,0,1.6,0.8,0.6,3.4c-0.9,2.5-3.1,3.8-6,4.5c-2.9,0.7-6.6,0.6-9.1-1c-2.5-1.6-2.6-2.3-2.6-2.3
		s2.9,3.3,7.8,3.4c5,0.1,8-2.2,8.9-3.7C50.6,45.8,51,44.1,50,43z"/>
	<ellipse fill="#FFFFFF" cx="59" cy="32.1" rx="0.5" ry="0.3"/>
	<path fill="#010101" d="M61.8,25.8c-0.4-1.5-1.1-2.9-2.2-4c-0.1-0.1-0.2,0-0.1,0.1c0.8,1.2,1.3,2.4,1.7,3.7
		c0.4,1.3,0.3,2.5,0.3,3.8c0,0,0,0-0.1,0.1c-1.1,1.7-3.7,1.7-5.6,2.1c-2.5,0.5-5.6,0.9-8.1,0.2c-1-0.3-1.7-0.9-2.7-1.1
		c-1-0.2-2.2,0.4-3.1,0.7c-2.5,0.8-5,1.6-7.7,1.7c-4,0.3-7.9-1.7-10.5-4.7c-1.4-1.6-2.3-3.5-2.5-5.6c-0.3-2.1,0.3-4,1.1-6
		c0-0.1-0.1-0.1-0.1-0.1c-2.4,3.4-1.8,7.9,0.5,11.2c2.3,3.3,6.2,5.3,10.2,5.6c2.5,0.2,5-0.5,7.4-1.2c1.5-0.4,3.4-1.4,4.9-1.2
		c1.3,0.2,2.3,1.1,3.6,1.3c2.6,0.4,5.4-0.1,8-0.6c1.8-0.3,3.7-0.4,4.9-2c0.1,0,0.2,0,0.2-0.1C62.5,28.6,62.1,26.9,61.8,25.8z"/>
	<path fill="#0F1333" d="M22.2,16.2c0,0-0.2,1,0.5,2.7c0.7,1.7,2.6,2.8,2.6,2.8s0-4.3,4.9-5c5-0.6,9,2.7,10.2,6.1
		c1.2,3.5,1.9,4.5,3.9,4.8c2,0.3,2.8-3.9,7.3-5.1c4.5-1.2,7.8,0,8.8,1.3c1,1.3,1,1.3,1,1.3s-0.8-2.1-2.4-3.7
		c-1.7-1.6-5.5-1.6-6.8-0.7c-1.2,0.9-2.5,2-3.6,2c-1.1,0-1.6-0.6-1.6-0.6s-1.7,1.5-3.5,0.5c-1.8-1-4.7-4.6-5.1-5.1
		c-0.4-0.5-0.9-1-0.9-1s-1.3,0.4-2.3-0.4c-1-0.8-2-2.2-2-2.2s-2-1.3-5-0.7c-3.1,0.6-4.3,1.4-4.3,1.4S22.4,15.4,22.2,16.2z"/>
	<path fill="#151743" d="M46.7,22.1c-0.5,0.1-1.1,0.3-1.5,0.4c-0.6,0.2-1.3-0.1-1.9-0.4c-0.9-0.5-1.7-1.3-2.4-2.1
		c-1.1-1.1-2.2-3.4-3.9-3.6c-0.2,0-0.3,0.2-0.1,0.3c1.1,0.7,2,1.8,2.8,2.8c0.7,0.9,1.6,1.8,2.5,2.6c1.3,1.2,3.4,1.9,4.6,0.2
		C46.9,22.2,46.9,22.1,46.7,22.1z"/>
	<path fill="#151743" d="M58.1,20.4c-1.6-0.9-3.8-1.2-5.3,0c-0.1,0.1,0,0.3,0.1,0.2c1.8-0.6,3.5-0.3,5.1,0.6
		c1.9,1.1,3.3,2.9,3.6,4.7c0,0.1,0.1,0,0.1-0.1C61.7,23.5,60.1,21.6,58.1,20.4z"/>
	<path fill="#3F4469" d="M26.4,13.9c0,0-0.1,0.2,0.2,1.2c0.3,1,1.2,1.9,1.2,1.9s-1.7,0.6-2.2,3.5c-0.5,2.9-0.2,3.7-0.2,3.7
		s-0.6-1.7-0.1-4.2c0.5-2.5,0.7-2.8,0.7-2.8s-0.3,0-1-1.2c-0.6-1.2-0.6-1.2-0.6-1.2S24.8,14.3,26.4,13.9z"/>
	<path fill="#FFFFFF" d="M30.9,13.7c0,0-1.4-0.6-3.7-0.1c-2.4,0.5-4.6,2-5.7,4.8c-1.1,2.8-0.3,5.2-0.3,5.2c-0.3-1.2-0.2-2.5,0.1-3.7
		c0.3-1.2,1.3-4,3.7-5.3c2.4-1.3,5.1-0.9,5.1-0.9L30.9,13.7z"/>
	<path fill="#FFFFFF" d="M27,13.8c0,0,0.3,1.2,0.6,1.8c0.3,0.6,0.7,1.1,0.7,1.1s1.4-0.7,3.3-0.7c1.9,0.1,3.8,1,3.8,1
		s-2.7-1.2-5.3-0.7c-2.6,0.5-3.9,2-4.3,3.8c-0.5,1.8-0.4,3.2-0.4,3.2s-0.1-1.9,0.4-3.7c0.6-1.9,1.6-2.6,1.6-2.6s-0.8-1.1-1.1-2
		c-0.2-0.9-0.2-1-0.2-1S26.3,13.9,27,13.8z"/>
	<path fill="#F06724" d="M25.5,30.1c-0.7-1.1-1.9-1.7-3.3-1.7c-1.2,0-2.3,1.2-1.9,2.4c0.1,0.3,0.5,0.3,0.6,0
		c0.1-0.5,0.1-0.9,0.5-1.3c0.3-0.3,0.8-0.4,1.2-0.4c0.9,0,2.1,0.5,2.7,1.1C25.3,30.4,25.5,30.3,25.5,30.1z"/>
	<path fill="#F0E23C" d="M25,29.9c-0.5-0.4-1.1-0.7-2.2-0.8c-2.3-0.2-2.3,1.9-2.1,2c0.2,0.1,0.2-0.2,0.2-0.4c0-0.3,0.3-0.5,0.6-0.4
		c0.3,0,1.4,0.1,1.6-0.3c0.2-0.4,0.2-0.4,0.2-0.4s0.8,0.1,1.4,0.8c0.6,0.6,1.4,1.1,1.8,1.3c0.4,0.2,0.4,0.2,0.4,0.2
		S25.5,30.4,25,29.9z"/>
	<path fill="#010101" d="M39.8,14.4c0,0-0.6,1.7-2,1.9c-1.5,0.2-3.4-0.2-5.3-1.5c-1.9-1.3-3.8-2.2-5.2-2.1c-1.4,0.1-1.6,0.2-1.6,0.2
		s2.6-3,6.3-2.2c3.8,0.8,4.7,2.7,5.9,3.3C39.2,14.7,39.8,14.4,39.8,14.4z"/>
	<path fill="#231F20" d="M24.8,13.8c0.2-2.6,4.5-3.7,7.3-3.4c1.6,0.2,3,0.7,4.1,1.6c0.7,0.5,2.7,3.1,3.7,1.9
		c0.1-0.1,0.3-0.1,0.3,0.1c0,0.1,0,0.3-0.1,0.4c0,0,0,0,0,0c0,2.5-3.7,3.1-6,2.1c-1.4-0.6-2.6-1.7-3.8-2.5c-1.3-0.9-3.7-1.2-4.8-0.1
		c-0.1,0.1-0.1,0.2-0.2,0.3c0,0.1-0.1,0.1-0.1,0.1c0,0,0,0,0,0.1c-0.1,0.2-0.6,0.2-0.5-0.1C24.7,14,24.7,13.9,24.8,13.8z M39.3,14.8
		c-0.5,0-1-0.2-1.6-0.5c0.1,0.2,0.1,0.5,0,0.7c-0.1,0.3-0.2,0.6-0.5,0.9C38.1,15.9,38.8,15.5,39.3,14.8z M36.6,16
		c0.1,0,0.2-0.1,0.3-0.2c0.3-0.2,0.4-0.5,0.4-0.7c0.1-0.3,0-0.7-0.1-1.1c-0.3-0.2-0.5-0.4-0.7-0.5c0.4,0.9,0.3,1.8-0.3,2.4
		C36.3,16,36.4,16,36.6,16z M29.9,12.8c1.3,0.4,2.3,1.3,3.3,2c-0.5-1.2-0.5-2.7-2.1-3.3c-0.1,0,0-0.2,0.1-0.2c2.1,0.6,2.1,2.6,2.9,4
		c0.2,0.1,0.4,0.2,0.6,0.3c0.1-0.1,0.1-0.2,0.1-0.4c0-0.2,0-0.4,0-0.6c0,0,0.1,0,0.1,0c0,0.3,0.2,0.8,0,1.1c0.2,0.1,0.5,0.2,0.8,0.2
		c0,0,0,0,0,0c0.9-0.7,0.5-2.2-0.1-3.1c-1.2-1-2.6-1.6-4.5-1.6c-1.8-0.1-3.4,0.4-4.5,1.4C27.6,12.3,28.9,12.4,29.9,12.8z"/>
	<path fill="#3F4469" d="M47.8,31.2c0,0-1.6-1.4-2-2.2c-0.4-0.8-0.7-1.9-0.7-1.9s0,0.9,0,1.3c0,0.4-0.1,0.3-0.6,0.6
		c-0.5,0.2-2.4,1.4-3,1.8c-0.5,0.4-0.7,0.4-0.7,0.4s3.4-1.7,4.4-1.5C46.3,30,46.6,30.6,47.8,31.2z"/>
	<path fill="#3F4469" d="M58.7,21.6c0,0,2.6,1.6,3.2,4.7c0.6,3.1-0.5,3.7-1.2,4.3c-0.8,0.6-2.8,0.9-2.8,0.9s3-0.5,3.6-2
		c0.5-1.5,0.1-2.8,0.1-2.8l-1.3,0.2c0,0,0.1,0.9-0.6,1.8c0,0,0.6-1.1,0.4-2.3c-0.1-1.2-2-2.6-3.2-2.9C55.5,23,54.9,23,54.9,23
		s0.7-0.5,2.6,0.4c1.9,0.8,2.3,0.3,2.3-0.2C59.9,22.7,59,21.7,58.7,21.6z"/>
	<path fill="#010101" d="M60.8,22.8c0,0,1.1,1.2,1.5,3.6c0.4,2.4-0.1,3.9-1.4,4.4c-1.3,0.5-2.8,0.7-2.8,0.7l0.1-0.1
		c0,0,3.3-0.7,3.7-2.1c0.4-1.4,0.3-3-0.3-4.5C60.9,23.5,60.8,22.8,60.8,22.8z"/>
	<path fill="#FFFFFF" d="M57,20.7c0,0,2.8,0.5,4.2,3.5c1.4,3,0.8,4.4,0.8,4.4s0.2-1.6-0.5-3.2C60.8,23.8,59.3,21.5,57,20.7z"/>
	<path fill="#FFFFFF" d="M57.6,23.8c0,0,2.2,1.2,2.3,2.7c0.1,1.5-0.3,1.8-0.3,1.8s0.8-1.2,0.5-2.3C59.8,24.9,57.6,23.8,57.6,23.8z"
		/>
	<path fill="#F9E855" d="M49.8,27.6c0,0,0-0.7,1.9-0.8c1.8-0.1,3,0.3,2.5,0.7C53.6,27.8,50,28.4,49.8,27.6z"/>
	<path fill="#F0E23C" d="M47.2,27.3c0,0-0.1,1,1,1.5c1.1,0.5,2,0.4,2,0.4s-2.1,0.5-2.8-0.5C46.6,27.8,47.2,27.3,47.2,27.3z"/>
	<path fill="#010101" d="M38,21.2c0,0-2.6-3.3-6.2-1.4c-2.5,1.3-3,4.5-3,4.5s-0.7-1.1,0-2.5c0,0-0.4,0.1-1-0.3
		c-0.5-0.4-0.7-1.2-0.7-1.2s0.5,0.1,1,0.2c0.5,0,1.5-0.7,1.5-0.7S34.4,15.2,38,21.2z"/>
	<path fill="#010101" d="M27.9,19.4c0,0,0.1,0.8,0.9,0.8c0.8,0,1-0.4,1-0.4S28.3,20.1,27.9,19.4z"/>
	<path fill="#010101" d="M28.7,19c0,0,0.2,0.9,1.2,0.8c1-0.1,1-0.1,1-0.1S29.2,19.8,28.7,19z"/>
	<path fill="#EB2227" d="M34.6,41c0,0-1.6-0.7-2.8,0.1c-0.9,0.5-0.9,0.7-0.9,0.7s0.8-0.4,2.9,0.8c2.1,1.2,6.1,3.3,8.4,3.3
		c2.3-0.1,3.6-0.9,3.4-1.8c-0.1-1-1.5-1.8-2.6-1.8c-1.1,0-2,0.6-1.6,0.9c0.4,0.3,1.4,0.1,2.3,0.3c0.9,0.2,0.9,1.4,0,1.6
		c-0.9,0.3-2.8,0.2-4.8-1.2C37,42.4,37,42,34.6,41z"/>
	<path fill="#151743" d="M55.8,20.4c0,0-1.7,0.6-2.4,1.4c-0.7,0.7-0.8,1,0,0.9c0.8-0.1,2,0,2.5,0.1c0.5,0.1,1.2,0.4,1.2,0.4
		S55.8,23,55.3,23c-0.5,0-3.2,0-5.4,1c-2.1,1-3.3,2.1-3.3,2.1s1.7-1.9,1.6-2c-0.1-0.2-2.4-1.1-2.4-1.1l0.5-0.5c0,0,2.1,1.1,3.6,0.6
		c1.5-0.5,3.5-2.3,4.2-2.8c0.8-0.5,1.4-0.3,1.4-0.3L55.8,20.4z"/>
	<g>
		<path fill="#010101" d="M46,21c0,0,0.5,1.7,1.8,1.9c1.3,0.2,2.9-0.2,4.6-1.5c1.6-1.3,3.3-2.2,4.5-2.1c1.2,0.1,1.4,0.2,1.4,0.2
			s-2.2-3-5.5-2.2c-3.3,0.8-4.1,2.7-5.2,3.3C46.5,21.4,46,21,46,21z"/>
		<path fill="#231F20" d="M59.1,20.4c-0.2-2.6-3.9-3.7-6.4-3.4c-1.4,0.2-2.6,0.7-3.6,1.6c-0.6,0.5-2.3,3.1-3.2,1.9
			c-0.1-0.1-0.2-0.1-0.2,0.1c0,0.1,0,0.3,0.1,0.4c0,0,0,0,0,0c0,2.5,3.2,3.1,5.3,2.1c1.2-0.6,2.2-1.7,3.3-2.5
			c1.1-0.9,3.2-1.2,4.1-0.1c0.1,0.1,0.1,0.2,0.2,0.3c0,0.1,0.1,0.1,0.1,0.1c0,0,0,0,0,0.1c0.1,0.2,0.5,0.2,0.5-0.1
			C59.2,20.7,59.2,20.5,59.1,20.4z M46.4,21.5c0.4,0,0.9-0.2,1.4-0.5c-0.1,0.2-0.1,0.5,0,0.7c0,0.3,0.2,0.6,0.4,0.9
			C47.5,22.5,46.9,22.1,46.4,21.5z M48.8,22.6c-0.1,0-0.2-0.1-0.3-0.2c-0.2-0.2-0.3-0.5-0.4-0.7c-0.1-0.3,0-0.7,0.1-1.1
			c0.2-0.2,0.5-0.4,0.6-0.5c-0.3,0.9-0.3,1.8,0.3,2.4C49.1,22.6,49,22.6,48.8,22.6z M54.7,19.4c-1.1,0.4-2,1.3-2.9,2
			c0.5-1.2,0.4-2.7,1.8-3.3c0.1,0,0-0.2-0.1-0.2c-1.8,0.6-1.8,2.6-2.5,4c-0.2,0.1-0.3,0.2-0.5,0.3c0-0.1-0.1-0.2-0.1-0.4
			c0-0.2,0-0.4,0-0.6c0,0-0.1,0-0.1,0c0,0.3-0.2,0.8,0,1.1c-0.2,0.1-0.4,0.2-0.7,0.2c0,0,0,0,0,0c-0.8-0.7-0.4-2.1,0.1-3.1
			c1.1-1,2.3-1.6,3.9-1.6c1.6-0.1,3,0.4,3.9,1.4C56.6,18.9,55.5,19.1,54.7,19.4z"/>
	</g>
	<path fill="#010101" d="M45.4,24c0,0-0.1,1-0.1,1.7c0.1,0.7-0.1,1.3,0.4,0.8c0.5-0.6,1.3-2.1,0.7-2.4C45.8,23.8,45.4,24,45.4,24z"
		/>
	<path fill="#F06724" d="M57,32.7c-0.6-0.4-1.4-0.7-2.1-0.2c0,0,0,0.1,0,0.1c0.3-0.1,0.6-0.1,0.9,0.1c0,0,0,0,0,0
		c-4.1,4.8-10.8,5.8-16.7,5c-5.8-0.7-11.4-2.9-15.7-6.9c0,0,0,0,0,0c0.1,0,0.2-0.1,0.2-0.2c0,0,0-0.1,0-0.1c-0.4-0.3-1.1,0-1.5,0.2
		c-0.5,0.3-1,0.8-1,1.4c0,0.3,0.5,0.5,0.6,0.2c0.2-0.4,0.4-0.8,0.8-1.1c0.1-0.1,0.3-0.2,0.4-0.2c0.2,4.3,2.8,8.2,5.7,11.2
		c2.7,2.8,6.1,5.4,9.9,6.3c3,0.7,6.4,0.4,8.8-1.8c1.3-1.2,1.9-2.9,2.5-4.5c0.7-2.4,1.6-4.7,3.6-6.3c0.1-0.1,0.2-0.2,0.1-0.4
		c1-0.7,1.9-1.5,2.7-2.4c0-0.1,0.1-0.1,0.1-0.2c0.1,0.1,0.1,0.1,0.2,0.2c0.2,0.2,0.4,0.5,0.6,0.8c0.1,0.2,0,0.5,0.1,0.7
		c0.1,0.2,0.3,0.2,0.5,0.1C58.5,34.2,57.4,33,57,32.7z M50.1,39.3c-0.8,1.8-1.1,3.8-2,5.5c-1.7,3.1-5.5,3.7-8.7,3.2
		c-3.7-0.7-6.9-3.1-9.6-5.6c-3.3-3.1-5.6-6.9-6.4-11.3c1.7,2.2,4.2,3.6,6.7,4.7c2.9,1.3,6,2.1,9.1,2.6c4.2,0.6,8.7,0.3,12.6-1.6
		C51,37.5,50.5,38.3,50.1,39.3z"/>
	<path fill="#F69321" d="M23,31c0,0-1.7,0.1-1.7,1.4c0,1.3,1.3,1.8,1.6,1.8c0.4-0.1,0.4,1.2,0.4,1.7c0,0.5-0.3,0.7-0.3,0.7
		s0.3,0,0.9,0.4c0.6,0.4,1.3,0.8,1.3,0.8s-0.9-1.9-1.5-3.5C23.2,32.5,23,31,23,31z"/>
	<path fill="#F0E23C" d="M23,31c0,0,0.2,1.9,1.6,4.9c1.4,3,1.9,3.7,1.9,3.7s-2.2-2.8-2.9-5.2C22.9,32,23,31,23,31z"/>
	<path fill="#F0E23C" d="M32.4,45.5c0,0,4.2,3.6,9.2,3.3c4.9-0.3,6.8-2.1,7.9-5.7c1.1-3.6,2-5.2,3.1-6.5c1.1-1.3,1.8-1.6,1.8-1.6
		s-2.4,2.5-3.3,4.2C50.4,40.8,49.8,43,50,44c0.2,1-0.5,4.1-2,4.6c-1.5,0.5-1.7-0.1-3,0.5c-1.4,0.6-2.2,2.3-6,1.2
		C35,49.3,32.4,45.5,32.4,45.5z"/>
	<path fill="#F0E23C" d="M55.8,32.2c0,0,1.2,0.1,1.6,1.1c0.4,0.9,0.4,1.4,0.4,1.4s0.7-1-0.3-1.9C56.5,31.9,55.8,32.2,55.8,32.2z"/>
	<ellipse fill="#FFFFFF" cx="41.3" cy="49.7" rx="1.2" ry="0.7"/>
	<ellipse fill="#FFFFFF" cx="46.8" cy="48.1" rx="0.6" ry="0.4"/>
	<path fill="#EF4137" d="M33.1,41.1c0,0,2.6,0.4,2.7,1.2C35.9,43,32.1,41.8,33.1,41.1z"/>
	<path fill="#FFFFFF" d="M33.3,41.2c0,0,2,0.8,1.8,0.4C34.9,41.3,33.1,40.8,33.3,41.2z"/>
	<path fill="#595A5C" d="M27.7,13c0,0,1.7,0,3,1.4c1.3,1.4,4.1,2.9,6.3,2.6c2.2-0.4,2.6-1.4,2.6-1.4s-1.1,1.1-3,1.1
		c-1.9,0-3.9-1.3-5.2-2.4C30.2,13.1,28.7,12.8,27.7,13z"/>
	<path fill="#595A5C" d="M45.9,21.5c0,0,0.8,1.8,2.9,1.7c2.1-0.1,3.8-2,5.3-2.9c1.6-0.9,2.8-0.7,2.8-0.7s-1.4,0-2.8,1.1
		c-1.4,1.1-2.7,3.2-5,3C46.7,23.6,45.9,22.2,45.9,21.5z"/>
	<path fill="#B4A8BE" d="M75.6,55.1c-0.1-0.1,1.2,7.3-3.9,10.6C66.5,69,63.4,67,63.4,67s3.2,2.7,8.5-1.1
		C77.2,62.1,75.8,55.4,75.6,55.1z"/>
	<path fill="#B4A8BE" d="M73.8,54.7c-0.1-0.1,1,5.7-3.1,8.3c-4,2.6-6.4,1-6.4,1s2.5,2.1,6.7-0.9C75.1,60.2,74,54.9,73.8,54.7z"/>
	<path fill="#0F1333" d="M19.1,35.7l-4.5,1.7c0,0-2.3,2.1,1.4,10.5c3.7,8.4,8.4,10.8,9.4,10.7c0.9-0.1,5.7-2.1,5.7-2.1
		s-3.4,1.1-7.8-4.9c-4.5-6-5-10.8-5-13.2C18.3,36,19.1,35.7,19.1,35.7z"/>
	<g>
		<path fill="#48494A" d="M17.3,36.3c0,0-0.6-0.2-0.8-0.8c-0.3-0.7,0.2-1.5,0.2-1.5l-2.1,0.9c0,0,0.6,0.3,0.8,0.9
			c0.2,0.7,0.1,1.1,0.1,1.1L15.2,37l0.1,0.1l2.1-0.8L17.3,36.3z"/>
		<path fill="#595A5C" d="M16.7,33.9L14.3,31c0,0-0.2,0-0.1,0.2c0.1,0.3,0.1,3.6,0.1,3.6s0.3,0.2,1.2-0.2
			C16.3,34.4,16.6,34.1,16.7,33.9z"/>
		<path fill="#9B9B9D" d="M15.4,34.6l-1.1-3.3c0,0-0.2-0.3,0.3,0.3c0.5,0.6,1.9,2.5,1.9,2.5S16,34.5,15.4,34.6z"/>
		<polygon fill="#010101" points="14.4,34.8 14.1,31.2 14.8,34.7 		"/>
		<path fill="#242425" d="M15.5,36.9c0,0,0.2-0.5,0-1c-0.2-0.5-0.8-1-0.8-1s0.6-0.1,1-0.3c0.4-0.2,0.7-0.3,0.7-0.3s-0.3,0.7-0.6,0.8
			c-0.2,0.2-0.1,1.2,0.1,1.3c0.2,0.2,0.7,0,0.7,0S16,36.8,15.5,36.9z"/>
		<path fill="#FFFFFF" d="M16.5,34c0,0-0.6-0.2-1.1-0.8c-0.5-0.6-1.1-2.2-1.1-2.2L16.5,34z"/>
	</g>
	<path fill="#151743" d="M17.7,39.2c0,0,0.9,5.6,3.3,10c2.4,4.3,6.7,6.9,6.7,6.9s-4.2-2.6-6.3-5.4c-2.1-2.8-2.7-2.9-3.5-2.6
		c-0.8,0.3-1.2,1.3-1.2,1.3s-0.5-0.9-1.5-3.4c-1-2.5-1-3.5-1-3.5s1.2,1.6,2.4,0.2C17.9,41.3,17.7,39.2,17.7,39.2z"/>
	<path fill="#3F4469" d="M17.9,39.5c0,0,0.3,2.8,1.4,5.6c1.2,2.8,2.1,4.5,2.1,4.5s-1.6-2.6-2.6-2.8c-0.9-0.2-3.1,0.2-3.1,0.2
		l-0.8-2.3c0,0,2.2,0.3,2.8-1.4C18.2,41.7,17.9,39.5,17.9,39.5z"/>
	<path fill="#010101" d="M16.7,42.5c0,0-1,0.5-0.9,1.9c0.1,1.4,0.5,1.8,0.5,1.8l-0.5,1.1c0,0-1-2.3-1.2-3.2
		c-0.2-0.9-0.3-1.4-0.3-1.4l0.6-0.7L16.7,42.5z"/>
	<path fill="#010101" d="M20.2,49.8c0,0,0.4,0.8,0.4,1.6c0,0.8-0.7,0.5-0.3,1.4c0.4,0.9,0.6,1,0.6,1l0.1,2c0,0-1.3-1.3-1.9-2.2
		c-0.6-0.9-0.9-1.4-0.9-1.4L20.2,49.8z"/>
	<path fill="#010101" d="M25.1,55.5c0,0,0.7,0.4,0.7,1.2c0.1,0.8,0.1,1,0.5,1.1c0.4,0.1,0.9,0.2,0.9,0.2l-2.1,0.8
		C25.2,58.7,24,57.2,25.1,55.5z"/>
	<path fill="#010101" d="M18.6,35.9l-4,1.5c0,0,0.5,0.7,0,1C14,38.6,14,38.6,14,38.6s-0.2,1.1-0.1,1.4c0,0.3,0.2,0.7,0.2,0.7
		l2.2-2.1c0,0-0.4-0.3,0.3-1.2C17.2,36.5,18.6,35.9,18.6,35.9z"/>
	<g>
		<path fill="#48494A" d="M23.3,55.8c-0.1,0.2,0,0.4,0.2,0.8c0,0,0.2,0.6,0,1C23.3,58,23,58.3,23,58.3s0.5-0.4,1.2-0.4
			c0.8,0,1.3,0.2,1.3,0.2s-0.8-0.7-0.6-1.2c0.2-0.5,0.4-0.5,0.4-0.5s0.1-0.3,0-0.6c-0.1-0.3-0.3-0.5-0.8-0.6
			C23.8,55.1,23.5,55.4,23.3,55.8z"/>
		<path fill="#595A5C" d="M23,58.3l1.3,3.6c0,0,0.2,0.3,0.3-0.1c0.2-0.4,1-3.7,1-3.7s-0.4-0.4-1.5-0.3C23.2,57.8,23,58.3,23,58.3z"
			/>
		<path fill="#9B9B9D" d="M24.4,57.9v3.8c0,0-0.1,0.2-0.2-0.3c-0.1-0.5-1.1-3.2-1.1-3.2S23.4,57.8,24.4,57.9z"/>
		<path fill="#010101" d="M25.2,58l-0.6,3.7l0.9-3.5C25.4,58.2,25.4,58,25.2,58z"/>
		<path fill="#242425" d="M24,55.4c0,0,0.3,1.1,0.1,1.7c-0.1,0.6-0.7,0.8-0.7,0.8s0.7-0.3,1.2-0.2c0.5,0.1,0.6,0.1,0.6,0.1
			s-0.7-0.8-0.4-1.2c0.3-0.4,0.4-0.2,0.4-0.2S25.3,55.3,24,55.4z"/>
		<path fill="#FFFFFF" d="M23.2,58.2c0,0,0.7,0.2,0.9,1.3c0.2,1.1,0.3,2.1,0.3,2.1L23.2,58.2z"/>
	</g>
	<g>
		<path fill="#48494A" d="M16.6,40.8c-0.2-0.2-0.4-0.1-0.9,0c0,0-0.6,0.1-0.9-0.2c-0.4-0.3-0.5-0.7-0.5-0.7s0.3,0.6,0.1,1.3
			c-0.2,0.7-0.5,1.2-0.5,1.2s0.8-0.6,1.3-0.3c0.5,0.3,0.4,0.5,0.4,0.5s0.3,0.1,0.6,0.1c0.3,0,0.6-0.2,0.8-0.6
			C17.1,41.5,16.9,41.1,16.6,40.8z"/>
		<path fill="#595A5C" d="M14.2,39.9l-3.9,0.4c0,0-0.3,0.1,0,0.3c0.3,0.3,3.3,1.8,3.3,1.8s0.5-0.3,0.7-1.4
			C14.6,40.2,14.2,39.9,14.2,39.9z"/>
		<path fill="#9B9B9D" d="M14.3,41.5l-3.7-0.9c0,0-0.2-0.2,0.3-0.2c0.5,0,3.4-0.2,3.4-0.2S14.5,40.4,14.3,41.5z"/>
		<path fill="#010101" d="M13.9,42.1l-3.4-1.5l3.2,1.7C13.7,42.3,13.9,42.3,13.9,42.1z"/>
		<path fill="#242425" d="M16.8,41.7c0,0-1.2,0-1.7-0.3c-0.5-0.3-0.6-0.9-0.6-0.9s0.1,0.8-0.1,1.2c-0.2,0.4-0.2,0.5-0.2,0.5
			s1-0.4,1.3-0.1c0.3,0.4,0.1,0.5,0.1,0.5S16.5,42.9,16.8,41.7z"/>
		<path fill="#FFFFFF" d="M14.3,40.1c0,0-0.4,0.6-1.5,0.5c-1.1-0.1-2.1-0.3-2.1-0.3L14.3,40.1z"/>
	</g>
	<g>
		<path fill="#48494A" d="M18.3,49.5c0,0,0-0.3,0.5-0.6c0.3-0.1,0.7-0.1,1.1,0.4c0.9,1.1-0.2,2-0.5,1.8C19.1,51,18.3,49.5,18.3,49.5
			z"/>
		<path fill="#595A5C" d="M17.6,49.6c0,0,1.2-0.5,1.7,0.4c0.5,0.9,0.1,1.8-0.2,1.9c-0.3,0.1-3.1,1.1-3.3,1c-0.2-0.1-0.1-0.3,0.2-0.9
			C16.4,51.5,17.6,49.6,17.6,49.6z"/>
		<path fill="#9B9B9D" d="M18,49.6l-2.2,2.9c0,0-0.2,0.2,0.3-0.1c0.5-0.3,2.9-2.3,2.9-2.3S18.9,49.5,18,49.6z"/>
		<path fill="#010101" d="M16,52.8l3.2-1.7c0,0,0.1,0.3-0.1,0.4C18.9,51.5,16,52.8,16,52.8z"/>
		<path fill="#242425" d="M19.2,49.9c0,0,0.2,0.3,0.3,0.6c0.1,0.3,0,0.5,0,0.5s0.4,0,0.5-0.7c0-0.6-0.3-0.7-0.3-0.7
			S19.6,49.9,19.2,49.9z"/>
		<path fill="#FFFFFF" d="M18,49.6c0,0,0.1,0.7-0.6,1.6c-0.7,0.9-1.6,1.3-1.6,1.3L18,49.6z"/>
	</g>
	<path fill="#595A5C" d="M14.5,40.3c0,0,0.3,0.8,1,0.9c0.7,0.1,1-0.3,1.1,0c0.2,0.3,0.2,0.5,0,0.9c-0.2,0.3-0.2,0.4-0.2,0.4
		s0.5-0.3,0.5-0.8c0-0.5-0.4-0.9-0.5-0.9c-0.2-0.1-0.6,0.2-1.1,0.1C14.8,40.8,14.5,40.3,14.5,40.3z"/>
	<path fill="#595A5C" d="M23.5,55.8c0,0,0.4,0,0.5,0.7s-0.2,1-0.3,1.2c-0.1,0.1-0.2,0.2-0.2,0.2s0.4-0.5,0.3-1
		c-0.1-0.5-0.3-0.7-0.3-0.7s-0.1-0.2,0.1-0.5c0.2-0.3,0.7-0.5,1.1-0.3c0.4,0.1,0.5,0.3,0.5,0.3s-0.4-0.3-0.8-0.3
		C23.7,55.4,23.5,55.8,23.5,55.8z"/>
	<path fill="#9B9B9D" d="M14.5,40.4c0,0,0.3,0.5,0.9,0.6c0.6,0.1,0.9-0.1,0.9-0.1s0.5,0,0.5,0.7c0,0.8-0.4,1-0.7,1
		c-0.2,0-0.3,0-0.3,0s0.7,0.1,0.9-0.5c0.2-0.6,0.1-1-0.1-1.2c-0.2-0.2-0.3-0.2-0.4-0.2c0,0-0.6,0.2-1,0
		C14.7,40.6,14.5,40.4,14.5,40.4z"/>
	<path fill="#434445" d="M18.7,49.2c0,0,0.6-0.1,0.6,0.2c0.1,0.3-0.3,0.3-0.3,0.3s-0.2-0.2-0.3-0.2c-0.2,0-0.2-0.1-0.2-0.1
		S18.5,49.3,18.7,49.2z"/>
	<path fill="#9B9B9D" d="M23.4,56c0,0,0.5,0,0.5,0.7c0,0.7-0.3,1-0.3,1s0.3-0.5,0.2-0.9c-0.1-0.4-0.3-0.6-0.3-0.6s-0.2-0.2,0.1-0.5
		c0.3-0.3,0.7-0.4,1-0.3c0.3,0.1,0.4,0.2,0.4,0.2S23.8,55.1,23.4,56z"/>
	<path fill="#010101" d="M32.8,52.3c-0.2-4.5-1.9-7.4-2.6-8.5l0,0c0,0-1.8-2.6-3.8-4.9c-1.8-2-3.1-2.6-3.1-2.6s-0.1,0.2-0.3,0.4
		c-0.2,0.2-0.2,0.2-0.2,0.2s1.2,0.4,3.6,2.9c2.3,2.5,3.4,4.5,3.4,4.5l0,0c0.3,0.7,1.7,2.6,2.3,6.8c0.5,3.7-1.1,5.6-3.9,4.2
		c-2.8-1.4-7.3-7.8-8.8-13.1c-1.4-5.3,0.5-5.7,0.5-5.7c-0.3-0.4-0.6-1-1-0.8c-0.4,0.2-2.4,0.7,0,8.1c2.4,7.4,6.6,10.6,8.4,11.9
		C29,57.1,33.1,58.3,32.8,52.3z"/>
	<path fill="#010101" d="M18.9,40.4c0,0,0.6-1.6,2.8,0.9c2.2,2.5,5,6.7,5.8,8.4c0.8,1.7,1,2.9,1.1,3.7c0.1,0.8,0,0.9,0,0.9
		s0.3-1.3,0-2.5c-0.3-1.3-1.3-3.6-1.3-3.6s-0.1-5.2-1.5-7.8c-1.4-2.6-3.8-3.9-5.3-3.2C18.9,37.9,18.9,40.4,18.9,40.4z"/>
	<g>
		
			<ellipse transform="matrix(0.8226 -0.5686 0.5686 0.8226 -18.7551 20.7312)" fill="#434548" cx="23.9" cy="40.4" rx="0.7" ry="1.1"/>
		
			<ellipse transform="matrix(0.8228 -0.5683 0.5683 0.8228 -18.8055 20.6527)" fill="#595A5C" cx="23.7" cy="40.5" rx="0.7" ry="1.1"/>
		<g>
			<path fill="#9B9B9D" d="M24,39.8L23.2,41c0.1,0.1,0.2,0.2,0.2,0.2l0.9-1.1c0,0,0,0,0,0C24.2,40,24.1,39.9,24,39.8z"/>
			<path fill="#9B9B9D" d="M23.7,39.6c-0.2-0.1-0.4-0.1-0.6,0c-0.2,0.2-0.3,0.5-0.2,0.9L23.7,39.6z"/>
		</g>
	</g>
	<g>
		
			<ellipse transform="matrix(0.9434 -0.3318 0.3318 0.9434 -13.8008 12.1027)" fill="#434548" cx="28.5" cy="46.5" rx="0.7" ry="1.1"/>
		
			<ellipse transform="matrix(0.9434 -0.3316 0.3316 0.9434 -13.8095 12.0488)" fill="#595A5C" cx="28.4" cy="46.5" rx="0.7" ry="1.1"/>
		<g>
			<path fill="#9B9B9D" d="M28.9,45.9l-1.1,0.9c0,0.1,0.1,0.2,0.2,0.3l1.1-0.8c0,0,0,0,0-0.1C29,46.1,28.9,46,28.9,45.9z"/>
			<path fill="#9B9B9D" d="M28.6,45.7c-0.2-0.2-0.4-0.2-0.6-0.2c-0.3,0.1-0.4,0.4-0.4,0.8L28.6,45.7z"/>
		</g>
	</g>
	<g>
		<ellipse transform="matrix(0.9933 0.1159 -0.1159 0.9933 6.459 -3.1448)" fill="#434548" cx="30.3" cy="54" rx="0.7" ry="1.1"/>
		<ellipse transform="matrix(0.9932 0.1161 -0.1161 0.9932 6.4622 -3.133)" fill="#595A5C" cx="30.1" cy="53.9" rx="0.7" ry="1.1"/>
		<g>
			<path fill="#9B9B9D" d="M30.8,53.6L29.4,54c0,0.1,0,0.2,0,0.3l1.4-0.2c0,0,0,0,0-0.1C30.8,53.9,30.8,53.7,30.8,53.6z"/>
			<path fill="#9B9B9D" d="M30.7,53.3c-0.1-0.2-0.3-0.4-0.5-0.4c-0.3,0-0.5,0.2-0.7,0.5L30.7,53.3z"/>
		</g>
	</g>
	<path fill="#242425" d="M28,55.4c0,0,0.3,0.1,0.6,0.2c0.3,0.1,0.8,0.1,0.9,0.5c0.4,0.9,0.5,1.4,0.1,1.5c-0.4,0.1-3.6,1.4-3.9,1.4
		c-0.3,0-0.4-0.1-0.4-0.1l-0.2,0.7c0,0,0,0.5,0.6,0.2c0.7-0.3,4.5-1.8,4.6-1.8c0.6-0.1,0.3-1,0.3-1.1c-0.3-1.1-0.3-1.3-1-1.6
		C29.1,55,28.4,55.1,28,55.4z"/>
	<g>
		<path fill="#48494A" d="M27,58.2c0,0,0.6,0.1,0.9,0.7c0.4,0.6,0,1.5,0,1.5l2-1.2c0,0-0.6-0.2-0.9-0.8c-0.3-0.6-0.2-1.1-0.2-1.1
			l0.1-0.2l-0.1-0.1l-2,1L27,58.2z"/>
		<path fill="#595A5C" d="M27.8,60.4l2.8,2.6c0,0,0.2,0,0.1-0.3c-0.1-0.3-0.6-3.6-0.6-3.6s-0.3-0.1-1.2,0.3
			C28.1,60,27.9,60.3,27.8,60.4z"/>
		<path fill="#9B9B9D" d="M29,59.7l1.6,3.1c0,0,0.2,0.3-0.4-0.2C29.6,62,28,60.3,28,60.3S28.4,59.8,29,59.7z"/>
		<polygon fill="#010101" points="30,59.3 30.8,62.8 29.6,59.4 		"/>
		<path fill="#242425" d="M28.6,57.4c0,0-0.1,0.5,0.1,1c0.3,0.5,0.9,0.9,0.9,0.9s-0.6,0.2-0.9,0.4c-0.4,0.2-0.7,0.4-0.7,0.4
			s0.3-0.7,0.4-0.9c0.2-0.2-0.1-1.2-0.3-1.3c-0.2-0.1-0.7,0-0.7,0S28.1,57.5,28.6,57.4z"/>
		<path fill="#FFFFFF" d="M28,60.3c0,0,0.6,0.1,1.2,0.6c0.6,0.5,1.4,2,1.4,2L28,60.3z"/>
	</g>
	<path fill="#595A5C" d="M27,58.2c0,0,0.7,0.1,1,0.7c0.3,0.6,0.1,1.1,0.1,1.1s0.6-0.9,0.2-1.5C27.8,57.9,27,58.2,27,58.2z"/>
	<path fill="#515152" d="M28.3,55.4c0,0,1.2-0.2,1.5,0.3c0.2,0.5,0.6,1.7,0.6,1.8c0,0.2,0.2,0.2,0.3,0c0.1-0.2-0.2-1.1-0.3-1.5
		c-0.1-0.4-0.4-0.7-0.9-0.8C29,55.2,28.2,55.3,28.3,55.4z"/>
	<path fill="#B44E26" d="M19.1,35.7c0,0-0.6-1.1-1.1-0.9c-0.5,0.2-0.7,0.8-0.7,0.9c0,0.1-0.2,0.3-0.2,0.3l0.3,0.3L19.1,35.7z"/>
	<path fill="#F0E23C" d="M15.4,28.7c0,0,2.4-0.6,3.3,0.9c0.9,1.5,1.5,3.7,1.7,4.4c0.3,0.7,0.9,1.6,1.5,1.4c0.6-0.2,0.9,0.2,0.8,0.7
		c-0.1,0.5-1.3,0.9-2.1,0.5c-0.8-0.4-1-0.8-1-0.8s1.3,0.8,1.8,0.6c0.5-0.1,0.5-0.4,0.1-0.5c-0.4,0-1-0.1-1.6-0.8
		c-0.6-0.8-0.7-2.4-0.7-2.4s-0.2-2.5-1.3-3.3c-1.1-0.8-2.4-0.7-3.7,0.5c-1.2,1.2-1.5,2.6-1.6,3.7c-0.1,1.1,0,2,0,2s-0.6-1.7,0-3.7
		C13.5,30.1,14.2,29.6,15.4,28.7z"/>
	<path fill="#F0E23C" d="M14.1,35.3c0,0-0.5,0.8-0.5,2.2c-0.1,1.4-0.2,2.5-0.2,2.5l-0.4,0.1C12.9,40.1,12,37.4,14.1,35.3z"/>
	<polygon fill="#FFFFFF" points="20.9,50.1 20.6,51.7 17.7,51.8 20.5,52.5 20.4,54.9 21.2,52.5 22.9,52.4 21.3,51.9 	"/>
	<path fill="#5A628A" d="M18.4,36.2c0,0-1.1,0.9-0.2,4.9c0.9,4,3.2,8.8,4.8,10.6c1.5,1.7,1.8,2.1,1.8,2.1s-3.8-2.9-6-9.8
		C16.5,37.1,18.4,36.2,18.4,36.2z"/>
	<path fill="#1B1B1C" d="M29.9,57.2c0,0,0,0,0.2,0.4c0.3,0.4,1.5,2.2,1.7,2.4c0.2,0.1,0.4,0,0.4,0s0.1-0.1-0.4-0.7
		c-0.4-0.7-1.1-1.6-1.1-1.6s0.1-0.2,0.1-0.4s0-0.2,0-0.2s0.8,1.1,1.2,1.7c0.4,0.6,0.6,1.1,0.7,1.2c0.1,0.4-0.3,0.7-0.6,0.7
		c-0.3,0-0.5,0-1.4-1.3c-0.8-1.3-1.3-1.8-1.3-1.8S29.5,57.3,29.9,57.2z"/>
	<path fill="#010101" d="M30.9,57.2c0,0,0,0.3,0,0.4c0,0.1-0.1,0.1-0.1,0.1s1.4,2.1,1.4,2.2c0,0.1-0.1,0.2-0.1,0.2s0.4,0.1,0.4-0.2
		c-0.1-0.3-0.8-1.5-1.2-2C31,57.5,30.9,57.2,30.9,57.2z"/>
	<path fill="#010101" d="M29.8,57.3c0,0,1.9,2.7,2,2.9c0.1,0.2,0,0.3-0.3,0.1c-0.2-0.2-2-2.7-2-2.7S29.4,57.4,29.8,57.3z"/>
	<path fill="#515152" d="M29.9,57.3c0,0,1.4,2.1,1.8,2.5c0.4,0.5,0.8,0.3,0.8,0.2c0.1-0.1-0.4-0.9-0.6-1.3c-0.3-0.4-1-1.4-1-1.4
		s0-0.1,0.2,0.1c0.1,0.1,0.6,0.8,0.9,1.3c0.4,0.7,0.7,1.3,0.7,1.3s0.1,0.2,0,0.3c-0.1,0.2-0.5,0.3-0.6,0.3c-0.1,0-0.2-0.1-0.2-0.3
		c0-0.2-0.1-0.3-0.3-0.5c-0.1-0.2-1.6-2.3-1.6-2.3S29.7,57.2,29.9,57.3z"/>
	<path fill="#7D7D7D" d="M32.6,59.8c0.1,0.1,0.1,0.4-0.1,0.5c-0.2,0.1-0.5-0.1-0.6-0.1c-0.1-0.1-0.1-0.2,0-0.1
		c0.1,0.1,0.5,0.2,0.6,0.1c0.1-0.2,0-0.4,0-0.4s0-0.2,0.1,0C32.5,59.7,32.6,59.8,32.6,59.8z"/>
	<path fill="#010101" d="M29.9,57c0,0-0.3,0.1-0.4,0.3c-0.1,0.2,0.1,0.4,0.1,0.5c0.1,0.1,0.2-0.3,0.2-0.3s0-0.2,0-0.3
		C30,57.2,30,57.1,29.9,57z"/>
	<path fill="#505D50" d="M32.1,60.1c0,0,0.2,0,0.2,0.3c0,0.2-0.2,0.3-0.2,0.3l0.3,0.3l0.2,0.3l0.5-0.3c0,0-0.3-0.4-0.3-0.6
		c0-0.2-0.1-0.4-0.2-0.5c-0.1-0.1-0.2,0.1-0.2,0.1C32.2,60,32.1,60.1,32.1,60.1C32,60.1,32,60.1,32.1,60.1
		C32,60.1,32,60.1,32.1,60.1z"/>
	<path fill="#768476" d="M32.2,60.1c0,0,0.1,0.1,0.1,0.2c0,0.1,0,0.3,0,0.4c0.1,0.2,0.8,1,0.8,1s0.4,0.3,0.7,0.5
		c0.2,0.2-0.1-0.2-0.2-0.3c-0.1-0.2-0.3-0.3-0.5-0.6c-0.2-0.2-0.6-0.8-0.6-1c0-0.2-0.1-0.4-0.2-0.4c-0.1,0-0.1,0.1-0.1,0.1
		C32.3,60.1,32.2,60.1,32.2,60.1z"/>
	<path fill="#292F29" d="M32,60.1c0,0,0.2,0.1,0.2,0.3c0,0.2-0.1,0.3-0.1,0.3s0.1,0,0.4,0.5c0.3,0.5,0.5,0.7,0.5,0.6
		c0-0.1-0.7-1-0.7-1.1c0,0,0.1-0.3,0-0.5C32.1,60.1,32,60.1,32,60.1z"/>
	<path fill="#F0E23C" d="M66.6,31.7c0,0-1.4,0.6-1.6,1.6c-0.1,1.1,0.4,1.8,0.7,2.3c0.3,0.5-0.1,0.9-0.5,0.9c-0.4,0-0.6,0.3-0.7,0.6
		c0,0.4,0.4,0.8,0.4,0.8s-0.5-0.7-0.2-0.9c0.3-0.2,1.1,0.1,1.5-0.4c0.4-0.5,0.1-1.3-0.5-1.9c-0.6-0.6-0.1-2.1,0.5-2.4
		C66.8,31.9,67,31.6,66.6,31.7z"/>
	<path fill="#F0E23C" d="M66.8,33.9c0,0,0.6,0.3,0.9,1.1c0.3,0.8,0,1.3,0,1.3s-0.1-1-0.4-1.4C67,34.3,66.6,33.9,66.8,33.9z"/>
	<path fill="#F0E23C" d="M66.2,31.6c0,0-0.4-2.4,2.2-3c2.5-0.7,5.3,0.1,6.1,2.2c0.8,2.2,0.2,4.3-0.4,4.6c-0.6,0.4-1.1,0.2-1.1,0.2
		s0.3,1.1-0.5,1.7c-0.8,0.7-1,0.3-1,0.3s0.7,0,1-0.9c0.3-0.9,0.2-1.6,0.2-1.6s1.1,0.4,1.5-0.6c0.4-0.9,0.6-3.6-0.9-5
		c-1.5-1.4-4.6-1.1-5.8-0.4c-1.1,0.8-0.6,2.4-0.7,2.4c-0.1,0.1-0.2,0.1-0.2,0.1s0-0.1-0.2-0.1c-0.2,0-0.3,0-0.3,0L66.2,31.6z"/>
	<path fill="#F0E23C" d="M67.2,38.2c0,0,0,1,1.5,0.9c1.5,0,2.3-0.9,2.5-1.8c0.2-0.9,0.1-1.6-0.2-1.9c-0.3-0.4-0.4-0.4-0.3-0.3
		c0,0.1,0.7,1.5,0.2,2.5c-0.5,1-2,1.3-2.5,1.1c-0.5-0.1-1-0.8-1-0.8L67.2,38.2z"/>
	<polygon fill="#9EC4D4" points="36.9,56.1 36.3,55.8 35.7,56.1 35.8,55.4 35.3,55 36,54.9 36.2,54.3 36.5,54.9 37.2,54.9 
		36.7,55.4 	"/>
	<polygon fill="#9EC4D4" points="27.5,51.7 26.4,51.1 25.4,51.7 25.5,50.5 24.6,49.7 25.8,49.5 26.3,48.4 26.9,49.5 28.1,49.6 
		27.3,50.5 	"/>
	<path fill="#FFFFFF" d="M35.2,20.6c0,0-3.6-0.4-4.2,3.8c-0.7,4.2,2.7,6.1,2.7,6.1s-4.1-0.9-3.6-5.9C30.5,19.6,34.8,20.1,35.2,20.6z
		"/>
</g>
</svg>
