<?xml version="1.0" encoding="utf-8"?>
<!-- Generator: Adobe Illustrator 18.0.0, SVG Export Plug-In . SVG Version: 6.00 Build 0)  -->
<!DOCTYPE svg PUBLIC "-//W3C//DTD SVG 1.1//EN" "http://www.w3.org/Graphics/SVG/1.1/DTD/svg11.dtd">
<svg version="1.1" id="Layer_1" xmlns="http://www.w3.org/2000/svg" xmlns:xlink="http://www.w3.org/1999/xlink" x="0px" y="0px"
	 viewBox="0 0 82 82" enable-background="new 0 0 82 82" xml:space="preserve">
<g>
	
		<radialGradient id="SVGID_1_" cx="33.2238" cy="51.7275" r="20.9719" gradientTransform="matrix(0.9997 -2.440000e-002 2.440000e-002 0.9997 6.5618 -8.7298)" gradientUnits="userSpaceOnUse">
		<stop  offset="0" style="stop-color:#F0E23C"/>
		<stop  offset="0.1155" style="stop-color:#F0DE3B"/>
		<stop  offset="0.2572" style="stop-color:#EED437"/>
		<stop  offset="0.4126" style="stop-color:#ECC332"/>
		<stop  offset="0.5777" style="stop-color:#E9AA2C"/>
		<stop  offset="0.7488" style="stop-color:#E68C26"/>
		<stop  offset="0.7925" style="stop-color:#E58425"/>
		<stop  offset="0.9719" style="stop-color:#F3A91D"/>
	</radialGradient>
	<path fill="url(#SVGID_1_)" d="M22,42.4c0,0,0.8,3.4,3.7,6.6c2.9,3.2,7.8,5.2,7.8,5.2l2,0.8c0,0,6,2.2,10.3,2.1
		c4.3-0.1,10.8-2.8,13-4.4c2.2-1.6,5.2-4.8,5.6-7.7c0.4-2.9-11-11.1-17.9-11C39.5,34.2,22,42.4,22,42.4z"/>
	
		<linearGradient id="SVGID_2_" gradientUnits="userSpaceOnUse" x1="4.0642" y1="43.1581" x2="21.1783" y2="43.1581" gradientTransform="matrix(0.9997 -2.440000e-002 2.440000e-002 0.9997 6.5618 -8.7298)">
		<stop  offset="0" style="stop-color:#F0E23C"/>
		<stop  offset="0.1155" style="stop-color:#F0DE3B"/>
		<stop  offset="0.2572" style="stop-color:#EED437"/>
		<stop  offset="0.4126" style="stop-color:#ECC332"/>
		<stop  offset="0.5777" style="stop-color:#E9AA2C"/>
		<stop  offset="0.7488" style="stop-color:#E68C26"/>
		<stop  offset="0.7925" style="stop-color:#E58425"/>
	</linearGradient>
	<path fill="url(#SVGID_2_)" d="M23.2,31.6c0,0-1.9-3.6-3.1-4.3c-1.2-0.7-1.8,0.1-2.7,0c-0.9-0.1-3.8-0.6-4.4,0.1
		c-0.6,0.7-0.6,1.6-0.2,3.1c0.4,1.5,0.6,2.1,0.6,2.1s-1.7-0.2-1.7,1.9c0.1,2.1,1.6,4.1,1.6,4.1s-0.9,1.1-0.3,2.1
		c0.7,1,1.1,0.9,2.2-0.3c1.1-1.2,1.1-1.7,1.1-1.7l1.3,0.9c0,0,0.7,1.9,2.1,1.3c1.4-0.5,2.3-2.4,2.3-3.6c0-1.2,0.4-2.8,0.4-2.8
		s0.8-0.5,0.9-1.4C23.4,32.2,23.2,31.6,23.2,31.6z"/>
	
		<radialGradient id="SVGID_3_" cx="37.4691" cy="27.0468" r="10.3984" gradientTransform="matrix(0.9997 -2.440000e-002 2.440000e-002 0.9997 6.5618 -8.7298)" gradientUnits="userSpaceOnUse">
		<stop  offset="0" style="stop-color:#FFFFFF"/>
		<stop  offset="0.1055" style="stop-color:#FFFEF8"/>
		<stop  offset="0.2349" style="stop-color:#FDFBEC"/>
		<stop  offset="0.3769" style="stop-color:#FBF7D8"/>
		<stop  offset="0.5278" style="stop-color:#F8F2BD"/>
		<stop  offset="0.6859" style="stop-color:#F6EC9A"/>
		<stop  offset="0.8474" style="stop-color:#F3E66E"/>
		<stop  offset="0.9719" style="stop-color:#F0E23C"/>
	</radialGradient>
	<path fill="url(#SVGID_3_)" d="M61.4,23.8c0,0-3.9-5.1-14-5.4c-10.1-0.3-16.8,5.5-17.5,6.1c-0.8,0.6,13.8,8.6,22.5,6.3
		C61,28.4,61.4,23.8,61.4,23.8z"/>
	<path fill="#F69321" d="M35.3,20.3c0,0,0.8,3.4,4.3,1.9c3.5-1.5,2.7-4,2.7-4s-0.8-0.2-2,0.2C39.1,18.7,35.3,20.3,35.3,20.3z"/>
	<path fill="#F69321" d="M43.4,18.1c0,0-1,4.6,4.4,4.5c5.4-0.1,5.6-3.1,5-3.6c-0.5-0.5-5.1-1.9-7.3-1.6
		C43.3,17.6,43.4,18.1,43.4,18.1z"/>
	<path fill="#F69321" d="M22.2,35.1c0,0-1,3.4-0.4,6c0.7,2.5,1.4,4.5,1.9,5.1c0.5,0.6-0.3,0.3,0.4-1.1c0.7-1.4,1.2-2.1,2.4-2.7
		c1.2-0.6,1.3-0.7,1.4-0.6c0.2,0.1,2.1,0.3,4.8,0.6c2.7,0.3,3.8-0.2,4.6-0.1c0.8,0.1,0.2,0.7,2.9,0.2C43,41.9,46,35.7,51,41.3
		c0.6,0.7,2.2,2.5,5.2,2.5c3,0,3.9-1.7,5.1-1.2c1.2,0.5,2.6,2.3,2,3.8c-0.6,1.6-6.8,8.3-11.9,9.1C39.4,57.4,34,53.7,34,53.7l2.7,1.8
		c0,0,4.1,2.3,11.2,1.5c5.9-0.6,14.6-5,17-9.8c2.4-4.9,1.8-8,1.6-8.7c-0.2-0.7-0.2-0.7-0.2-0.7s-3.5-11.9-4.7-13.5
		c-1.2-1.6-0.1-0.2-0.1-0.2s-17.4,11.6-26,11.6c-8.6,0-12.9-1.8-12.9-1.8L22.2,35.1z"/>
	<path fill="#9F1D20" d="M22.5,30.3c0,0,0,0.1,0.1,0.2c0.2,0.5,0.8,1.8,0.7,2.7c-0.2,1-0.5,1.5-0.5,1.5s-0.9,3.2,4,5.2
		c4.9,2,10.1,2,12.8,0.7c2.7-1.3,5.4-4.3,7.3-3.4c1.9,0.9,5.1,3.9,7.4,4.3c2.4,0.5,7.9,0.4,10.4-2.4c2.5-2.8,3.2-5.4,1.7-9.4
		c-1.5-4.1-5-6.9-10.6-5.9c-5.6,0.9-6.2,5.8-10.6,4.5c-4.4-1.3-1.8-4.1-9.8-5.7c0,0-5.7,0-9,2.6C23.2,27.8,22.5,30.3,22.5,30.3z"/>
	<path fill="#F06724" d="M66.1,37.4C66.1,37.4,66,37.4,66.1,37.4c1.2,2.9,0,7-1.5,9.6c-1.7,2.8-4.4,5.1-7.2,6.7
		c-2.9,1.6-6.2,2.4-9.5,2.9c-3.5,0.4-6.7,0.3-10-0.9c-0.2-0.1-0.3,0.3-0.1,0.3c3.4,1.4,6.9,1.3,10.6,0.9c3.5-0.5,6.9-1.5,10-3.3
		c2.9-1.7,5.7-4.5,7.2-7.5c0.7-1.4,1.1-3.2,1.3-4.7C66.9,40,66.9,38.5,66.1,37.4z"/>
	<path fill="#F06724" d="M29.4,52.2c-1.3-1-2.6-1.9-3.7-3.2c-1.2-1.3-2-3-2.7-4.6c-1.3-3.2-1.5-6.5-0.7-9.8c0-0.1-0.1-0.1-0.2-0.1
		c-1.5,2.9-0.8,6.7,0.3,9.7c1.2,3.4,3.6,6.4,6.7,8.3C29.4,52.5,29.5,52.3,29.4,52.2z"/>
	<path fill="#F06724" d="M61.5,24.1c-3.5-4.5-9.9-6.5-15.4-6.6c-6.4-0.1-12.8,2.7-16.9,7.7c-0.1,0.1,0.1,0.3,0.2,0.2
		c2.4-2.3,5-4.3,8.1-5.7c2.6-1.1,5.4-1.6,8.3-1.7c2.8-0.1,5.6,0.5,8.2,1.4c2.8,1,5.1,2.8,7.4,4.7C61.4,24.2,61.5,24.1,61.5,24.1z"/>
	<path fill="#771213" d="M39.6,40.5c-0.9-0.4-1.6-0.7-2.4-1.4c-0.9-0.8-1.6-1.8-2.1-2.9c-1.1-2.1-1.6-4.7-0.3-6.8
		c0.1-0.1-0.1-0.2-0.2-0.1c0,0,0,0.1-0.1,0.1c-3.9-0.6-8.7,3.2-10,6.7c-0.1,0.3,0.4,0.5,0.5,0.2c2-3.7,5.1-6.4,9.4-6.8
		c-1.4,1.7-0.8,4.5,0.1,6.4c0.8,1.8,2.7,4.9,5,4.9C39.7,40.8,39.7,40.6,39.6,40.5z"/>
	<path fill="#771213" d="M62.8,24.6c-3.3-2.3-8-1.3-11.2,0.6c-1.7,1.1-3.1,3.4-5.4,3c-2.1-0.3-3.6-2.7-5.3-3.9
		c-2.6-1.8-7.8-2.9-10.3-0.5c-0.2,0.1,0.1,0.4,0.2,0.3c2-1,4-1.1,6.1-0.7c2,0.3,3.5,1.3,5,2.6c1.2,1.1,2.3,2.1,3.8,2.7
		c1.5,0.6,3-0.4,4.1-1.3c1.5-1.2,2.8-2.2,4.6-2.8c2-0.7,4.2-1,6.2-0.4c4.3,1.2,6.6,6.4,6.6,10.4c0,0.1,0.2,0.1,0.2,0
		C67.9,30.6,66,26.8,62.8,24.6z"/>
	<g>
		<path fill="#771213" d="M67.9,32c0.1,0,0.1,0,0.1-0.1c-0.5-0.7,0.4-1.6,0.9-2c0.3-0.2,0.6-0.4,1-0.5c0.3,0,0.8,0.1,0.7,0.5
			c-0.1,0.6-0.7,1.2-1.1,1.6c-0.3,0.4-0.7,0.7-1,1.1c-0.1,0.1,0.1,0.2,0.2,0.2c0.6-0.5,3.5-2.7,2.1-3.6c-0.9-0.6-1.8,0-2.5,0.6
			C67.8,30.4,67.1,31.5,67.9,32z"/>
		<path fill="#771213" d="M69.6,34c-0.3-0.2-0.6-0.4-0.8-0.7c-0.1-0.1-0.2,0-0.2,0.1c0.1,0.5,1.9,1.9,2.2,0.9
			c0.3-1.1-1.3-1.8-2.2-1.3c0,0,0,0,0-0.1c0-0.3-0.2-0.6-0.5-0.7c-0.1,0-0.1,0-0.2,0.1c-0.2,0.2-0.2,0.6-0.2,0.8
			c0,0.1,0.2,0.3,0.3,0.3c0.1,0,0.2,0,0.3-0.1c0,0,0,0,0,0c0,0,0,0,0,0c0.4-0.3,0.9-0.2,1.3,0c0.3,0.1,0.9,0.5,0.7,1
			C70.3,34.5,69.6,34.1,69.6,34z"/>
		<path fill="#771213" d="M74.2,39C74.2,39.1,74.3,39.1,74.2,39c0-1.5,1.4-0.6,1.8-0.3c1.1,0.8,0.1,2-0.8,2.3
			c-1.5,0.6-2.5-0.8-3-1.9c-0.9-1.9-1.9-3.7-3.4-5.2c-0.1-0.1-0.1,0-0.1,0.1c0.1,0.1,0.2,0.2,0.3,0.3c-0.2-0.2-0.4-0.4-0.6-0.5
			c-0.1,0-0.1,0.1-0.1,0.1c0.8,0.7,1.2,1.9,1.4,3c0.1,0.6,0,1.4-0.7,1.7c-0.2,0.1-0.4,0.1-0.5,0.3c-0.4,0.9,0,1.9-0.5,2.9
			c-0.5,0.9-1.3,1.5-1.6,2.4c-1.3,3.5,3.7,6.5,6.5,5c2.1-1.1,3-6.1-0.4-5.4c-1,0.2-2.3,1-1.9,2.2c0.3,1.1,1.5,1.7,2.3,0.7
			c0-0.1-0.1-0.1-0.1-0.1c-1.2,0.6-1.9,0.3-2-0.9c-0.1-0.6,0.4-1,0.8-1.3c0.6-0.4,1.5-0.4,2.1-0.1c1.8,0.8,0.5,3.4-0.4,4.4
			c-1.4,1.5-3.6,0.8-5-0.2c-1.8-1.3-2.4-3.5-1-5.4c0.5-0.6,1.2-1.3,1.3-2.1c0.1-0.8-0.2-1.8,0.8-2.1c0.2-0.1,0.4-0.3,0.5-0.5
			c0.4-1.1,0.1-2.6-0.7-3.7c0.8,1,1.4,2,2,3c0.5,0.9,0.8,1.9,1.4,2.7c0.8,1.2,2.4,1.5,3.6,0.6C78.5,39,73.9,36.9,74.2,39z"/>
	</g>
	<path fill="#771213" d="M67.3,34.1C67.3,34,67.2,34,67.3,34.1c-0.6,5.6-7.2,8-12.1,7.1c-2.5-0.5-4.4-1.6-6.4-3.1
		c-1.3-1-2.7-1.7-4.2-1c-0.8,0.4-1.5,1.1-2.2,1.7c-1,0.7-2.2,1.3-3.4,1.7c-2.3,0.8-4.8,0.8-7.2,0.5c-2-0.2-4-0.8-5.8-1.7
		c-2.2-1.1-3.1-2.7-2.7-5.1c0-0.2-0.3-0.4-0.4-0.2C21,38,25.8,40.2,29,41c4.8,1.3,10.4,0.9,14.4-2.4c1.3-1.1,2.3-1.7,4-0.8
		c1,0.5,1.8,1.3,2.7,2c2.2,1.6,5.1,2.3,7.7,2.3c2.5,0,5.1-1,7-2.6C66.3,38.2,67.9,36.3,67.3,34.1z"/>
	<path fill="#771213" d="M39.1,23.8c-5.9-2.8-14.8-0.1-16.6,6.5c-0.1,0.4,0.5,0.5,0.6,0.1c1.8-6.5,10.3-8.7,16-6.6
		C39.2,23.9,39.2,23.8,39.1,23.8z"/>
	<path fill="#771213" d="M52.9,39.1c-2.5-0.8-4.7-2.8-5.7-5.3c-0.5-1.3-0.6-3.6,0.6-4.6c0.1-0.1,0.3-0.3,0.1-0.2
		c-1.8,0.7-1.8,3.5-1.4,5.1c0.6,2.6,3.8,5.2,6.4,5.1C53,39.2,53,39.1,52.9,39.1z"/>
	<path fill="#771213" d="M44.7,30.2c-0.6-1.7-1.8-3.5-3.6-4.2c-0.1,0-0.2,0.1-0.1,0.2c1.5,0.9,2.5,2.5,2.9,4.2
		c0.3,1.1,0.5,2.1,0.3,3.2c-0.1,1.2-0.7,2-1.1,3.1c0,0.1,0,0.1,0.1,0.1C45.3,35.1,45.6,32.6,44.7,30.2z"/>
	<path fill="#771213" d="M67.5,27.7c-0.2-0.3-0.5-0.4-0.9-0.3c0.4-0.8,0.5-1.6-0.2-2.3c-0.5-0.5-1.2-0.5-1.8-0.2
		c0.2-0.6,0.2-1.2-0.4-1.7c-0.6-0.5-1.4-0.2-1.9,0.3C62.3,22.7,62,22,61.3,22c-0.6,0-1.2,0.2-1.5,0.6c-0.2-0.6-0.5-1-1.3-1
		c-0.8,0-1.5,0.4-1.9,1c-0.8-1.3-2.9-0.7-3.2,0.8c-1.2-1.1-2.6,0.1-2.7,1.7c-0.5-0.4-1.2-0.6-1.9-0.4c-0.8,0.3-1,1.1-1,1.8
		c-0.2-0.1-0.4-0.2-0.7-0.1c-0.5,0.2-0.8,0.5-0.9,0.8c-0.2-0.5-0.5-1-1-1.1c-0.2,0-0.5,0-0.6,0.1c0-0.9-0.2-2-1.1-2.1
		c-0.5-0.1-0.8,0-1.1,0.3C42.3,23.3,42,22,41,21.8c-0.8-0.2-1.4,0.1-1.9,0.7C39,21.7,38.7,21,38,20.8c-0.9-0.2-1.5,0.1-1.7,0.8
		c-0.6-0.9-1.5-1.6-2.6-1.4c-0.8,0.2-1,0.8-1,1.4c-0.8-0.6-1.7-0.8-2.6-0.5c-0.7,0.2-0.7,0.8-0.6,1.3c-0.7-0.3-1.5-0.3-2.1,0.2
		C27,23,26.9,23.4,27,23.8c-0.8-0.2-1.7-0.2-2.2,0.4c-0.4,0.4-0.5,0.9-0.4,1.3c-0.4,0-0.8,0.2-1.1,0.5c-0.4,0.5,0.1,1.1,0.5,1.3
		c0.3,0.1,0.5-0.3,0.2-0.4c0.1-0.3,0.2-0.5,0.3-0.8c0.2,0,0.4,0,0.7,0.1c0.3,0.1,0.4-0.3,0.2-0.5c-0.3-0.9,0-1.4,0.8-1.4
		c0.5-0.1,1.1,0.1,1.5,0.4c0.3,0.2,0.6-0.3,0.3-0.5c-0.1-1.2,0.3-1.6,1.2-1.3c0.4,0.1,0.8,0.3,1.2,0.6c0.3,0.2,0.7-0.2,0.4-0.4
		c-1-0.8-0.5-1.7,0.8-1.5c0.7,0.1,1.4,0.7,1.8,1.3c0.2,0.3,0.7,0,0.5-0.3c-0.7-0.9-0.1-2.4,1.2-1.7c0.6,0.3,1.1,1,1.3,1.6
		c0.1,0.3,0.5,0.2,0.5-0.1c0-0.1,0-0.2,0-0.3c1-0.8,1.7-0.7,1.9,0.2c0.1,0.3,0.2,0.7,0.2,1.1c0,0.3,0.4,0.3,0.5,0.1
		c0.3-1.5,1.9-1.4,2.4-0.1c0.2,0.6,0.2,1.4,0.2,2.1c0,0.3,0.5,0.4,0.5,0.1c0.1-0.2,0.2-0.5,0.2-0.7c1,0,1.4,0.4,1.3,1.2
		c0,0.3,0,0.7,0,1c0,0.3,0.5,0.4,0.5,0.1c0.8-0.2,1.2,0,1.2,0.7c0.1,0.2,0.1,0.5,0.2,0.8c0.1,0.3,0.5,0.2,0.5-0.1
		c-0.1-0.4,0-0.8,0.2-1.1c0.6-1.4,1.3,0.2,1.4,0.4c0.1,0.3,0.6,0.1,0.5-0.2c-0.2-0.4-0.2-0.7-0.2-1.1c-0.1-1.6,1.9-1.8,2.5-0.5
		c0.1,0.3,0.6,0.2,0.5-0.2c-0.4-1.4,1-3.5,2.2-1.5c0.2,0.3,0.6,0.1,0.5-0.2c-0.4-1.6,2.2-2.7,2.4-0.7c0,0.3,0.5,0.3,0.5,0
		c0-0.9,0.8-1.1,1.4-1.3c1-0.3,1,0.8,1.1,1.3c0,0.4,0.5,0.3,0.6,0c0.1-0.8,1.4-1.4,1.8-0.4c0.1,0.3,0.1,0.8,0.1,1.1
		c0,0.3,0.4,0.4,0.5,0.1c0.3-0.9,1.9-1.2,1.8,0.2c-0.1,0.3-0.1,0.5-0.3,0.7c-0.1,0.3,0.2,0.5,0.4,0.3c0.8-0.7,2.3-0.5,1.9,1.1
		c-0.1,0.4-0.4,0.8-0.6,1.1c-0.2,0.2,0.2,0.5,0.4,0.4c1-0.2,1.4,0.2,1.1,1.2c-0.1,0.4-0.2,0.7-0.4,1.1c-0.1,0.4,0.4,0.5,0.6,0.1
		C67.8,29.6,68.2,28.7,67.5,27.7z"/>
	<path fill="#D32027" d="M32,23.3c0,0-3.8,0.7-6,2.8c-2.3,2.1-3.2,4.3-2.6,4.2c0.6-0.1,1.1-0.7,0.8,0c-0.3,0.8,0.6,0.7,1,0.3
		c0.4-0.4,0.2,0.7,0.8,0.7c0.6,0.1,1,0.4,2.1-0.3c1.1-0.7,3.4-1.8,4.3-1.9c1-0.2,1.7-0.3,2.6-0.2c0.9,0.1,1.1,0,0.8-0.2
		c-0.3-0.2,0.6,0,2.1-0.8c1.6-0.8,1.7-2.1,1.4-2.4c-0.3-0.2,0.9-0.3,1.4-0.1c0.5,0.2,0.5-0.3-1-1C38.2,23.7,36.3,22.7,32,23.3z"/>
	<path fill="#EF4137" d="M35.3,29c0,0-2.3-0.3-4.3,0.7c-2,0.9-2.5,1.4-2.5,1.2c-0.1-0.2,1.5-1.8,3.4-2.2
		C33.7,28.2,35.6,28.9,35.3,29z"/>
	<path fill="#EF4137" d="M39.5,24.5c0,0-2.5-2.1-7.6-1.1c-5.1,1-7.8,4.1-8.4,5.6c-0.5,1.5-0.5,1.5-0.5,1.5s1-2.2,1.9-3.1
		c0.9-0.9,1.6-1.3,1.3-1.1c-0.3,0.2-1.2,1.4-0.7,1.2c0.5-0.1,1.3-0.6,1.3-0.6s2.8-0.3,5-0.8c2.2-0.6,4.3-1.3,3.9-1.8
		c-0.4-0.4,1.8-0.2,2.2-0.2c0.4,0-0.1-0.3-0.1-0.3S39,24.2,39.5,24.5z"/>
	<path fill="#EF4137" d="M29.3,27.4c0,0,3.7-0.1,4.6-1c0.3-0.3-0.9-1.1-3.8,0C28.9,26.8,28.5,27.4,29.3,27.4z"/>
	<path fill="#D32027" d="M66.8,31.4c0,0-1.1-7.1-7.5-7.6c-6.4-0.5-8.3,3.6-12,4.7c0,0-0.8,0.6-3-0.8c-2.2-1.4-2.9-2.2-2.9-2.2
		s3.2,3,4,3.8c0.8,0.8,0.8,2,0.8,2s-0.9-0.2-0.5,0.6c0.4,0.8,0.7,2,0.1,1.4c-0.6-0.6-0.7-0.2,0,1.1c0.7,1.3,0,0.7-0.5,0.6
		c-0.4-0.1-1,0.4-0.1,0.8c0.9,0.4-0.2,0-1.3,1c-1,1-3.3,2.8-3.3,2.8s2.3-1.2,4.1-2.7c1.7-1.5,3.1,0.5,3.9,1.2
		c0.8,0.7,3.9,2.3,4.7,2.5c0.8,0.2,0.8,0.2,0.8,0.2s2.8-0.8,4.3-4.7c1.5-3.9,1.3-5.1,1.3-5.1s-1.6,5.2-3,7c-1.4,1.7-5.8,0.1-8.1-3.5
		c-2.3-3.6-0.6-5.3-0.6-5.3s-1.6,1.3-1,3.7c0.6,2.4,1.6,4,5.3,5.9c0,0,0.7,0.6-1.2-0.1c-1.9-0.7-4-2.3-4.6-4.7
		c-0.6-2.4-0.2-4.2,1.4-5.1c1.6-0.8,3.2,1.4,5,0.9c1.8-0.5,0.9,1.2,1.8,1.2c0.9,0,2.8-0.5,2.8-0.5s0.3,0.9,1.4,0.4
		c1-0.5,2.8,0,3.7,0.4c0.9,0.4,0.4-1.1,0-1.5c-0.4-0.4,1.9-0.8,1.4-2.3c-0.4-1.5-0.3-1.2-0.3-1.2S65.7,28.3,66.8,31.4z"/>
	<path fill="#EF4137" d="M42.3,26.2c0,0,2.8,2.3,3.9,2.4c1.1,0.1,2.9-0.8,4.9-2.5c2-1.7,6.1-2.8,8.3-2.3c2.2,0.5,3,1,3,1
		s-2.4-0.7-3.1-0.7c-0.7,0,0.1,0.4-0.1,0.8c-0.1,0.3-0.2,1.4-0.6,1.7c-0.4,0.3,0.4,0.9,0.1,1.1c-0.3,0.3-3.1,1.3-3.5,0.7
		c-0.4-0.6-1.7,0-3.2,0c-1.5,0-2.2-0.9-2.2-0.9s-1.9,1.1-2.5,2.1c-0.6,1-0.6,1-0.6,1s0.5-1.7,0.9-2c0.4-0.3-0.9,0.9-2,0.3
		C44.7,28.5,42.3,26.2,42.3,26.2z"/>
	<path fill="#EF4137" d="M58,30.5c0,0,2-0.3,3,0c1,0.2,1.6,0.1,1.2-0.4c-0.4-0.5-3.1-0.2-3.6-0.1C58,30.1,57.8,30.5,58,30.5z"/>
	<path fill="#D32027" d="M41,26.2c0,0,3.9,2.2,3.4,6.2c-0.6,4-1.2,4.3-1.2,4.3s0.8-4.3,0.4-6.5C43.1,28,41,26.2,41,26.2z"/>
	<path fill="#D32027" d="M34.4,29.5c0,0-1.6,1.3-0.5,4.9c1.1,3.5,3.1,5.4,3.7,5.8c0.5,0.3,0.5,0.3,0.5,0.3s-3.6-0.5-4.5-5.7
		c0,0-0.6-2.4-0.3-3.4c0.3-1,0.5-1.4,0.5-1.4s-2.3,0.1-5.3,2.5c-3,2.4-3.5,3.9-3.5,3.9S27.6,29.9,34.4,29.5z"/>
	<path fill="#D32027" d="M60.1,31.3c0,0-0.1,1.4-0.6,3.1C59,36,59,36,59,36s1.1-1.2,1.3-2.5c0.2-1.3,0.2-1.3,0.2-1.3s1.4,0.1,2.5,1
		c1.1,0.9,1.1,0.9,1.1,0.9S62.5,32.1,60.1,31.3z"/>
	<path fill="#8E191C" d="M33,30.4c0,0-3.5,1.2-4.8,2.5c-1.3,1.3-1.5,1.4-0.9,1.1c0.6-0.3,2.3-1.6,2.6-1.6c0.3,0-0.3,1.2,0.4,1
		c0.7-0.2,0.5,1.2,1.2,1.6c0.7,0.4,2.1,2.7,2.3,2.1c0.2-0.6-1-2.7-1-4.6C32.9,30.6,33,30.4,33,30.4z"/>
	<path fill="#8E191C" d="M22.9,30.4c0,0,0.7,1.3,0.6,2.5c-0.1,1.2-0.6,1-0.4,2.6c0.3,1.6,0.4,3,4.5,4.6c4.1,1.6,8.8,1.1,9.8,0.9
		c0.9-0.3,0.9-0.3,0.9-0.3s-1.4-0.2-2.5-1.1c-1.1-1-1.2-1.2-1.2-1.2s0.4,0.8,0.9,1.3c0.6,0.5-2.7,0.8-5.5,0.2
		c-2.8-0.6-5.2-1.7-4.8-2.7c0.4-1-0.1-1.1-0.5-0.3c-0.4,0.8-0.5-0.5,0.1-1.7c0.7-1.3,0.2-0.9-0.2-0.8c-0.4,0.1-0.1-0.6-0.6-2.2
		C23.7,30.5,22.9,30.4,22.9,30.4z"/>
	<path fill="#8E191C" d="M44.5,31.9c0,0-0.1,2.2-0.4,3.3c-0.3,1.2-0.6,1.5-0.3,1.2c0.3-0.3,1.1-0.6,0.8-0.3c-0.3,0.3-2.2,2.1-3,2.7
		c-0.8,0.6-2.3,1.5-2.3,1.5s-2.1,0.3-4.1-3.9c-2-4.1-1-6-0.7-6.5c0.2-0.5,0.5-0.5,0.1-0.6c-0.4-0.1-0.7,0-0.7,0s0.5-0.2,1.3,0
		c0.8,0.2,0.4,0.1,0.1,0.2c-0.3,0.1-1.2,1.3-1.1,3.1c0.2,1.8,1.3,4.3,2.5,5.4c1.2,1.1,3.8,1,5.2-0.3C43.3,36.5,44.5,34.2,44.5,31.9z
		"/>
	<path fill="#8E191C" d="M60.5,32.2c0,0-0.9,2.4-1.7,4c-0.8,1.7-1.8,3.1-2.5,3.9c-0.7,0.7-1.1,1.1-1.1,1.1s1.6,0.7,4.3,0
		c2.7-0.7,3.2-1.1,3.2-1.1s-1.8,0.5-2.8,0.6c-1,0.1-2.1-0.5-2.1-0.5s2.9-0.6,3.9-2.1c1-1.4,0.8-1.3,0.4-1.5
		c-0.4-0.2,0.8-1.3,0.9-2.1c0.1-0.8-0.1-1.3-0.9-1.8C61.3,32.3,60.6,32,60.5,32.2z"/>
	<path fill="#8E191C" d="M59.7,30.7c0,0,2.5,0.5,4.1,2.1c1.6,1.6,2.7,3.4,2.7,3.4s-1-2.2-1.8-3.3c-0.8-1.1,0.1-0.8-0.2-1.4
		c-0.3-0.6-0.6-1-0.6-1s0.5,0.4,0.6-0.8c0.2-1.2-0.3-2.3-0.6-2.8c-0.3-0.4-0.3-0.7-0.3-0.4c0,0.2,0.5,1.6-0.1,2
		c-0.6,0.4-1.4,1.2-1.1,1.3c0.3,0.1,0.6,1.4,0.3,1.3c-0.4-0.1-0.9-0.3-1.7-0.4C60.3,30.7,59.7,30.7,59.7,30.7z"/>
	<path fill="#9F1D20" d="M62.7,29.9c0,0,0.6,0.3,1.1,0.7c0.5,0.4,0-0.1,0-0.3c-0.1-0.1,0.7-0.4,0.2-0.7
		C63.4,29.3,62.6,29.6,62.7,29.9z"/>
	<path fill="#9F1D20" d="M63.1,31.5c0,0,1.2,1,1.2,0.7C64.2,32,62.7,30.9,63.1,31.5z"/>
	<path fill="#D32027" d="M30.7,31.5c0,0,1.5-0.8,1.8-0.8c0.4,0,0.2,0.7,0.1,1.1c0,0.5,0.1,0.8,0.1,0.8s-0.3-0.7-0.3-1.1
		c0-0.4-0.3-0.3-0.7-0.2C31.4,31.4,30.7,31.5,30.7,31.5z"/>
	<path fill="#771213" d="M37.3,22.7c-0.1,0.4,0.2,0.7,0.6,0.7c0.2,0,0.3-0.1,0.4-0.3c0,0,0,0,0,0C38.7,22.4,37.5,21.9,37.3,22.7z"/>
	<path fill="#771213" d="M35,21.8c-0.2-0.2-0.6-0.3-0.9-0.2c-0.4,0.2-0.3,0.7,0.1,0.9c0.1,0.2,0.3,0.3,0.6,0.2
		C35.2,22.8,35.3,22.1,35,21.8z"/>
	<path fill="#771213" d="M31.9,22.5c-0.1-0.3-0.6-0.5-0.9-0.3c-0.1,0.1-0.2,0.3-0.2,0.4c0,0.1,0.1,0.1,0.1,0.2
		c0.1,0.2,0.3,0.4,0.5,0.5C32,23.3,32.1,22.8,31.9,22.5z"/>
	<path fill="#771213" d="M28.6,23.1c-0.4,0.1-0.5,0.6-0.3,0.9c0.1,0.1,0.2,0.2,0.4,0.2c0.3,0.1,0.6-0.1,0.7-0.4
		C29.4,23.4,29,22.9,28.6,23.1z"/>
	<path fill="#771213" d="M26.3,24.6c-0.4-0.2-0.8,0-0.8,0.5c0,0.2,0.2,0.4,0.4,0.4c0.1,0.1,0.3,0.1,0.4,0
		C26.7,25.4,26.7,24.8,26.3,24.6z"/>
	<path fill="#771213" d="M41,23.4c-0.1-0.1-0.3-0.2-0.5-0.1c-0.3,0-0.5,0.3-0.5,0.7c0,0.2,0.2,0.5,0.5,0.5c0.3,0.1,0.6-0.1,0.7-0.4
		C41.2,23.8,41.2,23.6,41,23.4z"/>
	<path fill="#771213" d="M43.4,25.6c-0.1,0-0.1-0.1-0.2-0.1c-0.5-0.1-0.7,0.5-0.5,0.9c0.2,0.3,0.6,0.5,0.9,0.2
		C44,26.3,43.9,25.7,43.4,25.6z"/>
	<path fill="#771213" d="M45.5,27.6c-0.1-0.1-0.1-0.1-0.2-0.1c0,0-0.1-0.1-0.1-0.1c-0.1-0.1-0.2,0-0.3,0c-0.2,0.1-0.3,0.4-0.1,0.6
		c0,0,0,0,0,0c0.1,0.1,0.2,0.2,0.3,0.2C45.5,28.2,45.8,27.8,45.5,27.6z"/>
	<path fill="#771213" d="M46.9,27.5c-0.1,0.1-0.1,0.2-0.2,0.3c-0.1,0.2-0.1,0.4,0.1,0.6c0.2,0.3,0.7,0.1,0.8-0.2
		C47.8,27.7,47.3,27.2,46.9,27.5z"/>
	<path fill="#771213" d="M49.4,25.9c0,0-0.1,0-0.1,0.1c0,0-0.1,0-0.1,0.1C49,26.2,49,26.4,49,26.6c0,0.2,0.3,0.4,0.5,0.4
		c0.2,0,0.4-0.1,0.5-0.3C50.3,26.3,49.8,25.8,49.4,25.9z"/>
	<path fill="#771213" d="M52.3,24c-0.2-0.1-0.4,0.1-0.5,0.3c-0.2,0.2-0.2,0.6,0.1,0.7c0.3,0.1,0.6,0,0.7-0.2
		C52.9,24.4,52.7,24.1,52.3,24z"/>
	<path fill="#771213" d="M55.5,23.2c-0.1-0.2-0.3-0.4-0.6-0.4c-0.2,0-0.3,0.2-0.4,0.3c-0.1,0.1-0.1,0.3-0.1,0.5
		c0.1,0.4,0.8,0.5,1,0.1c0-0.1,0-0.1,0-0.2C55.6,23.4,55.6,23.3,55.5,23.2z"/>
	<path fill="#771213" d="M58.4,22.3c-0.4-0.2-0.7,0.3-0.6,0.6c0,0.4,0.3,0.7,0.7,0.5C58.9,23.1,58.9,22.5,58.4,22.3z"/>
	<path fill="#771213" d="M61.5,23.2c-0.2-0.2-0.4-0.4-0.7-0.3c-0.2,0-0.4,0.2-0.4,0.5c0,0.2,0.1,0.4,0.3,0.5
		c0.2,0.1,0.5,0.1,0.7-0.1C61.6,23.7,61.7,23.4,61.5,23.2z"/>
	<path fill="#771213" d="M63.9,24.4c-0.2-0.3-0.6-0.4-0.8-0.1c0,0,0,0,0,0c-0.4,0.2-0.2,0.9,0.2,1C63.8,25.3,64.1,24.8,63.9,24.4z"
		/>
	<path fill="#771213" d="M65.9,26.2c0-0.2-0.2-0.4-0.4-0.5c-0.2-0.1-0.4,0-0.6,0.1c-0.2,0.2-0.1,0.5,0,0.8c0.1,0.3,0.5,0.2,0.6,0.1
		c0,0,0,0,0,0C65.8,26.6,65.9,26.4,65.9,26.2z"/>
	<path fill="#771213" d="M66.9,28.5c-0.2,0-0.4,0.1-0.5,0.3c0,0.2,0,0.4,0.1,0.6c0,0,0.1,0,0.1,0.1c0.1,0.1,0.2,0.1,0.3,0.1
		c0,0,0,0,0,0c0.1,0,0.3-0.1,0.3-0.2C67.4,29,67.3,28.6,66.9,28.5z"/>
	<g>
		<path fill="#231F20" d="M52.4,16.8c0,0-0.1-0.1-0.1-0.1c-1.6-2.1-4-3.7-6.6-4c-2.3-0.3-2.5,2.5-2,4.1c0.7,2.4,3.2,3.8,5.5,3.4
			C50.7,19.9,53.2,18.7,52.4,16.8z M49.2,19.4c-2.1,0.5-4-1-4.8-2.9c-0.3-0.7-0.3-1.6-0.2-2.4c0.2-1.4,1.7-0.9,2.5-0.7
			c2,0.6,3.9,2,5.1,3.6c0.1,0.1,0.1,0.1,0.2,0.1C52,18.6,50.4,19.2,49.2,19.4z"/>
		<path fill="#231F20" d="M41.5,14.6c-1.1-1.6-3.8,0.3-5,1.1c-1.5,1-3.4,2.4-1.4,4c1.9,1.5,4.7,0.5,6-1.3
			C41.7,17.5,42.8,15.3,41.5,14.6z M40.6,17.9c-1.1,1.4-3.1,2.2-4.7,1.3c-2.1-1.2,0.5-2.5,1.5-3.2c1.1-0.7,2.5-1.7,3.8-0.9
			c0.1,0,0.2,0,0.2,0C42,15.9,41.2,17.1,40.6,17.9z"/>
		<path fill="#010101" d="M41.1,14.6c0,0-1.8-0.4-4.4,1.3c-2.6,1.7-2.5,2.2-1.1,3.4c1.5,1.2,3.3,1,4.6-0.4c1.3-1.4,1.5-2.8,1.5-3.1
			C41.8,15.3,41.7,14.8,41.1,14.6z"/>
		<path fill="#010101" d="M45.6,12.7c0,0-2.9,0.3-1.7,3.4c1.2,3.1,3.8,4.5,5.8,3.7c2-0.8,3.5-2.2,2.5-3.1c-1-0.9-5.6-3.6-5.6-3.6
			L45.6,12.7z"/>
		<path fill="#231F20" d="M44.1,13.3c0,0-0.3,2.3,3.1,3.9c3.4,1.6,6.1,1.2,4.8-0.7c-1.3-1.9-4.4-3.1-5.7-3.6
			C45.1,12.5,44.2,13,44.1,13.3z"/>
		<path fill="#231F20" d="M40.7,14.3c0,0,0.5,1.2-0.9,2.6c-1.4,1.4-4.9,1.7-5.2,1.1c-0.3-0.6,2.4-2.5,3.7-3.2
			C39.5,14.1,40.7,13.8,40.7,14.3z"/>
		<path fill="#2B2728" d="M45,13c0,0-1.2,1.9,1.6,3.1c2.8,1.2,3.8-0.1,1.9-1.7C46.4,12.7,45.5,13,45,13z"/>
		<path fill="#2B2728" d="M39.5,14.4c0,0-2.1,1.1-1.5,2.1c0.6,1,3.1-1.8,2.4-2.1C39.7,14,39.5,14.4,39.5,14.4z"/>
	</g>
	<path fill="#F06724" d="M21.6,28.1c-0.5-0.5-1.4-1.2-2.1-1.4c-1.2-0.3-2.4,0.2-3.6,0.1c-1.4-0.2-3.1-0.4-3.7,1.2
		c-0.4,1.2,0.5,2.8,1,3.9c0.1,0.1,0.1,0.2,0.1,0.4c-0.7-0.1-1.3,0.5-1.6,1.1c-0.7,1-0.5,2.4,0,3.4c0.3,0.6,0.7,1.3,1.2,1.8
		c-0.9,0.5-0.4,2.5,0.6,2.8c1.2,0.4,2.6-1,2.6-2.2c0,0,0,0,0,0c0.2-0.1,0.3-0.3,0.4-0.5c0-0.1,0.1-0.1,0.1-0.2c0,0,0,0,0,0
		c0,0,0,0,0,0c0,0,0,0,0-0.1c0,0,0-0.1,0-0.1c0.1,0.2,0.2,0.4,0.3,0.6c0.7,1.1,1.8,1.2,2.6,0.2c0.3-0.4,0.3-1,0.1-1.4
		c0-0.1,0-0.1,0-0.2c0-0.4,0.3-0.8,0.6-1.1c0.2-0.2,0.5-0.5,0.7-0.7c0.9,1,0.5,2.3-0.2,3.4c-0.4,0.6-0.9,1.1-1.5,1.3
		c-0.7,0.3-1-0.1-1.6-0.4c-0.2-0.1-0.4,0.1-0.3,0.2c0.2,0.7,1.1,0.9,1.7,0.8c0.8-0.1,1.5-0.7,1.9-1.3c1-1.2,1.4-3.1,0.1-4.2
		c0.1-0.1,0.2-0.2,0.4-0.3C24.7,33.9,23.6,30.2,21.6,28.1z M12.3,37c-0.7-1.2-0.9-4.2,1.1-4.4c0.3,1,0.5,2,0.6,3.1
		c0.1,0.9,0.3,2.2,1,2.9c0,0,0.1,0.1,0.1,0.1C14.1,39.6,12.8,37.8,12.3,37z M13.9,41c-0.5,0.1-0.8-0.5-0.9-0.9
		c-0.2-0.5-0.1-0.9,0.2-1.2c0.3,0.2,0.6,0.4,1,0.5c0.6,0.2,1.2,0.1,1.5-0.3C15.7,40,14.6,40.9,13.9,41z M20.9,35.5
		C20.8,35.5,20.8,35.5,20.9,35.5c-0.5,0.3-0.9,0.7-1.2,1.1c-0.2,0.2-0.3,0.6-0.4,0.9c-0.1,0-0.3,0-0.5,0c-0.3,0.1-0.1,0.5,0.1,0.4
		c0.6-0.1,0.7,1.7-0.6,1.5c-0.4-0.1-0.7-0.6-0.9-0.9c-0.2-0.3-0.3-0.6-0.4-0.9c0,0,0,0,0,0c0.1-0.1,0-0.2-0.1-0.3
		c-0.1-0.5,0-0.9,0.1-1.4c0.5-1.9,2.6-2.7,4.2-3.3c0.1,0,0.1-0.2,0-0.1c-0.6,0.1-1.2,0.2-1.8,0.5c0-0.1,0-0.2,0-0.3
		c0-0.2,0.1-0.5,0.2-0.7c0.2-0.5,0.6-1,1.1-1.3c0,0,0-0.1,0-0.1c-0.5,0.2-0.9,0.6-1.2,1.1c-0.2,0.3-0.5,1-0.4,1.4
		c-0.6,0.3-1.1,0.6-1.5,1.1c0.6-1.2,0.1-3.2-0.9-4.2c0.3-0.3,0.1-0.9-0.1-1.2c0-0.1-0.1,0-0.1,0.1c0.1,0.2,0.1,0.4,0.1,0.5
		c0,0.1-0.1,0.3-0.1,0.4c-0.4-0.3-0.8-0.4-1.3-0.4c-0.1,0-0.1,0.1,0,0.1c1.7,0.3,2.5,3.3,1.8,4.7c-0.1,0.2,0.1,0.4,0.3,0.4
		c-0.7,0.8-1,1.9-0.8,3c-0.2,0.2-0.4,0.5-0.7,0.6c-0.1,0-0.2,0-0.2,0c0,0-0.1,0-0.1,0c-0.3-0.2-0.5-0.8-0.6-1.1
		c-0.3-0.9-0.4-1.8-0.5-2.8c-0.2-1.7-1.1-3.1-1.5-4.7c-0.2-0.6-0.2-1.2,0-1.7c0.5-1,2.1-0.7,2.9-0.5c0.7,0.1,1.3,0.1,1.9,0
		c1.2-0.2,2,0.1,3,0.8c1.1,0.8,1.9,2.1,2.2,3.4c0.3,1.3-0.3,2.5-1.1,3.5c0,0,0,0,0,0C21.4,35.2,21.1,35.4,20.9,35.5z"/>
	<path fill="#9F1D20" d="M17.4,40.1c0,0-1.1,5.2-0.1,7.1l0.4,0.7c0,0,2.9,0,4.4,1.3c1.5,1.2,2.7,2,2.8,3.4c0.1,1.4,0.3,3.2-1.1,4.3
		c-1.4,1.1-4.7,1.7-6,1.7c-1.3,0-5.6,0.1-7.3,1.6C8.8,61.6,9,61.4,9,61.4s2.2,1.1,2.1,2.3c0,1.2-0.6,1.8-1.8,1.7
		c-1.2-0.1-1.5-0.8-1.5-0.8S6.4,61,6.3,58.7c-0.1-2.3,2-8.5,3.3-10.9c1.3-2.4,3.5-3.9,5.1-5.6c1.5-1.7,1.8-3.4,1.8-3.4
		s0.7-0.3,1,0.1C17.9,39.3,17.4,40.1,17.4,40.1z"/>
	<path fill="#D32027" d="M16.3,41c0,0-2.1,4-2.9,4.3c-0.8,0.4,0.4-1.1,0.9-2c0.5-0.9,0.5-0.9,0.5-0.9s-2.4,2.6-3.8,4.2
		c-1.4,1.6-1.9,2.9-1.9,2.9s1.8,4.9,5.7,6.2c3.9,1.3,6.6-1.1,7.8-2.1c1.2-1.1,1.8-1.9,1.8-1.9s-3.3,3.2-6.1,3.5
		c-2.8,0.3-4.9-0.9-5.1-1.3c-0.1-0.4,0.3-0.4,1.3,0.1c0.9,0.5,3.6,0.5,4.4,0.2c0.8-0.2,2.4-0.9,3.5-1.6c1.1-0.7,1.1-0.7,1.1-0.7
		s-6.1,0.6-7.5-1.6c-1.4-2.3,0.1-7.5,0.2-8.4C16.3,41,16.3,41,16.3,41z"/>
	<path fill="#911A1D" d="M18.5,55c-1.3,0.3-3.4-0.2-4.9-1.1c-0.1-0.1-0.2,0.1-0.1,0.1c1.1,1,3.5,1.7,5.2,1.1
		C18.8,55.2,18.6,55,18.5,55z"/>
	<path fill="#EF4137" d="M23.2,52.2c0,0,1.9-0.4-2.7,2.8c-1.3,0.9-3.2,1.3-4.8,0.9c-1.6-0.4-2.7-1.4-2.7-1.4s3.7,1.5,5.2,1.2
		c1.5-0.3,1.4-0.9,0.3-1c-1.2-0.1-1.8,0-3.1-0.5c-1.4-0.6,0.6-1.5,2.1-1.6c1.5-0.2,4.2,0.1,4.8,0C23,52.3,23.2,52.2,23.2,52.2z"/>
	<path fill="#DB1F2D" d="M14.7,44c0,0-1.3,2-1.8,2c-0.5,0,0.1-1,0.8-2c0.7-1,1.2-1.7,1.2-1.7s-2.9,2.9-4,4.4c-1,1.4-1.9,2.7-1.9,2.7
		s0.6,1.6,1.9,3.1c1.3,1.5,1.7,1.7,1.7,1.7s-0.8-1.4-1.6-2.5c-0.8-1.1-1.1-2.5-1.1-2.5s1.3-2.1,1.7-2.6c0.4-0.5,0.4-0.5,0.4-0.5
		s-0.8,1.9,0,2C13,48.3,14.3,45.6,14.7,44z"/>
	<path fill="#EF4137" d="M13.4,44.5c0,0-0.9,1.2-0.5,1.6c0.5,0.3,1.5-1.4,2.1-2.6c0.6-1.2,0.7-1.6,0.7-1.6s-1.2,4.4-2.4,4.8
		C12.2,47.1,12.1,45.4,13.4,44.5z"/>
	<path fill="#DB1F2D" d="M17.5,39.7c0,0-1.5,4-0.8,6.6c0.7,2.4,1.2,4.1,5.9,5.6c0,0,1.6,0.1,1.6-0.7c0-0.8-0.5-1-0.5-1
		s0.9,0.5,0.8,1.2c-0.1,0.8-1.6,0.9-3.4,0.1c-1.8-0.7-3.1-1.1-4.1-3.5C15.9,45.7,15.6,42.4,17.5,39.7z"/>
	<path fill="#D32027" d="M9,49.9c0,0-2.5,4.4-2.2,8.8c0.3,4.4,1,5.8,1.4,6.3c0.3,0.4,0.4,0.3,0.4,0.3s-0.6-0.5-1-2.6
		c-0.4-2.1-0.7-4.7-0.3-6.7c0.4-2.1,0.3-1.5,0.6-0.5c0.3,1,1.4-0.4,1.6-0.3c0.2,0.2,0.2,0.8,0.6,0.9c0.4,0.1,0.5-0.5,0.8-0.2
		c0.3,0.3,1.7,1.7,4.5,1.9c2.8,0.2,5.2-0.3,5.2-0.3s-1.9-1-2-1.1c-0.1,0-5.3,0.7-8.5-4.3C8.8,50.3,9,49.9,9,49.9z"/>
	<path fill="#EF4137" d="M9.1,50.1c0,0,0.3,2.2,2.6,4.2c2.3,1.9,4.7,2.4,5.7,2.4c1,0,1.2-0.1,1.2-0.1s-2.2,1.1-5.4-0.9
		C13.2,55.6,9.2,54.1,9.1,50.1z"/>
	<path fill="#DB1F2D" d="M19.2,56.3c0,0,1.4,1,2.6,1c1.1,0,2.1-1,2.5-1.6c0,0-1.2,1.2-2.5,1c-1.3-0.2-1.5-0.5-1-1
		c0.5-0.4,0.7-0.7,0.7-0.7L19.2,56.3z"/>
	<path fill="#EF4137" d="M11.3,46.2c0,0-2.2,2.9-2.2,3.4c0,0.5,1.1,2.3,1.5,2.7c0.4,0.5,0.6,0.7,0.6,0.7s-1.6-2.7-1.5-3.5
		C9.7,48.9,11.3,46.2,11.3,46.2z"/>
	<path fill="#911A1D" d="M17.7,47.9c0,0,0.3,1.7,3.2,3c2.9,1.3,3.2,0.3,2.6-0.3c-0.6-0.7-0.5-0.9-1-0.5c-0.5,0.4-0.7,0-0.7-0.4
		c0-0.4-0.2-0.2-0.5,0.2c-0.3,0.4-0.6,0.4-0.5-0.4c0-0.7-0.4-1-0.5-0.5c-0.2,0.4-0.6,0.2-0.8-0.2C19.3,48.2,18.3,48,17.7,47.9z"/>
	<path fill="#911A1D" d="M9.1,61.7c0,0,1.7,1.7,1.7,2.3c0,0.6-1.4,0.4-1.1,0.3c0.3-0.1,1.1-0.5,0.4-0.5c-0.8-0.1-1.2,0.2-1.3-0.5
		C8.6,62.6,8.7,62.2,9.1,61.7z"/>
	<path fill="#EF4137" d="M19.1,58.2c0,0-5.2,0.2-7.4,1c-2.2,0.8-3.5,2.4-3.4,3.7c0.1,1.3,0.9,1.7,1.1,1.7C9.5,64.8,9.2,65,9,64.8
		c-0.2-0.2,0,0.8-0.4,0.4C8.1,64.9,8,64.4,8,64.4s0.4,0.3,0.3,0c0-0.2-0.5-0.9-0.4-2c0.1-1.2,1.3-3.3,5.1-3.9
		C16.9,57.9,19.1,58.2,19.1,58.2z"/>
	<path fill="#911A1D" d="M14.7,45.9c0,0-1.5,2.5-1.8,3.2c-0.3,0.8,1.5,2.2,1.6,1.5c0.1-0.7,0.4-2.8,0.8-2.2c0.4,0.6,0.1,0.1,0.3-1.6
		c0.2-1.7,0.3-2.6,0.3-2.6s-0.5,2.1-0.8,2.1C14.7,46.2,14.7,45.9,14.7,45.9z"/>
	<path fill="#771213" d="M15.9,40.3c-0.4,0-1.1,0.2-0.9,0.8c0.2,0.4,0,0.4-0.4,0.1c-0.1,0-0.3,0.1-0.4,0.1c-0.2,0.1-0.4,0.3-0.5,0.5
		c0-0.1-0.1,0.5,0,0.5c-0.2,0-0.7-0.1-0.9,0.1c-0.3,0.3-0.4,0.7-0.2,1c-0.3,0-0.5,0-0.8,0.2c-0.3,0.3-0.3,0.7-0.3,1.1
		c-0.8,0-1.6,0.6-1.3,1.3c-0.8,0-1.1,0.6-1.1,1.4c-1-0.2-1.6,0.9-1.3,1.8c-0.8,0.1-0.9,1-0.7,1.8c-0.9,0.1-1.3,1.6-0.8,2.3
		c-0.7,0.4-0.9,1.3-0.4,1.9c-0.6,0.3-0.7,1.5-0.1,2c-0.6,0.5-0.6,1.6-0.1,2.2c-0.6,0.5-0.6,1.9,0.2,2.3c-0.7,0.7-0.3,2.2,0.6,2.2
		c-0.3,1.1-0.1,2,1.1,1.8c0,0.5,0.1,1.4,0.7,1.4c0.8,0,0.9-0.9,0.6-1.4c-0.1-0.2-0.4,0-0.2,0.2c0,1.2-0.7,0.8-0.6,0
		c0-0.1,0-0.2,0-0.4c0-0.1-0.1-0.2-0.3-0.2c-0.5,0.4-1.7-0.1-0.7-1.6c0-0.3-0.1-0.4-0.3-0.3c-0.8,0.4-1.1-1.3-0.3-1.6
		c0.2-0.1,0.2-0.4-0.1-0.4c-0.9,0.1-0.8-1.7-0.2-1.7c0.3,0,0.3-0.4,0.1-0.5c-0.5-0.2-1-1.7-0.1-1.8c0.2,0,0.3-0.4,0-0.4
		c-0.8-0.2-0.6-1.6-0.1-1.4c0.2,0.1,0.5-0.2,0.3-0.4c-0.5-0.4-0.8-1.5,0.4-1.6c0.3,0,0.4-0.5,0.1-0.5c-0.8-0.1-0.4-1.9,0.4-1.6
		c0.2,0.1,0.5-0.1,0.3-0.4c-0.5-0.5-0.5-1.9,0.5-1.4c0.2,0.1,0.4-0.2,0.2-0.4C8,47.9,8.8,47.7,9.4,48c0.2,0.1,0.4-0.1,0.3-0.3
		c-0.3-0.7,0-1.1,0.9-1.2c0.2,0,0.3-0.2,0.1-0.4c0,0-0.5-0.4,0.1-0.9c0.5-0.5,0.9-0.1,0.9-0.1c0.2,0.1,0.4-0.1,0.3-0.3
		c-0.4-1.1,0.4-1.3,1-1c0,0,0,0,0,0c0,0,0,0,0,0c0,0,0,0,0,0c0.1,0,0.2-0.1,0.2-0.2c-0.9-0.9,0.2-1.2,0.8-1c0.1,0,0.2-0.1,0.2-0.2
		c-0.3-0.6-0.4-0.9,1-0.9c0.1,0,0.1,0,0.1-0.1c0-0.3,0.1-0.8,0.6-0.8C16.1,40.6,16.1,40.3,15.9,40.3z"/>
	<path fill="#EF4137" d="M12.8,48.5c0,0-1,0.6-0.3,1.7c0.6,1.1,1.5,1.6,1.9,1.3c0.4-0.4,0.6,0.9,0.3,1.3c-0.3,0.4-1.9,0.3-2.8-0.9
		c-0.8-1.2-0.2-2.1-0.1-2.8c0.1-0.7,0-1,0-1s1,0,1.4-0.5c0.4-0.5,0.7-0.5,0.4-0.1C13.3,47.8,12.8,48.5,12.8,48.5z"/>
	<path fill="#911A1D" d="M9.2,55.7c0,0,0.3,2.2,0.8,1.5c0.5-0.7,0.7-0.6,1.1-0.1c0.4,0.4,3.3,0.7,3.3,0.7s-1.8-0.5-2.6-1.2
		c-0.8-0.7-0.8-1.7-1.1-1.3c-0.2,0.4-0.6,0.9-0.9,0.2c-0.3-0.7-0.2-1.1-0.7-0.6c-0.5,0.5-1.2,0-1.2-0.4c0-0.4,0-1.3,0-1.3
		S6.8,55.9,7,58.1c0.2,2.2,0.2,2.2,0.2,2.2s0.2-2.7,0.3-3.8c0.1-1.1,0.1-1.1,0.1-1.1s0.5,1.3,1,0.8C9,55.7,9.2,55.7,9.2,55.7z"/>
	<path fill="#EF4137" d="M24.3,52.8c0,0-2.7,2.1-3.8,2.7c-1.1,0.6-1.3,0.7-1.3,0.7l0.8,0.4c0,0-0.3-0.2-0.1-0.4
		c0.2-0.2,0.6-0.3,0.6-0.3s1,0.8,2.6-0.4C24.8,54.5,24.3,52.8,24.3,52.8z"/>
	<path fill="#F0E23C" d="M21.4,32.6C21.4,32.6,21.4,32.6,21.4,32.6c-0.5,0.2-3.1,1.2-3.9,2.3c-0.9,1.2-0.9,2.3-0.3,3.4
		c0.5,1.1,1.5,1.6,2.1,0.9c0.6-0.7,0.4-1.3,0-1.4c-0.5-0.1-0.8-0.1-0.9-0.5c-0.1-0.4,0.7-0.9,0.7-1.2c0.1-0.4,0-0.5,0-0.5
		s0.2,0.2,0.3-0.2c0.1-0.4-0.3-0.4,0.1-0.9c0.3-0.5,1.4-0.8,2-1.3C21.8,32.7,21.8,32.6,21.4,32.6z"/>
	<path fill="#F0E23C" d="M18.9,27.3c0,0,2.2,0.2,3.3,2.6c1.1,2.4,0.9,3.2,0.3,4.1c-0.6,0.9-0.8,1-1.6,1.5c-0.8,0.4-1.3,1.2-1.3,1.2
		s0.6-1.1,1.4-1.6c0.8-0.5,1.6-1.8,1.5-2.7c-0.1-0.9-0.9-0.7-0.8-1.5c0.1-0.8-0.5-1.8-1.2-2.4c-0.8-0.6-2.9-0.5-3.9-0.7
		c-1-0.2-2.1-0.5-2,0c0.1,0.6,0.2,1.2,0.1,1.6c-0.2,0.4,0.8,0.7,1.1,2.2c0.3,1.5,0.4,2.3,0.2,2.9C15.7,35,16,36,15.6,36.6
		c-0.4,0.6-0.8,0.7-1-0.3c-0.2-1-0.3-3-0.9-4c-0.6-1.1-1.2-2.9-1.1-3.7c0.1-0.8,0.3-1.3,1.1-1.3c0.8,0,2.6,0.2,3.2,0.1
		C17.6,27.3,18.4,27.2,18.9,27.3z"/>
	<path fill="#F0E23C" d="M20.8,30.7c0,0,0.2,0.7-0.4,1.3c-0.6,0.6-1.1,1.1-0.8,0.3C19.9,31.5,20.4,30.7,20.8,30.7z"/>
	<path fill="#F0E23C" d="M21,35.9c0,0,1,0.9,0.3,2.5c-0.7,1.6-1.3,2-1.8,2.1C19,40.7,19,40.7,19,40.7s1.1-0.8,1.3-1.1
		c0.2-0.3,0.1-0.6,0.4-2.1C21,36.1,21,35.9,21,35.9z"/>
	<path fill="#F69321" d="M16.6,28.9c0,0,0.2,0.3,0.2,0.6c0,0.4-0.1,0.6-0.1,0.6s0.8,1,1,1.9c0.1,0.9,0.1,1.6,0.1,1.9
		c0,0.3-0.1,0.4-0.1,0.4s0.9-0.7,1.2-0.9c0.3-0.2,0.3-0.2,0.3-0.2s-0.1-1.1,0.6-1.7c0.7-0.6,0.8-0.7,0.8-0.7s-0.5-0.1-0.9,0
		c-0.4,0.2-0.5-0.5-0.5-0.5s-0.9,0-1.4-0.3C17.2,29.5,16.8,28.9,16.6,28.9z"/>
	<path fill="#F69321" d="M13.4,32.6c0,0,0.4,0.7,0.6,2.2c0.3,1.6,0.5,2.4,0.7,3c0.2,0.6,0.4,0.8,0.4,0.8s-0.3,0.1-0.8-0.2
		c-0.4-0.3-0.5-1.1-0.6-2.6c0-1.6-0.6-2.1-0.7-2.6C13.1,32.8,13.3,32.5,13.4,32.6z"/>
	<path fill="#F69321" d="M13.1,38.9c0,0,0,0.4,0.8,0.9s1.5,0.2,1.6-0.1c0.1-0.3,0.1-0.5,0.1-0.5s-0.5,0.3-1.2,0.2
		C13.6,39.2,13.1,38.9,13.1,38.9z"/>
	<path fill="#F69321" d="M17.3,34.6c0,0-0.6,0.7-0.8,1.7c-0.2,0.9,0,1.4,0,1.4s-0.4,0.7-0.6,0.6c-0.2-0.1-0.2-0.9,0.1-1.9
		c0.3-1,0.5-2.3,0.3-3.9c-0.1-1.6-0.9-2.7-0.9-2.7s0.4,0,1,0.7c0.5,0.7,0.8,1.8,0.9,2.5C17.4,33.8,17.3,34.6,17.3,34.6z"/>
	<path fill="#F69321" d="M21.4,36.4c0,0-0.9,0-1,0.7c-0.1,0.7-0.1,1.9-0.8,2.5c-0.7,0.6-0.3,0.9-0.3,0.9s-0.2,0.3-0.7,0.1
		c-0.5-0.2-0.7-0.4-0.7-0.4l0.2-0.6c0,0,1.6,0,1.7-0.9c0.1-0.9-0.1-1.2-0.1-1.2s-0.1-0.4,0.5-1c0.6-0.6,0.9-0.7,0.9-0.7
		S21.2,35.8,21.4,36.4z"/>
	<path fill="#FFFFFF" d="M21.3,32.7c0,0-3.1,1.4-3.7,2.5c-0.5,1.1-0.6,2.5,0.1,3.3c0.6,0.9,1.5,0.7,1.5,0.7s-0.3,0.7-1.3,0.1
		c-0.9-0.6-1.7-2.4-0.8-3.9C18.1,33.9,20.5,32.7,21.3,32.7z"/>
	<path fill="#FFFFFF" d="M13.3,27.3c0,0,0.5,0.6,0.3,1.2c-0.3,0.6-0.4,1,0,2c0.4,1,1.2,2.6,1.3,4.1c0.1,1.5,0.1,2.3,0.4,2.9
		c0.4,0.6,0.8,0.5,0.8,0.5s-0.4,0.6-0.9,0.1c-0.5-0.5-0.8-2.6-1-4.1c-0.2-1.6-1.2-2.6-1.5-4.1C12.5,28.5,12.6,27.5,13.3,27.3z"/>
	<path fill="#FFFFFF" d="M13,32.8c0,0-0.8,0.5-0.8,1.6c0,1.2,0.2,1.6,0.6,2.5c0.4,0.9,0.8,1.6,1.2,1.8c0.4,0.2,0.9,0.2,0.9,0.2
		s-0.2,0.4-1.1-0.1c-0.9-0.5-2-1.7-2.1-3.3C11.6,33.8,12.1,32.9,13,32.8z"/>
	<path fill="#FFFFFF" d="M13.2,39c0,0-0.2,0.9,0.2,1.6c0.5,0.7,1.6-0.4,1.9-0.7c0.3-0.3,0.3-0.6,0.3-0.6s-0.2,1-1,1.4
		c-0.8,0.5-1,0.8-1.6,0.1C12.6,40,12.8,38.9,13.2,39z"/>
	
		<ellipse transform="matrix(0.9997 -2.435697e-002 2.435697e-002 0.9997 -0.5884 0.9013)" fill="#FAFAFA" cx="36.7" cy="24.6" rx="1.4" ry="1.1"/>
	
		<ellipse transform="matrix(0.9997 -2.427815e-002 2.427815e-002 0.9997 -0.6259 0.6916)" fill="#FAFAFA" cx="28.2" cy="26.1" rx="1.4" ry="1.1"/>
	
		<ellipse transform="matrix(0.9997 -2.443560e-002 2.443560e-002 0.9997 -0.676 0.8094)" fill="#FAFAFA" cx="32.8" cy="28.1" rx="1.4" ry="1.1"/>
	
		<ellipse transform="matrix(0.9997 -2.429553e-002 2.429553e-002 0.9997 -1.2842 0.5087)" fill="#FAFAFA" cx="20.3" cy="53.1" rx="1.4" ry="1.1"/>
	
		<ellipse transform="matrix(0.9997 -2.462286e-002 2.462286e-002 0.9997 -1.3228 0.3738)" fill="#FAFAFA" cx="14.5" cy="53.9" rx="1.2" ry="1.1"/>
	
		<ellipse transform="matrix(0.9997 -2.444091e-002 2.444091e-002 0.9997 -1.3228 0.2267)" fill="#FAFAFA" cx="8.6" cy="54.2" rx="1.2" ry="1.1"/>
	
		<ellipse transform="matrix(0.9997 -2.444805e-002 2.444805e-002 0.9997 -1.1806 0.2873)" fill="#FAFAFA" cx="11.2" cy="48.4" rx="1.2" ry="1.1"/>
	
		<ellipse transform="matrix(0.9997 -2.454754e-002 2.454754e-002 0.9997 -1.4165 0.3087)" fill="#BCBCBC" cx="11.9" cy="57.9" rx="1.2" ry="1.1"/>
	
		<ellipse transform="matrix(0.9997 -2.424864e-002 2.424864e-002 0.9997 -1.4533 0.2154)" fill="#BCBCBC" cx="8.2" cy="60" rx="1.2" ry="1.1"/>
	
		<ellipse transform="matrix(0.9997 -2.434572e-002 2.434572e-002 0.9997 -1.3917 0.4672)" fill="#BCBCBC" cx="18.5" cy="57.4" rx="1.2" ry="1.1"/>
	
		<ellipse transform="matrix(0.9997 -2.425546e-002 2.425546e-002 0.9997 -1.1817 0.3984)" fill="#FAFAFA" cx="15.8" cy="48.9" rx="1.2" ry="1.1"/>
	
		<ellipse transform="matrix(0.9997 -2.451094e-002 2.451094e-002 0.9997 -0.6678 1.4834)" fill="#FAFAFA" cx="60.2" cy="28" rx="1.4" ry="1.1"/>
	
		<ellipse transform="matrix(0.9997 -2.459354e-002 2.459354e-002 0.9997 -0.6331 1.3394)" fill="#FAFAFA" cx="54.1" cy="26.4" rx="1.4" ry="1.1"/>
	
		<ellipse transform="matrix(0.9997 -2.451314e-002 2.451314e-002 0.9997 -0.753 0.6243)" fill="#BCBCBC" cx="25.1" cy="31" rx="1.4" ry="1.1"/>
	
		<ellipse transform="matrix(0.9997 -2.435191e-002 2.435191e-002 0.9997 -0.6939 0.9728)" fill="#BCBCBC" cx="39.6" cy="29" rx="1.4" ry="1.1"/>
	
		<ellipse transform="matrix(0.9997 -2.435370e-002 2.435370e-002 0.9997 -0.7939 0.8996)" fill="#BCBCBC" cx="36.5" cy="33" rx="1.4" ry="1.1"/>
	
		<ellipse transform="matrix(0.9997 -2.452847e-002 2.452847e-002 0.9997 -0.8266 1.0553)" fill="#BCBCBC" cx="42.6" cy="34.2" rx="1.3" ry="1.1"/>
	
		<ellipse transform="matrix(0.9997 -2.452998e-002 2.452998e-002 0.9997 -0.7297 1.1967)" fill="#BCBCBC" cx="48.4" cy="30.3" rx="1.3" ry="1.1"/>
	
		<ellipse transform="matrix(0.9997 -2.435069e-002 2.435069e-002 0.9997 -0.7657 1.3392)" fill="#BCBCBC" cx="54.6" cy="32.1" rx="1.3" ry="1.1"/>
	
		<ellipse transform="matrix(0.9997 -2.444096e-002 2.444096e-002 0.9997 -0.8764 1.2543)" fill="#BCBCBC" cx="50.9" cy="36.5" rx="1.3" ry="1.1"/>
	
		<ellipse transform="matrix(0.9997 -2.461899e-002 2.461899e-002 0.9997 -0.9166 1.3944)" fill="#BCBCBC" cx="56.2" cy="37.9" rx="1.3" ry="1.1"/>
	
		<ellipse transform="matrix(0.9997 -2.444115e-002 2.444115e-002 0.9997 -0.8314 1.5305)" fill="#BCBCBC" cx="62.2" cy="34.8" rx="1.3" ry="1.1"/>
	
		<ellipse transform="matrix(0.9997 -2.425412e-002 2.425412e-002 0.9997 -0.7271 1.5909)" fill="#BCBCBC" cx="65.2" cy="30.8" rx="1.2" ry="1.1"/>
	
		<ellipse transform="matrix(0.9997 -2.443963e-002 2.443963e-002 0.9997 -0.9395 1.5344)" fill="#BCBCBC" cx="62.3" cy="39.2" rx="1.3" ry="1.1"/>
	
		<ellipse transform="matrix(0.9997 -2.442925e-002 2.442925e-002 0.9997 -0.9288 0.9908)" fill="#BCBCBC" cx="40.1" cy="38.5" rx="1.4" ry="1.1"/>
	
		<ellipse transform="matrix(0.9997 -2.434374e-002 2.434374e-002 0.9997 -0.828 0.7484)" fill="#BCBCBC" cx="30.3" cy="34.4" rx="1.4" ry="1.1"/>
	
		<ellipse transform="matrix(0.9997 -2.451094e-002 2.451094e-002 0.9997 -0.9474 0.8204)" fill="#BCBCBC" cx="33" cy="39.1" rx="1.4" ry="1.1"/>
	
		<ellipse transform="matrix(0.9997 -2.427596e-002 2.427596e-002 0.9997 -0.8936 0.6484)" fill="#BCBCBC" cx="26.3" cy="37.1" rx="1.4" ry="1.1"/>
	<path fill="#771213" d="M66.9,36.9c-1.2-2.7-4-5.8-7.2-6.2c0,0,0,0-0.1,0c0,0,0,0-0.1,0c-0.1,0-0.1,0-0.2,0c-0.1,0-0.2,0.2-0.1,0.2
		c0.1,0,0.2,0.1,0.3,0.1c0.3,1.4-0.7,3.2-1.2,4.5c-0.9,2.1-2.1,4.4-4.3,5.4c-0.3,0.1-0.2,0.6,0.1,0.5c2.5-0.9,3.8-3.6,4.7-5.9
		c0.2-0.6,1.3-3.1,1.1-4.3c1.2,0.5,2.3,1.1,3.4,2c1.2,1.1,2.1,2.4,2.9,3.9C66.6,37.4,67.1,37.2,66.9,36.9z"/>
	<path fill="#411411" d="M27.5,41.6c0,0,4,3.3,15.7,3.8c11.7,0.5,16.3-1.9,18.4-3.1c2.2-1.2,2.2-1.2,2.2-1.2l-5.8,3.5
		c0,0,0.4,8.5-11.9,10C38.2,55.6,29,47.7,27.5,41.6z"/>
	
		<linearGradient id="SVGID_4_" gradientUnits="userSpaceOnUse" x1="21.8811" y1="55.4364" x2="49.6737" y2="55.4364" gradientTransform="matrix(0.9997 -2.440000e-002 2.440000e-002 0.9997 6.5618 -8.7298)">
		<stop  offset="0" style="stop-color:#726659"/>
		<stop  offset="0.3152" style="stop-color:#FFFFFF"/>
		<stop  offset="0.6501" style="stop-color:#D0D2D3"/>
		<stop  offset="0.6781" style="stop-color:#C3BDB7"/>
		<stop  offset="0.7626" style="stop-color:#A68F7A"/>
		<stop  offset="0.8401" style="stop-color:#907054"/>
		<stop  offset="0.9079" style="stop-color:#815C3B"/>
		<stop  offset="0.9635" style="stop-color:#78512E"/>
		<stop  offset="1" style="stop-color:#754D29"/>
	</linearGradient>
	<path fill="url(#SVGID_4_)" d="M29.7,42.9c0,0,0.4,2.5,1.3,3.2c1,0.7,1.5,0.2,1.5,0.2s4.6,3.6,15.3,2.6c7.9-0.7,9.2-1.8,9.3-2.6
		c0.1-0.8,0.4-2.2,0.4-2.2s-3.9,1.6-13.8,1.3C34.7,45.2,29.7,42.9,29.7,42.9z"/>
	<path fill="#9F1D20" d="M37.7,51.5c0,0-1-2,1.6-1.8c2.6,0.2,5.3,1.4,5.3,1.4s5.9-2.1,6.4-0.4c0.7,2.4-3.5,3.8-6.1,3.6
		C42.3,54.2,39.6,53.9,37.7,51.5z"/>
	<path fill="#F06724" d="M28.9,41.6c0,0-0.8-0.6-1.6,0c-0.8,0.6-0.9,1.4-0.9,1.4s-0.1-1.4,0.7-1.9C28,40.7,28.9,41.6,28.9,41.6z"/>
	<path fill="#F06724" d="M27.5,41.6c0,0,0.9,1.9,10.5,3.5c9.6,1.6,17.2,0.1,20.7-1.3c3.5-1.4,4.9-2.6,4.9-2.6s-8.3,4.9-20.2,4.1
		c-11.9-0.8-15.7-3.9-15.7-3.9S27.2,41.3,27.5,41.6z"/>
	<path fill="#F06724" d="M33,52.9c0,0,4.1,4,12.1,3.8c7.1-0.2,9.4-1.7,10.7-2.9c1.4-1.2,1.8-2,1.8-2s-1.9,5.1-11,5.5
		C35.7,57.7,33,52.9,33,52.9z"/>
	<path fill="#F06724" d="M25.2,48.5c0,0,2.9,3.3,6.9,4.9c4.1,1.6,4.1,1.6,4.1,1.6l1.1,1c0,0-6.5-1.9-8.5-3.6
		c-1.5-1.3-3.2-2.9-3.6-3.5C24.8,48.1,25.2,48.5,25.2,48.5z"/>
	<path fill="#F06724" d="M27.5,41.6c0,0,1.3,4.9,6.9,8.9c5.5,4,10,4.8,15.7,3.2c5.7-1.6,7.4-5.8,7.7-7.2c0.3-1.4,0.3-1.8,0.3-1.8
		s2.1-1.4,3-2c0.9-0.6,2.1-1.1,2.1-1.1L63.1,41c0,0,0.6-0.2,0.9,0.3c0.3,0.6,0.1,1.6,0.1,1.6l-0.7-1.1l-4.1,2.7c0,0-0.7,3.4-3,5.7
		c-2.3,2.3-5.4,4.6-11,4.6c-5.6,0-11.3-3.3-14.2-6.7c-3-3.4-4-6.5-4-6.5S27.3,41.1,27.5,41.6z"/>
	<path fill="#771213" d="M23.6,49.6c-0.6-0.6-1.4-1-2.1-1.4c-1.2-0.6-2.6-0.9-4-1c0,0,0,0-0.1,0c-0.2-0.8-0.3-1.7-0.4-2.5
		c0-0.9,0.1-1.8,0.3-2.7c0.2-0.8,0.5-1.5,0.7-2.2c0.1-0.1,0.1-0.2,0.1-0.3c0,0,0-0.1,0-0.1c0,0,0,0,0,0c0-0.1,0-0.2-0.1-0.2
		c-0.1-0.2-0.3-0.4-0.6-0.6c-0.3-0.2-0.7-0.5-1.1-0.3c-0.1,0-0.2,0.2-0.1,0.3c0,0,0,0,0,0c-0.1,0-0.1,0.1-0.1,0.1
		c0,1.6-1.2,2.7-2.2,3.7c-1,1.1-2.1,2.1-3.1,3.2c-1.8,2-3.1,4.5-4,7.1c-0.9,2.6-1.1,5.5-0.7,8.2c0.2,1.6,0.6,3.8,2.1,4.7
		c0,0.1,0.1,0.1,0.2,0.1c0,0,0,0,0.1,0c0.1,0,0.2,0,0.2,0c1,0,2.2,0,2.6-1.1c0.5-1.3-0.9-2.9-2-3.4c0.4-0.5,0.9-1,1.4-1.2
		c1.8-1,4-1,6-1c1.3-0.1,2.7-0.2,4-0.5c2-0.4,4.1-1.4,4.4-3.6C25.4,53.2,25.1,50.6,23.6,49.6z M22.8,49.7c0.3,0.2,0.5,0.5,0.8,0.8
		c0.8,1.1-1.3,0.7-1.4,0.7c-0.9-0.2-1.7-0.6-2.5-1.1c-0.9-0.6-1.5-1.4-1.9-2.3C19.5,48,21.3,48.6,22.8,49.7z M13.9,43.6
		c0.5-0.5,1.1-1.1,1.6-1.8c0,0,0,0.1-0.1,0.1c-0.5,1.1-1.3,2-2,3c0,0.1,0,0.1,0.1,0.1c1.2-0.9,1.9-2.3,2.5-3.6
		c0.4-0.8,0.9-1.7,0.6-2.6c0.1,0.1,0.2,0.1,0.4,0.2c0.2,0.2,0.4,0.4,0.5,0.6c-1.3,1.8-1.3,4.8-1,6.8c0.4,2.6,2.1,4.3,4.5,5.1
		c0.9,0.3,3,0.6,3.2-0.4c0.1,0.2,0.1,0.4,0.2,0.6c-0.1,0-0.1,0.1-0.2,0.1c-0.8,1.3-2.2,2.2-3.5,2.9c-1.7,0.9-3.2,1.6-5.1,1.1
		c-3.1-0.7-5.4-3.4-6.5-6.4c0,0,0,0,0,0C10.4,47.3,12.1,45.5,13.9,43.6z M10.4,63c0.2,0.3,1,1.5,0,1.6C10,64.7,9.2,64.2,9,63.8
		c-0.5-0.6-0.3-1.4,0.1-2.1C9.6,62.1,10,62.5,10.4,63z M10.5,59.5c-0.6,0.3-1.2,0.8-1.6,1.5c-0.2,0-0.3,0.2-0.2,0.3
		c-0.7,1.2-0.8,2.7,0.6,3.4c0.3,0.2,1,0.3,1.5,0.2c-0.5,0.4-1.7,0.4-2.2,0.4C7,63.6,6.9,61,6.8,58.8c-0.1-3,0.7-6,2.1-8.7
		c0-0.1,0.1-0.2,0.1-0.3c1,3.4,3.4,5.9,6.9,6.8c1,0.2,1.9,0.1,2.7-0.2c0.6,0.5,1.3,0.8,2,1.1c0.2,0.1,0.5,0.1,0.8,0.1c0,0,0,0,0,0
		C17.8,58.8,13.9,57.8,10.5,59.5z M22.4,57.3c-0.1,0-0.3,0-0.4,0c-0.3-0.2-0.8-0.2-1.1-0.3c-0.7-0.1-1.2-0.5-1.8-0.8
		c0.6-0.2,1.1-0.5,1.6-0.8c1.5-0.8,2.8-1.7,3.8-3c0.1,0.6,0.1,1.3,0.2,1.8C24.8,55.9,23.7,56.8,22.4,57.3z"/>
	<path fill="#EB2227" d="M43.1,51c0,0-4.3-1.6-4.5-0.9c-0.2,0.7,1.4,2.5,3.5,3c2.1,0.5,4.8,1.1,6.7-0.5c1.9-1.7,1.1-2.8-1.2-1.9
		c-2.3,0.9-2.6,1-3.2,0.9C43.8,51.5,43.5,51.2,43.1,51z"/>
	<path fill="#EF4137" d="M39.1,50.5c0,0-0.1,0.4,1.1,1.2c1.2,0.8,4.8,1.6,6.1,1.4c1.3-0.3,2.4-0.8,2.9-1.5c0.5-0.7,0.4-1.1,0.1-1.1
		c-0.3,0-0.4,0.8-1.2,1.3c-0.8,0.5-1.7,1.1-3.8,0.8c-2.1-0.3-4.3-1.4-4.7-1.9C39.3,50.1,39.3,50.2,39.1,50.5z"/>
	<path fill="#F0E23C" d="M27.1,41.9c0,0,2.3,5.5,6.8,8.7c4.5,3.2,10,5.4,16,3.4c5.3-1.8,7.1-4.2,8.1-6.6c1-2.4,1.2-2.9,1.2-2.9
		s-0.3,3.3-2.8,5.9C54,53,51.3,54,51.3,54s1.1,1-1.6,1.7c-2.7,0.7-5-0.5-5-0.5s-2.3,1.4-5.5,0.3c-3.2-1.1-2.3-2.2-2.3-2.2
		S29,48.5,27.1,41.9z"/>
	
		<ellipse transform="matrix(0.9997 -2.410952e-002 2.410952e-002 0.9997 -1.3137 1.0095)" fill="#F5F6F6" cx="41.2" cy="55" rx="1.1" ry="0.5"/>
	
		<ellipse transform="matrix(0.9997 -2.433898e-002 2.433898e-002 0.9997 -1.3296 1.1489)" fill="#F5F6F6" cx="46.5" cy="55.2" rx="0.8" ry="0.3"/>
	<path fill="#F5F6F6" d="M30,43.1c0,0,0.4,2.4,1.3,2.9c0.8,0.5,1.1,0,1.1,0l0-1.3c0,0,0.3,1.4,1.5,2c1.1,0.7,6.5,2.3,12.8,2.1
		c6.3-0.3,8.2-1.1,8.7-2.2c0.5-1.1,0.4-1.3,0.4-1.3s-0.1,0.9-0.2,1.4c-0.1,0.6-0.1,0.6-0.1,0.6s1.2,0,1.5-0.7
		c0.4-0.7,0.6-2.6,0.6-2.6l0.2,0c0,0-0.3,2.4-0.6,2.9C56.8,47.5,55.3,48,55,48c-0.3,0-0.3,0-0.3,0s-5.6,1.4-10.6,1.2
		c-5-0.2-8.4-1.2-10.1-2c-1.7-0.8-1.5-0.9-1.5-0.9s-0.9,0.6-1.8-0.4c-0.9-1-1-3-1-3L30,43.1z"/>
	<path fill="#F5F6F6" d="M48.4,51.8c-0.1-0.1-0.3,0.1-0.3,0.2c0,0.1,0.1,0.2,0.1,0.3c0,0.3,0.5,0.3,0.5,0
		C48.8,52.1,48.6,51.9,48.4,51.8z"/>
	<path fill="#F5F6F6" d="M47.9,52.3c-0.1,0-0.1,0-0.2,0c-0.1,0.1-0.1,0.1-0.1,0.2c0,0.3,0.3,0.4,0.4,0.1C48,52.5,48,52.4,47.9,52.3z
		"/>
	<path fill="#F5F6F6" d="M47,52.6c-0.8,0.2-1.6,0.3-2.4,0.3c-1,0-2-0.3-3-0.4c-0.1,0-0.1,0.1-0.1,0.1c1,0.4,2,0.3,3,0.5
		c0.8,0.1,1.8,0.1,2.5-0.4C47.2,52.7,47.1,52.6,47,52.6z"/>
	<path fill="#F5F6F6" d="M41,51.8c-0.1-0.4-0.6-0.1-0.4,0.2C40.7,52.2,41.1,52,41,51.8z"/>
</g>
</svg>
