<?xml version="1.0" encoding="utf-8"?>
<!-- Generator: Adobe Illustrator 18.0.0, SVG Export Plug-In . SVG Version: 6.00 Build 0)  -->
<!DOCTYPE svg PUBLIC "-//W3C//DTD SVG 1.1//EN" "http://www.w3.org/Graphics/SVG/1.1/DTD/svg11.dtd">
<svg version="1.1" id="Layer_1" xmlns="http://www.w3.org/2000/svg" xmlns:xlink="http://www.w3.org/1999/xlink" x="0px" y="0px"
	 viewBox="0 0 82 82" enable-background="new 0 0 82 82" xml:space="preserve">
<g>
	<g>
		<path fill="#C9717C" d="M28,24c0,0,0.4-0.8,1-1.3c0.7-0.4,1-0.7,1.2-0.3c0.2,0.4,0.7,2.4,0.8,3c0,0.6,0.1,1.5-0.5,2.6
			c-0.6,1.1-0.7,1.7-0.7,2.1c0,0.5,0.3,0.7,0.3,0.7s0.4-1.4,0.9-2.5c0.4-1.1,0.9-1.6,0.8-1.8c-0.1-0.2-0.2-0.5-0.2-0.5
			s0.7,0.9,0.5,1.6c-0.1,0.7-0.1,0.7-0.1,0.7s0.2,0.5-0.1,1.7c-0.4,1.2-0.8,2.3-0.9,2.3c-0.1,0-0.1,0.7-0.5,1.2
			c-0.4,0.6-0.9,1-0.9,1s-0.1,0.3-0.6,0.7c-0.5,0.4-1,0.5-1,0.5s-0.4,0,0,0.2c0.4,0.2,0.6,0.7,0.6,0.7s-1,0.1-1.5,0.3
			c-0.5,0.3-0.9,0.7-0.9,0.7l0.1,0.5l-1.5-0.1l0.2,1.1l-0.8-0.9L28,24z"/>
		<path fill-rule="evenodd" clip-rule="evenodd" fill="#B7606B" d="M31.8,28.5c-0.1,1.4-0.5,2.6-1.4,3.7c-0.2,0.3-0.5,0.5-0.8,0.8
			c0.6-1.4,1.3-2.6,2-4c0.5-1.1,0.7-2.2-0.1-3.1c-0.1-0.1-0.2,0-0.1,0.1c0,0,0,0,0,0.1c0,0,0-0.1-0.1-0.1c-0.1,0-0.2,0-0.1,0.1
			c0.5,0.7-0.4,1.9-0.7,2.5c-0.3,0.6-0.6,1.3-0.7,2.1c0-0.3,0-0.5,0-0.8c0.6-1.1,1.2-2.3,1.3-3.5c0.1-1.4-0.6-2.9-0.9-4.3
			c0-0.1-0.1-0.1-0.2,0c-0.4-0.2-0.9,0.3-1.1,0.6c-0.3,0.3-0.9,0.9-0.8,1.3c0,0.1,0.1,0.1,0.2,0.1c0.1-0.1,0.1-0.1,0.2-0.2
			c0,0.4,0.1,0.7,0.3,0.9c0.1,0.1,0.2,0,0.2-0.1c0-0.3-0.1-0.5-0.2-0.8c0-0.1,0-0.3,0-0.4c0.1-0.2,0.3-0.4,0.4-0.5
			c0.2-0.2,0.4-0.4,0.6-0.5c0.1,0,0.1,0,0.2,0c0,1.2,0.7,2.3,0.7,3.6c0.1,1.3-0.5,2.3-0.9,3.5c-0.1-2.3-0.4-4.6,0.1-6.9
			c0-0.1-0.1-0.1-0.1,0c-0.8,2.3-0.5,4.8-0.4,7.2c0,0,0,0.1,0,0.1c0-0.1,0-0.1,0-0.2c-0.2-0.8-0.3-1.6-0.5-2.3c0-0.1-0.2-0.1-0.2,0
			c-0.1,0.6,0.1,1.2,0.2,1.8c0.2,0.7,0.2,1.4,0.4,2.1c-0.1,0.6-0.2,1.2-0.3,1.7c0-0.5-0.2-1-0.3-1.5c0-0.1-0.1-0.1-0.1,0
			c0,0,0,0,0,0c-0.2-0.3-0.4-0.7-0.6-0.9c-0.1-0.1-0.2,0-0.1,0.1c0.2,0.3,0.3,0.6,0.5,1c0.1,0.2,0.1,0.4,0.2,0.6
			c0,0.2,0.1,0.5,0.1,0.7c0,0.3,0,0.6,0,0.9c0,0.1-0.1,0.2-0.1,0.4c-0.7,1.5-2,2.2-3.2,3.3c-0.1,0.1,0,0.3,0.2,0.2c0,0,0,0,0.1,0
			c0,0,0,0.1,0,0.1c0.1,0.1,0.1,0.3,0.2,0.4c-0.2,0-0.5,0-0.7,0c-0.4,0-0.8-0.2-1.2-0.2c0,0-0.1,0.1-0.1,0.1
			c0.1,0.1,0.2,0.2,0.4,0.3c0.1,0.1,0.1,0.3,0.2,0.4c-0.1-0.1-0.3-0.2-0.5-0.2c-0.1,0-0.1,0.1-0.1,0.1c0.1,0.2,0.3,0.3,0.4,0.4
			c0.2,0.2,0.3,0.4,0.5,0.6c0.1,0.1,0.3,0.1,0.3,0c0.1-0.4-0.2-0.8-0.5-1.2c0,0,0,0,0,0c0.5,0.1,1,0,1.5,0.1c0.2,0,0.4-0.2,0.2-0.3
			c-0.2-0.3-0.3-0.5-0.5-0.7c0,0,0,0,0,0c0.6-0.3,1.1-0.8,1.6-1.2c0.3,0,0.5,0.2,0.6,0.4c-0.8,0-1.6,0.2-1.9,1
			c0,0.1,0.1,0.2,0.1,0.1c0.3-0.1,0.5-0.4,0.8-0.5c0.4-0.2,0.8-0.2,1.2-0.2c0.1,0,0.3-0.1,0.2-0.2c-0.1-0.4-0.3-0.7-0.7-0.8
			c0.3-0.1,0.6-0.3,0.8-0.5c0.4-0.3,0.8-0.6,1-1c0,0,0-0.1,0-0.1c0.1-0.1,0.1-0.1,0.2-0.2c0.4-0.5,0.8-1.2,1-1.9
			c0.7-1.1,1.1-2.4,1-3.8C31.9,28.5,31.8,28.5,31.8,28.5z M31.3,27.6c0.1-0.3,0.3-0.7,0.3-1.1c0.4,1.4-0.5,2.5-1.3,3.7
			C30.7,29.4,31,28.5,31.3,27.6z M28.4,35.2c0,0-0.1,0.1-0.1,0.1c0.1-0.2,0.2-0.4,0.4-0.6c0.1,0.1,0.2,0.1,0.3,0.1
			C28.8,34.9,28.6,35.1,28.4,35.2z M30,33.6c-0.2,0.3-0.4,0.6-0.7,0.7c-0.2,0.1-0.3,0.1-0.5,0c0.1-0.2,0.2-0.3,0.2-0.5
			c0,0,0.1,0,0.1,0c0.5-0.3,0.9-0.6,1.2-1C30.3,33.2,30.1,33.4,30,33.6z"/>
		<path fill="#C9717C" d="M9.1,27.6c0,0-0.4-1.1-1.6-0.8c-1.2,0.2-1.8,1-1.8,1s0.5,0.2,1.1,0.8c0.6,0.6,0.9,1.3,0.9,1.3
			s-0.7-0.7-1.4-1c-0.7-0.4-1-0.4-1-0.4s-0.2-0.3,0.1,0.4c0.3,0.7,1.1,2.3,1.1,2.3l0.3,0.4H5.6c0,0,0.4,0.6,0.7,0.8
			c0.2,0.2-0.2,0.9,0.2,1.6c0.3,0.7,1.3,1.7,1.3,1.7s0.3,0.7,1,0.9c0.7,0.2,0.7,0.2,0.7,0.2s-0.1,0.4,0.8,0.4c0.8,0,1.4-0.1,1.4-0.1
			s-0.2,0.4,0.7,0.6c0.9,0.2,1.3,0.1,1.3,0.1l-1.2,0.7c0,0,0.6,0,1,0.1c0.3,0.1-0.1,0.2,0.5,0.5c0.6,0.2,2.2,0.5,3.5,0.2
			c1.2-0.3,1.3-0.6,2.3-0.6c0.9,0,1.1,0.2,1.3,0.2c0.3,0,1.2-0.4,1-0.7c-0.2-0.3-10.6-9.9-11.7-10.5C9.4,27.3,9.1,27.6,9.1,27.6z"/>
		<path fill-rule="evenodd" clip-rule="evenodd" fill="#C0BFBF" d="M21.2,21.7l1.2,1.6l-0.5,1.5l-0.1,11.4l0.7,2.1
			c0,0,0.4-0.1,0.4,0.1c0.1,0.1,0.7-0.2,1-0.2c0.3,0-0.2-0.5-0.2-0.5s1.2,0.6,1.8-0.2c0.6-0.8,0.6-1.1,0.6-1.1s0.8-0.5,1-1.1
			c0.3-0.6,0.2-0.8,0.2-0.8s0.3-0.8,0.7-1.2c0.4-0.3,0.5-0.4,0.5-0.4L27.7,33c0,0,0.3-0.5,0.8-0.7c0.5-0.2,0.5-0.2,0.5-0.2
			s-0.4-0.2-0.9-0.2c-0.5,0-0.5,0.1-0.2-0.6c0.3-0.7,0.7-2.4,0.7-2.9c0-0.5,0.3-1.4,0.3-2.5s0.1-1.7,0.1-1.7s-0.6,1.1-0.8,1.4
			c-0.1,0.4-0.2,0.7-0.3,0.3c-0.1-0.4,0-3.3,0-3.3v-0.3l-0.7,1c0,0-0.2-0.3,0.2-1.1c0.5-0.9,0.5-1.4-0.3-2.3
			c-0.8-0.9-1.3-1.7-3.6-1.5c0,0-0.7,0.1-0.8,0.9c-0.1,0.7-0.1,1.2-0.1,1.2s-0.2,0.5-0.2,0.9c0,0.4,0.1,0.9,0.1,0.9
			s-0.3-0.3-0.5-0.4C21.7,21.7,21.2,21.7,21.2,21.7z"/>
		<g>
			<path fill-rule="evenodd" clip-rule="evenodd" fill="#B7606B" d="M18.8,38c0.4,0,0.7,0.2,1,0.3c0.1,0,0.1-0.1,0.1-0.1
				c-0.2-0.4-0.7-0.5-1.1-0.4C18.6,37.8,18.6,38,18.8,38z"/>
			<path fill-rule="evenodd" clip-rule="evenodd" fill="#B7606B" d="M20.9,38.8c-1.4-0.8-3.2,0.5-4.8,0.5c-0.5,0-0.9-0.2-1.3-0.2
				c-0.3,0-1.3,0-0.4-0.1c0.1,0,0.3,0,0.4-0.1c0.8-0.2,1.5-0.5,1.8-1.1c0-0.1-0.1-0.2-0.1-0.1c-0.1,0.2-0.4,0.4-0.6,0.6
				c0,0-0.1-0.1-0.1,0c-0.3,0.1-0.6,0.3-0.9,0.4c-0.6,0.1-1.2,0.1-1.8,0c0.6-0.2,1.2-0.5,1.4-1.2c0,0,0-0.1-0.1-0.1c0,0,0,0,0,0
				c1.1,0.4,2.2,0.6,3.3,0.5c0.2,0,0.2-0.4,0-0.4c-1.7-0.1-3.1-0.5-4.5-1.1c0,0,0-0.1,0-0.1c-0.6-0.7-1.3-1.2-1.1-2.2
				c0-0.2-0.2-0.3-0.3-0.1c-0.2,0.6-0.1,1.2,0.3,1.7c-0.1-0.1-0.2-0.1-0.3-0.2c-0.2-0.3-0.4-0.6-0.6-1c-0.2-0.5-0.2-1-0.2-1.6
				c0-0.1-0.2-0.1-0.2,0c0,0.6,0,1.3,0.1,1.9c-0.6-0.6-1.2-1.3-1.7-2.1c-0.2-0.3-0.4-0.7-0.6-1.1c0,0,0,0,0.1,0.1c0,0,0.1,0,0.1-0.1
				c-0.3-0.8-0.9-1.8-1.5-2.5c-0.4-0.5-0.9-1-1.5-1.1c0.8-0.7,2.3-1.2,2.9-0.4c0.1,0.1,0.2,0,0.2-0.1c-0.5-1.5-3.5-0.5-3.7,0.8
				c0,0.2,0.2,0.3,0.3,0.1c0-0.1,0.1-0.1,0.1-0.2c0.8,0.2,1.3,0.8,1.8,1.5c-0.7-0.7-1.5-1.3-2.3-1.1c-0.1,0-0.1,0.2,0,0.3
				c0,0,0,0.1,0,0.1c0.6,0.6,0.7,1.5,1.1,2.3c0.1,0.1,0.2,0.3,0.3,0.4c-0.4-0.1-0.7-0.1-1.1-0.1c-0.2,0-0.2,0.3,0,0.4
				c0.4,0.1,0.7,0.4,0.9,0.7c0,0,0,0,0,0.1c-0.2,1.1,0.1,2.3,0.9,3.1c0,0,0.1,0.1,0.1,0.1C7,36,7.5,36.4,8,36.4c0,0,0,0.1,0.1,0.1
				c0,0,0.1,0,0.1,0c0.2,0.3,0.7,0.3,1.1,0.3c0.2,0.4,1.1,0.5,1.5,0.5c0.2,0,0.5,0,0.7-0.1c0.3,0.4,1,0.7,1.7,0.6
				c-0.3,0.1-0.6,0.2-0.9,0.2c-0.2,0-0.3,0.3-0.1,0.4c0.3,0.2,0.8,0.3,1.3,0.4c0.4,0.6,1.4,0.6,2.1,0.7c0.8,0.1,1.5,0,2.3-0.2
				c1-0.3,1.8-0.7,2.9-0.5C20.9,39,21,38.8,20.9,38.8z M6.2,31.8c0.2,0,0.5,0.1,0.7,0.1c0.2,0.2,0.5,0.4,0.7,0.4
				c0.1,0,0.1-0.1,0.1-0.1c-0.1-0.2-0.2-0.3-0.3-0.4c0-0.1,0-0.1-0.1-0.1c0,0,0,0,0,0c-0.3-0.3-0.7-0.7-0.9-1.1
				c-0.3-0.7-0.5-1.3-1-1.8c2.3,0.6,3.4,3.7,4.8,5.4c0.1,0.1,0.1,0.2,0.2,0.2c-0.1-0.1-0.2-0.1-0.4-0.1c0,0,0,0-0.1,0
				C9,34.2,8,33.6,7.2,32.9c-0.2-0.1-0.3-0.3-0.4-0.5c0,0-0.1-0.1-0.1-0.1C6.5,32.1,6.3,31.9,6.2,31.8z M9.9,34.7
				c-0.5-0.1-1-0.1-1.3-0.2c-0.5-0.1-0.8-0.4-1.1-0.8C8.2,34.2,9.1,34.4,9.9,34.7z M9.1,36.4c0.2,0,0.3-0.1,0.5-0.1
				c0.6-0.2,1.2-0.3,1.8-0.5c0.1,0,0.1-0.1,0-0.2c-0.1-0.1-0.2-0.1-0.4-0.1c0,0,0-0.1-0.1-0.1c-1.2-0.1-2.2,0.5-3.3-0.1
				c-1-0.6-1-1.6-1.2-2.6c0,0,0,0,0,0.1c0.1,0.4,0.2,0.7,0.4,1.1c0.2,0.4,0.6,0.7,1,0.9c0.4,0.3,0.9,0.3,1.3,0.4
				c0.6,0,1.1,0.2,1.7,0.2c0,0,0.1,0,0.1-0.1c0,0,0.1,0,0.1,0.1c0,0,0.1,0,0.1,0c0.2,0.2,0.4,0.4,0.7,0.5c0,0-0.1,0-0.1,0
				c-0.5,0.3-1.1,0.5-1.6,0.6C9.8,36.5,9.5,36.5,9.1,36.4z M11.4,36.9c-0.4,0.1-0.8,0.1-1.2,0c-0.1,0-0.2,0-0.3-0.1
				c0.7-0.1,1.5-0.3,2.1-0.8c0.1,0,0-0.1,0-0.1c0.3,0.2,0.6,0.4,1,0.6C12.5,36.7,11.9,36.8,11.4,36.9z M12.6,37.5
				c-0.2,0-0.3-0.1-0.5-0.2c0.2,0.1,0.5,0,0.7,0c0.4-0.1,0.6-0.3,0.6-0.6c0.3,0.1,0.6,0.3,0.9,0.4C13.9,37.6,13.2,37.6,12.6,37.5z"
				/>
		</g>
		<path fill-rule="evenodd" clip-rule="evenodd" fill="#C0BFBF" d="M8.7,23.5c0,0,1.4-1,2.4-0.6c1,0.5,1,0.6,1,0.6s-0.5-0.5,0.2-0.4
			c0.7,0.1,1.2,2,1.2,2s0.3-0.4,0.4-0.6c0.1-0.2,0.1,0.1,0.5,0.3c0.4,0.2,0.5,0.3,0.5,0.3s5.8,11.2,6.4,11.7
			c0.6,0.5,0.1,0.9-0.3,1.1c-0.4,0.3-1.1,0.4-1.1,0.4l0.3-0.8c0,0-1,0.2-1.6,0.3C18,38,18,38.1,18,38.1l0.6-1.1c0,0-0.5,0.1-1.7-0.3
			c-1.2-0.4-1.7-0.9-1.7-0.9l0.1-0.2l-2.2-1l1-0.5l-1.5-0.5c0,0-0.2-0.2-0.2-0.3c0-0.1-1.2-0.3-1.7-1.2c-0.5-0.9-0.6-1.4-0.6-1.5
			c0-0.1-0.5-0.6-0.9-0.9c-0.4-0.3-1-0.5-1-0.5s0.4-0.3,0.9-0.4c0.5,0,0.8-0.1,0.8-0.1l-0.8-1.2c0,0,0.4,0,0.5,0
			c0.1,0-0.6-1.4-0.8-1.7C8.4,25.5,8,25.1,8,25.1s0.5,0.1,0.9,0.4c0.4,0.3,0.4,0.3,0.4,0.3s-0.5-1.4-0.9-1.8
			c-0.4-0.4-0.5-0.4-0.5-0.4L8.7,23.5z"/>
		<path fill-rule="evenodd" clip-rule="evenodd" fill="#908F8F" d="M21.1,37.6c0.1-0.1,0-0.2-0.1-0.2c-0.9,0.2-1.9,0.1-2.7,0.4
			c0.3-0.4,0.9-0.7,1.5-0.8c0.1,0,0.1-0.2,0-0.2c-0.3,0-0.6,0.1-0.9,0.2c0,0,0,0-0.1,0c-0.9,0-1.7-0.2-2.4-0.6
			c-0.2-0.1-0.4-0.2-0.6-0.3c0.7,0.2,1.4,0.2,2.1-0.1c0.1,0,0.1-0.1,0-0.1c-1-0.3-2-0.1-3-0.6c-0.5-0.2-0.9-0.4-1.4-0.6
			c0.3-0.2,0.7-0.3,1.1-0.3c0.3,0,0.7,0,1-0.1c0.1,0,0.1-0.1,0-0.1c-0.6-0.2-1.2-0.1-1.8-0.2c-0.3-0.1-0.6-0.2-0.9-0.3
			c0.8,0,1.5-0.3,2.3-0.4c0.1,0,0.1-0.1,0-0.1c-0.7-0.4-1.4,0-2.2,0.1c-0.2,0-0.4,0-0.5,0c0,0,0,0,0,0c-0.9-0.2-1.6-1.1-2.2-1.9
			c0.3,0.3,0.7,0.6,1.1,0.9c1,0.6,2.2,0.5,3.3,0.7c0.1,0,0.1-0.1,0-0.1C14,32.2,13,32.3,12.1,32c-0.6-0.2-1-0.5-1.5-0.9
			c0.2,0.1,0.3,0.2,0.5,0.3c0.9,0.5,2,0.7,3,0.7c0,0.1,0.1,0.1,0.1,0.2c0,0.1,0.1,0,0.1,0c0-0.1,0-0.1,0-0.2c0.1-0.1,0.1-0.2,0-0.3
			c-0.1-0.6-0.3-1.1-0.3-1.7c-0.1-0.7,0-1.4,0.1-2.1c0,0,0,0,0,0c0,0,0-0.1,0-0.1c0,0-0.1-0.1-0.1,0c-0.3,0.7-0.3,1.5-0.2,2.2
			c0,0.5,0.1,1.1,0.3,1.6c-1.3-0.1-2.4-0.5-3.6-1.2c-0.8-0.5-1.2-1.2-2-1.4C8.8,29,9.3,28.9,9.8,29c0.1,0,0.3-0.1,0.2-0.2
			c-0.2-0.2-0.3-0.5-0.5-0.7c-0.3-0.3-0.3-0.2,0-0.2c0.5,0.7,1.2,1.4,2,1.5c0.1,0,0.2-0.1,0.1-0.2c-0.4-0.4-0.9-0.7-1.4-1.1
			c-0.1-0.1-0.3-0.3-0.4-0.4c0-0.1,0-0.1-0.1-0.2c-0.2-0.3-0.4-0.6-0.6-1c-0.2-0.3-0.4-0.8-0.7-1.2c0.2,0.1,0.4,0.2,0.6,0.4
			c0.1,0.1,0.3,0.3,0.4,0.4c0.5,0.9,1.3,1.6,2,2.3c0,0,0.1,0,0,0c-0.5-0.6-1.1-1.1-1.5-1.7c-0.1-0.1-0.1-0.2-0.2-0.3c0,0,0,0,0,0
			c0-0.1-0.1-0.2-0.1-0.3c-0.2-0.4-0.3-0.8-0.4-1.2C9,24.5,8.7,24,8.4,23.7c0.9-0.1,1.8,0.3,2.4,1c0.4,0.5,0.6,1.1,1,1.6
			c0.1,0.5,0.2,1,0.3,1.5c0.1,0.6,0.1,1.2,0.4,1.7c0,0.1,0.2,0,0.1,0c0-0.1,0-0.2,0-0.4c0.1,0.3,0.2,0.6,0.3,0.8c0,0.1,0.1,0,0.1,0
			c0-0.1,0-0.1,0-0.2c0.1,0.2,0.2,0.4,0.3,0.6c0,0,0.1,0,0.1,0c-0.1-0.6-0.3-1.2-0.4-1.8c0-0.4,0-0.8,0.1-1.3
			c0.3-1.2-0.1-2.8-0.8-3.7c0-0.1-0.1-0.1-0.2-0.2c0.4,0,0.7,0.4,0.9,0.8c0.2,0.4,0.4,0.9,0.5,1.3c0,0,0,0.1,0.1,0
			c0,0,0.1,0.1,0.2,0c0.1-0.2,0.1-0.3,0.2-0.5c0,0.1,0.1,0.2,0.2,0.3c0.1,0,0.1,0,0.1,0c0-0.1,0-0.2,0-0.3c0.1,0.1,0.2,0.1,0.3,0.1
			c0.1,0,0.1-0.1,0.1-0.1c0-0.2-0.2-0.2-0.3-0.3c0,0,0,0-0.1,0c0-0.1,0-0.2,0-0.4c0-0.1-0.2-0.2-0.3-0.1c-0.3,0.3-0.3,0.7-0.4,1
			c-0.1-0.9-0.7-2.5-1.7-2c-0.9-0.7-2.2-0.3-3.1,0.2c-0.1,0,0,0.2,0.1,0.1c1.2-0.6,2.7-0.6,3.4,0.7c0.6,1,0.3,2.2,0.6,3.3
			c0,0,0,0.1,0.1,0.1c0,0.4-0.1,0.9-0.1,1.3c0-0.2-0.1-0.4-0.1-0.7c-0.1-0.8-0.2-1.6-0.3-2.3c0-0.1-0.1-0.1-0.1,0c0,0.6-0.1,1.3,0,2
			c0-0.1,0-0.2,0-0.3c0-0.3-0.1-0.5-0.2-0.7c0,0,0.1,0,0.1-0.1c-0.1-0.2-0.2-0.5-0.3-0.7c0,0,0.1,0,0.1,0c0.2-0.6-0.3-1.4-0.7-1.9
			c-0.5-0.5-1.2-0.7-1.8-0.5c0,0,0,0,0,0c-0.4-0.1-0.9-0.1-1.4,0c-0.1,0-0.2,0-0.3,0c-0.2,0-0.1,0.2,0,0.3c0.7,0.3,1,0.9,1.3,1.6
			c0,0,0,0-0.1,0c-0.3-0.2-0.6-0.3-0.9-0.3C8,25.1,7.9,25,7.8,25c-0.1,0-0.1,0.1,0,0.1c0.8,0.4,1,1.6,1.5,2.3c-0.2,0-0.4,0-0.5,0.2
			c0,0,0,0.1,0,0.1c0.3,0.2,0.5,0.6,0.7,0.9c-0.6,0-1,0.2-1.5,0.5c-0.1,0.1-0.1,0.2,0,0.2c0.5,0.1,0.9,0.4,1.4,0.7
			c0.1,0.2,0.2,0.3,0.4,0.5c-0.1,0-0.1,0.1-0.1,0.1c0.2,1.1,1.1,1.9,2,2.5c0.1,0,0.2,0.1,0.2,0.1c0,0-0.1,0.1-0.1,0.1
			c-0.1,0.1,0,0.3,0.1,0.3c0.6,0,1.1,0.2,1.7,0.4c-0.3,0.1-0.6,0.3-0.9,0.5c-0.1,0.1-0.1,0.4,0.1,0.4c0.8,0,1.4,0.4,2.1,0.7
			c0,0-0.1,0.1-0.1,0.1l0,0.1c0,0.1,0.1,0.1,0.1,0.1c0.7,0.2,1.3,0.6,1.9,0.9c0.4,0.2,0.9,0.3,1.4,0.3c-0.3,0.2-0.5,0.6-0.6,1
			c0,0.2,0.2,0.2,0.3,0.1c0.5-0.6,1.2-0.5,1.9-0.6c-0.2,0.2-0.2,0.4-0.3,0.7c0,0.2,0.2,0.2,0.3,0.1c0.1-0.1,0.4-0.2,0.5-0.2
			c0.2-0.1,0.4,0,0.5-0.2c0,0,0-0.1,0-0.1c-0.2-0.1-0.4-0.1-0.6,0c-0.1,0-0.2,0.1-0.3,0.1c0.1-0.1,0.2-0.3,0.3-0.4
			C20.7,37.8,20.9,37.7,21.1,37.6z M11.2,24.5c0.2,0.3,0.3,0.6,0.4,0.9c-0.4-0.6-0.9-1.1-1.4-1.5C10.5,23.9,10.9,24.1,11.2,24.5z"/>
		<path fill-rule="evenodd" clip-rule="evenodd" fill="#908F8F" d="M15.6,31.9c0-0.8,0.2-1.5-0.2-2.2c0,0-0.1,0-0.1,0
			c0.1,0.9-0.2,1.8,0,2.7c0.1,0.7,0.6,1.5,1.2,1.9c0.1,0,0.1,0,0.1-0.1C16.3,33.4,15.7,32.9,15.6,31.9z"/>
		<path fill-rule="evenodd" clip-rule="evenodd" fill="#908F8F" d="M18.9,36c-3-1.4-4.9-4.8-6.8-7.3c-0.8-1.2-1.7-2.4-2.5-3.6
			c-0.4-0.6-1-1.4-1.8-1.4c-0.1,0-0.2,0.2,0,0.3c1.3,0.2,2.3,2.3,3,3.3c0.9,1.3,1.8,2.5,2.7,3.8c0.9,1.2,1.8,2.3,2.8,3.3
			c0.7,0.8,1.5,1.5,2.6,1.8C19,36.2,19,36,18.9,36z"/>
		<path fill-rule="evenodd" clip-rule="evenodd" fill="#908F8F" d="M28.2,31.7c-0.1,0-0.3,0-0.5,0.1c0.9-1,1.2-2.6,1.1-3.9
			c0,0,0,0,0,0c0.3-1.2,0.2-2.5,0.3-3.7c0-0.1-0.1-0.2-0.2,0c0,0,0,0,0,0c0,0-0.1,0-0.1,0c-0.3,0.3-0.5,0.7-0.6,1.2
			c0,0.1,0,0.1-0.1,0.2c0-0.1,0-0.3-0.1-0.4c-0.2-1.3,0.3-2.4,0.3-3.7c0-0.1-0.1-0.1-0.2,0c-0.1,0.1-0.2,0.3-0.2,0.4
			c-0.2,0.2-0.5,0.5-0.7,0.8c0.1-0.3,0.2-0.5,0.3-0.7c0.3-0.3,0.5-0.7,0.4-1.1c-0.4-1.2-1.5-2-2.5-2.6c-0.1,0-0.1,0-0.1,0.1
			c-0.8-0.5-2.7-0.4-2.8,0.6c0,0.3,0,0.6,0,0.9c0,0-0.1,0-0.1,0.1c0,0.6-0.4,0.9-0.3,1.5c0,0.1,0.1,0.3,0.1,0.4
			c-0.4-0.2-0.9-0.3-1.4-0.5c-0.1,0-0.2,0.2-0.1,0.2c0.7,0.3,0.9,1,1.3,1.6c0,0,0,0.1,0.1,0.1c0,0,0,0,0,0c-0.1,0.2-0.2,0.5-0.2,0.8
			c-0.1,0.2-0.1,0.5,0,0.8c0,0.1,0.2,0.1,0.2,0c0.1-0.2,0.1-0.5,0.2-0.8c0-0.2,0.1-0.3,0.1-0.5c0.3,0.5,0.7,0.9,1,1.4
			c1.2,1.6,2.5,2.8,2.7,4.9c0,0.7,0,1.3-0.1,2c-0.1-2.1-1.1-5-3.2-5c-0.1,0-0.2,0.2,0,0.2c1.8,0.3,2.6,2.6,2.9,4.5
			c-0.4-1.7-1.9-2.9-2.8-4.4c0,0-0.1,0-0.1,0c0.1,0.8,0.6,1.4,1.1,1.9c1,1.2,1.4,2.4,1.8,3.9c0,0,0,0,0,0c-0.2,0.8-0.6,1.6-1,2.2
			c-0.2,0.4-0.5,0.7-0.8,1.1c0.2-0.9,0.2-2.1-0.5-2.6c-0.1-0.1-0.3,0-0.2,0.2c0.7,1,0.1,2.3,0,3.4c0,0.1-0.1,0.2-0.1,0.2
			c-0.1,0-0.1,0.1-0.1,0.2c-0.1,0.3-0.2,0.6-0.1,1c0,0.2,0.3,0.2,0.3,0c0-0.1,0-0.2,0-0.3c0.3,0,0.7,0,1,0.1c0.1,0,0.2-0.1,0.1-0.1
			c-0.1-0.1-0.2-0.2-0.2-0.3c0.4,0,0.8,0,1.2-0.2c0.5-0.2,0.9-0.7,0.9-1.2c0.6-0.5,1-1.3,1.2-2c0,0,0-0.1,0-0.1
			c0.3-0.5,0.6-1,1.1-1.3c0.1-0.1,0.1-0.3,0-0.3c-0.3-0.1-0.5-0.1-0.7-0.1c0.4-0.3,0.9-0.4,1.3-0.6c0,0,0.1,0,0.1-0.1
			C29.2,31.8,28.6,31.6,28.2,31.7z M22.9,19c0.1-0.8,2-0.6,2.5-0.5c-0.5,0.3-0.7,1-0.8,1.6c-0.2,0.8-0.2,1.5-0.1,2.3
			c-0.3-1.1-0.4-2.3,0.1-3.3c0.1-0.1-0.1-0.2-0.2-0.1c-0.7,1.1-0.5,2.3-0.2,3.5c0.1,0.2,0.1,0.4,0.2,0.6c-0.5-0.6-0.9-1.1-1.2-1.9
			C22.9,20.6,22.8,19.7,22.9,19z M22.6,20.5c0.1,0.4,0.2,0.9,0.4,1.2c0.4,0.8,1,1.4,1.5,2.1c0.1,0.3,0.2,0.5,0.3,0.8
			c-0.2-0.2-0.4-0.4-0.6-0.6c-0.6-0.6-1-1.1-1.4-1.8C22.5,21.6,22.6,21,22.6,20.5z M24.5,25.6c-0.8-0.9-1.5-1.9-2.2-2.8
			c-0.3-0.4-0.4-0.7-0.7-1c0.2,0.1,0.5,0.1,0.7,0.2c0,0,0,0,0.1,0c0.2,0.3,0.4,0.7,0.5,0.9c0.4,0.6,0.9,1,1.3,1.5
			c0.3,0.3,0.6,0.7,0.9,1.1c0.2,0.5,0.4,1.1,0.5,1.7C25.3,26.7,24.9,26.1,24.5,25.6z M23.3,38.2c0-0.1,0.1-0.2,0.1-0.3
			c0.1,0,0.2,0.1,0.3,0.1c0.1,0.1,0.2,0.1,0.3,0.2C23.8,38.2,23.5,38.1,23.3,38.2z M24.9,37.6c-0.4,0.1-0.9,0.1-1.4,0
			c0.1-0.3,0.3-0.5,0.5-0.7c0.4,0.5,1.2,0.4,1.8,0.2C25.6,37.3,25.4,37.5,24.9,37.6z M26.2,36.3c-0.1-0.1-0.2-0.1-0.2,0
			c0,0.1,0,0.1,0,0.2c-0.5,0.3-1.4,0.6-1.8,0.1c0,0,0,0,0,0c0.1-0.1,0.2-0.2,0.3-0.3c0.1,0.2,0.5,0.3,0.8,0.3
			c0.4-0.1,0.7-0.4,0.9-0.7c0.2-0.1,0.4-0.2,0.6-0.3c0.2-0.1,0.3-0.2,0.4-0.4C26.9,35.6,26.6,36,26.2,36.3z M24.7,36.1
			c0.4,0,0.7-0.1,1.1-0.2c-0.1,0.1-0.3,0.2-0.5,0.3c-0.1,0.1-0.3,0.1-0.4,0.1C24.8,36.2,24.8,36.2,24.7,36.1z M26.5,33.7
			c-0.2,0.1-0.4,0.4-0.4,0.7c0,0.3,0.2,0.4,0.5,0.3c0.3-0.1,0.5-0.4,0.7-0.7c0.2-0.2,0.3-0.6,0.6-0.8c0.1,0,0.2,0,0.3,0
			c-0.4,0.4-0.7,0.8-1,1.3c-0.6,0.8-1.4,1-2.2,1.2c0.1-0.2,0.3-0.4,0.4-0.6c0.8-1.5,1.2-3.1,1.2-4.8c0-0.9-0.1-1.7-0.3-2.5
			c0,0.1,0,0.1,0.1,0.2c0,0.1,0.2,0,0.2,0c0-0.6-0.2-1.2-0.4-1.8c-0.2-0.9-0.2-1.7-0.1-2.6c0-0.1-0.2-0.2-0.2-0.1
			c-0.2,0.7-0.2,1.4-0.1,2.2c0,0,0,0,0,0c-0.1-0.1-0.1-0.2-0.2-0.3c-0.1-0.2-0.1-0.5-0.2-0.7c0.1,0,0.1,0,0.1-0.1
			c0-0.1-0.1-0.2-0.2-0.3c-0.2-1.5,0.1-2.9,0.5-4.4c0-0.1-0.1-0.1-0.1,0c-0.4,1.4-0.8,2.7-0.7,4c0,0-0.1-0.1-0.1-0.1
			c0-0.1-0.1-0.2-0.1-0.3c0.1-0.9-0.1-1.8,0.1-2.7c0.1-0.8,0.4-1.5,0.9-2.1c0.5,0.3,0.9,0.7,1.2,1.2c0.3,0.4,0.6,0.9,0.7,1.4
			c0,0.3-0.4,0.7-0.5,0.9c-0.5,0.8-0.6,2.4-0.3,3.4c0,0,0,0,0,0.1c0,0,0,0,0,0c0,0,0,0.1,0.1,0.1c0,0.1,0.2,0,0.2-0.1
			c0-0.1,0-0.2,0-0.3c0-0.1,0.1-0.3,0.1-0.4c0,1.2,0,2.2-0.6,3.4c0,0.1,0,0.1,0.1,0.1c1.2-0.9,0.7-3.2,0.6-4.5c0,0,0-0.1,0-0.1
			c0.1-0.4,0.3-0.8,0.5-1.2c-0.4,1.6,0.2,3.2,0.1,4.9c0,0,0,0,0,0c0,0.2-0.1,0.4-0.1,0.6c-0.2,0.7-0.6,1.3-1,2c0,0.1,0,0.1,0.1,0.1
			c1-0.7,1.3-2.1,1.4-3.4c0.2-0.3,0.2-0.8,0.3-1.1c0.1-0.4,0.2-0.7,0.4-1.1c-0.2,0.9-0.2,1.7-0.3,2.6c-0.1,0.8-0.3,1.5-0.6,2.3
			c-0.2,0.2-0.4,0.5-0.4,0.8c0,0,0,0,0,0c-0.1,0.1-0.2,0.2-0.3,0.3c-0.1,0.1-0.3,0.3-0.4,0.5c0,0,0,0.1,0.1,0.1
			c0.2,0,0.4-0.2,0.5-0.3c0.2-0.2,0.3-0.4,0.4-0.6c0,0,0,0,0,0c0.2-0.2,0.3-0.4,0.4-0.6c0.1-0.1,0.1-0.2,0.2-0.3
			c-0.1,0.4-0.2,0.8-0.4,1.2c-0.3,0.8-1,1.3-1.4,1.9c0,0,0,0.1,0,0.1c0,0.1,0.1,0.2,0.2,0.1c0.3-0.2,0.7-0.4,1-0.5
			c0.2-0.1,0.5-0.1,0.7,0c0.1,0,0.1,0,0.2,0.1C27.9,32,27,33,26.5,33.7z M27.1,33.5c-0.1,0.1-0.1,0.2-0.2,0.3
			c-0.1,0.1-0.2,0.4-0.4,0.5c0,0,0,0,0-0.1c0.1-0.1,0.1-0.3,0.2-0.4C26.9,33.7,27,33.6,27.1,33.5z"/>
		<path fill-rule="evenodd" clip-rule="evenodd" fill="#908F8F" d="M23.3,31.1c-0.1-0.1-0.2,0-0.1,0.1c0.8,1.3,1.1,2.7,1,4.2
			c0,0.1,0.1,0.1,0.1,0C25.2,34.1,24.3,32,23.3,31.1z"/>
		<path fill="#C9717C" d="M22.8,26.4c0,0,0.2,1.1,0.1,2.8c-0.1,1.6-0.3,2.9-0.3,2.9s0.7-1.2,0.9-1.4c0.2-0.2,0.2-0.2,0.2-0.2
			S23.1,32.2,23,33c-0.2,0.7-0.2,1.1-0.2,1.1l0.8-0.8c0,0-0.3,1.1-0.6,2.2c-0.2,1.1-0.2,2.1-0.4,2.5c-0.2,0.4-0.1,0.6-0.4,0.6
			c-0.3,0-0.5-0.1-0.5-0.1s-0.3-0.4-0.6-0.4c-0.3,0-0.3,0-0.3,0l0.9-0.7c0,0-1.1-0.5-1.6-0.6c-0.6-0.1-0.8-0.2-0.8-0.2l0.9-0.6
			c0,0-1.6-0.5-2.2-0.8c-0.7-0.3-0.7-0.3-0.7-0.3l1.4-0.8c0,0-1.5-0.4-2-0.7c-0.4-0.3-0.6-0.4-0.6-0.4l1.3-0.3c0,0-0.7-0.5-1.3-1.8
			c-0.6-1.2-0.7-1.6-0.7-2c0-0.3,0.2-0.3,0-0.5c-0.2-0.2-1.5-0.8-1.5-0.8s0.2-0.7,0.9-0.9c0.6-0.2,0.7-0.2,0.7-0.2l-1.2-1.2
			c0,0-0.1-0.2,0.5-0.3c0.7,0,1.2,0,1.2,0s-0.1,0.2-0.2-0.1c-0.1-0.3-0.8-1.3-0.8-1.3s-0.4-0.4,0-0.2c0.4,0.2,0.9,0.4,1.1,0.6
			c0.3,0.2,0.2,0.3,0.2,0c0-0.2-0.8-1.1-1.1-2.7c-0.3-1.6,0-1.8,0.7-1.8c0.8,0,3.1,0.4,3.2,1.4c0.1,1,0.3,2.2,0.3,2.2l0.8-2
			c0,0,0.1,0.7,0.3,1.6c0.2,0.9,0.4,1.3,0.4,1.8c0,0.4,0,0.5,0.2-0.4c0.2-0.9,0.4-1.7,0.4-1.7s0.4,1.8,0.4,3.1
			c0,1.3-0.1,2.3-0.1,2.3L22.8,26.4z"/>
		<g>
			<path fill-rule="evenodd" clip-rule="evenodd" fill="#B7606B" d="M23.6,33.1c-0.1,0.1-0.2,0.2-0.4,0.4c0.4-1,0.5-2.1,0.6-3.1
				c0,0,0,0,0-0.1c0-0.1,0.1-0.1,0.1-0.2c0.1-0.1-0.1-0.2-0.2-0.1c-0.2,0.3-0.5,0.6-0.8,1c0.1-0.4,0.1-0.8,0.2-1.2
				c0.1-1.3-0.1-2.6,0.1-3.9c0-0.1-0.1-0.2-0.2-0.1c0-0.1-0.2-0.1-0.2,0c-0.1,0.6-0.4,1.1-0.6,1.6c0-0.2,0-0.4,0.1-0.6
				c0.2-1.4-0.5-2.7-0.6-4c0-0.1-0.2-0.1-0.2,0c0,1.4,0.4,2.7,0.3,4c-0.1,1.1-0.6,2.3,0,3.3c0,0.1,0.2,0,0.2,0c0-0.2,0-0.4,0-0.6
				c0,0,0,0,0,0c0.3-0.5,0.3-1.2,0.4-1.7c0-0.2,0.1-0.4,0.2-0.7c-0.1,0.6,0,1.2,0,1.8c0,1-0.3,2-0.4,3c-0.1,0.3-0.2,0.6-0.1,0.8
				c-0.1,0.2-0.2,0.3-0.2,0.5c0,0,0-0.1,0-0.1c0-0.8,0.1-1.5,0.3-2.3c0-0.1-0.2-0.2-0.2-0.1c-0.1,0.4-0.3,0.9-0.4,1.4
				c-0.1-0.3-0.2-0.6-0.3-0.9c-0.3-1.3-0.6-2.6-1-3.9c-0.2-0.6-0.4-1.2-0.7-1.8c-0.1-1-0.2-2.1-0.3-3.1c0-0.1,0-0.3,0-0.4
				c0.2,1,0,2.3,0.6,3.1c0,0,0.1,0.1,0.1,0.1c0,0,0,0,0,0c0,0.1,0.1,0.1,0.1,0c0-0.1,0-0.1,0-0.2c0,0,0,0,0,0c0,0,0,0,0,0
				c0-0.5-0.1-1-0.1-1.6c0-0.5,0.1-1,0.2-1.5c0,0.4,0.1,0.8,0.2,1.1c0.3,1.3,0.6,2.4,0.4,3.8c0,0.1,0.1,0.1,0.2,0
				c0.1-0.1,0.2-0.3,0.2-0.5c0.4-1,0.4-2.4,0.4-3.4c0-0.1-0.2-0.1-0.2,0c0,0.5-0.1,1.1-0.2,1.6c0-0.2-0.1-0.3-0.1-0.5
				c-0.1-0.6-0.3-1.2-0.4-1.7c-0.1-0.5-0.1-1-0.2-1.5c0-0.1-0.2-0.1-0.2,0c0,0.1,0,0.1,0,0.2c0,0,0,0,0,0c-0.1,0.5-0.3,1.1-0.3,1.6
				c0-0.1,0-0.1,0-0.2c-0.1-0.7-0.2-1.5-0.7-2c-0.8-0.9-2.9-1.3-3.8-0.4c0,0,0,0,0,0c0-0.1-0.2-0.1-0.2,0c-0.3,1.1-0.1,2,0.4,3
				c0.1,0.3,0.3,0.6,0.5,0.9c0.1,0.1,0.1,0.2,0.2,0.3c0,0,0,0,0,0c-0.5-0.3-1.1-0.6-1.5-1.1c-0.1-0.1-0.3,0-0.2,0.2
				c0.4,0.7,0.8,1.4,1.3,2c-0.1-0.1-0.2-0.2-0.3-0.2c0,0-0.1,0-0.1,0.1c0,0.1,0.1,0.1,0.2,0.2c-0.5-0.2-1.1-0.1-1.6,0.1
				c-0.1,0-0.2,0.2-0.1,0.3c0.3,0.4,0.8,0.7,1.2,1c-0.6,0.1-1.1,0.5-1.5,1c-0.1,0.1-0.1,0.2,0,0.3c0.2,0.2,1.5,0.8,1.4,1
				c-0.1,0.4,0.1,0.9,0.2,1.3c0.4,1.1,1.1,1.9,1.8,2.7c-0.4,0-0.7,0-1.1,0c-0.3,0-0.3,0.3-0.1,0.5c0.6,0.4,1.2,0.8,1.9,1
				c-0.4,0.1-0.8,0.3-1.1,0.6c-0.2,0.2-0.1,0.5,0.2,0.4c0.9-0.2,1.7,0.6,2.6,1c-0.3,0.1-0.5,0.2-0.7,0.5c-0.1,0.1,0,0.3,0.1,0.4
				c0.8,0.1,1.6,0.1,2.4,0.4c-0.3,0.1-0.5,0.3-0.6,0.7c0,0.1,0.1,0.2,0.2,0.2c0.3,0,0.7,0,1,0c-0.1,0.2,0.2,0.4,0.4,0.2
				c0-0.1,0.1-0.1,0.1-0.2c0,0,0,0,0.1,0c0,0.1,0.2,0.1,0.3,0c0.2-0.4,0.5-0.9,0.3-1.3c0.2-0.6,0.2-1.3,0.4-1.9
				c0.2-0.7,0.4-1.4,0.6-2.1c0,0,0,0,0,0c0,0,0,0,0,0C23.9,33.2,23.7,33,23.6,33.1z M18.5,20.6c0.9,1.1,0.6,2.6,0.7,4
				c-0.1-0.2-0.2-0.4-0.3-0.6c0-0.9-0.6-2-1.2-2.8c-0.4-0.6-1-1-1.6-1.2C16.9,19.8,17.8,20,18.5,20.6z M15.3,24
				c0.4,0.3,0.8,0.5,1.2,0.6c0.1,0,0.1,0,0.1-0.1c-0.2-0.6-0.5-1-0.8-1.5c-0.4-0.8-0.6-1.7-0.5-2.7c0,0,0.1,0,0.1,0
				c0.1,0,0.1-0.1,0.2-0.1c1.4,0.1,2,1.4,2.6,2.6c-0.6-0.9-1.3-1.7-2.3-2.2c-0.1,0-0.2,0.1-0.1,0.1c1.8,1.7,2.9,3.6,3.8,5.8
				c-0.1,0-0.2,0.1-0.2,0.2c-0.4-0.3-0.8-0.5-1.2-0.7c-0.1,0-0.1,0.1-0.1,0.1c0.5,0.2,0.9,0.5,1.3,0.9c0.1,0.1,0.1,0.1,0.2,0.2
				c-0.3-0.2-0.6-0.4-0.8-0.5c-1-0.5-2-0.8-2.9-1.5c0.1,0,0.1-0.1,0.1-0.1C15.8,24.8,15.5,24.4,15.3,24z M22.3,38.3
				C22.3,38.3,22.3,38.3,22.3,38.3c0,0-0.1,0-0.1,0c0,0,0,0,0,0c0,0,0,0,0,0c0,0-0.1-0.1-0.1-0.1c-0.3-0.1-0.6-0.1-0.9-0.1
				c0.2-0.1,0.4-0.2,0.6-0.2c0.2,0,0.3-0.3,0.1-0.4c-0.8-0.5-1.6-0.7-2.5-0.7c0.3-0.2,0.7-0.2,1.1-0.2c0.1,0,0.1-0.1,0.1-0.1
				c0,0,0.1,0,0.1,0c0.1,0,0.1-0.2,0-0.2c-0.7-0.2-1.3-0.4-2-0.7c-0.4-0.2-0.8-0.3-1.2-0.4c0.5-0.2,1-0.3,1.5-0.5h0
				c0.1,0,0.1,0,0.1-0.1c0.1,0,0.1,0,0.2-0.1c0.1,0,0.1-0.2,0-0.2c0,0-0.1,0-0.1,0c0,0-0.1-0.1-0.1-0.1c-0.8-0.1-1.5-0.4-2.1-0.7
				c0.2,0,0.5,0,0.7,0c0.2,0,0.3-0.3,0.2-0.4c-0.8-0.9-2.7-2.7-2.3-4.1c0-0.1,0-0.2-0.1-0.2c-0.3-0.2-0.6-0.4-1-0.6
				c-1-0.5,0.7-1.1,1.1-1c0.2,0.1,0.3-0.2,0.2-0.3c-0.3-0.3-0.5-0.5-0.8-0.7c-1.3-0.9,0.6-0.7,0.9-0.3c0.1,0.1,0.1,0,0.2-0.1
				c0.6,0.4,1.2,0.7,1.8,1c0.5,0.3,1.1,0.6,1.6,1c0.4,0.3,0.6,0.8,1,1.2c0.1,0.4,0.2,0.9,0.3,1.3c-1-1.3-2.4-2.4-3.8-2.7
				c-0.1,0-0.1,0.1,0,0.2c1.4,0.4,2.4,1.3,3.3,2.3c0.4,0.5,0.7,1.1,0.9,1.7c-1.5-1.5-3.8-2.5-5.5-3.2c-0.1,0-0.1,0.1-0.1,0.1
				c1.1,0.6,2.3,1.2,3.4,1.9c1.1,0.7,1.8,1.4,2.4,2.3c0.1,0.7,0.2,1.4,0.3,2.2c-0.3-0.4-0.6-0.7-0.8-1C20,33.1,19,32.4,18,32.1
				c-0.1-0.1-0.2,0.2-0.1,0.2c1,0.4,1.8,1.1,2.5,1.9c0.6,0.6,0.9,1.2,1.2,1.8c0.1,0.5,0.2,1,0.4,1.5c0,0.1,0.1,0.1,0.2,0
				c0,0,0,0,0,0v0.2c0,0,0.1,0,0.1,0v-0.2c0,0,0,0,0,0c0,0,0,0,0-0.1c0-0.3-0.1-0.5-0.1-0.8c0,0,0,0,0,0c0-0.2,0-0.4-0.1-0.6
				c0-0.2-0.1-0.4-0.1-0.6c0,0.2,0.1,0.4,0.2,0.5c0,0.6,0,1.1,0.2,1.6c0,0,0.1,0,0.1,0C22.5,37.8,22.4,38.1,22.3,38.3z M22.5,36.3
				c0-0.4-0.1-0.7-0.1-1.1c0-0.1,0-0.1-0.1-0.1c0-0.3,0-0.5-0.1-0.8c0-0.6,0-1.3,0.2-1.9c0.1-0.4,0.3-0.9,0.5-1.3
				c0.1-0.2,0.3-0.2,0.4-0.4c-0.3,1.2-0.7,2.5-0.8,3.7c0,0,0,0.1,0,0.1c0,0,0,0.1,0,0.1c0,0.1,0.1,0.1,0.2,0
				c0.2-0.2,0.3-0.5,0.4-0.8c0,0,0,0,0,0C23,34.7,22.6,35.5,22.5,36.3z"/>
			<path fill-rule="evenodd" clip-rule="evenodd" fill="#B7606B" d="M18.3,25.8c0.3,0.3,0.6,0.5,1,0.7c0,0,0.1,0,0-0.1
				c-0.3-0.3-0.7-0.6-1-0.8c-0.3-0.3-0.7-0.5-1.1-0.8c-0.1,0-0.1,0,0,0.1C17.6,25.2,18,25.5,18.3,25.8z"/>
			<path fill-rule="evenodd" clip-rule="evenodd" fill="#B7606B" d="M20.3,33c0,0,0.1,0,0.1-0.1c-0.2-0.6-0.7-1-1.2-1.3
				c-0.6-0.5-1.2-0.8-2-0.8c-0.1,0-0.1,0.1,0,0.1C18.6,31.1,19.4,32.1,20.3,33z"/>
			<path fill-rule="evenodd" clip-rule="evenodd" fill="#B7606B" d="M20,34.7c-0.2,0-0.2,0.2,0,0.3c0.7,0.1,1,0.7,1.5,1
				c0.1,0,0.1,0,0.1-0.1C21.4,35.2,20.7,34.7,20,34.7z"/>
		</g>
		<path fill-rule="evenodd" clip-rule="evenodd" fill="#8D4E56" d="M22.1,34.5c-0.4-1.8-0.9-3.2-1.5-4.9c0-0.1-0.1,0-0.1,0
			c0.4,1.5,0.8,2.9,1.1,4.4c0.3,1.6,0.4,3.2,0.8,4.7c0,0.1,0.1,0.1,0.1,0C22.5,37.4,22.4,35.8,22.1,34.5z"/>
		<path fill="#E5A6AC" d="M15.3,20.1c0,0-0.4,0.9,0.1,2c0.5,1.1,0.8,1.6,1,2c0.2,0.4,0.2,0.4,0.2,0.4s-0.6-0.1-1.1-0.4
			c-0.4-0.3-0.6-0.4-0.6-0.4s0.5,0.8,0.7,1.1c0.2,0.3,0.3,0.4,0.3,0.4l-0.1,0c0,0,0.5,0.5,1.5,0.9c1,0.4,1.5,0.6,1.9,0.9
			c0.4,0.3,0.5,0.4,0.5,0.4s-0.9-0.8-1.6-1.1c-0.7-0.3-1.4-0.6-1.6-0.8c-0.2-0.2-0.2-0.3-0.2-0.3l0.4,0.2l-0.8-0.9
			c0,0,0.5,0.2,1.1,0.6c0.6,0.4,1.3,0.8,1.3,0.8s-1.2-0.9-1.3-1c-0.1-0.1-0.2-0.4,0.7,0.3c0.9,0.6,1.3,1,1.3,1s-1.4-1-2-1.8
			c-0.6-0.8-1.1-1.5-1.1-1.5s0.7,0.9,1.1,1.3c0.4,0.4,0.6,0.5,0.6,0.5s-1-1.3-1.4-2.1c-0.4-0.8-0.6-1.3-0.6-1.3s0.7,0.9,1,1.3
			c0.3,0.4,0.7,1.1,0.7,1.1s-0.6-1.2-1-1.6c-0.4-0.4-0.7-1.1-0.7-1.1s1.3,1.2,2.3,2.7c1,1.5,1.2,2.1,1.2,2.1s-0.7-1.9-1.9-3.3
			c-1.3-1.5-1.4-1.5-1.4-1.5s0.7,0.2,1.4,1c0.8,0.8,1.1,1.4,1.1,1.4s-0.8-1.5-1.5-2.1c-0.7-0.5-1.1-0.6-1.1-0.6s0.4-0.2,1,0.1
			c0.6,0.4,0.8,0.8,0.8,0.8s-0.4-0.8-1.1-1.1C15.6,20,15.3,20.1,15.3,20.1z"/>
		<path fill="#E5A6AC" d="M20.2,21.9c0,0-0.3,0.7-0.2,1.7c0.1,1,0.1,1.5,0,1.5c-0.1,0-0.2-0.6-0.2-0.6s-0.2,0.1-0.2-0.5
			c-0.1-0.6-0.2-1.5-0.2-1.5s0,2.3,0.1,2.7c0.1,0.4,0.2,0.6,0.2,0.6s-0.1-0.8-0.2-1.1c0-0.4,0-0.4,0-0.4s0.2,0.2,0.2,0.5
			c0.1,0.3,0.1,0.6,0.1,0.6l0.1-0.2c0,0,0.1,0,0.2,0.6c0.1,0.6,0.1,0.9,0.1,0.9s0.1-1,0.1-1.8c-0.1-0.7-0.2-1.3-0.2-1.7
			c0-0.4,0-0.5,0-0.5s0.6,1.7,0.7,2.8c0.1,1.1-0.1,2-0.1,2s0.4-0.6,0.7-1.4c0.2-0.8,0.2-2,0.2-2s0.4,0.9,0.2,2.7
			c-0.1,1.7-0.4,1.6-0.4,2.4c0,0.8,0.1,1.4,0.1,1.4l0.2-0.4c0,0,0.1,0.4,0,0.8c-0.1,0.5,0,0.5,0.1,0.1c0.1-0.4,0.2-0.5,0.3-1.3
			c0.1-0.8,0.2-1.2,0.3-1.8c0.1-0.5,0.2-0.8,0.2-0.8s0,1.4-0.1,2.8c-0.2,1.4-0.3,2.5-0.3,2.5s0.3-1.1,0.5-2.8c0.2-1.7,0.1-3,0.1-3
			s-0.3,0.9-0.5,1.5c-0.2,0.6-0.4,1.5-0.4,1.5l-0.1-0.6l-0.1,0.3c0,0-0.2-0.5,0.1-1.4c0.2-0.9,0.3-1.8,0.1-3.1c-0.2-1.3-0.3-2-0.3-2
			s0.1,1.1-0.1,1.9c-0.2,0.7-0.5,1.4-0.5,1.4s0.2-0.6-0.1-1.9C20.5,23.1,20.2,21.9,20.2,21.9z"/>
		<path fill="#E5A6AC" d="M15.9,25.6c0,0-0.3-0.3-0.8-0.3c-0.5-0.1-1,0.1-0.9,0.2c0.1,0.1,0.2,0.2,0.8,0.6c0.6,0.4,0.8,0.6,0.7,0.7
			c0,0.1,0.1,0-0.5,0.1C14.6,27,14,27.3,14,27.6c0,0.3,0.2,0.4,0.8,0.6c0.5,0.3,0.9,0.4,0.7,0.6c-0.2,0.1-0.4,0.7,0.2,1.8
			c0.6,1.1,2,2.2,2.1,2.4c0.1,0.2-0.1,0.2-0.6,0.2c-0.5,0-0.7,0-0.7,0s0.3,0.3,1.3,0.7c1,0.4,1.4,0.4,1.4,0.4s-0.2,0.1-1.1,0.4
			c-0.8,0.3-1.1,0.2-0.8,0.4c0.3,0.1,1,0.3,1.5,0.7c0.5,0.3,1.7,0.5,1.7,0.5s0.2,0-0.2,0.1c-0.4,0.1-1,0.3-1.1,0.4
			c-0.1,0.2,0.2,0,1.1,0.2c0.9,0.2,1.7,0.6,1.6,0.7c-0.1,0.1-0.4,0.1-0.8,0.3c-0.3,0.2-0.4,0.3,0,0.2c0.4,0,0.7,0.1,0.9,0.2
			c0.2,0.1,0.4,0,0.3-0.1c-0.1-0.1-0.9-0.3-0.9-0.3s0.4-0.1,0.5-0.1c0.1,0,0-0.1,0-0.1s0.1-0.2,0-0.3c-0.2-0.2-1-0.5-1.7-0.6
			c-0.6-0.1-0.9-0.1-0.3-0.2c0.7-0.1,0.8-0.1,0.8-0.1l-0.1-0.1c0,0,0.3,0,0.2-0.1c-0.1-0.1-0.2-0.1-0.9-0.3
			c-0.7-0.2-1.3-0.7-1.8-0.8c-0.4-0.1-0.3-0.3,0.6-0.1c0.9,0.2,1.1,0.3,1.1,0.3S19.4,35,19,34.9c-0.4-0.1-0.4-0.1-0.4-0.1
			s0.5-0.2,0.9-0.3c0.4-0.1,1.3,0.1,1.3,0.1s-0.8-0.3-1.6-0.5c-0.8-0.2-1.6-0.3-1.9-0.5c-0.3-0.2-0.4-0.3-0.4-0.3s0.3,0.1,1,0
			c0.7-0.1,1.3,0.1,1.3,0.1s-1-0.4-1.7-1c-0.7-0.6-1.5-1.5-1.7-2.4c-0.2-0.8-0.3-1-0.1-1.1c0.2-0.1,2.1,0.8,2.1,0.8
			s-1.6-0.9-2.2-1.3c-0.6-0.4-1.1-0.6-1.1-0.7s-0.2-0.2,1.4,0.6c1.6,0.8,3,1.6,3,1.6s-1.1-0.7-2.3-1.5c-1.2-0.8-1.9-0.9-1.9-0.9
			s0.3-0.4,1.4-0.3c1,0.1,1.5,0.4,1.5,0.4s-0.7-0.4-1.2-0.8c-0.4-0.3-1.6-1-1.7-1.1c-0.1-0.1,0.3-0.3,1.1,0.1
			c0.8,0.4,1.6,0.7,2.3,1.1c0.8,0.3,0.9,0.5,0.9,0.5s-0.7-0.5-1.5-0.9C16.7,26,15.9,25.6,15.9,25.6z"/>
		<path fill="#E5A6AC" d="M16.8,27.5c0,0,1.7,0.4,2.6,1.3c0.9,0.9,1.5,2.4,1.5,2.4s-1-1.6-1.5-2.2c-0.5-0.6-0.9-0.6-0.8-0.4
			c0.1,0.1,0.4,0.5,0.4,0.5s-0.3-0.3-0.5-0.1c-0.1,0.1,0.4,0.7,0.4,0.7s-0.3-0.3-0.6-0.3c-0.3-0.1-0.1,0.2-0.1,0.2l-0.7-0.5
			c0,0,0.3,0.1,0.5-0.5C18.2,28.1,16.8,27.5,16.8,27.5z"/>
		<path fill="#E5A6AC" d="M15.9,20c0,0,1.8-0.5,2.6,0.4c0.8,0.9,0.8,2.1,0.7,2.9c0,0.8-0.1,1.3-0.1,1.3s-0.1-0.6-0.1-1.6
			c0-1-0.3-2.1-0.7-2.4c-0.5-0.3-1.2-0.5-1.2-0.5s0.7,0.1,1.1,0.7c0.4,0.6,0.4,0.7,0.4,0.7s-0.3-0.6-0.7-0.9c-0.4-0.3-1-0.4-1-0.4
			s1.1,0.4,1.4,1.5c0.4,1.1,0.4,1.7,0.4,1.7s-0.6-1.7-1.3-2.4C16.8,20.1,15.9,20,15.9,20z"/>
		<path fill="#E5A6AC" d="M17,29.3c0,0,1.4,0.5,2.5,1.5c1.1,1,1.7,1.9,1.7,1.9s-1.5-1.6-1.9-1.9C19,30.6,19.1,31,19.1,31
			s-0.3-0.3-0.4-0.1c-0.1,0.2,0.6,0.7,0.6,0.7s-0.9-0.5-1.3-0.7c-0.5-0.2-0.8-0.1-0.8-0.1s0.4,0,0.7-0.1c0.3-0.1,0.2-0.3,0.2-0.3
			s0.3,0.2,0.3-0.2c-0.1-0.3-1.5-1-1.5-1L17,29.3z"/>
		<path fill="#E5A6AC" d="M17.2,30.8c0,0,0.9,0.2,1.8,0.8c0.9,0.6,1.4,1.4,1.4,1.4s-0.8-0.9-1-1c-0.2-0.1-0.1,0.2-0.1,0.2
			s-0.1-0.2-0.2,0c-0.1,0.2,0.4,0.2,1.1,1c0.7,0.8,0.7,0.8,0.7,0.8s-1.3-1.2-1.8-1.5c-0.5-0.3-1.2-0.6-1.2-0.5
			c0,0.1,0.4,0.1,0.9,0.5c0.5,0.4,1.5,1.3,2,1.9c0.5,0.6,0.7,0.8,0.7,0.8s-0.6-0.6-1.5-0.9c-0.9-0.2-1.3-0.3-1.3-0.3l0.2-0.1
			c0,0,1,0.3,1.2,0.3c0.2,0-0.4-0.4-0.4-0.4s0.7,0.4,0.4,0.1c-0.2-0.2-1-0.8-1.2-0.9c-0.2-0.1,0.1,0,0-0.2c-0.1-0.2-0.4-0.4-0.8-0.6
			c-0.3-0.2-0.5-0.2-0.5-0.2s0.2,0,0.1-0.1c-0.1-0.1-0.3-0.3-0.3-0.3s1,0.4,1.1,0.2c0.1-0.2-0.1-0.4-0.1-0.4S18,31.1,17.2,30.8z"/>
		<path fill="#E5A6AC" d="M19.9,34.8c0,0,0.7,0.1,1.2,0.7c0.5,0.5,0.6,0.7,0.5,0.7c-0.1-0.1-0.3-0.1-0.3-0.1s0.2,0.2,0,0.2
			c-0.2,0-0.2,0.1-0.9-0.1c-0.7-0.2-0.8-0.3-0.8-0.3s0.7,0.1,0.8-0.1c0.1-0.2-0.2-0.3-0.1-0.3c0.1,0,0.4,0.2,0.2-0.1
			C20.4,35,19.9,34.8,19.9,34.8z"/>
		<path fill="#E5A6AC" d="M22.3,34.3c0,0-0.1-0.4,0.2-1.7c0.3-1.4,0.8-1.7,1-2c0.2-0.3,0.2-0.3,0.2-0.3s-0.4,1.1-0.6,2.1
			c-0.2,1-0.3,1.4-0.3,1.8c0,0.4,0,0.4,0,0.4s0.3-0.6,0.5-0.8c0.2-0.2,0.2-0.2,0.2-0.2s-0.1,0.3-0.4,1.3c-0.3,1-0.4,1.5-0.4,1.5
			s-0.1-0.1,0.1-0.9c0.3-0.8,0.4-1.2,0.4-1.2s-0.2,0.6-0.4,0.7c-0.1,0.1-0.1-0.2-0.1-0.6c0-0.4,0.1-1.3,0.3-2
			c0.2-0.7,0.4-1.3,0.4-1.3s-0.5,0.6-0.8,1.6C22.3,33.6,22.3,34.3,22.3,34.3z"/>
		<path fill-rule="evenodd" clip-rule="evenodd" fill="#FFFFFF" d="M16.8,27.5c0,0,1.2,0.2,1.4,0.9c0.2,0.7-0.5,0.8-0.5,0.8l0.2,0.2
			l-1.5-1c0,0,0.6,0.3,1,0.4c0.4,0,0.2-0.5,0.2-0.5s0.4,0,0.1-0.2C17.4,27.7,16.8,27.5,16.8,27.5z"/>
		<path fill-rule="evenodd" clip-rule="evenodd" fill="#FFFFFF" d="M17,26.2c0,0,0.9,0.4,1.1,0.9c0.1,0.4-1.4-0.1-1.4-0.1
			s0.5,0.4,1.1,0.7c0.6,0.3,1.1,0.5,1.1,0.5s-0.7-0.4-0.6-0.4c0.1,0,0.3,0.3,0.5-0.1c0.2-0.4-0.1-0.6-0.1-0.6s0.6,0.3,0.8,0.5
			c0.2,0.2,0.2,0.2,0.2,0.2s-0.4-0.5-1.1-0.9C17.8,26.5,17,26.2,17,26.2z"/>
		<path fill-rule="evenodd" clip-rule="evenodd" fill="#FFFFFF" d="M17.3,24.6c0,0,0.8,0.6,0.7,0.3c-0.1-0.3-0.7-0.8-0.7-0.8
			s0.5,0.4,0.6,0.2c0.1-0.1-0.3-0.6-0.3-0.6s0.2,0.1,0-0.5c-0.2-0.6-0.4-0.9-0.4-0.9s1,1.4,1.4,2.2c0.4,0.8,0.4,1,0.4,1l-0.5-0.9
			c0,0,0,0.5-0.1,0.5c-0.2,0.1-0.4,0.1-0.4,0.1s0.3,0.3,0.6,0.6c0.3,0.3,0.3,0.3,0.3,0.3S17.9,25.2,17.3,24.6z"/>
		<path fill-rule="evenodd" clip-rule="evenodd" fill="#FFFFFF" d="M16.6,29.2c0,0,1.1,0.5,1.5,0.8c0.4,0.3-0.1,0.4-0.1,0.4
			s0.2,0.2-0.1,0.3c-0.3,0.1-0.8,0-0.8,0s0.3-0.1,0.4-0.3c0.1-0.2-0.1-0.3-0.1-0.3s0.3-0.1,0.1-0.3C17.2,29.5,16.6,29.2,16.6,29.2
			L16.6,29.2z"/>
		<path fill-rule="evenodd" clip-rule="evenodd" fill="#FFFFFF" d="M17.2,30.8c0,0,1.1,0.3,1.4,0.7c0.3,0.4,0,0.5-0.4,0.4
			c-0.4-0.1-0.7-0.2-0.7-0.2s0.4,0.3,0.3,0.4c-0.1,0.1-0.1,0.1-0.1,0.1s1.2,0.5,1.3,0.8c0.1,0.3-0.1,0,0.1,0.2
			c0.2,0.2,1.2,0.8,1.2,0.9c0,0.2-0.3-0.1-0.3-0.1s0.3,0.3,0.1,0.3c-0.2,0-2.3-0.5-2.7-0.7c-0.4-0.2-0.5-0.3-0.5-0.3
			s1.1,0.5,1.9,0.6c0.8,0.1,0.7-0.2,0.5-0.3c-0.2-0.2-0.5-0.3-0.5-0.3s0.1,0,0-0.1c-0.1-0.1-0.2-0.2-0.2-0.2s0.4,0.1,0.1-0.2
			c-0.3-0.3-1.3-0.6-1.3-0.6s0.2,0,0.1-0.2c-0.1-0.3-0.2-0.4-0.2-0.4s0.5,0.2,0.6,0C17.9,31.2,17.2,30.8,17.2,30.8z"/>
		<path fill-rule="evenodd" clip-rule="evenodd" fill="#FFFFFF" d="M19.9,34.7c0,0,0.5,0.1,0.7,0.4c0.2,0.3,0,0.5-0.2,0.4
			c0,0,0.2,0.3,0,0.4c-0.2,0.1-0.5,0.1-1.1-0.2c-0.6-0.3-0.9-0.5-0.9-0.5s1.1,0.4,1.4,0.2c0.3-0.2,0-0.3,0-0.3s0.3,0.1,0.3-0.1
			C20,34.8,19.9,34.7,19.9,34.7z"/>
		<path fill="#D9D9D8" d="M8.4,25.4c0,0,0.2,0.3,0.7,1.3c0.5,0.9,0.9,1.5,1.4,1.9c0.5,0.4,1,0.6,1,0.6s-0.7,0-1.2-0.5
			c-0.6-0.5-0.6-0.7-0.8-0.9c-0.2-0.2-0.4-0.1-0.4-0.1s0.5,0.5,0.6,0.8c0.2,0.3,0.2,0.4,0.2,0.4S9.6,28.8,9,28.9
			c-0.6,0.1-0.7,0.3-0.7,0.3s0.8,0.3,1.1,0.6c0.4,0.4,0.7,0.9,2.1,1.4c1.4,0.5,2.6,0.6,2.6,0.6s-2.2-0.5-2.9-0.9
			c-0.7-0.4-1.1-1-1.5-1.3c-0.4-0.2-0.2-0.2,0.4,0.2c0.6,0.5,0.9,0.6,0.9,0.6s-0.3-0.5-0.8-0.9c-0.5-0.4-0.5-0.4-0.5-0.4
			s0.7,0.3,0.9,0.4c0.2,0.1,0.2,0.1,0.2,0.1l-0.6-0.7l0.4,0.1l-0.3-0.3c0,0,0.4,0.4,1.1,0.5c0.7,0.1,0.7-0.1,0.7-0.1s-0.9-0.4-1.6-1
			c-0.7-0.6-1.2-1.7-1.2-1.7s0.5,0.6,1,1c0.5,0.4,0.5,0.4,0.5,0.4s-1.1-1.3-1.5-1.8C9,25.7,8.4,25.4,8.4,25.4z"/>
		<path fill="#D9D9D8" d="M12.3,29.3l1.8,2.4c0,0-1.2-0.4-1.6-0.7c0,0,0.1,0.1,0.5,0.1c0.5,0,0.1-0.1-0.3-0.4
			c-0.4-0.4-0.4-0.4-0.4-0.4l0.8,0.4c0,0-0.5-0.4-0.8-0.7c-0.3-0.3-0.3-0.3-0.3-0.3l0.7,0.3c0,0-0.3-0.4-0.7-0.6
			c-0.3-0.2-0.3-0.2-0.3-0.2v-0.2C11.6,29.1,12.1,29.2,12.3,29.3z"/>
		<path fill="#FFFFFF" d="M10.1,28.5c0,0,0.4,0.4,0.9,0.6c0.5,0.1,0.6,0.1,0.9,0.2c0.3,0.2,0.3,0.2,0.3,0.2s-0.4-0.3-0.6-0.2
			c-0.2,0.1,0,0.3,0,0.3s-0.2,0-0.1,0.4c0.1,0.4,0.5,0.7,0.5,0.7s-0.4,0.1-0.2,0.4c0.2,0.3,0.6,0.5,1,0.6c0.4,0.1,1.1,0.2,1.1,0.2
			s-0.6,0.2-2.1-0.4c-1.6-0.6-2.1-1.2-2.1-1.2s1.1,0.7,1.4,0.7c0.3-0.1-0.1-0.8-0.1-0.8s0.3-0.1,0.1-0.5c-0.1-0.3-0.4-0.5-0.4-0.5
			S10.4,29,10.1,28.5z"/>
		<path fill="#FFFFFF" d="M9.9,28.9c0,0-0.4-0.1-0.9,0.1c-0.5,0.2-0.7,0.3-0.7,0.3s0.3,0.1,0.7,0.3C9.3,29.7,9.6,30,9.6,30
			s-0.2-0.3-0.5-0.5c-0.3-0.2-0.4-0.3-0.4-0.3S9.1,28.9,9.9,28.9z"/>
		<path fill="#D9D9D8" d="M13.1,26.9c0,0-0.3,1-0.1,2.2c0.2,1.2,0.4,1.3,0.6,1.7c0.2,0.4,0.2,0.4,0.2,0.4s-0.2-1-0.2-1.6
			c0-0.6,0.1-1.4,0.1-1.4s-0.2,0.7-0.2,1.4c0,0.7-0.1,0.6-0.1,0.3c0-0.3,0-1,0-1s-0.1,0.2-0.1,0.6c0,0.5,0,0.5,0,0.5
			s-0.2-0.7-0.2-1.3c0-0.6,0-0.8,0-0.8s-0.1,0.6-0.1,1c0,0.4,0,0.4,0,0.4S12.9,27.6,13.1,26.9z"/>
		<path fill="#D9D9D8" d="M14.1,28.3c0,0-0.2,0.9,0,2.1c0.2,1.2,0.6,1.7,0.8,2c0.2,0.3,0.6,0.7,0.6,0.7s-0.2-0.5-0.2-1.5
			c0-0.9,0-1.2,0-1.2s-0.1,0.5-0.1,1.2c0,0.7,0.1,1,0.1,1s-0.2-0.4-0.2-1c0-0.6,0-0.6,0-0.6s-0.1,0.3-0.1,0.8c0,0.5,0.1,0.6,0.1,0.6
			s-0.2-0.4-0.3-1.3c-0.1-0.9,0-1.4,0-1.4S14.4,30,14.5,31c0.1,1,0.2,1.1,0.2,1.1s-0.4-0.7-0.5-1.5c-0.1-0.8,0-1.2,0-1.2
			s-0.1,0.4-0.1,0.9c0,0.6,0.1,0.7,0.1,0.7s-0.2-0.9-0.2-1.7c0-0.8,0.2-0.9,0.2-0.9L14.1,28.3L14.1,28.3z"/>
		<path fill="#D9D9D8" d="M8.4,23.7c0,0,1.6-0.5,2.8,1.4c1.2,1.8,0.9,2.6,1.1,3.2c0.1,0.6,0.2,0.8,0.2,0.8s-0.6-1-0.8-1.4
			c-0.2-0.4-0.7-1.1-0.7-1.1l1.1,1.5c0,0,0.1-0.4-0.2-1.4c-0.3-1.1-1.1-2.2-1.9-2.6c-0.8-0.4-1-0.3-1-0.3s0.8,0,1.4,0.8
			c0.6,0.8,0.8,1.2,0.8,1.2s-0.5-0.8-1-1.3c-0.5-0.4-0.8-0.5-0.8-0.5s0.5,0.4,0.9,1.1c0.4,0.7,0.6,1.2,0.6,1.2s-0.6-1.1-1.4-1.9
			C8.6,23.8,8.4,23.7,8.4,23.7z"/>
		<path fill="#D9D9D8" d="M9.5,23.6c0,0,1.3-0.5,2,0.7c0.7,1.2,0.4,1.4,0.5,2c0.2,0.6,0.2,0.9,0.3,1.3c0,0.4,0,0.4,0,0.4
			s0-1.4,0-1.8c0-0.3,0-0.4,0-0.4s0.1,1.3,0.3,2c0.2,0.7,0.2,1,0.2,1s-0.2-1.5-0.4-2.5c-0.1-0.9-0.1-1.2-0.1-1.2l-0.1,1.2L12.1,26
			c0,0,0-1.1-0.6-1.9C11,23.3,10,23.3,9.5,23.6z"/>
		<path fill="#D9D9D8" d="M8.9,23.5c0,0,1.3-1,2.6-0.2c1.3,0.8,1.2,2.6,1.2,2.6s-0.3-2-1.3-2.5C10.3,22.9,8.9,23.5,8.9,23.5z"/>
		<path fill="#FFFFFF" d="M10,24c0,0,0.9,0.5,1.4,1.6c0.5,1.1,0.6,1.4,0.6,1.4s-0.5-0.9-0.6-1.2c-0.1-0.2-0.1-0.2-0.1-0.2
			s0.2,0.9,0,1c-0.2,0.1-0.4-0.3-0.4-0.3s0,0.3-0.1,0.3c0,0,0.7,1.1,0.7,1.1s-1.1-1.5-1.4-2c-0.3-0.5-0.4-0.6-0.4-0.6
			s0.7,0.9,0.8,0.8c0.1-0.1,0-0.3,0-0.3s0.3,0.2,0.4-0.1C11.1,25.3,10.9,24.8,10,24z"/>
		<path fill="#FFFFFF" d="M10.4,23.5c0,0,0.7,0,1.2,1C12,25.5,12,26,12,26s0-0.7-0.1-1.2c-0.2-0.4,0-0.3,0-0.3s0-0.4,0.2-0.4
			c0.2,0,0.4,0.4,0.4,0.4s0-0.3,0.1,0.2c0.1,0.5,0.2,1,0.2,1s0.1-0.5-0.2-1.4c-0.4-1.1-1.2-1.1-1.2-1.1s0.5,0.3,0.5,0.5
			c0,0.2-0.5,0.3-0.5,0.3S11.1,23.7,10.4,23.5z"/>
		<path fill="#FFFFFF" d="M9.3,26.1c0,0,0.7,0.9,1,1.2c0.3,0.4,0.3,0.4,0.3,0.4s-0.4-0.6-0.5-0.3c-0.1,0.3,0.2,1,0.2,1
			S9.9,28,9.5,27.4c-0.4-0.7-0.6-1.1-0.6-1.1s0.6,1.1,0.8,0.8C9.9,26.8,9.3,26.1,9.3,26.1z"/>
		<path fill="#FFFFFF" d="M9.6,25.3c0,0,1.1,1.7,1.3,2c0.2,0.3,0.2,0.3,0.2,0.3l-0.6-0.8c0,0-0.1,0,0,0.2c0,0.3,0.1,0.4,0.1,0.4
			s-0.4-0.3-0.6-0.8c-0.2-0.4-0.3-0.6-0.3-0.6s0.3,0.5,0.4,0.3C10.1,26.1,9.6,25.3,9.6,25.3z"/>
		<path fill="#D9D9D8" d="M12.1,23.3c0,0,1,0.4,1.2,2.1c0.2,1.7,0.1,1.9,0.1,1.9l0.2-1.3l0.1,0.6l0.1-0.7l0.2,0.1l0-0.2l-0.2-0.3
			l0.4-0.2c0,0-0.1-0.7-0.1-0.7c0,0-0.1,0.1-0.2,0.5c-0.2,0.4-0.2,0.5-0.2,0.5s-0.4-1.5-0.9-2C12.2,23,12.1,23.3,12.1,23.3z"/>
		<path fill="#D9D9D8" d="M15.5,34.2c0,0-1.2,0-1.8,0.3c-0.6,0.3-0.6,0.3-0.6,0.3s0.6,0.1,1.3,0.4c0.8,0.3,1.5,0.4,2.4,0.6
			c0.8,0.1,1,0.1,1,0.1s-1.8-0.3-2.5-0.6c-0.7-0.3-0.8-0.3-0.8-0.3s0.8,0.2,1.1,0.2c0.3,0,0.3,0,0.3,0s-0.8-0.4-1.1-0.5
			C14.5,34.5,15.5,34.2,15.5,34.2L15.5,34.2z"/>
		<path fill="#D9D9D8" d="M15.4,34.1c0,0-0.6,0-1.5-0.1c-0.9-0.1-1.8-0.3-1.8-0.3s0.2,0.1,1.1-0.1c1-0.2,1.9-0.3,1.9-0.3
			s-1,0.2-1.4,0.3c-0.3,0.2-0.6,0.1-0.6,0.1s0.7-0.1,1-0.1c0.2,0,0.1,0.1-0.2,0.1c-0.3,0-0.4,0.1-0.4,0.1s1.2,0,1.4,0
			c0.2,0-0.1,0.1-0.1,0.1S15,34,15.4,34.1z"/>
		<path fill="#D9D9D8" d="M10.1,31c0,0,0.5,1.5,1.6,2c1.1,0.5,1.4,0.3,2.1,0.2c0.7-0.2,1.4-0.1,1.4-0.1s-0.6-0.2-1.3,0
			c-0.7,0.1-1.2,0.1-1.7-0.2c-0.5-0.3-0.5-0.3-0.5-0.3s0.5,0.3,0.7,0.3c0.2,0,0.2,0,0.2,0L12,32.5c0,0,0.9,0.2,1.7,0.3
			c0.8,0.1,0.8,0,0.8,0s-1.1-0.1-2-0.3C11.3,32,10.1,31,10.1,31z"/>
		<path fill="#D9D9D8" d="M11.8,31.7c0,0,0.8,0.3,1.5,0.3c0.7,0,1,0.1,1,0.1l0.5,0.6c0,0-0.9-0.4-1.4-0.5c-0.4-0.1-0.6-0.1-0.6-0.1
			s0.7-0.1,0.9,0c0.2,0-1,0-1.4-0.1C12,31.8,11.8,31.7,11.8,31.7z"/>
		<path fill="#D9D9D8" d="M15.1,35.9c0,0,1.1,0.3,1.7,0.2c0.7-0.1,1.1-0.2,1.1-0.2s0.1,0.2-0.5,0.3c-0.6,0.1-0.6,0.1-0.6,0.1
			l0.5,0.1l-0.3,0c0,0,0.3,0.2,0.8,0.3c0.5,0.1,0.7,0.1,0.7,0.1L18.5,37c0,0-1.3-0.2-2.2-0.6C15.4,36,15.1,35.9,15.1,35.9z"/>
		<path fill="#D9D9D8" d="M19.1,37.2c0,0-0.5,0-0.8,0.4C18,37.9,18,38.1,18,38.1s0.4-0.4,1.1-0.5c0.7-0.1,1.6-0.2,1.6-0.2
			s-1.4,0-1.8,0.1c-0.4,0.1-0.4,0.1-0.4,0.1S18.9,37.2,19.1,37.2z"/>
		<path fill="#D9D9D8" d="M20.4,37.8c0,0-0.3,0.1-0.4,0.4c-0.1,0.3-0.1,0.4-0.1,0.4s0.3-0.2,0.4-0.3c0.1-0.1,0.2-0.1,0.2-0.1l-0.3,0
			c0,0,0.2-0.3,0.4-0.3c0.1,0,0.2-0.1,0.2-0.1S20.6,37.7,20.4,37.8z"/>
		<path fill="#FFFFFF" d="M15.1,33c0,0-0.5-0.1-1.3,0.1c-0.8,0.2-1.5,0.1-2-0.2c-0.6-0.3-0.9-0.9-0.9-0.9s0.6,0.5,0.7,0.5
			c0.2,0,0.1-0.2,0.1-0.2s0.2,0.1,0.2,0c0-0.2-0.4-0.4-0.4-0.4s0.5,0.4,1.4,0.6c0.9,0.2,1.6,0.3,1.8,0.3c0.2,0,0.2,0,0.2,0
			s-1.3-0.2-1.6-0.2c-0.4,0-1-0.2-1-0.2s0.1,0.1,0,0.2c-0.1,0.1-0.2,0-0.2,0s0.1,0.2,0,0.3c-0.1,0,0.7,0.3,1.3,0.3
			c0.6,0,0.9-0.2,1.4-0.2C15,33,15.1,33,15.1,33L15.1,33z"/>
		<path fill="#FFFFFF" d="M12.1,33.6c0,0,0.8,0.3,1.6,0.4c0.9,0.1,1.5,0,1.7,0.1c0.2,0.1,0.3,0.1,0.1,0.1c-0.1,0-1,0-1.5,0.2
			c-0.6,0.2-0.7,0.4-0.7,0.4s0.9-0.4,1.2-0.3c0.3,0-0.1,0.1,0.1,0.2c0.2,0.1,0.9,0.4,0.9,0.4s-0.4,0-0.7-0.1
			c-0.3-0.1-0.4-0.1-0.4-0.1s0.5,0.4,1.4,0.6c0.9,0.2,1.3,0.3,1.3,0.3s-1-0.3-1.1-0.5c-0.1-0.2,0.1-0.3,0.1-0.3s-0.5-0.2-0.4-0.4
			c0-0.2,0.2-0.2,0.2-0.2s-0.2-0.2-0.2-0.3c0-0.1-0.5,0-0.6-0.1c-0.2-0.1-0.1-0.2-0.1-0.2s-0.5,0.1-0.6-0.1
			c-0.1-0.2,0.8-0.4,0.8-0.4s-1.1,0.1-1.5,0.3c-0.4,0.2-0.3,0.2-0.1,0.2c0.2,0,0.5,0,0.5,0s-0.6,0.1-0.6,0.2c0,0,1.1,0.1,1.1,0.1
			s0.1,0.2-1,0c-1.1-0.2-1.1-0.3-1.1-0.3l0.7-0.2L12.1,33.6z"/>
		<path fill="#FFFFFF" d="M17.8,35.9c0,0-0.7,0.2-1,0.3c-0.3,0.1,0.1,0.2,0.1,0.2s0,0.1,0.4,0.2c0.3,0.1,0.9,0.3,0.9,0.3
			s-0.9-0.2-1.6-0.4c-0.7-0.2-0.7-0.3-0.7-0.3l0.5,0.1c0,0-0.2-0.2,0-0.2c0.2-0.1,0.4,0,0.9-0.1C17.8,35.9,17.8,35.9,17.8,35.9z"/>
		<path fill="#FFFFFF" d="M19.1,37.2c0,0-0.2-0.1-0.5,0.3c-0.3,0.3-0.3,0.1,0.3,0c0.6-0.1,1.2-0.1,1.2-0.1s-0.9,0-1-0.1
			C18.9,37.3,19.1,37.2,19.1,37.2z"/>
		<path fill="#E5A6AC" d="M5.6,27.8c0,0,1.2-0.2,2,1.5c0.9,1.7,1.2,2.4,1.7,3.3c0.5,0.9,0.7,1,0.7,1s-0.8-1.2-1.2-2.2
			c-0.4-1-0.6-1.8-1.4-2.7c-0.8-0.8-0.8-0.8-0.8-0.8s0.3,0.1,0.7,0.5C7.9,28.8,8,29,8,29s-0.2-0.4-0.4-0.8C7.3,27.8,7,27.5,7,27.5
			s0.4-0.2,1,0.4c0.6,0.5,0.8,0.9,0.8,0.9s-0.4-0.9-0.7-1.1c-0.3-0.3-0.4-0.3-0.4-0.3s0.5,0.1,0.8,0.4c0.3,0.3,0.3,0.3,0.3,0.3
			l-0.3-0.4l0.3,0.1c0,0,0-0.4-0.4-0.7c-0.5-0.2-1.7,0-2.2,0.4C5.7,27.7,5.6,27.8,5.6,27.8z"/>
		<path fill="#E5A6AC" d="M5.3,28.6c0,0,1.5,0,2.4,1.6c0.9,1.5,2.2,3.5,2.6,3.9c0.4,0.4,0.4,0.4,0.4,0.4s-0.9-0.6-1.7-2.1
			C8,31,7.4,30.1,6.9,29.7c-0.4-0.4-0.6-0.4-0.6-0.4s0.5,0.6,0.6,1c0.1,0.4,0,0-0.4-0.4c-0.4-0.4,0,0.5,0.4,1.1
			c0.4,0.6-0.1,0.1-0.4-0.4c-0.3-0.5-0.4-0.9-0.4-0.9s0.9,1.6,1.3,2.1c0.4,0.6,0.4,0.7,0.4,0.7s-1.4-1.1-1.7-2.1
			C5.7,29.4,5.5,28.9,5.3,28.6z"/>
		<path fill="#E5A6AC" d="M6.9,31.9c0,0-0.7-0.2-0.8-0.2s0-0.1,0.4,0.4c0.4,0.5,0.7,1.4,2,1.8c1.3,0.5,2,0.4,2,0.4s-0.8,0.1-1.8-0.5
			c-1-0.6-0.8-0.9-0.8-0.8c0,0-0.5-0.5-0.5-0.6c0-0.2,0.1-0.1,0.1-0.1S7.4,32.1,6.9,31.9z"/>
		<path fill="#E5A6AC" d="M6.5,32.7c0,0-0.3,0.9,0.4,2.1c0.7,1.2,1.8,1.1,2.8,0.9c1-0.2,1.5-0.1,1.5-0.1s-0.2-0.2-1.4,0
			c-1.2,0.1-1.3,0.2-2-0.3C7,34.7,6.4,33.9,6.5,32.7z"/>
		<path fill="#E5A6AC" d="M6.7,33.4c0,0,0.5,1.2,1.7,1.5c1.2,0.3,1.7,0.3,1.7,0.3s-1.2,0.4-2.4-0.4C6.6,34,6.7,33.4,6.7,33.4z"/>
		<path fill="#E5A6AC" d="M11.4,35.7c0,0-0.9,0.1-1.6,0.4c-0.7,0.2-1,0.4-1,0.4s0.7,0.3,1.7-0.1c1-0.4,1.3-0.6,1.3-0.6
			s-0.9,0.4-1.4,0.5c-0.5,0-0.5,0-0.5,0S11.6,35.9,11.4,35.7z"/>
		<path fill="#E5A6AC" d="M9.9,36.8c0,0-0.2,0.4,1.2,0.3c1.3-0.1,1.9-0.6,1.9-0.6s-1.8,0.6-2.5,0.5C9.9,36.8,9.9,36.8,9.9,36.8z"/>
		<path fill-rule="evenodd" clip-rule="evenodd" fill="#E5A6AC" d="M11.1,33c0,0-0.1,0.5,0.2,1.3c0.3,0.8,0.7,1.1,0.7,1.1
			s-0.5-0.5-0.6-0.9C11.3,34,11.3,34,11.3,34l0.3,0.4v-0.3l0.2,0.4l0-0.6c0,0,0,0.2-0.4-0.2C11,33.2,11.1,33,11.1,33z"/>
		<path fill-rule="evenodd" clip-rule="evenodd" fill="#E5A6AC" d="M8.4,30.2c0,0,0.7,1.8,1,1.7c0.2-0.1,0.2-0.1,0.2-0.1
			s0.3,1,0.4,1c0.1-0.1,0.1-0.1,0.1-0.1s0.1,0.5,0.2,0.6c0,0.1,0.2-0.2,0.2-0.2s0,0.6,0.1,0.7c0.1,0.1,0.2-0.3,0.2-0.3l0.1-0.6
			c0,0-0.4,0-0.7-0.5c-0.2-0.5-0.4-1-0.4-1s-0.2,0.5-0.7-0.1c-0.5-0.6-1-1.7-1-1.7L8.4,30.2z"/>
		<path fill-rule="evenodd" clip-rule="evenodd" fill="#E5A6AC" d="M12.1,34.2c0,0-0.2,0.5,0.4,1.2c0.6,0.7,0.9,0.8,0.9,0.8L13,35.5
			c0,0,0.4,0.6,0.9,0.7c0.5,0.1,0.4-0.2,0.4-0.2s0.4,0.5,0.9,0.6c0.4,0.1,0.8-0.1,0.8-0.1s-0.7,0-1.3-0.5C14,35.5,14,35.5,14,35.5
			s-0.2,0.4-0.8,0C12.5,35,12.1,34.2,12.1,34.2z"/>
		<path fill-rule="evenodd" clip-rule="evenodd" fill="#E5A6AC" d="M13.3,36.7c0,0,0,0.5-0.6,0.5c-0.6,0.1-0.6,0-0.6,0
			s0.8,0.4,1.2,0C13.6,36.8,13.3,36.6,13.3,36.7L13.3,36.7z"/>
		<path fill-rule="evenodd" clip-rule="evenodd" fill="#E5A6AC" d="M14.4,37.1c0,0,0.1,0.4-0.6,0.9c-0.7,0.4-1.1,0.4-1.1,0.4
			s0.9,0.6,2.2,0.2c1.3-0.4,1.5-0.8,1.5-0.8s-0.7,0.5-1.3,0.6c-0.7,0.1-1.3,0.1-1.3,0.1s0.4,0.1,0.9-0.3c0.5-0.3,0.4-0.4,0.4-0.4
			S14.7,38,14.5,38c-0.2,0-0.2,0-0.2,0s0.3-0.2,0.3-0.6C14.5,37.1,14.4,37.1,14.4,37.1z"/>
		<path fill-rule="evenodd" clip-rule="evenodd" fill="#E5A6AC" d="M16.6,37.7c0,0-0.3,0.6-1,0.9c-0.7,0.3-1.5,0.4-1.5,0.4
			s0,0.3,1.6,0.3c1.7,0,2.8-0.5,3.3-0.6c0.5-0.1,0.6-0.1,0.6-0.1l0.1,0c0,0-1.1,0.1-2,0.4c-1,0.2-2.2,0.2-2.2,0.2s1.4-0.1,1.6-0.3
			c0.2-0.2,0.3-0.3,0.3-0.3s-0.2,0.2-0.7,0.2c-0.5,0-1.5,0.2-1.5,0.2S17,38.4,16.6,37.7z"/>
		<path fill-rule="evenodd" clip-rule="evenodd" fill="#FFFFFF" d="M11.9,36.1c0,0-0.4,0.4-0.2,0.6c0.2,0.3,0.8,0,0.8,0
			S12,37,11.1,37.1C10.2,37.1,10,37,10,37s1.1,0,1.2-0.1c0.1-0.2-0.4-0.3-0.4-0.3L11.9,36.1z"/>
		<path fill-rule="evenodd" clip-rule="evenodd" fill="#FFFFFF" d="M13.3,36.7c0,0,0.2,0.4-0.1,0.6c-0.3,0.2-1,0-1,0
			s0.4,0.3,0.9,0.1c0.5-0.1,0.4,0.1,0.4,0.1s0.2,0,0.4-0.2c0.2-0.2,0.2-0.3,0.2-0.3s-0.2,0.3-0.6,0.1C13.3,37,13.3,36.7,13.3,36.7z"
			/>
		<path fill-rule="evenodd" clip-rule="evenodd" fill="#FFFFFF" d="M14.4,37.3c0,0-0.1,0.5-0.9,0.8c-0.8,0.2-0.9,0.3-0.9,0.3
			s0.9-0.1,1-0.2c0.2-0.1,0,0.2,0,0.2s0.5,0,0.4,0.1c-0.1,0.1-0.2,0.2-0.2,0.2s0.6,0.1,1.4-0.2C16,38.1,16,38,16,38s-1,0.6-1.4,0.4
			c-0.4-0.2-0.3-0.3-0.3-0.3s-0.3,0-0.2-0.1C14.3,37.8,14.4,37.6,14.4,37.3z"/>
		<path fill-rule="evenodd" clip-rule="evenodd" fill="#FFFFFF" d="M15.8,38.5c0,0-0.4,0.2-0.6,0.4C15.1,39,15.4,39,15.4,39
			s-0.2,0.1,0.3,0.2c0.6,0.1,1.7,0,2.4-0.2c0.7-0.2,0.7-0.2,0.7-0.2s-1.4,0.6-2.9,0.5c-1.5,0-1.7-0.2-1.7-0.2s0.9,0.2,0.9,0
			c-0.1-0.2-0.3-0.3-0.3-0.3L15.8,38.5z"/>
		<path fill-rule="evenodd" clip-rule="evenodd" fill="#FFFFFF" d="M7.2,34c0,0,0.3,0.4,0.8,0.7C8.5,35,9.1,35,9.1,35S8.1,34.8,8,35
			c-0.1,0.2-0.1,0.6,0.5,0.6c0.6,0.1,0.7,0,0.7,0s-0.8,0.3-1.7-0.3c-0.9-0.6-1-1.6-1-1.6s0.3,1,0.7,0.9c0.4,0,0.2-0.3,0.2-0.3
			L7.2,34z"/>
		<path fill-rule="evenodd" clip-rule="evenodd" fill="#FFFFFF" d="M7.4,32.2c0,0-0.4-0.1-0.1,0.4C7.6,33,7.7,33,7.7,33s0,0.6,0.9,1
			c1,0.4,1.7,0.4,1.7,0.4c0.1,0,0.1,0,0.1,0S9,34.1,8.5,33.7c-0.4-0.5-0.1-0.5-0.1-0.5S8.2,33,8.3,32.8c0-0.2,0.3-0.1,0.3-0.1
			S7.9,32,7.9,31.8c-0.1-0.3,0.3,0,0.3,0S8,31.2,8.1,31.3c0.1,0.1,0.8,1.2,0.8,1.2S8.4,31.6,8,31c-0.4-0.6-0.6-0.8-0.6-0.8l0.2,0.5
			c0,0-0.1,0-0.1,0.2c0,0.2,0,0.3,0,0.3s-0.3-0.1-0.3,0.2c0,0.3,0.5,1,0.5,1L7.4,32.2z"/>
		<path fill-rule="evenodd" clip-rule="evenodd" fill="#FFFFFF" d="M8.7,27.3c0,0-0.6-0.6-1.5-0.3c-0.8,0.3-0.5,0.6-0.5,0.6
			s-0.4-0.1-0.4,0.1c0,0.2,0.4,0.6,0.4,0.6s-0.4-0.3-0.8-0.4c-0.3,0-0.4,0-0.4,0L6,27.8c0,0,0-0.2,0.4-0.5C6.8,27,8.1,26.4,8.7,27.3
			z"/>
		<path fill-rule="evenodd" clip-rule="evenodd" fill="#FFFFFF" d="M10.3,35.9c0,0-0.6,0.3-0.3,0.4c0.3,0.1,1.1-0.1,1.1-0.1
			s-0.4,0.3-1.1,0.4c-0.7,0.1-1.2-0.1-1.2-0.1h0.8c0,0-0.3-0.2-0.1-0.3C9.9,36,10.3,35.9,10.3,35.9z"/>
		<path fill-rule="evenodd" clip-rule="evenodd" fill="#8D4E56" d="M10.3,34c0,0,1.8,2.1,4,2.8c2.2,0.6,3.8,0.5,3.8,0.5l0.2,0
			l-0.2,0.2C18.1,37.5,12.9,37.7,10.3,34z"/>
		<path fill-rule="evenodd" clip-rule="evenodd" fill="#6B6C69" d="M23.1,27.1c0,0,1,0,1.7,1.5c0.7,1.5,0.9,3.2,0.9,3.2
			s-0.6-1.7-1.5-2.7c-0.9-1-1.1-1.6-1.1-1.6L23.1,27.1z"/>
		<path fill-rule="evenodd" clip-rule="evenodd" fill="#6B6C69" d="M27.7,32.9c0,0-0.9,0.5-1.1,1c-0.3,0.5-0.2,0.6-0.2,0.6
			s0.2,0,0.7-0.7C27.5,33.1,27.7,32.9,27.7,32.9z"/>
		<path fill-rule="evenodd" clip-rule="evenodd" fill="#6B6C69" d="M24.6,36c0,0,0.7,0.1,1-0.2c0.4-0.2,0.5-0.2,0.5-0.2
			s-0.6,0.8-1.1,0.7C24.6,36.2,24.6,36,24.6,36z"/>
		<path fill-rule="evenodd" clip-rule="evenodd" fill="#6B6C69" d="M11.8,28.4c0,0,3.1,4.5,3.9,5.3c0.8,0.8,1,1.1,1,1.1l-0.1,0.1
			C16.7,34.8,13.1,31.1,11.8,28.4z"/>
		<path fill-rule="evenodd" clip-rule="evenodd" fill="#6B6C69" d="M26.2,28c0,0,0.6,1.6-0.2,4.5c-0.8,2.9-2.5,4.4-2.8,5.1
			c-0.4,0.7-0.1,1-0.1,1l0.2-0.2c0,0,0.1-0.7,1.2-2.2c1.1-1.5,2-4.1,2.1-5.9C26.5,28.5,26.2,28,26.2,28z"/>
		<path fill="#D9D9D8" d="M25.7,18.6c0,0-1,0.6-1.1,2.5c-0.1,1.8,0.1,2.4,0.2,2.7c0.1,0.2,0.2,0.2,0.2,0.2s-0.1,0-0.2-1.2
			c0-1.2,0.2-2.5,0.5-2.9c0.2-0.4,0.1,0.1,0,0.3c-0.1,0.2,0,0.5,0,0.5l0.2-0.6c0,0-0.4,1.3-0.4,2C25,22.6,25,22.6,25,22.6
			s0.3-1.7,0.5-2.3c0.2-0.6,0.2-0.6,0.2-0.6s-0.2,0.7-0.4,1.9c-0.2,1.2-0.2,2-0.1,2.8c0.1,0.8,0.2,0.9,0.4,1.1
			c0.1,0.2,0.1,0.2,0.1,0.2s-0.2-0.4-0.1-1.4c0.1-1,0.1-1,0.1-1s-0.2,0.4-0.2,0.8c-0.1,0.3-0.1,0.3-0.1,0.3s0-0.6,0-1.1
			c0.1-0.4,0.1-0.4,0.1-0.4l-0.2,1c0,0-0.2-0.4,0.1-1.8c0.3-1.3,0.6-2,0.7-1.8c0.1,0.2,0,0.7,0,0.7s0.5-0.5,0.6,0
			c0,0.5-0.3,1.5-0.3,1.5l0.4-0.5c0,0-0.4,0.9-0.4,2c0,1,0.4,1.6,0.4,1.6s-0.4-1.7,0-2.7c0.4-1.1,0.9-1.2,0.9-1.7
			c0-0.5-0.9-1.6-1.4-2.1C25.8,18.6,25.7,18.6,25.7,18.6z"/>
		<path fill="#D9D9D8" d="M24.1,18.4c-0.4,0-1,0.1-1.2,0.5c-0.2,0.4-0.2,1.5,0.3,2.7c0.5,1.2,1.2,1.6,1.2,1.6s-0.5-1.2-0.5-2.4
			c0-1.2,0.6-1.8,0.6-1.8s0,0-0.1,0.2c-0.1,0.2-0.4,0.9-0.3,1.7c0.1,0.8,0.4,1.7,0.4,1.7s-0.2-0.5,0-2c0.2-1.5,0.9-2.1,0.9-2.1
			S24.5,18.4,24.1,18.4z M24.5,19.9c-0.3,1-0.2,1.8-0.2,1.8s-0.3-0.9-0.1-1.6c0.2-0.6,0.4-1.4,0.4-1.4s-0.4,0.2-0.7,0.8
			c-0.2,0.6-0.2,1.3-0.2,1.9c0.1,0.6,0.3,1.3,0.2,1.1c-0.1-0.1-0.4-1.3-0.5-2.1c0-0.8,0-1.1-0.1-1.1c0,0,0,1.3,0.1,2
			c0.2,0.7,0.4,1.1,0.4,1.1s-0.8-0.9-0.9-2.3c-0.1-1.4,0.2-1.7,0.4-1.6c0.1,0.1,0.2,0.2,0.2,0.2s0.2-0.2,0.5-0.3
			c0.7-0.1,1.1,0.1,1.1,0.1S24.8,19,24.5,19.9z"/>
		<path fill="#D9D9D8" d="M22.6,20.5c0,0-0.5,0.7,0.1,1.9c0.6,1.2,2,2.2,2,2.2s-1-1-1.5-1.7c-0.5-0.8-0.2-0.6-0.2-0.6
			s-0.2-0.6-0.1-0.4c0.2,0.3,0.4,0.6,0.4,0.6s-0.3-0.5-0.5-1.1C22.6,20.7,22.6,20.5,22.6,20.5z"/>
		<path fill="#D9D9D8" d="M21.3,21.8c0,0,0.8,0.9,1.5,1.9c0.7,1,2.2,2.7,2.6,3.3c0.5,0.7,0.6,1,0.6,1s-0.2-0.7-0.8-1.5
			c-0.6-0.8-1.9-2.4-2.2-2.8c-0.2-0.4,0-0.3,0.2-0.1c0.2,0.2,0.6,0.6,0.6,0.6s-0.6-0.5-0.9-1.1c-0.4-0.6-0.6-1.1-0.6-1.1L21.3,21.8z
			"/>
		<path fill="#D9D9D8" d="M22.4,23.6l-0.3,1c0,0,0.3,0.9,0.3,1.4c0,0.4,0,0.4,0,0.4s0.1-1,0.2-1.2c0.2-0.2,0.4,0,0.4,0
			s-0.2-0.5,0-0.5c0.2,0.1,1.9,2,1.9,2s-1.3-1.7-1.7-2.2C22.7,24.1,22.4,23.6,22.4,23.6z"/>
		<path fill="#FFFFFF" d="M23.1,26.8c0,0,0.9-0.1,1.8,1.4c0.8,1.5,1,2.9,1,2.9s-0.3-1.7-0.5-2.3c-0.3-0.6,0.1-0.4,0.1-0.4
			S25.4,28,25.5,28c0.1,0.1,0.4,0.9,0.4,0.9s-0.3-1-0.9-1.8c-0.6-0.8-1.3-1.4-1.3-1.4s0.8,1,0.9,1.3c0.1,0.3-0.3,0-0.3,0
			s0.2,0.2,0,0.2C24,27.1,23.6,26.7,23.1,26.8z"/>
		<path fill="#FFFFFF" d="M25.6,20.2c0,0-0.1,0.9,0,1.4c0.1,0.4,0.5,0.1,0.5,0.1s-0.1,0.5,0.1,0.9c0.2,0.4,0.2,0.1,0.2,0.1
			s-0.1,0.7,0,0.7c0.1-0.1,0.1-0.5,0.5-1.1c0.4-0.6,0.7-1,0.5-1.5c-0.2-0.5-0.4-0.9-0.4-0.9s0.7,0.8,0.7,1.3c0,0.4-0.7,0.9-1,1.8
			c-0.2,0.9-0.1,1.9-0.1,1.9l-0.2-1.1c0,0-0.2,0-0.3-0.5c-0.1-0.5-0.2-0.6-0.3-0.6c-0.1,0-0.1,0-0.1,0s-0.1-0.6-0.3-0.7
			c-0.2-0.1-0.3,0.3-0.3,0.3S25.4,21.3,25.6,20.2z"/>
		<path fill="#D9D9D8" d="M27.1,24.9c0,0,0.2,0.9,0.2,1.8c-0.1,0.9-0.7,1.5-0.7,1.5s0.2-0.4,0.4-1c0.1-0.6,0-0.6,0-0.6
			s-0.1,0.9-0.1,0.6c-0.1-0.4-0.1-0.5-0.1-0.5s0,0.4-0.1,0.3c-0.1-0.1-0.3-0.2-0.4-0.8c-0.2-0.6-0.2-1.6-0.2-1.6l0-0.5
			c0,0,0.2,1.4,0.5,1.8c0.2,0.4,0.4-0.2,0.4-0.2s0.2,0.4,0.3,0.1C27.1,25.5,27.1,24.9,27.1,24.9z"/>
		<path fill="#D9D9D8" d="M27.7,22.6c0,0-0.2,1,0.1,2.5c0.3,1.5,0.3,1.8-0.1,3.2c-0.4,1.4-1,1.7-1,1.7s0.7-1.2,0.8-1.8
			c0-0.6-0.3-0.2-0.3-0.2v-0.2c0,0,0.3-0.7,0.3-1.6c0-0.9-0.1-1-0.1-1s0.3,1.1,0.3,0.7c0-0.4-0.2-1-0.2-1.8
			C27.5,23.3,27.6,22.9,27.7,22.6z"/>
		<path fill="#D9D9D8" d="M28.8,24.6c0,0-0.2,1.1-0.2,2.3c-0.1,1.1-0.4,2.4-0.8,3.3c-0.5,0.9-1,0.8-1,0.8s0.7-0.8,0.8-1.2
			c0.1-0.3-0.1,0-0.1,0l0-0.2c0,0,0.6-0.9,0.7-1.6c0.1-0.7,0.1-0.8,0.1-0.8s0.1,0.4,0.2,0.3c0.1-0.2,0.1-1.5,0.2-2.2
			C28.6,24.6,28.8,24.6,28.8,24.6z"/>
		<path fill="#D9D9D8" d="M28.4,29.2l-0.3,0.6c0,0,0,0.3-0.4,0.8c-0.4,0.5-1.1,0.7-1.1,0.7s0.2-0.1,0.5-0.1c0.2-0.1,0,0.2,0,0.2
			s0.2-0.2,0.3-0.3c0.1-0.1,0,0-0.4,0.6c-0.5,0.6-0.5,0.6-0.6,0.7c-0.1,0.1-0.2,0.2,0,0.3c0.1,0.1-0.1,0.3-0.1,0.3s0.4-0.2,0.6-0.2
			c0.3-0.1,0.4-0.1,0.2,0.1c-0.3,0.2-0.9,0.8-0.9,0.8s0,0.1-0.1,0.4c-0.1,0.3-0.2,0.5-0.3,0.5c0,0,0.1,0.1,0.1,0.4
			c0,0.3-0.4,0.5-0.4,0.5s0,0,0.6-0.2c0.6-0.2,0.7-0.5,1.1-1.1c0.4-0.6,0.5-0.6,0.5-0.6s-0.1,0.2-0.4,0.5c-0.3,0.3-0.5,0.8-1,1.3
			c-0.5,0.4-0.8,0.3-1.2,0.4c-0.4,0.1-0.4,0.2-0.4,0.2s0,0,0.9-0.1c0.9-0.1,1.3-0.9,1.7-1.5c0.4-0.6,0.9-1,0.9-1s-0.2-0.1-0.5-0.1
			c-0.3,0.1-0.5,0.8-0.9,1.3c-0.5,0.5-0.6,0.3-0.6,0c0-0.3,0.1-0.7,0.9-1.4c0.8-0.7,1.8-0.9,1.8-0.9s0,0-0.2-0.1
			c-0.2-0.1-0.9-0.2-1.5,0.2c-0.6,0.4-0.8,0.3-0.8,0.3s0.4,0.1,1.2-1.2C28.6,29.9,28.4,29.2,28.4,29.2z"/>
		<path fill="#D9D9D8" d="M23.1,28.2c0,0,1.1,0.9,1.8,2.5c0.7,1.7,0.7,2.5,0.7,2.5s-0.3-0.9-0.4-1.1c-0.1-0.2-0.1,0.6-0.1,0.6
			s-0.1-0.5-0.2-0.2c-0.1,0.4,0,1.2,0,1.2s-0.2-0.6-0.3-0.4c0,0.2,0,0.3,0,0.3s-0.1-0.7-0.4-1.2c-0.3-0.5-0.5-0.8-0.5-0.8
			s0.5,0.4,0.6,0.5c0.1,0.2,0.2-0.3,0.2-0.3c0-0.1,0.4,0.3,0.3-0.4C24.8,30.7,23.5,28.9,23.1,28.2z"/>
		<path fill="#D9D9D8" d="M23.6,32.1c0,0,0.5,0.5,0.6,1.8c0.1,1.3-0.1,1.6-0.1,1.6s0.1-0.5,0-0.6C24,34.7,24,35.1,24,35.1
			s-0.2-0.6-0.2-0.8c-0.1-0.2-0.1-0.3-0.1-0.3s0.3,0.3,0.4,0C24.1,33.6,23.6,32.1,23.6,32.1z"/>
		<path fill="#D9D9D8" d="M23.5,34.5c0,0,0.2,0.3,0,1.2c-0.2,0.9-0.3,1.7-0.3,1.7s0.1-0.5,0.1-0.9c0-0.5,0-0.5,0-0.5l-0.2,0.7
			c0,0-0.1-0.4,0.1-1c0.2-0.7,0.2-0.3,0.2-0.3S23.5,35,23.5,34.5z"/>
		<path fill="#D9D9D8" d="M24,36.9c0,0,0.2,0.5,1,0.4c0.8-0.1,0.9-0.4,0.9-0.4s-0.4,0.5-0.9,0.5c-0.5,0-0.6,0-0.6,0s0.1,0.1,0.4,0.1
			c0.3,0,0.3,0.1,0,0.1c-0.4,0.1-0.6,0.1-0.9,0c-0.3,0-0.4,0-0.4,0s0.7,0,0.8-0.1c0.1-0.1-0.3-0.2-0.3-0.2s0.2,0,0.1-0.2
			C24,37.1,24,36.9,24,36.9z"/>
		<path fill="#D9D9D8" d="M24.2,36.6c0,0,0.5,0.8,1.5,0.2c1.1-0.6,1.3-1.5,1.3-1.5s-0.9,1.2-1.2,1.3c-0.3,0.1,0.2-0.3,0.2-0.3
			l-0.2,0l0-0.1c0,0-0.3,0.3-0.7,0.2c-0.4-0.1-0.5-0.2-0.5-0.2s0.1,0.2,0.3,0.3c0.2,0.1,0.3,0.1,0.2,0.2c-0.2,0-0.2,0-0.2,0
			s0.2,0.2,0,0.1C24.5,36.8,24.2,36.6,24.2,36.6z"/>
		<path fill="#FFFFFF" d="M24.3,19.6c0,0-0.2,0.8-0.2,1.4c0.1,0.6,0.1,0.7,0.1,0.7l-0.1-0.8c0,0,0,0.3,0.2,0.2
			c0.1-0.1,0.1-0.3,0.1-0.3s0.1-0.8,0.3-1.2C24.9,19.1,25,19,25,19s-0.3,0.4-0.5,1.2c-0.1,0.3-0.3,0.1-0.3-0.1
			C24.2,19.9,24.3,19.6,24.3,19.6z"/>
		<path fill="#FFFFFF" d="M25.2,19c0,0-0.4,0.6-0.4,1.1c-0.1,0.5,0.2,0.3,0.2,0.3s0,0.4,0.1,0.3c0.2-0.1,0.4-0.7,0.4-0.7
			s-0.2,0.9-0.3,1.4C25.1,22,25.1,22,25.1,22l0-0.8c0,0-0.1,0.2-0.2,0c-0.1-0.2-0.1-0.3-0.1-0.3s0,0.2-0.1,0.1
			c-0.1-0.1-0.1-0.1-0.1-0.1l-0.1,0.4c0,0,0-0.6,0.2-1.2C24.9,19.4,25.2,19,25.2,19z"/>
		<path fill="#FFFFFF" d="M24.1,19.6c0,0-0.2,0.6-0.2,1.3c0,0.7,0.2,1.3,0.2,1.3s-0.2-1.1-0.3-1.2c-0.1-0.1-0.1,0.1-0.1,0.1
			s-0.2-0.3-0.2-0.2c0,0.1,0.1,0.7,0.1,0.7s-0.2-0.8-0.3-0.8c-0.1,0-0.3,0.1-0.1,0.6c0.1,0.5,0.2,0.5,0.2,0.5s-0.3-0.5-0.5-1.2
			c-0.2-0.7-0.1-1.3-0.1-1.3s0,0.6,0.4,0.6c0.4,0,0.4-0.4,0.4-0.4s0.1,0.4,0.2,0.3C23.9,20,24.1,19.6,24.1,19.6z"/>
		<path fill="#FFFFFF" d="M22.8,21.1c0,0,0.4,0.9,0.7,1.4c0.3,0.5,0.9,1.1,0.9,1.1s-0.5-0.5-0.5-0.4c0,0.1,0.1,0.3,0.1,0.3
			s0,0.1,0.1,0.2c0,0.1,0.6,0.7,0.6,0.7s-0.7-0.6-1-0.9c-0.3-0.3-0.5-0.7-0.5-0.7s0.4,0.4,0.3,0C23.5,22.5,23,21.7,22.8,21.1z"/>
		<path fill="#FFFFFF" d="M22.9,23c0,0,1.4,1.5,1.8,2c0.4,0.5,0.4,0.6,0.4,0.6S24.7,25,24.6,25c-0.1,0,0.1,0.5,0.1,0.5
			s-0.2-0.1-0.1,0.1c0.1,0.3,0.4,0.6,0.4,0.6s-0.6-0.5-1-1.1c-0.5-0.6-0.6-1-0.6-1s0.3,0.4,0.5,0.4c0.2,0,0.1-0.2,0.1-0.2
			s0.2,0.1,0.1-0.1C24,24.2,23.1,23.4,22.9,23z"/>
		<path fill="#FFFFFF" d="M27.1,24.9c0,0,0.3,1.3,0.1,1.5c-0.1,0.1-0.4-0.3-0.4-0.3s0,0.3-0.2,0.2c-0.2-0.1-0.2,0-0.3,0
			c-0.1,0-0.4-1.3-0.4-1.7c0-0.4,0-0.4,0-0.4s0.2,1.6,0.5,1.6c0.3,0,0.3-0.2,0.3-0.2s0,0.2,0.1,0.1c0.1-0.1,0.1-0.3,0.1-0.3
			s0.1,0,0.1-0.2C27,25,27.1,24.9,27.1,24.9z"/>
		<path fill="#FFFFFF" d="M27.4,25.9c0,0,0,0.7-0.1,1.2c-0.1,0.5-0.4,0.9-0.4,0.9s0.2-0.2,0.3-0.4c0.1-0.2,0.1-0.2,0.1-0.2
			s0.1,0.2,0.2,0.1c0.2-0.1,0.2-0.1,0.2-0.1s0.1,0.1,0.1,0.4c0,0.3-0.2,0.8-0.2,0.8s0.4-0.9,0.3-1.7c0-0.8-0.1-1-0.1-1
			s0.1,0.7-0.1,0.6C27.5,26.3,27.4,25.9,27.4,25.9z"/>
		<path fill="#FFFFFF" d="M28,28.2l0.1-0.5c0,0-0.1,0.6-0.2,0.9c-0.1,0.3-0.3,0.7-0.3,0.7s0.4,0.1,0.4,0.3c0,0.2-0.3,0.8-0.3,0.8
			s0.2-0.3,0.4-0.8c0.2-0.4,0.3-1.3,0.3-1.3s-0.1,0.3-0.2,0.4C28,28.9,28,28.2,28,28.2L28,28.2z"/>
		<path fill="#E5A6AC" d="M30.1,22.2c0,0,0.2,1,0.5,1.8c0.3,0.9,0.5,1.8,0.2,2.8c-0.3,1.1-0.9,2.3-0.9,2.3s0.7-1.9,0.8-2.7
			c0.1-0.8-0.1-1.2-0.1-1.2s0,0.5-0.1,1.2c-0.1,0.7-0.4,1.4-0.4,1.4s0.4-1.3,0.4-2.2c0-1-0.4-2.6-0.4-2.6s0.1,0.9,0,2.1
			c-0.1,1.2-0.4,1.9-0.4,1.9s0.3-1.7,0.2-2.7c-0.1-1,0-1.4,0-1.4s-0.1,1-0.2,1.8c-0.1,0.8-0.1,1.2-0.1,1.2s0-1.7,0.1-2.6
			c0.1-0.9,0.1-1.1,0.1-1.1s-0.4,0.5-0.4,2.3c0,1.8-0.1,3.1-0.1,3.9c0.1,0.8,0.1,1,0.1,1l-0.5-2.3l0.3,0.7c0,0-0.1-2.5,0.1-4
			c0.2-1.5,0.3-1.5,0.3-1.5s-0.3,0.2-0.4,0.7C29,23.7,29,23.7,29,23.7L29,23.3c0,0-0.2,0.1-0.2,0.4c0,0.3,0.1,0.3,0.1,0.3
			s-0.2-0.4-0.1-0.7c0.1-0.3,0.4-0.6,0.7-0.9C29.7,22.2,30,22.1,30.1,22.2z"/>
		<path fill="#E5A6AC" d="M31.7,26.5c0,0-0.2,0.7-0.6,1.6c-0.4,0.9-0.7,2.1-0.7,2.1s0.7-1.3,1-2.3C31.7,27,31.7,26.5,31.7,26.5z"/>
		<path fill="#E5A6AC" d="M31.8,28.5c0,0-1.2,1.9-1.7,3.1c-0.5,1.2-0.6,1.3-0.6,1.3s0.8-1.3,1.1-1.8c0.3-0.5,0.3-0.2,0.3,0
			c-0.1,0.2,0.3-0.1,0.1,0.4c-0.1,0.5-0.9,1-0.9,1s0.9-0.2,1.2-1.8c0,0-0.3,0.2-0.2-0.5C31.2,29.6,31.8,28.5,31.8,28.5z"/>
		<path fill="#E5A6AC" d="M29.5,34.3c-0.6,0.3-0.8,0-0.8,0s0.8,0.1,0.9-0.3c0.1-0.4-0.1-0.3-0.1-0.3l0.9-0.8
			C30.4,32.9,30.1,34.1,29.5,34.3z"/>
	</g>
	<g>
		<path fill-rule="evenodd" clip-rule="evenodd" fill="#010101" d="M23,40.4c0,0,3.9,12.9,4.4,14.1c0.4,1.2,0.9,1.8,1.9,1.2
			c1-0.7-5.5-15.5-5.5-15.5L23,40.4z"/>
		<linearGradient id="SVGID_1_" gradientUnits="userSpaceOnUse" x1="65.6167" y1="58.5555" x2="76.7731" y2="58.5555">
			<stop  offset="0" style="stop-color:#F0E23C"/>
			<stop  offset="0.1155" style="stop-color:#F0DE3B"/>
			<stop  offset="0.2572" style="stop-color:#EED437"/>
			<stop  offset="0.4126" style="stop-color:#ECC332"/>
			<stop  offset="0.5777" style="stop-color:#E9AA2C"/>
			<stop  offset="0.7488" style="stop-color:#E68C26"/>
			<stop  offset="0.7925" style="stop-color:#E58425"/>
		</linearGradient>
		<path fill="url(#SVGID_1_)" d="M66.6,54.5c0,0,1.8-1.6,3.3,0.4c1.5,2.1,2.4,4,3.8,4.8c1.4,0.8,3,1,3,1.8c0,0.8-1.6,1.1-1.6,1.1
			s-0.9,0.9-2.3,0.3c-1.3-0.6-1.3-0.6-1.3-0.6s-0.3,0.8-0.7,0.3c-0.3-0.4-0.7-2.4-0.8-2.7c-0.2-0.3-1.1-0.4-1.1-0.4s0.7,2.3-0.2,3.1
			c-0.9,0.8-1.9,0.7-1.8-0.7c0.1-1.4-0.2-2.3-0.9-3.1c-0.7-0.8-0.4-1.7-0.2-2.7C66.2,55.2,66.6,54.5,66.6,54.5z"/>
		<linearGradient id="SVGID_2_" gradientUnits="userSpaceOnUse" x1="34.8194" y1="50.511" x2="67.823" y2="50.511">
			<stop  offset="0" style="stop-color:#726659"/>
			<stop  offset="0.3152" style="stop-color:#FFFFFF"/>
			<stop  offset="0.6501" style="stop-color:#D0D2D3"/>
			<stop  offset="0.6781" style="stop-color:#C3BDB7"/>
			<stop  offset="0.7626" style="stop-color:#A68F7A"/>
			<stop  offset="0.8401" style="stop-color:#907054"/>
			<stop  offset="0.9079" style="stop-color:#815C3B"/>
			<stop  offset="0.9635" style="stop-color:#78512E"/>
			<stop  offset="1" style="stop-color:#754D29"/>
		</linearGradient>
		<path fill="url(#SVGID_2_)" d="M34.8,45.6c0,0-0.1,3.2,2.3,5.6c2.4,2.5,9.4,4.7,13.6,4.2c4.2-0.5,7.1-2.8,7.4-3.9
			c0.3-1.1,0-1.4,0-1.4s-17-2.6-19.7-3.5C35.8,45.6,34.8,45.6,34.8,45.6z"/>
		<path fill="#FFFFFF" d="M56.1,50.9c-0.6,0.8-2.1,1.6-2.7,0.3c-0.1-0.2-0.3-0.1-0.4,0c-0.4,2.5-4,1.6-5.1,0.3
			c-0.1-0.1-0.3-0.1-0.4,0c-0.9,0.5-1.9,0.7-2.9,0.2c-0.5-0.3-0.6-0.5-1.2-0.6c-0.2,0-0.3,0.2-0.1,0.3c0.8,0.4,1.1,1,2.1,1.2
			c0.7,0.1,1.5-0.1,2.2-0.4c0.9,1,2,1.4,3.4,1.3c1-0.1,2.1-0.6,2.3-1.5c0.9,0.9,2.5,0.4,3.2-0.7C56.7,51,56.3,50.7,56.1,50.9z"/>
		<path fill="#FFFFFF" d="M39.7,50.1c-1.1-0.5-2.2-0.7-2.9-1.7c-0.1-0.1-0.2-0.2-0.3-0.1c-1.1,0.5-1-1.6-1.1-2.2
			c0-0.2-0.4-0.2-0.4,0c-0.2,1,0.2,3.3,1.6,2.7c0.8,0.9,2,1.5,3.2,1.4C39.7,50.3,39.8,50.1,39.7,50.1z"/>
		<path fill="#42190E" d="M56.4,51c0,0-0.8,1.2-1.8,1.2s-1.2-0.3-1.2-0.3s-1,1.3-2.5,1.3c-1.5-0.1-3.2-1.1-3.2-1.1s0.1-0.3-0.4,0
			c-0.5,0.3-1.4,0.5-2.3,0C44,51.7,44,51.7,44,51.7s0.8,1.1,2.3,1.1c1.5,0,2.2,0.3,3.1,0.6c0.9,0.3,2.6,0.2,3.8-0.3
			c1.2-0.5,2.2-0.6,2.4-0.2c0.2,0.4,0.3,0.7,0.3,0.7s0.6-0.1,1.5-1.3c0.9-1.2,1.1-1.9,1.1-1.9l-1.7-0.1C56.8,50.2,56.6,50.8,56.4,51
			z"/>
		<path fill="#42190E" d="M35.2,45.8c0,0-0.1,2.6,0.6,2.8c0.7,0.2,0.7,0.2,0.7,0.2s0.9,0.8,1.4,1c0.5,0.2,1.2,0.4,1.2,0.4
			s-0.9,0.1-1.8-0.4c-0.9-0.5-1,0.1-1,0.1s-0.4,0.2-1.1-1.2c-0.7-1.4-1-2.6-1-3.2C34.3,44.8,35.2,45.8,35.2,45.8z"/>
		<radialGradient id="SVGID_3_" cx="46.696" cy="50.6665" r="19.6275" gradientUnits="userSpaceOnUse">
			<stop  offset="0" style="stop-color:#F0E23C"/>
			<stop  offset="0.1155" style="stop-color:#F0DE3B"/>
			<stop  offset="0.2572" style="stop-color:#EED437"/>
			<stop  offset="0.4126" style="stop-color:#ECC332"/>
			<stop  offset="0.5777" style="stop-color:#E9AA2C"/>
			<stop  offset="0.7488" style="stop-color:#E68C26"/>
			<stop  offset="0.7925" style="stop-color:#E58425"/>
			<stop  offset="0.9719" style="stop-color:#F3A91D"/>
		</radialGradient>
		<path fill="url(#SVGID_3_)" d="M34.6,46.4c0,0,0.8,6.2,9.2,8.3c8.4,2.1,12-0.3,13.1-1.6c1-1.3,1.2-1.8,1.2-1.8l8.8-0.9
			c0,0,2.1,2.4-2.1,6c-4.1,3.6-8.6,7.4-18.6,6.1C36.2,61,31,55.5,29.1,51.1c-1.9-4.4-1.1-7.7-1.1-7.7L34.6,46.4z"/>
		<path fill="#F69321" d="M27.6,42.8c0,0-0.2,2.9,0.7,2.8c0.9-0.1,0.9-0.1,0.9-0.1s0,1.8,1,1.8c1,0,1.7-0.5,1.7-0.5s0.5,1.8,1.3,1.6
			c0.8-0.3,3.3,2.4,3.3,2.4s-1.4-2.1-1.8-3.7c-0.4-1.6-0.2-2-0.2-2s-4.6-2.6-5.3-4.1c-0.7-1.5-0.8-2.2-0.8-2.2S27.6,40,27.6,42.8z"
			/>
		<path fill="#F69321" d="M36.3,53.1c0,0-2.3,1-0.5,3.4c1.8,2.4,3.8,2,8.1,3.6c4.4,1.6,10.1,1.1,10.5-0.4c0.3-1.5-1.5-2.5-1.5-2.5
			s-2.6,3.7-8.8,2.1c-6.2-1.6-7.1-4.2-7.5-4.9C36.4,53.5,36.3,53.1,36.3,53.1z"/>
		<path fill="#F69321" d="M54.1,55c0,0,3.6-1.2,4.5-1.6c0.9-0.4,0.5,0.5,2,0.4c1.4-0.1,1.8-0.8,1.8-0.8s0.8,1,2,0.5
			c1.2-0.4,1.2-1.2,1.2-1.2s1.2,0.3,1.6-0.3c0.4-0.7,0-3-0.3-3.3c-0.3-0.3-0.3-0.3-0.3-0.3l-8.3,1.2c0,0,0.6,1-0.8,2.7
			C55.8,54.2,54.1,55,54.1,55z"/>
		<radialGradient id="SVGID_4_" cx="44.3098" cy="31.0008" r="8.0743" gradientUnits="userSpaceOnUse">
			<stop  offset="0" style="stop-color:#FFFFFF"/>
			<stop  offset="0.6763" style="stop-color:#F4E87E"/>
			<stop  offset="0.9719" style="stop-color:#F0E23C"/>
		</radialGradient>
		<path fill-rule="evenodd" clip-rule="evenodd" fill="url(#SVGID_4_)" d="M46.7,28.9l-1.3,2.5c0,0-2.4-3.9-6.4,0.1
			c-4.1,4-2.8,7.5-2.4,8c0.5,0.5,0.5,0.5-0.7,0.7c-1.1,0.3-3.7,0.2-5.1-1.2c-1.4-1.4-1-2.4-1-2.4s2.8-5.1,6.3-7.4
			c3.5-2.2,6.9-3.3,6.9-3.3S49.5,26.7,46.7,28.9z"/>
		<radialGradient id="SVGID_5_" cx="54.0564" cy="33.3961" r="8.7276" gradientUnits="userSpaceOnUse">
			<stop  offset="0" style="stop-color:#FFFFFF"/>
			<stop  offset="0.6763" style="stop-color:#F4E87E"/>
			<stop  offset="0.9719" style="stop-color:#F0E23C"/>
		</radialGradient>
		<path fill-rule="evenodd" clip-rule="evenodd" fill="url(#SVGID_5_)" d="M51.7,35.3c0,0,2.6-3.9,6.5-2.4c3.8,1.5,3.1,5.6,2.4,8
			c-0.7,2.4-2.8,3.7-2.8,3.7s1.2,1.7,4,1.8c2.8,0.1,5.5-1.2,5.5-1.2s1.8-5.5-1.8-10.7c-3.7-5.2-6.7-6.3-6.7-6.3s-3.5-1.5-5.2,0.8
			C51.8,31.4,51.7,35.3,51.7,35.3z"/>
		<path fill="#F69321" d="M60.5,42.7l0.8-1c0,0,0.8,0.7,2,0.7c1.2,0,1.2,0,1.2,0s-0.4-0.3-1.2-0.8C62.5,41,62.5,41,62.5,41
			s1.4,0.7,2.2,0.3c0.8-0.3,0.8-0.3,0.8-0.3s-1-0.1-1.6-0.6c-0.6-0.5-0.9-0.9-0.9-0.9s1,0.5,1.5,0.3c0.5-0.2,0.8-0.6,0.8-0.6
			s-1.1-0.2-1.7-0.7c-0.6-0.5-0.6-0.5-0.6-0.5s1,0,1.4-0.5c0.4-0.5,0.4-0.5,0.4-0.5s-1.3,0-2.3-0.9c-1-0.9-2.1-2.1-2.1-2.1
			S62.2,40.3,60.5,42.7z"/>
		<path fill="#F69321" d="M33,34.3c0,0,1,1,2.2,0.4c1.2-0.6,1.7-1.9,1.7-1.9l0.4-0.6c0,0-2.1,1.4-2.7,1.1c-0.6-0.3-1.2-0.5-1.2-0.5
			s0.3,0.9,1,1.2c0.8,0.3,0.4,0.2,0.4,0.2L33,34.3z"/>
		<radialGradient id="SVGID_6_" cx="57.3775" cy="37.1286" r="9.4483" gradientUnits="userSpaceOnUse">
			<stop  offset="0" style="stop-color:#FFFFFF"/>
			<stop  offset="0.1816" style="stop-color:#F7F6F6"/>
			<stop  offset="0.4042" style="stop-color:#E7E7E7"/>
			<stop  offset="0.6483" style="stop-color:#D0D0D1"/>
			<stop  offset="0.906" style="stop-color:#B2B3B6"/>
			<stop  offset="0.9975" style="stop-color:#A6A8AC"/>
		</radialGradient>
		<path fill="url(#SVGID_6_)" d="M51.8,35.6c0,0,1.5-3,4.1-3.1c2.6-0.1,4.9,2.3,4.9,6.7c0,4.3-2.8,5.4-3.1,5.5
			c-0.4,0.1-3.9-2.2-5.2-5C51.3,36.9,51.8,35.6,51.8,35.6z"/>
		<path fill="#FFFFFF" d="M45,31.2c0,0-1.5-2.5-5.5-0.4C35.4,33,36.3,38,36.8,39c0.5,1,1.5,0.8,3.3-0.6c1.8-1.4,3.8-5.3,4.4-6.3
			C45.1,31.2,45,31.2,45,31.2z"/>
		<path fill="#C0BFBF" d="M57.8,32.7c0,0-2.5-0.2-3.6,2.8c-1,3,1.3,7.2,3,7.7c1.7,0.5,2.6-0.7,2.6-0.7l-1.8,2.4c0,0-3.5-1.6-4.9-4.4
			c-1.4-2.8-1.2-5.4-1.2-5.4S53.8,32,57.8,32.7z"/>
		<path fill="#C0BFBF" d="M43.1,30.1c0,0,1.2,0.1-1.2,4.3c-2.4,4.1-5.1,3.2-5.2,2.5c-0.1-0.8,0-1.4,0-1.4s-0.7,0.4-0.3,2.2
			c0.4,1.8,0.8,2.1,0.8,2.1s3.4-1.2,4.9-3.5c1.5-2.3,2.8-4.8,2.8-4.8S44.6,30.1,43.1,30.1z"/>
		<g>
			
				<ellipse transform="matrix(0.9991 4.355336e-002 -4.355336e-002 0.9991 1.7202 -2.3163)" fill-rule="evenodd" clip-rule="evenodd" fill="#595A5C" cx="54" cy="38.3" rx="2.4" ry="3.3"/>
			
				<radialGradient id="SVGID_7_" cx="63.0252" cy="31.7045" r="2.5963" gradientTransform="matrix(0.999 4.370000e-002 -4.370000e-002 0.999 -7.5867 3.9173)" gradientUnits="userSpaceOnUse">
				<stop  offset="0" style="stop-color:#A6A7AA"/>
				<stop  offset="1" style="stop-color:#6E6F71"/>
			</radialGradient>
			<path fill-rule="evenodd" clip-rule="evenodd" fill="url(#SVGID_7_)" d="M56.1,38.4c-0.1,1.6-1.1,2.9-2.3,2.9
				c-1.2-0.1-2.1-1.4-2-3.1c0.1-1.6,1.1-2.9,2.3-2.9C55.3,35.4,56.2,36.8,56.1,38.4z"/>
			
				<linearGradient id="SVGID_8_" gradientUnits="userSpaceOnUse" x1="61.644" y1="30.9638" x2="65.1708" y2="30.9638" gradientTransform="matrix(0.999 4.370000e-002 -4.370000e-002 0.999 -7.5867 3.9173)">
				<stop  offset="0" style="stop-color:#D0D2D3"/>
				<stop  offset="1" style="stop-color:#6E6F71"/>
			</linearGradient>
			<path fill-rule="evenodd" clip-rule="evenodd" fill="url(#SVGID_8_)" d="M52.8,35.9c-0.2,0.9-0.3,2.2,0.8,3.3
				c1,0.9,1.7,0.8,2.2,0.6c0.2-0.4,0.3-0.9,0.3-1.3c0.1-1.6-0.8-3-2-3.1C53.6,35.3,53.2,35.5,52.8,35.9z"/>
			
				<ellipse transform="matrix(0.999 4.374678e-002 -4.374678e-002 0.999 1.7222 -2.323)" fill-rule="evenodd" clip-rule="evenodd" fill="#010101" cx="53.9" cy="38.2" rx="1.4" ry="2"/>
			
				<ellipse transform="matrix(0.999 4.415300e-002 -4.415300e-002 0.999 1.6636 -2.3766)" fill-rule="evenodd" clip-rule="evenodd" fill="#FFFFFF" cx="54.6" cy="36.5" rx="0.5" ry="0.7"/>
			
				<ellipse transform="matrix(0.999 4.466651e-002 -4.466651e-002 0.999 1.8154 -2.3198)" fill-rule="evenodd" clip-rule="evenodd" fill="#FFFFFF" cx="52.8" cy="39.5" rx="0.2" ry="0.3"/>
		</g>
		<g>
			
				<ellipse transform="matrix(0.9991 4.356777e-002 -4.356777e-002 0.9991 1.5711 -1.7587)" fill-rule="evenodd" clip-rule="evenodd" fill="#595A5C" cx="41.1" cy="35.2" rx="2.2" ry="2.9"/>
			
				<radialGradient id="SVGID_9_" cx="50.018" cy="29.114" r="2.3091" gradientTransform="matrix(0.999 4.370000e-002 -4.370000e-002 0.999 -7.5867 3.9173)" gradientUnits="userSpaceOnUse">
				<stop  offset="0" style="stop-color:#A6A7AA"/>
				<stop  offset="1" style="stop-color:#6E6F71"/>
			</radialGradient>
			<path fill-rule="evenodd" clip-rule="evenodd" fill="url(#SVGID_9_)" d="M43,35.3c-0.1,1.5-1,2.6-2,2.6c-1.1,0-1.9-1.3-1.8-2.7
				c0.1-1.5,1-2.6,2-2.6C42.3,32.6,43.1,33.8,43,35.3z"/>
			
				<linearGradient id="SVGID_10_" gradientUnits="userSpaceOnUse" x1="48.7895" y1="28.4552" x2="51.9263" y2="28.4552" gradientTransform="matrix(0.999 4.370000e-002 -4.370000e-002 0.999 -7.5867 3.9173)">
				<stop  offset="0" style="stop-color:#D0D2D3"/>
				<stop  offset="1" style="stop-color:#6E6F71"/>
			</linearGradient>
			<path fill-rule="evenodd" clip-rule="evenodd" fill="url(#SVGID_10_)" d="M40,33c-0.2,0.8-0.2,2,0.7,2.9c0.8,0.8,1.5,0.7,2,0.5
				c0.1-0.4,0.2-0.8,0.3-1.2c0.1-1.5-0.7-2.7-1.8-2.7C40.8,32.5,40.4,32.7,40,33z"/>
			
				<ellipse transform="matrix(0.999 4.368774e-002 -4.368774e-002 0.999 1.5703 -1.7604)" fill-rule="evenodd" clip-rule="evenodd" fill="#010101" cx="41.1" cy="35" rx="1.3" ry="1.8"/>
			
				<ellipse transform="matrix(0.999 4.425446e-002 -4.425446e-002 0.999 1.5243 -1.8117)" fill-rule="evenodd" clip-rule="evenodd" fill="#FFFFFF" cx="41.7" cy="33.5" rx="0.5" ry="0.6"/>
			
				<ellipse transform="matrix(0.999 4.414852e-002 -4.414852e-002 0.999 1.6365 -1.7336)" fill-rule="evenodd" clip-rule="evenodd" fill="#FFFFFF" cx="40.1" cy="36.2" rx="0.2" ry="0.3"/>
		</g>
		<path fill="#F06724" d="M60,34.1c-1.1-1.7-2.9-2.3-4.8-1.9c-1.9,0.3-4,2.2-3.7,4.3c0,0.2,0.2,0.2,0.3,0c0.3-0.9,0.6-1.7,1.3-2.4
			c0.7-0.8,1.8-1.2,2.9-1.3c1.8-0.2,3.1,0.9,3.9,2.4c1.5,3,0.9,7.9-2.4,9.4c-0.5,0.2-0.1,0.9,0.4,0.7C61.9,43.5,62.2,37.4,60,34.1z"
			/>
		<path fill="#F06724" d="M39.3,30.3c-1.5,0.9-2.5,2.4-3.1,4c-0.6,1.7-0.7,4.1,0.4,5.5c0.3,0.4,1,0,0.7-0.4
			c-1.8-2.3-0.2-6.1,1.6-7.9c1.2-1.1,5.4-2.5,5.9,0c0.1,0.3,0.5,0.2,0.5-0.1C45.3,28.6,40.9,29.4,39.3,30.3z"/>
		<path fill="#FFFFFF" d="M51.3,25.7c0,0-4.6,3.1-6.4,6.4c-1.8,3.3-4.1,7.7-9.3,7.9c-5.3,0.2-5.8-2.7-5.8-2.7s-0.5-0.4-0.7-0.1
			c-0.2,0.3-1.1,0.8-1.1,0.8s-0.1,2,1.4,3.3c1.5,1.3,4.7,4.5,12.8,6.1c8.1,1.6,11.6,2.7,16.5,2.4c4.9-0.3,8.2-1.4,8.2-1.4
			s-0.3-0.3,0-1.4c0.3-1.1,0.2-1.3,0.2-1.3s-2.2,2.1-6.6,0.5c-4.4-1.6-8.1-4.6-8.8-8.8c-0.8-4.3,0.6-6.1,1.7-7.8
			c1.1-1.8,1.1-1.8,1.1-1.8S52.7,26.1,51.3,25.7z"/>
		<path fill-rule="evenodd" clip-rule="evenodd" fill="#E7E7E7" d="M42.1,38.8c0,0,2.3-0.8,2.8,1.3c0.6,2.1,1.4,1.1,2.1,1.5
			c0.8,0.4,0.2,0.1,1.2,2.5c1,2.4,1.5,3,0.3,3.4c-1.3,0.4-0.9,0.4,0.5,0.6c1.4,0.3,6.8,2,11,0.8c4.2-1.2,2.1-2.1,0.9-2.4
			c-1.2-0.3-6.4-2.6-7.9-5.1c-1.5-2.4-2.1-5.1-2.4-6.4c-0.3-1.3,1.3-4.6,1.3-4.6s-2,0.6-2-0.8c0-1.3,0.3-1.3-1.1-0.4
			c-1.3,0.8-1.1,0.1-1.1-0.4c0-0.4-3.1,4.1-4.3,5.8c-1.1,1.7-4.1,5.9-8,5.8c-3.9-0.1-4.3-0.8-5.3-2c-0.9-1.3-0.7-1.3-0.7-1.3
			s-0.8,2.1,1.2,3.8c2,1.8,6.8,2.8,6.3,2.2c-0.6-0.6,0.6,0.6,2.5-1.4C41.5,39.7,42.1,38.8,42.1,38.8z"/>
		<path fill="#C0BFBF" d="M50.4,35.9c0,0-0.4,2.8,0.6,4.6c0.9,1.8,1,3.3,0.4,3.3c-0.6-0.1-1.4-0.8-1.6-3.4c-0.2-2.7,0.1-4.9-0.1-5.1
			c-0.2-0.2-0.5,1-0.5,1s-0.4,0.8-0.5-0.1c0-0.9,0.1-1.4-0.4-1.2c-0.5,0.2-1.1,0.8-1.1,0.8s0.1-0.9-0.4-1.1C46.4,34.5,46,35,46,34.4
			c0.1-0.6-0.5-0.6-0.9-0.1c-0.4,0.5-0.8,1.6-1,2.2c-0.2,0.6-0.6,0.4-0.6-0.1c0-0.5-0.2-0.1-0.8,0.8c-0.6,0.9-3.1,3.8-4.8,4.3
			c-1.7,0.5-2.4,0.2-2.8-0.1c-0.4-0.4-0.4-0.4-0.4-0.4s5.8-0.2,8.1-4.5c2.3-4.3,2.3-4.3,2.3-4.3l0.8-0.4l1.8-2.8
			c0,0-0.8,1.4-0.9,2.3c-0.1,0.9,0.3,0.3,0.6,0.1c0.3-0.3,0.4,0.4,0.4,0.7c0.1,0.3,0.4-1.5,0.9-0.9c0.5,0.6-0.3,2.4,0.6,1.9
			c0.9-0.5,1.4-1.1,1.4-0.6c0.1,0.6-0.2,0.6,0.7-0.9c0.9-1.4,1.7-2.2,1.7-2.2s-1.3,1.8-1.6,4c-0.3,2.3-0.4,2.7,0.3,5.3
			c0.8,2.6,2.9,4.7,3.9,5.6c1,0.9,3.5,1.6,4.9,2.1c1.4,0.4,2.4,0.6,2.4,0.6l-0.2,1.9c0,0-0.1,0.4-4.4,0.7c-4.3,0.3-5.3,0.1-5.3,0.1
			s5-0.2,6.6-1c1.6-0.8-2.3-1.1-0.9-1.2c1.4-0.1,2.9,0.1,1.7-0.3c-1.2-0.4-3.1,0.1-6.1-2.8C50.2,40.1,50.4,35.9,50.4,35.9z"/>
		<path fill="#F06724" d="M64.8,33c-2.9-3.9-7-6.6-11.9-7.4c-4.6-0.8-9.8,0-14.1,1.8c-2.3,1-4.3,2.5-6.1,4.2
			c-1.4,1.4-3.3,3.5-3.5,5.7c0,0.2,0.4,0.3,0.4,0.1c0.1-0.9,0.9-1.8,1.4-2.6c0.7-1.1,1.6-2,2.5-3c1.6-1.6,3.6-2.9,5.6-3.8
			c3.9-1.8,8.6-2.3,12.8-1.8c4.6,0.5,8.7,3.2,11.6,6.7c3.2,3.7,4.8,9.1,2.8,13.9c-0.2,0.4,0.4,0.3,0.6-0.1
			C69.1,42,67.6,36.9,64.8,33z"/>
		<path fill="#F06724" d="M67.4,50.3c-0.1-0.5-0.9-0.3-0.8,0.2c0.9,4.5-4.2,7.8-7.6,9.5c-2.4,1.2-5,2-7.7,2.3
			c-2.6,0.3-5.2-0.2-7.7-0.9c-4.6-1.1-8.7-3.1-11.8-6.9c-2.8-3.4-4.4-8-4-12.4c0-0.2-0.3-0.3-0.4,0c-0.9,4.6,0.9,9.3,3.7,12.9
			c3.2,4.2,8,6.2,13,7.4c2.6,0.6,5.3,0.9,7.9,0.6c2.8-0.4,5.5-1.4,8-2.7C63.8,58.5,68.3,54.9,67.4,50.3z"/>
		<path fill="#167B70" d="M66.8,45.6c-2.4,1-5.5,0.4-7.9-0.5c-2.3-0.9-4.3-2.6-5.6-4.6c-1.4-2.1-1.7-4.7-1.2-7.2
			c0.5-2.8,2.2-4.7,4.6-6c0.2-0.1,0.1-0.3-0.1-0.3c-2.5-0.2-4.4,3.4-5.1,5.4c-0.9,2.7-0.5,5.8,0.9,8.3c1.3,2.3,3.6,4.2,6,5.2
			c2.7,1.1,6.1,1.7,8.8,0.5C67.7,46.1,67.2,45.4,66.8,45.6z"/>
		<path fill="#167B70" d="M51.3,25.7c-0.7-0.2-1.4,0.2-1.9,0.6c-1,0.9-2,1.9-2.9,2.9c-1.8,2.1-2.9,4.7-4.6,6.9
			c-1.6,2-3.7,3.6-6.3,3.9c-1.6,0.2-5.8-0.3-5.4-2.8c0.1-0.5-0.7-0.7-0.8-0.2c-0.3,2,1.4,3,3,3.5c2.3,0.7,4.8,0.3,6.9-0.9
			c2.3-1.3,3.9-3.7,5.2-5.9c0.9-1.5,1.8-3,2.9-4.4c0.9-1.1,2.4-3.2,4-3.4C51.5,26.1,51.5,25.8,51.3,25.7z"/>
		<path fill="#84898F" d="M50.8,34.3c0.3-0.1,0.3-0.5-0.1-0.5c-1.6,0-4.5,0.2-5.1-1.8c-0.1-0.3-0.5-0.2-0.5,0.1
			c0,0.5,0.2,0.9,0.6,1.2c-1.1,0.2-1.8,2.8-1.7,3.6c0,0.1,0.1,0.1,0.2,0c0.7-1,0.6-2.7,1.9-3.3c0,0,0,0,0-0.1
			c0.6,0.4,1.4,0.6,2.2,0.7c-0.2,0.2-0.4,0.4-0.6,0.5c-0.2,0.1-0.1,0.2,0.1,0.1c0.2-0.2,1.1-0.8,1.3-0.4c0.2,0.3-0.1,0.7-0.2,1
			c-0.1,0.3-0.2,0.6-0.2,0.8c0,0.3,0.4,0.3,0.4,0.1c0.2-0.5,0.3-1.1,0.5-1.7c0-0.1-0.1-0.2-0.2-0.2c0,0,0-0.1,0-0.1c0.4,0,0.7,0,1,0
			c-1.1,2.4-0.7,6,0.2,8.3c0,0.1,0.2,0.1,0.2,0c-0.2-1.4-0.5-2.7-0.6-4.1C50.2,37.1,50.4,35.7,50.8,34.3z"/>
		<path fill="#84898F" d="M56.4,26.6c-1.4-1.3-3.9-1.3-5.6-0.8c-0.1,0-0.1,0.2,0,0.2c1.7,0.4,3.7-0.3,5.2,1
			C56.3,27.3,56.7,26.9,56.4,26.6z"/>
		<path fill="#84898F" d="M67,45.7c-0.2,0.4-0.4,0.8-0.5,1.2c-0.1,0.4-0.2,0.8,0,1.2c0.1,0.2,0.3,0.1,0.4-0.1
			c0.1-0.3,0.1-0.8,0.1-1.1c0.1-0.4,0.2-0.7,0.3-1.1C67.4,45.6,67.1,45.6,67,45.7z"/>
		<path fill="#84898F" d="M29.3,36.9c-0.6,0.3-1.2,0.7-1.5,1.2c-0.2,0.3,0.2,0.7,0.4,0.4c0.4-0.5,1-0.8,1.4-1.3
			C29.7,37,29.5,36.8,29.3,36.9z"/>
		<path fill="#84898F" d="M63.1,46.9c-0.6,0.5-0.6,1.4-0.6,2.1c0,0.3,0.6,0.3,0.6,0c0-0.7,0.1-1.3,0.3-2
			C63.4,46.9,63.2,46.8,63.1,46.9z"/>
		<path fill="#84898F" d="M43,36c-1.5,2.9-4.3,6.2-7.9,5.3c-0.1,0-0.1,0.1-0.1,0.1c1.2,1.2,3.1,0.4,4.3-0.4C41,40,42.3,37.9,43,36
			C43.1,36,43,35.9,43,36z"/>
		<path fill="#F06724" d="M57.6,51.2c-0.7,2-3,2.9-4.9,3.5c-2.6,0.8-5.4,0.5-8-0.2c-2.3-0.6-4.5-1.5-6.5-2.9c-1-0.7-1.8-1.5-2.5-2.5
			c-0.6-1-0.9-2.1-1.3-3.2c-0.1-0.1-0.2-0.1-0.2,0c-0.2,2.2,1.5,4.4,3.1,5.8c2.1,1.9,5,2.9,7.7,3.6c2.8,0.7,5.7,0.8,8.5-0.1
			c2-0.6,4.2-1.7,4.9-3.8C58.5,50.9,57.8,50.7,57.6,51.2z"/>
		<path fill="#F06724" d="M53,57.1c-3,2.1-6.2,2.4-9.7,1.5c-3.1-0.7-6.3-2.4-6.6-5.9c0-0.2-0.3-0.2-0.3,0c-0.5,3.5,3.4,5.6,6.2,6.4
			c3.2,1,8.6,1.4,10.8-1.7C53.5,57.2,53.2,57,53,57.1z"/>
		<ellipse fill="#167B70" cx="46.8" cy="39.7" rx="0.6" ry="0.7"/>
		<ellipse fill="#167B70" cx="45.1" cy="37" rx="0.6" ry="0.7"/>
		<ellipse fill="#167B70" cx="48.7" cy="37.2" rx="0.6" ry="0.7"/>
		<ellipse fill="#167B70" cx="47.2" cy="34.7" rx="0.6" ry="0.7"/>
		<ellipse fill="#167B70" cx="49.9" cy="32.3" rx="0.6" ry="0.7"/>
		<ellipse fill="#167B70" cx="47.2" cy="31.3" rx="0.6" ry="0.7"/>
		<ellipse fill="#167B70" cx="49.8" cy="29.4" rx="0.6" ry="0.7"/>
		<ellipse fill="#167B70" cx="50.4" cy="26.6" rx="0.6" ry="0.7"/>
		<ellipse fill="#167B70" cx="52.3" cy="28.2" rx="0.6" ry="0.7"/>
		<ellipse fill="#167B70" cx="49.5" cy="41.2" rx="0.6" ry="0.7"/>
		<ellipse fill="#167B70" cx="43.6" cy="41.3" rx="0.6" ry="0.7"/>
		<ellipse fill="#167B70" cx="40" cy="43.1" rx="0.6" ry="0.7"/>
		<ellipse fill="#167B70" cx="38.3" cy="40.9" rx="0.6" ry="0.7"/>
		<ellipse fill="#167B70" cx="42.3" cy="38.7" rx="0.6" ry="0.7"/>
		<ellipse fill="#167B70" cx="47" cy="43.4" rx="0.6" ry="0.7"/>
		<ellipse fill="#167B70" cx="51.3" cy="45.1" rx="0.6" ry="0.7"/>
		<ellipse fill="#167B70" cx="53.8" cy="43.2" rx="0.6" ry="0.7"/>
		<ellipse fill="#167B70" cx="55.2" cy="46.4" rx="0.6" ry="0.7"/>
		<ellipse fill="#167B70" cx="58.5" cy="48.1" rx="0.6" ry="0.7"/>
		<ellipse fill="#167B70" cx="52.2" cy="49" rx="0.6" ry="0.7"/>
		<ellipse fill="#167B70" cx="48.7" cy="46.6" rx="0.6" ry="0.7"/>
		<ellipse fill="#167B70" cx="45.3" cy="47.7" rx="0.6" ry="0.7"/>
		<ellipse fill="#167B70" cx="43.6" cy="44.9" rx="0.6" ry="0.7"/>
		<ellipse fill="#167B70" cx="40.2" cy="46.2" rx="0.6" ry="0.7"/>
		<ellipse fill="#167B70" cx="36.8" cy="45" rx="0.6" ry="0.7"/>
		<ellipse fill="#167B70" cx="33" cy="43.6" rx="0.6" ry="0.7"/>
		<ellipse fill="#167B70" cx="30.3" cy="41.5" rx="0.6" ry="0.7"/>
		<ellipse fill="#167B70" cx="34.1" cy="41.2" rx="0.6" ry="0.7"/>
		<ellipse fill="#167B70" cx="29.7" cy="38.8" rx="0.6" ry="0.7"/>
		<path fill="#FFFFFF" d="M47,29.9c0,0-1.1,1.5-1,2.1c0.1,0.5,0.3,0.1,0.4,0.5c0.1,0.5,0.7,0.7,1.4,0.7c0.7,0,0.6,0.5,1.4,0.4
			c0.8-0.1,1-0.2,1.2-0.1c0.2,0.1,0.4-0.4,0.8-1.2c0.4-0.8,0.4-0.8,0.4-0.8S51,33.8,51,35.1c0,1.3,0,1.5,0,1.5s-0.2-1.6-0.3-2.1
			c0-0.5,0-0.5,0-0.5s-1.4,0.2-3.3-0.4c-1.9-0.6-2-1.7-2-1.7s-0.2,0.1,0.7-1.2c0.9-1.2,1.7-1.8,1.7-1.8L47,29.9z"/>
		<path fill="#FFFFFF" d="M46.2,33.5c0,0-0.7-0.5-1.2,0.9c-0.5,1.3-0.4,2.7-0.7,2.5c-0.3-0.2,0-1.1,0-1.1S43.7,36.7,44,37
			c0.2,0.3,0.4,0.6,0.8-1c0.5-1.6,0.7-2.2,1.1-2.3c0.4-0.1,0.8,0.1,0.8,0.1L46.2,33.5z"/>
		<path fill="#FFFFFF" d="M47.8,34.9c0,0,0.6-0.8,1.1-0.8c0.5,0.1,0.2,0.8,0.1,1.2c-0.1,0.4-0.2,1.1,0,0.9c0.3-0.2,0.8-1.7,0.8-1.7
			s-0.3,1.7-0.7,1.9c-0.4,0.2-0.6,0.2-0.5-0.7c0.1-0.9,0.1-1.4-0.2-1.3C48.1,34.7,47.8,34.9,47.8,34.9z"/>
		<path fill-rule="evenodd" clip-rule="evenodd" fill="#FFFFFF" d="M45.2,32.1c0,0-1.8,3.3-2.7,5c-1.4,2.7-3.6,4.2-3.6,4.2
			s2-0.9,3.8-3.9c1.2-1.9,2-4,2.3-4.2c0.3-0.3,0.5-0.1,0.5-0.1S45.2,32.5,45.2,32.1z"/>
		<path fill-rule="evenodd" clip-rule="evenodd" fill="#FFFFFF" d="M49.9,38.8c0,0,0.2,2,0.6,3.1c0.4,1.1,0.6,0.8,0.6,0.8
			s-0.1,0.7-0.5,0C50,42,49.9,38.8,49.9,38.8z"/>
		<path fill="#F69321" d="M53.9,29.4c0,0-1,1-1.5,2.6c-0.5,1.6-0.6,2.9-0.6,2.9s0.5-1.2,1.2-1.6c0.7-0.4,1.2-0.8,1.2-0.8l-1.4,0.4
			c0,0,0.5-1.7,1-2c0.5-0.3,2.5,0.8,4.5,0.6c2-0.2,1.8-1.4,1.8-1.4s2.9,2.2,4.7,5c1.8,2.8,2.4,7.3,1.6,9.1c-0.8,1.8-4.8,1.8-5.7,1.5
			c-0.9-0.3-1.7-1-1.7-1l-0.6,0.4c0,0,2.1,1.1,4.7,1.3c2.6,0.2,3.9-0.7,3.9-0.7s1.1-2.3-0.3-7.3c-1.7-6.1-7.7-9.4-7.7-9.4
			s-1.2,0.7-2.8,0.8C54.9,29.7,53.9,29.4,53.9,29.4z"/>
		<path fill="#F69321" d="M41.5,27.1c0,0-1.9,0.8-1.6,1.7c0.2,1,2.6,0.7,2.6,0.7s1.3,0,2.1,0.5c0.8,0.5,0.8,0.9,0.8,0.9l2-2.6
			c0,0-2.9-1.7-4-1.6C42,26.8,41.5,27.1,41.5,27.1z"/>
		<g>
			<path fill="#231F20" d="M59.8,26.6c0,0-0.1-0.1-0.1-0.1c-1.5-2-3.8-3.6-6.4-4.1c-2.3-0.4-2.5,2.4-2,4c0.6,2.3,3,3.8,5.3,3.4
				C58,29.6,60.5,28.5,59.8,26.6z M56.6,29.1c-2,0.4-3.9-1-4.5-2.9c-0.3-0.7-0.3-1.6-0.1-2.3c0.2-1.4,1.7-0.9,2.5-0.6
				c1.9,0.6,3.7,2,4.9,3.6c0.1,0.1,0.1,0.1,0.2,0.1C59.3,28.3,57.8,28.8,56.6,29.1z"/>
			<path fill="#231F20" d="M49.2,24.2c-1-1.6-3.7,0.2-4.8,0.9c-1.5,0.9-3.4,2.2-1.5,3.8c1.8,1.5,4.5,0.6,5.8-1.1
				C49.4,27,50.5,24.9,49.2,24.2z M48.3,27.4c-1.1,1.3-3,2.1-4.6,1.1c-2-1.2,0.5-2.4,1.6-3c1.1-0.7,2.5-1.6,3.7-0.8
				c0.1,0,0.2,0,0.2,0C49.7,25.5,48.9,26.6,48.3,27.4z"/>
			<path fill="#010101" d="M48.8,24.2c0,0-1.7-0.4-4.3,1.2c-2.5,1.6-2.5,2.1-1.1,3.2c1.4,1.2,3.2,1,4.5-0.3c1.3-1.3,1.5-2.7,1.5-3
				C49.5,24.9,49.4,24.4,48.8,24.2z"/>
			<path fill="#010101" d="M53.3,22.4c0,0-2.9,0.2-1.7,3.3c1.1,3.1,3.6,4.4,5.6,3.7c2-0.7,3.5-2.1,2.5-3c-0.9-0.9-5.3-3.7-5.3-3.7
				L53.3,22.4z"/>
			<path fill="#231F20" d="M51.8,23c0,0-0.3,2.2,2.9,3.9c3.3,1.6,5.9,1.3,4.7-0.5c-1.2-1.9-4.2-3.1-5.4-3.6
				C52.8,22.3,51.9,22.7,51.8,23z"/>
			<path fill="#231F20" d="M48.4,23.9c0,0,0.5,1.2-1,2.5c-1.4,1.4-4.8,1.5-5.1,0.9c-0.3-0.6,2.4-2.3,3.7-3
				C47.3,23.7,48.4,23.4,48.4,23.9z"/>
			<path fill="#353434" d="M52.6,22.7c0,0-1.2,1.8,1.4,3.1c2.6,1.2,3.7,0,1.8-1.6C54,22.5,53.2,22.8,52.6,22.7z"/>
			<path fill="#2B2728" d="M47.3,23.9c0,0-2,1-1.5,2c0.6,0.9,3.1-1.7,2.3-2C47.5,23.6,47.3,23.9,47.3,23.9z"/>
		</g>
		<path fill="#F69321" d="M37.3,32.2c0,0-1.2,1.4-1.4,4c-0.1,2.6,0.8,3.6,0.8,3.6s-1.6,0.8-4.1,0.1c-2.6-0.7-2.8-2.4-2.8-3
			c0.1-0.6,2-3.3,2.7-4.1c0.7-0.8,0.7-0.8,0.7-0.8s-2.2,2.8-1.4,4.2c0.7,1.4,2.7-0.9,3.8-2.2C36.7,32.7,37.3,32.2,37.3,32.2z"/>
		<path fill-rule="evenodd" clip-rule="evenodd" fill="#010101" d="M52.6,33.7c0,0,2.2-2.2,4.9-1.2c2.7,0.9,3.3,3,3.6,3.9
			c0.2,0.8,0.2,1.5,0.2,1.5s0,1.9,0.3,2.2c0.3,0.3,1.4,0.5,2.3,0.1c0.9-0.4,1.1-1,1.1-1s-1.1,0.2-1.9-0.2c-0.8-0.4-0.9-0.6-0.9-0.6
			s0.3-3.6-2.4-5.7c-2.7-2.1-5.5-0.7-5.5-0.7s-0.5,0-1-0.6c-0.5-0.6-0.3-1.1-0.3-1.1s-0.7,0.8-0.5,1.5c0.2,0.8,0.6,0.8,0.6,0.8
			s-0.2,0.5-0.9,0.2c-0.6-0.2-0.7-0.4-0.7-0.4S51.1,33.1,52.6,33.7z"/>
		<path fill-rule="evenodd" clip-rule="evenodd" fill="#010101" d="M65.1,37.9c0,0-0.7,0.4-1.8,0.1c-1.1-0.3-1.4-0.8-1.4-0.8
			l-0.4-1.3C61.5,35.9,62.9,37.9,65.1,37.9z"/>
		<path fill-rule="evenodd" clip-rule="evenodd" fill="#010101" d="M64.4,36.1c0,0-0.7,0.4-1.8,0.1c-1.1-0.3-1.4-0.8-1.4-0.8
			l-0.4-1.3C60.8,34.2,62.2,36.2,64.4,36.1z"/>
		<path fill-rule="evenodd" clip-rule="evenodd" fill="#010101" d="M63.7,34.9c0,0-0.7,0.4-1.8,0.1c-1.1-0.3-1.4-0.8-1.4-0.8
			l-0.4-1.3C60.1,32.9,61.5,34.9,63.7,34.9z"/>
		<path fill-rule="evenodd" clip-rule="evenodd" fill="#010101" d="M45.1,31c0,0-0.6-1.9-4.1-1c-3.5,1-4.5,3.8-4.5,3.8
			s-1.1,0.4-2-0.1c-0.9-0.5-0.9-1.5-0.9-1.5s0.4,0.7,1.3,0.6c0.9-0.1,1.2-0.7,1.2-0.7s1-1.6,3.9-2.7C43,28.4,45.5,29.5,45.1,31z"/>
		<path fill-rule="evenodd" clip-rule="evenodd" fill="#010101" d="M34.7,31c0,0,0.2,1.2,1.6,1c1.4-0.3,1.5-0.8,1.5-0.8l0.7-0.9
			C38.5,30.3,36,32,34.7,31z"/>
		<path fill-rule="evenodd" clip-rule="evenodd" fill="#010101" d="M36.3,29.9c0,0,0.1,1.2,1.5,1.1c1.4-0.2,1.6-0.7,1.6-0.7l0.8-0.8
			C40.2,29.5,37.5,30.9,36.3,29.9z"/>
		<path fill-rule="evenodd" clip-rule="evenodd" fill="#010101" d="M37.8,29.3c0,0,0,1.3,1.4,1.2c1.4-0.1,1.6-0.6,1.6-0.6l0.8-0.8
			C41.7,29.1,39,30.4,37.8,29.3z"/>
		<path fill="#F2E761" d="M34.1,46.5c0,0,0.6,4.6,6.2,7c5.6,2.3,10.6,3.1,14.4,1c3.8-2.1,3.7-3.1,3.7-3.1s0.2,1.3-2.7,3.1
			c-2,1.2-4.4,1.5-4.4,1.5s-1.2,1.8-3.8,1.6c-2.6-0.2-3.4-1.5-3.4-1.5s-4.3,0.7-5.6-1.2c-1.3-1.9-1-2.1-1-2.1S33.9,49.8,34.1,46.5z"
			/>
		<path fill="#F8EB32" d="M27.8,42.9c0,0-0.9,6,4.9,12.7c5.8,6.7,16.1,8,23.3,5.8c7.2-2.2,9.9-6.1,10.4-8.1c0.5-2,0.2-2.6,0.2-2.6
			s0.5,3.4-4.8,7.4c-5.3,4-12.3,4.8-21.2,1.9C31.6,57,27.9,47.1,27.8,42.9z"/>
		<path fill="#F0E23C" d="M36.5,52.6c0,0-0.3,4.2,5.7,5.8c6,1.6,9,0.2,10.2-0.8c1.2-1,0.9-0.8,0.9-0.8s-4,2.9-9.8,1.4
			C36.8,56.4,36.5,52.6,36.5,52.6z"/>
		<ellipse fill="#FFFFFF" cx="46.1" cy="56.3" rx="1.5" ry="0.8"/>
		<ellipse fill="#FFFFFF" cx="41.5" cy="54.9" rx="1" ry="0.6"/>
		<path fill="#FFFFFF" d="M39.9,50.3c0,0-0.8,0.2-1.6,0c-0.8-0.2-1.4-0.5-1.5-0.5c-0.2,0-0.3,0.3-0.3,0.3l-0.1-0.3
			c0,0,0-0.4,0.4-0.3c0.4,0.2,1.9,0.6,2,0.6c0.1,0,0.4-0.1,0.4-0.1s0.3,0,0.9,0.1c0.6,0.1,0.6,0.1,0.6,0.1H39.9z"/>
		<path fill="#FFFFFF" d="M43.3,51.2c0,0,0.4,1.2,1.9,1.6c1.4,0.4,2,0.3,3.3,0.5c1.3,0.3,1.6,0.9,1.6,0.9s0.4-0.3,1.4-0.5
			c1-0.2,1.4-0.3,2.4-0.5c1-0.3,1.4-0.4,1.6-0.1c0.2,0.3,0.2,0.5,0.2,0.5l0.3-0.2c0,0-0.2-0.6-0.6-0.8c-0.4-0.1-2.8,0.6-4,0.8
			c-1.2,0.2-2.2-0.3-2.9-0.5c-0.7-0.2-2.4-0.2-2.9-0.3C45,52.5,44,51.7,44,51.7L43.3,51.2z"/>
		<path fill="#F06724" d="M67.4,48.5c0.1,0,0.3,0.8,0.3,1.5c0,0.7-0.2,1.6-0.2,1.6l-0.9-1c0,0,0-1.1-0.1-1.3
			c-0.1-0.3-0.7,0.2-2.4,0.5C62.4,50,59.9,50,59.9,50s3.4-0.6,5.3-1C67.2,48.6,67.4,48.5,67.4,48.5z"/>
		<path fill="#167B70" d="M67.6,48.1c0-0.3-0.3-0.6-0.6-0.4c-1.7,1-3.7,1.2-5.6,1.4c-2.1,0.2-4.2,0.4-6.4,0.4
			c-4.6-0.1-9-1.2-13.4-2.5c-4.9-1.4-11.8-3-13.2-8.8c0.1-0.1,0.2-0.2,0.1-0.4c-0.2-0.3-0.4-0.6-0.5-1c0-0.1-0.1-0.2-0.3-0.2
			c-0.6,0.1-1.3,0.4-1.3,1.1c0,0.5,0.2,0.8,0.5,1c-0.4,0.3-0.7,0.7-0.5,1.3c0.2,0.5,0.7,0.7,1.2,0.7c-0.1,0.1-0.1,0.1-0.2,0.2
			c-0.2,0.3-0.4,0.8-0.2,1.2c0.4,0.8,1.1,0.9,1.8,0.9c-0.4,1,0.7,1.6,1.8,1.5c-0.1,1,1.5,1.2,2.5,1c0,1,1.2,1.3,2.2,0.9
			c0.2,1.2,1.6,1.4,2.7,0.9c0.6,1.1,1.7,1.5,2.7,0.8c0.2,0.5,0.5,0.9,1.1,1c0.7,0.1,1.2,0,1.7-0.4c0.9,1.2,1.8,1.2,3.1,0.6
			c0.2,0.4,0.5,0.9,1,1c0.9,0.2,1.2,0,1.8-0.4c0.6,1.1,2.1,1.5,2.8,0.5c0.8,1,2.2,1.3,3,0.4c0.8,1.2,2.8,1.2,3.6,0
			c0.5,0.6,1.2,1,2.1,0.9c0.7-0.1,1-0.6,1.2-1.2c0.5,0.5,1.2,0.8,2,0.6c0.6-0.1,0.9-0.5,1-0.9c0.8,0.6,2.1,0.8,2.9,0.3
			C69.4,49.9,68.7,48.6,67.6,48.1z M27.5,37.4c0.1,0.2,0.3,0.5,0.4,0.7c0,0-0.1,0.1-0.1,0.2c0,0.1,0,0.2,0,0.2c0,0,0,0,0,0
			C27.3,38.4,27.4,37.2,27.5,37.4z M27.8,39.1c0.1,0,0.1,0,0.2-0.1c0.1,0.4,0.2,0.8,0.3,1.1c-0.1,0-0.2,0-0.4,0c-0.1,0-0.2,0-0.2,0
			C27,40.2,27.1,39.9,27.8,39.1z M28.7,40.9c0.3,0.5,0.6,0.9,0.9,1.3c-0.2,0-0.3,0.1-0.5,0.1C28.3,42.6,28.2,42.1,28.7,40.9z
			 M30.6,43.9c-0.6,0.1-0.8-0.3-0.6-1.1c0,0,0-0.1,0.1-0.1c0.4,0.4,0.8,0.7,1.3,1.1c0,0,0,0,0,0C31.1,43.8,30.8,43.9,30.6,43.9z
			 M31.6,44.3c0.1-0.1,0.1-0.2,0.1-0.3c0.5,0.3,1,0.6,1.6,0.9C32.6,45.1,31.1,45,31.6,44.3z M34,45.3c0.4,0.2,0.8,0.4,1.2,0.5
			C34.7,46.1,34.2,45.9,34,45.3z M36.2,46.2c0.5,0.2,1,0.4,1.5,0.5C37,47,36.3,46.9,36.2,46.2z M38.9,47.1c0.5,0.2,1.1,0.3,1.5,0.4
			C39.8,48,39.3,47.6,38.9,47.1z M41.7,47.9c0.5,0.1,1,0.3,1.4,0.4C42.5,48.6,42.1,48.3,41.7,47.9z M44.6,48.6
			c0.4,0.1,0.8,0.2,1.2,0.3C45.4,49.1,45,49,44.6,48.6z M47.6,49.4C47.6,49.4,47.6,49.3,47.6,49.4c0.4,0,0.8,0.1,1.3,0.2
			C48.5,49.9,48,50,47.6,49.4z M50.4,49.8c0.5,0.1,0.9,0.1,1.4,0.2C51.4,50.4,50.8,50.3,50.4,49.8z M53.1,50.2
			c0.4,0,0.9,0.1,1.3,0.1c0.1,0,0.3,0,0.4,0C54.4,50.9,53.6,50.7,53.1,50.2z M55.9,50.3c0.9,0,1.7,0,2.6-0.1
			C58.1,51.3,56.5,51.2,55.9,50.3z M60.7,51.1c-0.6,0.1-1.1-0.4-1.3-0.9c0.8-0.1,1.5-0.1,2.3-0.2C61.6,50.5,61.5,51,60.7,51.1z
			 M62.5,49.8c0.7-0.1,1.4-0.2,2-0.3c0,0,0,0.1,0.1,0.1C64.8,50.7,63.1,50.8,62.5,49.8z M67.2,50.2c-0.7,0-1.6-0.2-2-0.8
			c0.7-0.2,1.5-0.5,2.1-0.8C68.1,49,68.5,50.1,67.2,50.2z"/>
		<path fill="#C0BFBF" d="M63.5,46.9c0,0,1.7-0.1,2.4-0.3c0.8-0.2,0.9-0.6,0.9-0.6s-0.1,0.6-0.2,1.1c0,0.5,0,0.7,0,0.7
			s-0.5,0.4-1.6,0.6c-1.1,0.2-1.9,0.3-1.9,0.3s2-0.4,2.6-0.7c0.6-0.4,0.1-0.4,0.1-0.4s0.4-0.5,0.4-0.7c0-0.2,0.4-0.1-0.8,0
			c-1.2,0.1-1.8,0.3-1.7,0.3c0.2,0.1,0.7,0.3,0.3,0.3c-0.5,0.1-0.7,0.3-0.3,0.4c0.4,0.1-0.5,0.4-0.5,0.4S63.2,47,63.5,46.9z"/>
		<path fill="#84898F" d="M63.2,46.9c0,0-1,0-1.7-0.2c-0.7-0.1-0.7-0.2-0.7-0.2s0.7,0.4,1,0.5c0.4,0.1,0.7,0.3,0,0.4
			c-0.7,0.1-0.1,0.2,0.2,0.4c0.3,0.2,0.2,0.6-1,0.8c-1.2,0.1-1.8,0.3-1,0.4c0.8,0.1,1.4-0.1,1.8-0.1c0.4,0-1.5,0.3-1.5,0.3l2.2-0.2
			c0,0,0.2-0.7,0.3-1.2C62.9,47.2,63.2,46.9,63.2,46.9z"/>
		<path fill="#84898F" d="M67.2,45.7c0,0-0.5,0.6-1.8,0.9c-1.3,0.3-1.9,0.4-1.9,0.4s1.2,0,2-0.1c0.8-0.1,1-0.3,1-0.3
			s0.1,0.4-0.1,0.8c-0.1,0.4-0.3,0.4,0,0.3c0.2-0.1,0.4-0.3,0.4-0.3L67.2,45.7z"/>
		<path fill="#F06724" d="M76.7,60.7c-0.5-0.6-1.6-0.6-2.3-0.9c-0.9-0.4-1.5-1.3-2.3-1.9c0-0.1-0.1-0.2-0.1-0.3
			c-0.5-1-0.9-1.9-1.5-2.8c-0.8-1-3-1.6-3.7-0.2c0,0,0,0,0,0c-1.1,0.9-1.5,2.6-1.2,3.9c0.3,1.2,1.4,2.1,1.2,3.5
			c-0.1,0.6-0.3,1,0.1,1.6c0.5,0.8,1.8,0.3,2.2-0.4c0.6-1,0.8-2.2,0.5-3.3c0.2,0.2,0.3,0.5,0.5,0.8c0,0.1,0,0.2,0.1,0.3
			c0.1,0.5,0.2,0.9,0.4,1.3c0.1,0.3,0.3,0.6,0.7,0.7c0.3,0.1,0.7,0,0.8-0.3c0.7,0.5,1.6,0.8,2.5,0.7c0.4,0,0.9-0.2,1.2-0.6
			C76.6,62.9,77.5,61.6,76.7,60.7z M71.1,62.4c-0.2-0.2-0.3-0.5-0.4-0.8c0.2,0.3,0.5,0.5,0.8,0.8C71.4,62.5,71.2,62.5,71.1,62.4z
			 M73.9,62.9c-1.9,0.2-3.4-2.4-4.3-3.6c-0.1-0.1-0.3-0.1-0.4,0.1c-0.2-0.3-0.6,0-0.4,0.3c0.3,0.7,0.2,1.3,0.1,2
			c0,0.1-0.1,0.2-0.1,0.4c-0.1,0.7-1.3,1.9-1.5,0.6c0.2-0.7,0.3-1.2,0.1-1.9c-0.2-0.8-0.8-1.6-1.1-2.4c-0.4-1.2,0.2-2.5,0.8-3.5
			c0,0,0-0.1,0-0.1c3-1.5,4.3,3.1,5.3,5c0.2,0.4,0.5,0.8,0.9,1.1c0.2,0.1,0.4,0.3,0.7,0.4l0.3,0.2C75.1,61.7,75.4,62.8,73.9,62.9z
			 M75.8,62.2c0-0.6-0.7-1.1-1.2-1.4c-0.7-0.4-1.2-0.7-1.7-1.4c0-0.1-0.1-0.1-0.1-0.2c0.4,0.4,0.8,0.8,1.3,1.1
			c0.4,0.2,0.8,0.4,1.2,0.5c0.2,0.1,0.5,0.1,0.7,0.2C76.6,61.3,76.3,62,75.8,62.2z"/>
		<path fill="#F0E23C" d="M73.9,61c-0.8-0.4-1.4-0.9-2.1-2.6c-0.7-1.8-1.2-3-2.7-3.8c-0.9-0.5-1.5-0.4-1.9-0.2
			c-0.7,0.3-1.2,1.7-1.3,2.3c-0.1,0.2-0.1,0.4-0.1,0.5c-0.2,0.9,0.7,1.9,1.1,2.9c0.4,0.9,0.2,2.1,0.2,2.1s-0.2,0.3,0.1,0.8
			c0.3,0.5,1.1,0.4,1.6-0.8c0.5-1.2,0-2.4,0-2.7c0-0.3,0.4-0.2,0.4-0.2s0-0.1,0.2,0c0.2,0.1,1.1,1.9,2.7,3.1c1.6,1.2,2.7,0.7,3,0.1
			C75.3,61.9,74.8,61.3,73.9,61z M73.6,62.6c-0.7-0.1-1.9-0.8-2.5-1.5c-0.6-0.8-1.3-1.9-1.5-2.1c-0.2-0.2-0.5,0.1-0.5,0.1
			s-0.4,0-0.3,0.5c0.1,0.5,0.3,1,0.2,2c-0.1,0.9-1,1.5-1.2,1.3c-0.2-0.2-0.2-0.8,0-1.5c0.1-0.7-0.4-1.4-0.7-2.2
			c-0.3-0.8-0.7-1.5-0.7-2c0-0.2,0.1-0.6,0.3-1.1c0.2-0.4,0.5-0.9,0.7-1.2c0.3-0.3,0.6-0.4,0.9-0.4c0.9,0.2,2.1,1,2.5,1.9
			c0.7,1.4,0.5,1.8,1,2.7c0.6,0.9,0.8,1.4,1.4,2.3c0.6,0.9,1.5,1.1,1.5,1.1S74.3,62.8,73.6,62.6z"/>
		<path fill="#F8EB32" d="M72.7,59.2c0,0,1,1,2.1,1.2c1,0.2,1.7,0.4,1.7,1c0,0.6-0.8,0.8-0.8,0.8s0.3-0.2,0.4-0.6
			c0.1-0.4-0.1-0.4-0.4-0.5c-0.3-0.1-1.4-0.5-2-0.9C73.2,59.7,72.7,59.2,72.7,59.2z"/>
		<g>
			<linearGradient id="SVGID_11_" gradientUnits="userSpaceOnUse" x1="20.9191" y1="47.9527" x2="29.6633" y2="47.9527">
				<stop  offset="0" style="stop-color:#F0E23C"/>
				<stop  offset="0.1155" style="stop-color:#F0DE3B"/>
				<stop  offset="0.2572" style="stop-color:#EED437"/>
				<stop  offset="0.4126" style="stop-color:#ECC332"/>
				<stop  offset="0.5777" style="stop-color:#E9AA2C"/>
				<stop  offset="0.7488" style="stop-color:#E68C26"/>
				<stop  offset="0.7925" style="stop-color:#E58425"/>
			</linearGradient>
			<path fill="url(#SVGID_11_)" d="M27.3,47.6c0,0,1.4,0.6,1.7,1.7c0.3,1.1,0,1.4,0,1.4s0.9,0.8,0.7,1.8c-0.1,0.9-0.9,0.8-1.5,0.5
				c-0.6-0.3-2.2-0.1-2.8-0.6c-0.6-0.5-0.3-1.1-0.3-1.1s-2-0.4-2.6-1.6c-0.6-1.2-0.1-1.8-0.1-1.8s-1.3-0.5-1.4-1.6
				c-0.1-1.1,0.2-1.7,1.7-2c1.4-0.3,1.9-0.2,1.9-0.2s0.5-0.2,0.9-0.6c0.4-0.4,0.3-0.6,1.1-0.6c0.8,0,0.8,0.5,0.8,0.5l0.4,3.8
				C27.7,47,27.4,47.1,27.3,47.6z"/>
			<path fill="#F06724" d="M28.9,50.7c0.3-0.3,0.4-0.8,0.4-1.2c-0.1-0.8-0.9-1.8-1.8-2c0.3-0.3,0.4-0.7,0.3-1.1
				c-0.1-0.4-0.5-1.8-1.2-1.5c-0.1,0-0.1,0-0.2,0c-0.3,0-0.5,0.1-0.8,0.1c-0.3,0.1-0.7,0-0.9-0.3c-0.2-0.3,0.4-0.5,0.6-0.6
				c0.4-0.2,0.5-0.9,0.9-1c0.3-0.1,0.8,0,1.1,0.2c0.1,0.1,0.2,0,0.2,0c0.4-0.4-0.7-0.6-0.9-0.6c-0.3,0-0.5,0-0.7,0.2
				c-0.3,0.3-0.4,0.7-0.8,0.9c-0.3,0.1-0.6,0.2-0.7,0.5c0,0.1,0,0.1,0,0.2c-0.2,0-0.3-0.1-0.5-0.1c-0.4,0-0.7,0.1-1,0.3
				c-0.1,0,0,0.1,0,0.1c0.5-0.1,1.1,0,1.5,0.2c0,0,0,0.1,0.1,0.1c0.6,0.5,1.6,0.2,2.4,0.2c0.5,0.1,0.6,0.9,0.6,1.3
				c0,0.4-0.1,0.7-0.5,1c0,0-0.1,0-0.1,0.1c0,0,0,0,0,0c0,0,0,0-0.1,0c-0.2,0.1-0.5,0.1-0.8,0.3c-0.1,0,0,0.1,0,0.1
				c0.3,0.1,0.7,0,1.1-0.2c0.4,0.1,0.8,0.2,1.2,0.5c0.3,0.3,0.5,0.7,0.6,1.1c0.1,0.4,0.1,0.8-0.2,1.1c-0.3,0.3-1,0.3-1.4,0.4
				c-0.1,0-0.1,0.2,0,0.2c0.6,0.2,1.2,0.1,1.6-0.2c0.4,0.3,0.6,0.7,0.7,1.2c0.2,0.5-0.4,0.9-1,0.8c-0.2-0.1-0.5-0.2-0.7-0.2
				c-0.4-0.1-0.8-0.1-1.2-0.2c-0.6,0-1.7-0.4-1.5-1.2c0.3,0,0.6,0.1,0.9,0.1c0.1,0,0.1-0.1,0-0.1c-1.1-0.4-2.2-0.4-3.1-1.3
				c-0.4-0.4-0.6-1.4-0.2-1.8c0.5,0.1,1,0.2,1.4,0.2c0.1,0,0.1-0.1,0-0.1c-0.9-0.4-1.8-0.6-2.6-1.3c0,0,0,0-0.1-0.1c0,0,0.1,0,0-0.1
				c0-0.1-0.1-0.2-0.2-0.3c-0.1-0.1-0.1-0.3-0.2-0.5c0-0.2,0-0.4,0-0.5c0-0.1,0-0.2,0.1-0.3c0.2-0.3,0.5-0.5,0.8-0.6
				c0.6-0.3,1.3-0.3,2-0.3c0.2,0,0.2-0.3,0-0.3c-0.9-0.1-1.7,0-2.5,0.4c-0.3,0.2-0.8,0.6-0.9,0.9c-0.3,0.3-0.1,1.2,0.1,1.5
				c0.2,0.5,0.8,0.9,1.4,1.2c-0.3,0.4-0.1,1.4,0,1.7c0.4,1,1.4,1.4,2.5,1.6c-0.2,0.3,0.1,0.8,0.3,1.1c0.7,0.8,2.2,0.6,3.1,1
				c0.7,0.3,1.8,0.3,1.8-0.7C29.9,51.7,29.6,51.1,28.9,50.7z"/>
			<path fill="#F0E23C" d="M24.2,44c0,0-2.7-0.1-3.2,1.1c-0.4,1.2,0.3,2.1,1.4,2.5c1.1,0.4,2.7,0.7,3.8,0.2c1.2-0.5,1.2-1.4,1-2
				c-0.3-0.6-0.6-0.7-0.6-0.7s0.3,0.2-0.1,0.8c-0.4,0.7-0.5,1.1-0.4,1.3c0.1,0.2-1.6,0.6-3.1,0.1c-1.5-0.4-1.7-1.3-1.6-2.2
				c0.2-1,2.7-1,2.7-1L24.2,44z"/>
			<path fill="#F0E23C" d="M27.4,43.2c0,0-0.9-0.5-1.3-0.2c-0.4,0.2-0.5,0.7-0.9,0.9c-0.4,0.2-0.8,0.2-0.6,0.6
				c0.1,0.4,0.8,0.4,0.8,0.4s-0.4-0.4-0.2-0.4s1-0.1,0.8-0.3c-0.1-0.2-0.3-0.4-0.3-0.4s0.3-0.4,0.5-0.6c0.2-0.2,1.1,0.3,1.1,0.3
				L27.4,43.2z"/>
			<path fill="#F0E23C" d="M22.7,48c0,0-0.7,0.7,0,1.7c0.7,1,2.4,1.2,3.3,1.2c0.9,0,2.3,0.1,2.7-0.7c0.4-0.8-0.1-1.6-0.7-2
				c-0.6-0.4-1.1-0.5-1.1-0.5s1.1,0.8,1.1,1.3c0,0.5-0.3,0.7-0.2,1c0.1,0.3-0.1,0.5-0.9,0.6c-0.8,0.1-2.5,0-3.5-0.6
				c-1-0.7-0.6-1.7-0.6-1.7L22.7,48z"/>
			<path fill="#F0E23C" d="M25,51.2c0,0-0.5,0.8,0.8,1.1c1.3,0.3,1.9,0.2,2.2,0.4c0.3,0.3,1.3,0.3,1.5-0.3c0.2-0.7-0.3-1.2-0.6-1.4
				c-0.2-0.2-0.3-0.2-0.3-0.2L28.6,51c0,0,0.7,0.3,0.5,0.7c-0.2,0.4-0.3,0.7-0.2,0.8c0.1,0.1-0.2,0.2-0.7,0
				c-0.5-0.2-0.6-0.2-1.5-0.2c-0.9,0-1.4-0.4-1.5-0.7c0-0.2,0.1-0.4,0.1-0.4L25,51.2z"/>
		</g>
		<path fill-rule="evenodd" clip-rule="evenodd" fill="#414142" d="M24.3,37.9c0,0,0.1,0.7,0.1,1.2c0,0.5,0,0.9-0.4,1.1
			c-0.4,0.2-1.4,0.7-1.8,0.5c-0.4-0.2-0.5-0.6-0.5-0.6s-0.8-0.9-0.5-1.4C21.5,38.2,23.9,37.3,24.3,37.9z"/>
		<path fill-rule="evenodd" clip-rule="evenodd" fill="#010101" d="M24.2,37.9c0,0,0.2,0.2-1.1,0.6c-1.2,0.4-1.9,0.4-1.9,0.4
			s-0.1,0.1,0,0.3c0,0.1,0,0.1,0,0.1l0.1-0.2c0,0,0.5,0,1.7-0.3c1.2-0.3,1.4-0.7,1.3-0.8C24.2,37.8,24.2,37.9,24.2,37.9z"/>
		<path fill-rule="evenodd" clip-rule="evenodd" fill="#010101" d="M24.4,38.6c0,0,0.1,0.3-1.1,0.7c-1.2,0.4-1.9,0.2-1.9,0.2
			l0.1,0.2c0,0,1.1,0.1,2-0.3C24.3,39.1,24.5,38.9,24.4,38.6z"/>
		<path fill-rule="evenodd" clip-rule="evenodd" fill="#010101" d="M24.4,39.2c0,0-0.2,0.7-1.5,0.8c-1.3,0.1-1.4-0.2-1.4-0.2
			l0.2,0.3c0,0,0.8,0.1,1.7-0.1C24.4,39.9,24.5,39.4,24.4,39.2z"/>
		<path fill-rule="evenodd" clip-rule="evenodd" fill="#595A5C" d="M24.3,38.2c0,0-0.1,0.4-1.1,0.6c-1,0.3-1.6,0.3-1.6,0.4
			c0,0.1,1.3,0.1,2.1-0.2C24.5,38.6,24.3,38.2,24.3,38.2z"/>
		<path fill-rule="evenodd" clip-rule="evenodd" fill="#595A5C" d="M22.4,39.8c0,0,1-0.2,1.5-0.5c0.5-0.3,0.5-0.3,0.5-0.3
			s-0.1,0.3-0.2,0.4C24.1,39.5,23.1,40.1,22.4,39.8z"/>
		<path fill-rule="evenodd" clip-rule="evenodd" fill="#595A5C" d="M22.5,40.2c0,0,1.2,0,1.5-0.2c0.3-0.2,0.3-0.3,0.3-0.3
			s0,0.3-0.5,0.5c-0.4,0.2-0.7,0-0.7,0S22.3,40.4,22.5,40.2z"/>
		<path fill-rule="evenodd" clip-rule="evenodd" fill="#595A5C" d="M24,37.9c0,0-0.4,0.3-1.3,0.5c-0.9,0.2-1.4,0.2-0.1-0.2
			C23.8,37.8,24.1,37.8,24,37.9z"/>
	</g>
	<ellipse fill="#167B70" cx="64.5" cy="47.7" rx="0.5" ry="0.6"/>
</g>
</svg>
