<?xml version="1.0" encoding="utf-8"?>
<!-- Generator: Adobe Illustrator 18.0.0, SVG Export Plug-In . SVG Version: 6.00 Build 0)  -->
<!DOCTYPE svg PUBLIC "-//W3C//DTD SVG 1.1//EN" "http://www.w3.org/Graphics/SVG/1.1/DTD/svg11.dtd">
<svg version="1.1" id="Layer_1" xmlns="http://www.w3.org/2000/svg" xmlns:xlink="http://www.w3.org/1999/xlink" x="0px" y="0px"
	 viewBox="0 0 82 82" enable-background="new 0 0 82 82" xml:space="preserve">
<g>
	<path fill="#D1ECEB" d="M16,27c0,0,0.6-0.9,1.3-1c0.7-0.1,1.6,0,1.8-0.4c0.2-0.5,0.2-1.3-0.7-1.3C17.5,24.3,16.1,25.7,16,27z"/>
	<path fill="#D1ECEB" d="M14.7,27.1c0,0,0.3-0.8-0.1-1.4c-0.4-0.6-0.7-1-1.1-0.8c-0.4,0.2-0.4,0.8,0.1,1.1
		C14.1,26.3,14.7,27,14.7,27.1z"/>
	<path fill="#D1ECEB" d="M15.7,23.8c0,0,0.5-1.9,0.2-2.6c-0.3-0.7-1.4-1.1-1.7-0.4c-0.3,0.7,0.3,1.4,0.8,1.7
		C15.5,22.9,15.7,23.8,15.7,23.8z"/>
	<linearGradient id="SVGID_1_" gradientUnits="userSpaceOnUse" x1="6.38" y1="40.4298" x2="31.7462" y2="40.4298">
		<stop  offset="0" style="stop-color:#F0E23C"/>
		<stop  offset="0.1155" style="stop-color:#F0DE3B"/>
		<stop  offset="0.2572" style="stop-color:#EED437"/>
		<stop  offset="0.4126" style="stop-color:#ECC332"/>
		<stop  offset="0.5777" style="stop-color:#E9AA2C"/>
		<stop  offset="0.7488" style="stop-color:#E68C26"/>
		<stop  offset="0.7925" style="stop-color:#E58425"/>
	</linearGradient>
	<path fill="url(#SVGID_1_)" d="M16.8,32.6c0,0,0.3-1.1,1.1-0.8c0.8,0.3,1,1.2,1,1.6s0,0.8,0,0.8l1.3,1.1c0,0,1.1-0.6,1.7-0.6
		c0.7,0,0.8-0.2,0.5,0.5c-0.3,0.7-0.1,2.3,0.4,3.5c0.5,1.2,1.2,2.3,0.6,4.8c-0.5,2.5-3.4,4.4-4.2,4.5c-0.9,0.1-2.1-0.2-2.1-0.2
		s-2.2,2-4.8,1.2C9.7,48,9,45.4,9,44.6c0-0.8,0-0.6-0.3-0.8c-0.3-0.3-1.9-0.4-2.3-3.3c-0.4-2.9,0.3-4.2,1.2-3.9
		C8.6,37,8.6,37,8.6,37s-0.9-1.8,0-2.5c0.9-0.7,1.6-0.6,1.7-0.5c0.1,0.1,0.4,0.5,0.4,0.5L16.8,32.6z"/>
	<radialGradient id="SVGID_2_" cx="40.4254" cy="43.7883" r="25.9949" gradientUnits="userSpaceOnUse">
		<stop  offset="0" style="stop-color:#F0E23C"/>
		<stop  offset="0.1155" style="stop-color:#F0DE3B"/>
		<stop  offset="0.2572" style="stop-color:#EED437"/>
		<stop  offset="0.4126" style="stop-color:#ECC332"/>
		<stop  offset="0.5777" style="stop-color:#E9AA2C"/>
		<stop  offset="0.7488" style="stop-color:#E68C26"/>
		<stop  offset="0.7925" style="stop-color:#E58425"/>
		<stop  offset="0.9719" style="stop-color:#F3A91D"/>
	</radialGradient>
	<path fill="url(#SVGID_2_)" d="M60.7,32.2c0,0,4.1,4.4,5.4,7.6c1.3,3.2,0.7,5.5,0.7,5.5s-3.6,2.8-5.8,4.1c-2.2,1.3-2.8,2.1-2.8,2.1
		s1.5,1.9,2.2,4c0.7,2.1,0.3,3.2,0.3,3.2s-4.3,6.8-16,7C33,65.8,27,62,23.3,57c-3.7-5-4.3-7.9-4.3-7.9l-0.4-1.2c0,0,4.3-0.8,4.5-3.7
		c0.1-2.9,0.6-3.8,0.6-3.8l-1.4-4l1.4-3.1L60.7,32.2z"/>
	<path fill="#C0BFBF" d="M25.7,24.7l1.4,5.4c0,0,6.8-4.1,14.3-3.5c7.5,0.6,22.1,8.7,22.1,8.7s-0.5-2.1,0.4-4.2c0.9-2.1,1.7-3,1.7-3
		s-2.9-1.6-4.9-3.9c-2-2.3-4.9-6.6-9.1-8.8c-4.2-2.2-8.1-1.9-11-0.9c-2.9,1-6.8,4.3-9.1,6.3c-2.3,1.9-3.3,3.9-4.1,4.1
		C26.5,25.2,25.7,24.7,25.7,24.7z"/>
	
		<radialGradient id="SVGID_3_" cx="41.5395" cy="46.5197" r="15.985" gradientTransform="matrix(1.0976 0 0 0.9509 -3.4307 -15.4244)" gradientUnits="userSpaceOnUse">
		<stop  offset="0" style="stop-color:#FFFFFF"/>
		<stop  offset="0.1055" style="stop-color:#FFFEF8"/>
		<stop  offset="0.2349" style="stop-color:#FDFBEC"/>
		<stop  offset="0.3769" style="stop-color:#FBF7D8"/>
		<stop  offset="0.5278" style="stop-color:#F8F2BD"/>
		<stop  offset="0.6859" style="stop-color:#F6EC9A"/>
		<stop  offset="0.8474" style="stop-color:#F3E66E"/>
		<stop  offset="0.9719" style="stop-color:#F0E23C"/>
	</radialGradient>
	<path fill="url(#SVGID_3_)" d="M61.3,36.8c0,6.3-7.5,15.4-19.8,15.1C27.6,51.6,23,43.4,23,37.1c0-6.3,8.9-11.4,19.8-11.4
		C53.8,25.8,61.3,30.5,61.3,36.8z"/>
	<path fill="#FFFFFF" d="M54.5,19.3c0,0,0.5,4-0.6,6.2c-1,2.2-0.8,1.9,0.4,2.5c1.2,0.6,1.8,1,1.8,1s-8.3-4.4-16.3-3
		c-8.1,1.4-12.4,3.8-12.4,3.8s1.5-1.9,4.5-3.2c3-1.3,3-1.3,3-1.3s-1.4,0.2-2.4-1.2c-1-1.4,1.9-4,3.8-5.4c1.8-1.3,5-3.9,9.5-2.8
		c4.5,1.1,6.2,2.3,6.1,1.8c-0.1-0.5-1.7-1.7-3.4-2.4c-1.7-0.7-2.8-0.9-2.8-0.9s1.5-0.9,5,1.1c3.5,2,5.4,4,8.1,7.3
		c2.7,3.3,4.5,4.7,5.3,5c0.8,0.3,0.9,0.4,0.5,1c-0.4,0.6-1.1,1.5-1.5,3.1c-0.4,1.5-0.6,1.6-0.8,1.3c-0.2-0.3-0.3-1.6,0.4-3.2
		c0.7-1.6,0.5-1.8,0-2.2c-0.4-0.3-1.4-0.8-4.2-4.2C55.8,20,54.5,19.3,54.5,19.3z"/>
	<radialGradient id="SVGID_4_" cx="48.3132" cy="38.6134" r="5.4565" gradientUnits="userSpaceOnUse">
		<stop  offset="0.3809" style="stop-color:#FFFFFF"/>
		<stop  offset="0.4707" style="stop-color:#F5F5F4"/>
		<stop  offset="0.575" style="stop-color:#E3E1E1"/>
		<stop  offset="0.6865" style="stop-color:#C9C7C7"/>
		<stop  offset="0.8031" style="stop-color:#A9A7A8"/>
		<stop  offset="0.9224" style="stop-color:#868586"/>
		<stop  offset="1" style="stop-color:#6E6F71"/>
	</radialGradient>
	<path fill="url(#SVGID_4_)" d="M53.8,37.3c-1.8-2.8-5.2-4.3-7.2-3.5c-2,0.8-2.5,1.4-3.3,3c-0.8,1.5-0.7,4.5-0.7,5.3
		c0,0.8,0.1,1.4,0.1,1.4s2.4-1.5,5.6-1.3c3.1,0.2,4.8,0.8,5,1.3c0.3,0.4,0.3,0.2,0.3,0.2s0.6-1.4,0.6-3C54.1,39,54.3,38.1,53.8,37.3
		z"/>
	<radialGradient id="SVGID_5_" cx="36.8174" cy="36.3021" r="8.7048" gradientUnits="userSpaceOnUse">
		<stop  offset="0.3809" style="stop-color:#FFFFFF"/>
		<stop  offset="0.4707" style="stop-color:#F5F5F4"/>
		<stop  offset="0.575" style="stop-color:#E3E1E1"/>
		<stop  offset="0.6865" style="stop-color:#C9C7C7"/>
		<stop  offset="0.8031" style="stop-color:#A9A7A8"/>
		<stop  offset="0.9224" style="stop-color:#868586"/>
		<stop  offset="1" style="stop-color:#6E6F71"/>
	</radialGradient>
	<path fill="url(#SVGID_5_)" d="M44.1,35.2c0,0-1.2,2.2-1.4,4.6c-0.3,2.4-0.2,3.6-0.2,3.6l-0.3,0.3l-0.3-0.4c0,0-1.3-2.4-4.6-2.7
		c-3.3-0.3-5.4,0-5.4,0l-1.5,0.8l-0.3,0.1c0,0-1.5-3.5-0.1-7.1c1.4-3.6,4.8-5.3,8.6-4.1C42.5,31.5,43.6,34,44.1,35.2z"/>
	<path fill="#A6A8AC" d="M49.9,33.9c-1.8-0.6-3.9-0.6-5.4,0.7c-0.2,0.1-0.3,0.3-0.4,0.5c-0.2-1.9-1.7-3.6-3.2-4.5
		c-1.8-1.1-4.3-1.2-6.4-0.8c-5.2,1-6.2,7.8-4.4,11.9c0.1,0.3,0.6,0.1,0.5-0.2c-1.5-3.9-0.8-9.5,3.7-11c4.1-1.4,8.6,0.9,9.4,5.1
		c-1,1.5-1.2,3.5-1.1,5.2c0,0.1,0.1,0.1,0.1,0c0.3-1.8,0.6-3.5,1.6-5.1c1.2-1.9,3.9-1.9,5.8-1.1c1.7,0.7,2.9,2.5,3.4,4.2
		c0.6,1.7,0.2,3.1,0,4.8c0,0.2,0.2,0.2,0.3,0.1C55.9,40.6,53.2,35.1,49.9,33.9z"/>
	<path fill="#2C2A6C" d="M13.7,29c0,0,0.1,2.2-0.1,2.6c-0.2,0.4-3.4,3.7-4.3,5.2c-1,1.5,0.3,5,0.7,5.6c0.5,0.6,1.2,1,1.2,1
		s1.3-0.5,3.1,0.1c1.8,0.6,3,1.5,3,1.5s0.5-2.9,1.3-3.9c0.8-1.1,2-1.7,2-1.7s-0.9-1.2-0.6-2.7c0.3-1.5,0.2-1.7,0.2-1.7
		s-0.9-0.3-1.7-0.8c-0.8-0.5-1.9-0.5-2.6-2.3c-0.7-1.9-0.7-3-0.7-3l0.4-0.7c0,0-0.9-0.3-1.4,0.1C13.9,28.8,13.7,29,13.7,29z"/>
	<g>
		
			<ellipse transform="matrix(0.9991 4.354909e-002 -4.354909e-002 0.9991 1.7285 -1.6227)" fill-rule="evenodd" clip-rule="evenodd" fill="#595A5C" cx="38.1" cy="38.9" rx="2.6" ry="3.5"/>
		
			<linearGradient id="SVGID_6_" gradientUnits="userSpaceOnUse" x1="44.8864" y1="32.9415" x2="49.4173" y2="32.9415" gradientTransform="matrix(0.999 4.370000e-002 -4.370000e-002 0.999 -7.5867 3.9173)">
			<stop  offset="0" style="stop-color:#A6A7AA"/>
			<stop  offset="1" style="stop-color:#6E6F71"/>
		</linearGradient>
		<path fill-rule="evenodd" clip-rule="evenodd" fill="url(#SVGID_6_)" d="M40.3,39c-0.1,1.7-1.2,3.1-2.4,3
			c-1.2-0.1-2.2-1.5-2.1-3.2c0.1-1.7,1.2-3.1,2.4-3C39.5,35.8,40.4,37.3,40.3,39z"/>
		
			<linearGradient id="SVGID_7_" gradientUnits="userSpaceOnUse" x1="45.6942" y1="32.1597" x2="49.4165" y2="32.1597" gradientTransform="matrix(0.999 4.370000e-002 -4.370000e-002 0.999 -7.5867 3.9173)">
			<stop  offset="0" style="stop-color:#D0D2D3"/>
			<stop  offset="1" style="stop-color:#6E6F71"/>
		</linearGradient>
		<path fill-rule="evenodd" clip-rule="evenodd" fill="url(#SVGID_7_)" d="M36.8,36.3c-0.2,0.9-0.3,2.4,0.9,3.5c1,1,1.8,0.9,2.3,0.6
			c0.2-0.4,0.3-0.9,0.3-1.4c0.1-1.7-0.9-3.2-2.1-3.2C37.7,35.7,37.2,35.9,36.8,36.3z"/>
		
			<ellipse transform="matrix(0.999 4.370540e-002 -4.370540e-002 0.999 1.7286 -1.6248)" fill-rule="evenodd" clip-rule="evenodd" fill="#010101" cx="38" cy="38.7" rx="1.5" ry="2.1"/>
		
			<ellipse transform="matrix(0.999 4.406909e-002 -4.406909e-002 0.999 1.6642 -1.6722)" fill-rule="evenodd" clip-rule="evenodd" fill="#FFFFFF" cx="38.8" cy="36.9" rx="0.5" ry="0.7"/>
		
			<ellipse transform="matrix(0.999 4.474330e-002 -4.474330e-002 0.999 1.8296 -1.6083)" fill-rule="evenodd" clip-rule="evenodd" fill="#FFFFFF" cx="36.8" cy="40.1" rx="0.2" ry="0.3"/>
	</g>
	<g>
		
			<ellipse transform="matrix(0.9991 4.354301e-002 -4.354301e-002 0.9991 1.827 -2.0659)" fill-rule="evenodd" clip-rule="evenodd" fill="#595A5C" cx="48.3" cy="40.9" rx="2.6" ry="3.5"/>
		
			<linearGradient id="SVGID_8_" gradientUnits="userSpaceOnUse" x1="55.1961" y1="34.5384" x2="59.7265" y2="34.5384" gradientTransform="matrix(0.999 4.370000e-002 -4.370000e-002 0.999 -7.5867 3.9173)">
			<stop  offset="0" style="stop-color:#A6A7AA"/>
			<stop  offset="1" style="stop-color:#6E6F71"/>
		</linearGradient>
		<path fill-rule="evenodd" clip-rule="evenodd" fill="url(#SVGID_8_)" d="M50.6,41c-0.1,1.7-1.2,3.1-2.4,3C46.9,44,46,42.6,46,40.8
			c0.1-1.7,1.1-3.1,2.4-3C49.7,37.8,50.6,39.3,50.6,41z"/>
		
			<linearGradient id="SVGID_9_" gradientUnits="userSpaceOnUse" x1="56.0036" y1="33.7566" x2="59.7262" y2="33.7566" gradientTransform="matrix(0.999 4.370000e-002 -4.370000e-002 0.999 -7.5867 3.9173)">
			<stop  offset="0" style="stop-color:#D0D2D3"/>
			<stop  offset="1" style="stop-color:#6E6F71"/>
		</linearGradient>
		<path fill-rule="evenodd" clip-rule="evenodd" fill="url(#SVGID_9_)" d="M47,38.3c-0.2,0.9-0.3,2.4,0.9,3.5c1,1,1.8,0.9,2.3,0.6
			c0.2-0.4,0.3-0.9,0.3-1.4c0.1-1.7-0.9-3.2-2.1-3.2C47.9,37.7,47.4,38,47,38.3z"/>
		
			<ellipse transform="matrix(0.999 4.370461e-002 -4.370461e-002 0.999 1.8277 -2.0698)" fill-rule="evenodd" clip-rule="evenodd" fill="#010101" cx="48.3" cy="40.8" rx="1.5" ry="2.1"/>
		
			<ellipse transform="matrix(0.999 4.407912e-002 -4.407912e-002 0.999 1.7647 -2.1214)" fill-rule="evenodd" clip-rule="evenodd" fill="#FFFFFF" cx="49" cy="39" rx="0.5" ry="0.7"/>
		
			<ellipse transform="matrix(0.999 4.469733e-002 -4.469733e-002 0.999 1.9294 -2.0618)" fill-rule="evenodd" clip-rule="evenodd" fill="#FFFFFF" cx="47.1" cy="42.1" rx="0.2" ry="0.3"/>
	</g>
	<path fill="#F06724" d="M18.4,31.5c-0.4-0.3-1-0.3-1.3,0c-0.5,0.4-0.6,1-0.2,1.5c0.1,0.1,0.3,0,0.3-0.1c-0.2-0.4,0-0.8,0.4-1
		c0.3-0.2,0.6,0.1,0.8,0.3c0.4,0.5,0.4,1.1,0.3,1.7c-0.1,0.3,0.3,0.4,0.5,0.2C19.6,33.3,19.1,32,18.4,31.5z"/>
	<path fill="#F06724" d="M60.3,41.8c-2.3-0.9-4.6,1-4.7,3.3c0,0.2,0.2,0.2,0.3,0.1c0.9-1.9,2-3.3,4.2-2.7c1.8,0.5,2.3,2.1,2.1,3.7
		c0,0.2,0.2,0.2,0.3,0.1C63.5,44.5,62.1,42.5,60.3,41.8z"/>
	<path fill="#F06724" d="M56.9,57.8c-2.2,3.9-6.1,3.8-10.1,3.6c-2.3-0.1-4.6-0.2-6.9-0.2c-1,0-2.1,0-3.1,0.1c-1.3-0.2-2.6,0-4-0.2
		c-1.8-0.3-3-1.1-4.2-2.4c-0.1-0.1-0.3,0-0.3,0.2c0.6,2.5,4.7,3.7,7.4,3.2c1.4,0.1,2.8-0.1,4.1,0c2.8,0.1,5.6,0.2,8.5,0.3
		c3.6,0.2,7.5-0.7,8.8-4.4C57.2,57.8,57,57.7,56.9,57.8z"/>
	<path fill="#F06724" d="M27,45.8c-1.6-1-3.2-0.4-4.3,1.1c-0.9,1.3-1,3.9,0.6,4.8c0.1,0.1,0.2-0.1,0.2-0.2c-0.6-1.5-1-2.6-0.2-4.1
		c0.7-1.4,2.2-1.9,3.6-1.5C27,46.1,27.1,45.8,27,45.8z"/>
	<path fill="#F06724" d="M42.2,43.7c-1.9,2.3-2.2,6.9-0.6,9.5c0,0.1,0.1,0,0.1-0.1c-0.3-1.5-0.7-3-0.6-4.6c0-1.7,0.6-3.2,1.2-4.7
		C42.4,43.8,42.3,43.6,42.2,43.7z"/>
	<path fill="#F06724" d="M52.1,32.6c-2-1-5.5-0.9-6.6,1.4c0,0.1,0.1,0.2,0.1,0.1c1.2-1,2.4-1.6,4-1.5c1.5,0,3,0.9,4,2
		c0.9,0.9,1.2,2.1,1.5,3.3c0,0.1,0.1,0.7,0.4,0.6c0,0,0,0,0,0c0.1,0,0.2-0.1,0.2-0.2C55.5,35.7,54.3,33.7,52.1,32.6z"/>
	<path fill="#F06724" d="M40.3,29.1c-1.5-0.6-2.9-0.7-4.4-0.3c-1.4,0.3-2.4,1.2-3.5,2.2c-0.1,0.1-0.1,0,0-0.1
		c0.9-0.7,1.7-1.3,2.8-1.6c1.4-0.4,2.8-0.2,4.1,0.2c2,0.6,4.1,2.4,4.5,4.5c0,0.1,0.2,0.1,0.2,0C44.6,31.9,42,29.7,40.3,29.1z"/>
	<path fill="#818181" d="M65.6,28.1c0.1-0.2,0.1-0.4-0.1-0.6c-2.1-1.2-3.9-2.6-5.3-4.6c-1.3-1.7-2.6-3.3-4.2-4.8
		c-2.7-2.5-6.5-4.9-10.4-4.6c0,0,0,0-0.1,0c0,0,0,0-0.1,0c0,0-0.1,0-0.1,0c-1.7-0.4-3.6,0.3-5.2,0.8c-2,0.7-3.8,1.9-5.4,3.1
		c-1.6,1.2-3,2.5-4.4,3.9c-1,0.9-3.1,3.9-4.6,2.8c-0.3-0.2-0.6,0.1-0.6,0.4c0.3,1.9,1.6,3.8,1.5,5.7c0,0.5,0.7,0.5,0.8,0
		c0-1.8-1-3.4-1.4-5.2c0.8,0.2,1.6-0.2,2.3-0.8c1.5-1.3,2.8-2.8,4.2-4.1c1.8-1.7,3.8-3.2,5.9-4.4c1.1-0.6,2.2-1,3.3-1.4
		c0.9-0.3,1.9-0.3,2.8-0.5c-0.2,0.2-0.3,0.4-0.5,0.6c-0.1,0-0.2,0-0.4,0c-2.7,0.1-4.9,1.4-6.9,3.1c-0.1,0.1,0,0.2,0.2,0.2
		c1.9-1.6,4.3-2.4,6.7-2.6c-0.3,0.6-0.5,1.1-0.7,1.6c-0.7,1.5-1.4,3.2-1.2,5c0,0.1,0.2,0.2,0.2,0c0.2-1.5,0.7-2.9,1.3-4.3
		c0.4-0.8,0.7-1.6,1.1-2.3c2.2,0,4.4,0.6,6.3,1.8c0.1,0.1,0.2-0.1,0.1-0.2c-1.6-1.5-3.9-2.1-6-2.2c0.1-0.2,0.3-0.4,0.4-0.7
		c0,0,0,0,0,0c2.2,0.3,4.2,0.7,6.2,1.8c2,1.1,3.8,2.7,5.3,4.3c1.3,1.4,2.3,3,3.5,4.5c1.2,1.6,3,2.8,4.7,3.7c0,0,0.1,0,0.1,0
		c-1.5,2-2.3,4.5-1.9,7.1c0,0.2,0.3,0.1,0.3,0c0.3-2.5,0.7-4.6,2.2-6.7C66,28.4,65.8,28.2,65.6,28.1z"/>
	<path fill="#818181" d="M63.4,28c-1.8-0.9-3.2-2.5-4.4-4.1c-1.4-1.7-2.9-3.2-4.4-4.8c-0.1-0.1-0.1,0-0.1,0.1c1.8,2,3.3,4.1,5,6.1
		c0.7,0.9,1.5,1.7,2.4,2.4c0.3,0.2,0.7,0.5,1,0.7c0.2-0.2,0.1-0.2,0,0c-0.1,0.2-0.2,0.5-0.3,0.7c0,0.1,0.1,0.2,0.2,0.1
		c0.3-0.3,0.8-0.6,0.8-1C63.6,28.2,63.5,28.1,63.4,28z"/>
	<path fill="#F06724" d="M36.2,40.1c-2-0.3-5.7,0-6.7,2.2c-0.1,0.2,0.1,0.3,0.2,0.1c1.2-1.5,3.8-1.7,5.6-1.7c1.8,0,5.7,0.8,6.3,2.8
		c0.1,0.4,0.7,0.2,0.6-0.2C41.8,41.1,38,40.4,36.2,40.1z"/>
	<path fill="#F06724" d="M54.5,45.1c-0.4-0.3-0.9-0.3-1.3,0.1c-0.9,1-1.9,1.7-3.2,2.1c-2.7,0.7-6.1-1-7-3.6c0.9-1,2.8-1.1,4-1.2
		c2.2-0.2,4.6-0.2,6.2,1.4c0.4,0.3,0.9-0.2,0.5-0.5c-1.9-1.9-4.6-1.9-7.1-1.6c-1.1,0.1-4.6,0.4-4.3,2.2c0,0.1,0.1,0.1,0.1,0.1
		c0.3,2.1,2.8,3.4,4.7,3.8c1.2,0.3,2.5,0.2,3.7-0.2c0.6-0.2,1.1-0.5,1.6-0.9c0.5-0.4,1.2-1.5,2-1.4C54.7,45.5,54.7,45.2,54.5,45.1z"
		/>
	<path fill="#F06724" d="M40.1,47.1c-1,1.6-3.7,1.3-5.3,0.9c-2.2-0.6-4.7-2.6-4.9-5c0-0.2-0.3-0.2-0.3,0c-0.6,2.6,2.7,4.8,4.7,5.5
		c1.7,0.6,5.5,0.9,6.1-1.3C40.4,47,40.2,47,40.1,47.1z"/>
	<path fill="#F06724" d="M28.6,42.8c-0.2-0.4-0.7-0.6-1.2-0.6c-0.5-0.1-1,0-1.4,0.1c-0.2,0.1-0.1,0.4,0.1,0.3c0.4-0.1,0.8-0.1,1.2,0
		c0.4,0.1,0.7,0.4,1.1,0.5C28.5,43.1,28.6,42.9,28.6,42.8z"/>
	<path fill="#F06724" d="M28,41.4c-0.4-0.2-0.9-0.2-1.3-0.2c-0.2,0-0.2,0.3,0,0.3c0.4,0,0.8,0.3,1.2,0.5c0.2,0.2,0.5,0.4,0.8,0.4
		c0.1,0,0.2-0.1,0.2-0.2C28.8,41.7,28.3,41.5,28,41.4z"/>
	<path fill="#423895" d="M20.4,35c-1-1-2.3-1.5-3.4-2.4c-1.4-1.1-1.7-2.7-1.2-4.2c0-0.1,0-0.2-0.1-0.2c-0.7-0.5-1.6-0.3-2,0.4
		c-0.4,0.6-0.4,1.5-0.3,2.3c-0.5,1.5-1.4,2.4-2.6,3.4c-1.1,0.9-1.7,2.1-2.1,3.4c-0.7,2.2,0.1,5.4,2.6,6.1c0.3,0.1,0.4-0.3,0.2-0.4
		c-1.4-0.8-2-1.9-2.2-3.5c-0.1-1.6,0.5-3.3,1.6-4.5c0.7-0.8,2.2-1.8,2.7-3c0,0.1,0,0.1,0,0.2c0.1,0.3,0.6,0.2,0.5-0.1
		c-0.2-0.9-0.3-1.8-0.3-2.7c0-0.3,0.1-0.7,0.3-0.9c0,0.3,0.3,0.6,0.6,0.3c0.1-0.1,0.1-0.2,0.2-0.3c0-0.1,0-0.2-0.1-0.3
		c0.1,0,0.2,0,0.3,0c-0.6,0.8-0.2,2.3,0.2,3.1c1,1.9,3,2.5,4.5,3.9C20.3,35.8,20.7,35.3,20.4,35z"/>
	<path fill="#423895" d="M17.5,36.1c0-0.1-0.1-0.1-0.1,0c-0.3,1.9-1.3,3.5-3.2,4.1c-2.1,0.6-4.1-1.3-4.1-3.4c0-0.1-0.1-0.1-0.1,0
		c-0.3,2.3,1.4,4,3.6,4.1C16,41.1,18,38.4,17.5,36.1z"/>
	<path fill="#47B6B2" d="M14.8,25.5c-0.2-0.4-0.7-1-1.2-0.7c-0.4,0.2-0.5,0.7-0.3,1.1c0.1,0.3,0.4,0.5,0.7,0.6
		c0.2,0.1,0.3,0.2,0.4,0.4c0.2,0.2,0.2,0.4,0.3,0.6c0.1,0.1,0.3,0.2,0.3,0c0-0.1,0-0.1,0-0.2C15.2,26.7,15.1,26,14.8,25.5z
		 M14.4,26.4c-0.4-0.3-1.1-0.5-1-1.1c0-0.2,0.2-0.3,0.4-0.4c0.4-0.1,0.6,0.3,0.7,0.6c0.1,0.2,0.2,0.6,0.2,0.8c0,0.1,0,0.2,0.1,0.4
		C14.6,26.6,14.5,26.5,14.4,26.4z"/>
	<path fill="#47B6B2" d="M15.7,20.6c-0.4-0.3-1.2-0.6-1.5,0c-0.8,1.4,1.1,2.1,1.5,3.2c0,0.1-0.1,0.2-0.1,0.4c0,0.1,0.2,0.2,0.2,0.1
		c0-0.1,0-0.2,0.1-0.2c0,0,0,0,0,0c0,0,0,0,0,0c0-0.2,0.1-0.3,0.1-0.5c0-0.2,0.1-0.4,0.1-0.6c0-0.1-0.1-0.1-0.1,0
		c-0.1,0.1-0.1,0.3-0.2,0.5c-0.1-0.4-0.5-0.8-0.9-1.1c-0.4-0.4-0.8-1.1-0.2-1.5c0.4-0.3,1,0.2,1.2,0.6c0.1,0.3,0.1,0.6,0.1,0.9
		c0,0.1,0.2,0.1,0.2,0C16.2,21.7,16.2,21,15.7,20.6z"/>
	<path fill="#47B6B2" d="M18.3,24c-1.5,0.3-2.5,1.7-2.5,3.2c0,0.1,0.1,0.1,0.2,0c0.2-0.8,0.6-1.8,1.4-2.4c0.3-0.2,0.7-0.4,1.1-0.4
		c0.7,0.1,0.5,1.1,0.1,1.4c0,0,0,0.1,0,0.1C20,25.9,19.6,23.7,18.3,24z"/>
	<path fill="#47B6B2" d="M18.3,25.9c-0.3,0.1-0.6,0-0.9,0c-0.3,0-0.4,0.2-0.6,0.3c0,0,0,0.1,0,0c0.3-0.1,0.6-0.2,0.8-0.2
		c0.2,0,0.4,0,0.6-0.1C18.4,26,18.3,25.9,18.3,25.9z"/>
	<path fill="#010101" d="M40.7,30.2c-1.7-1.1-4-1.3-6-1c-1.7,0.2-3.2,1-4.4,2.2c-1.1,1.1-2,2.8-1.8,4.4c0,0.3,0.1,0.6,0.3,0.8
		c0.1,0.1,0.3,0,0.4-0.1c0,0,0-0.1,0-0.1c0-0.8,0.1-1.5,0.4-2.2c0.1-0.2,0.1-0.3,0.2-0.5c0,0,0-0.1,0.1-0.1c0.9-1.9,2.8-3.2,5-3.7
		c3-0.6,7.4,0.6,8.5,3.8c0,0.1,0.1,0.1,0.1,0C43.5,32.3,41.8,30.9,40.7,30.2z"/>
	<path fill="#010101" d="M51.2,34.1c-2-1.1-5.2-1.4-6.9,0.5c-0.1,0.1,0,0.3,0.2,0.2c2.2-1.1,4.1-1.1,6.3,0.1c1,0.5,1.7,1.3,2.3,2.2
		c0.4,0.8,0.5,1.7,0.9,2.5c0.1,0.2,0.3,0.1,0.4,0C55.1,37.3,52.9,35.1,51.2,34.1z"/>
	<path fill="#F06724" d="M66.1,39.8c-0.7-2-1.7-3.9-3-5.5c-2.6-3.3-6.9-5.9-11-6.5c-0.3,0-0.5,0.4-0.1,0.5c1.9,0.6,3.6,1.2,5.4,2.2
		c1.8,1,3.3,2.2,4.7,3.8c2.8,3.1,4.2,7.4,4.4,11.6c0,0.2,0.3,0.2,0.3,0C67.3,43.8,66.7,41.7,66.1,39.8z"/>
	<path fill="#F06724" d="M45.5,25.8c-1.8-0.8-3.9-0.5-5.8-0.3c-2.3,0.2-4.5,0.6-6.7,1.2c-4.4,1.2-8,4.3-10.8,7.8
		c-0.3,0.3,0.2,0.8,0.5,0.5c1.5-1.6,2.8-3.2,4.6-4.5c1.7-1.2,3.5-2.3,5.5-3c4-1.4,8.5-1.8,12.7-1.3C45.6,26.2,45.7,25.9,45.5,25.8z"
		/>
	<path fill="#F06724" d="M60.8,58.6C54.2,65.2,44.4,66,35.7,64c-4-1-7.8-2.8-10.9-5.6c-3.1-2.8-4.8-6.5-5.7-10.5
		c-0.1-0.2-0.5-0.2-0.4,0.1c0.8,8.7,8.4,14.6,16.3,16.7c9,2.4,19.5,1.5,26.4-5.4C61.7,58.9,61.1,58.3,60.8,58.6z"/>
	<path fill="#010101" d="M28.2,30.9c0,0,0.6,0.8,1.1,0.9c0.5,0.1,1-0.3,1-0.3l-0.5,0.9C29.9,32.4,28.6,32.8,28.2,30.9z"/>
	<path fill="#010101" d="M26.5,33.1c0,0,0.9,0.3,1.8,0.2c0.9-0.1,1.3-0.5,1.3-0.5l-0.3,1.2C29.3,33.9,27.8,34.6,26.5,33.1z"/>
	<path fill="#010101" d="M26.9,34.9c0,0,1.1,0,1.6-0.3c0.5-0.3,0.5-0.4,0.5-0.4l-0.2,1C28.9,35.2,27.9,35.9,26.9,34.9z"/>
	<path fill="#010101" d="M29.8,29.2c0,0-0.1,0.7,0.4,1.3c0.4,0.7,0.9,0.8,0.9,0.8l0.5-0.7C31.6,30.6,30.5,30.7,29.8,29.2z"/>
	<path fill="#010101" d="M32.2,29c0,0-0.4,0.3,0,1.1c0.3,0.8,0.9,0.3,0.9,0.3S32.2,30,32.2,29z"/>
	<path fill="#010101" d="M56.6,38c0,0-0.1,0.5-0.7,0.8c-0.6,0.3-1.6,0.1-1.6,0.1L53.9,38C53.9,38,54.9,38.5,56.6,38z"/>
	<path fill="#010101" d="M55.5,35.7c0,0-0.3,1.1-0.8,1.4c-0.5,0.3-0.9,0.2-0.9,0.2l-0.6-0.9C53.2,36.4,54.7,37,55.5,35.7z"/>
	<path fill="#010101" d="M53.7,33.9c0,0,0.2,0.7-0.2,1.3c-0.3,0.5-0.7,0.6-0.7,0.6L52.1,35C52.1,35,53.1,35.2,53.7,33.9z"/>
	<path fill="#010101" d="M51.4,33.1c0-0.1,0.3,0.4,0,1c-0.2,0.5-0.4,0.5-0.4,0.5l-0.3-0.4C50.8,34.2,51.4,33.9,51.4,33.1z"/>
	<radialGradient id="SVGID_10_" cx="35.6938" cy="41.3562" r="4.3233" gradientUnits="userSpaceOnUse">
		<stop  offset="0" style="stop-color:#FFFFFF"/>
		<stop  offset="0.1055" style="stop-color:#FFFEF8"/>
		<stop  offset="0.2349" style="stop-color:#FDFBEC"/>
		<stop  offset="0.3769" style="stop-color:#FBF7D8"/>
		<stop  offset="0.5278" style="stop-color:#F8F2BD"/>
		<stop  offset="0.6859" style="stop-color:#F6EC9A"/>
		<stop  offset="0.8474" style="stop-color:#F3E66E"/>
		<stop  offset="0.9719" style="stop-color:#F0E23C"/>
	</radialGradient>
	<path fill="url(#SVGID_10_)" d="M41.7,43.6c0,0-0.8-2.1-4.6-2.7c-3.9-0.6-5.5,0.2-6.2,0.5c-0.7,0.4-1.1,0.9-1.1,1.3
		c0,0.4,2,3.2,6.2,3.8c4.2,0.6,4.4,0.1,3.5-1.1c-0.9-1.2-1.4-1.4-1.4-1.4s1,0.5,1.5,0.9c0.6,0.5,0.4,0.5,0.6,0.5
		c0.2-0.1,0.6,0,0.1-1.1c-0.5-1.1-0.1-0.9,0.4-0.4C41.3,44.4,41.9,44.4,41.7,43.6z"/>
	<radialGradient id="SVGID_11_" cx="48.1365" cy="42.741" r="3.5052" gradientUnits="userSpaceOnUse">
		<stop  offset="0" style="stop-color:#FFFFFF"/>
		<stop  offset="0.1055" style="stop-color:#FFFEF8"/>
		<stop  offset="0.2349" style="stop-color:#FDFBEC"/>
		<stop  offset="0.3769" style="stop-color:#FBF7D8"/>
		<stop  offset="0.5278" style="stop-color:#F8F2BD"/>
		<stop  offset="0.6859" style="stop-color:#F6EC9A"/>
		<stop  offset="0.8474" style="stop-color:#F3E66E"/>
		<stop  offset="0.9719" style="stop-color:#F0E23C"/>
	</radialGradient>
	<path fill="url(#SVGID_11_)" d="M53.5,44.1c0,0-1.3-1.8-5-1.8c-3.7,0-5.5,0.4-5.7,1c-0.2,0.6-0.1,1.6,3.1,2.7
		c3.1,1.1,5.6,0.1,5.7-0.7c0-0.8-1-0.9,0.4-0.7c1.4,0.2,1.3,0,0.5-0.6C51.7,43.4,53.5,44.1,53.5,44.1z"/>
	<path fill="#F0E23C" d="M57.9,42.6c0,0,1.4-0.8,3,0.1c1.6,0.9,1.4,3,1.4,3.2c0,0.2-0.1,0.3-0.1,0.3s-0.1-1.3-0.4-1.6
		c-0.3-0.3-0.3-0.3-0.3-0.3s-0.2,0.4-1.3,0.5c-1.1,0.1-2.2-0.4-2.2-0.4L57.9,42.6z"/>
	<path fill="#F0E23C" d="M26.8,46c0,0-2.1-0.9-3.4,1.2c-1.3,2.1,0,4.3,0,4.3s-0.3-2,0-2.7c0.3-0.7,0.3-0.7,0.3-0.7s3.1,0.1,3.9-0.7
		C28.3,46.7,28,46.3,26.8,46z"/>
	<linearGradient id="SVGID_12_" gradientUnits="userSpaceOnUse" x1="30.2911" y1="54.1384" x2="68.5174" y2="54.1384">
		<stop  offset="0" style="stop-color:#726659"/>
		<stop  offset="0.3152" style="stop-color:#FFFFFF"/>
		<stop  offset="0.6501" style="stop-color:#D0D2D3"/>
		<stop  offset="0.6781" style="stop-color:#C3BDB7"/>
		<stop  offset="0.7626" style="stop-color:#A68F7A"/>
		<stop  offset="0.8401" style="stop-color:#907054"/>
		<stop  offset="0.9079" style="stop-color:#815C3B"/>
		<stop  offset="0.9635" style="stop-color:#78512E"/>
		<stop  offset="1" style="stop-color:#754D29"/>
	</linearGradient>
	<path fill="url(#SVGID_12_)" d="M30.3,53.2c0,0,0.6,2.2,1.7,2.9c1.1,0.7,1.1,0.4,1.5,0.7c0.4,0.3-0.9-0.5-1.1,0
		c-0.2,0.5-0.1,1.3-0.1,1.3s0.7,1.4,3.4,1.4c2.7-0.1,5.5-0.3,8.2-0.2c2.7,0.1,6.1-0.1,8.9-0.8c2.8-0.7,3.4-1.6,3.4-1.6l-0.3-1.2
		c0,0,1.1-1,1.5-2.9c0.4-1.9,0.1-3.8,0.1-3.8s-1.8,2.3-6.6,4.9c-4.7,2.6-7.4,3-7.4,3s-2.1-0.6-4.2-1.2
		C37.1,55.1,30.3,53.2,30.3,53.2z"/>
	<path fill="#FFFFFF" d="M56.4,54.9c1.1-1.5,1.3-4.3,1.2-6.1c0-0.1-0.2-0.2-0.3,0c-0.2,1.3-0.2,2.6-0.5,4c-0.2,0.8-1.4,3.8-2.6,2.1
		c-0.1-0.1-0.3-0.1-0.3,0c-0.2,0.7-0.7,1.2-1.3,1.5c-0.4,0.3-2.1,1.1-2.3,0.2c0-0.2-0.2-0.2-0.3-0.2c0-0.1,0-0.2,0-0.3
		c0-0.1-0.2-0.1-0.3,0c-0.7,2.6-4.3,1.8-6.3,1.7c-0.1,0-0.2,0.2-0.1,0.3c0.9,0.8,3.2,0.5,4.3,0.4c1-0.2,2-0.5,2.3-1.4
		c0.6,1.2,3.8,0,4.3-1.5c0.3,0.3,0.8,0.4,1.2,0.2c0.3,0.3,0.4,0.8,0.4,1.2c0,0.3,0.5,0.3,0.5,0c0-0.3-0.1-0.6-0.2-0.9
		c-0.1-0.2-0.2-0.4-0.4-0.5C56,55.4,56.2,55.2,56.4,54.9z"/>
	<path fill="#FFFFFF" d="M37.7,57.4c-1.4,0.1-3.2,0.3-4.1-1.1c-0.1-0.1-0.2-0.1-0.3-0.1c-1.8,0.5-2.2-2.3-3-3.2
		c-0.1-0.1-0.3,0-0.3,0.2c0.3,0.9,0.7,2,1.3,2.7c0.3,0.3,0.6,0.5,0.9,0.7c-0.1,0.1-0.2,0.3-0.2,0.4c0,0.2,0,0.4,0,0.6
		c0,0.2,0,0.4,0.1,0.5c0.1,0.1,0.3,0.1,0.3-0.1c0-0.1,0-0.2,0-0.3c0-0.1,0-0.3-0.1-0.4c0-0.3,0-0.4,0.2-0.6c0.2,0,0.6,0,0.6,0.1
		c0.8,1.2,3.3,1.6,4.5,0.9C37.9,57.6,37.9,57.4,37.7,57.4z"/>
	<path fill="#F06724" d="M59.5,45.6c-0.5-0.4-1.2-0.8-1.7-0.2c-0.2,0.3-0.1,0.7,0.3,0.7c0.3,0,0.3-0.3,0.5-0.2
		c-0.1,1.2-1.2,2.3-2,3.2c-1.1,1.3-2.5,2.3-4,3.2c-1.4,0.9-2.9,1.4-4.4,2.1c-1.7,0.8-3.4,1.8-5.4,1.8c-0.9,0-1.8-0.4-2.6-0.5
		c-0.9-0.2-1.8-0.4-2.7-0.6c-1.6-0.4-3.1-1-4.6-1.6c-2.3-0.9-5-1.9-6.3-4.2c0.2-0.1,0.3-0.4,0.5-0.6c0.1-0.2,0.2-0.4,0-0.4
		c-1.1-0.2-2.2,0.3-2.9,1.2c-0.3,0.4,0.3,1,0.6,0.6c0.2-0.3,0.6-0.6,0.9-0.8c0,0,0,0,0,0.1c0.6,1.4,1.6,2.3,2.8,3.1
		c0,0.1,0.1,0.2,0.1,0.2c2.6,1.9,1.8,6.1,5.2,7.2c1.9,0.6,4.2,0.2,6.1,0.1c2.5,0,5,0,7.6-0.2c3.2-0.2,7.4-0.8,9.5-3.5
		c0.9-1.1,1.2-2.7,1.4-4.1c0.2-1.3,0.3-2.7-0.4-3.8c0.5-0.6,0.9-1.3,0.9-2.1c0.1,0.1,0.2,0.2,0.4,0.3c0.2,0.2,0.6,0.5,0.7,0.7
		c0.1,0.2,0.4,0.1,0.3-0.1C60.3,46.5,60,46,59.5,45.6z M57.7,53c-0.3,1.7-0.9,3.1-2.4,4.1c-2.9,2-7.3,2-10.7,2.1c-2,0-4,0-5.9,0.1
		c-1.9,0-4.2,0.5-5.7-0.9c-1.4-1.4-1.6-3.5-2.6-5.1c0.7,0.3,1.5,0.6,2.2,0.9c1.8,0.7,3.5,1.4,5.3,1.8c1.9,0.5,4.1,1.2,6,1
		c1.8-0.2,3.5-1.3,5.2-1.9c1.9-0.7,3.6-1.6,5.3-2.8c1.3-0.9,2.6-2,3.5-3.3c0,0,0.1-0.1,0.1-0.1C58.2,50.1,57.9,51.7,57.7,53z"/>
	<path fill="#F0E23C" d="M27.4,48.4c0,0-1,0.5-0.9,0.6c0,0.2,0.3,1.1,1.5,1.9c1.1,0.8,3.3,2,7.3,3.4c4,1.4,7.9,2.1,7.9,2.1
		s4.9-1.5,6.6-2.3c1.7-0.8,6.9-3.7,7.9-5.6c1-2,1.3-2.5,1-2.5c-0.3-0.1-0.7,0-0.7,0s0.4,0,0.2,0.6c-0.2,0.6-0.8,2.8-4.7,4.9
		c-3.9,2.1-6.7,3.1-8.1,3.5c-1.4,0.5-2,0.7-2,0.7h-0.4c0,0-3.8-0.7-8.8-2.4c-5.1-1.7-6.4-3.1-6.7-3.8C27,48.6,27.4,48.4,27.4,48.4z"
		/>
	<path fill="#411411" d="M57.5,49.2c0,0-0.5,4.1-0.9,5c-0.5,1-1.1,1.4-1.5,1.4c-0.4,0-0.9-0.3-0.9-0.3s-0.8,1.2-1.8,1.7
		c-1,0.5-1.9,0.2-2.2,0c-0.3-0.2-0.3-0.1-0.5,0.1c-0.2,0.2-0.6,0.7-1.4,1c-0.8,0.3-1,0.3-1,0.3s1.6-0.3,2.3-0.5
		c0.7-0.3,0.6-0.3,1.1-0.3c0.5,0,1.8-0.2,2.5-0.7c0.7-0.5,1.4-0.5,1.4-0.5s0.3-0.7,0.8-0.8c0.5-0.1,0.8,0.5,0.8,0.5s1.3-1,1.7-3.8
		c0.3-2.8,0-3.7,0-3.7L57.5,49.2z"/>
	<path fill="#411411" d="M30.4,53.2c1,2.1,0.8,1.9,1.1,2.5c0.4,0.6,0.5,0.7,0.9,0.8c0.4,0,0.7-0.1,0.9,0.2c0.2,0.3,0.6,0.7,1.5,1
		c0.9,0.3,2.3,0.2,2.3,0.2s-0.8,0.3-2.2,0c-1.4-0.3-1.3-0.8-2-0.9c-0.7-0.1-0.9,0.1-0.9,0.3c0,0.2,0.1,0.3,0.1,0.3s-0.1,0.2-0.9-1.6
		c-0.8-1.8-1.4-2.9-1.4-2.9L30.4,53.2z"/>
	<path fill="#F69321" d="M37.8,41c0,0,1.5,0.6,2.7,1.7c1.2,1.1,0.5,1.6-0.2,1.3c-0.7-0.3-1.3-0.2-1.3-0.2s-0.1-0.1,0.6,0.3
		c0.7,0.4,0.8,0.6,0.8,0.6s-1.2-0.1-2.1,0c-0.9,0.1-1.5,0.6-0.8,0.6c0.7,0,0.8-0.2,1.5-0.2c0.7,0,0.7,1.5-0.9,1.8
		c-1.6,0.3-5.1-0.2-6.6-2.1c-1.5-1.9-1.6-2.8-1.6-2.8s-0.4-0.1-0.4,0.1c0,0.2,0.2,0.7,0.2,0.7s0,2.5,2.7,4.1
		c2.7,1.6,5.4,1.7,6.5,1.2c1.1-0.5,1.6-0.8,1.9-1.4c0.3-0.6,1.4-3.1,1.4-3.1s-0.8-1.5-2.1-2C38.8,41.1,37.8,41,37.8,41z"/>
	<path fill="#F69321" d="M43.6,42.8c0,0-1,0.3-0.6,1c0.4,0.7,1,0.4,1.3,0.4c0.3,0,0.3,0,0.3,0s-0.3,0-0.5,0.4
		c-0.2,0.3-0.1,0.4,0.7,0.3c0.8-0.1,0.9,0,0.9,0s-1,0.3-1,0.4c0,0.2,1.2,1.4,4.1,1.5c2.9,0,4-1.8,4.1-2.2c0.1-0.5-0.5-0.6-0.5-0.6
		s0.6-0.2,0.8,0c0.2,0.2-0.5-0.7-0.5-0.7s0.7,0.6,1,0.4c0.3-0.2,0.6-1.2,0.6-2.2c0-1,0-1.7,0-1.7s0.4,1.8,0.4,2.6c0,0.8,0,0.8,0,0.8
		s0.2-0.2,0.8-0.7c0.6-0.5,0.6-0.5,0.6-0.5s-0.2,0.4-0.5,1c-0.2,0.5-0.2,0.5-0.2,0.5l1-0.5c0,0-0.5,1-0.5,1.4c0,0.5-0.2,0.8-0.6,0.7
		c-0.4-0.2-1.1-0.3-1.9,0.2c-0.7,0.5-2.1,2.5-4.8,2.3C46,47.4,45,46.9,44.3,46c-0.7-0.8-0.6-1-0.6-1s-1.3-0.9-1.2-1.5
		C42.6,43,43.3,42.7,43.6,42.8z"/>
	<ellipse fill="#FFFFFF" cx="26.1" cy="46.6" rx="1" ry="0.6"/>
	<ellipse fill="#FFFFFF" cx="24.8" cy="46.6" rx="0.4" ry="0.3"/>
	<ellipse fill="#FFFFFF" cx="59.9" cy="43.2" rx="1" ry="0.6"/>
	<ellipse fill="#FFFFFF" cx="58.5" cy="43.2" rx="0.4" ry="0.3"/>
	<path fill="#F79330" d="M42.2,43.9c0,0-0.8-2.5-5.1-3c-4.2-0.5-5.1,0-5.8,0.3c-1.2,0.5-1.8,1.1-1.8,1.1s1.1-0.4,1.6-0.6
		c0.6-0.2,3.1-0.7,5.6-0.3C39.2,41.7,41.7,43.3,42.2,43.9z"/>
	<path fill="#F79330" d="M42.6,43.3c0,0,1.3-1.2,5.3-1.1c4.1,0.1,5.4,1.2,5.7,1.4c0.3,0.2,0.8,0.2,0.8,0.2s-0.7,0.5-0.9,0.3
		c-0.2-0.2-0.9-0.7-3.7-1.1C46.9,42.7,44.8,42.4,42.6,43.3z"/>
	<path fill="#F79330" d="M29.3,53c0,0,1.1,1.1,1.6,2.7c0.5,1.6,1.4,3.3,2.9,3.9c1.4,0.5,6.8,0.2,9.7,0.2c2.9,0,8.5-0.4,10.6-1.4
		c2.1-1,3.2-2.3,3.9-3.7c0.6-1.4,0.5-2,0.5-2s-0.2,5.4-4.1,6.8c-3.9,1.3-6.7,0.9-11.4,0.7c-4.8-0.2-7.4,1.2-9.7,0.2
		c-1.8-0.8-1.8-1.2-2.4-3.4C30.2,54.7,29.3,53,29.3,53z"/>
	<path fill="#F0E23C" d="M28.5,58.5c0,0,1.4,2.3,3.9,2.7c2.6,0.4,8.8,0.2,10.4,0.2c1.7,0.1,6.2,0.4,8.4,0.2c2.2-0.2,4.5-1.6,5.1-2.6
		c0.6-1,0.7-1.2,0.7-1.2s-1.9,3.1-5.8,3.3c-3.9,0.2-6.5-0.3-10.5-0.2c-4,0.1-6,0.4-8.4-0.2C29.9,60.2,28.9,58.9,28.5,58.5z"/>
	<path fill="#FBE400" d="M19.2,48.2c0,0,0.6,6.6,6.6,11.1c5.9,4.5,13.5,6.1,19.8,5.8c6.4-0.3,11.3-3.2,13-4.3
		c1.7-1.1,2.2-2.2,2.2-2.2l0-0.6c0,0-3.3,4.5-10.7,5.9c-7.4,1.4-13.6,0.3-20.1-2.8C23.5,58.1,20.6,52.9,19.2,48.2z"/>
	<path fill="#F06724" d="M23.7,40.5c-0.3-2.1-1.9-3.8-0.5-5.9c0.1-0.2-0.1-0.4-0.3-0.2c0,0,0,0,0,0c-0.5-0.6-2.1,0.1-2.6,0.5
		c-0.5,0.5-0.7,1.3-0.8,1.9c-0.1,0.8,0.4,1.6,0.8,2.3c-1.9,1-2.8,3.3-2.9,5.4c-0.5-0.8-1.9-1.4-2.7-1.6c-1.3-0.3-3.4-0.3-4.3,0.9
		c-0.1,0.1,0.1,0.3,0.2,0.2c1.1-0.4,2.2-0.6,3.4-0.5c0.8,0.1,1.5,0.3,2.1,0.7c0.6,0.3,0.7,0.9,1.1,1.3c0.1,0.1,0.2,0,0.2-0.1
		c0,0,0,0,0,0c0.1,0,0.2,0,0.2-0.1c0.4-1,0.4-2.2,0.8-3.3c0.4-1.1,1.2-1.7,1.9-2.5c0,0.2,0,0.3,0,0.5c0,0.2,0.2,0.3,0.3,0.1
		c0.2-0.4,0.2-0.6,0-1c0.1-0.1,0-0.2-0.1-0.3c-0.3-0.8-0.7-1.5-0.5-2.4c0.1-0.7,0.6-1.4,1.3-1.7c0.1,0,0.8-0.1,1.2-0.2
		c-1.6,1.8,0.7,4.7,0.8,6.8c0.1,3.5-2.7,7.5-6.5,5.9c-0.2-0.1-0.3,0.2-0.2,0.3c0.1,0.1,0.2,0.1,0.3,0.1c-1.9,0.7-3.6,1.2-5.5,0.3
		c-1.6-0.8-2-2.6-2-4.2c0-0.2-0.2-0.3-0.4-0.4c-1.4-0.2-1.9-2.4-2.1-3.5c-0.1-0.6-0.2-1.3-0.2-1.9c0-0.5,0.2-1.6,1-1.2
		c0.4,0.2,0.6,0.8,0.7,1.2c0,0.1,0.3,0.2,0.3,0c0.1-0.3,0-0.7-0.1-1.1c0,0,0.1,0,0.1-0.1c0.1-0.4-0.2-0.8-0.2-1.2c0-0.5,0-1,0.2-1.4
		c0.3-0.5,1.7-0.4,1.5,0.1c-0.1,0.2,0.2,0.3,0.3,0.1c0.6-0.9-1.1-1.2-1.7-1C8.3,33.8,8,34.4,8,35c0,0.4,0,0.7,0.1,1.1
		c0,0.1,0,0.2,0.1,0.3c-0.2-0.2-0.4-0.3-0.7-0.3c-1.1-0.1-1.4,1-1.5,1.9c-0.1,1.8,0.5,5.5,2.6,6.1c0,1.9,0.6,3.6,2.4,4.6
		c1.9,1,4.9,0.8,6.4-0.8c2.4,0.8,4.8-0.7,5.8-3.1C23.7,43.5,23.9,42,23.7,40.5z"/>
	<path fill="#FFFFFF" d="M48.4,34.1c0,0-3.9-0.8-5.2,3c-1.4,4-0.6,5.5-0.6,5.5s0.6-5.6,2.7-7.1c2.7-1.9,4.7-0.8,4.7-0.8
		S49.8,34.3,48.4,34.1z"/>
	<path fill="#FFFFFF" d="M38.8,30.5c0,0-4.7-0.6-6.5,2.9c-1.8,3.5-1.2,7.3-1.2,7.3l-0.8,0.5c0,0-1.8-4.2,0.3-7.7
		C32.8,29.9,35.4,29.7,38.8,30.5z"/>
	<g>
		<path fill="#231F20" d="M51.8,26.9c0-0.1-0.1-0.1-0.1-0.1c-1.6-2.2-4.1-3.9-6.7-4.3c-2.4-0.4-2.6,2.5-2.2,4.2
			c0.7,2.4,3.2,4,5.6,3.6C49.9,30,52.5,28.9,51.8,26.9z M48.4,29.5c-2.2,0.4-4.1-1.1-4.8-3c-0.3-0.8-0.3-1.7-0.2-2.5
			c0.2-1.4,1.8-0.9,2.6-0.6c2,0.7,3.9,2.1,5.1,3.8c0.1,0.1,0.1,0.1,0.2,0.1C51.3,28.7,49.7,29.2,48.4,29.5z"/>
		<path fill="#231F20" d="M40.6,24.4c-1.1-1.7-3.9,0.2-5.1,1c-1.6,0.9-3.6,2.3-1.5,4c1.9,1.6,4.8,0.7,6.2-1.1
			C40.8,27.3,42,25.1,40.6,24.4z M39.6,27.7c-1.1,1.4-3.2,2.2-4.8,1.2c-2.1-1.2,0.6-2.6,1.6-3.2c1.2-0.7,2.6-1.6,3.9-0.9
			c0.1,0,0.2,0,0.2,0C41.1,25.7,40.3,26.9,39.6,27.7z"/>
		<path fill="#010101" d="M40.2,24.3c0,0-1.8-0.5-4.5,1.2c-2.7,1.7-2.7,2.2-1.2,3.4c1.5,1.3,3.4,1.1,4.7-0.3
			c1.3-1.4,1.6-2.8,1.6-3.2C40.9,25.1,40.8,24.6,40.2,24.3z"/>
		<path fill="#010101" d="M44.9,22.5c0,0-3,0.3-1.8,3.5c1.2,3.2,3.8,4.7,5.9,4c2.1-0.7,3.7-2.2,2.7-3.1c-1-0.9-5.6-3.9-5.6-3.9
			L44.9,22.5z"/>
		<path fill="#231F20" d="M43.4,23.1c0,0-0.4,2.4,3.1,4.1c3.5,1.7,6.2,1.4,4.9-0.6c-1.2-2-4.5-3.3-5.7-3.8
			C44.4,22.3,43.4,22.8,43.4,23.1z"/>
		<path fill="#231F20" d="M39.8,24c0,0,0.5,1.2-1,2.7c-1.5,1.4-5.1,1.6-5.3,1c-0.3-0.6,2.5-2.5,3.9-3.1C38.7,23.8,39.8,23.5,39.8,24
			z"/>
		<path fill="#2B2728" d="M44.2,22.8c0,0-1.3,2,1.5,3.2c2.8,1.3,3.9,0,2-1.7C45.7,22.5,44.8,22.8,44.2,22.8z"/>
		<path fill="#2B2728" d="M38.7,24.1c0,0-2.2,1.1-1.6,2.1c0.6,1,3.3-1.8,2.5-2.1C38.8,23.7,38.7,24.1,38.7,24.1z"/>
	</g>
	<path fill="#FFFFFF" d="M44,14.4c0,0-4.3,0.2-9.2,4.4c-4.9,4.2-5.9,6.3-6.7,6.6c-0.8,0.3-0.9,1.2-0.7,1.9c0.1,0.7,0.2,1.6,0.2,1.6
		s-0.3-0.1-0.7-1.6c-0.4-1.5-0.6-1.7-0.6-1.7s1.5-0.4,2.4-1.5c0.8-1.1,3.6-4.7,8.1-7.4c4.5-2.7,8-2.9,7.8-2.6
		C44.4,14.2,44,14.4,44,14.4z"/>
	<path fill="#4C4DA0" d="M15,28.6c0,0-0.3-0.3-0.5-0.1c-0.4,0.3,0.2,0.3,0.3,0.2c0.2-0.1,0.3-0.1,0.3-0.1s0.4,0.2-0.5,0.5
		c-0.3,0.1-0.4,0.7-0.3,1.8c0.1,1.1,0.2,1.9,0,2C14.1,33.1,14,33,14,33s-0.8,2.1-0.7,4.2c0.1,2.1-1.8,2-2.5,1.5
		c-0.7-0.5-1.5-1.5,0-3.4c1.5-1.9,3.1-2.7,3-3.9c-0.1-1.2,0-2,0.1-2.5c0.1-0.7,1.2-0.7,1.4-0.5C15.5,28.6,15,28.6,15,28.6z"/>
	<ellipse fill="#11111E" cx="14.8" cy="28.6" rx="0.4" ry="0.2"/>
	<path fill="#202153" d="M16.1,32.5c0,0,1.2,1.3,1.8,2.9c0.6,1.5,0.1,3.2-1,4.9c-1.1,1.6-5.1,1.5-6.2,0.7c-1.2-0.8-1.3-2.1-1.3-2.1
		s-0.2,0.9,0.3,2.3c0.5,1.4,1.6,2,1.6,2s2.4-0.4,3.7,0c1.4,0.4,2.4,1.5,2.4,1.5s0.2-2.5,1-3.8c0.8-1.3,1.9-1.8,1.9-1.8
		s-1-1.7-0.7-2.6c0.3-0.9,0.4-1.2,0.4-1.2l0.1-0.2c0,0-0.9-0.2-2.1-1.2C16.8,33,16.1,32.5,16.1,32.5z"/>
	<path fill="#13183F" d="M18.8,34.6c0,0,1.2,2.4-0.7,5.3c-1.8,2.9-5.7,2.7-7,2.3c-1.4-0.4-1.6-1.7-1.6-1.7S9.4,41,9.9,41.9
		c0.5,0.9,1.3,1.3,1.3,1.3s2.7-0.4,3.6-0.1c0.9,0.3,1.9,1.1,2.2,1c0.3-0.1,0.5-0.5,0.5-0.5s0.3-2.1,1.1-2.9c0.9-0.8,1.7-1.5,1.7-1.5
		s-0.8-1.4-0.7-2.4c0.1-1,0.4-1.5,0.4-1.5s-0.6-0.1-0.8-0.3C19,34.7,18.8,34.6,18.8,34.6z"/>
	<path fill="#13183F" d="M15.3,28.7c0,0-0.2,0.3-0.6,0.4c-0.3,0.1-0.4,1.4,0.1,2.4c0.4,1.1,1.2,0.9,1.2,0.9s-0.8-1.5-0.8-2.3
		C15.1,29.3,15.3,28.7,15.3,28.7z"/>
	<path fill="#5C61AB" d="M14.3,28.3c0,0-0.5,0.5,0.1,0.6c0.5,0.1,0.9-0.4,0.9-0.4s-0.1,0.4-0.5,0.6C14.6,29.2,13.4,29.1,14.3,28.3z"
		/>
	<path fill="#5C61AB" d="M14,28.9c0,0-0.3,2.2-0.1,3c0.2,0.8-1.2,1.4-2.3,2.6c-1.1,1.2-2.3,3.2-2.2,5.5c0.1,2.1,1.4,2.9,1.4,2.9
		s-2-0.9-1.6-3.9c0.4-3.1,1.8-4.3,3.3-5.6c1.5-1.3,1.1-1.3,1.1-2.4C13.7,29.8,13.8,29.1,14,28.9C14,28.9,14.2,28.6,14,28.9z"/>
	<path fill="#5C61AB" d="M15.2,29.1c0,0-0.2,1.6,0.8,2.8c1,1.2,3.4,3,3.4,3s-3.1-1.7-3.8-2.9C14.7,30.5,15.2,29.1,15.2,29.1z"/>
	<path fill="#FFFFFF" d="M33.5,55.1c0,0,0.3,1.7,0.6,1.9c0.2,0.2-0.7-0.5-0.7-0.7C33.4,56.2,33.1,54.5,33.5,55.1z"/>
	<path fill="#FFFFFF" d="M32.4,57.3c0,0,0.1-0.3,0.7,0c0.6,0.2,1,0.7,2.5,0.8c1.5,0.1,1.9,0,2.2-0.2c0.4-0.2,0.4-0.1,1,0
		c0.6,0.1,1.3-0.1,1.3-0.1s-1.4,0-1.8-0.2c-0.4-0.2-0.4-0.3-0.4-0.3s-0.6,0.5-1.2,0.5c-0.6,0-1.4,0.1-2.1-0.2
		c-0.7-0.3-0.6-0.6-1.2-0.7C32.6,56.8,32.2,56.9,32.4,57.3z"/>
	<path fill="#FFFFFF" d="M55.7,56.2c0,0-0.4-0.2-0.6,0.1c-0.2,0.2-0.3,0.6-0.3,0.6l0,0.3c0,0-0.1-0.4-0.2-0.4c-0.2,0-1,0.4-1.3,0.5
		c-0.4,0.1-0.5,0.5-1.4,0.6C51,58,50.3,58,50.3,58s-1.1,0.5-2.5,0.6c-1.3,0.1-2.4-0.1-2.4-0.1s1.8,0.2,3-0.2
		c1.2-0.4,1.8-0.6,1.8-0.6s1.4,0,2.2-0.4c0.7-0.4,1.2-0.7,1.5-0.8c0.4-0.1,0.6-0.1,0.6-0.1s0.4-0.9,0.8-0.7c0.4,0.1,0.5,0.4,0.5,0.4
		L55.7,56.2z"/>
	<path fill="#FFFFFF" d="M54.3,53.2c0,0,0,2-0.3,2.3c-0.3,0.3-0.1-0.5-0.1-0.5s0.2-1.4,0.2-1.8C54.1,52.7,54.2,52.6,54.3,53.2z"/>
	<path fill="#FFFFFF" d="M50.4,54.8c0,0-0.2,1.8-0.3,1.9c-0.1,0.1-0.5-0.2-0.5-0.2s0.4-1.3,0.5-1.6C50.3,54.6,50.3,54.5,50.4,54.8z"
		/>
	<path fill="#F0E23C" d="M22.4,34.7c0,0-1.7,0-2.1,1.1c-0.4,1.1-0.4,1.5,0,2.4c0.4,0.8,0.5,1.4,0.5,1.8c0,0.3-0.1,0.4-0.1,0.4
		s0.3-0.2,0.2-1.1c0-0.9-0.4-1.3-0.4-1.3S20,37,20.7,36.3c0.7-0.7,1.4-1.1,1.4-1.1s-0.6,1-0.3,2.1c0.3,1.1,1.5,3.7,1.1,5.6
		c-0.4,1.9-2,4-3.3,4.4c-1.3,0.4-3.1-0.2-3.1-0.2s0.7,1.2,3.2,0.4c2.5-0.8,3.9-4.3,3.7-5.7c-0.2-1.3-0.9-3.6-1.3-4.7
		c-0.3-1.1,0.2-2,0.2-2S22.7,34.7,22.4,34.7z"/>
	<path fill="#F0E23C" d="M20.4,39.7c0,0-1.8,0.4-2.4,2.8c-0.6,2.4-0.4,3.1-0.8,2.9c-0.3-0.3-0.5-1.5-2.6-1.8
		c-2.1-0.3-3.9-0.1-4.2,0.3c-0.3,0.4-0.1,2.2,2.2,1.8c2.3-0.4,1.9-1.4,1.9-1.4s1.3-0.1,1.8,0.7c0.5,0.8,1.3,1.2,1.5,0.7
		c0.3-0.5,0.3-1.2,0.7-1.4c0.4-0.2,1.3-0.9,1.7-2.3c0.4-1.4-0.2-1.5-0.2-1.5L20.4,39.7z"/>
	<ellipse fill="#FFFFFF" cx="11.9" cy="44.6" rx="1.3" ry="0.7"/>
	<ellipse fill="#FFFFFF" cx="13.7" cy="44.4" rx="0.3" ry="0.2"/>
	<path fill="#FFFFFF" d="M8.6,38.3c0,0-0.4-1.5-1.1-1.5c-0.8,0-1.2,0.7-0.9,3c0.3,2.4,1.2,3.5,1.7,3.7c0.5,0.2,0.6,0.2,0.7,0.5
		c0.1,0.3,0.1,3,2,4.2c1.9,1.1,3.9,0.4,4.7,0.2c0.9-0.3,1.2-0.5,1.2-0.5s-3.7,1.2-5.3,0.2c-1.6-1-2.2-2.4-2.1-3.3
		c0.1-0.9,0-1.2,0-1.2s-0.6-0.1-1.2-0.6c-0.6-0.5-1.5-2.6-1.5-4.2c0-1.6,0.7-1.7,1-1.2c0.3,0.5,0.8,1.4,0.8,1.4L8.6,38.3z"/>
	<path fill="#F0E23C" d="M17,32.7c0,0,0.1-1.2,0.9-0.9c0.8,0.4,0.8,1.2,0.8,1.2s-0.4-0.9-0.9-0.8C17.4,32.4,17,32.7,17,32.7z"/>
	<path fill="#FFFFFF" d="M18.9,25.5c0,0,0.4-0.9-0.4-1.1c-0.8-0.3-1.6,0.4-2,1.2c-0.4,0.8-0.4,1.1-0.4,1.1s0.3-0.6,0.6-1
		c0.3-0.4,0.5-0.4,0.5-0.4s0.6,0.4,1,0c0.4-0.4,0.4-0.4,0.4-0.4S18.9,25.2,18.9,25.5z"/>
	<path fill="#FFFFFF" d="M15.1,20.6c0,0,1,0.5,0.6,1.1c-0.3,0.5-1.4-0.6-1.3-0.8C14.6,20.6,14.9,20.5,15.1,20.6z"/>
	<path fill="#FFFFFF" d="M13.9,25C13.9,25,13.9,25,13.9,25c0.2,0.1,0.6,0.3,0.9,1.1c0.3,1,0.1,1.2,0.1,1.2s0-0.3-0.2-0.5
		c-0.2-0.2-0.2-0.2-0.2-0.2s-0.1-0.6-0.2-0.7c-0.1-0.2-0.4,0.1-0.6-0.4C13.6,24.9,13.9,25,13.9,25z"/>
	<path fill="#DCDBDC" d="M71.2,48.2c0,0-0.7-2.5-0.9-3.6c-0.2-1.1-0.1-2.3-0.1-2.3s-1.1,2.3-5.3,4.5c-4.2,2.1-6.7,4.8-6.7,4.8
		s1.8,2.1,2.2,4c0.4,1.9,1.6,8.4,2.2,9.8c0.5,1.4,1.7,3,1.7,3s0.3-0.2,4.2-3.2c3.9-3,6.4-4.6,6.4-4.6l-0.7-2.5L71.2,48.2z"/>
	<path fill="#C0BFBF" d="M75.5,60.5c-0.2-1-0.6-1.8-1.1-2.7c-0.1-0.2-0.3,0-0.3,0.1c0.2,0.8,0.5,1.6,0.7,2.5
		c-0.9,0.3-1.8,1.2-2.4,1.6c-1.3,0.8-2.4,1.7-3.7,2.6c-1.1,0.7-2.2,1.4-3.2,2.2c-0.4,0.3-0.9,0.6-1.2,1c-0.2-0.1-0.4-0.8-0.5-1
		c-0.4-1-0.8-1.8-1-2.9c-0.4-1.8-0.7-3.6-1.2-5.4c-0.3-1.5-0.8-2.9-1.4-4.3c-0.3-0.7-0.7-1.7-1.5-2.1c0,0,0,0,0,0
		c0-0.9,1.6-1.6,2.2-2.1c1.3-1.1,2.6-2,4-2.8c1.1-0.7,2.3-1.2,3.3-2c0.7-0.5,1.5-1.1,1.9-1.9c0,1.7,0.4,3.4,1.1,4.9
		c0.1,0.4,0.6,0.2,0.5-0.2c-0.7-1.7-1.2-3.3-1.3-5.1c0.1-0.1,0.1-0.3,0.2-0.4c0.1-0.2-0.2-0.3-0.3-0.2c-1.1,1.1-2.1,2.2-3.5,3
		c-1.4,0.9-2.8,1.6-4.1,2.5c-1.1,0.8-2.2,1.6-3.3,2.5c-0.6,0.4-1.4,1-1.3,1.8c0,0.2,0.1,0.3,0.3,0.3c1.9,2.6,2.5,6.1,3.1,9.2
		c0.3,1.6,0.5,3.3,1.2,4.8c0.3,0.6,0.7,1.9,1.4,2.1c0.1,0,0.1,0,0.2,0c0.2,0.1,0.4,0,0.5-0.1c1-1.6,3.1-2.6,4.7-3.6
		c1-0.7,2-1.3,3-2.1c0.7-0.5,2-1.8,2.9-1.9C75.5,60.8,75.6,60.6,75.5,60.5z"/>
	<path fill="#FFFFFF" d="M70.5,46.1l-9.5,9.1c0,0,0.6,1.9,0.8,3.2c0.2,1.4,2.2-1,2,0.9c-0.2,1.9-0.9,3,2,1.3c2.9-1.7,5-1.4,4.4,0.9
		c-0.6,2.4,1.2,0.4,2.6-0.4c1.4-0.8,1.7-0.9,1.7-0.9l-0.2-1.4l0.5,1.6c0,0-4.1,2.8-6.8,4.6c-2.7,1.8-4,3-4,3s-1.4-2.2-1.9-5.2
		c-0.5-3-0.9-6.1-1.8-7.9c-0.9-1.8-2-2.8-2-2.8s1-1.6,4-3.5c3-1.8,5.6-3.5,6.4-4.3c0.8-0.8,1.2-1.1,1.2-1.1S70.2,45.2,70.5,46.1z"/>
	<path fill="#C0BFBF" d="M69.7,50c0,0-6.3,6-6.9,6.8c-0.5,0.8,0.2,0.8,2.5-0.5c2.3-1.3,3.1-1.5,3.1-1.5s-0.1,3,1.1,3.3
		c1.2,0.3,1.6,0,1.6,0s0.5,1,1.1,0.8c0.6-0.2,0.6-0.6,0.6-0.6l-0.5-0.5c0,0-1.3,0.7-1.9-0.9c-0.6-1.6-0.1-2.3-0.1-2.3
		s-1.4,0.2-1.3-1.4C69.1,51.5,69.7,50,69.7,50z"/>
	<linearGradient id="SVGID_13_" gradientUnits="userSpaceOnUse" x1="69.0401" y1="53.1603" x2="79.2841" y2="53.1603">
		<stop  offset="0" style="stop-color:#F0E23C"/>
		<stop  offset="0.1155" style="stop-color:#F0DE3B"/>
		<stop  offset="0.2572" style="stop-color:#EED437"/>
		<stop  offset="0.4126" style="stop-color:#ECC332"/>
		<stop  offset="0.5777" style="stop-color:#E9AA2C"/>
		<stop  offset="0.7488" style="stop-color:#E68C26"/>
		<stop  offset="0.7925" style="stop-color:#E58425"/>
	</linearGradient>
	<path fill="url(#SVGID_13_)" d="M73.2,48.3c0,0,0.8,1.3,0.8,1.6c0,0.3,0.2-0.3,0.7,0.2c0.5,0.5,0.7,1.3,0.6,2.2c0,0.8-0.1,1-0.1,1
		s0.8,0.5,0.7,1.7c-0.1,1.2-1.6,3.7-2.8,3.3c-1.1-0.4-0.6-1.2-0.6-1.2s-0.9,1.6-1.8,0c-0.9-1.5-0.6-2.8-0.6-2.8s-1.4-0.6-1.2-2
		c0.2-1.4,2.6-4.4,3.3-4.2C73,48.2,73.2,48.3,73.2,48.3z"/>
	<path fill="#F69321" d="M72.1,48.5c0,0-1.4,0.7-1.8,2.9c-0.4,2.2,0.1,2.7,1.1,1.8c1-0.9,1.9-2.9,1.9-2.9l0.2,0.6
		c0,0-0.8,1.4-1.5,2.5c-0.7,1.1-1.1,2.2-1,3.1c0.1,0.9,0.7,1,1,0.6c0.3-0.5,0.7-1.7,2-3.1c1.2-1.4,1.2-2,1.2-2l0.1,2
		c0,0-1.4,1.9-1.8,2.8c-0.4,0.9-0.1,1.3-0.1,1.3l-1.1-0.6c0,0-1.1,0.6-1.7-0.2c-0.6-0.8-0.3-2.7-0.3-2.7S69,54.1,69,53.1
		c0-0.9,0.8-3.5,1.9-4.2C71.9,48.2,72.1,48.5,72.1,48.5z"/>
	<path fill="#818181" d="M69.9,44.9c0,0-0.6,1.6-4.6,3.5c-4,1.9-5.5,3.5-5.5,3.5l1.1,1.5c0,0,3.3-2.7,6-4.2c2.7-1.5,3.3-2.4,3.3-2.4
		L69.9,44.9z"/>
	<path fill="#818181" d="M70.6,47.9c0,0-0.3,0.9-4,3c-3.7,2.1-5.3,3.2-5.3,3.2l0.6,1.6c0,0,4.2-2.5,5.6-3.5c1.4-1,2.3-1.8,2.3-1.8
		l1.2-1.7L70.6,47.9z"/>
	<path fill="#818181" d="M63.1,56c-0.9,0.6-1,0.5-1,0.5l0.5,1.5c0,0,0.6-0.5,2.3-1.4c1.7-0.9,2-1,2-1L66.5,54
		C66.5,54,64,55.4,63.1,56z"/>
	<path fill="#818181" d="M63.7,58.5c-0.9,0.6-1,0.5-1,0.5l0.2,1.8c0,0,0.9-0.7,2.5-1.6c1.7-0.9,1.8-0.9,1.8-0.9l-0.2-1.7
		C67.1,56.5,64.6,57.8,63.7,58.5z"/>
	<path fill="#818181" d="M63.1,61.8c0,0,1.2-0.7,3.7-2.2c2.5-1.5,3.8-2,3.8-2s0.6,0.4,1,0.3c0.3-0.1,0.5-0.2,0.5-0.2l0.5,0.5
		c0,0-5,2.9-6.5,3.7c-1.5,0.8-2.7,1.9-2.7,1.9S63,62.4,63.1,61.8z"/>
	<path fill="#F06724" d="M75.6,53.3c0.3-0.8,0.3-1.7,0-2.3c-0.2-0.6-1-1.4-1.6-1.2c0-0.5-0.2-1-0.5-1.3c-1-1.2-2.5-0.3-3.2,0.7
		c-0.9,1.2-1.9,3.3-1.4,4.8c0.2,0.6,0.6,0.8,1,0.8c-0.2,0.5-0.1,1.2,0,1.7c0.2,0.8,0.8,1.4,1.6,1.5c0.3,0,0.5,0,0.6-0.1
		c0.2,0.3,0.6,0.6,1,0.7c1.1,0.3,2-1.1,2.5-1.9C75.9,56.1,76.4,53.7,75.6,53.3z M75.3,55.9c-0.3,1-2.1,3-2.6,1.4
		c0-0.1,0.1-0.1,0.1-0.2c0.1-0.3,0.2-0.7,0.3-1c0.1-0.3,0.3-0.5,0.3-0.8c0-0.1,0-0.2-0.1-0.2c-0.7-0.1-0.9,1.3-1.2,2
		c0,0,0,0.1,0,0.1c0,0,0,0.1-0.1,0.1c-0.5,0.6-1.2-0.3-1.4-0.8c-0.2-0.6-0.2-1.2,0-1.8c0.6-0.2,1.2-0.8,1.4-1.4
		c0.1-0.2-0.2-0.3-0.3-0.2c-0.3,0.2-0.8,0.9-1.2,1.1c0,0,0,0,0,0c-0.2,0.1-0.4,0-0.6-0.2c-0.4-0.4-0.3-1.1-0.2-1.6
		c0.2-1,0.7-1.9,1.2-2.8c0.5-0.8,2-1.9,2.5-0.4c0.3,0.9-0.1,1.8-0.2,2.7c0,0.2,0.2,0.3,0.3,0.2c0.4-0.4,0.6-1,0.7-1.7
		c0.8,0,1.1,1,1.1,1.7c0,0.9-0.6,1.5-0.9,2.3c0,0.2,0.1,0.3,0.3,0.2c0.3-0.2,0.5-0.5,0.7-0.8C75.7,54.4,75.4,55.2,75.3,55.9z"/>
	<path fill="#F0E23C" d="M72.5,48.5c0,0,0.6,0.4,0.4,1.7c-0.2,1.3-1.4,3.1-1.9,3.3c-0.4,0.2-0.6,0-0.6,0s0.5,0.6,1.5-0.7
		c1-1.3,1.4-1.9,1.4-2.8S73.1,48.4,72.5,48.5z"/>
	<path fill="#F0E23C" d="M74.2,50.4c0,0,1.1,1.2,0.2,2.4c-0.9,1.2-1.9,1.9-2.2,2.9c-0.3,1-0.5,1.9-0.2,1.6c0.3-0.4,0.8-1.8,1.6-2.7
		c0.8-0.9,1.5-1.2,1.6-2.4C75.1,51,74.5,50.5,74.2,50.4z"/>
	<path fill="#F0E23C" d="M75.3,53.9c0,0,0.1,1.5-0.6,2.2c-0.6,0.8-1.6,1.8-1.1,1.6c0.5-0.2,1.7-1,2-2.3
		C75.7,54.2,75.3,53.9,75.3,53.9z"/>
	<g>
		<path fill="#414141" d="M70.3,61.8c-0.4-0.2-0.8-0.1-1.2,0c-0.4,0.1-0.8,0.3-1.2,0.5c-0.2,0.1-0.3,0.3-0.4,0.5
			c0.1-0.2,0.2-0.4,0.1-0.6c-0.1-0.3-0.3-0.3-0.5-0.2c-0.1-0.8-0.6-1.6-1.3-1.2c-0.2,0.1-0.4,0.3-0.5,0.4c-0.1-0.3-0.3-0.6-0.4-0.9
			c0,0-0.1,0-0.1,0c0.1,0.4,0.3,0.7,0.4,1c-0.2,0.6,0,1.5,0.3,2.1c0.1,0.2,0.3,0.5,0.5,0.3c0.2-0.1,0-0.6,0-0.7
			c-0.1-0.6-0.4-1.1-0.7-1.7c0-0.1,0.1-0.2,0.2-0.3c0.4-0.4,1-0.3,1.2,0.1c0.1,0.2,0.2,0.5,0.2,0.8c0,0,0,0,0,0
			c-0.2,0.2-0.3,0.4-0.3,0.6c0,0.1-0.1,0.4,0,0.5c0.3,0.3,0.4-0.5,0.4-0.6c0-0.1,0-0.3,0-0.4c0.1,0,0.1-0.1,0.2-0.1
			c0.3,0,0.1,0.5,0,0.6c-0.1,0.3-0.3,0.5-0.5,0.7c0,0.1,0,0.1,0.1,0.1c0,0,0.1,0,0.1-0.1c-0.1,0.2-0.2,0.5-0.3,0.7
			c-0.1,0.2-0.2,0.5-0.1,0.7c0,0.1,0.1,0.1,0.1,0c0.3-0.4,0.6-0.7,0.9-1.1c0.1-0.1,0.4-0.6,0.3-0.8c-0.1-0.1-0.3,0-0.4,0
			c0,0,0,0-0.1,0c0.1-0.2,0.3-0.4,0.5-0.6c0.3-0.3,0.7-0.5,1.2-0.6c0.3-0.1,0.8-0.1,1.1,0c0,0.1,0.1,0.1,0.1,0.1c0,0,0,0,0,0
			C70.4,61.9,70.4,61.9,70.3,61.8z M66.1,63.5c0,0.1,0,0.2,0,0.3c0,0.2-0.3-0.2-0.3-0.2c-0.1-0.2-0.2-0.4-0.3-0.7
			c-0.1-0.4-0.2-0.8-0.1-1.2C65.7,62.3,65.9,62.8,66.1,63.5z M67,63c0,0-0.1,0.4-0.2,0.2c0-0.1,0-0.3,0-0.4c0-0.1,0.1-0.3,0.2-0.4
			C67.1,62.6,67,62.8,67,63z M67.9,63.2c0.1,0.1-0.4,0.8-0.4,0.9c-0.2,0.3-0.4,0.5-0.6,0.8c0-0.4,0.2-0.8,0.4-1.1
			c0-0.1,0.1-0.2,0.1-0.3c0,0,0,0,0,0C67.5,63.3,67.7,63.1,67.9,63.2z"/>
		<path fill="#414141" d="M70,62.4c-0.1-0.1-0.2-0.1-0.3-0.1c-0.2,0-0.3,0-0.5,0.1c0,0,0,0.1,0,0.1c0.2-0.1,0.4-0.1,0.6,0
			C69.8,62.4,70,62.5,70,62.4C70,62.4,70,62.4,70,62.4z"/>
	</g>
</g>
</svg>
