<?xml version="1.0" encoding="utf-8"?>
<!-- Generator: Adobe Illustrator 18.0.0, SVG Export Plug-In . SVG Version: 6.00 Build 0)  -->
<!DOCTYPE svg PUBLIC "-//W3C//DTD SVG 1.1//EN" "http://www.w3.org/Graphics/SVG/1.1/DTD/svg11.dtd">
<svg version="1.1" id="Layer_1" xmlns="http://www.w3.org/2000/svg" xmlns:xlink="http://www.w3.org/1999/xlink" x="0px" y="0px"
	 viewBox="0 0 82 82" enable-background="new 0 0 82 82" xml:space="preserve">
<g>
	<radialGradient id="SVGID_1_" cx="43.4929" cy="37.7766" r="21.1309" gradientUnits="userSpaceOnUse">
		<stop  offset="0" style="stop-color:#F0E23C"/>
		<stop  offset="0.1155" style="stop-color:#F0DE3B"/>
		<stop  offset="0.2572" style="stop-color:#EED437"/>
		<stop  offset="0.4126" style="stop-color:#ECC332"/>
		<stop  offset="0.5777" style="stop-color:#E9AA2C"/>
		<stop  offset="0.7488" style="stop-color:#E68C26"/>
		<stop  offset="0.7925" style="stop-color:#E58425"/>
	</radialGradient>
	<path fill="url(#SVGID_1_)" d="M27.5,36c0,0-4,3.1-3.3,5.1c0.8,2,3.6,5.5,5.3,6.6c1.7,1.1,11.6,4.4,16.4,4c4.8-0.4,7,0.2,11.6-3.5
		c4.5-3.7,6.3-3.6,6.3-6.5c0-2.8-5-3.3-10-5.3c-5-2-10.9-2.1-16.1-1.8C32.4,34.8,27.5,36,27.5,36z"/>
	<path fill="#411411" d="M42,45.4c0,0,3.5-0.3,6.2,0.1c1.7,0.3,2.4,0.4,3,0.1c0.5-0.4,0.8,0.5,0.8,0.5s0.8-0.3,1.1-1.1
		c0.4-0.8,0.2-1.1,0.2-1.1l-1-0.6c0,0-0.1,2.2-1.7,1.9c-1.6-0.2-2.5-1-2.5-1s-0.4,0.5-1.4,0.6c-1,0.1-4.4-0.4-4.4-0.4s-1.3-1-3-1
		c-1.8-0.1-3.4,0.6-3.4,0.6s-1.6-0.9-2-0.9c-0.5-0.1-0.5-0.1-0.6-0.4c-0.1-0.3-0.2-1.1-0.2-1.1l0.1-0.9L33,40.6l-0.5-0.3
		c0,0-0.5,1-0.3,1.6c0.2,0.6,0.2,1.2,0.2,1.2l1.8,1.4l4.9,0.8L42,45.4z"/>
	<linearGradient id="SVGID_2_" gradientUnits="userSpaceOnUse" x1="32.9722" y1="43.153" x2="56.1448" y2="43.153">
		<stop  offset="0" style="stop-color:#726659"/>
		<stop  offset="0.3152" style="stop-color:#FFFFFF"/>
		<stop  offset="0.6909" style="stop-color:#D0D2D3"/>
		<stop  offset="1" style="stop-color:#754D29"/>
	</linearGradient>
	<path fill="url(#SVGID_2_)" d="M33.1,41.1c0,0-0.2,0.5-0.1,1.1c0.1,0.6,0.2,0.8,0.2,0.8s0.8,0,1.4,0.3C35.3,43.6,36,44,36,44
		s0.9-1,3.1-0.6c2.1,0.3,3,1,3,1s3.2,0.4,4.4,0.4c1.2,0,1.6-0.5,1.6-0.5s1.6,1,2.5,1c0.9,0,1,0,1,0s0.5-0.6,0.6-1.2
		c0.2-0.5,0.2-0.5,0.2-0.5s-2-1.6-2.7-1.6c-0.7,0-1.2,0.3-2.4-0.1c-1.2-0.4-2.8-1.2-4.1-0.6c-1.3,0.6-3.3,1.4-4,1.1
		c-0.7-0.3-1.2-0.9-1.7-0.8c-0.5,0.1-1.1,0.4-2,0.3C34.3,41.7,33.1,41.1,33.1,41.1z"/>
	<linearGradient id="SVGID_3_" gradientUnits="userSpaceOnUse" x1="13.0445" y1="29.7507" x2="29.5444" y2="29.7507">
		<stop  offset="0" style="stop-color:#F0E23C"/>
		<stop  offset="0.1155" style="stop-color:#F0DE3B"/>
		<stop  offset="0.2572" style="stop-color:#EED437"/>
		<stop  offset="0.4126" style="stop-color:#ECC332"/>
		<stop  offset="0.5777" style="stop-color:#E9AA2C"/>
		<stop  offset="0.7488" style="stop-color:#E68C26"/>
		<stop  offset="0.7925" style="stop-color:#E58425"/>
	</linearGradient>
	<path fill="url(#SVGID_3_)" d="M24.2,27.4c0,0-1.8-3.5-2.9-4.2c-1.2-0.7-1.8,0.1-2.6-0.1c-0.8-0.1-3.6-0.6-4.2,0
		c-0.6,0.6-0.6,1.5-0.3,3c0.4,1.5,0.6,2.1,0.6,2.1S13,27.9,13,30c0,2.1,1.4,4,1.4,4S13.5,35,14.2,36c0.6,1,1.1,0.9,2.1-0.2
		c1.1-1.2,1.1-1.6,1.1-1.6l1.2,0.9c0,0,0.6,1.8,2,1.3c1.4-0.5,2.3-2.3,2.3-3.5c0-1.2,0.5-2.7,0.5-2.7s0.8-0.4,0.9-1.3
		C24.4,28,24.2,27.4,24.2,27.4z"/>
	<radialGradient id="SVGID_4_" cx="45.25" cy="14.2191" r="10.0248" gradientUnits="userSpaceOnUse">
		<stop  offset="0" style="stop-color:#FFFFFF"/>
		<stop  offset="0.1055" style="stop-color:#FFFEF8"/>
		<stop  offset="0.2349" style="stop-color:#FDFBEC"/>
		<stop  offset="0.3769" style="stop-color:#FBF7D8"/>
		<stop  offset="0.5278" style="stop-color:#F8F2BD"/>
		<stop  offset="0.6859" style="stop-color:#F6EC9A"/>
		<stop  offset="0.8474" style="stop-color:#F3E66E"/>
		<stop  offset="0.9719" style="stop-color:#F0E23C"/>
	</radialGradient>
	<path fill="url(#SVGID_4_)" d="M61.2,20.8c0,0-3.7-5-13.4-5.6c-9.7-0.6-16.3,4.9-17,5.4c-0.7,0.6,13.1,8.6,21.5,6.6
		C60.8,25.2,61.2,20.8,61.2,20.8z"/>
	<path fill="#F69321" d="M36.2,16.8c0,0,0.6,3.3,4.1,1.9c3.4-1.3,2.7-3.8,2.7-3.8S42.2,14.7,41,15C39.8,15.3,36.2,16.8,36.2,16.8z"
		/>
	<path fill="#F69321" d="M44,14.9c0,0-1.1,4.4,4.1,4.4c5.2,0,5.4-2.9,4.9-3.4c-0.5-0.5-4.8-2-7-1.7C44,14.4,44,14.9,44,14.9z"/>
	<path fill="#F69321" d="M23.2,30.7c0,0-1.1,3.3-0.5,5.7c0.6,2.5,1.2,4.4,1.7,5c0.4,0.6-0.3,0.3,0.4-1c0.7-1.3,1.2-2,2.4-2.5
		c1.1-0.5,1.2-0.6,1.4-0.5c0.2,0.1,2,0.4,4.6,0.7s3.7-0.1,4.5,0c0.8,0.1,0.2,0.7,2.8,0.2c2.6-0.5,3.5-1.6,3.5-1.6l-0.1,1.3l1-0.6
		l1.8,1.3l-0.1-1.6c0,0,0.7,0.1,0.7-0.3c0-0.3,1.5,1.3,1.5,1.3l0.2-1.6c0,0,1.1,0.3,1.8,0.9c0.7,0.5,2.1,2.5,5,2.5
		c2.9,0.1,3.8-1.6,4.9-1.1c1.1,0.5,3.1,2.8,2.5,4.3c-0.6,1.5-3.6,1.1-3.6,1.1s-0.3,2.3-2.7,2.6c-2.5,0.3-2.9-0.2-2.9-0.2
		s1.3,3.1-2.2,4c-3.4,1-5.6-1.8-8.4-1.8c-2.8,0.1-4.8,1.4-5.2,1.4c-0.4,0-0.5-0.5-0.5-0.5l-0.2,1c0,0,4.2,1.9,9.9,1.5
		C53,52.1,61.5,48,64,43.4c2.5-4.6,1.9-7.7,1.8-8.3c-0.2-0.6-0.2-0.6-0.2-0.6s-3.1-11.6-4.2-13.2c-1.1-1.6-0.1-0.2-0.1-0.2
		S44.2,31.8,36,31.6c-8.3-0.2-12.3-2-12.3-2L23.2,30.7z"/>
	<path fill="#D97882" d="M23.6,26.2c0,0,0,0.1,0.1,0.1c0.2,0.4,0.8,1.8,0.6,2.6c-0.2,1-0.5,1.4-0.5,1.4s-1,3.1,3.7,5.1
		c4.7,2,9.7,2.1,12.4,1s5.3-4,7.1-3.1c1.8,0.9,4.8,3.8,7.1,4.4c2.3,0.5,7.6,0.6,10.1-2c2.5-2.6,3.2-5.1,1.9-9.1
		c-1.3-3.9-4.6-6.7-10-6c-5.4,0.8-6.1,5.5-10.3,4.1c-4.2-1.4-1.7-4-9.3-5.7c0,0-5.5-0.1-8.7,2.3C24.3,23.7,23.6,26.2,23.6,26.2z"/>
	<path fill="#F06724" d="M63.5,41.8c-0.3-2.1-2.9-4-5-3.1c-0.1,0,0,0.1,0.1,0.1c1.8-0.4,3.7,0.8,4.2,2.5c0.3,0.9-0.2,1.9-0.9,2.5
		c-0.7,0.5-1.5,0.5-2.3,0.4c-0.2,0-0.2,0.2-0.1,0.3C61.5,45.6,63.8,44,63.5,41.8z"/>
	<path fill="#F06724" d="M61.3,42.6c-1.1-0.8-1.8-1.4-2.7-0.2c-1.3,1.7-4.1,1.3-5.9,0.9c-1-0.3-1.8-0.8-2.6-1.4
		c-0.6-0.4-1.2-0.2-1.8-0.1c-1,0.1-2-0.7-3-1c-1-0.2-2,0-2.9,0.3c-0.9,0.3-1.7,0.8-2.6,1c-0.8,0.2-1.3-0.3-1.9-0.7
		c-0.1-0.1-0.2-0.2-0.4-0.2c-0.3,0-0.3,0-0.6,0.1c-0.7,0.4-1.3,0.3-2.1,0.1c-1.2-0.3-1.8-1.1-2.4-2.1c-1.7-2.4-4.3,1-2.3,2.2
		c0.1,0.1,0.2-0.1,0.1-0.1c-0.8-1,0.4-3,1.5-1.9c0.5,0.5,0.8,1,1.4,1.5c0.9,0.8,2.4,1.1,3.5,0.9c0.2,0,0.4-0.2,0.5-0.3
		c0.4-0.3,0.9,0.4,1.1,0.6c0.4,0.3,0.8,0.4,1.3,0.3c2-0.3,3.5-1.5,5.6-1.2c1.5,0.3,2.5,1.5,4,0.8c0.8-0.3,1.8,0.8,2.5,1.1
		c0.5,0.2,1.1,0.4,1.6,0.5c0.1,2.4-2.7,3.2-4.6,2.8c-1.3-0.2-2.6-0.7-4-0.9c-2.2-0.4-4.9-0.5-6.7,1.1c-0.2,0.2,0.1,0.5,0.3,0.4
		c2.8-1.9,6.4-0.8,9.4-0.1c1.6,0.4,3.1,0.5,4.5-0.5c0.9-0.6,1.5-1.7,1.3-2.8c0,0,0.1,0,0.1,0c1.4,0.3,2.8,0.2,4.2-0.2
		c0.5-0.2,0.9-0.5,1.3-0.9c0.7-0.8,1.3,0,1.9,0.4C61.3,43.6,61.7,42.9,61.3,42.6z"/>
	<path fill="#F06724" d="M30.8,43.4c-2,1-4.7,0.9-5.5-1.6c-0.9-2.6,1.7-3.4,3.2-4.7c0,0,0-0.1,0-0.1c-2.5,0-5,2.5-3.7,5.3
		c1,2.3,4.5,3.5,6.2,1.3C31.1,43.5,30.9,43.4,30.8,43.4z"/>
	<path fill="#F06724" d="M54,46.8C53.9,46.7,53.9,46.7,54,46.8c0.8,2-1.2,3.6-3,3.8c-1.5,0.1-3.1-0.3-4.5-0.8
		c-1.6-0.5-3.1-1-4.7-0.9c-1.3,0.1-2.8,0.8-4,1.4c-0.3,0.1-0.1,0.5,0.2,0.4c0.9-0.2,1.8-0.6,2.6-1c1.4-0.5,2.7-0.3,4.1,0
		c1.8,0.5,3.4,1.1,5.2,1.2c1.3,0.1,2.8-0.1,3.7-1.2C54.3,48.9,54.5,47.7,54,46.8z"/>
	<path fill="#F06724" d="M65.4,34C65.4,34,65.3,34,65.4,34c1.1,2.8-0.2,6.8-1.7,9.2c-1.7,2.6-4.4,4.8-7.1,6.3
		c-2.8,1.5-6.1,2.2-9.2,2.5c-3.3,0.4-6.5,0.1-9.6-1.1c-0.2-0.1-0.3,0.2-0.1,0.3c3.3,1.4,6.7,1.4,10.2,1.1c3.4-0.4,6.7-1.3,9.7-2.9
		c2.9-1.6,5.6-4.2,7.1-7.1c0.7-1.4,1.1-3,1.3-4.5C66.2,36.5,66.2,35.1,65.4,34z"/>
	<path fill="#F06724" d="M29.7,47.4c-1.2-1-2.5-1.9-3.5-3.2c-1.1-1.3-1.9-2.9-2.5-4.5c-1.2-3.1-1.3-6.3-0.4-9.5
		c0-0.1-0.1-0.1-0.1-0.1c-1.5,2.8-0.9,6.5,0.1,9.3c1.1,3.3,3.3,6.3,6.3,8.2C29.7,47.7,29.8,47.5,29.7,47.4z"/>
	<path fill="#F06724" d="M61.3,21c-3.3-4.4-9.4-6.5-14.7-6.7c-6.2-0.2-12.4,2.3-16.4,7c-0.1,0.1,0.1,0.3,0.2,0.2
		c2.4-2.2,4.9-4.1,7.9-5.3c2.5-1,5.3-1.5,8-1.4c2.7,0,5.4,0.6,7.9,1.6c2.7,1.1,4.9,2.8,7.1,4.7C61.2,21.2,61.3,21.1,61.3,21z"/>
	<path fill="#F06724" d="M32.6,40.1C32.6,40,32.5,40,32.6,40.1C32,41,32,42.4,32.4,43.4c0,0.1,0.1,0,0.1,0
		C32.4,42.2,32.2,41.2,32.6,40.1z"/>
	<path fill="#B7606B" d="M66.2,33.6c-1.1-2.7-3.7-5.7-6.8-6.1c0,0,0,0-0.1,0c0,0,0,0-0.1,0c-0.1,0-0.1,0-0.2,0
		c-0.1,0-0.2,0.2-0.1,0.2c0.1,0.1,0.2,0.1,0.3,0.1c0.2,1.4-0.7,3.1-1.2,4.3c-0.9,2-2.1,4.2-4.3,5.1c-0.3,0.1-0.2,0.6,0.1,0.5
		c2.4-0.8,3.7-3.3,4.7-5.5c0.2-0.6,1.4-3,1.1-4.1c1.2,0.6,2.2,1.1,3.2,2c1.2,1.1,2,2.4,2.7,3.8C65.9,34.1,66.4,33.9,66.2,33.6z"/>
	<path fill="#B7606B" d="M39.8,36.4c-0.8-0.4-1.6-0.8-2.3-1.4c-0.8-0.8-1.5-1.8-2-2.8c-1-2.1-1.4-4.5-0.2-6.6
		c0.1-0.1-0.1-0.2-0.2-0.1c0,0,0,0-0.1,0.1c-3.7-0.6-8.4,2.9-9.8,6.2c-0.1,0.3,0.3,0.4,0.5,0.2c2-3.5,5.1-6,9.2-6.3
		c-1.4,1.6-0.8,4.4-0.1,6.1c0.8,1.8,2.5,4.8,4.7,4.9C39.9,36.7,39.9,36.4,39.8,36.4z"/>
	<path fill="#B7606B" d="M62.5,21.6c-3.1-2.3-7.7-1.5-10.8,0.4c-1.7,1-3.1,3.2-5.3,2.8c-2-0.4-3.4-2.7-5-3.9c-2.4-1.8-7.4-3-10-0.8
		c-0.2,0.1,0,0.3,0.2,0.3c1.9-0.9,3.9-0.9,5.9-0.5c1.9,0.4,3.4,1.3,4.8,2.6c1.1,1,2.2,2.1,3.6,2.7c1.4,0.6,2.9-0.3,3.9-1.1
		c1.5-1.1,2.7-2,4.5-2.6c1.9-0.6,4.1-0.8,6-0.2c4.1,1.2,6.2,6.3,6.1,10.2c0,0.1,0.1,0.1,0.2,0C67.3,27.5,65.6,23.8,62.5,21.6z"/>
	<g>
		<path fill="#B7606B" d="M67.3,28.9C67.4,28.9,67.5,28.8,67.3,28.9c-0.4-0.8,0.5-1.6,1-2c0.3-0.2,0.6-0.4,1-0.4
			c0.3,0,0.7,0.1,0.7,0.5c-0.1,0.6-0.7,1.1-1.1,1.5c-0.3,0.3-0.7,0.7-1,1.1c-0.1,0.1,0.1,0.2,0.1,0.1c0.6-0.5,3.4-2.5,2.1-3.4
			c-0.8-0.6-1.8-0.1-2.4,0.5C67.2,27.3,66.5,28.3,67.3,28.9z"/>
		<path fill="#B7606B" d="M68.8,30.9c-0.3-0.2-0.6-0.4-0.8-0.7c-0.1-0.1-0.2,0-0.2,0.1c0.1,0.5,1.8,1.9,2.1,0.9
			c0.3-1.1-1.3-1.8-2.1-1.3c0,0,0,0,0,0c0-0.3-0.2-0.6-0.5-0.7c-0.1,0-0.1,0-0.2,0c-0.2,0.2-0.2,0.5-0.2,0.8c0,0.1,0.2,0.3,0.3,0.3
			c0.1,0,0.2,0,0.3,0c0,0,0,0,0,0c0,0,0,0,0,0c0.4-0.3,0.8-0.2,1.2,0c0.3,0.1,0.9,0.5,0.7,0.9C69.5,31.3,68.9,30.9,68.8,30.9z"/>
		<path fill="#B7606B" d="M73.2,35.8C73.2,35.8,73.3,35.8,73.2,35.8c0-1.4,1.4-0.6,1.7-0.3c1,0.8,0,1.9-0.8,2.2
			c-1.4,0.5-2.3-0.8-2.9-1.9c-0.9-1.8-1.7-3.6-3.1-5.1c-0.1-0.1-0.1,0-0.1,0.1c0.1,0.1,0.2,0.2,0.2,0.3c-0.2-0.2-0.4-0.4-0.6-0.5
			c-0.1,0-0.1,0-0.1,0.1c0.8,0.7,1.1,1.9,1.2,2.9c0.1,0.6,0,1.3-0.7,1.6c-0.2,0.1-0.4,0.1-0.5,0.3c-0.4,0.9,0,1.8-0.6,2.7
			c-0.5,0.8-1.3,1.4-1.6,2.3c-1.3,3.3,3.4,6.3,6.2,5c2-1,3-5.8-0.3-5.2c-1,0.2-2.2,0.9-1.9,2.1c0.3,1,1.4,1.7,2.2,0.7
			c0-0.1-0.1-0.1-0.1-0.1c-1.2,0.5-1.8,0.2-1.9-0.9c-0.1-0.6,0.4-1,0.9-1.3c0.6-0.4,1.4-0.4,2.1-0.1c1.7,0.8,0.4,3.3-0.4,4.2
			c-1.4,1.4-3.5,0.7-4.8-0.3c-1.7-1.3-2.2-3.5-0.8-5.2c0.5-0.6,1.2-1.2,1.3-2c0.1-0.8-0.1-1.7,0.8-2c0.2-0.1,0.4-0.3,0.5-0.5
			c0.4-1,0.1-2.5-0.6-3.6c0.7,0.9,1.3,1.9,1.8,3c0.5,0.9,0.8,1.8,1.3,2.7c0.8,1.2,2.3,1.5,3.4,0.6C77.3,35.9,72.9,33.7,73.2,35.8z"
			/>
	</g>
	<path fill="#B7606B" d="M66.7,30.8C66.7,30.8,66.6,30.8,66.7,30.8c-0.7,5.4-7.1,7.6-11.8,6.6c-2.4-0.5-4.2-1.7-6.1-3.2
		c-1.2-0.9-2.6-1.7-4.1-1.1c-0.8,0.3-1.5,1.1-2.2,1.6c-1,0.7-2.1,1.2-3.3,1.5c-2.2,0.7-4.7,0.7-6.9,0.4c-1.9-0.3-3.9-0.9-5.6-1.8
		c-2.1-1.1-2.9-2.7-2.5-5c0-0.2-0.3-0.4-0.4-0.2c-1.8,3.9,2.7,6.1,5.7,7c4.6,1.3,10,1.1,13.9-1.9c1.3-1,2.3-1.6,3.8-0.7
		c0.9,0.5,1.7,1.3,2.5,2c2,1.6,4.9,2.3,7.4,2.4c2.4,0.1,4.9-0.8,6.8-2.3C65.6,34.8,67.1,33,66.7,30.8z"/>
	<path fill="#B7606B" d="M39.8,20.2c-5.6-2.8-14.3-0.5-16.2,5.9c-0.1,0.3,0.4,0.5,0.5,0.1c1.9-6.2,10.1-8.1,15.6-6
		C39.8,20.4,39.8,20.3,39.8,20.2z"/>
	<path fill="#B7606B" d="M52.7,35.3c-2.4-0.9-4.5-2.8-5.4-5.2c-0.5-1.3-0.5-3.5,0.7-4.4c0.1-0.1,0.3-0.2,0.1-0.2
		c-1.8,0.6-1.8,3.3-1.5,4.8c0.5,2.5,3.5,5.1,6.1,5.1C52.7,35.4,52.7,35.3,52.7,35.3z"/>
	<path fill="#B7606B" d="M44.9,26.6c-0.6-1.6-1.7-3.4-3.3-4.1c-0.1,0-0.2,0.1-0.1,0.2c1.4,0.9,2.3,2.5,2.7,4.1c0.3,1,0.4,2,0.2,3.1
		c-0.2,1.1-0.7,2-1.1,2.9c0,0.1,0,0.1,0.1,0.1C45.4,31.3,45.7,28.9,44.9,26.6z"/>
	<path fill="#B7606B" d="M67,24.7c-0.2-0.3-0.5-0.4-0.8-0.4c0.4-0.7,0.5-1.6-0.1-2.3c-0.4-0.5-1.1-0.5-1.7-0.3
		c0.2-0.6,0.2-1.2-0.4-1.6c-0.6-0.5-1.3-0.2-1.8,0.3c-0.1-0.7-0.3-1.4-1-1.4c-0.6,0-1.1,0.2-1.5,0.6c-0.2-0.6-0.5-1-1.2-1
		c-0.7,0-1.4,0.4-1.8,1c-0.7-1.3-2.8-0.7-3.1,0.7c-1.1-1-2.5,0.1-2.6,1.5c-0.5-0.4-1.1-0.6-1.8-0.4c-0.8,0.2-1,1-1,1.8
		c-0.2-0.1-0.4-0.2-0.6-0.1c-0.4,0.2-0.7,0.4-0.9,0.8c-0.2-0.5-0.5-1-0.9-1.1c-0.2,0-0.4,0-0.6,0c0-0.9-0.1-1.9-1-2.1
		c-0.4-0.1-0.8,0-1.1,0.3c-0.1-1-0.3-2.3-1.3-2.6c-0.7-0.2-1.4,0.1-1.8,0.6c-0.1-0.7-0.4-1.4-1-1.6c-0.9-0.2-1.4,0.1-1.7,0.7
		c-0.5-0.9-1.4-1.6-2.5-1.4c-0.7,0.1-1,0.7-1,1.3c-0.7-0.6-1.6-0.8-2.5-0.5c-0.6,0.2-0.7,0.7-0.6,1.2c-0.7-0.3-1.4-0.3-2,0.1
		c-0.4,0.3-0.5,0.7-0.4,1.2c-0.7-0.2-1.6-0.2-2.1,0.4c-0.4,0.4-0.5,0.9-0.4,1.2c-0.4,0-0.8,0.1-1.1,0.4c-0.4,0.5,0,1.1,0.5,1.3
		c0.3,0.1,0.5-0.3,0.2-0.4c0.1-0.3,0.2-0.5,0.3-0.8c0.2,0,0.4,0,0.6,0.1c0.3,0.1,0.4-0.3,0.2-0.4c-0.2-0.9,0-1.3,0.8-1.3
		c0.5-0.1,1,0.1,1.4,0.4c0.3,0.2,0.5-0.3,0.3-0.5c0-1.2,0.3-1.6,1.2-1.3c0.4,0.1,0.8,0.3,1.1,0.6c0.3,0.2,0.6-0.2,0.4-0.4
		c-1-0.8-0.4-1.7,0.8-1.4c0.7,0.1,1.3,0.7,1.7,1.3c0.2,0.3,0.6,0,0.4-0.3c-0.7-0.9-0.1-2.3,1.2-1.6c0.6,0.3,1,1,1.3,1.6
		c0.1,0.3,0.5,0.2,0.5-0.1c0-0.1,0-0.2,0-0.3c1-0.7,1.6-0.6,1.8,0.2c0.1,0.3,0.1,0.7,0.1,1c0,0.3,0.4,0.3,0.5,0.1
		c0.3-1.4,1.9-1.3,2.3,0c0.2,0.6,0.2,1.4,0.2,2c0,0.3,0.5,0.4,0.5,0.1c0.1-0.2,0.2-0.4,0.2-0.7c0.9,0.1,1.4,0.5,1.3,1.2
		c0,0.3,0,0.6,0,1c0,0.3,0.4,0.4,0.5,0.1c0.7-0.2,1.1,0,1.2,0.7c0.1,0.2,0.1,0.5,0.1,0.7c0,0.3,0.5,0.2,0.5-0.1c0-0.4,0-0.7,0.2-1.1
		c0.6-1.3,1.2,0.2,1.3,0.5c0.1,0.3,0.6,0.1,0.5-0.2c-0.1-0.4-0.2-0.7-0.2-1.1c0-1.5,1.9-1.7,2.4-0.4c0.1,0.3,0.6,0.2,0.5-0.1
		c-0.3-1.4,1.1-3.4,2.1-1.4c0.1,0.3,0.5,0.1,0.5-0.2c-0.4-1.6,2.2-2.5,2.3-0.6c0,0.3,0.5,0.3,0.5,0c0.1-0.8,0.8-1.1,1.4-1.2
		c0.9-0.2,1,0.8,1,1.3c0,0.3,0.5,0.3,0.5,0c0.1-0.8,1.4-1.3,1.8-0.3c0.1,0.3,0.1,0.7,0.1,1.1c0,0.3,0.4,0.4,0.5,0.1
		c0.3-0.9,1.8-1.1,1.7,0.2c-0.1,0.2-0.2,0.5-0.3,0.7c-0.1,0.3,0.2,0.5,0.4,0.3c0.8-0.6,2.2-0.4,1.8,1.1c-0.1,0.4-0.4,0.8-0.6,1.1
		c-0.2,0.2,0.2,0.5,0.4,0.4c1-0.1,1.4,0.3,1.1,1.1c-0.1,0.3-0.3,0.7-0.4,1c-0.1,0.3,0.4,0.5,0.5,0.1C67.3,26.6,67.7,25.6,67,24.7z"
		/>
	<path fill="#9F1D20" d="M42.2,45.6l-1.3,0.1c0,0-2-0.7-2.7,1.3c-0.8,1.9-1.1,4.6-1.4,5.4c-0.2,0.8-1.7,2.4-4,1.8
		c-2.3-0.6-3-3.6-3.2-5.8c-0.2-2.3,2-5,3.3-5.1c1.4-0.1,2.5,0.3,2.7,0.6c0.2,0.2,0.2,0.2,0.2,0.2s1.6-0.9,3.3-0.8
		c1.7,0.1,2.6,1.2,2.8,1.6C42.2,45.1,42.2,45.6,42.2,45.6z"/>
	<path fill="#771213" d="M38,43.2c-0.8,0.1-1.4,0.3-1.9,0.7c-1.6-1.5-4.2-1.1-5.5,0.8c-1.5,2.2-1.4,5.2-0.2,7.6
		c1.2,2.3,4,3.1,5.9,1.3c0.9-0.8,1.2-2.1,1.4-3.3c0.1-1,0.2-2,0.6-2.9c0.5-1.2,1-1.4,2.2-1.4c0.1,0,0.5,0,0.4-0.1
		c-1.3-1.2-2.7,0.2-3.2,1.5c-0.9,2.4,0,6.4-3.7,6.7c-3.1,0.3-4.2-3.9-4-6.2c0.2-3,3.1-5.8,5.9-3.8c-1.3,1.1-1.9,2.9-1.8,4.8
		c0,0,0.1,0,0.1,0c0-1.9,0.7-3.6,2.2-4.6c0,0,0,0,0,0c0.4-0.2,0.8-0.4,1.3-0.6c1.7-0.5,4.4,0,4.6,2c0,0.1,0.1,0,0.1,0
		C43.1,43.5,39.3,43,38,43.2z"/>
	<path fill="#E5A6AC" d="M32.9,19.6c0,0-3.6,0.6-5.9,2.6c-2.3,2-3.2,4.1-2.6,4c0.5,0,1.1-0.7,0.8,0c-0.3,0.7,0.6,0.7,1,0.3
		c0.4-0.3,0.2,0.6,0.7,0.7c0.5,0.1,0.9,0.4,2-0.2c1.1-0.6,3.3-1.6,4.2-1.8c0.9-0.1,1.6-0.2,2.5-0.1c0.9,0.1,1.1,0,0.8-0.2
		c-0.3-0.2,0.5,0,2.1-0.7c1.5-0.7,1.7-2,1.4-2.3c-0.3-0.2,0.9-0.2,1.3,0c0.4,0.2,0.5-0.2-0.9-1C38.8,20.2,37,19.1,32.9,19.6z"/>
	<path fill="#FFFFFF" d="M35.9,25.1c0,0-2.2-0.3-4.2,0.5c-1.9,0.8-2.4,1.3-2.5,1.1c-0.1-0.2,1.5-1.7,3.3-2
		C34.4,24.4,36.3,25.1,35.9,25.1z"/>
	<path fill="#FFFFFF" d="M40.1,20.9c0,0-2.4-2.1-7.3-1.3c-4.9,0.8-7.6,3.8-8.2,5.2c-0.6,1.4-0.5,1.5-0.5,1.5s1.1-2.1,1.9-2.9
		c0.9-0.8,1.5-1.2,1.3-1c-0.3,0.2-1.2,1.3-0.7,1.2c0.5-0.1,1.3-0.5,1.3-0.5s2.7-0.2,4.9-0.7c2.2-0.5,4.2-1.2,3.8-1.6
		c-0.4-0.4,1.7-0.1,2.1-0.1c0.4,0-0.1-0.3-0.1-0.3S39.6,20.6,40.1,20.9z"/>
	<path fill="#FFFFFF" d="M30.2,23.5c0,0,3.6-0.1,4.5-0.9c0.3-0.2-0.8-1.1-3.6-0.1C29.9,23,29.5,23.5,30.2,23.5z"/>
	<path fill="#E5A6AC" d="M66.2,28.3c0,0-0.9-6.9-7-7.5c-6.1-0.7-8.1,3.3-11.7,4.2c0,0-0.8,0.6-2.8-0.8c-2-1.4-2.8-2.2-2.8-2.2
		s3,3,3.7,3.8c0.7,0.8,0.7,2,0.7,2s-0.8-0.2-0.5,0.6c0.4,0.8,0.6,2,0.1,1.4c-0.5-0.6-0.7-0.2-0.1,1.1c0.6,1.3-0.1,0.7-0.5,0.6
		c-0.4-0.1-1,0.4-0.1,0.7c0.8,0.4-0.2,0-1.3,0.9c-1,0.9-3.2,2.6-3.2,2.6s2.3-1.1,4-2.5c1.7-1.4,3,0.5,3.8,1.2
		c0.8,0.7,3.7,2.3,4.5,2.5c0.8,0.2,0.8,0.2,0.8,0.2s2.7-0.7,4.2-4.4c1.5-3.7,1.4-4.9,1.4-4.9s-1.7,5-3.1,6.6
		c-1.4,1.6-5.6-0.1-7.7-3.6c-2.1-3.5-0.4-5.1-0.4-5.1s-1.5,1.2-1.1,3.6c0.5,2.3,1.4,3.8,4.9,5.8c0,0,0.7,0.6-1.1-0.1
		c-1.8-0.7-3.8-2.3-4.3-4.6C46,28,46.5,26.2,48,25.5c1.6-0.8,3,1.4,4.8,1c1.7-0.4,0.8,1.1,1.7,1.2c0.8,0.1,2.7-0.4,2.7-0.4
		s0.3,0.8,1.3,0.4c1-0.4,2.7,0.1,3.5,0.5c0.8,0.4,0.4-1.1,0-1.4c-0.4-0.4,1.8-0.7,1.4-2.2c-0.4-1.4-0.2-1.2-0.2-1.2
		S65.2,25.3,66.2,28.3z"/>
	<path fill="#FFFFFF" d="M42.8,22.7c0,0,2.6,2.3,3.7,2.4c1.1,0.1,2.8-0.7,4.8-2.3c2-1.6,5.9-2.6,8-2.1c2.1,0.5,2.9,1.1,2.9,1.1
		s-2.3-0.7-3-0.7c-0.6,0,0.1,0.4-0.1,0.7c-0.1,0.3-0.2,1.4-0.6,1.7c-0.4,0.3,0.4,0.9,0.1,1.1c-0.3,0.2-3,1.2-3.4,0.6
		c-0.4-0.6-1.6-0.1-3.1-0.1c-1.5,0-2.1-0.9-2.1-0.9s-1.9,1-2.4,2c-0.6,1-0.6,1-0.6,1s0.6-1.6,1-1.9c0.4-0.3-0.9,0.9-1.9,0.2
		C45,24.9,42.8,22.7,42.8,22.7z"/>
	<path fill="#FFFFFF" d="M57.8,27.2c0,0,1.9-0.2,2.9,0c1,0.2,1.6,0.1,1.2-0.4c-0.4-0.5-2.9-0.3-3.5-0.1
		C57.8,26.8,57.6,27.2,57.8,27.2z"/>
	<path fill="#E5A6AC" d="M41.5,22.7c0,0,3.7,2.2,3.1,6.1c-0.6,3.8-1.3,4.1-1.3,4.1s0.9-4.1,0.5-6.2C43.5,24.4,41.5,22.7,41.5,22.7z"
		/>
	<path fill="#E5A6AC" d="M35.1,25.6c0,0-1.5,1.3-0.6,4.7c0.9,3.4,2.9,5.3,3.4,5.6c0.5,0.3,0.5,0.3,0.5,0.3s-3.5-0.6-4.2-5.6
		c0,0-0.6-2.3-0.3-3.3c0.3-1,0.6-1.4,0.6-1.4s-2.3,0.1-5.2,2.3c-3,2.2-3.4,3.6-3.4,3.6S28.5,25.9,35.1,25.6z"/>
	<path fill="#E5A6AC" d="M59.8,28c0,0-0.1,1.3-0.6,2.9c-0.6,1.6-0.6,1.6-0.6,1.6s1.1-1.1,1.3-2.4c0.3-1.3,0.3-1.3,0.3-1.3
		s1.3,0.1,2.4,1c1.1,0.9,1.1,0.9,1.1,0.9S62.1,28.8,59.8,28z"/>
	<path fill="#C9717C" d="M33.7,26.5c0,0-3.4,1-4.7,2.3c-1.3,1.3-1.5,1.3-0.9,1c0.6-0.3,2.2-1.5,2.5-1.5c0.3,0-0.3,1.1,0.4,1
		c0.7-0.1,0.5,1.2,1.2,1.6c0.7,0.4,2,2.6,2.1,2.1c0.2-0.6-0.9-2.6-0.8-4.4C33.6,26.7,33.7,26.5,33.7,26.5z"/>
	<path fill="#C9717C" d="M24,26.2c0,0,0.7,1.2,0.5,2.4c-0.2,1.2-0.6,1-0.4,2.5c0.2,1.5,0.3,2.9,4.3,4.5c3.9,1.6,8.5,1.3,9.4,1.1
		c0.9-0.2,0.9-0.2,0.9-0.2s-1.4-0.2-2.4-1.1c-1.1-0.9-1.1-1.1-1.1-1.1s0.3,0.8,0.9,1.3c0.5,0.5-2.6,0.7-5.3,0.1
		c-2.7-0.7-5-1.8-4.6-2.7c0.4-0.9-0.1-1.1-0.5-0.3c-0.4,0.8-0.5-0.5,0.2-1.7c0.7-1.2,0.2-0.9-0.2-0.8c-0.4,0.1-0.1-0.6-0.5-2.1
		C24.7,26.3,24,26.2,24,26.2z"/>
	<path fill="#C9717C" d="M44.7,28.2c0,0-0.2,2.1-0.5,3.2c-0.3,1.1-0.6,1.4-0.3,1.1c0.3-0.3,1.1-0.5,0.8-0.3c-0.3,0.2-2.1,2-2.9,2.5
		c-0.8,0.5-2.3,1.4-2.3,1.4s-2.1,0.2-3.9-3.8c-1.8-4-0.8-5.8-0.5-6.2c0.2-0.5,0.5-0.5,0.1-0.6c-0.4-0.1-0.6-0.1-0.6-0.1
		s0.5-0.2,1.3,0c0.7,0.2,0.4,0.1,0.1,0.2c-0.3,0-1.2,1.2-1.1,3c0.1,1.8,1.1,4.2,2.3,5.3c1.1,1.1,3.7,1.1,5-0.1
		C43.5,32.6,44.6,30.4,44.7,28.2z"/>
	<path fill="#C9717C" d="M60.2,28.8c0,0-0.9,2.2-1.7,3.8c-0.8,1.6-1.8,3-2.5,3.7c-0.7,0.7-1.1,1-1.1,1s1.5,0.7,4.1,0.1
		c2.6-0.6,3.1-1,3.1-1s-1.7,0.4-2.7,0.5c-1,0.1-2-0.5-2-0.5s2.8-0.6,3.8-1.9c1-1.4,0.8-1.2,0.4-1.4c-0.4-0.2,0.8-1.2,0.9-2
		c0.2-0.8,0-1.3-0.8-1.8C60.9,29,60.3,28.7,60.2,28.8z"/>
	<path fill="#C9717C" d="M59.4,27.4c0,0,2.4,0.5,3.9,2.1c1.5,1.6,2.5,3.3,2.5,3.3s-0.9-2.2-1.6-3.2c-0.8-1,0.1-0.8-0.2-1.3
		c-0.2-0.6-0.6-1-0.6-1s0.4,0.4,0.6-0.8c0.2-1.1-0.3-2.2-0.6-2.7c-0.3-0.4-0.3-0.6-0.3-0.4c0,0.2,0.4,1.6-0.1,2
		c-0.6,0.4-1.4,1.1-1.1,1.3c0.3,0.1,0.6,1.4,0.2,1.3c-0.4-0.1-0.9-0.3-1.6-0.4C60,27.4,59.4,27.4,59.4,27.4z"/>
	<path fill="#B7606B" d="M62.3,26.7c0,0,0.6,0.3,1,0.7c0.4,0.4,0-0.1,0-0.3c-0.1-0.1,0.7-0.4,0.2-0.6C63,26.2,62.2,26.4,62.3,26.7z"
		/>
	<path fill="#B7606B" d="M62.6,28.3c0,0,1.1,1,1.1,0.7C63.7,28.8,62.3,27.7,62.6,28.3z"/>
	<path fill="#B7606B" d="M31.4,27.4c0,0,1.4-0.7,1.8-0.7c0.4,0,0.1,0.6,0.1,1.1c0,0.5,0.1,0.8,0.1,0.8s-0.3-0.7-0.3-1
		c0-0.4-0.3-0.3-0.6-0.2C32.1,27.4,31.4,27.4,31.4,27.4z"/>
	<g>
		<g>
			<path fill="#D97882" d="M45.6,32.6c0,0-0.5-0.4-1.3-0.5c-0.8-0.1-1.6,0.1-1.5,0.6c0.1,0.6,0.6,2.1,1,1.8c0.4-0.3,1.6-1.2,1.6-1.2
				s0.4,0,0.3,0.2c-0.1,0.2-0.3,0.6-0.5,1.4c-0.2,0.8-0.2,1.5-0.2,1.5l0.6-1.1c0,0,0.4,0.6,0.7,0.8c0.3,0.2,0.5,0.1,0.5,0.1
				l-0.2-1.9l0.6,1c0,0,1.1-0.9,1-1.3c0-0.4-1.2-1.1-1.2-1.1L47,32.8c0,0,1.2,0.3,1.4-0.2c0.2-0.5-0.1-1.6-0.4-1.8
				c-0.3-0.2-1.4,0.1-1.8,0.8C45.8,32.3,45.6,32.6,45.6,32.6z"/>
			<path fill="#B7606B" d="M48.1,30.7C48.1,30.7,48.2,30.7,48.1,30.7c0.1,0,0.1-0.2,0-0.2c-1.1-0.3-2.2,0.9-2.6,1.9c0,0,0,0,0,0
				c-0.5-0.2-1-0.4-1.7-0.4c-0.5,0-1.2,0.3-1.3,0.9c0,0.1,0.1,0.2,0.1,0.2c0,0.3,0.1,0.6,0.2,0.9c0.1,0.2,0.2,0.5,0.4,0.7
				c0,0.1,0,0.3,0.2,0.3c0,0,0.1,0,0.1,0c0,0,0.1,0.1,0.1,0.1c0.2,0.1,0.4-0.1,0.4-0.2c0.2-0.1,0.3-0.2,0.5-0.3
				c0.3-0.3,0.7-0.6,0.8-1c0,0,0,0,0,0c-0.6,0.9-0.6,2.2-0.7,3.2c0,0.2,0.3,0.2,0.4,0.1c0,0,0,0,0,0c0.2-0.3,0.4-0.5,0.6-0.8
				c0.3,0.3,0.7,0.6,1.1,0.6c0.1,0,0.1-0.1,0.1-0.1c0-0.4-0.1-0.9-0.1-1.4c0.1,0.2,0.2,0.4,0.3,0.6c0,0.1,0.2,0.1,0.3,0
				c0.1,0,0.1,0,0.2-0.1c0.4-0.6,1.4-1.1,0.7-1.9c-0.1-0.1-0.5-0.5-0.9-0.7c0.3,0,0.6,0,1-0.1c0.1,0,0.2-0.1,0.3-0.3
				C48.8,32.1,48.7,31.1,48.1,30.7z M45.3,32.6c-0.1,0.1-0.1,0.2-0.1,0.3c0,0,0,0,0,0c-0.4,0-1,0.4-1.1,0.8c0,0.1,0.1,0.1,0.1,0.1
				c0.2,0,0.3-0.1,0.4-0.2c0.2-0.2,0.4-0.3,0.6-0.4c0,0,0,0,0,0c0,0,0,0,0,0.1c0,0,0,0,0,0c-0.3,0.1-0.5,0.4-0.8,0.7
				c-0.2,0.2-0.4,0.4-0.7,0.5c-0.2-0.2-0.4-0.5-0.5-0.8c-0.1-0.2-0.1-0.5-0.2-0.8c0.1-0.1,0.2-0.2,0.3-0.3c0.2-0.1,0.4-0.1,0.7-0.1
				c-0.1,0.1-0.3,0.2-0.3,0.3c0,0,0,0.1,0.1,0.1c0.2,0,0.4-0.1,0.5-0.2c0.2-0.1,0.4-0.2,0.7-0.2C45.2,32.6,45.3,32.6,45.3,32.6
				C45.3,32.6,45.3,32.6,45.3,32.6z M45.7,32.8c0.1,0.1,0.3,0.2,0.5,0.2c0,0.1,0,0.1,0,0.2c-0.1,0.1-0.4,0-0.4-0.1
				C45.7,33,45.6,32.9,45.7,32.8z M46,35.6c0-0.1-0.2-0.2-0.3-0.1c-0.1,0.1-0.3,0.2-0.4,0.4c0-0.3,0.1-0.7,0.1-1
				c0.1-0.4,0.2-0.8,0.3-1.3c0.1,0,0.3,0,0.4,0c0.1,0.2,0.1,0.3,0.2,0.5c0.1,0.7,0.3,1.4,0.4,2.2C46.5,36.1,46.2,35.9,46,35.6z
				 M48,34c0.3,0.3,0.2,0.5-0.1,0.7c-0.2,0.2-0.4,0.4-0.5,0.6C47.2,35,47,34.8,47,34.5c-0.1-0.3-0.3-0.7-0.5-1c0,0,0.1,0,0.1,0
				c0.1-0.1,0.2-0.2,0.2-0.3C47.2,33.2,47.6,33.6,48,34z M48.2,32.4c-0.6,0.1-1.1,0.1-1.7,0c0,0,0,0-0.1,0c0.4-0.1,0.8-0.4,0.9-0.4
				c0.1,0,0.2-0.1,0.1-0.2c-0.2-0.1-0.4-0.1-0.5-0.1c0,0,0,0,0.1,0c0.1,0,0-0.1,0-0.1c-0.2,0.1-0.4,0.1-0.6,0.2
				c0.1-0.2,0.2-0.3,0.3-0.4c0.3-0.3,0.6-0.5,1-0.6c0,0,0,0,0,0C48.2,31,48.3,31.9,48.2,32.4z"/>
			<path fill="#E5A6AC" d="M44.2,32.5c0,0-0.6-0.4-1.1,0c-0.2,0.2-0.3,0.4-0.1,0.4c0.1,0,0.1,0.1,0.2,0.5c0.1,0.4,0.3,0.9,0.4,1
				c0.1,0.1,0,0.2,0.2,0.2c0.2,0,0.2,0,0.5-0.3c0.4-0.3,0.7-0.8,0.7-0.8s-0.8,0.8-0.9,0.3c-0.1-0.4,0.6-0.9,0.5-1
				c-0.2-0.1-0.5,0.3-0.7,0.2C43.6,33,43.8,32.5,44.2,32.5z"/>
			<path fill="#E5A6AC" d="M45.7,32.7c0,0-0.1,0.5,0,0.6c0.1,0.1,0.6,0,0.7-0.2c0.1-0.2,0-0.3-0.1-0.3c-0.1,0-0.1,0-0.1,0.1
				c0,0.1-0.2,0.2-0.3,0.1C45.8,33,45.7,32.7,45.7,32.7z"/>
			<path fill="#E5A6AC" d="M47.7,30.8c0,0-0.8-0.1-1.3,0.6c-0.6,0.7-0.4,0.9-0.2,0.7c0.2-0.2,0.1-0.1,0.5-0.5
				c0.4-0.4,0.7-0.3,0.6-0.1c-0.1,0.1-0.2,0.2,0.2,0.2c0.4,0,0.5,0.3,0.3,0.5c-0.3,0.2-0.9,0.3-1,0.3c-0.1,0,1,0.3,1.4,0.1
				c0.4-0.1,0.2-0.3,0.2-0.3s0.2-0.3,0.1-0.8c-0.1-0.5-0.5-0.8-0.5-0.8S48,30.7,47.7,30.8z"/>
			<path fill="#E5A6AC" d="M46.2,33.7c0,0,0.4,1.3,0.5,2c0.2,0.7,0.2,0.8,0,0.7c-0.2-0.1-0.8-0.5-0.9-0.6c-0.1-0.1-0.2-0.1-0.4,0.2
				c-0.2,0.3-0.3,0.5-0.3,0.5s-0.3-0.6,0-1.6c0.3-1,0.7-1.2,0.7-1.2s-0.2,0-0.2,0.7c0,0.6,0,0.8,0,0.8s-0.3,0.5-0.1,0.3
				c0.2-0.1,0.3-0.1,0.4,0.1c0.1,0.1,0.4,0.3,0.3-0.2C46.3,34.8,46.2,33.7,46.2,33.7z"/>
			<path fill="#E5A6AC" d="M46.4,33.5c0,0,0.5,1,0.7,1.5c0.2,0.5,0.2,0.5,0.2,0.5s0.3-0.6,0.4-0.7c0.1-0.1,0.5-0.3,0.6-0.5
				c0.1-0.2,0.1-0.1,0.1-0.1s-0.4-0.4-0.8-0.7c-0.4-0.3-0.7-0.3-0.6-0.3c0,0,0.7,0.6,0.7,0.9c0.1,0.2-0.3,0.1-0.3,0.1
				s0.2,0.2,0.1,0.2c-0.2,0-0.4-0.5-0.4-0.4c0,0.1,0,0.1-0.2-0.1C46.7,33.7,46.4,33.5,46.4,33.5z"/>
			<path fill="#FFFFFF" d="M44.2,32.5c0,0-0.5-0.4-1-0.1c-0.5,0.3-0.4,0.5-0.2,0.6c0.2,0.1,0,0.1,0.1,0.6c0.2,0.5,0.4,0.9,0.4,0.9
				s0.1,0.3,0.2,0.3c0.2,0,0.4-0.1,0.4-0.2c0-0.1,0.5-0.6,0.5-0.6s-0.6,0.6-0.8,0.4c-0.2-0.1,0.1-0.6,0.1-0.6s-0.3,0-0.2-0.2
				c0.1-0.3,0.2-0.3-0.1-0.2c-0.2,0-0.4-0.3-0.3-0.5c0-0.2-0.2-0.2-0.1-0.3C43.4,32.4,44.1,32.4,44.2,32.5z"/>
			<path fill="#FFFFFF" d="M45.9,32.6c0,0-0.3,0.1-0.2,0.4c0.1,0.4,0.2,0.4,0.4,0.3c0.2,0,0.3-0.2,0.3-0.2s-0.3,0.4-0.6,0.3
				c-0.3-0.1-0.4-0.5-0.2-0.7C45.7,32.4,45.9,32.6,45.9,32.6z"/>
			<path fill="#FFFFFF" d="M46.1,32c0,0,0.6-0.8,1.1-0.9c0.5-0.2,0.6,0,0.6,0s0.1-0.2,0.2,0c0.1,0.1,0.4,0.5,0.4,0.8
				c0,0.4-0.4,0.5-0.4,0.5s0.2,0.1-0.1,0.2c-0.3,0.1-0.9-0.1-0.9-0.1s0.9,0.4,1.3,0.2c0.5-0.2,0.2-0.4,0.2-0.4s0.2-0.3,0.1-0.7
				c0-0.4-0.5-0.8-0.5-0.8s0.1-0.2-0.2-0.3c-0.3,0-0.9,0.2-1.3,0.6C46.2,31.6,46.1,32,46.1,32z"/>
			<path fill="#FFFFFF" d="M45.7,33.7c0,0-0.5,0.7-0.5,1.4c-0.1,0.7,0.1,1,0.1,1s0.4-0.6,0.6-0.5c0.2,0.1,0.3,0.2,0.3,0.2
				s0.4-0.1,0.6,0.1c0.2,0.2-0.1-0.4-0.1-0.7c-0.1-0.4-0.2-1.1-0.2-1.1s0.4,1.2,0.5,1.7c0.1,0.5,0.2,0.7,0.1,0.7c0,0-0.2,0-0.2,0
				l-1-0.7l-0.8,0.9c0,0-0.1-0.8,0-1.6C45.3,34.2,45.7,33.6,45.7,33.7z"/>
			<path fill="#FFFFFF" d="M46.4,33.5c0,0,0.6,0.6,0.7,1c0.2,0.4,0.1,0,0.2,0.1c0.1,0.1,0.3,0.3,0.4,0c0.1-0.3,0.3-0.2,0.3-0.2
				s-0.1-0.3-0.3-0.5c-0.2-0.2-0.7-0.5-0.7-0.5s0.5,0.1,0.9,0.5c0.4,0.4,0.6,0.6,0.6,0.6s-0.2,0-0.3,0.1c-0.1,0.2-0.3,0.3-0.4,0.3
				c-0.1,0-0.2,0.1-0.2,0.1l-0.4,0.7C47.4,35.6,46.2,33.4,46.4,33.5z"/>
		</g>
		<path fill="#734049" d="M46,32.5c0,0,0.3,0,0.4,0.2c0.1,0.3,0,0.4,0.1,0.3c0.1-0.1,0.2,0.1,0.2,0.1s0.6,0,0.5,0
			c-0.1-0.1-0.4-0.1-0.1-0.1c0.3,0,1.2,0,1.3-0.1c0.1-0.1-0.7,0.1-1,0c-0.3-0.1-0.6-0.1-0.7-0.2c-0.1,0,0.2-0.2,0.1-0.2
			c-0.1,0-0.4,0-0.4,0s0-0.1,0.2-0.2c0.2-0.2,0.5-0.4,0.1-0.3c-0.4,0.2-0.5,0.3-0.5,0.3s-0.2-0.1-0.2,0C46,32.4,46,32.5,46,32.5z"/>
		<path fill="#734049" d="M45.5,32.5c0,0-0.6-0.2-0.9-0.1c-0.3,0.2,0,0-0.3-0.1c-0.3-0.1-0.5-0.2-0.8-0.2c-0.4,0,0.2-0.2,1.1,0
			C45.4,32.4,45.8,32.6,45.5,32.5z"/>
		<path fill="#734049" d="M45.4,33c0,0-0.3,0.1-0.5,0.2c-0.2,0.1,0.2,0,0.4,0c0.2-0.1,0.2,0.1,0,0.3c-0.1,0.2-0.4,0.3-0.5,0.5
			c-0.1,0.2-0.5,0.6-0.2,0.4c0.4-0.2,0.8-0.8,0.9-0.9c0.1-0.2,0-0.1,0-0.3c0-0.2,0-0.4,0-0.4C45.5,32.6,45.3,32.8,45.4,33z"/>
		<path fill="#734049" d="M45.6,33.5c0,0-0.2,0.3-0.2,0.4c0,0.1,0.1-0.1,0.3-0.2c0.2-0.1,0.1-0.1,0.1,0.1c0,0.2,0.1,0.1,0.1,0
			c0.1-0.2,0.2-0.1,0.2-0.1c0,0.1,0-0.1,0.1,0c0.1,0.1,0.4,0.6,0.5,1.2c0.2,0.6,0.2,0.8,0.2,0.8l-0.1-0.6c0,0-0.5-1.1-0.6-1.3
			c-0.1-0.2-0.1-0.4,0-0.3c0.1,0.1,0.4,0.3,0.3,0.1c-0.1-0.2-0.2-0.3-0.1-0.3c0.2,0,0.2,0,0.1-0.1c-0.1-0.1-0.2-0.1-0.2-0.1
			s-0.1,0.4-0.4,0.4c-0.4,0.1-0.5-0.1-0.5-0.1L45.6,33.5z"/>
	</g>
	<path fill="#B7606B" d="M38,19.1c-0.1,0.3,0.2,0.7,0.5,0.6c0.2,0,0.3-0.1,0.4-0.3c0,0,0,0,0,0C39.3,18.9,38.2,18.4,38,19.1z"/>
	<path fill="#B7606B" d="M35.8,18.3c-0.2-0.2-0.6-0.3-0.8-0.2c-0.4,0.2-0.3,0.7,0,0.9c0.1,0.2,0.3,0.3,0.5,0.2
		C36,19.2,36.1,18.6,35.8,18.3z"/>
	<path fill="#B7606B" d="M32.8,18.8c-0.1-0.3-0.5-0.5-0.9-0.3c-0.1,0.1-0.2,0.2-0.2,0.4c0,0.1,0.1,0.1,0.1,0.2
		c0.1,0.2,0.2,0.4,0.5,0.5C32.9,19.6,33,19.2,32.8,18.8z"/>
	<path fill="#B7606B" d="M29.7,19.3c-0.4,0.1-0.5,0.6-0.3,0.9c0.1,0.1,0.2,0.2,0.3,0.2c0.3,0.1,0.6,0,0.6-0.4
		C30.4,19.6,30.1,19.2,29.7,19.3z"/>
	<path fill="#B7606B" d="M27.4,20.8c-0.4-0.2-0.8,0-0.8,0.4c0,0.2,0.2,0.4,0.4,0.4c0.1,0.1,0.3,0.1,0.4,0.1
		C27.7,21.5,27.8,21,27.4,20.8z"/>
	<path fill="#B7606B" d="M41.5,19.9c-0.1-0.1-0.3-0.2-0.4-0.2c-0.3,0-0.5,0.3-0.5,0.6c0,0.2,0.2,0.5,0.4,0.5c0.3,0.1,0.6,0,0.7-0.3
		C41.8,20.3,41.7,20.1,41.5,19.9z"/>
	<path fill="#B7606B" d="M43.9,22.1c-0.1,0-0.1-0.1-0.2-0.1c-0.4-0.1-0.7,0.5-0.5,0.8c0.1,0.3,0.6,0.5,0.9,0.3
		C44.4,22.8,44.3,22.2,43.9,22.1z"/>
	<path fill="#B7606B" d="M45.8,24c0,0-0.1-0.1-0.2-0.1c0,0-0.1-0.1-0.1-0.1c-0.1-0.1-0.2,0-0.3,0c-0.2,0.1-0.3,0.4-0.1,0.5
		c0,0,0,0,0,0c0.1,0.1,0.2,0.2,0.3,0.2C45.8,24.6,46.1,24.3,45.8,24z"/>
	<path fill="#B7606B" d="M47.2,24C47.1,24,47,24.1,47,24.2c-0.1,0.2-0.1,0.4,0,0.5c0.2,0.3,0.7,0.2,0.8-0.1
		C48,24.2,47.6,23.7,47.2,24z"/>
	<path fill="#B7606B" d="M49.6,22.5c0,0-0.1,0-0.1,0.1c0,0-0.1,0-0.1,0.1c-0.1,0.2-0.1,0.3-0.1,0.6c0,0.2,0.2,0.4,0.5,0.4
		c0.2,0,0.3-0.1,0.5-0.3C50.4,22.9,50,22.4,49.6,22.5z"/>
	<path fill="#B7606B" d="M52.5,20.8c-0.2-0.1-0.4,0.1-0.4,0.2c-0.2,0.2-0.2,0.5,0.1,0.7c0.3,0.1,0.6,0,0.7-0.2
		C53,21.2,52.8,20.9,52.5,20.8z"/>
	<path fill="#B7606B" d="M55.6,20.1c-0.1-0.2-0.3-0.4-0.5-0.4c-0.2,0-0.3,0.1-0.3,0.3c-0.1,0.1-0.1,0.3-0.1,0.4
		c0.1,0.4,0.8,0.5,0.9,0.1c0-0.1,0-0.1,0.1-0.2C55.6,20.3,55.6,20.2,55.6,20.1z"/>
	<path fill="#B7606B" d="M58.3,19.3c-0.4-0.2-0.7,0.3-0.6,0.6c0,0.3,0.3,0.7,0.7,0.5C58.8,20.1,58.8,19.5,58.3,19.3z"/>
	<path fill="#B7606B" d="M61.4,20.2c-0.1-0.2-0.4-0.4-0.6-0.3c-0.2,0-0.4,0.2-0.4,0.4c0,0.2,0.1,0.4,0.3,0.5c0.2,0.1,0.5,0.1,0.7,0
		C61.4,20.7,61.5,20.4,61.4,20.2z"/>
	<path fill="#B7606B" d="M63.6,21.4c-0.2-0.3-0.5-0.4-0.8-0.2c0,0,0,0,0,0c-0.4,0.2-0.2,0.9,0.2,1C63.4,22.3,63.8,21.8,63.6,21.4z"
		/>
	<path fill="#B7606B" d="M65.5,23.2c0-0.2-0.2-0.4-0.4-0.5c-0.2-0.1-0.4,0-0.5,0.1c-0.2,0.2-0.1,0.5,0,0.7c0.1,0.2,0.4,0.2,0.6,0.1
		c0,0,0,0,0,0C65.4,23.6,65.5,23.4,65.5,23.2z"/>
	<path fill="#B7606B" d="M66.4,25.5c-0.2,0-0.4,0-0.5,0.3c-0.1,0.2,0,0.4,0.1,0.5c0,0,0,0,0.1,0.1c0.1,0.1,0.2,0.1,0.2,0.1
		c0,0,0,0,0,0c0.1,0,0.2-0.1,0.3-0.2C66.8,26,66.7,25.6,66.4,25.5z"/>
	<g>
		<path fill="#231F20" d="M52.7,13.8c0,0-0.1-0.1-0.1-0.1c-1.5-2-3.8-3.6-6.3-4.1c-2.3-0.4-2.5,2.3-2,3.9c0.6,2.3,3,3.7,5.3,3.4
			C51,16.8,53.4,15.7,52.7,13.8z M49.6,16.3c-2,0.4-3.8-1-4.5-2.9c-0.3-0.7-0.3-1.6-0.1-2.3c0.2-1.4,1.6-0.8,2.5-0.6
			c1.9,0.6,3.7,2,4.8,3.6c0.1,0.1,0.1,0.1,0.2,0.1C52.3,15.6,50.7,16,49.6,16.3z"/>
		<path fill="#231F20" d="M42.2,11.5c-1-1.6-3.7,0.2-4.8,0.9c-1.5,0.9-3.3,2.2-1.5,3.8c1.8,1.5,4.5,0.6,5.8-1.1
			C42.4,14.3,43.5,12.1,42.2,11.5z M41.3,14.6c-1.1,1.3-3,2-4.5,1.1c-2-1.2,0.5-2.4,1.6-3c1.1-0.7,2.4-1.5,3.7-0.8
			c0.1,0,0.2,0,0.2,0C42.7,12.7,41.9,13.8,41.3,14.6z"/>
		<path fill="#010101" d="M41.9,11.4c0,0-1.7-0.4-4.2,1.1c-2.5,1.6-2.5,2-1.1,3.2c1.4,1.2,3.2,1,4.4-0.3c1.3-1.3,1.5-2.6,1.5-3
			C42.5,12.1,42.4,11.7,41.9,11.4z"/>
		<path fill="#010101" d="M46.3,9.7c0,0-2.9,0.2-1.7,3.3c1.1,3,3.5,4.4,5.5,3.7c2-0.7,3.4-2.1,2.5-2.9c-0.9-0.9-5.3-3.6-5.3-3.6
			L46.3,9.7z"/>
		<path fill="#231F20" d="M44.8,10.2c0,0-0.3,2.2,2.9,3.8c3.3,1.6,5.8,1.3,4.6-0.5c-1.2-1.8-4.2-3.1-5.4-3.6
			C45.8,9.5,44.9,10,44.8,10.2z"/>
		<path fill="#231F20" d="M41.5,11.1c0,0,0.4,1.2-1,2.5c-1.4,1.3-4.8,1.5-5,0.9c-0.3-0.6,2.4-2.3,3.6-3C40.4,11,41.5,10.7,41.5,11.1
			z"/>
		<path fill="#2B2728" d="M45.6,10c0,0-1.2,1.8,1.4,3c2.6,1.2,3.7,0,1.8-1.6C47,9.8,46.2,10,45.6,10z"/>
		<path fill="#2B2728" d="M40.4,11.2c0,0-2,1-1.5,1.9c0.6,0.9,3.1-1.6,2.3-2C40.5,10.8,40.4,11.2,40.4,11.2z"/>
	</g>
	<linearGradient id="SVGID_5_" gradientUnits="userSpaceOnUse" x1="39.8723" y1="45.9504" x2="54.2098" y2="45.9504">
		<stop  offset="0" style="stop-color:#726659"/>
		<stop  offset="0.3152" style="stop-color:#FFFFFF"/>
		<stop  offset="0.6909" style="stop-color:#D0D2D3"/>
		<stop  offset="1" style="stop-color:#754D29"/>
	</linearGradient>
	<path fill="url(#SVGID_5_)" d="M39.9,46c0,0,1.7-0.9,4.7-0.9c3,0.1,4.5,0.5,5.6,0.5c1.1,0,1.2-0.5,1.4-0.2c0.3,0.2,0.3,0.7,0.3,0.7
		s-0.5,1-3,0.6c-2.5-0.4-5-1-6.2-1C41.5,45.7,39.9,46,39.9,46z"/>
	<path fill="#F0E23C" d="M29.8,41.5c0,0-0.8-1-0.1-1.9c0.7-0.9,1.8-1.2,2.7,0.1c0.9,1.3,2.1,2.3,3.4,2c1.3-0.2,1.5-0.6,2.1-0.1
		c0.6,0.5,0.7,1.2,3,0.1c2.3-1,4.3-1,5-0.5c0.7,0.5,1.6,0.8,2.6,0.7c0.9-0.1,1.3-0.1,1.7,0.2c0.4,0.4,2.2,1.4,4.2,1.6
		c2.1,0.1,3.5-0.4,4.2-1.3c0.6-0.9,1-0.7,1.8-0.3c0.8,0.5,1,0.6,1,0.6S61,42.1,60,41.5c-1-0.6-1.5-0.7-1.4-0.4
		c0.1,0.3-0.3,1.8-2.2,2.2c-1.9,0.4-4-0.1-5.3-1.1c-1.3-1-2.1-1.1-2.7-0.9c-0.6,0.2-1.7-0.2-2.3-0.6c-0.6-0.4-3.3-0.4-4.2,0.2
		c-0.9,0.6-2.6,1.1-3.2,0.6c-0.6-0.5-0.7-1-1.8-0.6c-1.1,0.4-2.2,0.5-2.9-0.2c-0.7-0.7-1.6-1.8-1.9-2.1c-0.3-0.3-0.6-0.3-1.2-0.1
		c-0.6,0.2-1.6,0.9-1.7,1.9C29.1,41.3,29.8,41.5,29.8,41.5z"/>
	<path fill="#F0E23C" d="M28.5,37.1c0,0-2.6,0.2-3.3,2.5c-0.5,1.7,0.3,3.8,2.2,4.3c1.9,0.5,3.3-0.4,3.3-0.4s-2.6,0.8-3.9-0.4
		c-1.3-1.2-0.7-2.6-0.7-2.6s2.9-0.6,3.4-1.9C29.9,37.3,29.2,37.1,28.5,37.1z"/>
	<path fill="#F0E23C" d="M58.5,38.8c0,0,2.6-0.3,3.9,1.5c1.4,1.8,0.3,4.1-1.3,4.2c-1.6,0.1-1.6-0.1-1.6-0.1s2.3,0.2,2.7-0.9
		c0.5-1.1,0.2-2.3,0.2-2.3s-1.6,0.2-3-0.7C58,39.5,58.1,39.1,58.5,38.8z"/>
	<path fill="#F0E23C" d="M44.2,47.1c0,0,2.7,2.9,6.3,2.1c3.6-0.8,2.3-2.1,2.3-2.1s0.7-1,0.8-1.9c0.2-1-0.1-1.3-0.1-1.3
		s0.2,2.9-3.1,3.4c-3.1,0.4-3.2-0.8-8-1.1c0,0-2.9,0.1-3.5,0.8c-0.6,0.7,0,2.2,1.8,1.3C42.5,47.4,42.8,46.6,44.2,47.1z"/>
	<path fill="#F0E23C" d="M37.8,50.4c0,0,3.1-1.9,5.6-1.3c2.5,0.6,5.5,1.5,7.2,1.6c1.7,0.1,3.4-1.1,3.5-2.3c0.2-1.2-0.2-1.6-0.2-1.6
		s0.6,2.5-1.6,3.2c-2.2,0.7-6.3-1-8.6-1.3C41.5,48.3,38.3,49.5,37.8,50.4z"/>
	<ellipse fill="#FFFFFF" cx="48.1" cy="48.3" rx="1.7" ry="0.7"/>
	<ellipse fill="#FFFFFF" cx="41.8" cy="46.9" rx="0.9" ry="0.4"/>
	<ellipse fill="#FFFFFF" cx="59.9" cy="39.5" rx="1.1" ry="0.5"/>
	<ellipse fill="#FFFFFF" cx="28.2" cy="38.5" rx="1.1" ry="0.7"/>
	<path fill="#F69321" d="M32.3,40.3c0,0-0.3,0.6-0.2,1.5c0.1,0.9,0.2,1.2,0.2,1.2s-1.6-0.7-1.2-1.8C31.5,40.2,32.3,40.3,32.3,40.3z"
		/>
	<path fill="#D32027" d="M40.9,44.6c0,0-3.5-1.2-4,2.1c-0.5,3.3-0.6,6.3-2.7,6.8c-2.1,0.5-4.1-2.4-3.8-5.6c0.4-3.2,2.2-4.2,3.2-4.3
		c1-0.1,1.2,0.6,1,0.8c-0.2,0.3-1.4,0.8-1.3,2.9c0.1,2.1,1,2.8,1.3,2c0.4-0.7,0-3.6,2.1-4.9C38.7,43.2,40,43.9,40.9,44.6z"/>
	<path fill="#EB2227" d="M42,45.2c0,0-1-2.3-4.5-1.4c-3.5,0.9-3.4,5-3.4,5s-0.3-3.1,2.2-4.6C38.8,42.8,41.3,43.5,42,45.2z"/>
	<path fill="#EB2227" d="M35.7,44.1c0,0-1.7-1.3-3.6,0c-1.9,1.3-2.3,4.1-2,5.9c0.4,1.8,1.2,3.7,3.1,4c1.9,0.3,3.1-1,3.4-2.3
		c0.3-1.4,0.4-4.1,1-5c0.6-0.9,1.6-1.1,1.6-1.1s-1.2,0.6-1.6,2c-0.4,1.4-0.5,3.6-0.9,4.6c-0.4,1-1.1,2-3,2c-1.9,0-3-1.4-3.6-3.6
		c-0.6-2.2-0.2-4.2,0.7-5.5C31.9,43.5,34.3,42.5,35.7,44.1z"/>
	<path fill="#EB2227" d="M35.4,48.4c-0.4,0-0.4,0.6,0,0.6C35.8,49,35.8,48.4,35.4,48.4z"/>
	<path fill="#EB2227" d="M35.6,49.4L35.6,49.4c0,0.4,0.5,0.4,0.5,0v0C36.1,49,35.6,49,35.6,49.4z"/>
	<path fill="#EB2227" d="M35.6,50c0.1-0.2,0-0.5-0.2-0.5c-0.3,0-0.4,0.4-0.1,0.5c0,0,0,0.1,0,0.1c-0.1,0-0.1,0-0.1,0.1c0,0,0,0,0,0
		c-0.1,0.2,0.2,0.5,0.4,0.3c0,0,0,0,0,0c0.1-0.1,0.1-0.2,0.1-0.2c0,0,0,0,0,0l0,0C35.7,50.3,35.7,50.1,35.6,50z"/>
	<path fill="#EB2227" d="M34.6,50.2c-0.2,0-0.4,0.2-0.2,0.4c0,0,0,0,0,0c0.1,0.2,0.3,0.2,0.4,0c0,0,0,0,0,0
		C35,50.4,34.8,50.2,34.6,50.2z"/>
	<path fill="#EB2227" d="M34.8,51C34.8,51,34.8,51,34.8,51c0.1,0.2,0.4,0.2,0.4,0v0C35.1,50.7,34.7,50.7,34.8,51z"/>
	<path fill="#EB2227" d="M33.6,52c0,0.1,0,0.1,0,0.1c0,0,0.1,0,0.1,0c0,0,0,0,0,0C34,52,33.7,51.7,33.6,52z"/>
	<path fill="#EB2227" d="M33.7,52.2C33.6,52.2,33.6,52.2,33.7,52.2c-0.3-0.2-0.7,0-0.5,0.3l0,0.1C33.5,52.9,34,52.5,33.7,52.2z"/>
	<path fill="#EB2227" d="M31.5,48.2C31.5,48.2,31.5,48.2,31.5,48.2c-0.1-0.3-0.4-0.3-0.5,0c0,0,0,0,0,0
		C30.9,48.7,31.6,48.7,31.5,48.2z"/>
	<path fill="#EB2227" d="M31.7,46.4C31.7,46.4,31.7,46.4,31.7,46.4c-0.5,0-0.4,0.6,0,0.6c0,0,0,0,0,0C32.1,46.9,32,46.3,31.7,46.4z"
		/>
	<path fill="#EB2227" d="M32.5,47.1L32.5,47.1c-0.1-0.3-0.4-0.3-0.6,0l0,0C31.7,47.6,32.7,47.6,32.5,47.1z"/>
	<path fill="#EB2227" d="M32,47.5c-0.4,0-0.4,0.6,0,0.6C32.4,48.1,32.4,47.5,32,47.5z"/>
	<path fill="#EB2227" d="M31.2,47.2C31.1,47.2,31.1,47.2,31.2,47.2c-0.4-0.1-0.5,0.5-0.1,0.5c0,0,0,0,0,0
		C31.4,47.6,31.4,47.3,31.2,47.2z"/>
	<path fill="#EB2227" d="M31.2,45.7C31.1,45.7,31.1,45.7,31.2,45.7c-0.4,0.2,0.1,0.7,0.3,0.4l0-0.1C31.6,45.8,31.3,45.6,31.2,45.7z"
		/>
	<path fill="#EB2227" d="M32.1,44.7c-0.3,0-0.3,0.4,0,0.4C32.4,45.1,32.4,44.7,32.1,44.7z"/>
	<path fill="#EB2227" d="M30.7,49.5c-0.1,0.2,0.3,0.4,0.3,0.1C31.1,49.4,30.8,49.3,30.7,49.5z"/>
	<path fill="#EB2227" d="M31.6,49.6c-0.3,0-0.3,0.5,0,0.5C31.9,50.1,31.9,49.6,31.6,49.6z"/>
	<path fill="#EB2227" d="M31.3,49L31.3,49c0,0.3,0.5,0.3,0.5,0l0,0C31.8,48.7,31.3,48.7,31.3,49z"/>
	<path fill="#EB2227" d="M30.7,48.7C30.7,48.7,30.7,48.7,30.7,48.7c-0.2-0.1-0.4,0.1-0.3,0.3c0,0,0,0,0,0
		C30.6,49.4,31.2,48.9,30.7,48.7z"/>
	<path fill="#EB2227" d="M30.5,48.1c0-0.2-0.4-0.2-0.4,0c0,0,0,0,0,0C30,48.5,30.6,48.5,30.5,48.1C30.5,48.1,30.5,48.1,30.5,48.1z"
		/>
	<path fill="#EB2227" d="M30.8,50.3C30.8,50.3,30.8,50.3,30.8,50.3c-0.3,0-0.3,0.5,0,0.4c0,0,0,0,0,0C31.1,50.7,31.1,50.3,30.8,50.3
		z"/>
	<path fill="#F0535F" d="M35.9,49.8c-0.2-0.1-0.3,0.2-0.2,0.3c0,0,0,0,0.1,0c0.1,0.1,0.2,0,0.2-0.1C36,49.9,35.9,49.9,35.9,49.8z"/>
	<path fill="#F0535F" d="M35.5,51C35.5,51,35.5,51,35.5,51c0.1,0.2,0.3,0.2,0.4,0c0,0,0,0,0,0C36,50.6,35.4,50.6,35.5,51z"/>
	<path fill="#F0535F" d="M35.8,51.2C35.8,51.2,35.8,51.2,35.8,51.2c-0.1,0.2,0,0.3,0.2,0.2c0,0,0,0,0,0C36.1,51.2,35.9,51,35.8,51.2
		z"/>
	<path fill="#F0535F" d="M35.3,51.5c-0.1,0-0.1,0.2,0,0.2C35.4,51.7,35.4,51.5,35.3,51.5z"/>
	<path fill="#F0535F" d="M35,50.4c-0.1,0-0.1,0.2,0,0.2C35.1,50.6,35.1,50.4,35,50.4z"/>
	<path fill="#F0535F" d="M35.6,50.3c-0.2,0-0.2,0.3,0,0.3C35.8,50.6,35.8,50.3,35.6,50.3z"/>
	<path fill="#F0535F" d="M36.3,47.8c-0.3,0-0.3,0.5,0,0.5C36.6,48.2,36.6,47.8,36.3,47.8z"/>
	<path fill="#F0535F" d="M36.3,48.4c-0.1,0-0.1,0-0.2,0c-0.1,0-0.1,0.1,0,0.2c0.1,0.1,0.1,0.1,0.2,0C36.5,48.6,36.5,48.4,36.3,48.4z
		"/>
	<path fill="#F0535F" d="M35.7,48.5c0-0.1-0.2-0.1-0.2,0c0,0,0,0,0,0C35.5,48.6,35.7,48.6,35.7,48.5C35.7,48.5,35.7,48.5,35.7,48.5z
		"/>
	<path fill="#F0535F" d="M36.2,46.7c-0.2,0-0.2,0.4,0,0.4C36.4,47.1,36.4,46.7,36.2,46.7z"/>
	<path fill="#F0535F" d="M36.7,46c-0.3,0-0.3,0.4,0,0.4C37,46.4,37,46,36.7,46z"/>
	<path fill="#F0535F" d="M33,52.8C33,52.8,33,52.8,33,52.8c-0.1,0-0.1,0.2,0,0.2c0,0,0,0,0,0C33.2,53,33.2,52.8,33,52.8z"/>
	<path fill="#F0535F" d="M31.3,46.9L31.3,46.9c0,0.2,0.2,0.2,0.2,0v0C31.5,46.7,31.3,46.7,31.3,46.9z"/>
	<path fill="#F0535F" d="M31.4,47.3C31.4,47.4,31.3,47.4,31.4,47.3c-0.1,0-0.1,0.2,0,0.3c0,0,0,0,0,0C31.6,47.7,31.6,47.3,31.4,47.3
		z"/>
	<path fill="#F0535F" d="M30.8,47.2C30.8,47.2,30.8,47.2,30.8,47.2c-0.1,0-0.1,0.1,0,0.2c0,0,0,0,0,0C31,47.4,31,47.1,30.8,47.2z"/>
	<path fill="#F0535F" d="M30.8,48.1C30.8,48.1,30.8,48.2,30.8,48.1C30.9,48.2,30.9,48.1,30.8,48.1z"/>
	<path fill="#FFFFFF" d="M38.7,44.4c-0.2,0-0.3,0-0.5,0.1c-0.2,0.1-0.3,0.2-0.5,0.3c-0.1,0-0.2,0.1-0.3,0.2c-0.4,0.3-0.7,1-0.6,1.5
		c0,0.1,0.1,0.2,0.3,0.2c0.2,0,0.4-0.3,0.5-0.5c0.1-0.3,0.1-0.6,0.3-0.9c0.2-0.3,0.5-0.5,0.9-0.6C38.8,44.6,38.8,44.4,38.7,44.4z"/>
	<path fill="#FFFFFF" d="M35.8,50.9c-0.1,0.2-0.2,0.5-0.3,0.7c-0.1,0.2-0.1,0.4,0,0.6c0,0,0,0,0.1,0C36,52,36,51.3,36,50.9
		C36,50.8,35.8,50.8,35.8,50.9z"/>
	<path fill="#FFFFFF" d="M35.3,52.4c-0.1,0.2-0.2,0.4-0.4,0.5c-0.2,0.2-0.4,0.4-0.6,0.4c0,0,0,0,0,0c0.5,0,1.2-0.4,1.1-1
		C35.5,52.4,35.3,52.3,35.3,52.4z"/>
	<path fill="#FFFFFF" d="M42.1,44.3c0,0,1.2,0,2.4,0.2c1.2,0.2,2.8,0.2,3.2-0.1c0.4-0.3,0.5-1.3,0.5-1.3l0,1c0,0,0.8,0.5,1.6,0.8
		c0.8,0.3,1.5,0.4,1.8,0c0.3-0.4,0.6-1.4,0.6-1.4l0.2,0.1c0,0-0.4,1.3-0.7,1.5c-0.3,0.2-1.2,0.3-1.6,0.2c-0.4-0.1-1.9-0.8-1.9-0.8
		s-0.6,0.4-2.1,0.4c-1.5-0.1-3.7-0.4-3.7-0.4S41.9,44.1,42.1,44.3z"/>
	<path fill="#FFFFFF" d="M40.2,45.9c0,0,2.4-0.6,3.7-0.7c1.4-0.1,3.2,0.1,4.3,0.3c1.1,0.2,2.2,0.2,2.3,0.3c0,0.1,0,0.5,0,0.5
		s0.1-0.5,0.2-0.6c0.1-0.1,0.8-0.4,0.9-0.3c0.1,0.1,0.2,0.8,0.2,0.8l0.3-0.2c0,0-0.2-0.5-0.4-0.7c-0.2-0.2-0.6,0-1,0.1
		c-0.3,0.1-0.3,0.1-0.3,0.1s-2.4-0.1-4-0.3c-1.7-0.2-3.6-0.1-4.9,0.2c-1.4,0.3-1.8,0.6-1.8,0.6S39.4,46.2,40.2,45.9z"/>
	<path fill="#908F8F" d="M33.1,41.2c0,0-0.1,0.3,0,0.9c0.1,0.6,0.2,0.9,0.2,0.9l-0.1,0c0,0-0.2-0.4-0.3-0.9c-0.1-0.5,0-1,0-1
		L33.1,41.2z"/>
	<path fill="#F06724" d="M39.6,45.9c0,0,2-0.5,3.2-0.3c1.2,0.2,1.2,0.2,1.2,0.2s-3.2,0.2-3.5,0.3c-0.3,0.1-0.8,0.2-1,0.1
		C39.4,46.1,39.6,45.9,39.6,45.9z"/>
	<path fill="#F06724" d="M22.7,24c-0.5-0.5-1.3-1.2-2-1.4c-1.2-0.3-2.3,0.2-3.5,0c-1.3-0.2-3-0.4-3.5,1.1c-0.4,1.2,0.4,2.8,0.8,3.8
		c0,0.1,0.1,0.2,0.1,0.3c-0.7-0.2-1.2,0.5-1.6,1c-0.7,1-0.5,2.3,0,3.3c0.3,0.6,0.6,1.3,1.1,1.8c-0.9,0.5-0.4,2.4,0.5,2.7
		c1.1,0.4,2.5-0.9,2.6-2.1c0,0,0,0,0,0c0.2-0.1,0.3-0.3,0.4-0.4c0-0.1,0.1-0.1,0.1-0.2c0,0,0,0,0,0c0,0,0,0,0,0c0,0,0,0,0-0.1
		c0,0,0-0.1,0-0.1c0.1,0.2,0.2,0.4,0.3,0.6c0.7,1,1.7,1.2,2.5,0.2c0.3-0.4,0.3-1,0.1-1.3c0,0,0-0.1,0-0.1c0-0.4,0.3-0.7,0.6-1
		c0.2-0.2,0.5-0.4,0.7-0.6c0.8,1,0.4,2.3-0.2,3.3c-0.4,0.5-0.9,1-1.5,1.2c-0.7,0.2-1-0.1-1.5-0.4c-0.1-0.1-0.3,0-0.3,0.2
		c0.2,0.6,1,0.9,1.6,0.8c0.8-0.1,1.4-0.6,1.9-1.2c1-1.1,1.4-3,0.2-4c0.1-0.1,0.2-0.2,0.4-0.3C25.6,29.7,24.6,26,22.7,24z M13.6,32.3
		c-0.7-1.2-0.8-4.1,1.1-4.2c0.3,1,0.4,1.9,0.5,3c0.1,0.9,0.2,2.1,0.9,2.8c0,0,0.1,0.1,0.1,0.1C15.3,34.9,14,33.1,13.6,32.3z
		 M15,36.3c-0.5,0-0.8-0.5-0.9-0.9c-0.1-0.4-0.1-0.9,0.2-1.2c0.3,0.2,0.6,0.4,0.9,0.5c0.6,0.2,1.1,0.1,1.5-0.2
		C16.8,35.3,15.7,36.2,15,36.3z M21.9,31.1C21.8,31.1,21.8,31.1,21.9,31.1c-0.5,0.3-0.9,0.6-1.2,1c-0.2,0.2-0.3,0.5-0.4,0.8
		c-0.1,0-0.3,0-0.5,0c-0.3,0.1-0.2,0.5,0.1,0.4c0.6-0.1,0.6,1.6-0.6,1.4c-0.4-0.1-0.7-0.6-0.9-0.9c-0.2-0.3-0.3-0.6-0.3-0.8
		c0,0,0,0,0,0c0.1-0.1,0-0.2,0-0.3c0-0.4,0-0.9,0.2-1.3c0.6-1.8,2.6-2.5,4.2-3.1c0.1,0,0.1-0.2,0-0.1c-0.6,0-1.2,0.2-1.8,0.4
		c0-0.1,0-0.2,0-0.3c0-0.2,0.1-0.5,0.2-0.7c0.2-0.5,0.6-0.9,1.1-1.2c0,0,0-0.1,0-0.1c-0.5,0.2-0.9,0.6-1.2,1.1
		c-0.2,0.3-0.5,1-0.4,1.4c-0.6,0.3-1.1,0.6-1.5,1c0.6-1.1,0.2-3-0.8-4c0.3-0.3,0.1-0.9-0.1-1.1c0,0-0.1,0-0.1,0
		c0.1,0.2,0.1,0.3,0.1,0.5c0,0.1-0.1,0.2-0.1,0.4c-0.3-0.3-0.8-0.4-1.2-0.4c-0.1,0-0.1,0.1,0,0.1c1.6,0.3,2.3,3.3,1.6,4.6
		c-0.1,0.2,0.1,0.4,0.2,0.4c-0.7,0.8-1,1.8-0.8,2.9c-0.2,0.2-0.4,0.5-0.7,0.6c-0.1,0-0.2,0-0.2,0c0,0-0.1,0-0.1,0
		c-0.3-0.2-0.4-0.8-0.5-1.1c-0.2-0.9-0.3-1.8-0.4-2.7c-0.2-1.6-1-3-1.4-4.6c-0.1-0.5-0.2-1.1,0.1-1.7c0.5-0.9,2-0.6,2.8-0.5
		c0.6,0.1,1.2,0.1,1.9,0c1.2-0.2,2,0.1,2.9,0.9c1,0.8,1.8,2,2.1,3.3c0.3,1.3-0.3,2.4-1.2,3.3c0,0,0,0,0,0
		C22.4,30.8,22.1,31,21.9,31.1z"/>
	<g>
		<path fill="#D97882" d="M18.4,35.4c0,0-1.2,5-0.3,6.8l0.4,0.7c0,0,2.8,0.1,4.2,1.3c1.5,1.2,2.5,2,2.6,3.3c0.1,1.3,0.2,3.1-1.1,4.1
			c-1.3,1-4.6,1.5-5.9,1.5c-1.3,0-5.4,0-7.1,1.4c-1.6,1.4-1.5,1.2-1.5,1.2s2.1,1.1,2,2.2c-0.1,1.1-0.7,1.8-1.8,1.6
			c-1.1-0.1-1.4-0.8-1.4-0.8s-1.3-3.5-1.3-5.7c0-2.2,2.1-8.1,3.4-10.4c1.3-2.3,3.5-3.6,5-5.3c1.5-1.6,1.8-3.3,1.8-3.3s0.7-0.3,1,0.1
			C18.9,34.7,18.4,35.4,18.4,35.4z"/>
		<path fill="#B7606B" d="M24.2,44.8c-0.5-0.6-1.3-1-1.9-1.3c-1.2-0.6-2.5-0.9-3.8-1c0,0,0,0-0.1,0c-0.2-0.8-0.3-1.6-0.3-2.4
			c0-0.9,0.1-1.8,0.3-2.6c0.2-0.7,0.5-1.4,0.7-2.1c0.1-0.1,0.1-0.1,0.1-0.3c0,0,0-0.1,0-0.1c0,0,0,0,0,0c0-0.1,0-0.2-0.1-0.2
			c-0.1-0.2-0.3-0.4-0.5-0.6c-0.3-0.2-0.7-0.5-1.1-0.3c-0.1,0-0.2,0.2-0.1,0.3c0,0,0,0,0,0c-0.1,0-0.1,0.1-0.1,0.1
			c0,1.5-1.2,2.5-2.2,3.5c-1,1-2.1,1.9-3,3c-1.8,1.9-3.1,4.3-4,6.7c-0.9,2.5-1.2,5.2-0.9,7.9c0.2,1.6,0.4,3.7,1.9,4.6
			C9.1,60,9.2,60,9.3,60c0,0,0,0,0.1,0c0.1,0,0.2,0,0.2,0c0.9,0,2.1,0,2.5-1c0.5-1.2-0.8-2.8-1.8-3.4c0.4-0.5,0.9-0.9,1.3-1.1
			c1.7-1,3.9-0.8,5.8-0.9c1.3,0,2.6-0.2,3.9-0.4c1.9-0.4,4-1.2,4.3-3.4C25.8,48.3,25.6,45.7,24.2,44.8z M23.4,44.9
			c0.3,0.2,0.5,0.5,0.7,0.8c0.7,1.1-1.3,0.6-1.4,0.6c-0.8-0.3-1.7-0.6-2.4-1.1c-0.9-0.6-1.4-1.3-1.7-2.2
			C20.3,43.2,22,43.8,23.4,44.9z M14.9,38.7c0.5-0.5,1.1-1,1.6-1.7c0,0,0,0.1-0.1,0.1c-0.5,1.1-1.3,1.9-2,2.9c0,0.1,0,0.1,0.1,0.1
			c1.1-0.9,1.8-2.2,2.5-3.4c0.4-0.7,0.9-1.7,0.7-2.5c0.1,0.1,0.2,0.1,0.3,0.2c0.2,0.2,0.4,0.4,0.5,0.6c-1.3,1.7-1.4,4.6-1.1,6.6
			c0.4,2.5,1.9,4.2,4.2,5c0.9,0.3,2.9,0.7,3.1-0.3c0.1,0.2,0.1,0.4,0.1,0.6c-0.1,0-0.1,0.1-0.2,0.1c-0.8,1.3-2.1,2.1-3.4,2.8
			c-1.6,0.8-3.2,1.5-5,1c-3-0.8-5.2-3.4-6.1-6.3c0,0,0,0,0,0C11.5,42.3,13.2,40.5,14.9,38.7z M11.1,57.4c0.2,0.3,0.9,1.4,0,1.6
			c-0.5,0.1-1.2-0.5-1.4-0.8c-0.4-0.6-0.2-1.4,0.2-2C10.4,56.5,10.8,56.9,11.1,57.4z M11.3,54c-0.6,0.3-1.2,0.8-1.6,1.4
			c-0.1,0-0.3,0.2-0.2,0.3c-0.7,1.2-0.8,2.5,0.5,3.3c0.3,0.2,1,0.3,1.4,0.2c-0.5,0.4-1.6,0.3-2.2,0.3c-1.5-1.6-1.6-4.1-1.6-6.2
			c0-2.9,0.8-5.8,2.2-8.3c0-0.1,0.1-0.2,0.1-0.3c0.9,3.3,3.1,5.8,6.5,6.7c0.9,0.3,1.8,0.2,2.6-0.1c0.6,0.5,1.2,0.8,1.9,1.1
			c0.2,0.1,0.5,0.1,0.8,0.2c0,0,0,0,0,0C18.4,53.5,14.6,52.4,11.3,54z M22.9,52.2c-0.1,0-0.3,0-0.4,0c-0.3-0.2-0.8-0.2-1.1-0.3
			c-0.6-0.1-1.2-0.5-1.8-0.8c0.5-0.2,1.1-0.5,1.6-0.7c1.4-0.7,2.7-1.6,3.8-2.8c0.1,0.6,0.1,1.2,0.1,1.7
			C25.2,50.8,24.1,51.7,22.9,52.2z"/>
		<path fill="#E5A6AC" d="M17.3,36.3c0,0-2.1,3.8-2.9,4.1c-0.8,0.3,0.5-1,1-1.9c0.5-0.8,0.5-0.8,0.5-0.8s-2.4,2.4-3.7,3.9
			c-1.4,1.5-1.9,2.8-1.9,2.8s1.6,4.8,5.3,6.1c3.7,1.3,6.4-0.9,7.6-1.9s1.8-1.7,1.8-1.7s-3.2,3-6,3.2c-2.7,0.2-4.7-1-4.8-1.3
			c-0.1-0.4,0.3-0.3,1.2,0.2c0.9,0.5,3.5,0.5,4.2,0.3c0.8-0.2,2.3-0.8,3.4-1.5c1.1-0.7,1.1-0.7,1.1-0.7s-5.9,0.5-7.2-1.8
			c-1.3-2.2,0.3-7.3,0.3-8.1C17.3,36.3,17.3,36.3,17.3,36.3z"/>
		<path fill="#B7606B" d="M19.1,49.9c-1.2,0.3-3.2-0.2-4.7-1.1c-0.1-0.1-0.2,0.1-0.1,0.1c1.1,1,3.3,1.7,5,1.2
			C19.4,50,19.2,49.9,19.1,49.9z"/>
		<path fill="#FFFFFF" d="M23.8,47.3c0,0,1.8-0.3-2.6,2.6c-1.3,0.8-3.1,1.1-4.6,0.7c-1.5-0.4-2.6-1.5-2.6-1.5s3.5,1.5,5,1.3
			c1.5-0.3,1.4-0.8,0.3-0.9c-1.1-0.1-1.7,0-3-0.6c-1.3-0.6,0.6-1.4,2.1-1.5c1.5-0.1,4,0.2,4.6,0.1C23.5,47.4,23.8,47.3,23.8,47.3z"
			/>
		<path fill="#EAB7BC" d="M15.7,39.2c0,0-1.3,1.9-1.8,1.9c-0.5,0,0.2-1,0.9-1.9c0.7-0.9,1.2-1.6,1.2-1.6s-2.9,2.8-3.9,4.1
			c-1,1.3-1.9,2.6-1.9,2.6s0.5,1.6,1.7,3.1c1.2,1.5,1.6,1.7,1.6,1.7s-0.8-1.4-1.5-2.5c-0.7-1.1-1-2.5-1-2.5s1.3-2,1.7-2.4
			c0.4-0.5,0.4-0.5,0.4-0.5s-0.8,1.8,0,1.9C14,43.3,15.3,40.7,15.7,39.2z"/>
		<path fill="#FFFFFF" d="M14.5,39.6c0,0-0.9,1.2-0.5,1.5c0.4,0.3,1.5-1.3,2.1-2.4c0.6-1.1,0.7-1.5,0.7-1.5s-1.3,4.2-2.4,4.6
			C13.3,42.1,13.2,40.5,14.5,39.6z"/>
		<path fill="#E5A6AC" d="M18.6,35c0,0-1.5,3.9-0.9,6.4c0.6,2.3,1,4,5.6,5.5c0,0,1.5,0.2,1.5-0.6c0-0.8-0.5-1-0.5-1s0.9,0.5,0.7,1.2
			c-0.2,0.7-1.6,0.8-3.3,0.1c-1.7-0.7-3-1.2-3.9-3.5C16.9,40.8,16.7,37.6,18.6,35z"/>
		<path fill="#E5A6AC" d="M10.1,44.7c0,0-2.5,4.2-2.3,8.4c0.2,4.2,0.9,5.6,1.2,6.1c0.3,0.4,0.4,0.3,0.4,0.3S8.8,59,8.4,57
			c-0.3-2-0.6-4.5-0.1-6.5c0.4-2,0.4-1.4,0.6-0.5c0.3,0.9,1.3-0.4,1.5-0.2c0.2,0.2,0.2,0.8,0.5,0.9c0.4,0.1,0.5-0.4,0.8-0.2
			c0.3,0.3,1.6,1.7,4.3,2c2.7,0.3,5-0.2,5-0.2s-1.9-1.1-1.9-1.1c-0.1,0-5.1,0.6-8.1-4.3C9.9,45,10.1,44.7,10.1,44.7z"/>
		<path fill="#FFFFFF" d="M10.1,44.9c0,0,0.2,2.1,2.4,4.1c2.2,1.9,4.5,2.4,5.4,2.4c0.9,0,1.2-0.1,1.2-0.1s-2.2,1-5.2-0.9
			C14,50.3,10.2,48.8,10.1,44.9z"/>
		<path fill="#E5A6AC" d="M19.8,51.1c0,0,1.4,1,2.4,1c1.1,0.1,2-1,2.4-1.4c0,0-1.2,1.1-2.5,0.9c-1.3-0.3-1.4-0.6-0.9-1
			C21.8,50.2,22,50,22,50L19.8,51.1z"/>
		<path fill="#FFFFFF" d="M12.4,41.2c0,0-2.2,2.7-2.2,3.2c0,0.5,1,2.2,1.4,2.7c0.4,0.5,0.5,0.7,0.5,0.7s-1.5-2.7-1.4-3.4
			C10.8,43.8,12.4,41.2,12.4,41.2z"/>
		<path fill="#C9717C" d="M18.5,43c0,0,0.3,1.6,3,3c2.7,1.4,3,0.4,2.5-0.3c-0.5-0.7-0.5-0.9-1-0.5c-0.5,0.4-0.7,0-0.6-0.4
			c0-0.4-0.2-0.2-0.5,0.2c-0.3,0.4-0.6,0.3-0.5-0.4c0-0.7-0.3-0.9-0.5-0.5c-0.2,0.4-0.6,0.2-0.7-0.3C20.1,43.3,19.1,43.1,18.5,43z"
			/>
		<path fill="#C9717C" d="M9.9,56.1c0,0,1.6,1.6,1.6,2.2c0,0.6-1.4,0.4-1.1,0.3c0.3-0.1,1.1-0.4,0.4-0.5C10,58,9.6,58.3,9.5,57.6
			C9.4,57,9.5,56.5,9.9,56.1z"/>
		<path fill="#E5A6AC" d="M19.6,52.9c0,0-5,0.1-7.2,0.8C10.3,54.5,9,56,9,57.3c0,1.3,0.9,1.6,1,1.7c0.2,0.1-0.2,0.3-0.3,0.1
			c-0.1-0.2,0,0.7-0.4,0.4c-0.4-0.3-0.5-0.8-0.5-0.8s0.3,0.3,0.3,0c0-0.2-0.5-0.9-0.3-2c0.1-1.1,1.3-3.1,5-3.6
			C17.5,52.6,19.6,52.9,19.6,52.9z"/>
		<path fill="#D97882" d="M15.7,41c0,0-1.5,2.3-1.8,3.1c-0.3,0.7,1.4,2.1,1.5,1.5c0.1-0.7,0.4-2.7,0.9-2.1c0.4,0.6,0.1,0.1,0.3-1.5
			c0.3-1.6,0.3-2.5,0.3-2.5s-0.5,2-0.9,2C15.7,41.3,15.7,41,15.7,41z"/>
		<path fill="#B7606B" d="M17,35.6c-0.4-0.1-1.1,0.2-0.9,0.8c0.2,0.4,0,0.4-0.4,0.1c-0.1,0-0.3,0.1-0.4,0.1c-0.2,0-0.4,0.3-0.5,0.5
			c0-0.1-0.1,0.5,0,0.5c-0.2,0-0.7-0.1-0.9,0c-0.3,0.3-0.4,0.7-0.2,1c-0.3,0-0.5,0-0.8,0.2c-0.3,0.3-0.4,0.7-0.3,1
			c-0.8,0-1.5,0.5-1.3,1.2c-0.7,0-1.1,0.5-1.1,1.3c-1-0.2-1.6,0.9-1.2,1.7c-0.8,0-0.9,0.9-0.7,1.7c-0.9,0.1-1.3,1.5-0.9,2.2
			c-0.7,0.3-0.9,1.2-0.4,1.9c-0.6,0.3-0.7,1.4-0.1,1.9c-0.6,0.4-0.6,1.5-0.1,2.1C6.3,54.2,6.3,55.6,7,56c-0.7,0.6-0.4,2.1,0.5,2.2
			c-0.3,1-0.1,2,1,1.8c0,0.5,0.1,1.3,0.7,1.3c0.8,0,0.9-0.8,0.6-1.4c-0.1-0.2-0.4,0-0.2,0.2c0,1.1-0.7,0.8-0.6,0c0-0.1,0-0.2,0-0.4
			c0-0.1-0.1-0.2-0.2-0.2C8.2,59.9,7,59.4,8.1,58c0-0.3-0.1-0.4-0.3-0.3C7,58,6.7,56.3,7.6,56.1c0.2-0.1,0.2-0.4,0-0.4
			c-0.8,0-0.7-1.7-0.1-1.6c0.2,0,0.3-0.3,0.1-0.5c-0.4-0.2-0.9-1.6,0-1.7c0.2,0,0.3-0.3,0.1-0.4C6.8,51.3,7,50,7.5,50.2
			C7.7,50.3,8,50,7.8,49.8c-0.5-0.4-0.8-1.5,0.4-1.5c0.3,0,0.4-0.5,0.1-0.5c-0.7-0.1-0.3-1.8,0.4-1.5C8.9,46.4,9.2,46.2,9,46
			c-0.4-0.5-0.4-1.8,0.5-1.4c0.2,0.1,0.4-0.2,0.2-0.4c-0.5-1.4,0.2-1.6,0.8-1.4c0.2,0.1,0.4-0.1,0.3-0.3c-0.2-0.7,0.1-1.1,0.9-1.1
			c0.2,0,0.2-0.1,0.2-0.4c0,0-0.4-0.4,0.1-0.8c0.5-0.5,0.9-0.1,0.9-0.1c0.2,0.1,0.3-0.1,0.3-0.3c-0.3-1,0.5-1.2,0.9-1c0,0,0,0,0,0
			c0,0,0,0,0,0c0,0,0,0,0,0c0.1,0,0.2-0.1,0.2-0.2c-0.9-0.9,0.2-1.1,0.8-0.9c0.1,0,0.2-0.1,0.2-0.2c-0.2-0.5-0.3-0.9,1-0.8
			c0.1,0,0.1,0,0.1-0.1c0-0.3,0.1-0.8,0.6-0.8C17.2,36,17.2,35.6,17,35.6z"/>
		<g>
			<g>
				<path fill="#D97882" d="M9.2,44.8c0,0-0.4,0-0.9,0.3c-0.5,0.3-0.8,0.8-0.5,1c0.3,0.3,1.3,0.9,1.4,0.6c0.1-0.3,0.3-1.4,0.3-1.4
					s0.3-0.2,0.3-0.1c0,0.1,0.1,0.5,0.4,1c0.3,0.5,0.6,1,0.6,1l-0.1-0.9c0,0,0.5,0.2,0.7,0.1c0.3-0.1,0.3-0.2,0.3-0.2l-1-1l0.8,0.3
					c0,0,0.2-1,0-1.2c-0.2-0.2-1.2-0.1-1.2-0.1L10,44.2c0,0,0.8-0.4,0.7-0.7c-0.1-0.3-0.8-0.9-1.1-0.9c-0.3,0-0.7,0.7-0.6,1.3
					C9.1,44.4,9.2,44.8,9.2,44.8z"/>
				<path fill="#B7606B" d="M9.7,42.5C9.7,42.5,9.7,42.5,9.7,42.5c0.1-0.1,0-0.2-0.1-0.1c-0.7,0.3-0.8,1.5-0.5,2.2c0,0,0,0,0,0
					c-0.4,0.1-0.8,0.3-1.1,0.6c-0.3,0.3-0.5,0.7-0.3,1.1c0,0.1,0.1,0.1,0.2,0c0.1,0.2,0.4,0.3,0.5,0.4c0.2,0.1,0.3,0.2,0.5,0.2
					C8.9,47,9,47.1,9.1,47c0,0,0,0,0-0.1c0,0,0.1,0,0.1,0c0.2,0,0.2-0.2,0.1-0.3c0.1-0.1,0.1-0.3,0.1-0.4c0.1-0.3,0.1-0.6,0-0.9
					c0,0,0,0,0,0c0.1,0.8,0.7,1.5,1.2,2.1c0.1,0.1,0.3,0,0.2-0.1c0,0,0,0,0,0c0-0.2-0.1-0.5-0.1-0.7c0.3,0.1,0.6,0,0.9-0.2
					c0,0,0-0.1,0-0.1c-0.2-0.2-0.5-0.5-0.7-0.7c0.2,0.1,0.3,0.1,0.4,0.2c0.1,0.1,0.2,0,0.2-0.1c0,0,0.1-0.1,0.1-0.1
					c-0.1-0.5,0.3-1.3-0.5-1.4c-0.1,0-0.5,0-0.8,0c0.2-0.2,0.3-0.3,0.5-0.5c0.1-0.1,0.1-0.2,0-0.3C10.7,43,10.1,42.5,9.7,42.5z
					 M9,44.9C9,45,9.1,45,9.1,45.1c0,0,0,0,0,0c-0.2,0.2-0.4,0.7-0.2,0.9c0,0,0.1,0,0.1,0c0.1-0.1,0.1-0.2,0.1-0.3
					c0-0.2,0-0.4,0.1-0.5c0,0,0,0,0,0c0,0,0,0,0,0c0,0,0,0,0,0c-0.1,0.2-0.1,0.5-0.1,0.7c0,0.2-0.1,0.4-0.2,0.6
					c-0.2,0-0.4-0.1-0.6-0.2c-0.2-0.1-0.3-0.2-0.5-0.3c0-0.1,0-0.2,0.1-0.3c0.1-0.1,0.2-0.3,0.3-0.3c0,0.1-0.1,0.2,0,0.3
					c0,0,0.1,0.1,0.1,0c0.1-0.1,0.2-0.2,0.2-0.3c0.1-0.1,0.2-0.3,0.3-0.4C8.9,44.9,9,44.9,9,44.9C9,44.9,9,44.9,9,44.9z M9.3,44.8
					c0.1,0,0.2,0,0.4-0.1c0,0,0.1,0.1,0.1,0.1c0,0.1-0.2,0.2-0.3,0.2C9.4,44.9,9.3,44.9,9.3,44.8z M10.8,46.2c-0.1,0-0.2,0-0.2,0.1
					c0,0.1,0,0.3,0,0.4c-0.1-0.2-0.3-0.4-0.4-0.6c-0.1-0.3-0.3-0.6-0.4-0.9c0.1,0,0.2-0.1,0.2-0.2c0.1,0.1,0.2,0.1,0.3,0.2
					c0.4,0.4,0.8,0.7,1.2,1C11.3,46.3,11,46.4,10.8,46.2z M11.1,44.4c0.3,0,0.3,0.2,0.3,0.5c0,0.2,0,0.4,0,0.6
					c-0.2-0.1-0.4-0.1-0.6-0.3c-0.2-0.1-0.5-0.3-0.7-0.3c0,0,0,0,0-0.1c0-0.1,0-0.2-0.1-0.3C10.3,44.4,10.8,44.4,11.1,44.4z
					 M10.5,43.5c-0.3,0.3-0.6,0.5-0.9,0.8c0,0,0,0,0,0c0.1-0.2,0.3-0.6,0.3-0.6c0.1,0,0-0.2,0-0.1c-0.2,0-0.3,0.1-0.3,0.2
					c0,0,0,0,0,0c0,0-0.1-0.1-0.1,0c-0.1,0.1-0.1,0.3-0.2,0.4c0-0.1,0-0.3,0-0.4c0-0.3,0.1-0.6,0.3-0.8c0,0,0,0,0,0
					C9.8,42.7,10.3,43.1,10.5,43.5z"/>
				<path fill="#E5A6AC" d="M8.3,45.3c0,0-0.5,0-0.6,0.5c0,0.2,0.1,0.3,0.1,0.3c0.1,0,0.1,0.1,0.3,0.2c0.2,0.2,0.6,0.4,0.7,0.3
					c0.1,0,0.1,0.1,0.2,0c0.1-0.1,0.1-0.1,0.1-0.4c0-0.4,0-0.8,0-0.8s-0.1,0.8-0.3,0.6c-0.3-0.2-0.1-0.8-0.2-0.8
					c-0.1,0-0.1,0.4-0.3,0.4C8.2,45.9,8.1,45.5,8.3,45.3z"/>
				<path fill="#E5A6AC" d="M9.3,44.8c0,0,0.2,0.3,0.3,0.3c0.1,0,0.3-0.2,0.3-0.4c0-0.2-0.1-0.2-0.2-0.2c-0.1,0-0.1,0.1,0,0.1
					c0.1,0,0,0.2-0.1,0.2C9.4,44.9,9.3,44.8,9.3,44.8z"/>
				<path fill="#E5A6AC" d="M9.5,42.8c0,0-0.5,0.3-0.5,1c0,0.6,0.2,0.7,0.2,0.5c0-0.2,0-0.1,0-0.5c0-0.4,0.3-0.5,0.3-0.3
					c0,0.1,0,0.2,0.2,0c0.2-0.2,0.4-0.1,0.4,0.2c-0.1,0.2-0.3,0.6-0.4,0.6c-0.1,0,0.7-0.3,0.8-0.6c0.1-0.3,0-0.2,0-0.2
					s0-0.3-0.3-0.5C10,42.7,9.6,42.7,9.5,42.8C9.6,42.7,9.6,42.6,9.5,42.8z"/>
				<path fill="#E5A6AC" d="M10,45.1c0,0,0.8,0.6,1.2,0.9c0.4,0.3,0.5,0.4,0.3,0.4c-0.1,0-0.7,0.1-0.8,0.1c-0.1,0-0.2,0-0.2,0.3
					c0,0.3,0,0.4,0,0.4s-0.4-0.2-0.7-0.9c-0.3-0.7-0.2-1-0.2-1s-0.1,0.1,0.2,0.5c0.3,0.4,0.4,0.4,0.4,0.4s0.1,0.4,0.1,0.2
					c0-0.2,0.2-0.2,0.3-0.2c0.1,0,0.4,0,0.1-0.2C10.6,45.7,10,45.1,10,45.1z"/>
				<path fill="#E5A6AC" d="M10.1,44.9c0,0,0.7,0.4,1.1,0.5c0.3,0.1,0.4,0.2,0.4,0.2s-0.1-0.5-0.1-0.5c0-0.1,0.2-0.4,0.1-0.5
					c-0.1-0.2,0-0.1,0-0.1s-0.4-0.1-0.8,0c-0.4,0-0.5,0.1-0.5,0.1c0,0,0.7,0.1,0.8,0.2c0.1,0.1-0.1,0.2-0.1,0.2s0.2,0,0.1,0.1
					c-0.1,0.1-0.4-0.1-0.4,0c0,0.1,0.1,0-0.2,0.1C10.3,44.9,10.1,44.9,10.1,44.9z"/>
				<path fill="#FFFFFF" d="M8.3,45.3c0,0-0.5,0-0.6,0.4c-0.1,0.4,0,0.5,0.2,0.5c0.1,0,0,0.1,0.3,0.3c0.3,0.2,0.6,0.3,0.6,0.3
					s0.2,0.1,0.3,0.1c0.1-0.1,0.2-0.2,0.1-0.3c0-0.1,0-0.6,0-0.6S9.2,46.5,9,46.5c-0.1,0-0.2-0.3-0.2-0.3s-0.1,0.1-0.2,0
					c-0.1-0.2,0-0.2-0.2-0.1c-0.1,0.1-0.4,0-0.4-0.1c-0.1-0.1-0.2,0-0.2-0.1C7.9,45.6,8.2,45.3,8.3,45.3z"/>
				<path fill="#FFFFFF" d="M9.3,44.6c0,0-0.1,0.2,0.1,0.3c0.2,0.2,0.3,0.1,0.4,0c0.1-0.1,0.1-0.2,0.1-0.2s0,0.4-0.2,0.4
					c-0.2,0.1-0.4-0.1-0.5-0.3C9.1,44.6,9.3,44.6,9.3,44.6z"/>
				<path fill="#FFFFFF" d="M9.1,44.2c0,0-0.1-0.7,0.2-1c0.2-0.3,0.4-0.3,0.4-0.3s0-0.1,0.1-0.1c0.1,0,0.5,0.1,0.6,0.3
					c0.2,0.2,0,0.5,0,0.5s0.2,0,0,0.2c-0.1,0.2-0.5,0.4-0.5,0.4s0.7-0.2,0.8-0.5c0.1-0.3-0.1-0.3-0.1-0.3s-0.1-0.3-0.3-0.4
					c-0.2-0.2-0.7-0.3-0.7-0.3s0-0.2-0.2-0.1c-0.2,0.1-0.4,0.5-0.4,0.9C9,43.9,9.1,44.2,9.1,44.2z"/>
				<path fill="#FFFFFF" d="M9.8,45.3c0,0,0.1,0.6,0.4,1c0.3,0.4,0.5,0.5,0.5,0.5s-0.1-0.5,0.1-0.6c0.1,0,0.2,0,0.2,0
					s0.2-0.3,0.4-0.2c0.2,0.1-0.2-0.2-0.4-0.4c-0.2-0.2-0.7-0.5-0.7-0.5s0.8,0.5,1.1,0.7c0.3,0.3,0.4,0.3,0.4,0.3
					c0,0-0.1,0.1-0.1,0.1l-0.9,0l0,0.8c0,0-0.4-0.4-0.7-0.9C9.7,45.8,9.6,45.3,9.8,45.3z"/>
				<path fill="#FFFFFF" d="M10.1,44.9c0,0,0.6,0.1,0.9,0.2c0.3,0.1,0,0,0.1,0c0.1,0,0.3,0,0.2-0.2c0-0.2,0.1-0.3,0.1-0.3
					s-0.2-0.1-0.4-0.2c-0.2,0-0.6,0-0.6,0s0.3-0.2,0.7-0.1c0.4,0,0.6,0.1,0.6,0.1s-0.1,0.1-0.1,0.2c0,0.1,0,0.3-0.1,0.4
					c0,0,0,0.2,0,0.2l0.1,0.6C11.5,45.6,9.9,44.9,10.1,44.9z"/>
			</g>
			<path fill="#734049" d="M9.3,44.5c0,0,0.2-0.2,0.3-0.1c0.2,0.1,0.2,0.2,0.2,0.1c0-0.1,0.1,0,0.1,0s0.3-0.2,0.3-0.2
				c-0.1,0-0.3,0.1-0.1,0c0.2-0.1,0.7-0.6,0.7-0.6c0-0.1-0.4,0.4-0.6,0.5c-0.2,0.1-0.4,0.2-0.5,0.2c0,0,0.1-0.2,0-0.1
				c-0.1,0.1-0.2,0.2-0.2,0.2s0-0.1,0-0.2c0-0.2,0.1-0.4-0.1-0.2c-0.1,0.3-0.2,0.4-0.2,0.4s-0.1,0-0.1,0.1
				C9.3,44.4,9.3,44.5,9.3,44.5z"/>
			<path fill="#734049" d="M9,44.8c0,0-0.4,0.1-0.5,0.4c-0.1,0.2,0,0-0.2,0.1c-0.2,0.1-0.3,0.1-0.5,0.3c-0.2,0.2,0-0.2,0.6-0.5
				C8.9,44.7,9.2,44.7,9,44.8z"/>
			<path fill="#734049" d="M9.2,45.1c0,0-0.1,0.2-0.2,0.3c0,0.1,0.1-0.1,0.2-0.2c0.1-0.1,0.1,0,0.1,0.1c0,0.2-0.1,0.4-0.1,0.5
				c0,0.2,0,0.6,0.1,0.3c0.1-0.3,0.1-0.8,0-0.9C9.4,45.1,9.4,45.2,9.2,45.1c0-0.1-0.1-0.2-0.1-0.3C9.1,44.8,9.1,45,9.2,45.1z"/>
			<path fill="#734049" d="M9.6,45.3c0,0,0,0.2,0.1,0.3c0,0.1,0-0.1,0.1-0.2c0.1-0.1,0-0.1,0.1,0c0.1,0.1,0.1,0,0-0.1
				c0-0.1,0-0.1,0.1-0.1c0,0,0-0.1,0.1-0.1c0.1,0,0.5,0.2,0.8,0.4c0.4,0.3,0.5,0.3,0.5,0.3L11,45.5c0,0-0.8-0.4-0.9-0.5
				C9.9,45,9.9,44.9,10,44.9c0.1,0,0.4,0,0.2,0c-0.1,0-0.3-0.1-0.2-0.1c0.1-0.1,0.1-0.1,0-0.1c-0.1,0-0.2,0-0.2,0s0.1,0.2,0,0.4
				C9.7,45.2,9.5,45.2,9.6,45.3L9.6,45.3z"/>
		</g>
		<path fill="#FFFFFF" d="M13.8,43.4c0,0-1,0.6-0.4,1.7c0.6,1.1,1.4,1.6,1.8,1.3c0.4-0.4,0.5,0.9,0.2,1.3c-0.3,0.4-1.9,0.2-2.6-1
			c-0.8-1.2-0.2-2-0.1-2.7c0.1-0.7,0-1,0-1s1,0.1,1.3-0.4c0.4-0.5,0.7-0.5,0.4-0.1C14.3,42.8,13.8,43.4,13.8,43.4z"/>
		<path fill="#C9717C" d="M10.2,50.3c0,0,0.2,2.1,0.8,1.4c0.5-0.7,0.7-0.5,1-0.1c0.4,0.4,3.2,0.8,3.2,0.8s-1.7-0.5-2.5-1.2
			c-0.7-0.7-0.8-1.6-1-1.3c-0.2,0.4-0.6,0.9-0.8,0.2c-0.2-0.7-0.1-1.1-0.7-0.6C9.6,50,9,49.5,9,49.1s0-1.3,0-1.3s-1.1,2.6-1,4.7
			c0.1,2.1,0.1,2.1,0.1,2.1S8.3,52,8.4,51c0.1-1.1,0.1-1.1,0.1-1.1s0.4,1.3,0.9,0.8C9.9,50.3,10.2,50.3,10.2,50.3z"/>
		<path fill="#FFFFFF" d="M24.8,47.9c0,0-2.6,2-3.7,2.5c-1.1,0.6-1.3,0.7-1.3,0.7l0.8,0.4c0,0-0.3-0.2-0.1-0.4
			c0.2-0.2,0.6-0.3,0.6-0.3s0.9,0.7,2.5-0.3C25.2,49.6,24.8,47.9,24.8,47.9z"/>
	</g>
	<path fill="#F0E23C" d="M22.4,28.3C22.4,28.3,22.4,28.3,22.4,28.3c-0.5,0.2-3,1.1-3.8,2.2c-0.9,1.1-0.9,2.2-0.4,3.2
		c0.5,1,1.4,1.6,2,0.9c0.6-0.6,0.4-1.2,0-1.3c-0.4-0.1-0.8-0.1-0.9-0.5C19.2,32.4,20,32,20,31.6c0.1-0.3,0-0.4,0-0.4
		s0.2,0.2,0.2-0.2c0.1-0.4-0.2-0.4,0.1-0.9c0.3-0.5,1.4-0.7,1.9-1.2C22.8,28.5,22.8,28.4,22.4,28.3z"/>
	<path fill="#F0E23C" d="M20.2,23.2c0,0,2.1,0.3,3.1,2.6c1,2.3,0.8,3.1,0.2,4c-0.6,0.9-0.8,1-1.6,1.4c-0.8,0.4-1.3,1.1-1.3,1.1
		s0.6-1,1.3-1.5c0.7-0.5,1.6-1.7,1.5-2.5c-0.1-0.9-0.8-0.7-0.7-1.5c0.1-0.8-0.4-1.8-1.1-2.4c-0.7-0.6-2.8-0.5-3.7-0.7
		c-1-0.2-2-0.6-2,0c0,0.6,0.2,1.2,0,1.6c-0.2,0.4,0.7,0.7,1,2.1c0.3,1.4,0.3,2.3,0.1,2.8c-0.1,0.5,0.2,1.4-0.2,2
		c-0.4,0.6-0.7,0.6-0.9-0.3c-0.2-1-0.2-2.9-0.8-3.9c-0.5-1.1-1.1-2.8-1-3.6c0.1-0.8,0.3-1.2,1.1-1.2c0.8,0,2.5,0.2,3.1,0.2
		C18.9,23.1,19.7,23.1,20.2,23.2z"/>
	<path fill="#F0E23C" d="M21.9,26.5c0,0,0.2,0.7-0.4,1.2c-0.6,0.5-1,1-0.7,0.3C21.1,27.2,21.5,26.5,21.9,26.5z"/>
	<path fill="#F0E23C" d="M22,31.5c0,0,0.9,0.9,0.2,2.4c-0.7,1.5-1.3,1.9-1.8,2c-0.5,0.1-0.5,0.1-0.5,0.1s1-0.7,1.2-1.1
		c0.2-0.3,0.1-0.6,0.4-2C22,31.7,22,31.5,22,31.5z"/>
	<path fill="#F69321" d="M17.9,24.6c0,0,0.2,0.3,0.2,0.6c0,0.3-0.1,0.5-0.1,0.5s0.8,1,0.9,1.8c0.1,0.9,0.1,1.5,0,1.8
		c0,0.3-0.1,0.4-0.1,0.4s0.9-0.6,1.2-0.8c0.3-0.2,0.3-0.2,0.3-0.2s0-1.1,0.6-1.7c0.6-0.6,0.8-0.7,0.8-0.7s-0.5-0.1-0.9,0
		c-0.4,0.2-0.4-0.5-0.4-0.5s-0.9,0-1.4-0.3C18.5,25.3,18.2,24.7,17.9,24.6z"/>
	<path fill="#F69321" d="M14.7,28.2c0,0,0.3,0.7,0.6,2.2c0.2,1.5,0.4,2.4,0.6,2.9c0.2,0.6,0.4,0.8,0.4,0.8s-0.3,0.1-0.8-0.2
		c-0.4-0.3-0.5-1-0.5-2.6c0-1.5-0.6-2-0.6-2.5C14.4,28.3,14.6,28,14.7,28.2z"/>
	<path fill="#F69321" d="M14.3,34.2c0,0-0.1,0.4,0.7,0.8c0.8,0.5,1.4,0.2,1.6-0.1c0.1-0.3,0.1-0.5,0.1-0.5s-0.5,0.3-1.2,0.1
		C14.8,34.5,14.3,34.2,14.3,34.2z"/>
	<path fill="#F69321" d="M18.5,30.1c0,0-0.6,0.7-0.8,1.6c-0.2,0.9-0.1,1.3-0.1,1.3s-0.4,0.7-0.6,0.6c-0.2-0.1-0.1-0.8,0.1-1.8
		c0.3-0.9,0.5-2.2,0.4-3.8c-0.1-1.6-0.8-2.6-0.8-2.6s0.4,0,0.9,0.7c0.5,0.7,0.8,1.7,0.8,2.5C18.6,29.3,18.5,30.1,18.5,30.1z"/>
	<path fill="#F69321" d="M22.3,32c0,0-0.8,0-1,0.7c-0.1,0.7-0.1,1.8-0.8,2.4c-0.7,0.6-0.3,0.9-0.3,0.9s-0.2,0.2-0.7,0.1
		c-0.4-0.2-0.7-0.4-0.7-0.4l0.2-0.5c0,0,1.5,0,1.6-0.8c0.1-0.8-0.1-1.2-0.1-1.2s0-0.4,0.5-1c0.5-0.6,0.8-0.6,0.8-0.6
		S22.2,31.4,22.3,32z"/>
	<path fill="#FFFFFF" d="M22.4,28.4c0,0-3.1,1.2-3.6,2.3c-0.5,1.1-0.6,2.4,0,3.2c0.6,0.9,1.4,0.7,1.4,0.7s-0.3,0.7-1.2,0
		c-0.9-0.6-1.6-2.4-0.7-3.8C19.2,29.5,21.6,28.4,22.4,28.4z"/>
	<path fill="#FFFFFF" d="M14.8,23.1c0,0,0.5,0.6,0.2,1.2c-0.3,0.6-0.4,0.9,0,2c0.4,1,1.1,2.6,1.2,4c0.1,1.4,0,2.2,0.3,2.8
		c0.3,0.6,0.7,0.5,0.7,0.5s-0.4,0.5-0.9,0.1c-0.5-0.5-0.7-2.5-0.9-4c-0.1-1.5-1.1-2.6-1.4-4C13.9,24.1,14.1,23.2,14.8,23.1z"/>
	<path fill="#FFFFFF" d="M14.3,28.3c0,0-0.7,0.4-0.8,1.6c-0.1,1.1,0.2,1.5,0.5,2.4c0.3,0.9,0.7,1.6,1.1,1.8c0.4,0.2,0.9,0.2,0.9,0.2
		s-0.2,0.3-1-0.1c-0.8-0.5-1.9-1.7-2-3.3C12.9,29.3,13.5,28.4,14.3,28.3z"/>
	<path fill="#FFFFFF" d="M14.4,34.3c0,0-0.2,0.9,0.2,1.6c0.4,0.7,1.6-0.3,1.8-0.7c0.3-0.3,0.3-0.6,0.3-0.6s-0.2,0.9-1,1.4
		c-0.8,0.4-1,0.7-1.5,0C13.8,35.2,14,34.2,14.4,34.3z"/>
</g>
</svg>
