<?xml version="1.0" encoding="utf-8"?>
<!-- Generator: Adobe Illustrator 18.0.0, SVG Export Plug-In . SVG Version: 6.00 Build 0)  -->
<!DOCTYPE svg PUBLIC "-//W3C//DTD SVG 1.1//EN" "http://www.w3.org/Graphics/SVG/1.1/DTD/svg11.dtd">
<svg version="1.1" id="Layer_1" xmlns="http://www.w3.org/2000/svg" xmlns:xlink="http://www.w3.org/1999/xlink" x="0px" y="0px"
	 viewBox="0 0 82 82" enable-background="new 0 0 82 82" xml:space="preserve">
<g>
	<g>
		<path fill="#64427E" d="M75,62.2c0,0-1.7-1.2-2.4-1.3c-0.8-0.1-1.6,0.4-1.3,1.7c0.3,1.3,3.1,3.3,4.2,2.8c1.1-0.5,1-0.9,0.8-1.4
			C76.1,63.4,75,62.2,75,62.2z"/>
		<path fill="#FFFFFF" d="M57.4,58.3l-0.5,2.5L54,60.6c0,0-0.4-2-0.5-3.2c-0.1-1.2,0-1.5,0-1.5L57.4,58.3z"/>
		<path fill="#010101" d="M53.1,27.5c0,0,1.1,0.2,0.9,2c-0.2,1.8-0.5,2.3-1.1,2.4c-0.6,0-0.8,0-0.8,0l-3.1-2.3
			C48.9,29.5,52.7,29.1,53.1,27.5z"/>
		<linearGradient id="SVGID_1_" gradientUnits="userSpaceOnUse" x1="62.7689" y1="45.3959" x2="74.1374" y2="45.3959">
			<stop  offset="0" style="stop-color:#F0E23C"/>
			<stop  offset="0.1343" style="stop-color:#F0DE3B"/>
			<stop  offset="0.299" style="stop-color:#EED437"/>
			<stop  offset="0.4796" style="stop-color:#ECC332"/>
			<stop  offset="0.6715" style="stop-color:#E9AA2C"/>
			<stop  offset="0.8705" style="stop-color:#E68C26"/>
			<stop  offset="0.9212" style="stop-color:#E58425"/>
		</linearGradient>
		<path fill="url(#SVGID_1_)" d="M65.5,36.3c0,0,1.3,1.8-0.5,7.3c-1.7,5.5-2.3,7.4-2.3,7.4s0.3,1.6,0.9,2c0.5,0.5,0.5,0.5,0.5,0.5
			s1.2,2.5,3.2,1.7c2-0.8,2.3-2.6,2.3-3.4c0-0.8,0.7-1.5,0.7-1.5s0.2,1.1,1.6,0.7c1.3-0.4,2-2.4,1.4-3.4c-0.6-1-2.1-1-2.1-1
			s2.2-4.6,2.6-6.1c0.4-1.5,0.5-3.3-0.7-3.4c-1.2-0.1-2.1,1.7-2.6,2.6c-0.5,0.9-2.7,4.2-2.7,4.2l0.4-1.8c0,0,0.3-2.6,0.3-4.2
			c0-1.6-1.6-2.2-1.6-2.2S65.5,35.1,65.5,36.3z"/>
		<linearGradient id="SVGID_2_" gradientUnits="userSpaceOnUse" x1="5.5726" y1="36.8976" x2="16.3995" y2="36.8976">
			<stop  offset="0" style="stop-color:#F0E23C"/>
			<stop  offset="0.1343" style="stop-color:#F0DE3B"/>
			<stop  offset="0.299" style="stop-color:#EED437"/>
			<stop  offset="0.4796" style="stop-color:#ECC332"/>
			<stop  offset="0.6715" style="stop-color:#E9AA2C"/>
			<stop  offset="0.8705" style="stop-color:#E68C26"/>
			<stop  offset="0.9212" style="stop-color:#E58425"/>
		</linearGradient>
		<path fill="url(#SVGID_2_)" d="M9.2,36.8c0,0-2-1.3-2.8-0.2c-0.8,1.1-1.1,2.3-0.5,3.1c0.6,0.8,1.9,0.6,1.9,0.6s-0.9,3.2-0.5,5
			c0.4,1.8,1.4,2,2.6,1.8c1.2-0.2,1.8-0.7,1.8-0.7s1.8-5,2.6-7.1c0.9-2,1.9-3.1,1.9-3.1s-0.3-0.5-0.2-2.4c0.2-2,0.3-6.7,0.3-6.7
			s-0.7-0.9-2.3,0.3c-1.6,1.2-1.4,2.7-1.4,3.6c0,0.9,0,3.5,0,3.5L11.9,34l-3.2-4.8c0,0-3.3-1-3.1,1.2c0.2,2.3,2.3,3.8,2.3,3.8l2,2
			l0.2,0.9L9.2,36.8z"/>
		<radialGradient id="SVGID_3_" cx="33.3458" cy="39.6831" r="29.6221" gradientUnits="userSpaceOnUse">
			<stop  offset="0" style="stop-color:#F0E23C"/>
			<stop  offset="0.1155" style="stop-color:#F0DE3B"/>
			<stop  offset="0.2572" style="stop-color:#EED437"/>
			<stop  offset="0.4126" style="stop-color:#ECC332"/>
			<stop  offset="0.5777" style="stop-color:#E9AA2C"/>
			<stop  offset="0.7488" style="stop-color:#E68C26"/>
			<stop  offset="0.7925" style="stop-color:#E58425"/>
			<stop  offset="0.9719" style="stop-color:#F3A91D"/>
		</radialGradient>
		<path fill="url(#SVGID_3_)" d="M41.1,26.6c0,0-11.6-2.7-21.4,6.4c-9.8,9.1-8.4,18.3-7,23c1.4,4.7,3.4,6.3,3.4,6.3s2.2,5.5,8.8,6.1
			c6.6,0.6,8.7-3.5,8.9-4c0.1-0.6,0.4-0.4,0.4-0.4s4.5,4,8.8,5c4.3,1,10.9-3.1,10.9-3.1s2.3,0.2,2.4-1c0.2-1.3-2-3.3-2-3.3
			s-0.7-3.3-0.8-4c-0.1-0.7,0-1.5,0-1.5s0.5,1.5,2,1.9c1.5,0.4,2.9-0.3,2.9-0.3l0.9-3.2c0,0,1-3.4,0.4-6.6c-0.6-3.2-0.6-3.6-0.6-3.6
			s2.7-0.3,2.2-1.7c-0.4-1.3-1.2-3-1.9-3.9c-0.7-0.9-2.3-1.1-2.3-1.1l-0.9-0.1c0,0-3.1-4.6-7.2-7.3C45,27.4,41.1,26.6,41.1,26.6z"/>
		<radialGradient id="SVGID_4_" cx="23.5574" cy="57.7198" r="11.6741" gradientUnits="userSpaceOnUse">
			<stop  offset="0" style="stop-color:#F0E23C"/>
			<stop  offset="0.1155" style="stop-color:#F0DE3B"/>
			<stop  offset="0.2572" style="stop-color:#EED437"/>
			<stop  offset="0.4126" style="stop-color:#ECC332"/>
			<stop  offset="0.5777" style="stop-color:#E9AA2C"/>
			<stop  offset="0.7488" style="stop-color:#E68C26"/>
			<stop  offset="0.7925" style="stop-color:#E58425"/>
			<stop  offset="0.9719" style="stop-color:#F3A91D"/>
		</radialGradient>
		<path fill="url(#SVGID_4_)" d="M32,58.7c0,3.5,5.9,11.3-9.1,9.1c-3.9-0.5-8.1-5.8-8.1-9.2c0-8.1,5.2-7.2,7-7.2
			C25.7,51.4,32,55.2,32,58.7z"/>
		<radialGradient id="SVGID_5_" cx="41.4863" cy="57.7039" r="10.9612" gradientUnits="userSpaceOnUse">
			<stop  offset="0" style="stop-color:#F0E23C"/>
			<stop  offset="0.1274" style="stop-color:#F0DF3B"/>
			<stop  offset="0.2647" style="stop-color:#EFD638"/>
			<stop  offset="0.4066" style="stop-color:#EDC734"/>
			<stop  offset="0.5516" style="stop-color:#EAB22E"/>
			<stop  offset="0.6976" style="stop-color:#E79728"/>
			<stop  offset="0.7925" style="stop-color:#E58425"/>
			<stop  offset="0.9719" style="stop-color:#F3A91D"/>
		</radialGradient>
		<path fill="url(#SVGID_5_)" d="M51.3,59.8c0,4.6,6.7,10-9.1,9c-5.1-0.3-10.1-5.1-10.1-9.7c0-2.5,0.4-4.6,2-6.5
			c1.3-1.5,4.1-2.3,6.4-2.3C45.7,50.3,51.3,55.2,51.3,59.8z"/>
		<path fill="#F06724" d="M16.7,26.6c0-0.2-0.2-0.3-0.3-0.2c-0.8-1-2.6,0.5-3.2,1.2c-1.5,1.6-0.6,4-1,6.1c-1-1.6-2.2-3.3-3.6-4.5
			c-0.8-0.7-2-0.9-2.9-0.2c-1.2,1.1-0.4,3.1,0.3,4.2c0.4,0.7,1,1.3,1.6,1.8c0.5,0.4,1.4,1,1.8,1.7c-0.9-0.6-2-1-3-0.5
			c-1.1,0.5-1.3,2-1.2,3C5.4,40,5.9,41,7,40.9c0.1,0,0.2,0,0.3-0.1c0,0.1-0.1,0.2-0.1,0.4c-0.2,0.7-0.5,1.4-0.6,2.2
			c-0.2,1,0,2.2,0.5,3.1c0.9,1.5,4.1,1.8,4.6-0.1c0.1-0.3-0.4-0.6-0.6-0.4C10.3,47,9,47,8,46.1c-0.8-0.8-0.5-2.7-0.3-3.6
			c0.4-1.3,0.9-2.7,0.2-3.8c-0.1-0.2-0.1-0.3-0.2-0.5c-0.1-0.2-0.3-0.2-0.4-0.1c0,0-0.1-0.1-0.1-0.1C7,38,6.7,38.2,6.9,38.4
			c0.3,0.6,0.5,1,0.5,1.5c-0.1,0.2-0.4,0.3-0.7,0.2C6.1,39.8,6,38.8,6,38.3c0-0.7,0.3-1.4,1.1-1.6C8,36.5,9,37.1,9.7,37.6
			c0.1,0.1,0.1,0.1,0.2,0.2c0.1,0,0.1,0.1,0.2,0.1c0.2,0.1,0.4-0.2,0.3-0.4c0,0,0-0.1,0-0.1c0-0.9-0.6-1.6-1.2-2.2
			c-1.2-1.1-2.3-1.9-3-3.4C6,31,5.8,29.6,6.8,29.3c0.9-0.3,1.7,0.8,2.2,1.3c1.2,1.4,2.2,3,3.5,4.2c0.2,0.2,0.4,0,0.3-0.2
			c0,0,0-0.1,0-0.1c0,0,0.1-0.1,0.1-0.1c0.6-1.6,0.1-3.4,0.4-5.1c0.2-1.1,1.8-2.8,3-2.3c-0.4,1.3-0.4,2.8-0.5,4.1
			c-0.1,1.7-0.2,3.4-0.2,5c0,0.5,0.8,0.5,0.8,0c0-1.5,0.1-3,0.1-4.5C16.5,30,16.8,28.3,16.7,26.6z"/>
		<path fill="#F06724" d="M38.1,58.2c0,0-0.1,0-0.1,0c0.1,0,0,0-0.1,0c-0.1,0-0.2,0-0.3-0.1c-0.1-0.1-0.3-0.2-0.4-0.3
			c-0.1-0.1,0-0.1,0.1-0.1c0.1,0,0.5,0.1,0.6,0.2c0.2,0.2,0.5,0,0.4-0.2c-0.3-0.6-1.7-0.9-1.8,0.1c-0.1,0.7,1,1.4,1.6,1
			C38.4,58.5,38.4,58.2,38.1,58.2z"/>
		<path fill="#F06724" d="M41.1,58.2c0,0-0.1-0.1-0.1-0.1c-0.1,0-0.2,0-0.3,0c-0.1,0-0.2,0-0.2,0.1c-0.2,0.4,0.2,0.6,0.5,0.5
			C41.4,58.8,41.4,58.3,41.1,58.2z"/>
		<path fill="#F06724" d="M41.9,61c-0.3-0.2-0.6-0.3-1-0.2c-0.3,0.2-0.4,0.6-0.2,0.9c0.4,0.6,1.3,0.3,1.2-0.4
			C42.1,61.2,42.1,61.1,41.9,61z"/>
		<path fill="#F06724" d="M29.2,61.3c0-0.1,0-0.2-0.1-0.3c-0.5-0.3-1.3-0.3-1.5,0.3c-0.3,0.6,0.3,1,0.8,0.9c0.2,0,0.3-0.1,0.3-0.3
			c0-0.1,0-0.1,0-0.2c0-0.1-0.2-0.2-0.3-0.2c-0.1,0-0.3,0-0.3,0c0,0,0,0,0,0c0,0,0,0,0,0c0.1-0.2,0.3-0.2,0.5-0.1c0,0,0,0,0,0
			c0,0.2,0.3,0.3,0.4,0.1c0,0,0,0,0,0C29.1,61.4,29.2,61.4,29.2,61.3z"/>
		<path fill="#F06724" d="M20.4,63.3c-0.1-0.3-0.3-0.5-0.6-0.4c-0.2,0.1-0.3,0.4-0.3,0.6c0,0.2,0,0.5,0.2,0.6
			c0.4,0.2,0.7-0.1,0.8-0.5C20.6,63.4,20.5,63.3,20.4,63.3z"/>
		<path fill="#F06724" d="M22.6,56.6c-0.4-0.8-1.5-0.8-2.1-0.4c-0.5,0.4-0.8,1.2-0.3,1.7c0.4,0.4,1.1,0.5,1.6,0.3
			c0.6-0.1,0.7-0.7,0.3-1.1c-0.2-0.2-0.5,0-0.4,0.3c0.1,0.1,0.1,0.2,0.1,0.2c0,0-0.2,0.1-0.2,0.1c-0.3,0.1-0.6,0-0.9-0.2
			c-0.3-0.2-0.1-0.6,0-0.8c0.4-0.4,1.3-0.5,1.6,0C22.4,57,22.7,56.8,22.6,56.6z"/>
		<path fill="#F06724" d="M26.1,65.7c-0.2,0-0.4,0-0.6,0.1c-0.2,0.1-0.3,0.4-0.2,0.6c0,0.1,0.1,0.1,0.2,0.1c0.2-0.1,0.3-0.3,0.6-0.3
			C26.4,66.1,26.4,65.7,26.1,65.7z"/>
		<path fill="#F06724" d="M51.6,50.5c-2.5,1.1-2.9,5.3-0.8,6.9c0.2,0.1,0.3-0.1,0.3-0.3c-0.5-1-0.9-1.9-0.8-3.1
			c0.1-1,0.6-2.1,1.4-2.7c1.1-0.8,2.4,0,3.1,0.9c0.8,1,0.8,2.1,0.8,3.3c0,0.2,0.3,0.3,0.4,0.1C57.3,53.3,54.4,49.3,51.6,50.5z"/>
		<path fill="#F06724" d="M74,37.1c-1.1-1-2.4,0.1-3,1c-1,1.6-1.5,3.5-2.6,5c0-0.5,0.2-1,0.4-1.4c0.2-0.7,0.3-1.5,0.4-2.2
			c0.1-1.2-0.2-2.4-0.8-3.3c-0.8-1.2-3.3-1.4-3,0.4c0,0.1,0.1,0.1,0.1,0.2c0.4,2.1-0.3,4.2-0.7,6.2c-0.5,2.6-1.1,5.2-2,7.8
			c0,0.1,0,0.1,0,0.2c-0.1,0.4-0.1,0.9,0,1.4c0.1,0.6,0.6,1.3,1.2,1.4c0.1,0.6,0.6,1,1.1,1.4c0.8,0.7,2,0.7,3,0.3
			c1-0.4,1.7-1.4,2.1-2.3c0.2-0.5,0.4-1.3,0.3-2c1.4,1.1,3.5-0.2,3.6-2.1c0.1-1.2-0.4-2.3-1.5-2.7c-0.2-0.1-0.6-0.2-1-0.2
			c0.9-1.9,1.7-3.9,2.8-5.7C74.9,39.4,74.8,37.9,74,37.1z M73,41.5c-0.8,1.8-1.7,3.7-2.7,5.4c-0.3,0.4,0.4,0.8,0.7,0.4
			c0.1-0.1,0.2-0.3,0.2-0.4c0.4-0.2,1.1,0.1,1.4,0.2c0.7,0.4,0.8,1.4,0.7,2.1c-0.3,1.2-1.7,2-2.5,1.1c0.3-0.3,0.4-0.7,0.3-1.3
			c0-0.3-0.4-0.3-0.6-0.2l-0.2,0.1c-0.3,0.2-0.2,0.5,0,0.7c0,0.1-0.1,0.2-0.2,0.2c-0.2,0.1-0.3,0.3-0.3,0.5
			c-0.1,0.3-0.1,0.6-0.2,0.9c-0.1,0.8-0.3,1.6-0.7,2.4c-0.5,0.8-1.4,1.2-2.3,1.3c-0.7,0-1.9-0.8-1.8-1.5c0-0.2-0.1-0.3-0.2-0.4
			c-0.1-0.1-0.2-0.1-0.3-0.1c-0.2,0-0.3,0-0.4-0.1c-0.2-0.2-0.2-0.5-0.3-0.7c-0.1-0.2-0.1-0.5-0.1-0.8c0,0,0.1-0.1,0.1-0.2
			c0.5-1.4,0.9-2.9,1.3-4.4c0.2,0.1,0.5,0.1,0.6-0.2c0.1-0.6,0.2-1.2-0.2-1.7c0.2-0.7,0.3-1.5,0.4-2.2c0.3-1.9,1.1-4.2,0.1-6
			c0.2-1.1,1.5-0.4,1.9,0.1c0.2,0.3,0.4,0.7,0.5,1.1c0.3,1.1,0.2,2.1,0,3.2c-0.2,0.9-0.6,1.8-0.5,2.6c-0.1,0-0.3,0-0.4,0
			c-0.4,0.1-0.3,0.6,0,0.7c0.2,0.1,0.5,0.2,0.7,0.3c0.2,0.1,0.4,0.3,0.6,0.5c0.1,0.1,0.4,0.1,0.4-0.2c0-0.2-0.1-0.4-0.3-0.6
			c0.9-1.1,1.3-2.3,2-3.5c0.5-1,1.1-3.2,2.6-3C74.9,37.8,73.3,40.8,73,41.5z"/>
		<path fill="#F06724" d="M68.3,46.5c-0.1-0.3-0.5-0.3-0.5,0c-0.1,0.2-0.1,0.4-0.1,0.6c-0.1,0.4,0.5,0.6,0.7,0.2
			C68.4,47,68.4,46.7,68.3,46.5z"/>
		<path fill="#F06724" d="M13.3,36.4c-0.1-0.4-0.4-0.5-0.6-0.8c-0.2-0.2-0.6,0.1-0.4,0.3c0.1,0.2,0.2,0.4,0.3,0.6
			c0.1,0.2,0,0.4,0,0.7c0,0.4,0.5,0.5,0.7,0.2C13.4,37.1,13.4,36.7,13.3,36.4z"/>
		<path fill="#F06724" d="M11.1,39.6c-0.1-0.2-0.3-0.4-0.5-0.6c-0.2-0.1-0.5-0.1-0.5,0.2c0,0.3,0.2,0.6,0.4,0.8
			C10.8,40.4,11.2,39.9,11.1,39.6z"/>
		<path fill="#010101" d="M60.2,29.1c0-0.1,0-0.2,0-0.2c0-0.2-0.4-0.2-0.5,0c0,0.1-0.1,0.2-0.1,0.4c-0.1,0.1-0.1,0.2-0.1,0.3
			c-0.5,2-1.2,3.9-2.7,5.5c-0.2,0.2-0.2,0.5,0.1,0.7C61.5,38.1,64.9,30.1,60.2,29.1z M57.9,35.1c1.2-1.5,2.2-3.3,2.3-5.2
			C63.3,31,61,36.1,57.9,35.1z"/>
		<path fill="#010101" d="M53.1,27.3C53.1,27.3,53.1,27.2,53.1,27.3c-0.1-0.2-0.3-0.2-0.3-0.1c-0.3,1.6-2.9,1.8-4.2,1.9
			c-0.6,0.1-0.5,0.8,0,0.8c0,0,0,0,0,0c1.1-0.1,4.6-0.5,4.6-2.1c0.8,0.5,0.7,1.8,0.5,2.6c-0.1,0.5-0.3,1-0.7,1.3
			c-0.4,0.3-0.7,0-1.1,0.2c-0.1,0.1-0.1,0.2-0.1,0.3c0.2,0.7,1.1,0.5,1.5,0.3c0.7-0.3,1-1.2,1.2-1.8C54.8,29.5,54.7,27.2,53.1,27.3z
			"/>
		<path fill="#C0BFBF" d="M57.3,58c0-0.1-0.2-0.1-0.3,0c-0.4,0.6-0.5,1.4-0.5,2.1c-0.9,0.1-2.1,0.2-2.9-0.2
			c-0.1-0.1-0.2,0.1-0.2,0.2c0.6,1.1,2.4,0.8,3.4,0.7c0.2,0,0.3-0.1,0.3-0.3C57.2,59.6,57.5,58.7,57.3,58z"/>
		<path fill="#C0BFBF" d="M61.3,43.7c-0.1-0.2-0.4-0.1-0.3,0.1c0.4,1.4,0.4,2.7,0.2,4.1c-0.1,1-0.4,2.6-1.2,3.2
			c-0.2,0.2-0.1,0.6,0.2,0.5c1-0.4,1.3-2.1,1.5-3C61.9,47.1,62.2,45.1,61.3,43.7z"/>
		<path fill="#414142" d="M60.3,45.4c-0.1-0.2-0.2-0.3-0.3-0.2c-0.1,0-0.2,0.1-0.3,0.2c-0.1,0.1-0.1,0.4,0,0.5c0,0,0.1,0,0.1,0.1
			c0.1,0.5,0.2,1.1-0.1,1.5c-0.4,0.6,0.2,1.5,0.6,0.9C60.9,47.5,60.8,46.2,60.3,45.4z"/>
		
			<radialGradient id="SVGID_6_" cx="41.4953" cy="118.2408" r="15.9739" gradientTransform="matrix(0.779 0 0 0.7144 3.775 -59.345)" gradientUnits="userSpaceOnUse">
			<stop  offset="0" style="stop-color:#FFFFFF"/>
			<stop  offset="0.6763" style="stop-color:#F4E87E"/>
			<stop  offset="0.9719" style="stop-color:#F0E23C"/>
		</radialGradient>
		<ellipse fill="url(#SVGID_6_)" cx="36.4" cy="35.6" rx="14.1" ry="9.6"/>
		<path fill="#F06724" d="M56.7,37.1c-0.4-0.6-0.8-1.2-1.2-1.8c-2.3-3.1-5.6-5.5-9.1-7.2c-3.2-1.6-7.7-3.2-11.3-2.2
			c-0.3,0.1-0.2,0.5,0.1,0.5c1.8,0.1,3.5,0.1,5.3,0.5c1.9,0.4,3.8,1.1,5.6,2c3.3,1.6,6.4,4,8.7,6.9c4.2,5.5,6,14.2,3.3,20.7
			c0,0,0,0.1,0,0.1c-0.3,0.6-0.7,1.1-1.6,1.2c-0.6,0-1.2-0.3-1.7-0.7c-0.4-0.3-1.3-1.4-0.9-1.9C54,55,54.3,55,54.6,55
			c0.2,0.1,0.4-0.2,0.2-0.4c-1.5-1.4-4.4,2.2-2.7,2.9c0.3,0.1,0.6-0.1,0.5-0.5c-0.2-0.5,0.1-1.1,0.6-1.5c0,0.2,0,0.3,0,0.5
			c-0.6,2.2,0.2,4.5,1.5,6.3c0.4,0.5,0.7,1,0.9,1.6c0.4,1.3-1.2,2.1-2,1c-0.5-0.7-0.6-1.6-1-2.4c-0.1-0.2-0.4-0.1-0.4,0.1
			c0,0.9,0.4,2.1,1.1,2.9c0,0,0,0,0,0c-3.2,3-7.5,3.5-11.5,2.4c0-0.1,0.1-0.1,0.2-0.2c0.2-0.2-0.1-0.5-0.3-0.3
			c-0.2,0.1-0.3,0.2-0.4,0.4c-1.3-0.4-2.6-1-3.8-1.7c-2.6-1.6-4.4-3.8-4.7-6.8c-0.2-1.6-0.1-3.5,0.5-5.1c0.1,0,0.1-0.2,0.1-0.3
			c0.1-0.2,0.2-0.2,0.2-0.4c0.3-0.5,0.7-0.9,1.1-1.3c0.2-0.2-0.1-0.4-0.3-0.3c-0.4,0.2-0.7,0.4-0.9,0.6c0,0,0-0.1,0-0.1
			c-0.1-0.7-0.4-1.2-0.9-1.7c-0.1-0.1-0.3,0-0.3,0.2c0.3,0.6,0.4,1.3,0.5,1.9c0,0.2,0,0.4,0,0.6c-1,1.6-1.1,3.8-1,5.6
			c0.1,1.9,0.6,3.5,1.6,4.8c0,0,0,0,0,0c-1.1,4.5-7.8,4.6-11.2,3.4c-2.4-0.8-4.3-2.6-5.6-4.8c-0.8-1.3-1.3-2.8-1.5-4.4
			c-0.3-2.8,0.4-3,0.7-4.6c0.1-0.3-0.3-0.4-0.4-0.2c-2,2.7-1.1,6.5,0.3,9.3c0.6,1.1,1.3,2.1,2.2,3c0,0,0,0,0,0
			c-0.4,0-1.1,0.2-1.2,0.6c0,0.1,0,0.2,0.2,0.2c0.4,0,0.6-0.5,1-0.5c0.1,0,0.2-0.1,0.2-0.2c0.2,0.2,0.5,0.4,0.7,0.6c0,0,0,0-0.1,0
			c-0.3,0.1-0.8,0.5-0.7,0.9c0,0.1,0.1,0.1,0.2,0.1c0.3-0.2,0.3-0.5,0.7-0.7c0.1,0,0.1-0.1,0.1-0.2c0.2,0.2,0.5,0.3,0.7,0.5
			c-0.1,0.2-0.1,0.4,0,0.6c0,0.1,0.1,0.1,0.2,0c0.1-0.1,0.1-0.3,0.1-0.4c0.3,0.2,0.6,0.3,0.9,0.5c0.1,0.2,0.2,0.5,0.4,0.6
			c0.1,0,0.2,0,0.2-0.1c0-0.1,0-0.2,0-0.2c0.2,0.1,0.4,0.2,0.6,0.3c2.4,0.9,5.1,0.9,7.5,0.2c2-0.5,4.2-1.9,4.3-4.1
			c0.6,0.8,1.3,1.4,2.2,2.1c1.3,1,2.8,1.8,4.4,2.3c-0.1,0.1-0.2,0.2-0.2,0.3c0,0.1,0.1,0.2,0.2,0.2c0.2,0,0.3-0.2,0.5-0.3
			c0,0,0,0,0,0c0.4,0.1,0.8,0.2,1.2,0.3c0,0.3,0.1,0.7,0.5,0.7c0.1,0,0.1-0.1,0.1-0.1c0-0.2-0.1-0.3-0.1-0.4c0.2,0,0.5,0.1,0.7,0.1
			c0,0,0,0.1,0,0.2c0.1,0.3,0.2,0.6,0.4,0.8c0.1,0.1,0.1,0.1,0.2,0.1c0.1-0.1,0.2-0.2,0.1-0.3c-0.1-0.2-0.3-0.4-0.3-0.6
			c3.7,0.5,7.5-0.4,10.3-3.1c0,0,0-0.1,0.1-0.1c0.6,0.3,1.3,0.3,2-0.4c0.9-0.9,0.5-2.2,0-3.1c-0.6-1-1.2-1.8-1.6-2.8
			c-0.4-0.9-0.5-1.9-0.6-2.8c0.4,0.6,1,1,1.7,1.3c1.5,0.6,3.5-0.2,3.5-1.9c1.8-3.1,1.5-7.2,1-10.6c-0.4-2.8-1.3-5.5-2.7-8
			c1.1,0.3,2,0.8,2.7,1.9c0.7,1.1,1.1,2.5,1.2,3.8c0.1,0.5,0.8,0.5,0.8,0C61.8,41.1,59.8,36.4,56.7,37.1z"/>
		<path fill="#010101" d="M63.8,45.4c-0.2-0.1-0.4-0.2-0.5-0.4c0.6,0.1,1.1,0,1.2-0.6c0-0.2-0.2-0.3-0.3-0.1c-0.2,0.3-0.8,0-1.2-0.3
			c0.4-0.1,0.8-0.3,0.9-0.7c0.1-0.2-0.3-0.3-0.4-0.1c-0.1,0.3-0.7,0.1-0.9,0.1c-0.4-0.1-0.5-0.3-0.7-0.6c0-0.1-0.1-0.1-0.2-0.1
			c0,0,0,0-0.1-0.1c-0.1-0.1-0.2-0.1-0.3-0.1c0,0,0,0,0-0.1c0.1-0.2-0.2-0.3-0.3-0.1c-0.2,0.3-0.7,0.6-1,0.8c-0.4,0.2-0.7,0.4-0.9,0
			c-0.3-0.4-0.9-0.2-0.8,0.3c0,0,0,0,0,0.1c-0.2,0-0.3,0.1-0.4,0.3c-0.1,0.6,0.3,0.8,0.8,0.8c0.1,0.1,0.1,0.1,0.2,0.2
			c0.3,0.2,0.6,0.3,1,0.4c0,0,0,0,0,0.1c0,0.5,0.2,0.9,0.6,1.3c0.1,0.1,0.4,0,0.3-0.2c-0.1-0.4-0.2-0.7-0.3-1.1c0.2,0,0.3,0,0.5-0.1
			c0,0.1,0.1,0.2,0.1,0.4c0.2,0.6,0.6,1,1.2,1.2c0.2,0.1,0.3-0.2,0.1-0.4c-0.5-0.3-0.7-0.9-0.9-1.5c0,0,0-0.1,0-0.1
			c0,0,0-0.1,0.1-0.1c0.4,0.4,0.9,0.8,1.5,1.2c0.3,0.2,0.8,0.5,1.1,0.4c0.1,0,0.1-0.2,0.1-0.3C64.3,45.6,64,45.5,63.8,45.4z"/>
		<path fill="#F06724" d="M37.8,25.7c-9.1-0.5-18.1,4.3-23,12c-2.5,3.9-3.5,8.2-3.5,12.8c0.1,4,0.8,8.3,3.7,11.3
			c0.3,0.3,0.8-0.2,0.5-0.5C13,58.1,12.4,54,12.3,50c-0.1-4.5,1.2-8.5,3.6-12.3c2.2-3.6,5.4-6.2,9-8.2c1.9-1,4-1.8,6.1-2.4
			c2.3-0.6,4.6-0.5,6.9-1C38.2,26.1,38.1,25.7,37.8,25.7z"/>
		<ellipse fill="#F0E23C" cx="19.8" cy="53.8" rx="2.1" ry="1.6"/>
		<ellipse fill="#F0E23C" cx="23.6" cy="54.3" rx="0.6" ry="0.7"/>
		<ellipse fill="#F0E23C" cx="39.3" cy="55" rx="2.1" ry="1.7"/>
		<ellipse fill="#F0E23C" cx="43" cy="55.6" rx="0.7" ry="0.6"/>
		<ellipse fill="#FBF4D6" cx="41.9" cy="32.4" rx="2.6" ry="1.8"/>
		<ellipse fill="#FBF4D6" cx="46.1" cy="33.1" rx="1.2" ry="1"/>
		<path fill="#ECC631" d="M34.6,52.1c0,0-3.7,2.5-2,8.3c1.7,5.9,8.9,8.4,14.1,8.2c5.2-0.2,6.5-3,6.5-3l-0.4-0.4c0,0-1.9,3-8.5,2.6
			C37.7,67.4,28.4,59,34.6,52.1z"/>
		<path fill="#ECC631" d="M15.8,53.5c0,0-2.7,4.3,0.9,9.3c3.6,5,8.4,6.2,13,4.5c0,0,2.1-0.8,2.9-1.9c0.8-1.2,0.8-1.5,0.8-1.5
			l-0.5-0.7c0,0-1,3.2-5.7,3.9C22.4,67.7,12.6,61.9,15.8,53.5z"/>
		<ellipse fill="#FBF4D6" cx="39.7" cy="53.8" rx="1" ry="0.8"/>
		<ellipse fill="#FBF4D6" cx="41.6" cy="54" rx="0.4" ry="0.3"/>
		<ellipse fill="#FBF4D6" cx="21.3" cy="53.1" rx="1" ry="0.6"/>
		<ellipse fill="#FBF4D6" cx="23.2" cy="53.3" rx="0.4" ry="0.3"/>
		<path fill="#F06724" d="M26.9,66.3c-0.1,0.2-0.2,0.6,0,0.8c0,0.1,0.1,0.1,0.2,0c0.2-0.2,0.1-0.4,0.2-0.7
			C27.3,66.2,27,66.1,26.9,66.3z"/>
		<path fill="#F06724" d="M29.8,66.4c-0.1-0.1-0.2-0.3-0.2-0.5c0-0.2-0.3-0.2-0.3,0C29.3,66.2,29.5,66.4,29.8,66.4
			C29.8,66.6,29.9,66.5,29.8,66.4z"/>
		<path fill="#FBF4D6" d="M42.9,27.6c0,0-10.1-4.5-21.3,3.9c-11.3,8.3-9,22.5-9,22.5s-0.7-9,3.8-15.9C20.8,31.1,29.7,24.8,42.9,27.6
			z"/>
		<path fill="#F8EB32" d="M34.6,52.3c0,0-2.8,2-1.8,6.7c1,4.7,3.4,6.5,3.4,6.5s-3.8-2-4-7.2C31.9,53,34.6,52.3,34.6,52.3z"/>
		<path fill="#F8EB32" d="M15.8,53.5c0,0-2.5,4.4,1.5,9.4c4,5,6.7,4.4,9.1,4.7c2.4,0.3,4.2-0.6,4.2-0.6s-3.4,1.9-7.7,0.7
			c-4.3-1.1-6.6-5-7.6-7.1C14.4,58.6,14.5,55.4,15.8,53.5z"/>
		<path fill="#ECC631" d="M45.3,28.6c0,0,7.7,2.5,11.1,9.6c3.4,7.1,3.4,11.8,2.8,15c-0.6,3.2-1.4,4.6-2.8,4.5c-1.4-0.1-2-1-2-1
			s1.3,0.8,2.3,0.3c1-0.4,1.9-5.9,1-12.2C56.9,38.5,51.7,30.9,45.3,28.6z"/>
		<ellipse fill="#ECC631" cx="52.8" cy="51.9" rx="0.8" ry="0.7"/>
		<circle fill="#ECC631" cx="54" cy="52.2" r="0.3"/>
		<path fill="#ECC631" d="M55.6,55.6c0,0,0.9-4.1-2.2-4.7c-3.1-0.5-3.5,3.6-3,3.8c0,0,0-3.2,2-3.5C54.5,51,55.7,53.9,55.6,55.6z"/>
		<path fill="#ECC631" d="M54.8,54.6c0,0-1.3-1-2.6,0.7C52.2,55.4,53.6,53,54.8,54.6z"/>
		<path fill="#ECC631" d="M53,57.2c0,0-0.1,2.2,1.3,4.2c1.4,2,1.7,2.8,1.4,3.5c-0.3,0.7-1.3,1.1-2,0.4c-0.8-0.8-1-2.3-1-2.3
			s0.8,1.5,1.5,1.6c0.7,0.1,1.2-0.3,0.7-1.1C54.2,62.5,52.2,60,53,57.2z"/>
		<path fill="#F69321" d="M32.8,53.3c0,0-1.2,1.6-1.1,5c0.1,3.4,1.1,4.9,1.1,4.9s-0.9-2-1.6-4.1c-0.7-2.1-1.4-4.2-1.4-4.2h0.5
			c0,0-0.3-1.2,0.4-2.5c0.7-1.3,1.6-1.6,1.6-1.6S33.2,51.9,32.8,53.3z"/>
		<path fill="#F69321" d="M53.2,50.3c0,0-2.5-0.5-3.4,1.6c-1,2.1-0.4,3-0.4,3s-1.6-2.3-1-3.8C49.1,49.6,52,48.7,53.2,50.3z"/>
		<path fill="#F69321" d="M15.7,39.3c0,0-0.6,1-1,4.3c-0.4,3.3,0.2,7.6,0.4,8.3c0.2,0.7,0.6,1.3,0.6,1.3s-0.8,0.8-1.2,3
			C14,58.4,14.6,60,14.6,60s-2.3-3.6-2.2-8.7C12.6,46.1,14.3,41.2,15.7,39.3z"/>
		<ellipse fill="#F8EB32" cx="37.8" cy="57.8" rx="0.6" ry="0.4"/>
		<ellipse fill="#F8EB32" cx="28.4" cy="61.5" rx="0.6" ry="0.4"/>
		<ellipse fill="#F8EB32" cx="21.2" cy="56.8" rx="0.5" ry="0.4"/>
		<ellipse fill="#F8EB32" cx="21.8" cy="56.6" rx="0.2" ry="0.1"/>
		<ellipse fill="#F8EB32" cx="20.4" cy="63.3" rx="0.4" ry="0.4"/>
		<ellipse fill="#FBF4D6" cx="21.4" cy="56.6" rx="0.2" ry="0.2"/>
		<ellipse fill="#FBF4D6" cx="28.3" cy="61.4" rx="0.2" ry="0.1"/>
		<ellipse fill="#FBF4D6" cx="20.3" cy="63.2" rx="0.2" ry="0.1"/>
		<ellipse fill="#FBF4D6" cx="37.5" cy="57.8" rx="0.2" ry="0.1"/>
		<path fill="#010101" d="M60.1,28.7c0,0,3,1.2,2.2,4c-0.9,2.8-3.4,3.3-4.1,3c-0.7-0.3-0.4-0.2,0.1-1.3
			C58.8,33.2,60.1,28.7,60.1,28.7z"/>
		<path fill="#010101" d="M61.5,41.6c0,0-0.5,1.1-2,1.2c-0.6,0-1.3-0.2-1.3-0.2l0.5,2c0,0,2.5,0.5,2.9-0.3c0.5-0.8,0.5-1.1,0.5-1.1
			S61.6,42,61.5,41.6z"/>
		<path fill="#010101" d="M60.1,51.5c0,0,0.3,0,0.5,0.4c0.2,0.5,0.3,0.7,0.3,0.7s-0.2-0.2-0.4-0.3c-0.3-0.1-0.5-0.2-0.5-0.2
			L60.1,51.5z"/>
		<ellipse fill-rule="evenodd" clip-rule="evenodd" fill="#FFFFFF" cx="60.6" cy="47.6" rx="0.3" ry="0.6"/>
		<path fill="#FFFFFF" d="M38.6,52.1c0,0-3.1,1.7-3.2,4.9c-0.1,3.2,1,4,1,4s-2.6-1.4-2.1-4.8C34.8,52.7,38.2,52.1,38.6,52.1z"/>
		<path fill="#FFFFFF" d="M20.6,51.7c0,0-3.1,1.7-3.2,4.9c-0.1,3.2,1,4,1,4s-2.6-1.4-2.1-4.8C16.8,52.3,20.2,51.7,20.6,51.7z"/>
		<path fill="#F06724" d="M45.7,51.3c-0.3-0.2-0.8-0.1-0.9,0.2c0,0.1,0,0.2,0.1,0.2c0.1,0,0.3,0,0.4,0c0.2,0,0.3-0.1,0.5-0.2
			C45.7,51.4,45.7,51.3,45.7,51.3z"/>
		<path fill="#F06724" d="M44.7,50c-0.3-0.2-0.6,0.1-0.7,0.3c-0.1,0.3-0.2,0.7-0.1,1c0,0.1,0.1,0.1,0.1,0c0.1-0.2,0.2-0.4,0.2-0.6
			c0.1-0.3,0.2-0.4,0.5-0.5C44.8,50.2,44.7,50,44.7,50z"/>
		<path fill="#F06724" d="M43.4,50.7c0-0.1,0-0.3,0-0.4c0-0.1-0.2-0.1-0.2,0c0,0.3-0.1,0.7,0.2,0.8c0,0,0.1,0,0.1-0.1
			C43.5,51,43.4,50.9,43.4,50.7z"/>
		<path fill="#F06724" d="M42.5,50.9c-0.1-0.1-0.3,0.1-0.2,0.2c0.1,0,0.1,0.1,0.2,0.1c0,0,0.1,0,0.1-0.1
			C42.6,51.1,42.6,51,42.5,50.9z"/>
		<path fill="#F06724" d="M41.7,51.2c-0.1,0-0.2,0-0.3,0c0,0,0,0.1,0,0.1C41.5,51.3,41.6,51.3,41.7,51.2
			C41.8,51.4,41.8,51.3,41.7,51.2z"/>
		<path fill="#F06724" d="M47.1,52.9c-0.4-0.5-1.4-0.1-1.8,0.2c-0.1,0.1,0,0.3,0.2,0.2c0.3-0.2,0.6-0.2,0.9-0.3c0.2,0,0.5,0.1,0.7,0
			C47.1,53,47.1,53,47.1,52.9z"/>
		<path fill="#F06724" d="M46.7,53.8c-0.3-0.3-0.7,0-0.7,0.3c0,0.2,0.3,0.2,0.3,0c0-0.2,0.3-0.1,0.4-0.2
			C46.7,53.9,46.7,53.8,46.7,53.8z"/>
		<path fill="#F06724" d="M24.8,50.8c0-0.1-0.2-0.2-0.2,0c-0.1,0.3-0.2,0.8-0.1,1.1c0,0.1,0.1,0.1,0.2,0
			C24.8,51.6,24.7,51.1,24.8,50.8z"/>
		<path fill="#F06724" d="M26,51.2c-0.3,0.2-0.6,0.6-0.5,1c0,0.1,0.1,0.1,0.2,0c0.1-0.1,0.2-0.2,0.2-0.4c0.1-0.2,0.2-0.3,0.3-0.5
			C26.3,51.2,26.1,51,26,51.2z"/>
		<path fill="#F06724" d="M26.4,52.1c-0.2,0.2-0.4,0.3-0.5,0.5c0,0.1,0.1,0.1,0.1,0.1c0.2-0.1,0.4-0.2,0.6-0.4
			C26.8,52.2,26.6,52,26.4,52.1z"/>
		<path fill="#F06724" d="M23.2,51.4c0-0.1-0.2-0.1-0.2,0c0,0.4,0.1,0.8,0.4,1c0.1,0,0.2,0,0.2-0.1C23.5,52,23.2,51.7,23.2,51.4z"/>
		<path fill="#F06724" d="M46.9,62.7c-0.2-0.4-0.7-0.8-1.2-0.6c-0.2,0.1-0.1,0.4,0.1,0.4c0.2-0.1,0.4,0.1,0.5,0.2
			c0.1,0.1,0.3,0.2,0.5,0.2C46.8,62.8,46.9,62.7,46.9,62.7z"/>
		<path fill="#F06724" d="M45.2,63.2c-0.2-0.1-0.3,0.3-0.1,0.3c0.2,0.1,0.2,0.3,0.5,0.3c0,0,0.1,0,0.1-0.1
			C45.7,63.5,45.4,63.3,45.2,63.2z"/>
		<path fill="#F06724" d="M42.5,64.6c0-0.3-0.4-0.3-0.4,0c0,0.3-0.1,0.6,0,0.9c0.1,0.1,0.2,0.1,0.2,0C42.6,65.3,42.5,64.9,42.5,64.6
			z"/>
		<path fill="#F06724" d="M38.9,64.5c0,0.1,0,0.2,0,0.4c0,0,0.1,0.1,0.1,0c0.1-0.1,0.1-0.3,0.2-0.4C39.1,64.4,38.9,64.4,38.9,64.5z"
			/>
		<path fill="#F06724" d="M37.8,64.3c0,0.2-0.1,0.3-0.1,0.5c0,0.1,0.1,0.1,0.1,0.1c0.3-0.1,0.4-0.3,0.4-0.6
			C38.2,64.1,37.8,64.1,37.8,64.3z"/>
		<path fill="#F06724" d="M36.6,64c-0.1,0.2-0.1,0.3-0.2,0.5c-0.1,0.1-0.2,0.3-0.3,0.4c0,0.1,0,0.1,0.1,0.1c0.5,0.1,0.6-0.5,0.7-0.9
			C37,64,36.7,63.9,36.6,64z"/>
		<path fill="#231F20" d="M59.9,28.8c0,0,1.5,0.6,1.5,2.6c0,2-2.6,3.6-3.2,3.5c-0.6,0-0.2-0.5,0.3-1.4c0.5-1,1.5-3.5,1.5-4
			C59.8,29.1,59.9,28.8,59.9,28.8z"/>
		<path fill="#231F20" d="M53.2,27.5c0,0,0.5,0.2,0.5,1.4c0,1.2-1.7,1.7-2.7,1.4c-1-0.3-1.8-0.9-1.3-1c0.5-0.1,2.8-0.6,3.1-1
			C53,27.8,52.9,27.4,53.2,27.5z"/>
		<path fill="#3F3D3E" d="M60.5,29.2c0,0,1.5,1.7,0.5,2.7c-1,1-1.3,0.3-1-1C60.2,29.5,60.2,29,60.5,29.2z"/>
		<path fill="#3F3D3E" d="M53.7,28.8c0.2-0.4,0-0.9-0.2-0.8c0,0-1.1,0.9-0.7,1.4C53,29.7,53.6,29.3,53.7,28.8z"/>
		<path fill="#652F8F" d="M42.3,26.6c0,0,2.2,5-5.9,7.7c-8.1,2.6-13-2.2-12.5-4.6c0.4-2.4,6.1-18,6.1-18L42.3,26.6z"/>
		<path fill="#8558A4" d="M30,11.6c0,0,2.6,6.4,2.2,9.9c-0.4,3.5-0.1,3.3,1.3,5.6c1.4,2.2,0.8,3.1,0.3,4c-0.6,1,0.7,0.6,0.8,1.5
			c0.1,1-1.8,2.2-3.8,1.7c-2-0.6-4.3-2.1-4-3.6c0.3-1.5-1.1-1.5-0.3-3.6c0.8-2.1,1.1-1.5,1-3.2c-0.1-1.7,1-2.9,1.5-5.3
			C29.6,16.2,30,11.6,30,11.6z"/>
		<path fill="#A382BB" d="M30,11.6c0,0,0.1,9.3-0.4,11.4c-0.6,2.1,0.4,1.8,0.6,3.3c0.1,1.5-1.5,0.7-1,2.5c0.6,1.8,1.3,2.1,0.3,2.8
			c-1,0.7-0.3,2,2.4,2.1c2.6,0.1,6.4-1.4,6.4-1.4s-2.9,2.4-8.2,1.7c-5.3-0.7-5-3.8-5-3.8s2.1,1.7,1.8,0.4c-0.3-1.3-1.1-2.8-0.3-3.6
			c0.8-0.8,0.8-1.8,1-3.2c0.1-1.4,0-1.1,0.8-4C29.2,16.9,30,11.6,30,11.6z"/>
		<path fill="#8558A4" d="M30.6,12.9l10,16.2c0,0,1.5,0,0.4-1.8C39.9,25.4,30.6,12.9,30.6,12.9z"/>
		<path fill="#8558A4" d="M56.2,63.4c0,0,8.3-3.1,13.4-3c2.1,0.1,3.6,0.3,4.7,0.5c0.8,0.2,1.4,0.5,1.7,0.6c0.4,0.1,0.4,0,0.4,0
			s-0.8-1.3-2-2c-1.2-0.7-5.7-2-11.2-0.8c-5.5,1.2-6.6,1.5-7.6,1.7c-1,0.1-1,0.1-1,0.1S54.6,61.1,56.2,63.4z"/>
		<path fill="#FFFFFF" d="M30.1,11.8c0,0-0.8,8.3-1.2,10.1c-0.4,1.8-0.5,2.4,0,2.8c0.4,0.5,0.5,1.4,0.1,1.8
			c-0.4,0.4-1.6,0.5-1.2,1.7c0.4,1.2,1.1,1.4,0.7,2.1c-0.4,0.8-1.3,1.1-0.8,1.8c0.5,0.7,0.3,0.9-0.2,0.9c-0.5,0-1.3-0.6-1.3-0.6
			s1.1,1.9,5,2c3.9,0.1,6-1.4,6-1.4S33.5,34.4,31,34c-1.5-0.2-2.1-0.6-2.1-0.6c-0.3-0.4-0.6-0.2,0.2-1c0.5-0.5,1.1-0.8,1.1-1.5
			c0-0.7-0.8-2.2-0.8-2.6c-0.1-0.8,0.4-0.6,0.7-1.4c0.3-0.8-0.3-2.1-0.3-2.1s-0.4-0.5-0.1-2c0.3-1.5,0.2-1.8,0.5-5
			C30.4,14.8,30.1,11.8,30.1,11.8z"/>
		<polygon fill="#FAAF42" points="31.9,26.2 32.1,24.6 32.8,26 34,25.9 33.2,26.7 33.7,27.8 32.6,27.4 31.5,28.1 31.6,27.1 
			30.6,26.2 		"/>
		<polygon fill="#FAAF42" points="38,25.2 38.2,23.6 38.8,25 40.1,24.9 39.3,25.7 39.8,26.8 38.7,26.4 37.6,27.1 37.7,26.1 
			36.7,25.2 		"/>
		<polygon fill="#FAAF42" points="29.9,31.6 30.1,30 30.8,31.4 32,31.4 31.2,32.2 31.7,33.3 30.6,32.8 29.5,33.6 29.7,32.5 
			28.7,31.7 		"/>
		<polygon fill="#FAAF42" points="29.6,16.2 29.8,14.6 30.4,16.1 31.7,16 30.9,16.8 31.4,17.9 30.2,17.4 29.2,18.2 29.3,17.2 
			28.3,16.3 		"/>
		<path fill="#8558A4" d="M76,61.3c0,0,0.3,0.5,0.5,1.5c0.1,1,0,1.6,0,1.6s0.3-0.1,0.3-0.6c0-0.6-0.2-2-0.4-2.4
			C76.2,61.2,76,61.3,76,61.3z"/>
		<path fill="#64427E" d="M76.1,61.1c0,0-3-1.7-7.8-1.2c-4.8,0.5-4.4,0.6-5.2,0.5c-0.8-0.1-0.7,0.1-0.5,0.3c0.2,0.1-0.4,0-1.5,0.3
			c-1.1,0.3-0.9,0.6-2.2,0.8c-1.3,0.2-2.6,1-3,0.8c-0.4-0.3-0.9-1.5-1-1.6c-0.1-0.2,3.4-0.9,6.5-1.6c3-0.6,8.6-2,12.7,0.1
			C75.8,60.4,76.1,61.1,76.1,61.1z"/>
		<path fill="#422D53" d="M74.3,60.9c0,0,0.5,0.7,0.6,1.6c0.1,0.9,1.4,2.2,1.5,2c0.1-0.3,0.1-1.7-0.1-2.4c-0.2-0.7-0.3-0.6-0.9-0.9
			C74.8,60.8,74.3,60.9,74.3,60.9z"/>
		<path fill="#8558A4" d="M76.4,64.5c0,0-0.9,0.9-1.8,0.5c-0.9-0.3-1.5-1.8-1-2.4c0.5-0.6,1.1-0.5,1.2-0.1c0.1,0.4,0.1,0.9-0.2,0.7
			c-0.3-0.1-0.3-0.3-0.3-0.3s-0.2-0.2-0.2,0.1s0.5,0.6,0.8,0.3c0.3-0.3,0.3-1,0-1.2c-0.3-0.2-0.8-0.5-1.4,0.1
			c-0.5,0.6-0.5,1.3,0,2.3c0.6,1,1.7,1.1,2.5,0.6c0.8-0.5,0.7-1.2,0.6-1.5C76.7,63.2,76.6,63.8,76.4,64.5z"/>
		<path fill="#32223F" d="M74.3,62.9l-0.6-0.3c0,0,0.2-0.5,0.8-0.4c0.6,0.1,0.6,0.9,0.4,1c-0.2,0.1-0.5-0.2-0.5-0.3
			C74.4,62.9,74.3,62.9,74.3,62.9z"/>
		<path fill="#4A325E" d="M73.5,62.7c0,0,0.7,0.7,1,0.8c0.2,0,0.5,0,0.6-0.3c0.1-0.3,0.2,0,0.3,0.2c0.1,0.2,1.1,0.8,0.9,0.4
			c-0.2-0.4-0.7-1.1-0.3-1.2c0.4-0.2,0.4,0,0.1-0.5c-0.3-0.5-0.3-0.6,0-0.4c0.3,0.1,0.3,0,0.3,0s0.4,0.9,0.3,1.8
			c0,0.9-0.1,1.4-1,1.6c-1,0.2-1.4,0.1-1.8-0.7C73.4,63.5,73.3,63,73.5,62.7z"/>
		<path fill="#7B3178" d="M54.8,61.1c0,0,1.5,0.5,2.4,0.7c0.8,0.2,0.8,0.2,0.8,0.2s0.6-0.2,0.9-0.3c0.3,0,0.7-0.1,0.8-0.2
			c0.1-0.1,0.6-0.2-0.6-0.5c-1.2-0.3-2.3-0.8-2.3-0.8l-2.2,0.3L54.8,61.1L54.8,61.1z"/>
		<path fill="#AB509E" d="M57.7,60.6c0,0,1.4,0.7,1.1,0.8c-0.3,0.1-0.6-0.4-0.8-0.1c-0.2,0.3-0.1,0.4-0.6,0.3
			c-0.6-0.1-2.1-0.5-2.3-0.6c-0.2-0.1-0.3-0.4-0.1-0.4c0.2,0,0.3-0.1,0.3-0.1l-0.6,0.1l0.2,0.5l3.1,1c0,0,0.5-0.2,1-0.3
			c0.5-0.1,0.9-0.2,1-0.3c0.1-0.1,0.3-0.1-0.1-0.2C59.4,61.1,57.7,60.6,57.7,60.6z"/>
		<path fill="#C671AE" d="M58.1,62.7l-0.1-0.6c0,0,0.4-0.2,0.7-0.2c0.3,0,0.9-0.1,1.1-0.2c0.2-0.2,0.4-0.2,0.3-0.2
			c-0.1-0.1-0.6-0.2-0.6-0.2l0.7,0.2c0,0,0.1,0,0.1,0.2s0,0.4,0,0.4s0,0-0.2,0.1C59.9,62.1,58.1,62.7,58.1,62.7z"/>
		<path fill="#DEA4CA" d="M60.3,61.4c0,0-0.4,0.3-0.7,0.3c-0.3,0.1-0.9,0.2-1.1,0.2c-0.2,0-0.5,0.1-0.5,0.1l-0.7-0.3l0.7,0.2
			c0,0,0.5-0.2,0.7-0.2c0.2,0,0.6-0.1,0.7-0.2c0.1,0,0.1-0.1,0.3-0.1c0.1,0,0.1-0.1,0.2-0.1c0.1,0,0.2-0.1,0.2-0.1
			C60.1,61.3,60.2,61.4,60.3,61.4z"/>
		<path fill="#A1A738" d="M59.3,59.7c0,0,3.4,0.7,3.8,0.8c0.4,0.1,0.7,0,1-0.1c0.4-0.1,0.9-0.1,1.4-0.2c0.5-0.1,1.1-0.2,1.1-0.2
			s-1.3-0.4-2.4-0.7c-1-0.2-1.7-0.4-1.7-0.4L59.3,59.7z"/>
		<path fill="#8D8F36" d="M60.2,59.9c0,0,2.9,0.5,3,0.4c0-0.1-1.8-0.5-0.2-0.3c1.6,0.2,1.9,0.2,1.6,0.1c-0.2-0.1-1.8-0.5-1.8-0.6
			c0,0-0.4-0.2,1.1,0.1c1.5,0.3,2.7,0.4,2.7,0.4s-1,0.1-1.5,0.2c-0.4,0.1-1.4,0.3-1.6,0.2c-0.2,0-0.7-0.1-1-0.2
			c-0.3,0-2.7-0.6-3-0.6c-0.3-0.1-0.3-0.1-0.3-0.1S60,59.8,60.2,59.9z"/>
		<path fill="#DDE353" d="M63.5,60.6c0,0,1.1,0,1.7-0.1c0.7-0.1,1.5-0.3,1.5-0.3S66.6,60,66,59.9c-0.6-0.1-1-0.2-1-0.2
			s1.1,0.5,0.6,0.5c-0.5,0-0.4,0-0.5,0c-0.1,0.1-0.5,0.2-0.8,0.2c-0.3,0-0.9,0.1-1.4,0c-0.5-0.1-1.3-0.2-1.3-0.2L63.5,60.6z"/>
		<path fill="#D7DE27" d="M63.5,60.6l0,0.6c0,0,1.5-0.3,2.2-0.4c0.6-0.1,1.1-0.2,1.1-0.2l0-0.4c0,0-0.8,0.2-1.8,0.3
			C63.8,60.6,63.5,60.6,63.5,60.6z"/>
		<path fill="#A1A738" d="M63.5,60.6c0,0,0.6,0,1.4-0.1c0.9-0.1,0.9-0.2,1.2-0.2c0.3,0,0.6-0.1,0.6-0.1l0,0.4c0,0-0.5-0.2-0.5-0.2
			c-0.1,0-0.7,0.3-1.6,0.5c-0.8,0.1-0.8,0.1-0.9,0.1c-0.1,0.1-0.2,0.2-0.2,0C63.5,60.7,63.5,60.6,63.5,60.6z"/>
		<path fill="#F1A51F" d="M65.9,58.4c0,0,1.9,0.3,3.6,0.9c1.7,0.6,1.8,0.7,1.8,0.7l0,0.5l2.8,0.4l0.1-0.4c0,0-0.6-0.8-1.8-1.2
			c-1.2-0.5-2.3-0.8-4.2-0.8C66.3,58.3,65.9,58.4,65.9,58.4z"/>
		<path fill="#502B7C" d="M30.2,12.2c0,0,3.8,9.2,3.7,10.8c0,1.6,0,2,0.8,2.6c0.7,0.6,1.6,2.3,1.5,3.6c-0.1,1.2-0.2,1.7,0.7,1.9
			c0.9,0.2-0.4,1.6-1.3,2c-0.9,0.4-0.9,0.4-0.9,0.4s2.6-0.8,3.4-1.2c0.8-0.4,0.8,1.3-2.9,2c-3.7,0.8-6.4,0.5-8.7-0.7
			c-2.3-1.3-2.6-3.4-2.6-3.4s0.2,4.3,6.6,4.9c6.4,0.6,10.6-2.9,11.4-4.7c0.8-1.8,0.3-2.5,0.3-2.5s-0.5,2.4-1.4,2.9
			c-0.9,0.5-1.3,0.2-1.2-0.2c0.1-0.4-0.7-0.6-1-0.9c-0.3-0.3-1-2.1-1.5-2.8c-0.5-0.7-2-1.4-1.9-2.3c0-0.9-0.2-1.7-1.6-4.9
			C32.3,16.3,30.2,12.2,30.2,12.2z"/>
		<polygon fill="#F69321" points="35.9,30.7 36.2,29.1 36.8,30.6 38,30.5 37.3,31.3 37.7,32.4 36.6,31.9 35.6,32.7 35.7,31.6 
			34.7,30.8 		"/>
		<polygon fill="#F69321" points="33.1,20 33.3,18.4 33.9,19.9 35.1,19.8 34.4,20.6 34.8,21.7 33.7,21.2 32.7,22 32.8,20.9 
			31.8,20.1 		"/>
		<path fill="#502B7C" d="M30.1,11.8c0,0-3.6,10.2-3.8,11.5c-0.2,1.3-0.1,2-0.6,2.8c-0.5,0.8-0.5,2.6-0.8,3.1
			c-0.3,0.5-0.5,1.2-0.1,1.8c0.4,0.6,0.4,0.6,0.4,0.6s-1.1-1.1-1.2-2.1c-0.1-1,0.1-0.5,2.3-7.2C28.4,15.7,30.1,11.2,30.1,11.8z"/>
		<polygon fill="#FAAF42" points="28.8,21.9 27.5,22 26.9,20.6 26.7,22.2 26.3,22.2 26.1,22.8 26.4,23.1 26.3,24.1 27.4,23.4 
			28.5,23.8 28,22.7 		"/>
		<polygon fill="#FAAF42" points="25.5,29.4 25.8,27.8 26.4,29.3 27.6,29.2 26.8,30 27.3,31.1 26.2,30.6 25.2,31.4 25.3,30.3 
			24.3,29.5 		"/>
		<path fill="#F06724" d="M24.8,29.5c0,0-0.1,0.1-0.1,0.2c0,0.1,0,0.1,0,0.1l-0.3-0.3L24.8,29.5z"/>
		<path fill="#F06724" d="M27,20.9c0,0-0.1,0.9-0.3,1.5c-0.2,0.6-0.4,1.6-0.4,1.6l0.1-0.9l-0.4-0.3l0.2-0.6l0.4,0l0.2-1.6L27,20.9z"
			/>
		<polygon fill="#F06724" points="28.6,16.3 28.3,16.3 28.5,16.5 		"/>
		<path fill="#F06724" d="M33.1,19.7l0.2-1.1l0.7,1.3c0,0,0.4,1,0.5,1.3c0.1,0.3,0.1,0.4,0.1,0.4l-0.8-0.3l-0.2,0.1L33.1,19.7z"/>
		<path fill="#F06724" d="M36.2,29.1c0,0-0.1,1.9,0,2.2c0.1,0.3,0.3,0.3,0.5,0.3c0.2,0,0,0.3,0,0.3l1.1,0.5l-0.5-1.1l0.8-0.8
			l-1.3-0.2L36.2,29.1z"/>
		<path fill="#B97029" d="M74.1,60.4c0,0-0.6-0.2-1.4-0.3c-0.8-0.2-1.4,0-1.4,0s-3-1.1-3.3-1.2c-0.3-0.1,0.4-0.1,1.4,0.3
			c1.1,0.3,0.9,0.1,0.7-0.1c-0.2-0.1,0-0.1,1.1,0.3c1.1,0.4,1.9,0.6,1.7,0.5c-0.2-0.1-1.4-0.8-0.8-0.7C72.8,59.3,74,60.2,74.1,60.4z
			"/>
		<path fill="#D87E27" d="M66,58.4c0,0,2.3,0.4,3.3,0.6c1,0.3,1.6,0.3,1.3,0.1c-0.3-0.2,0.3,0.1,0.7,0.2c0.4,0.1,1.9,0.8,2,0.6
			c0.1-0.2-0.6-0.5-1.1-0.7c-0.4-0.2-2.1-0.6-2.4-0.7c-0.3,0,0.3,0-0.4,0.1C68.7,58.6,66,58.4,66,58.4z"/>
		<path fill="#FCEE21" d="M74.1,60.5c0,0-0.7-0.2-1.4-0.4c-0.7-0.1-1.3-0.1-1.3-0.1l-0.1,0.4l-0.1-0.5c0,0-2.3-0.8-2.6-0.9
			c-0.4-0.1,1.9,0.5,2.3,0.6c0.5,0.1,0.9,0.1,1.8,0.3c0.9,0.2,1.3,0.4,1.3,0.4s-0.3-0.3-0.6-0.5c-0.3-0.2-0.4-0.3-0.4-0.3
			S74.5,60.4,74.1,60.5z"/>
		<path fill="#7F2779" d="M74.5,61.2l1.4,0.9c0,0,0.4,0.4,0.2,0.4c-0.2,0-0.4,0.1-0.4,0.3c0,0.2,0.2,0.6,0.2,0.6l-0.8-0.6
			c0,0-0.1-0.3-0.1-0.4c-0.1-0.1-0.2-0.3-0.2-0.3L74.5,61.2z"/>
		<path fill="#AB509E" d="M75.9,62c0,0,0.4,0.4,0.2,0.4c-0.2,0-0.3,0.1-0.3,0.3c0,0.3,0.1,0.5,0.2,0.6c0.1,0.2,0.6,0.5,0.6,0.5
			s0.2-0.7,0-1.2c-0.2-0.5-0.2-0.5-0.2-0.5L75.9,62z"/>
		<path fill="#C671AE" d="M76.4,62.2c0,0,0.1,0.9,0.1,1.3c0,0.4,0,0.4,0,0.4l-0.4-0.3l0.4,0.4l0.3,0c0,0,0-0.7-0.1-1.1
			c0-0.5-0.1-0.6-0.1-0.6L76.4,62.2z"/>
		<path fill="#4A325E" d="M73.6,62.6l0.6,0.3c0,0,0.1,0,0.1,0c0.1,0,0.1,0,0.1,0s0-0.1,0-0.1c0,0-0.7-0.4-0.7-0.4
			S73.6,62.5,73.6,62.6z"/>
		<path fill="#2C3C1A" d="M73.4,63.1c0,0,0.7,0.3,1.5,0.9c0.8,0.6,1,0.9,1,0.9s-0.6,0.3-1.1,0.2c-0.6-0.1-0.8-0.3-1-0.8
			C73.6,63.9,73.4,63.4,73.4,63.1z"/>
		<path fill="#263218" d="M73.4,63.1c0,0,1.5,1.1,1.2,0.9c-0.3-0.2-0.6-0.3-0.6-0.3s0.6,0.6,0.7,0.9C75,64.9,75.1,65,75,65
			c-0.1,0-0.2,0-0.2,0s-0.6-0.7-0.9-1c-0.2-0.3-0.4-0.4-0.4-0.4s0.4,0.7,0.6,1c0.2,0.2,0.1,0.3,0.1,0.3s-0.3-0.1-0.6-0.8
			C73.4,63.4,73.4,63.1,73.4,63.1z"/>
		<path fill="#47642E" d="M74.3,65c0,0,0,0.1,0,0.1c0,0.1,0,0.1,0,0.1s0.5,0.4,1.3,0.1c0.5-0.1,0.6-0.1,0.5-0.3
			c0-0.1-0.1-0.2-0.1-0.2s-0.7,0.2-1.2,0.2C74.5,65,74.3,65,74.3,65z"/>
		<path fill="#68953F" d="M74.3,65c0,0,0.4,0.1,0.4,0c0,0,0-0.1,0-0.1s0.1,0.2,0.3,0.1c0.1-0.1,0-0.2,0-0.2s0.1,0.1,0.3,0.1
			c0.1,0,0.3,0,0.5,0c0.1,0,0.2-0.1,0.2-0.1l0.1,0.1c0,0-0.1,0-0.2,0c-0.2,0.1-0.2,0.1-0.7,0.1C74.8,65.1,74.4,65,74.3,65l0,0.2
			L74.3,65z"/>
		<path fill="#F1A51F" d="M73.8,62.1c0,0-0.6,0.5-0.6,1.1c0.1,0.6,0.2,0.7,0.2,0.7s-1.2-0.6-1.7-1.2c-0.5-0.5-0.5-1-0.3-1.4
			c0.2-0.4,0.7-0.6,0.9-0.5c0.2,0.1,0.1,0.3,0.7,0.6c0.6,0.4,1,0.4,1,0.4S73.9,62,73.8,62.1z"/>
		<path fill="#FAAF42" d="M72.1,60.9c0,0,0.1,0.5,0.7,0.9c0.6,0.4,0.9,0.3,0.9,0.3S73.9,62,74,62c0.1,0,0.1,0,0.1,0
			s-0.5,0.4-0.6,0.6c-0.2,0.3-0.2,0.5-0.2,0.8c0,0.3,0.1,0.6,0.1,0.6s-0.1-0.3-0.2-0.7c-0.1-0.4-0.1-0.4-0.1-0.4s-0.3,0-0.8-0.5
			c-0.5-0.4-0.7-0.9-0.7-1c0-0.1,0-0.1,0-0.1s-0.1,0.1-0.2,0.2c-0.1,0.1-0.1,0.3-0.1,0.3s0-0.4,0.4-0.6C72,60.9,72.1,60.9,72.1,60.9
			z"/>
		<path fill="#FCEE21" d="M74,61.9c0,0-0.7,0.3-0.8,0.9c-0.1,0.6,0.1,1.1,0.1,1.1s0,0,0.1,0c0.1,0,0.1,0,0.1,0s-0.3-0.8,0-1.2
			c0.3-0.5,0.6-0.5,0.6-0.5S74.1,62,74,61.9z"/>
		<path fill="#C8872A" d="M72.3,60.9c0,0-0.2,0.6,0.6,0.9c0.8,0.3,1.1,0.1,1.1,0.1s-0.6-0.1-0.9-0.4c-0.4-0.3-0.6-0.6-0.6-0.6
			S72.3,60.8,72.3,60.9z"/>
		<path fill="#C8872A" d="M71.4,61.5c0,0,0,0.7,0.6,1.2c0.6,0.5,0.9,0.4,0.9,0.4l0.3,0.8c0,0-1.3-0.7-1.7-1.3
			C71.2,62,71.3,61.7,71.4,61.5z"/>
		<path fill="#FCEE21" d="M71.3,60.2l0,0.2l2.8,0.4l0.1-0.4H74l-0.1,0.2c0,0-0.2-0.1-1.1-0.2C71.8,60.3,71.3,60.2,71.3,60.2
			L71.3,60.2z"/>
		<path fill="#8558A4" d="M74.2,60.5c0,0,1.4,0.5,1.7,0.6c0.3,0.1,0.5,0.5,0.5,0.7c0,0.2,0,0.4,0,0.4s-0.2-0.5-0.4-0.7
			c-0.2-0.2-1.3-0.5-1.6-0.6C74.2,60.8,74.2,60.5,74.2,60.5z"/>
		<path fill="#9D7AB7" d="M74.4,63c0,0,0.1,0.3,0.4,0.2c0.2-0.1,0.2-0.6,0-0.8c-0.1-0.2-0.4-0.3-0.5-0.3c-0.1,0-0.2,0-0.2,0L74.1,62
			l0.1,0.1c0,0,0.4-0.1,0.6,0.2c0.2,0.3,0.3,0.6,0.1,0.9c-0.1,0.2-0.3,0.2-0.4,0.1c-0.2-0.1-0.3-0.1-0.2,0c0.1,0.2,0.4,0.3,0.5,0.2
			c0.2-0.2,0.4-0.4,0.2-0.9c-0.1-0.4-0.3-0.6-0.5-0.6c-0.2,0-0.4,0-0.4,0s0.2-0.1,0.6,0c0.3,0.1,0.5,0.5,0.5,0.7
			c0,0.3,0,0.5-0.2,0.7c-0.1,0.2-0.5,0.2-0.7,0C74.1,63.2,74.1,62.9,74.4,63L74.4,63z"/>
		<path fill="#9D7AB7" d="M74.1,60.8c0,0,1,0.3,1.4,0.4c0.4,0.1,0.5,0.1,0.6,0.3c0.1,0.2,0.3,0.4,0.3,0.5c0,0.1,0.1,0.1,0.1,0.1
			c0,0,0-0.3-0.1-0.4c0-0.2-0.3-0.5-0.5-0.6c-0.2-0.1-0.3-0.2-0.3-0.2s0.6,0.3,0.7,0.4c0.1,0.1,0.1,0.2,0.2,0.4
			c0.1,0.2,0.1,0.4,0.1,0.4l-0.2,0c0,0-0.3-0.6-0.5-0.7c-0.2-0.2-0.7-0.3-1.2-0.4C74.3,60.9,74.1,60.9,74.1,60.8L74.1,60.8z"/>
		<path fill="#9D7AB7" d="M76.6,63.9c0,0,0,0.4-0.2,0.6c-0.1,0.2-0.4,0.3-0.4,0.4c-0.1,0-0.1,0-0.1,0l0,0c0,0,0.2-0.1,0.4-0.3
			c0.1-0.2,0.2-0.3,0.2-0.4C76.5,64,76.6,63.9,76.6,63.9C76.6,63.9,76.7,63.9,76.6,63.9z"/>
		<path fill="#9D7AB7" d="M73.4,64c0,0,0.2,0.5,0.4,0.8c0.2,0.3,0.5,0.3,0.5,0.3l0,0.1c0,0-0.4-0.2-0.6-0.6
			C73.5,64.2,73.4,64,73.4,64L73.4,64z"/>
		<path fill="#9D7AB7" d="M71.2,60c0,0-1.8-0.1-3,0.1c-1.3,0.1-1.5,0.2-1.5,0.2l0-0.1c0,0,1.4-0.2,2.5-0.3
			C70.4,59.8,71.2,59.9,71.2,60C71.2,60,71.2,60,71.2,60z"/>
		<path fill="#9D7AB7" d="M74.1,60.3c0,0,1,0.3,1.5,0.5c0.5,0.2,0.7,0.6,0.7,0.6s-0.5-0.4-1.1-0.6c-0.6-0.2-1.1-0.3-1.1-0.3
			S74.2,60.4,74.1,60.3z"/>
		<path fill="#9D7AB7" d="M63.5,60.7c0,0-1.4,0.3-2.2,0.5c-0.8,0.2-1,0.3-1,0.3l-0.1-0.1c0,0,1.4-0.3,1.9-0.5
			c0.6-0.1,0.6-0.1,0.6-0.1s0.1-0.1,0.2-0.2C63.1,60.6,63.5,60.5,63.5,60.7z"/>
		<path fill="#F8EB32" d="M16.1,27c0,0-0.5,2.3-0.5,5.1c0,2.8,0,4.3,0,4.3l-0.3,0.3c0,0,0-4.5,0.3-6.9c0.3-2.4,0-2.5-0.5-2.3
			c-0.4,0.2-1.7,1.3-1.7,3c0,1.7-0.1,4.2-0.3,4.5c-0.3,0.4-0.6,0.1-0.6,0.1s-2.8-2.9-3.7-4.2c-0.8-1.3-2.1-1.9-2.3-0.6
			c-0.2,1.3,1.5,3.3,2.7,4.3c1.2,1,1.6,1.2,1.7,2.1c0.1,0.9-0.2,1.5-0.2,1.5s-2.4-0.4-3-0.8c-0.6-0.4-0.5-1.2,0.6-0.6
			c1.1,0.6,2,0.8,2,0.8s0.1-0.5-0.5-1.4c-0.6-0.9-2.7-2.4-3.2-3.3c-0.5-0.9-1.4-2.6-0.7-3.3c0.6-0.7,1.5-1,3.4,1.1
			c1.9,2.2,3.4,3.8,3.4,3.8s0.4-1.8,0.2-3.2c-0.2-1.4-0.3-3.3,1-4.1C15.3,26.6,16.1,27,16.1,27z"/>
		<path fill="#F8EB32" d="M7.9,36.7c0,0-1.2-0.5-1.7,0.7c-0.5,1.2-0.3,2.7,0.4,2.8c0.7,0.2,0.8-0.3,0.8-0.3S7.3,39,7.2,38.8
			c-0.1-0.2-0.1-0.4-0.1-0.4s0.7,0.1,0.9,1.1c0.2,1-0.2,2.5-0.6,3.9c-0.4,1.4-0.1,3,1.1,3.4c1.2,0.4,2.8-0.5,2.9-0.6
			c0.1-0.1,0.1-0.1,0.1-0.1l0.3-1.2c0,0-0.8,1.2-2.5,1.3c-1.7,0.1-1.8-1.7-1.3-3.1c0.5-1.4,0.7-2.6,0.4-3.7c-0.4-1.2-1-1.6-1.3-1.5
			c-0.3,0.1-0.3,0.1-0.3,0.1S6.4,38,6.7,37.4C7,36.9,7.5,36.6,7.9,36.7z"/>
		<path fill="#F8EB32" d="M10.8,38.7c0,0,0.5,0.9,0.6,0.3C11.6,38.4,10.7,38.5,10.8,38.7z"/>
		<path fill="#F8EB32" d="M13.1,35.8c0,0,0.6,1.5,0.8,0.9C14.2,36.1,13.2,35.3,13.1,35.8z"/>
		<path fill="#F8EB32" d="M65.7,36.4c0,0,0.7,1,0.4,3.4c-0.3,2.4-1,5.5-1,5.5s1-2.3,1.3-4.8c0.3-2.5,0.1-3.7,0.1-3.7
			s0.7-0.5,1.2,0.3c0.5,0.9,0.6,1.8,0.3,3.6c-0.3,1.8-0.3,2.4-0.5,2.5c-0.2,0.1-0.5,0.3-0.1,0.4c0.3,0,0.4-0.1,0.4-0.1
			s1-2.8,0.8-4.8C68.1,36.5,66.8,34.8,65.7,36.4z"/>
		<path fill="#F8EB32" d="M68.6,44c0,0,1.6-3.3,2.6-4.9c1-1.6,1.5-2.1,2.3-1.4c0.8,0.7,0.5,1.8-0.4,4c-1,2.1-2.8,5.5-2.8,5.5
			s-0.1,0.5,0.3,0.2c0.4-0.3,0.5-1,1.7-0.5c1.2,0.5,1.5,2.1,0.7,3.1c-0.9,1.1-2.2,0.6-2.3,0.4c-0.1-0.1,0-0.1,0-0.1s1.3,0.6,1.9-0.3
			c0.6-1,0.4-1.8,0.4-1.8s-0.5,0.4-1.1,0c-0.6-0.3-0.7-0.4-1-0.3C70.6,48,70.2,48,70,47.8c-0.2-0.2-0.2-0.5,1-2.7
			c1.2-2.1,2.4-5,2.6-5.9c0.2-0.9-0.3-1-0.3-1s0.1-1.3-1.2,1.5c-1.4,2.8-2.2,4.3-2.7,4.5C68.9,44.2,68.6,44.2,68.6,44z"/>
		<path fill="#F8EB32" d="M67.8,46.5c0,0-0.5,1.1-0.6,0.3C67.1,45.9,67.9,45.4,67.8,46.5z"/>
		<path fill="#F8EB32" d="M70.2,49.2c0,0,0.4,0.5,0,0.5c-0.4,0-0.3,0.6-0.3,1.2c-0.1,0.6-0.5,4.2-3,4c-2.5-0.2-2.5-1.9-2.5-1.9
			s-1.3-0.2-1-1.5c0.2-1.3,0.9-2.8,1.2-3.9c0.3-1,0.3-1,0.3-1s0,1.3-0.5,2.7c-0.5,1.4-0.7,2.6-0.3,3c0.4,0.4,0.6,0.3,0.6,0.3
			s0.5,1.5,1.8,1.5c1.3,0.1,2.3-0.8,2.5-2.4c0.2-1.6,0.9-2.4,0.9-2.4s-0.3-0.6,0.2-0.6c0.5,0,1,0.3,1,0.3S70.2,48.9,70.2,49.2z"/>
		<path fill="#FBF4D6" d="M6.8,29.3c0,0-1.2,0.2-0.6,2.2C6.7,33.6,8.6,35,8.6,35s-2.2-1.5-2.8-3.5C5.3,29.5,6.2,29,6.8,29.3z"/>
		<path fill="#FBF4D6" d="M15.3,26.9c0,0-1.7,0.5-2,1.9c-0.3,1.3-0.2,1.7-0.2,2.6c0,0.8-0.2,3.2-0.2,3.2l0.1,0.7l-1.6-2.1l1.2,1.1
			c0,0,0.3-0.8,0.2-1.7c-0.1-0.9-0.5-3,0.1-4.1C13.6,27.2,14.9,26.7,15.3,26.9z"/>
		<path fill="#FBF4D6" d="M6.6,36.7c0,0,0.6-0.5,1.6,0c1,0.5,2.3,0.9,2.3,0.9s-0.2,0.3-1.6-0.2c-1.4-0.5-1.6-0.8-1.9-0.7
			C6.7,36.8,6.6,36.7,6.6,36.7z"/>
	</g>
	<polygon fill="#FCCF8C" points="30.3,15.7 30.2,17.4 29.4,18 29.8,14.6 	"/>
	<path fill="#FCCF8C" d="M30.1,30.4c0,0,0.1,0.8,0,1.2c-0.1,0.4-0.8,0.6-0.8,0.6l-0.6-0.6l1.1-0.2L30.1,30.4z"/>
</g>
</svg>
