<?xml version="1.0" encoding="utf-8"?>
<!-- Generator: Adobe Illustrator 18.0.0, SVG Export Plug-In . SVG Version: 6.00 Build 0)  -->
<!DOCTYPE svg PUBLIC "-//W3C//DTD SVG 1.1//EN" "http://www.w3.org/Graphics/SVG/1.1/DTD/svg11.dtd">
<svg version="1.1" id="Layer_1" xmlns="http://www.w3.org/2000/svg" xmlns:xlink="http://www.w3.org/1999/xlink" x="0px" y="0px"
	 viewBox="0 0 82 82" enable-background="new 0 0 82 82" xml:space="preserve">
<g>
	<g>
		<g>
			
				<linearGradient id="SVGID_1_" gradientUnits="userSpaceOnUse" x1="18.8755" y1="52.6626" x2="28.7151" y2="52.6626" gradientTransform="matrix(0.999 4.390000e-002 -4.390000e-002 0.999 -3.2163 -0.2541)">
				<stop  offset="0" style="stop-color:#F0E23C"/>
				<stop  offset="0.1155" style="stop-color:#F0DE3B"/>
				<stop  offset="0.2572" style="stop-color:#EED437"/>
				<stop  offset="0.4126" style="stop-color:#ECC332"/>
				<stop  offset="0.5777" style="stop-color:#E9AA2C"/>
				<stop  offset="0.7488" style="stop-color:#E68C26"/>
				<stop  offset="0.7925" style="stop-color:#E58425"/>
			</linearGradient>
			<path fill="url(#SVGID_1_)" d="M20.5,47.1c0,0,1.5-1,1.5,0.1c0,1.2-1.1,2.1-0.7,3.2c0.4,1.1,1.7,1.9,1.9,2.5c0.2,0.6,0,1.4-0.6,2
				c-0.6,0.6-1.2,0.8-1.2,0.8s0.7,0.9,0.7,1.6c0,0.7-0.6,1.4-0.6,1.4L17.8,59c0,0-1.4,1.5-2.2,1.2c-0.8-0.3-0.9-1.2-0.2-2.2
				c0.7-1.1,2-2.4,1.6-2.7c-0.4-0.3-1.3,0.6-2.6,0c-1.2-0.6-1.5-1.8-0.7-2.1c0.8-0.3,1.5,0.1,2.3-0.2c0.7-0.3,1-0.6,1-0.6
				s-2-1.2-1.8-2.2c0.2-0.9,0.8-1.1,0.8-2c0.1-1,0.4-1.9,0.9-1.8c0.5,0.1,1.1,0.5,1.2,1.5c0.1,1-0.2,1.7-0.2,1.7l1.6,0.4
				c0,0-0.1,1.6-0.2,1.8c-0.1,0.2,0.6-0.7,0.6-0.7s-0.6-1.5-0.3-2.4C20,47.7,20.5,47.1,20.5,47.1z"/>
			<g>
				<path fill="#C9DF80" d="M31.1,24.1c-0.3-0.1-0.5-0.1-0.8-0.2c0.1-0.8,0-2.7-2.6-2.9c-3.1-0.2-3.8,2.7-3.9,4.1c0,0,0,0.1,0,0.1
					c-0.5,0.4-0.8,0.9-1,1.4c0,0,0.1-1.4-1.8-1.8c-1.9-0.3-3.2,1.3-3,2.6c0.2,1.3,0.9,1.9,0.9,1.9s-1.5,0-1.6,0.6
					c-0.1,0.5,0.2,0.8,0.3,0.9c-0.3-0.2-0.5-0.2-0.5-0.2s-2.7-1.4-4.1-1.6c-1.2-0.2-3.2,1-3.7,2.9c-0.3,0-0.7,0-1.2,0.3
					c-1.5,0.7-1.9,3.1-0.5,4.4c1.4,1.3,3.3-0.4,3-0.9c-0.5-1.2-1.2-0.3-1.2-0.3s0.6-0.3,0.8,0.1c0.3,0.5-1.7,1.4-2-0.6
					c-0.2-1.3,0.5-1.8,1-1.9c0.3,2.4,3.2,2.7,3.2,2.7l1.1-0.7c0,0-1.4-1.4-0.3-3c1.1-1.6,3.1,0.6,3.1,0.6s1.1,0.8,1.8-0.3
					c0.3-0.6,0-1-0.3-1.3l1.4,0.9c0,0-0.8-1.2-0.1-1.5c0.5-0.2,0.7,0.2,0.9,0.6c-0.2-0.7-0.6-2.5,0.4-3c1.2-0.7,3-0.4,2.9,1.7
					c-0.2,2.1-1.4,2.3-1.7,1.2c-0.3-1.1,0.7-0.9,0.7-0.9s-1.1-1-1.4,0.6c-0.3,1.6,0.3,2.2,1.4,2.3c0.4,0,0.6,0,0.8,0
					c-0.3,0.2-0.7,0.4-1.2,0.5c-1,0.1-1.6-0.2-1.6-0.2l-1.2,1.6c0,0,1.6,0.8,2,1.4c0.3,0.6,0.3,0.6,0.3,0.6s1-0.3,1.3,0.4
					c0.7,1.8-1.4,2-1.4,2l3,0c0,0-1.9-3.4,0.1-4.7c2-1.3,3,1.9,3,1.9l0.7-0.7c0,0-2-2.1-1-3.3c1-1.2,3.2,0.8,3.2,0.8l0.2-0.5
					c0,0-2.7-0.7-2.9-3.3c-0.2-2.6,4.5-4.1,4.9-1.2c0.5,2.9-2.8,2.3-2.9,1.4c0-1,0.7-0.8,0.7-0.8s-1-1-1.4,0c-0.3,1,0.7,3.4,3.8,2.2
					C36.1,29.6,34.8,25,31.1,24.1z M25.5,32.2c-0.7,0-1.2-0.9-1.2-2c0-1.1,0.6-2,1.3-1.9c0.7,0,1.2,0.9,1.2,2
					C26.8,31.3,26.2,32.2,25.5,32.2z M24.6,24.8C24.6,24.8,24.6,24.8,24.6,24.8c0,0,0.3-2.3,2.5-2.4c1.6-0.1,2,0.9,2.1,1.4
					C27.4,23.7,25.8,24.1,24.6,24.8z"/>
				<path fill="#C9DF80" d="M20.2,31.1c0.1,0.2,0.1,0.3,0.1,0.3S20.2,31.2,20.2,31.1z"/>
			</g>
			<path fill="#3F4469" d="M59.2,35.3c0,0,9,9.8,4.6,19.8c-4.4,10-16,14.4-27.2,10.5c-11.2-3.9-13.2-12.3-13.7-17
				c-0.5-4.7,2.4-8.5,2.4-8.5l1.5,1.8l0.1,3.4c0,0-2.2,7.1,1.7,12.2c3.9,5.1,12.6,8.8,21.2,5.2c8.6-3.6,11.7-8.9,10.8-12.6
				c-0.9-3.7-1.2-6.3-1.2-6.3L59.2,35.3z"/>
			<path fill="#0F1333" d="M60.7,37.9c0,0,5.4,6.1,2.3,15.9c-3.1,9.8-13.9,12.8-21.5,12.3c-7.6-0.5-14.2-5.6-16.1-11.1
				c-1.9-5.5-0.5-9.3-0.5-9.3s0.5,7.7,2.7,9.8c2.2,2.1,3.1,2.4,3.1,2.4s3.3-0.1,5.4-0.8c2-0.7,8.5,0.1,10.9,1.4
				c2.3,1.3,5.3,3,6.4-0.4c1.7-4.8,5.8-9.6,5.8-9.6L60.7,37.9z"/>
			<path fill="#151743" d="M50.4,31.4c0,0-8.5,1.4-8.3,9c0.3,7.6,3.4,9.8,11.8,8c0,0,4.7-2.4,5.2-5.3c0.5-2.8,0.2-4.8-0.4-6.3
				c-0.6-1.5-1.2-2-1.2-2s4.5,1.4,4.9,10.1c0.3,8.7-4.3,12-6.6,13.3c-2.3,1.3-3.3,1.6-3.3,1.6s2.6-4.4,0.2-6.6
				c-2.4-2.3-5.5-3.9-9.4-4.2c-3.6-0.3-9.2-0.7-12.7,2.4c-2.2,2-1.8,4.2-1.8,4.2s-1.8-1.9-2.7-5.3c-0.9-3.4-0.4-7.5-0.4-7.5
				s3,6.3,7.6,5.7c4.5-0.6,5.8-7.4,5.4-9.5c-0.4-2.1-1.1-4.5-3-5.7c-2.1-1.3-2-1.1-2-1.1s1.1-1.4,6.7-1.7c4.5-0.3,8.4,0.3,8.4,0.3
				L50.4,31.4z"/>
			<path fill="#3F4469" d="M39.8,30.5c0,0-3.8,0.4-4.6,0.8c-0.8,0.5-0.2,0.7,1.1,1.7c1.3,0.9,2.3,2.2,2.6,5.1c0.3,2.9-0.2,4-0.2,4
				s0.6-2.3,0.4-4.1c-0.2-1.8-0.1-2-0.1-2s1.6,0.6,3.1-0.3c1.5-1,2.9-3,2.9-3L39.8,30.5z"/>
			<path fill-rule="evenodd" clip-rule="evenodd" fill="#010101" d="M38.8,48.3c0,0-7.5,0.4-9.4,3.9c-1.8,3.5,0.2,6.2,1.7,6.3
				c1.5,0.1,3.8-1.7,8.4-1.2c4.6,0.4,6.4,1.4,8.1,2.2c1.6,0.8,3.1,1.1,4.4,0.6c1.4-0.5,2.5-2.7,2.1-4.8c-0.4-2.1-3.9-5.2-7.7-6.1
				C42.6,48.2,38.8,48.3,38.8,48.3z"/>
			<path fill="#3F4469" d="M40.5,59.8c0,0,1.3-0.1,1.3,0.7c0,0.7-0.8,0.6-0.8,0.6S40.6,60.6,40.5,59.8z"/>
			<path fill="#3F4469" d="M41.3,62.4c0,0,1.1-0.2,1,0.5c-0.1,0.7-0.6,0.5-0.6,0.5L41.3,62.4z"/>
			<path fill="#3F4469" d="M43.3,64.8c0,0,1.3-0.4,1.2,0.2c0,0.6-0.5,0.5-0.5,0.5L43.3,64.8z"/>
			<path fill="#010101" d="M65.1,46.3c-0.6-4.2-3-8.1-5.9-10.9c-4.9-4.6-11.9-6.1-18.4-5.5c-3.4,0.3-7,1.3-9.2,2.5
				c-0.3,0.1-0.2,0.4,0.1,0.3c6.6-2.5,13.7-3.1,20.4-0.8c5.3,1.8,9.5,6.1,11.5,11.4c2.2,5.7,0.7,11.9-3.2,16.4
				c-3.8,4.5-9.4,6.8-15.1,7.1c-6.7,0.4-13.7-2-18-7.5c-2.1-2.7-3.4-6.1-3.7-9.6c-0.3-3.7,0.6-7.1,2.5-10.2c0.2-0.4,0.4-1.9,0.1-1.5
				c-1.5,2.3-3,6-3.3,8.8c-0.3,2.6,0.1,5.3,1,7.7c1.8,5,5.6,8.8,10.2,10.9c9.6,4.5,22.3,1.8,28.4-7.4C64.8,54.6,65.7,50.4,65.1,46.3
				z"/>
			<path fill="#3F4469" d="M36.4,57.5c0,0,1.4-0.6,4.3-0.1c2.9,0.5,3.7,1,3.7,1s-2.1-0.5-2.8-0.6c-0.7-0.1-0.7-0.1-0.7-0.1
				s-0.4,0-0.4,0.6c0,0.6,0.3,3.3,1.7,5.3c1.4,2,4.1,2.6,4.1,2.6s-0.7,0.9-1,0.5c-0.4-0.3-2.4-1.5-4-3.7c-1.7-2.2-1.7-5.3-1.7-5.3
				S37.7,57.3,36.4,57.5z"/>
			<path fill="#D8D9E1" d="M37.3,31.2c0,0,2.6-1,5.6-1c3,0,4.3,0.4,4.3,0.4s-2.8,3-4.6,4.1c-1.8,1.1-4.8,0.3-4.8-0.9
				c0.1-1.2,0.5-2.2,0.5-2.2L37.3,31.2z"/>
			<path fill="#FFFFFF" d="M39.6,31.1c0,0-1.6,1.8,0.6,2.4c2.2,0.6,4.2-1.2,4.4-1.8c0.2-0.6-0.6-1-2-1.1
				C41.2,30.5,39.6,31.1,39.6,31.1z"/>
			<path fill="#3F4469" d="M45,31.2c0,0-2.9,2.1-3.9,6.6c-1.1,4.8-0.4,6.5-0.6,7.9c-0.2,1.4-0.4,1.8-0.4,1.8s1.4,0.2,2.9,0.7
				c1.5,0.4,1.5,0.4,1.5,0.4s-5-0.4-7.2,0c-2.2,0.4-2.2,0.4-3.7,1c0,0,3.5-1.5,4.2-1.5c0.7-0.1,1.6-0.8,1.8-1.4c0.2-0.6,0-5,0.5-7.6
				c0.5-2.6,1.3-4.9,2.4-6.6c1.2-1.8,2.1-2,2.1-2S45.6,30.8,45,31.2z"/>
			<path fill="#3F4469" d="M43.4,32.3c0,0,1.1,0.1,0.8,0.4C43.9,33,42.9,33,42.9,33L43.4,32.3L43.4,32.3z"/>
			<path fill="#3F4469" d="M42.1,34.5c0,0,0.8,0.2,0.6,0.5c-0.3,0.3-0.9,0.2-0.9,0.2L42.1,34.5z"/>
			<path fill="#3F4469" d="M41.1,37.2c0,0,0.8,0.2,0.5,0.6c-0.3,0.4-0.7,0.3-0.7,0.3L41.1,37.2z"/>
			<path fill="#3F4469" d="M40.6,40.2c0,0,0.5,0.1,0.4,0.4c0,0.3-0.6,0.4-0.6,0.4L40.6,40.2z"/>
			<path fill="#3F4469" d="M40.3,43c0,0,0.6,0,0.6,0.4c0,0.3-0.6,0.4-0.6,0.4L40.3,43z"/>
			<path fill="#3F4469" d="M40.4,45.7c0,0,0.5,0.2,0.4,0.5c-0.1,0.3-0.7,0.3-0.7,0.3L40.4,45.7z"/>
			
				<radialGradient id="SVGID_2_" cx="20.2654" cy="32.483" r="7.7062" gradientTransform="matrix(1.0522 4.720000e-002 -4.622700e-002 1.0751 12.6217 -2.0113)" gradientUnits="userSpaceOnUse">
				<stop  offset="0" style="stop-color:#FFFFFF"/>
				<stop  offset="0.1055" style="stop-color:#FFFEF8"/>
				<stop  offset="0.2349" style="stop-color:#FDFBEC"/>
				<stop  offset="0.3769" style="stop-color:#FBF7D8"/>
				<stop  offset="0.5278" style="stop-color:#F8F2BD"/>
				<stop  offset="0.6859" style="stop-color:#F6EC9A"/>
				<stop  offset="0.8474" style="stop-color:#F3E66E"/>
				<stop  offset="0.9719" style="stop-color:#F0E23C"/>
			</radialGradient>
			<path fill="url(#SVGID_2_)" d="M33.6,32.1c0,0,5.3,1.1,4.9,7.3c-0.5,6.3-2.7,9.2-6.6,8.5c-3.9-0.6-7.7-4.7-5.2-10.2
				C29.1,32.2,33.6,32.1,33.6,32.1z"/>
			<path fill="#F69321" d="M30.4,37.4c0,0-0.5,1.5-1.1,1.8c-0.5,0.4-1.7-0.5-1.7-0.5s0.6,0.1,1.2-0.3c0.6-0.5,0.6-0.7,0.6-0.7
				s-0.8,0.2-1.1-0.1c-0.3-0.3-0.3-0.3-0.3-0.3s1.2-0.2,1.7-0.6c0.5-0.4,0.5-0.4,0.5-0.4s-0.4,0.1-0.8-0.2C29,35.6,29,35.6,29,35.6
				s0.8,0.1,1.2,0c0.4-0.1,0.7-0.3,0.7-0.3l0,1.1L30.4,37.4z"/>
			
				<radialGradient id="SVGID_3_" cx="33.3058" cy="31.3844" r="8.855" gradientTransform="matrix(1.0522 4.720000e-002 -4.622700e-002 1.0751 12.6217 -2.0113)" gradientUnits="userSpaceOnUse">
				<stop  offset="0" style="stop-color:#FFFFFF"/>
				<stop  offset="0.1055" style="stop-color:#FFFEF8"/>
				<stop  offset="0.2349" style="stop-color:#FDFBEC"/>
				<stop  offset="0.3769" style="stop-color:#FBF7D8"/>
				<stop  offset="0.5278" style="stop-color:#F8F2BD"/>
				<stop  offset="0.6859" style="stop-color:#F6EC9A"/>
				<stop  offset="0.8474" style="stop-color:#F3E66E"/>
				<stop  offset="0.9719" style="stop-color:#F0E23C"/>
			</radialGradient>
			<path fill="url(#SVGID_3_)" d="M54.5,32.5c0,0-5.9-2.3-9,0.8c-3.1,3.1-3.9,6.2-3.1,10.5c0.8,4.2,7.6,7.9,13.3,3.5
				C61.4,43,59.6,34.9,54.5,32.5z"/>
			<path fill="#F69321" d="M53.9,39.1c0,0-0.3,1.3,0.9,2c1.2,0.6,2.1,0.3,2.1,0.3s-0.7-0.1-1.6-1.3c0,0-0.4,0.1,0.7-0.1
				c1.1-0.2,1.2-1,1.2-1s-0.5,0.7-1.6,0c-0.7-0.5-0.8-0.9-0.8-0.9s1.2,0.6,2-0.1c0.7-0.5,0.5-0.7,0.5-0.7s-1.3,0.8-2.4-0.3
				c-1.1-1-2-2.1-2-2.1L53.9,39.1z"/>
			<path fill="#F69321" d="M52.6,32c0,0-5.3-1.2-7.4,3.6c-2.2,4.8-1.7,8.5-0.4,10c1.3,1.5,4.6,3.7,9.1,0.9c4.5-2.9,4.5-9,3.8-10.4
				c-0.7-1.4-1-1.7-1-1.7s2.8,2,2.7,5.9c-0.1,3.8-2.7,6.7-5.2,7.8c-2.5,1.1-5.1,2-8.3,0.4c-3.2-1.5-4.9-6.1-3.5-10.2
				C43.8,34.1,45.7,31.2,52.6,32z"/>
			<radialGradient id="SVGID_4_" cx="33.6399" cy="40.4017" r="8.3144" gradientUnits="userSpaceOnUse">
				<stop  offset="0" style="stop-color:#FFFFFF"/>
				<stop  offset="0.1629" style="stop-color:#F7F7F7"/>
				<stop  offset="0.4209" style="stop-color:#E0E0E2"/>
				<stop  offset="0.7401" style="stop-color:#BBBCBF"/>
				<stop  offset="0.896" style="stop-color:#A6A8AC"/>
			</radialGradient>
			<path fill="url(#SVGID_4_)" d="M34.6,35c0,0,2.6,0.6,2.9,4.4c0.3,3.8-1.3,7.5-4.2,7.2c-2.9-0.3-4-3.2-3.7-6.5
				C29.9,36.7,32.6,34.4,34.6,35z"/>
			<radialGradient id="SVGID_5_" cx="48.167" cy="38.6782" r="8.5026" gradientUnits="userSpaceOnUse">
				<stop  offset="0" style="stop-color:#FFFFFF"/>
				<stop  offset="0.1629" style="stop-color:#F7F7F7"/>
				<stop  offset="0.4209" style="stop-color:#E0E0E2"/>
				<stop  offset="0.7401" style="stop-color:#BBBCBF"/>
				<stop  offset="0.896" style="stop-color:#A6A8AC"/>
			</radialGradient>
			<path fill="url(#SVGID_5_)" d="M50.3,33.6c0,0-4.2-1.3-5.8,3.9c-1.7,5.1-0.5,9.5,3,9.2c3.5-0.4,6.2-4.1,5.9-7.8
				C53,35.2,52,34.2,50.3,33.6z"/>
			<g>
				<path fill-rule="evenodd" clip-rule="evenodd" fill="#595A5C" d="M49.5,40.2c-0.2,1.9-1.4,3.4-2.9,3.3c-1.4-0.1-2.4-1.8-2.3-3.7
					c0.2-1.9,1.4-3.4,2.9-3.3C48.7,36.6,49.7,38.2,49.5,40.2z"/>
				
					<radialGradient id="SVGID_6_" cx="42.8723" cy="31.0238" r="2.5919" gradientTransform="matrix(1.0491 9.420000e-002 -9.216000e-002 1.072 4.8054 2.6847)" gradientUnits="userSpaceOnUse">
					<stop  offset="0" style="stop-color:#A6A7AA"/>
					<stop  offset="1" style="stop-color:#6E6F71"/>
				</radialGradient>
				<path fill-rule="evenodd" clip-rule="evenodd" fill="url(#SVGID_6_)" d="M49.2,40.2c-0.2,1.8-1.3,3.1-2.5,3
					c-1.2-0.1-2.1-1.6-2-3.4c0.2-1.8,1.3-3.1,2.5-3C48.4,36.9,49.3,38.4,49.2,40.2z"/>
				
					<linearGradient id="SVGID_7_" gradientUnits="userSpaceOnUse" x1="59.1639" y1="30.653" x2="62.8803" y2="30.653" gradientTransform="matrix(0.9961 8.750000e-002 -8.750000e-002 0.9961 -10.7158 3.3498)">
					<stop  offset="0" style="stop-color:#D0D2D3"/>
					<stop  offset="1" style="stop-color:#6E6F71"/>
				</linearGradient>
				<path fill-rule="evenodd" clip-rule="evenodd" fill="url(#SVGID_7_)" d="M45.8,37.3c-0.3,0.9-0.4,2.4,0.7,3.6c1,1,1.8,1,2.3,0.7
					c0.2-0.4,0.3-0.9,0.4-1.4c0.2-1.8-0.7-3.3-2-3.4C46.7,36.7,46.2,36.9,45.8,37.3z"/>
				<path fill-rule="evenodd" clip-rule="evenodd" fill="#010101" d="M48.4,39.9c-0.1,1.2-0.9,2.1-1.7,2c-0.8-0.1-1.4-1.1-1.3-2.3
					c0.1-1.2,0.9-2.1,1.7-2C47.9,37.7,48.5,38.8,48.4,39.9z"/>
				
					<ellipse transform="matrix(0.996 8.944242e-002 -8.944242e-002 0.996 3.5896 -4.1124)" fill-rule="evenodd" clip-rule="evenodd" fill="#FFFFFF" cx="47.7" cy="38" rx="0.5" ry="0.7"/>
				
					<ellipse transform="matrix(0.9959 9.010675e-002 -9.010675e-002 0.9959 3.8915 -3.9445)" fill-rule="evenodd" clip-rule="evenodd" fill="#FFFFFF" cx="45.6" cy="41.1" rx="0.2" ry="0.3"/>
			</g>
			<g>
				<path fill-rule="evenodd" clip-rule="evenodd" fill="#595A5C" d="M34.7,40.2c-0.1,1.6-1.2,2.9-2.4,2.8c-1.2-0.1-2-1.5-1.9-3.2
					c0.1-1.6,1.2-2.9,2.4-2.8C34,37.1,34.9,38.6,34.7,40.2z"/>
				
					<radialGradient id="SVGID_8_" cx="29.2909" cy="32.253" r="2.1923" gradientTransform="matrix(1.0491 9.420000e-002 -9.216000e-002 1.072 4.8054 2.6847)" gradientUnits="userSpaceOnUse">
					<stop  offset="0" style="stop-color:#A6A7AA"/>
					<stop  offset="1" style="stop-color:#6E6F71"/>
				</radialGradient>
				<path fill-rule="evenodd" clip-rule="evenodd" fill="url(#SVGID_8_)" d="M34.5,40.2c-0.1,1.5-1.1,2.6-2.1,2.5
					c-1-0.1-1.8-1.4-1.7-2.9c0.1-1.5,1.1-2.6,2.1-2.5C33.8,37.4,34.6,38.7,34.5,40.2z"/>
				
					<linearGradient id="SVGID_9_" gradientUnits="userSpaceOnUse" x1="45.0866" y1="32.0716" x2="48.2258" y2="32.0716" gradientTransform="matrix(0.9961 8.750000e-002 -8.750000e-002 0.9961 -10.7158 3.3498)">
					<stop  offset="0" style="stop-color:#D0D2D3"/>
					<stop  offset="1" style="stop-color:#6E6F71"/>
				</linearGradient>
				<path fill-rule="evenodd" clip-rule="evenodd" fill="url(#SVGID_9_)" d="M31.6,37.7c-0.2,0.8-0.3,2,0.6,3
					c0.8,0.9,1.5,0.8,1.9,0.6c0.2-0.4,0.3-0.8,0.3-1.2c0.1-1.5-0.6-2.8-1.7-2.9C32.4,37.3,31.9,37.4,31.6,37.7z"/>
				<path fill-rule="evenodd" clip-rule="evenodd" fill="#010101" d="M33.8,40c-0.1,1-0.7,1.8-1.4,1.7c-0.7-0.1-1.2-0.9-1.1-1.9
					c0.1-1,0.7-1.8,1.4-1.7C33.4,38.1,33.9,39,33.8,40z"/>
				
					<ellipse transform="matrix(0.9959 9.005792e-002 -9.005792e-002 0.9959 3.588 -2.8342)" fill-rule="evenodd" clip-rule="evenodd" fill="#FFFFFF" cx="33.2" cy="38.3" rx="0.5" ry="0.6"/>
				
					<ellipse transform="matrix(0.9958 9.150669e-002 -9.150669e-002 0.9958 3.8827 -2.7078)" fill-rule="evenodd" clip-rule="evenodd" fill="#FFFFFF" cx="31.5" cy="41" rx="0.2" ry="0.3"/>
			</g>
			<path fill-rule="evenodd" clip-rule="evenodd" fill="#F06724" d="M52.7,34.7c-0.8-1-1.9-1.8-3.1-1.6c-3.4-0.6-5.5,3.4-5.9,5.9
				c-0.5,3.1-0.1,8.2,3.7,7.9c3.4-0.2,5.6-4.1,6.3-7.2C54.1,37.9,53.8,36.1,52.7,34.7z M52.9,40.4c-0.8,2.6-2.6,5.4-5.3,5.8
				c-3.4,0.6-3.8-4.2-3.5-6.7c0.2-1.4,0.7-2.7,1.6-3.8c0.7-0.9,1.8-2,3-2.1c0,0,0.6-0.2,1.3,0c1.2,0.2,2.2,1.1,2.9,2.2
				C53.6,37.3,53.3,38.9,52.9,40.4z"/>
			<path fill-rule="evenodd" clip-rule="evenodd" fill="#F06724" d="M23,52.2c-0.6-0.9-1.7-1.6-1.3-2.8c0.3-0.8,0.8-1.4,0.6-2.3
				c-0.1-0.5-0.7-0.9-1.2-0.9c-0.5,0-0.9,0.6-1.1,1c-0.6,1.3-0.6,2.6,0,3.8c-0.6,0.1-0.8,1.2-0.9,1.7c-0.2,1.1,0.1,2.3,1.1,2.9
				c0.1,0.1,0.2,0,0.2-0.2c-0.3-0.8-0.9-1.3-0.8-2.3c0.1-0.6,0.1-1.2,0.5-1.8c0.1,0.2,0.2,0.3,0.4,0.5c0.1,0.2,0.4,0,0.3-0.2
				c-0.7-1.2-0.8-2.5-0.4-3.8c0.1-0.2,0.2-0.5,0.3-0.7c0.3-0.6,1.1-0.2,1,0.6c-0.1,0.6-0.5,1.1-0.7,1.7c-0.3,0.9,0.2,1.8,0.8,2.4
				c0.5,0.6,1,1,1,1.8c0.1,1-1.1,1.6-1.8,1.9c-0.2,0.1-0.2,0.4-0.1,0.5c0.4,0.5,0.8,1.1,0.8,1.8c-0.4,0.8-1,1.1-1.6,0.8
				c-0.4-0.1-0.8-0.5-1-0.8c-0.1-0.1-0.4-0.2-0.5,0c-0.4,0.4-0.8,0.8-1.2,1.2c-0.3,0.2-0.6,0.4-1,0.6c-0.6,0.3-1.5,0-1.1-0.8
				c0.5-1.1,1.8-1.8,2.1-3.1c0.3-1.3-1.9-0.7-2.4-0.7c-0.4,0-0.7-0.1-1-0.3c-0.5-1-0.4-1.4,0.3-1.3c0.4,0,0.8,0,1.2,0
				c0.7-0.1,1.3-0.2,1.8-0.7c0,0.4,0,0.8,0,1.2c0,0.6,0.1,1.3,0.5,1.8c0.1,0.1,0.2,0,0.2-0.1c0.1-0.6-0.1-1.3-0.1-2
				c0-0.7,0.1-1.4-0.1-2c0-0.1-0.2-0.1-0.2,0c0,0.1-0.1,0.2-0.1,0.3c-0.3-0.3-0.7-0.6-1-0.9c-1-0.9-0.1-1.6,0.2-2.5
				c0.2-0.6,0.1-1.5,0.4-2.1c1.3,0.2,1.4,1.5,1,2.6c-0.2,0.7-1,1.2-0.5,1.9c0.1,0.1,0.2,0.1,0.3,0c0.2-0.2,0.2-0.5,0.4-0.8
				c0.2-0.2,0.3-0.5,0.5-0.7c0.3-0.6,0.5-1.3,0.3-2c-0.1-0.7-1-1.7-1.8-1.5c0,0,0,0,0,0c-1-0.1-0.9,2-1.2,2.6
				c-0.4,0.7-0.6,1.2-0.5,1.9c0.2,0.9,1,1.4,1.6,1.9c-0.5,0.3-1.1,0.3-1.7,0.4c-0.4,0-1-0.2-1.4,0c-0.8,0.2-1.1,0.9-0.9,1.7
				c0.3,0.9,1.3,1.1,2.1,1.3c0.5,0.1,1.1,0,1.6-0.1c0.4-0.1-0.6,1.2-0.6,1.2c-0.8,0.9-2.4,2.6-0.8,3.6c1.2,0.7,2.8-0.8,3.7-1.7
				c0.8,0.7,1.9,1.2,2.8,0.5c1.2-0.9,0.7-2.2,0-3.2C23.2,55.3,24.1,53.8,23,52.2z"/>
			<path fill="#010101" d="M45.4,66.7c-0.6-0.4-1.2-0.8-1.8-1.2c0,0,0.1-0.1,0.1-0.1c0.1-0.1-0.1-0.3-0.2-0.2c-0.1,0-0.2,0-0.3,0.1
				c-0.7-0.6-1.3-1.3-1.7-2c0.1,0,0.1-0.1,0.2-0.1c0.2-0.1,0.1-0.3-0.1-0.3c-0.1,0-0.3,0-0.4-0.1c-0.3-0.6-0.5-1.2-0.7-1.8
				c0.3-0.1,0.5-0.2,0.7-0.4c0.1-0.1,0-0.3-0.2-0.2c-0.2,0.1-0.4,0.1-0.6,0.1c-0.2-0.6-0.3-1.3-0.5-2c0.1,0,0.1,0,0.2-0.1
				c0.2-0.1,0.1-0.4-0.1-0.4c-0.1,0-0.2,0-0.2,0c0-0.1,0-0.2-0.1-0.3c0-0.1-0.2-0.1-0.2,0c0,0.1,0,0.2,0,0.2c-0.2,0-0.4,0.1-0.5,0.3
				c0,0.1,0,0.2,0.1,0.2c0.1,0.1,0.3,0.1,0.4,0c0.1,0.6,0.1,1.3,0.3,1.9c-0.1,0-0.3,0.1-0.4,0.2c-0.1,0.1-0.1,0.1,0,0.2
				c0.1,0.2,0.3,0.2,0.5,0.2c0.2,0.6,0.4,1.1,0.7,1.7c-0.2,0-0.4,0-0.5,0.2c0,0.1,0,0.1,0,0.2c0.1,0.3,0.5,0.2,0.7,0.2
				c0,0,0.1,0,0.1,0c0,0.1,0.1,0.1,0.1,0.2c0.4,0.7,0.9,1.3,1.5,1.9c-0.2,0.1-0.4,0.2-0.2,0.4c0.1,0.2,0.6,0.1,0.8,0.1
				c0.7,0.5,1.5,1,2.3,1.1C45.4,67,45.5,66.8,45.4,66.7z"/>
			<path fill="#010101" d="M38.6,35.8c-0.8-2.6-4.3-5.1-6.9-3.5c-0.1,0.1,0,0.3,0.1,0.2c1.3-0.7,3.1,0.1,4.2,0.8
				c1.3,0.8,1.9,2.1,2.2,3.5c0.5,2.4,0.1,5.2-0.8,7.4c-1.3,3.1-4.5,4.4-7.4,2.6c-2.2-1.3-4.7-5.1-3.5-7.7c0.1-0.2-0.2-0.4-0.3-0.2
				c-1.6,2.9,0.8,6.6,3.2,8.3c3,2.2,6.5,1.1,8.3-1.9C39.1,42.8,39.5,38.8,38.6,35.8z"/>
			<path fill="#010101" d="M57.8,34.9c-0.7-0.9-1.5-1.5-2.4-2.1c-1.3-1.3-3.2-1.5-5-1.4c-2.1,0.1-4.1,0.7-5.7,2.1
				c-3.3,3-4.1,9-1.7,12.8c2.8,4.3,8.6,4.2,12.4,1.5c2-1.4,3.6-3.5,4.1-6C60.2,39.3,59.3,36.8,57.8,34.9z M57.2,45.3
				c-2.9,3.8-8.9,5.2-12.6,1.7c-3.3-3.1-2.7-8.9-0.1-12.2c1.3-1.7,3.2-2.5,5.2-2.7c1.7-0.2,4-0.2,5.5,1c1.7,1.6,3.1,3.1,3.7,5.4
				C59.5,40.9,58.7,43.3,57.2,45.3z"/>
			<g>
				<path fill="#231F20" d="M49.7,28.5C49.7,28.5,49.7,28.5,49.7,28.5c-1.3-2-3.4-3.5-5.6-4c-2-0.4-2.3,2-2,3.5
					c0.5,2.1,2.5,3.5,4.6,3.3C48.1,31.2,50.3,30.3,49.7,28.5z M46.8,30.6c-1.8,0.3-3.4-1.1-3.9-2.8c-0.2-0.7-0.2-1.4,0-2.1
					c0.2-1.2,1.5-0.7,2.2-0.4c1.7,0.6,3.2,2,4.2,3.5c0,0.1,0.1,0.1,0.2,0.1C49.3,30.1,47.9,30.5,46.8,30.6z"/>
				<path fill="#231F20" d="M40.5,25.9c-0.9-1.5-3.3,0.1-4.3,0.6c-1.4,0.7-3.1,1.9-1.4,3.4c1.6,1.4,4,0.8,5.2-0.7
					C40.5,28.5,41.6,26.6,40.5,25.9z M39.5,28.8c-1,1.1-2.8,1.8-4.1,0.8c-1.7-1.2,0.6-2.2,1.5-2.7c1-0.6,2.2-1.3,3.4-0.6
					c0.1,0,0.1,0,0.2,0C40.8,27.1,40,28.1,39.5,28.8z"/>
				<path fill="#010101" d="M40.1,25.9c0,0-1.5-0.5-3.8,0.9c-2.3,1.3-2.3,1.8-1.1,2.9c1.2,1.1,2.8,1,4-0.1c1.2-1.2,1.5-2.4,1.5-2.7
					C40.7,26.6,40.6,26.2,40.1,25.9z"/>
				<path fill="#010101" d="M49.6,28.5c-0.8-0.8-4.6-3.5-4.6-3.5l-0.9-0.4c0,0-2.6,0.1-1.7,2.9c0.4,1.2,1,2.1,1.7,2.8
					c-0.8,0.5-1.4,1.1-2,1.9c-0.5-0.1-1,0-1,0.4c0,0.1,0,0.1,0.1,0.2c0.2,0.1,0.3,0,0.5,0c-0.3,0.5-0.6,1.1-0.9,1.6c0,0,0,0,0,0
					c-0.2,0-0.7,0.1-0.7,0.5c0,0.3,0.3,0.2,0.5,0.2c-0.2,0.5-0.4,1.1-0.6,1.6c-0.1,0.3-0.2,0.6-0.2,0.9c-0.2,0.1-0.5,0.2-0.4,0.5
					c0,0.2,0.2,0.2,0.3,0.1c-0.1,0.7-0.2,1.4-0.2,2.1c-0.1,0-0.2,0-0.3,0.1c-0.2,0.1-0.2,0.5,0.1,0.5c0,0,0.1,0,0.1,0
					c0,0.3,0,0.7-0.1,1c0,0.5,0,1,0,1.5c-0.2,0.1-0.4,0.2-0.6,0.4c-0.1,0.2,0.1,0.5,0.3,0.4c0.1,0,0.2-0.1,0.2-0.1
					c0,0.2,0,0.5,0,0.7c0,0.4-0.1,0.8-0.1,1.1c0,0,0,0,0,0c-0.3,0-0.6,0.1-0.8,0.4c-0.1,0.1,0,0.2,0,0.3c0,0,0,0,0,0c0,0,0,0,0.1,0
					c0,0,0,0,0,0c0,0,0,0,0,0c0,0,0,0,0,0c0,0,0,0,0.1,0c0.1,0,0.2-0.1,0.4-0.1c0,0,0,0,0,0c-0.1,0.4-0.3,0.7-0.5,1.1
					c-0.1,0.1,0.1,0.3,0.2,0.2c0.5-0.4,0.8-0.9,1-1.4c0,0,0.1,0,0.1,0c0.2,0.1,0.3-0.2,0.1-0.3c-0.1,0-0.1-0.1-0.2-0.1
					c0.1-0.5,0.2-1,0.2-1.6c0-0.2,0-0.4,0-0.6c0.1,0,0.1,0,0.2,0c0.2-0.1,0.2-0.3,0-0.3c-0.1,0-0.1,0-0.2-0.1c0-0.8,0.1-1.6,0.1-2.4
					c0,0,0.1,0,0.1,0c0.1,0,0.2-0.2,0.1-0.3c-0.1,0-0.1-0.1-0.2-0.1c0-0.4,0.1-0.9,0.1-1.3c0-0.4,0.1-0.8,0.1-1.1c0.1,0,0.3,0,0.4,0
					c0.2,0,0.2-0.3,0-0.3c-0.1,0-0.2-0.1-0.3-0.1c0.2-0.9,0.4-1.7,0.8-2.5c0.1,0,0.2,0,0.4,0c0.2,0,0.3-0.2,0.1-0.3
					c-0.1-0.1-0.2-0.1-0.3-0.1c0.3-0.6,0.6-1.2,1-1.7c0.2,0,0.4,0,0.6,0c0.1,0,0.1-0.2,0-0.2c-0.1-0.1-0.2-0.1-0.3-0.2
					c0.5-0.7,1-1.3,1.6-1.9c0.9,0.7,1.9,0.9,2.9,0.7C49.1,30.5,50.4,29.3,49.6,28.5z"/>
				<path fill="#231F20" d="M42.8,24.9c0,0-0.4,2,2.5,3.6c2.9,1.6,5.1,1.4,4.2-0.3c-1-1.7-3.6-3-4.7-3.5
					C43.7,24.3,42.9,24.7,42.8,24.9z"/>
				<path fill="#231F20" d="M39.8,25.6c0,0,0.4,1.1-1,2.3c-1.3,1.2-4.3,1.2-4.5,0.6c-0.2-0.6,2.2-2,3.4-2.6
					C38.8,25.4,39.8,25.2,39.8,25.6z"/>
				<path fill="#353434" d="M43.5,24.7c0,0-1.1,1.6,1.2,2.8c2.3,1.2,3.3,0.2,1.7-1.4C44.8,24.6,44,24.8,43.5,24.7z"/>
				<path fill="#2B2728" d="M38.8,25.6c0,0-1.9,0.8-1.4,1.7c0.5,0.9,2.8-1.4,2.2-1.7C38.9,25.3,38.8,25.6,38.8,25.6z"/>
			</g>
			<path fill="#010101" d="M45.7,34.8c0,0,2-2.6,5.3-1.2c2.9,1.2,2.9,4.6,2.9,4.6s0.4,0.2,1.3,0.2c1,0,1.5-0.9,1.5-0.9
				s-0.5,0.1-1.1-0.1c-0.5-0.2-0.7-0.5-0.7-0.5s0-2.3-2.9-3.6C49.1,31.8,46.4,33.4,45.7,34.8z"/>
			<path fill="#010101" d="M56.6,36.2c0,0-0.4,0.5-1.1,0.5c-0.7,0-1.1-0.5-1.1-0.5l-0.4-0.8C53.9,35.3,55.3,36.8,56.6,36.2z"/>
			<path fill="#010101" d="M55.9,35.3c0,0-0.7,0.6-1.7,0.1c-1-0.6-1-1.1-1-1.1S54.6,35.6,55.9,35.3z"/>
			<path fill="#F69321" d="M32.1,32.5c0,0-4.3,1.6-4.3,7.2c0,5.6,2.5,8,5,7.6c2.5-0.4,5.3-2.9,5-8.4c-0.2-4.3-2-5.6-2-5.6
				s1.8,0.7,2.5,4c0.7,3.4-0.5,7.2-1.9,8.9c-1.4,1.7-4.6,2.7-7.3,0.2c-2.7-2.5-3.7-5-3.1-7.4C26.6,36.7,29.6,32.7,32.1,32.5z"/>
			<path fill-rule="evenodd" clip-rule="evenodd" fill="#F06724" d="M35.2,35C35.2,35,35.2,35,35.2,35c-1.9-1.9-4.5,1.2-5.2,3
				c-1.2,2.7-0.8,7.5,2.1,8.7c3,1.3,5.3-1.7,5.7-4.7C38,39.6,37.7,35.8,35.2,35z M32.4,46.2c-2.7-0.9-2.9-5.1-2.2-7.5
				c0.3-1.1,1-1.9,1.7-2.6c0.6-0.6,1.3-1,2.2-1c0.3,0,0.4,0.1,0.5,0.1c1.2,0.5,1.9,1.2,2.3,2.4c0.4,1.2,0.4,2.6,0.3,3.9
				C37.1,44.2,35.2,47.2,32.4,46.2z"/>
			<path fill-rule="evenodd" clip-rule="evenodd" fill="#010101" d="M37.1,36.9c0,0-0.6-1-1.7-1.7c-0.8-0.5-2-0.8-2.9-0.2
				c-2,1.3-2.5,2.9-2.5,2.9s-0.9,0.6-1.8-0.2c-0.6-0.6-0.4-1.4-0.4-1.4s0.5,0.6,1.5,0.6c0.5,0,0.6-0.4,0.6-0.4s0.7-2.2,3.2-2.7
				C35.6,33.3,37.1,36.9,37.1,36.9z"/>
			<path fill="#010101" d="M28.2,35.5c0,0,0.2,0.6,0.9,0.8c0.7,0.2,1.3-0.1,1.3-0.1l0.7-0.7C31.1,35.5,29.3,36.5,28.2,35.5z"/>
			<path fill="#010101" d="M29.1,34.9c0,0,0.5,0.8,1.7,0.6c1.2-0.2,1.3-0.7,1.3-0.7S30.3,35.6,29.1,34.9z"/>
			<path fill="#D8D9E1" d="M35.1,48.9c0,0,2-0.9,5.2-0.8c3.2,0.1,4.4,0.7,4.4,0.7s-3.2-1.5-6-1.2C36,47.9,35.1,48.9,35.1,48.9z"/>
			<path fill="#010101" d="M35.1,48.9c0,0,1.7-1.5,4.9-1.3c3.2,0.2,4.7,1.1,4.7,1.1s-3-1.8-6.2-1.4C35.3,47.8,35.1,48.9,35.1,48.9z"
				/>
			<path fill="#010101" d="M59.8,40.5c0,0,0.6,3.3-0.7,8.2c-1.5,5.6-5.4,7.6-5.4,7.6s0.6-2.2-2.1-4c-2.7-1.8-4-2.4-6.6-3.3
				c-2.5-0.9-2.8-1-2.8-1l2.7,0.2c0,0,3.5,2,8.3,0.5c4.8-1.6,6-7,6-7L59.8,40.5z"/>
			<path fill="#010101" d="M27.4,45.3c0,0-0.9,2.3-0.3,4.6c0.6,2.3,1.5,3.1,1.5,3.1s0.3-1,1.7-2.2c1.4-1.3,5.7-2.7,5.7-2.7l-0.7,0.6
				c0,0-3.8,0.9-5.5,3.3c-1.6,2.4-1,4.5-0.3,5.2c0.7,0.7,1.1,0.8,1.1,0.8s-2.8-0.1-4.8-4.6c-2.6-5.8-0.1-10.7-0.1-10.7L27.4,45.3z"
				/>
			<path fill="#3F4469" d="M25.4,40.8c0,0,0.1,2,1.6,4.1c1.6,2.1,3.1,3.2,4.9,3.4c1.8,0.2,3.2-0.4,3.2-0.4s-2.4,0.9-2.8,0.9
				c-0.4,0,1.4-0.1,1,0c-0.4,0.1-2.6,1.5-3.7,2.7c-1.1,1.2-1.5,2.4-1.5,2.4l0.1-1.2c0,0-1.3-1.1-2-3.7c-0.6-2.6,0.2-4.2,0.2-4.2
				S25,43,25.4,40.8z"/>
			<path fill="#3F4469" d="M30.9,58.7c0,0-0.1,1.4,1.1,2.2c1.2,0.8,3-0.1,3,0.4c0,0.5,0.7,1.7,2.5,2.8c1.8,1.1,2.8,1.5,2.8,1.5
				s-5.1-0.8-8.5-4c-2.4-2.3-3.5-3.8-4.3-5.4c0,0,1.1,1.5,2.1,2C30.6,58.7,30.9,58.7,30.9,58.7z"/>
			<path fill="#010101" d="M34.6,32.7c0,0-2-0.7-4,0.6c-2,1.2-2.4,1.9-2.4,1.9s1.6-2.5,5-3.6c2.8-1,3-0.3,3-0.3s-1.3,0.2-1.2,0.6
				c0.2,0.4,0.6,0.6,0.6,0.6S35.4,32.9,34.6,32.7z"/>
			<path fill="#276349" d="M25.4,42.6c0,0-1.9,3.4-1.3,8.2c0.6,4.7,1.6,5.8,1.6,5.8s-2.1-3-2.2-8c-0.1-5,1.9-7.7,1.9-7.7
				S25.2,42.1,25.4,42.6z"/>
			<path fill="#D8D9E1" d="M25.9,43.1c0,0,0.6,1.7,1.3,2.5c0,0-0.7,0.6-0.1,3.1c0.6,2.5,1.9,2.5,1.9,2.5l-0.1,0.9
				c0,0,0.7-0.9,1.7-1.7c1-0.8,1.4-1.1,1.4-1.1l-1.6,0.5c0,0-0.1-1.1-0.1-1.3c0-0.2,0-0.2,0-0.2l0.9-0.1c0,0-1.1-0.1-3-1.9
				C26.4,44.4,25.9,43.1,25.9,43.1z"/>
			<path fill="#3F4469" d="M48.8,60c0,0,1.3,0.9,2.8,0.5c1.4-0.4,1.8-1.5,1.9-2c0,0,0.2,1.1-0.8,1.9C51.6,61.3,49.3,60.8,48.8,60z"
				/>
			<g>
				<g>
					<path fill="#83A1BC" d="M41.4,51.9c0,0,1.3,0,1.5,0.5c0.1,0.4-0.6,0.8-0.6,1.1c0,0.3,0.2,0.5,0.4,0.7c0.2,0.2,0.3,0.5,0.3,1.1
						c-0.1,0.7,0.1,1.3-0.5,1.3c-0.6,0-2.1-0.2-2.2-0.5c0-0.4,0.1-1.8,0.3-1.9c0.2-0.2,0.8-0.2,0.8-0.4c0-0.3-0.1-0.5-0.3-0.7
						c-0.3-0.3-0.3-0.7,0-0.9C41.2,52,41.4,51.9,41.4,51.9z"/>
					<path fill="#516D75" d="M41.9,51.9c0,0-1,0-1,0.5c0,0.5,0.6,0.7,0.6,1c0,0.4-0.3,0.6-0.7,0.7c-0.4,0.1-0.4,0.9-0.4,0.9
						l-0.1-0.7c0,0,0-0.2,0.4-0.3c0.4-0.1,0.7-0.4,0.4-0.7c-0.2-0.3-0.5-0.6-0.5-0.9C40.6,52.2,41.1,51.8,41.9,51.9z"/>
					<path fill="#384C5F" d="M41.8,52c0,0,1,0.2,0.9,0.6c-0.1,0.4-0.7,0.6-0.7,0.9c0,0.3-0.1,0.4,0.2,0.7c0.3,0.3,0.5,0.4,0.4,1
						c0,0.6,0,1.3-0.2,1.3c-0.2,0-2,0-2.2-0.4c-0.1-0.4,0.2-1.6,0.1-1.7c-0.1-0.1-0.2,0-0.2,0l-0.2,1.7c0,0,0,0.2,0.2,0.3
						c0.2,0.1,1.5,0.3,1.9,0.3c0.4,0.1,0.7,0.1,0.7-0.4c0-0.5,0.2-1.4,0.2-1.4s0-0.5-0.2-0.6c-0.2-0.1-0.5-0.4-0.4-0.7
						c0.1-0.3,0.6-0.5,0.7-0.8C43.2,52.5,42.9,52,41.8,52z"/>
					
						<linearGradient id="SVGID_10_" gradientUnits="userSpaceOnUse" x1="53.5751" y1="47.149" x2="53.7677" y2="49.6543" gradientTransform="matrix(0.9921 0.1255 -0.1255 0.9921 -5.5691 -1.0179)">
						<stop  offset="0" style="stop-color:#7192A2"/>
						<stop  offset="0.2732" style="stop-color:#6E8C9B"/>
						<stop  offset="0.6079" style="stop-color:#657D89"/>
						<stop  offset="0.9719" style="stop-color:#57666E"/>
					</linearGradient>
					<path fill="url(#SVGID_10_)" d="M41.1,52.2c0,0-0.4,0-0.1,0.5c0.3,0.4,0.6,0.7,0.4,1.1c-0.2,0.3-0.7,0.4-0.8,0.9
						c-0.1,0.5-0.4,1-0.1,1.3c0.3,0.2,1.5,0.4,1.7,0c0.2-0.5,0-1.3-0.2-1.7c-0.3-0.4-0.4-0.8,0-1.1c0.4-0.4,0.7-0.6,0.4-0.8
						C42.3,52.2,41.7,51.9,41.1,52.2z"/>
					
						<ellipse transform="matrix(0.9917 0.1283 -0.1283 0.9917 7.0668 -4.9323)" fill="#A5CEE1" cx="41.8" cy="52.4" rx="0.8" ry="0.3"/>
					
						<ellipse transform="matrix(0.9918 0.128 -0.128 0.9918 7.0336 -4.9208)" fill="#D8EFF5" cx="41.8" cy="52.3" rx="0.5" ry="0.2"/>
					<path fill="#516371" d="M40.6,55.8c0,0,0.5-0.7,1.2-0.3c0.7,0.4,0.7,0.9-0.3,0.8C40.6,56.1,40.6,56,40.6,55.8z"/>
				</g>
				<path fill="#B4CFE2" d="M42.7,54.7c0,0-0.1,1.3-0.1,1.5c-0.1,0.2-0.2,0.2-0.6,0.2c-0.4,0-1.4-0.2-1.4-0.2s-0.1,0.2,1.6,0.3
					c0,0,0.4,0.1,0.5-0.2c0.1-0.3,0.3-1.3,0.1-1.6c-0.1-0.2-0.5-0.5-0.5-0.5S42.7,54.6,42.7,54.7z"/>
			</g>
			<g>
				<g>
					<path fill="#83A1BC" d="M45.1,52.5c0,0,1.3,0.2,1.4,0.7c0.1,0.4-0.7,0.8-0.7,1.1c0,0.3,0.1,0.5,0.3,0.7
						c0.1,0.2,0.3,0.5,0.1,1.2c-0.2,0.6-0.1,1.4-0.7,1.3c-0.6-0.1-2.1-0.4-2.1-0.8c0-0.4,0.3-1.8,0.5-1.9c0.2-0.1,0.8-0.1,0.8-0.3
						c0.1-0.3,0-0.5-0.2-0.8c-0.2-0.3-0.2-0.8,0.1-0.9C44.9,52.5,45.1,52.5,45.1,52.5z"/>
					<path fill="#516D75" d="M45.6,52.6c0,0-1-0.1-1.1,0.4c-0.1,0.5,0.5,0.7,0.4,1.1c0,0.4-0.4,0.5-0.8,0.6
						c-0.4,0.1-0.6,0.8-0.6,0.8l0-0.8c0,0,0.1-0.2,0.5-0.2c0.4,0,0.7-0.3,0.5-0.6c-0.2-0.3-0.4-0.7-0.4-1
						C44.3,52.7,44.8,52.3,45.6,52.6z"/>
					<path fill="#384C5F" d="M45.5,52.6c0,0,1,0.3,0.8,0.8c-0.1,0.4-0.7,0.5-0.8,0.8c-0.1,0.3-0.1,0.4,0.1,0.8
						c0.3,0.4,0.4,0.4,0.3,1c-0.1,0.6-0.2,1.3-0.4,1.2c-0.2,0-2-0.3-2.1-0.7c-0.1-0.4,0.4-1.6,0.3-1.6c-0.1-0.1-0.2-0.1-0.2-0.1
						l-0.4,1.7c0,0,0,0.2,0.2,0.4c0.2,0.2,1.5,0.5,1.8,0.6c0.3,0.1,0.7,0.2,0.8-0.3c0.1-0.5,0.3-1.4,0.3-1.4s0.1-0.5-0.1-0.7
						c-0.2-0.2-0.5-0.5-0.3-0.8c0.1-0.3,0.7-0.4,0.8-0.7C46.8,53.3,46.5,52.8,45.5,52.6z"/>
					
						<linearGradient id="SVGID_11_" gradientUnits="userSpaceOnUse" x1="68.4893" y1="39.4887" x2="68.6818" y2="41.9927" gradientTransform="matrix(0.9658 0.2592 -0.2632 0.9808 -10.4633 -3.3828)">
						<stop  offset="0" style="stop-color:#7192A2"/>
						<stop  offset="0.2732" style="stop-color:#6E8C9B"/>
						<stop  offset="0.6079" style="stop-color:#657D89"/>
						<stop  offset="0.9719" style="stop-color:#57666E"/>
					</linearGradient>
					<path fill="url(#SVGID_11_)" d="M44.8,52.7c0,0-0.4,0-0.1,0.5c0.2,0.5,0.5,0.8,0.3,1.2c-0.2,0.3-0.7,0.3-0.9,0.8
						c-0.2,0.5-0.5,1-0.3,1.2c0.3,0.3,1.5,0.6,1.7,0.3c0.3-0.5,0.2-1.3,0-1.7c-0.2-0.4-0.3-0.8,0.2-1.1c0.5-0.3,0.7-0.5,0.5-0.8
						C46,52.9,45.4,52.6,44.8,52.7z"/>
					<path fill="#A5CEE1" d="M46.2,53.2c0,0.2-0.4,0.2-0.8,0.1c-0.4-0.1-0.7-0.3-0.6-0.5c0-0.2,0.4-0.2,0.8-0.1
						C45.9,52.8,46.2,53,46.2,53.2z"/>
					
						<ellipse transform="matrix(0.9643 0.2649 -0.2649 0.9643 15.6413 -10.1523)" fill="#D8EFF5" cx="45.5" cy="52.9" rx="0.5" ry="0.2"/>
					<path fill="#516371" d="M43.7,56.2c0,0,0.6-0.7,1.2-0.2c0.7,0.5,0.5,1-0.4,0.7C43.7,56.5,43.7,56.5,43.7,56.2z"/>
				</g>
				<path fill="#B4CFE2" d="M46,55.5c0,0-0.3,1.3-0.4,1.5c-0.1,0.2-0.2,0.2-0.6,0.1c-0.4-0.1-1.4-0.4-1.4-0.4s-0.1,0.2,1.6,0.5
					c0,0,0.4,0.2,0.6-0.1c0.1-0.3,0.4-1.3,0.4-1.6C46,55.2,45.7,55,45.7,55S46,55.4,46,55.5z"/>
			</g>
			<g>
				<g>
					<path fill="#83A1BC" d="M48.8,53.7c0,0,1.3,0.5,1.2,0.9c0,0.5-0.8,0.6-0.9,0.9c-0.1,0.3,0,0.6,0.1,0.8c0.1,0.2,0.2,0.6-0.1,1.2
						c-0.3,0.6-0.3,1.3-0.9,1.1c-0.6-0.2-2-0.8-1.9-1.2c0.1-0.4,0.6-1.7,0.9-1.8c0.2-0.1,0.8,0.1,0.9-0.2c0.1-0.3,0.1-0.5-0.1-0.8
						c-0.2-0.4,0-0.8,0.3-0.8C48.6,53.7,48.8,53.7,48.8,53.7z"/>
					<path fill="#516D75" d="M49.2,53.9c0,0-1-0.3-1.1,0.2c-0.2,0.5,0.3,0.8,0.2,1.2c-0.1,0.4-0.5,0.5-0.9,0.5
						c-0.4,0-0.7,0.7-0.7,0.7l0.1-0.7c0,0,0.1-0.2,0.5-0.1c0.4,0,0.8-0.2,0.6-0.5c-0.1-0.3-0.3-0.7-0.2-1
						C47.9,53.8,48.5,53.5,49.2,53.9z"/>
					<path fill="#384C5F" d="M49.2,53.9c0,0,0.9,0.5,0.7,0.9c-0.2,0.4-0.8,0.3-0.9,0.6c-0.1,0.3-0.2,0.4,0,0.8
						c0.2,0.4,0.3,0.5,0.1,1.1c-0.2,0.6-0.4,1.2-0.6,1.1c-0.2-0.1-1.9-0.7-1.9-1.1c0-0.4,0.7-1.5,0.6-1.6c-0.1-0.1-0.2-0.1-0.2-0.1
						l-0.7,1.6c0,0,0,0.2,0.1,0.4c0.2,0.2,1.4,0.8,1.7,0.9c0.3,0.2,0.6,0.3,0.8-0.1c0.2-0.4,0.6-1.3,0.6-1.3s0.2-0.4,0-0.7
						c-0.2-0.2-0.4-0.6-0.2-0.8c0.2-0.2,0.8-0.3,0.9-0.5C50.3,54.9,50.1,54.3,49.2,53.9z"/>
					
						<linearGradient id="SVGID_12_" gradientUnits="userSpaceOnUse" x1="86.3091" y1="29.6761" x2="86.5012" y2="32.1751" gradientTransform="matrix(0.8993 0.4373 -0.4441 0.9132 -15.58 -10.4836)">
						<stop  offset="0" style="stop-color:#7192A2"/>
						<stop  offset="0.2732" style="stop-color:#6E8C9B"/>
						<stop  offset="0.6079" style="stop-color:#657D89"/>
						<stop  offset="0.9719" style="stop-color:#57666E"/>
					</linearGradient>
					<path fill="url(#SVGID_12_)" d="M48.5,53.9c0,0-0.4-0.1-0.2,0.4c0.1,0.5,0.4,0.9,0,1.2c-0.3,0.3-0.8,0.2-1,0.6
						c-0.3,0.4-0.7,0.8-0.5,1.2c0.2,0.3,1.3,0.9,1.6,0.6c0.4-0.4,0.5-1.2,0.3-1.7c-0.2-0.5-0.1-0.9,0.4-1.1c0.5-0.2,0.8-0.4,0.7-0.7
						C49.6,54.3,49.1,53.9,48.5,53.9z"/>
					<path fill="#A5CEE1" d="M49.7,54.6c-0.1,0.2-0.5,0.2-0.8,0c-0.4-0.2-0.6-0.5-0.5-0.6c0.1-0.2,0.5-0.2,0.8,0
						C49.5,54.2,49.8,54.5,49.7,54.6z"/>
					<path fill="#D8EFF5" d="M49.5,54.4c0,0.1-0.3,0.1-0.5-0.1c-0.2-0.1-0.4-0.3-0.4-0.4c0-0.1,0.3-0.1,0.5,0.1
						C49.4,54.2,49.5,54.3,49.5,54.4z"/>
					<path fill="#516371" d="M46.7,57.1c0,0,0.7-0.5,1.3,0.1c0.6,0.6,0.4,1.1-0.5,0.6C46.7,57.4,46.7,57.4,46.7,57.1z"/>
				</g>
				<path fill="#B4CFE2" d="M49.1,56.8c0,0-0.5,1.3-0.6,1.4c-0.1,0.1-0.3,0.1-0.6,0c-0.3-0.1-1.3-0.7-1.3-0.7s-0.1,0.2,1.4,0.8
					c0,0,0.4,0.3,0.6,0c0.2-0.3,0.7-1.2,0.6-1.5c0-0.3-0.3-0.6-0.3-0.6S49.2,56.7,49.1,56.8z"/>
			</g>
			<g>
				<g>
					<path fill="#83A1BC" d="M37.7,51.8c0,0,1.3-0.1,1.4,0.3c0.2,0.4-0.4,0.9-0.4,1.1c0,0.3,0.3,0.5,0.4,0.6c0.2,0.1,0.4,0.4,0.4,1
						c0,0.6,0.3,1.2-0.3,1.3c-0.6,0.1-2,0.1-2.1-0.2c-0.1-0.3-0.1-1.7,0-1.9c0.2-0.2,0.7-0.2,0.7-0.5c0-0.3-0.1-0.4-0.4-0.7
						c-0.3-0.2-0.3-0.6-0.1-0.8C37.6,51.9,37.7,51.8,37.7,51.8z"/>
					<path fill="#516D75" d="M38.2,51.8c0,0-0.9,0.2-0.9,0.6c0,0.5,0.6,0.5,0.7,0.9c0.1,0.4-0.2,0.6-0.5,0.8
						c-0.3,0.2-0.3,0.9-0.3,0.9l-0.2-0.7c0,0,0-0.2,0.4-0.3c0.4-0.1,0.6-0.5,0.3-0.7c-0.2-0.2-0.5-0.5-0.6-0.8
						C37,52.2,37.4,51.7,38.2,51.8z"/>
					<path fill="#384C5F" d="M38.2,51.8c0,0,1,0.1,0.9,0.5c0,0.4-0.6,0.6-0.5,0.9c0,0.3,0,0.4,0.3,0.7c0.3,0.3,0.5,0.3,0.5,0.9
						c0,0.6,0.1,1.2-0.1,1.2c-0.2,0-1.9,0.2-2.1-0.1c-0.2-0.3,0-1.5-0.1-1.6c-0.1,0-0.2,0-0.2,0l0,1.7c0,0,0.1,0.2,0.3,0.3
						c0.2,0.1,1.5,0,1.8,0.1c0.3,0,0.7,0,0.6-0.4c0-0.4,0-1.3,0-1.3s0-0.5-0.3-0.6c-0.2-0.1-0.5-0.3-0.5-0.6
						c0.1-0.3,0.5-0.6,0.6-0.8C39.5,52.1,39.1,51.7,38.2,51.8z"/>
					
						<linearGradient id="SVGID_13_" gradientUnits="userSpaceOnUse" x1="40.7256" y1="52.6062" x2="40.909" y2="54.993" gradientTransform="matrix(0.9492 -4.000000e-003 4.200000e-003 1 -0.8331 -0.1197)">
						<stop  offset="0" style="stop-color:#7192A2"/>
						<stop  offset="0.2732" style="stop-color:#6E8C9B"/>
						<stop  offset="0.6079" style="stop-color:#657D89"/>
						<stop  offset="0.9719" style="stop-color:#57666E"/>
					</linearGradient>
					<path fill="url(#SVGID_13_)" d="M37.5,52.1c0,0-0.3,0.1,0,0.5c0.3,0.4,0.7,0.6,0.6,1c-0.1,0.3-0.6,0.5-0.6,1
						c0,0.5-0.3,1,0.1,1.2c0.3,0.2,1.5,0.2,1.6-0.2c0.2-0.5-0.1-1.2-0.4-1.5c-0.3-0.3-0.4-0.7-0.1-1.1c0.3-0.4,0.5-0.7,0.3-0.8
						C38.6,52,38,51.8,37.5,52.1z"/>
					<ellipse fill="#A5CEE1" cx="38.2" cy="52.2" rx="0.7" ry="0.3"/>
					<ellipse fill="#D8EFF5" cx="38.2" cy="52.1" rx="0.5" ry="0.2"/>
					<path fill="#516371" d="M37.4,55.6c0,0,0.4-0.7,1.1-0.5c0.7,0.3,0.7,0.7-0.1,0.8C37.5,55.8,37.4,55.8,37.4,55.6z"/>
				</g>
				<path fill="#B4CFE2" d="M39.3,54.3c0,0,0.1,1.3,0,1.4c-0.1,0.2-0.2,0.2-0.5,0.2c-0.3,0-1.4,0-1.4,0S37.3,56.2,39,56
					c0,0,0.4,0.1,0.5-0.3c0-0.3,0.1-1.3-0.1-1.5c-0.1-0.2-0.5-0.4-0.5-0.4S39.3,54.2,39.3,54.3z"/>
			</g>
			<g>
				<g>
					<path fill="#83A1BC" d="M34.2,52.1c0,0,1.2-0.3,1.5,0.1c0.2,0.4-0.4,0.9-0.3,1.2c0.1,0.3,0.3,0.4,0.5,0.6
						c0.2,0.1,0.4,0.4,0.5,1c0.1,0.6,0.4,1.2-0.2,1.3c-0.6,0.1-2,0.3-2.1,0c-0.1-0.3-0.3-1.7-0.2-1.8c0.1-0.2,0.7-0.3,0.6-0.6
						c0-0.3-0.2-0.4-0.5-0.6c-0.3-0.2-0.4-0.6-0.2-0.8C34.1,52.2,34.2,52.1,34.2,52.1z"/>
					<path fill="#516D75" d="M34.7,52c0,0-0.9,0.2-0.8,0.7c0.1,0.5,0.7,0.5,0.8,0.8c0.1,0.4-0.2,0.6-0.5,0.8
						c-0.3,0.2-0.2,0.9-0.2,0.9l-0.3-0.7c0,0,0-0.2,0.3-0.4c0.4-0.2,0.5-0.5,0.3-0.7c-0.3-0.2-0.6-0.5-0.7-0.7
						C33.6,52.6,33.9,52,34.7,52z"/>
					<path fill="#384C5F" d="M34.7,52c0,0,1,0,1,0.4c0,0.4-0.5,0.7-0.5,1c0,0.3,0,0.4,0.4,0.6c0.3,0.2,0.5,0.2,0.6,0.8
						c0.1,0.6,0.3,1.2,0.1,1.2c-0.2,0-1.9,0.4-2.1,0.1c-0.2-0.3-0.2-1.5-0.2-1.6c-0.1,0-0.2,0-0.2,0l0.2,1.6c0,0,0.1,0.2,0.3,0.3
						c0.2,0.1,1.5-0.1,1.8-0.1c0.3,0,0.7-0.1,0.6-0.5c-0.1-0.4-0.1-1.3-0.1-1.3s-0.1-0.5-0.3-0.5c-0.2-0.1-0.6-0.3-0.5-0.6
						c0-0.3,0.5-0.6,0.5-0.9C36,52.2,35.6,51.9,34.7,52z"/>
					
						<linearGradient id="SVGID_14_" gradientUnits="userSpaceOnUse" x1="27.6822" y1="56.6848" x2="27.8655" y2="59.0705" gradientTransform="matrix(0.9444 -9.500000e-002 0.1001 0.995 2.7747 -1.2045)">
						<stop  offset="0" style="stop-color:#7192A2"/>
						<stop  offset="0.2732" style="stop-color:#6E8C9B"/>
						<stop  offset="0.6079" style="stop-color:#657D89"/>
						<stop  offset="0.9719" style="stop-color:#57666E"/>
					</linearGradient>
					<path fill="url(#SVGID_14_)" d="M34.1,52.4c0,0-0.3,0.1,0,0.5c0.4,0.3,0.7,0.5,0.6,1c-0.1,0.3-0.5,0.5-0.5,1
						c0,0.5-0.2,1,0.2,1.2c0.3,0.2,1.5,0.1,1.6-0.3c0.1-0.6-0.2-1.2-0.6-1.5c-0.4-0.3-0.5-0.6-0.2-1.1c0.3-0.4,0.5-0.7,0.2-0.9
						C35.1,52.1,34.5,52,34.1,52.4z"/>
					
						<ellipse transform="matrix(0.9948 -0.1021 0.1021 0.9948 -5.1725 3.8176)" fill="#A5CEE1" cx="34.7" cy="52.4" rx="0.7" ry="0.3"/>
					
						<ellipse transform="matrix(0.9948 -0.1018 0.1018 0.9948 -5.1498 3.8039)" fill="#D8EFF5" cx="34.7" cy="52.3" rx="0.5" ry="0.2"/>
					<path fill="#516371" d="M34.3,55.9c0,0,0.3-0.8,1-0.6c0.8,0.2,0.8,0.7-0.1,0.8C34.3,56.1,34.3,56.1,34.3,55.9z"/>
				</g>
				<path fill="#B4CFE2" d="M36,54.4c0,0,0.2,1.3,0.2,1.4c0,0.2-0.2,0.2-0.5,0.3c-0.3,0.1-1.4,0.1-1.4,0.1s0,0.2,1.6-0.1
					c0,0,0.4,0,0.4-0.3C36.3,55.5,36.3,54.6,36,54.4c-0.1-0.3-0.5-0.4-0.5-0.4S36,54.3,36,54.4z"/>
			</g>
			<g>
				<path fill="#516D75" d="M41.2,49.5l-2-0.2c0,0-0.4-0.1-0.5,0.4c-0.1,0.4-0.1,1.5-0.1,1.5s0,0.2,0.2,0.3c0.2,0.1,0.6,0.4,0.6,0.7
					c0,0.3-0.1,0.4-0.3,0.5c-0.2,0.1-0.4,0.5-0.2,0.8c0.1,0.3,0.9,0.4,1.4,0.3c0.5-0.1,0.9-0.3,0.7-0.7c-0.2-0.3-0.6-0.6-0.5-1
					c0.1-0.3,0.6-0.5,0.7-0.9c0.2-0.4,0.4-1,0.3-1.4C41.3,49.5,41.2,49.5,41.2,49.5z"/>
				<path fill="#384C5F" d="M40.9,49.5c0,0,0.4,0.1,0.4,0.7c0,0.6,0,1.3-0.3,1.4c-0.3,0.1-0.8,0.3-0.8,0.6c0,0.4,0,0.5,0.4,0.7
					c0.4,0.2,0.5,0.7,0.1,0.8c-0.4,0.1-0.8,0.1-1.2,0.1c-0.4-0.1-0.6-0.2-0.6-0.2s0.1,0.2,0.6,0.4c0.5,0.1,1.6,0.1,1.7-0.3
					c0-0.3,0-0.4-0.3-0.7c-0.3-0.3-0.4-0.7-0.1-0.8c0.3-0.1,0.6-0.2,0.7-0.5c0.1-0.2,0.1-1.8,0.1-1.8S41.6,49.5,40.9,49.5z"/>
				
					<linearGradient id="SVGID_15_" gradientUnits="userSpaceOnUse" x1="46.3797" y1="47.1618" x2="46.4163" y2="49.9929" gradientTransform="matrix(0.998 6.400000e-002 -6.400000e-002 0.998 -3.1877 0.2621)">
					<stop  offset="0" style="stop-color:#7192A2"/>
					<stop  offset="0.2732" style="stop-color:#6E8C9B"/>
					<stop  offset="0.6079" style="stop-color:#657D89"/>
					<stop  offset="0.9719" style="stop-color:#57666E"/>
				</linearGradient>
				<path fill="url(#SVGID_15_)" d="M41.2,50.7c0,0-0.1-0.8-1.3-0.7c-1.1,0.1-1.1,1.1-0.8,1.4c0.2,0.3,0.7,0.5,0.6,0.9
					c0,0.4-0.2,0.4-0.4,0.6c-0.2,0.2-0.3,0.2-0.2,0.5c0.2,0.2,1.5,0.2,1.6,0.1c0.1-0.2,0-0.4-0.3-0.7c-0.3-0.3-0.3-0.9,0-1
					c0.3-0.1,0.6-0.2,0.7-0.5C41.2,51,41.2,50.7,41.2,50.7z"/>
				<path fill="#A5CEE1" d="M41.3,50c0,0.2-0.2,0.4-0.5,0.4l-1.6-0.1c-0.2,0-0.4-0.2-0.4-0.5l0,0c0-0.2,0.2-0.4,0.5-0.4l1.6,0.1
					C41.1,49.5,41.3,49.7,41.3,50L41.3,50z"/>
				<path fill="#D8EFF5" d="M41.2,49.7c0,0.1-0.1,0.2-0.2,0.2l-1.8-0.1c-0.1,0-0.2-0.1-0.2-0.2l0,0c0-0.1,0.1-0.2,0.2-0.2l1.8,0.1
					C41.1,49.5,41.2,49.6,41.2,49.7L41.2,49.7z"/>
				<path fill="#98AFBE" d="M38.8,49.8l0,1.4c0,0,0,0,0.3,0.2c0.2,0.2,0.2,0.2,0.2,0.2S39,51.3,39,50.8c0.1-0.5,0.7-0.5,1.2-0.5
					c0.5,0,0.9,0.2,0.9,0.5c0,0.3,0,0.6,0,0.6s0.1-0.1,0.2-0.7c0-0.6,0-0.8,0-0.8s-0.3,0.2-1.1,0.1C39.7,50,38.9,50.1,38.8,49.8z"/>
				<path fill="#98AFBE" d="M39.7,52.4c0,0,0.1,0.2-0.2,0.4c-0.3,0.2-0.4,0.3-0.4,0.5c0,0.1,0.4,0.2,0.9,0.2c0.5,0,0.8,0.1,0.8-0.1
					c0,0,0.1,0.2-0.3,0.3c-0.5,0.1-1,0-1.3-0.1c-0.3-0.2-0.2-0.6,0-0.7C39.4,52.8,39.7,52.6,39.7,52.4z"/>
			</g>
			<g>
				<path fill="#516D75" d="M45.2,50.1l-2-0.4c0,0-0.4-0.1-0.5,0.3c-0.1,0.4-0.2,1.5-0.2,1.5s0,0.2,0.1,0.3c0.2,0.1,0.6,0.5,0.5,0.7
					c-0.1,0.3-0.1,0.4-0.4,0.5c-0.2,0.1-0.4,0.4-0.3,0.7c0.1,0.3,0.8,0.5,1.4,0.5c0.5,0,0.9-0.2,0.7-0.6c-0.2-0.4-0.6-0.7-0.4-1
					c0.1-0.3,0.6-0.5,0.8-0.8c0.2-0.4,0.5-1,0.4-1.4C45.3,50.1,45.2,50.1,45.2,50.1z"/>
				<path fill="#384C5F" d="M44.9,50c0,0,0.4,0.2,0.3,0.8c-0.1,0.6-0.2,1.3-0.4,1.3c-0.3,0-0.9,0.2-0.9,0.5c0,0.4,0,0.5,0.3,0.7
					c0.3,0.3,0.5,0.8,0.1,0.8c-0.4,0.1-0.8,0.1-1.2-0.1c-0.4-0.1-0.5-0.3-0.5-0.3s0.1,0.3,0.6,0.4c0.5,0.2,1.6,0.2,1.7-0.1
					c0.1-0.3,0-0.4-0.3-0.8c-0.3-0.3-0.3-0.7,0-0.8c0.3-0.1,0.6-0.1,0.7-0.4c0.1-0.2,0.3-1.7,0.3-1.7S45.6,50.1,44.9,50z"/>
				
					<linearGradient id="SVGID_16_" gradientUnits="userSpaceOnUse" x1="60.3302" y1="43.7143" x2="60.3667" y2="46.5434" gradientTransform="matrix(0.985 0.1724 -0.1724 0.985 -7.8683 -2.6962)">
					<stop  offset="0" style="stop-color:#7192A2"/>
					<stop  offset="0.2732" style="stop-color:#6E8C9B"/>
					<stop  offset="0.6079" style="stop-color:#657D89"/>
					<stop  offset="0.9719" style="stop-color:#57666E"/>
				</linearGradient>
				<path fill="url(#SVGID_16_)" d="M45.1,51.3c0,0-0.1-0.8-1.2-0.8c-1.1,0-1.2,1-1,1.3c0.2,0.3,0.6,0.5,0.6,0.9
					c-0.1,0.4-0.2,0.4-0.4,0.6c-0.2,0.1-0.3,0.2-0.2,0.4c0.1,0.2,1.5,0.4,1.6,0.2c0.2-0.2,0.1-0.4-0.2-0.7c-0.3-0.3-0.2-0.9,0.1-1
					c0.3-0.1,0.6-0.1,0.7-0.4C45.1,51.6,45.1,51.3,45.1,51.3z"/>
				<path fill="#A5CEE1" d="M45.3,50.6c0,0.2-0.3,0.4-0.5,0.4l-1.6-0.3c-0.2,0-0.4-0.3-0.4-0.5l0,0c0-0.2,0.3-0.4,0.5-0.4l1.6,0.3
					C45.1,50.1,45.3,50.3,45.3,50.6L45.3,50.6z"/>
				<path fill="#D8EFF5" d="M45.2,50.3c0,0.1-0.1,0.2-0.2,0.2l-1.8-0.3c-0.1,0-0.2-0.1-0.2-0.2l0,0c0-0.1,0.1-0.2,0.2-0.2l1.8,0.3
					C45.1,50.1,45.2,50.2,45.2,50.3L45.2,50.3z"/>
				<path fill="#98AFBE" d="M42.8,50.1l-0.2,1.4c0,0,0,0,0.2,0.3c0.2,0.2,0.2,0.2,0.2,0.2s-0.3-0.3-0.1-0.8c0.1-0.5,0.7-0.4,1.2-0.3
					c0.5,0.1,0.9,0.3,0.9,0.6c0,0.3-0.1,0.6-0.1,0.6s0.1-0.1,0.2-0.7c0.1-0.6,0.1-0.8,0.1-0.8s-0.4,0.2-1.1,0
					C43.6,50.4,42.8,50.5,42.8,50.1z"/>
				<path fill="#98AFBE" d="M43.4,52.8c0,0,0,0.2-0.3,0.4c-0.3,0.2-0.4,0.3-0.4,0.4c0,0.1,0.4,0.2,0.9,0.3c0.5,0.1,0.8,0.2,0.8,0
					c0,0,0.1,0.2-0.4,0.3c-0.5,0-1-0.1-1.3-0.3c-0.3-0.2-0.1-0.6,0.1-0.7C43.1,53.1,43.4,53,43.4,52.8z"/>
			</g>
			<g>
				<path fill="#516D75" d="M49.2,51.6l-1.9-0.8c0,0-0.3-0.2-0.5,0.2c-0.2,0.4-0.5,1.4-0.5,1.4s-0.1,0.2,0.1,0.4
					c0.2,0.2,0.5,0.6,0.4,0.8c-0.1,0.2-0.2,0.3-0.4,0.4c-0.2,0-0.5,0.3-0.4,0.6c0,0.3,0.7,0.7,1.2,0.8c0.5,0.1,0.9,0,0.8-0.4
					c-0.1-0.4-0.4-0.8-0.2-1c0.2-0.3,0.7-0.3,1-0.6c0.3-0.3,0.7-0.8,0.7-1.2C49.3,51.6,49.2,51.6,49.2,51.6z"/>
				<path fill="#384C5F" d="M49,51.4c0,0,0.4,0.3,0.2,0.8c-0.2,0.5-0.4,1.2-0.7,1.1c-0.3,0-0.9,0-1,0.3c-0.1,0.3-0.1,0.4,0.2,0.7
					c0.3,0.3,0.3,0.8-0.1,0.8c-0.4,0-0.8-0.1-1.2-0.3c-0.4-0.2-0.5-0.4-0.5-0.4s0.1,0.3,0.5,0.5c0.5,0.3,1.5,0.6,1.7,0.2
					c0.1-0.2,0.1-0.4-0.1-0.8c-0.2-0.4-0.2-0.7,0.2-0.8c0.3,0,0.7,0,0.8-0.2c0.1-0.2,0.6-1.6,0.6-1.6S49.6,51.7,49,51.4z"/>
				
					<linearGradient id="SVGID_17_" gradientUnits="userSpaceOnUse" x1="80.9588" y1="35.9116" x2="80.9952" y2="38.734" gradientTransform="matrix(0.927 0.366 -0.3514 0.8899 -14.4723 -9.6447)">
					<stop  offset="0" style="stop-color:#7192A2"/>
					<stop  offset="0.2732" style="stop-color:#6E8C9B"/>
					<stop  offset="0.6079" style="stop-color:#657D89"/>
					<stop  offset="0.9719" style="stop-color:#57666E"/>
				</linearGradient>
				<path fill="url(#SVGID_17_)" d="M48.9,52.7c0,0,0.1-0.8-1-1c-1.1-0.3-1.3,0.7-1.2,1c0.1,0.3,0.5,0.6,0.4,1
					c-0.2,0.4-0.3,0.4-0.5,0.4c-0.2,0.1-0.4,0.1-0.3,0.4c0.1,0.3,1.4,0.7,1.5,0.6c0.2-0.1,0.1-0.3-0.1-0.7c-0.2-0.4-0.1-0.9,0.3-0.9
					c0.4,0,0.6,0,0.8-0.2C48.8,53,48.9,52.7,48.9,52.7z"/>
				<path fill="#A5CEE1" d="M49.2,52c-0.1,0.2-0.3,0.3-0.6,0.2l-1.5-0.6c-0.2-0.1-0.3-0.3-0.3-0.6l0,0c0.1-0.2,0.3-0.3,0.6-0.2
					l1.5,0.6C49.2,51.6,49.3,51.8,49.2,52L49.2,52z"/>
				<path fill="#D8EFF5" d="M49.2,51.8c0,0.1-0.1,0.1-0.2,0.1l-1.6-0.7c-0.1,0-0.1-0.1-0.1-0.2l0,0c0-0.1,0.1-0.1,0.2-0.1l1.6,0.7
					C49.2,51.6,49.2,51.7,49.2,51.8L49.2,51.8z"/>
				<path fill="#98AFBE" d="M46.9,51.1l-0.4,1.3c0,0,0,0,0.2,0.3c0.2,0.3,0.2,0.3,0.2,0.3s-0.2-0.4,0-0.8c0.2-0.4,0.8-0.2,1.2-0.1
					c0.4,0.2,0.8,0.5,0.7,0.7c-0.1,0.3-0.2,0.5-0.2,0.5s0.1,0,0.3-0.6c0.2-0.6,0.3-0.7,0.3-0.7s-0.4,0.1-1-0.2
					C47.7,51.5,46.9,51.4,46.9,51.1z"/>
				<path fill="#98AFBE" d="M47,53.7c0,0,0,0.2-0.3,0.3c-0.3,0.1-0.4,0.2-0.5,0.3c-0.1,0.1,0.3,0.3,0.8,0.5c0.4,0.2,0.7,0.3,0.8,0.2
					c0,0,0.1,0.2-0.4,0.2c-0.5-0.1-1-0.3-1.2-0.5c-0.3-0.3,0-0.6,0.2-0.6C46.6,54,46.9,53.9,47,53.7z"/>
			</g>
			<g>
				<path fill="#516D75" d="M52.9,54.5L51.5,53c0,0-0.3-0.3-0.5,0c-0.3,0.2-0.9,1-0.9,1s-0.1,0.1,0,0.3c0.1,0.2,0.3,0.7,0.1,0.9
					c-0.2,0.2-0.3,0.2-0.5,0.2c-0.2-0.1-0.5,0.1-0.6,0.4c-0.1,0.3,0.5,0.9,0.9,1.2c0.4,0.3,0.9,0.3,0.9-0.1c0-0.4-0.2-0.8,0.1-1
					c0.3-0.2,0.7,0,1.1-0.2c0.3-0.2,0.9-0.4,1-0.8C53,54.5,52.9,54.5,52.9,54.5z"/>
				<path fill="#384C5F" d="M52.8,54.3c0,0,0.2,0.4-0.1,0.8c-0.4,0.4-0.7,0.9-1,0.7c-0.2-0.1-0.8-0.4-1-0.1
					c-0.2,0.3-0.3,0.3-0.1,0.7c0.2,0.4,0,0.9-0.4,0.7c-0.4-0.2-0.7-0.4-1-0.8C49,56,49,55.8,49,55.8s0,0.3,0.3,0.7
					c0.3,0.4,1.2,1.1,1.5,0.9c0.2-0.2,0.2-0.3,0.1-0.7c-0.1-0.4,0.1-0.7,0.4-0.6c0.3,0.1,0.6,0.3,0.8,0.1c0.2-0.1,1.1-1.1,1.1-1.1
					S53.3,54.7,52.8,54.3z"/>
				
					<linearGradient id="SVGID_18_" gradientUnits="userSpaceOnUse" x1="109.0737" y1="12.2797" x2="109.1098" y2="15.0814" gradientTransform="matrix(0.7248 0.684 -0.6153 0.652 -19.8118 -28.3068)">
					<stop  offset="0" style="stop-color:#7192A2"/>
					<stop  offset="0.2732" style="stop-color:#6E8C9B"/>
					<stop  offset="0.6079" style="stop-color:#657D89"/>
					<stop  offset="0.9719" style="stop-color:#57666E"/>
				</linearGradient>
				<path fill="url(#SVGID_18_)" d="M52.3,55.3c0,0,0.3-0.6-0.6-1.3c-0.9-0.7-1.4,0.1-1.4,0.4c0,0.4,0.3,0.8,0,1
					c-0.3,0.3-0.4,0.2-0.6,0.2c-0.3,0-0.4,0-0.4,0.2c0,0.3,1,1.1,1.2,1.1c0.2,0,0.2-0.2,0.2-0.6c-0.1-0.4,0.2-0.8,0.5-0.7
					c0.3,0.1,0.6,0.3,0.8,0.1C52.1,55.5,52.3,55.3,52.3,55.3z"/>
				<path fill="#A5CEE1" d="M52.8,54.9c-0.1,0.2-0.4,0.2-0.6,0L51,53.7c-0.2-0.2-0.2-0.4,0-0.6l0,0c0.1-0.2,0.4-0.2,0.6,0l1.2,1.1
					C52.9,54.4,52.9,54.7,52.8,54.9L52.8,54.9z"/>
				<path fill="#D8EFF5" d="M52.8,54.6c-0.1,0.1-0.2,0.1-0.3,0l-1.3-1.2c-0.1-0.1-0.1-0.2,0-0.3l0,0c0.1-0.1,0.2-0.1,0.3,0l1.3,1.2
					C52.9,54.4,52.9,54.6,52.8,54.6L52.8,54.6z"/>
				<path fill="#98AFBE" d="M51,53.1l-0.8,1c0,0,0,0,0.1,0.3c0.1,0.3,0.1,0.3,0.1,0.3s-0.1-0.4,0.3-0.7c0.3-0.3,0.8,0.1,1.1,0.4
					c0.4,0.3,0.6,0.7,0.4,0.9c-0.1,0.2-0.4,0.4-0.4,0.4s0.1,0,0.5-0.4c0.4-0.4,0.5-0.5,0.5-0.5s-0.4-0.1-0.9-0.6
					C51.5,53.8,50.9,53.4,51,53.1z"/>
				<path fill="#98AFBE" d="M50.2,55.5c0,0-0.1,0.2-0.4,0.1c-0.3-0.1-0.4,0-0.5,0.1c-0.1,0.1,0.2,0.4,0.6,0.7
					c0.4,0.3,0.6,0.6,0.7,0.5c0,0,0,0.2-0.4,0c-0.4-0.2-0.8-0.6-1-1c-0.2-0.3,0.2-0.5,0.4-0.5C49.8,55.6,50.1,55.6,50.2,55.5z"/>
			</g>
			<g>
				<path fill="#516D75" d="M37.3,49.5l-2,0.1c0,0-0.4,0-0.4,0.4c0,0.4,0.2,1.5,0.2,1.5s0,0.2,0.2,0.3c0.2,0.1,0.7,0.3,0.7,0.6
					c0,0.3,0,0.4-0.2,0.5c-0.2,0.1-0.3,0.5-0.1,0.8c0.2,0.2,0.9,0.3,1.4,0.1c0.5-0.1,0.8-0.5,0.5-0.8c-0.3-0.3-0.7-0.5-0.6-0.8
					c0.1-0.3,0.5-0.6,0.6-1c0.1-0.4,0.3-1,0.1-1.4C37.4,49.5,37.3,49.5,37.3,49.5z"/>
				<path fill="#384C5F" d="M37.1,49.5c0,0,0.4,0.1,0.5,0.6c0,0.6,0.2,1.2-0.1,1.3c-0.3,0.1-0.8,0.4-0.7,0.7
					c0.1,0.3,0.1,0.4,0.4,0.6c0.4,0.2,0.6,0.6,0.3,0.8c-0.4,0.2-0.8,0.3-1.2,0.2c-0.4,0-0.6-0.1-0.6-0.1s0.2,0.2,0.7,0.3
					c0.5,0,1.5-0.2,1.5-0.6c0-0.3-0.1-0.4-0.4-0.7c-0.3-0.2-0.4-0.6-0.2-0.8c0.3-0.2,0.6-0.3,0.6-0.5c0-0.2-0.1-1.7-0.1-1.7
					S37.7,49.4,37.1,49.5z"/>
				
					<linearGradient id="SVGID_19_" gradientUnits="userSpaceOnUse" x1="30.1336" y1="58.2177" x2="30.1701" y2="61.049" gradientTransform="matrix(0.9628 -7.890000e-002 7.870000e-002 0.9603 2.7996 -3.1289)">
					<stop  offset="0" style="stop-color:#7192A2"/>
					<stop  offset="0.2732" style="stop-color:#6E8C9B"/>
					<stop  offset="0.6079" style="stop-color:#657D89"/>
					<stop  offset="0.9719" style="stop-color:#57666E"/>
				</linearGradient>
				<path fill="url(#SVGID_19_)" d="M37.5,50.6c0,0-0.2-0.7-1.3-0.5c-1,0.3-0.9,1.2-0.6,1.5c0.2,0.3,0.7,0.3,0.7,0.7
					c0,0.4-0.1,0.5-0.3,0.6c-0.2,0.2-0.3,0.3-0.1,0.5c0.2,0.2,1.5,0,1.6-0.2c0.1-0.2,0-0.4-0.3-0.6c-0.3-0.2-0.4-0.8-0.1-0.9
					c0.3-0.2,0.6-0.2,0.6-0.5C37.6,50.9,37.5,50.6,37.5,50.6z"/>
				<path fill="#A5CEE1" d="M37.5,49.9c0,0.2-0.2,0.4-0.4,0.5l-1.6,0.1c-0.2,0-0.4-0.2-0.5-0.4l0,0c0-0.2,0.2-0.4,0.4-0.5l1.6-0.1
					C37.3,49.5,37.5,49.7,37.5,49.9L37.5,49.9z"/>
				<path fill="#D8EFF5" d="M37.4,49.7c0,0.1-0.1,0.2-0.2,0.2L35.5,50c-0.1,0-0.2-0.1-0.2-0.2l0,0c0-0.1,0.1-0.2,0.2-0.2l1.7-0.1
					C37.3,49.5,37.4,49.6,37.4,49.7L37.4,49.7z"/>
				<path fill="#98AFBE" d="M35.1,50.1l0.2,1.3c0,0,0,0,0.3,0.2c0.3,0.2,0.3,0.2,0.3,0.2s-0.3-0.3-0.3-0.7c0-0.5,0.6-0.6,1-0.6
					c0.5,0,0.9,0,0.9,0.3c0.1,0.3,0.1,0.6,0.1,0.6s0.1-0.1,0-0.7c0-0.6-0.1-0.7-0.1-0.7s-0.3,0.3-1,0.3C36,50.2,35.2,50.4,35.1,50.1
					z"/>
				<path fill="#98AFBE" d="M36.3,52.5c0,0,0.1,0.2-0.2,0.4c-0.2,0.2-0.3,0.3-0.3,0.5c0,0.1,0.4,0.1,0.9,0.1c0.5,0,0.8,0,0.8-0.2
					c0,0,0.2,0.2-0.3,0.4c-0.4,0.2-1,0.2-1.3,0.1c-0.3-0.1-0.2-0.6-0.1-0.7C36.1,52.8,36.3,52.7,36.3,52.5z"/>
			</g>
			<g>
				<path fill="#516D75" d="M33.6,50.2l-1.7,1c0,0-0.3,0.2-0.2,0.5c0.2,0.4,0.8,1.3,0.8,1.3s0.1,0.2,0.3,0.2c0.2,0,0.7,0,0.8,0.2
					c0.1,0.2,0.1,0.4,0,0.6c-0.1,0.2,0,0.6,0.2,0.7c0.2,0.1,0.9-0.2,1.3-0.5c0.4-0.3,0.5-0.8,0.2-0.9c-0.4-0.2-0.8-0.1-0.9-0.5
					c-0.1-0.3,0.2-0.7,0.1-1.1c-0.1-0.4-0.2-1.1-0.5-1.3C33.6,50.2,33.6,50.2,33.6,50.2z"/>
				<path fill="#384C5F" d="M33.3,50.3c0,0,0.4-0.1,0.7,0.4c0.3,0.5,0.7,1,0.5,1.3c-0.2,0.2-0.5,0.7-0.3,0.9
					c0.2,0.3,0.2,0.4,0.7,0.3c0.4,0,0.8,0.3,0.6,0.6c-0.3,0.3-0.6,0.6-1,0.7c-0.4,0.2-0.6,0.1-0.6,0.1s0.2,0.1,0.7-0.1
					c0.5-0.2,1.3-0.8,1.2-1.2c-0.1-0.2-0.3-0.3-0.7-0.4c-0.4-0.1-0.7-0.3-0.5-0.6c0.2-0.3,0.4-0.5,0.3-0.7c-0.1-0.2-0.8-1.5-0.8-1.5
					S33.9,50,33.3,50.3z"/>
				
					<linearGradient id="SVGID_20_" gradientUnits="userSpaceOnUse" x1="-19.6775" y1="65.9481" x2="-19.6411" y2="68.7645" gradientTransform="matrix(0.8352 -0.4855 0.4842 0.8331 17.5929 -13.0595)">
					<stop  offset="0" style="stop-color:#7192A2"/>
					<stop  offset="0.2732" style="stop-color:#6E8C9B"/>
					<stop  offset="0.6079" style="stop-color:#657D89"/>
					<stop  offset="0.9719" style="stop-color:#57666E"/>
				</linearGradient>
				<path fill="url(#SVGID_20_)" d="M34.2,51.2c0,0-0.5-0.5-1.4,0.2c-0.8,0.7-0.3,1.5,0.1,1.6c0.3,0.1,0.8,0,1,0.3
					c0.2,0.3,0.1,0.5,0,0.7c-0.1,0.3-0.1,0.4,0.1,0.5c0.3,0.1,1.3-0.6,1.3-0.9c0-0.2-0.2-0.3-0.6-0.4c-0.4-0.1-0.7-0.5-0.5-0.8
					c0.2-0.3,0.4-0.5,0.3-0.7C34.4,51.4,34.2,51.2,34.2,51.2z"/>
				<path fill="#A5CEE1" d="M33.9,50.5c0.1,0.2,0,0.5-0.2,0.6l-1.4,0.8c-0.2,0.1-0.5,0.1-0.6-0.2l0,0c-0.1-0.2,0-0.5,0.2-0.6
					l1.4-0.8C33.5,50.2,33.8,50.3,33.9,50.5L33.9,50.5z"/>
				<path fill="#D8EFF5" d="M33.7,50.4c0,0.1,0,0.2-0.1,0.3l-1.5,0.9c-0.1,0.1-0.2,0-0.2-0.1l0,0c-0.1-0.1,0-0.2,0.1-0.3l1.5-0.9
					C33.5,50.2,33.6,50.3,33.7,50.4L33.7,50.4z"/>
				<path fill="#98AFBE" d="M31.8,51.7l0.7,1.1c0,0,0,0,0.3,0c0.3,0,0.3,0,0.3,0s-0.4-0.1-0.6-0.5c-0.2-0.4,0.3-0.8,0.7-1
					c0.4-0.2,0.8-0.3,1-0.1c0.2,0.2,0.3,0.5,0.3,0.5s0-0.1-0.2-0.7c-0.3-0.5-0.4-0.6-0.4-0.6s-0.2,0.4-0.8,0.7
					C32.6,51.4,32,52,31.8,51.7z"/>
				<path fill="#98AFBE" d="M33.9,53.3c0,0,0.2,0.1,0,0.4c-0.1,0.3-0.1,0.4-0.1,0.6c0.1,0.1,0.4-0.1,0.8-0.3
					c0.4-0.2,0.7-0.4,0.6-0.5c0,0,0.2,0.1-0.1,0.4c-0.3,0.3-0.8,0.6-1.1,0.6c-0.4,0-0.5-0.4-0.3-0.6C33.8,53.8,34,53.5,33.9,53.3z"
					/>
			</g>
			<g>
				<path fill="#516D75" d="M30.9,52.4l-1.4,1.4c0,0-0.3,0.2,0,0.6c0.2,0.3,1,1,1,1s0.1,0.2,0.3,0.1c0.2-0.1,0.7-0.2,0.9,0
					c0.2,0.2,0.2,0.3,0.2,0.6c-0.1,0.2,0.1,0.6,0.4,0.7c0.3,0.1,0.9-0.4,1.2-0.8c0.3-0.4,0.3-0.9-0.1-0.9c-0.4-0.1-0.8,0.1-1-0.2
					c-0.2-0.3,0-0.8-0.2-1.1c-0.2-0.4-0.4-1-0.8-1.1C30.9,52.3,30.9,52.4,30.9,52.4z"/>
				<path fill="#384C5F" d="M30.7,52.6c0,0,0.4-0.2,0.8,0.2c0.4,0.4,0.9,0.9,0.7,1.1c-0.1,0.2-0.4,0.8-0.1,1
					c0.3,0.2,0.3,0.3,0.7,0.2c0.4-0.1,0.9,0.1,0.7,0.4c-0.2,0.4-0.4,0.7-0.8,1c-0.3,0.2-0.5,0.3-0.5,0.3s0.3,0.1,0.7-0.2
					c0.4-0.3,1.1-1.1,0.9-1.4c-0.2-0.2-0.3-0.3-0.7-0.2c-0.4,0-0.7-0.2-0.6-0.5c0.1-0.3,0.3-0.6,0.1-0.8c-0.1-0.2-1.1-1.2-1.1-1.2
					S31.1,52.1,30.7,52.6z"/>
				
					<linearGradient id="SVGID_21_" gradientUnits="userSpaceOnUse" x1="-47.9403" y1="62.5018" x2="-47.9041" y2="65.3053" gradientTransform="matrix(0.6971 -0.6688 0.6671 0.6953 22.429 -21.8004)">
					<stop  offset="0" style="stop-color:#7192A2"/>
					<stop  offset="0.2732" style="stop-color:#6E8C9B"/>
					<stop  offset="0.6079" style="stop-color:#657D89"/>
					<stop  offset="0.9719" style="stop-color:#57666E"/>
				</linearGradient>
				<path fill="url(#SVGID_21_)" d="M31.7,53.2c0,0-0.6-0.4-1.3,0.5c-0.6,0.9,0.1,1.5,0.4,1.5c0.4,0,0.8-0.2,1,0.1
					c0.3,0.3,0.2,0.4,0.2,0.7c0,0.3,0,0.4,0.2,0.4c0.3,0,1.1-0.9,1.1-1.2c0-0.2-0.2-0.3-0.6-0.2c-0.4,0-0.8-0.3-0.7-0.6
					c0.1-0.3,0.3-0.6,0.1-0.8C31.9,53.4,31.7,53.2,31.7,53.2z"/>
				<path fill="#A5CEE1" d="M31.3,52.6c0.2,0.2,0.2,0.4,0,0.6l-1.1,1.1c-0.2,0.2-0.4,0.2-0.6,0l0,0c-0.2-0.2-0.2-0.4,0-0.6l1.1-1.1
					C30.8,52.4,31.1,52.4,31.3,52.6L31.3,52.6z"/>
				<path fill="#D8EFF5" d="M31,52.5c0.1,0.1,0.1,0.2,0,0.3L29.8,54c-0.1,0.1-0.2,0.1-0.3,0l0,0c-0.1-0.1-0.1-0.2,0-0.3l1.2-1.2
					C30.9,52.5,31,52.5,31,52.5L31,52.5z"/>
				<path fill="#98AFBE" d="M29.5,54.3l1,0.9c0,0,0,0,0.3,0c0.3,0,0.3,0,0.3,0s-0.4,0-0.7-0.4c-0.3-0.4,0.1-0.8,0.4-1.1
					c0.3-0.3,0.7-0.5,0.9-0.4c0.2,0.2,0.4,0.4,0.4,0.4s0-0.1-0.4-0.6c-0.4-0.4-0.5-0.5-0.5-0.5s-0.1,0.4-0.6,0.8
					C30.2,53.8,29.8,54.5,29.5,54.3z"/>
				<path fill="#98AFBE" d="M31.9,55.4c0,0,0.2,0.1,0.1,0.4c-0.1,0.3,0,0.5,0.1,0.6c0.1,0.1,0.4-0.2,0.7-0.5
					c0.3-0.3,0.6-0.5,0.5-0.7c0,0,0.2,0.1,0,0.5c-0.2,0.4-0.6,0.8-1,0.9c-0.3,0.1-0.5-0.3-0.5-0.5C32,55.8,32.1,55.5,31.9,55.4z"/>
			</g>
			<g>
				
					<linearGradient id="SVGID_22_" gradientUnits="userSpaceOnUse" x1="55.5833" y1="53.4614" x2="59.2878" y2="53.4614" gradientTransform="matrix(0.998 6.400000e-002 -6.400000e-002 0.998 -3.1877 0.2621)">
					<stop  offset="0" style="stop-color:#7192A2"/>
					<stop  offset="0.2732" style="stop-color:#6E8C9B"/>
					<stop  offset="0.6079" style="stop-color:#657D89"/>
					<stop  offset="0.9719" style="stop-color:#57666E"/>
				</linearGradient>
				<path fill="url(#SVGID_22_)" d="M51.9,55.6c0,0-2.1,1.9-2.6,2.4c-0.5,0.5-0.5,0.4-0.6,0.6c0,0.2,0.1,0.4,0.4,0.3
					c0.3-0.1,3.4-2.2,3.5-2.4c0.1-0.2-0.1-0.6-0.2-0.8C52.2,55.6,52.1,55.5,51.9,55.6z"/>
				<path fill-rule="evenodd" clip-rule="evenodd" fill="#384C5F" d="M52.4,55.9c0,0,0.2,0.3-0.1,0.7c-0.3,0.4-2.7,2-3,2.2
					c-0.4,0.2-0.6,0.1-0.5-0.1c0.1-0.1-0.2,0,0,0.3c0.2,0.3,0.4,0.1,0.7-0.1c0.3-0.2,3.1-2.2,3.1-2.2S52.8,56.4,52.4,55.9z"/>
				<path fill-rule="evenodd" clip-rule="evenodd" fill="#D8EFF5" d="M52.5,56.2c0,0-0.1-0.1-0.5,0.2c-0.3,0.2-2,1.6-2.6,2
					c-0.6,0.4-0.7,0.4-0.5,0.2c0.2-0.2,3-2.8,3-2.8s0.2-0.2,0.3,0C52.3,55.9,52.5,56,52.5,56.2z"/>
			</g>
			
				<linearGradient id="SVGID_23_" gradientUnits="userSpaceOnUse" x1="-112.6471" y1="-0.8162" x2="-108.8661" y2="-0.8162" gradientTransform="matrix(-0.1089 -0.9941 0.9941 -0.1089 19.9559 -54.2332)">
				<stop  offset="0" style="stop-color:#7192A2"/>
				<stop  offset="0.2732" style="stop-color:#6E8C9B"/>
				<stop  offset="0.6079" style="stop-color:#657D89"/>
				<stop  offset="0.9719" style="stop-color:#57666E"/>
			</linearGradient>
			<path fill="url(#SVGID_23_)" d="M29.4,55c0,0,2.2,1.8,2.8,2.2c0.6,0.4,0.5,0.5,0.7,0.4c0.2,0,0.4-0.1,0.2-0.4
				c-0.2-0.3-2.7-3-2.9-3.1c-0.2-0.1-0.6,0.2-0.7,0.4C29.3,54.7,29.2,54.8,29.4,55z"/>
			<path fill-rule="evenodd" clip-rule="evenodd" fill="#384C5F" d="M29.5,54.5c0,0,0.3-0.3,0.7,0c0.4,0.2,2.4,2.3,2.7,2.7
				c0.3,0.3,0.2,0.6,0,0.5c-0.1,0,0,0.2,0.2-0.1c0.2-0.3,0-0.4-0.2-0.7c-0.2-0.3-2.6-2.8-2.6-2.8S30,54,29.5,54.5z"/>
			<path fill-rule="evenodd" clip-rule="evenodd" fill="#D8EFF5" d="M29.8,54.4c0,0,0,0.1,0.3,0.5c0.3,0.3,1.9,1.8,2.4,2.3
				c0.5,0.5,0.5,0.6,0.2,0.5c-0.2-0.1-3.2-2.6-3.2-2.6s-0.2-0.1-0.1-0.3C29.5,54.6,29.7,54.3,29.8,54.4z"/>
			<g>
				<g>
					<path fill-rule="evenodd" clip-rule="evenodd" fill="#384C5F" d="M36,52.6c-0.2-0.3-0.7-0.8-1.7-0.9c-1.5-0.1-1.8,1-1.8,1.5
						c0,0.6-0.1,0.7-0.3,0.9c-0.2,0.2-0.3,0.3-0.3,0.5c0,0.1,0.1,0.2,0.1,0.3c0,0,0.6,0.8,0.6,0.8c0.1,0.1,0.2,0.2,0.3,0.2
						c0.2,0.1,0.3,0,0.6-0.1c0.3-0.1,0.4-0.2,1,0c0.5,0.2,1.7,0.2,2-1.2C36.6,53.5,36.2,52.9,36,52.6z"/>
					
						<linearGradient id="SVGID_24_" gradientUnits="userSpaceOnUse" x1="38.2965" y1="50.9642" x2="42.7623" y2="50.9642" gradientTransform="matrix(0.998 6.400000e-002 -6.400000e-002 0.998 -3.1877 0.2621)">
						<stop  offset="0" style="stop-color:#7192A2"/>
						<stop  offset="0.2732" style="stop-color:#6E8C9B"/>
						<stop  offset="0.6079" style="stop-color:#657D89"/>
						<stop  offset="0.9719" style="stop-color:#57666E"/>
					</linearGradient>
					<path fill-rule="evenodd" clip-rule="evenodd" fill="url(#SVGID_24_)" d="M35.8,52.4c-0.2-0.3-0.7-0.8-1.7-0.9
						c-1.5-0.1-1.8,1-1.8,1.5c0,0.6-0.1,0.7-0.3,0.9c-0.2,0.2-0.3,0.3-0.3,0.5c0,0.1,0.1,0.2,0.1,0.3c0,0,0.5,0.8,0.6,0.8
						c0.1,0.1,0.2,0.2,0.3,0.2c0.2,0.1,0.3,0,0.5-0.1c0.3-0.1,0.4-0.2,0.9,0c0.5,0.2,1.6,0.2,2-1.2C36.4,53.3,36,52.7,35.8,52.4z"/>
				</g>
				<path fill-rule="evenodd" clip-rule="evenodd" fill="#98AFBE" d="M35.6,52.5c-0.2-0.3-0.6-0.7-1.5-0.8c-1.3-0.1-1.6,0.9-1.6,1.4
					c0,0.5-0.1,0.6-0.3,0.8c-0.2,0.2-0.3,0.2-0.2,0.4c0,0.1,0,0.2,0.1,0.3c0,0,0.5,0.7,0.5,0.7c0.1,0.1,0.2,0.1,0.2,0.2
					c0.2,0.1,0.2,0,0.5-0.1c0.2-0.1,0.4-0.2,0.8,0c0.5,0.2,1.4,0.2,1.8-1.1C36.2,53.3,35.8,52.8,35.6,52.5z"/>
				<path fill-rule="evenodd" clip-rule="evenodd" fill="#A5CEE1" d="M35.4,52c0,0,0.8,0.6,0.8,1.7c0,1-0.4,1.6-0.9,1.9
					c-0.5,0.2-0.8,0.2-0.8,0.2l0,0.1c0,0,0.6,0.1,1-0.2c0.4-0.3,0.8-0.8,0.8-1.7C36.3,52.4,35.4,52,35.4,52z"/>
				<path fill-rule="evenodd" clip-rule="evenodd" fill="#D8EFF5" d="M34.5,51.8c0,0,0.9,0.2,1.3,1.1c0.3,1,0,1.8-0.4,2.2
					c-0.3,0.3-0.8,0.3-1.1,0.2c-0.2-0.1-0.6-0.3-0.9-0.1c-0.3,0.1-0.4,0.3-0.6,0.2c-0.3-0.1-0.4-0.4-0.4-0.4s0.4,0.5,0.6,0.5
					c0.3,0,0.5-0.4,0.8-0.3c0.3,0.1,1,0.3,1.4,0.1c0.5-0.3,0.7-0.6,0.8-1.6C36,52.9,35.5,52,34.5,51.8z"/>
				
					<linearGradient id="SVGID_25_" gradientUnits="userSpaceOnUse" x1="38.5668" y1="53.105" x2="40.9815" y2="53.105" gradientTransform="matrix(0.999 4.390000e-002 -4.390000e-002 0.999 -3.2163 -0.2541)">
					<stop  offset="0" style="stop-color:#7192A2"/>
					<stop  offset="0.2732" style="stop-color:#6E8C9B"/>
					<stop  offset="0.6079" style="stop-color:#657D89"/>
					<stop  offset="0.9719" style="stop-color:#57666E"/>
				</linearGradient>
				<path fill-rule="evenodd" clip-rule="evenodd" fill="url(#SVGID_25_)" d="M35.4,53.8c0,0-0.8,0.9-0.9,0.9
					c-0.1,0.1-0.1,0.6-0.1,0.6s-0.4-0.2-0.6-0.2c-0.2,0-0.3,0-0.5,0.1c-0.2,0.1-0.2,0.1-0.2,0.1l0.2-0.2c0,0-0.2,0-0.3-0.2
					c-0.1-0.3,0-0.5,0-0.5S35.5,53.3,35.4,53.8z"/>
				<g>
					<path fill-rule="evenodd" clip-rule="evenodd" fill="#98AFBE" d="M34.2,54c-0.2-0.2-0.9-0.6-0.9-0.6s-1.4-0.3-1.6,1
						c-0.3,1.3-0.3,4.7-0.3,4.8c0,0.2-0.1,0.9,0.5,1.2c0.6,0.3,1.8,0.3,2.3-0.1c0.3-0.2,0.3-1.5,0.3-3C34.5,55.8,34.4,54.2,34.2,54z
						 M32.2,55.7c0,0-0.1-0.1,0-0.8c0.1-0.7,0.5-0.8,0.5-0.8l1.1,0.3c0,0,0,0,0.1,0.4c0.1,0.4,0,1,0,1L32.2,55.7z"/>
					<g>
						
							<linearGradient id="SVGID_26_" gradientUnits="userSpaceOnUse" x1="38.2792" y1="52.3092" x2="41.0961" y2="52.3092" gradientTransform="matrix(0.999 4.390000e-002 -4.390000e-002 0.999 -3.2163 -0.2541)">
							<stop  offset="0" style="stop-color:#7192A2"/>
							<stop  offset="0.2732" style="stop-color:#6E8C9B"/>
							<stop  offset="0.6079" style="stop-color:#657D89"/>
							<stop  offset="0.9719" style="stop-color:#57666E"/>
						</linearGradient>
						<path fill-rule="evenodd" clip-rule="evenodd" fill="url(#SVGID_26_)" d="M35.4,53.7c0,0-0.5,0.1-1,0.3
							c-0.6,0.3-1,0.5-1.1,0.6c-0.1,0.1-0.2,0.1-0.3,0c-0.1-0.1-0.3-0.3-0.3-0.5c0-0.1,0.2-0.5,0.9-0.8c0.7-0.3,1.2-0.5,1.4-0.4
							c0.2,0.1,0.4,0.3,0.5,0.4C35.5,53.4,35.6,53.7,35.4,53.7z"/>
						<path fill-rule="evenodd" clip-rule="evenodd" fill="#98AFBE" d="M35,53c0,0-0.5-0.1-1.3,0.4c-0.8,0.4-0.9,0.8-0.8,0.9
							c0.1,0.1,0.1,0.3,0.4,0.2c0.2-0.2,1.1-0.6,1.5-0.7c0.5-0.1,0.6-0.1,0.5-0.3C35.2,53.2,35,53,35,53z"/>
						<path fill-rule="evenodd" clip-rule="evenodd" fill="#A5CEE1" d="M34.9,52.9c0,0-0.7,0.1-1.3,0.4c-0.6,0.4-0.9,0.6-0.8,0.8
							c0.1,0.2,0.1,0.2,0.2,0.3c0,0.1,0.1,0.1,0.2,0c0.1,0,0.2-0.1,0.2-0.1s-0.2,0-0.2,0c-0.1,0,0-0.1,0-0.2c-0.1-0.1,0-0.3,0.4-0.4
							c0.4-0.1,1.1,0,1.3-0.2c0.2-0.2,0.2-0.3,0.3-0.2c0.1,0.1,0.2,0.2,0.2,0.2c0,0.1-0.1,0.1-0.1,0.1s0.1,0,0.1-0.1
							c0-0.1-0.2-0.4-0.4-0.5C34.9,52.9,34.9,52.9,34.9,52.9L34.9,52.9z"/>
						<path fill-rule="evenodd" clip-rule="evenodd" fill="#384C5F" d="M35.5,53.6c0,0-0.5,0.1-1.2,0.4c-0.7,0.3-1.2,0.6-1.2,0.6
							s-0.1,0-0.2-0.1c-0.1-0.1-0.1-0.1-0.1-0.1s0.2,0.3,0.3,0.3c0.1,0,0.2-0.1,0.5-0.3c0.3-0.2,0.9-0.4,1.3-0.6
							C35.4,53.7,35.5,53.7,35.5,53.6C35.6,53.6,35.5,53.6,35.5,53.6z"/>
					</g>
					<polygon fill-rule="evenodd" clip-rule="evenodd" fill="#CDCDCE" points="34.2,56.1 33.9,55.8 32.2,55.7 31.8,56 					"/>
					
						<linearGradient id="SVGID_27_" gradientUnits="userSpaceOnUse" x1="37.4729" y1="53.4957" x2="38.4326" y2="53.4957" gradientTransform="matrix(0.999 4.390000e-002 -4.390000e-002 0.999 -3.2163 -0.2541)">
						<stop  offset="0" style="stop-color:#7192A2"/>
						<stop  offset="0.2732" style="stop-color:#6E8C9B"/>
						<stop  offset="0.6079" style="stop-color:#657D89"/>
						<stop  offset="0.9719" style="stop-color:#57666E"/>
					</linearGradient>
					<path fill-rule="evenodd" clip-rule="evenodd" fill="url(#SVGID_27_)" d="M32.7,54c0,0-0.4,0-0.6,0.6c-0.2,0.6-0.1,1.2-0.1,1.2
						L31.8,56c0,0,0-1.1,0.3-1.7c0.3-0.6,0.8-0.5,0.8-0.5L32.7,54z"/>
					<path fill-rule="evenodd" clip-rule="evenodd" fill="#384C5F" d="M32.7,54c0,0-0.4-0.1-0.6,0.6c-0.2,0.7-0.1,1.1-0.1,1.1
						L31.8,56l0.4-0.3l1.7,0.1l0.3,0.3c0,0,0.1-0.7-0.1-1.2C34,54.3,34,54.3,34,54.3l-0.2,0.1c0,0,0.1,0.3,0.1,0.7
						c0,0.4,0,0.6,0,0.6l-1.7-0.1c0,0-0.1-0.7,0.1-1.1c0.2-0.4,0.4-0.4,0.4-0.4L32.7,54z"/>
					<path fill-rule="evenodd" clip-rule="evenodd" fill="#98AFBE" d="M31.7,56.1l2.6,0.1c0,0,0,2.8,0,3.4c-0.1,0.5-0.1,0.9-0.9,1
						c-0.8,0.1-1.6-0.1-1.7-0.6C31.5,59.4,31.7,56.1,31.7,56.1z"/>
					
						<linearGradient id="SVGID_28_" gradientUnits="userSpaceOnUse" x1="37.4257" y1="56.8255" x2="39.6301" y2="56.8255" gradientTransform="matrix(0.999 4.390000e-002 -4.390000e-002 0.999 -3.2163 -0.2541)">
						<stop  offset="0" style="stop-color:#7192A2"/>
						<stop  offset="0.2732" style="stop-color:#6E8C9B"/>
						<stop  offset="0.6079" style="stop-color:#657D89"/>
						<stop  offset="0.9719" style="stop-color:#57666E"/>
					</linearGradient>
					<path fill-rule="evenodd" clip-rule="evenodd" fill="url(#SVGID_28_)" d="M34,56.2c0,0-0.1,2.4-0.6,3.3
						c-0.5,0.9-1.3,1.1-1.6,0.4c-0.2-0.6,0-3.8,0-3.8L34,56.2z"/>
					<path fill-rule="evenodd" clip-rule="evenodd" fill="#FFFFFF" d="M32.2,55.7c0,0,0,0.2,0.8,0.2c0.8,0.1,0.9-0.1,0.9-0.1
						c0,0,0,0,0,0l0.3,0.3L31.8,56L32.2,55.7z"/>
					<path fill-rule="evenodd" clip-rule="evenodd" fill="#FFFFFF" d="M34.9,52.9c0,0-0.1,0-0.3,0c-0.3,0.1-0.8,0.3-1.2,0.6
						c-0.7,0.5-0.6,0.5-0.6,0.7c0,0.1,0.1,0.2,0.1,0.2s-0.2-0.3,0.1-0.5c0.3-0.2,0.9-0.4,1.3-0.5C34.8,53.2,35,53,35,53s0,0,0.2,0.1
						c0.2,0.2,0.2,0.3,0.2,0.3S35.3,53,34.9,52.9z"/>
					<path fill-rule="evenodd" clip-rule="evenodd" fill="#FFFFFF" d="M33.1,53.5c0,0-0.8,0-1.1,0.7c-0.3,0.7-0.3,1.9-0.4,2.4
						c0,0.6-0.1,2.8-0.1,3.1c0,0.3,0.2,0.5,0.6,0.7c0.4,0.2,1.2,0.2,1.8,0c0.6-0.2,0.5-1.3,0.6-2.2c0-0.9,0-1.5,0-1.5s0,1.8,0,2.3
						c0,0.5-0.1,1.1-0.2,1.2c-0.1,0.1-0.5,0.3-1,0.3c-0.5,0-1.2,0-1.6-0.4c-0.3-0.3-0.3-0.8-0.2-2.2c0.1-1.5,0.1-3.1,0.5-4
						c0.4-0.8,1.2-0.7,1.3-0.7c0.2,0,0.2,0,0.2,0L33.1,53.5z"/>
				</g>
				<path fill-rule="evenodd" clip-rule="evenodd" fill="#384C5F" d="M35.3,53.7C35.3,53.7,35.4,53.7,35.3,53.7c0,0.1,0.1,0.1,0.2,0
					c0-0.1,0-0.2,0-0.2L35.3,53.7z"/>
				<path fill-rule="evenodd" clip-rule="evenodd" fill="#384C5F" d="M33.4,54.6c0,0,0,0.1,0,0.1c0,0,0,0.1-0.1,0.1
					c-0.1,0-0.1,0-0.1-0.1C33.1,54.7,33.4,54.6,33.4,54.6z"/>
				<path fill-rule="evenodd" clip-rule="evenodd" fill="#FFFFFF" d="M34.3,54.2c0,0,0.1,0.5,0.2,2.7c0,2.2,0,2.2,0,2.2l0,0.1
					c0,0,0.1-2.3,0-3.6C34.4,54.3,34.3,54.1,34.3,54.2L34.3,54.2z"/>
				
					<linearGradient id="SVGID_29_" gradientUnits="userSpaceOnUse" x1="37.3568" y1="56.9145" x2="40.0634" y2="56.9145" gradientTransform="matrix(0.999 4.390000e-002 -4.390000e-002 0.999 -3.2163 -0.2541)">
					<stop  offset="0" style="stop-color:#7192A2"/>
					<stop  offset="0.2732" style="stop-color:#6E8C9B"/>
					<stop  offset="0.6079" style="stop-color:#657D89"/>
					<stop  offset="0.9719" style="stop-color:#57666E"/>
				</linearGradient>
				<path fill-rule="evenodd" clip-rule="evenodd" fill="url(#SVGID_29_)" d="M31.7,56.1l2.6,0.1c0,0,0,2.3,0,3.1
					c0,0.8-0.1,1-0.6,1.2c-0.5,0.1-1,0-1,0s1.3,0,1.4-0.4c0.2-0.5,0.1-3.8,0.1-3.8l-2.3-0.1L31.6,58L31.7,56.1z"/>
			</g>
			<path fill-rule="evenodd" clip-rule="evenodd" fill="#151743" d="M36.1,48.9c0,0,5.3-0.9,10.1,0.9c4.8,1.8,7.3,4.6,7.4,5.6
				c0.1,1.1-0.5,3.1-0.5,3.1l0.6-0.7c0,0,0.4-1.9,0.5-2c0-0.2,0-3-5.2-5.4C43.8,48.1,38.9,48.2,36.1,48.9z"/>
			<path fill="#3F4469" d="M50.7,52c0,0,2.8,2,3,3.2c0.2,1.2,0,1.5,0,1.5s0.4-0.9,0.1-2C53.4,53.7,50.7,52,50.7,52z"/>
			<path fill="#3F4469" d="M59.8,37.9c-0.4-1-0.9-1.9-1.7-2.7c0,0,2.8,4.5,1.3,10.4C57.9,51.5,54,53,54,53s-1.9-1.3-2.9-1.7
				c-1-0.4-1-0.4-1-0.4s2.6,1.5,3.4,2.5c0.8,1,1.2,2.3,1.2,2.3s3.3-1.7,4.8-6.2C60.6,45.9,61.2,41.4,59.8,37.9z"/>
			<path fill="#0F1333" d="M47.7,49.2c0,0,4.9,0.6,7.6-1.8c2.8-2.3,3.4-4.4,3.4-4.4s-0.4,3.8-4.5,5.7C50.3,50.6,47.7,49.2,47.7,49.2
				z"/>
			<path fill="#D8D9E1" d="M36.4,57.5c0,0,2.6-0.5,5.2,0.1c2.7,0.6,3.5,0.9,4.8,1.4c1.3,0.5,3,1.7,4.3,1.7c1.3,0,1.5-0.4,1.5-0.4
				s-1.2,0.7-2.8-0.1c-1.6-0.8-3.5-2.1-7.1-2.7C38.8,56.9,37.1,57.1,36.4,57.5z"/>
			<path fill="#3F4469" d="M39.4,60.3c0,0-0.7,0.4-0.2,0.7c0.5,0.3,0.7,0.3,0.7,0.3s-1.4,0.1-1.2-0.5C38.8,60.2,39.4,60.3,39.4,60.3
				z"/>
			<path fill="#3F4469" d="M40.3,62.5c0,0-0.7,0.4-0.2,0.7c0.5,0.3,0.7,0.3,0.7,0.3s-1.4,0.1-1.2-0.5C39.7,62.4,40.3,62.5,40.3,62.5
				z"/>
			<path fill="#3F4469" d="M42.4,65.2c0,0-0.7,0.4-0.2,0.7c0.5,0.3,0.7,0.3,0.7,0.3s-1.4,0.1-1.2-0.5C41.8,65.1,42.4,65.2,42.4,65.2
				z"/>
			<path fill="#3F4469" d="M39.2,58c0,0-0.5,0.3-0.1,0.5c0.3,0.2,0.4,0.2,0.4,0.2s-0.9,0.1-0.8-0.3C38.8,58,39.2,58,39.2,58z"/>
			<path fill="#151743" d="M54.1,55.3c0,0,0.1,0.4,0.8,0.2c0.7-0.2,0,1.9,0,1.9l-1.3,1.8c0,0,0.1-0.7-0.1-0.4
				c-0.2,0.2-0.7,0.9-0.7,0.9l-0.4,0.1c0,0,1.1-1.9,1.2-2.9c0.2-1.1,0.2-1.1,0.2-1.1s-0.1,0.7,0.2,0.4
				C54.3,55.9,54.1,55.3,54.1,55.3z"/>
			<path fill="#516D75" d="M42.9,52.3c0,0-0.8-0.3-1.3-0.3c-0.5,0.1-0.8,0.2-0.8,0.2l0-0.1C40.8,52.2,41.5,51.5,42.9,52.3z"/>
			<path fill="#516D75" d="M46.5,53.1c0,0-0.7-0.5-1.2-0.5c-0.5,0-0.8,0.1-0.8,0.1l0-0.1C44.5,52.6,45.3,52.1,46.5,53.1z"/>
			<path fill="#516D75" d="M50,54.4c0,0-0.7-0.5-1.2-0.6c-0.5-0.1-0.8,0-0.8,0l0-0.1C48.1,53.8,48.9,53.4,50,54.4z"/>
			<path fill="#516D75" d="M39.3,52.1c0,0-0.8-0.3-1.3-0.2c-0.5,0.1-0.7,0.3-0.7,0.3l0-0.1C37.2,52.1,37.9,51.4,39.3,52.1z"/>
			<path fill-rule="evenodd" clip-rule="evenodd" fill="#FFFFFF" d="M35.7,52.3c0,0-0.4-0.6-1.3-0.7c-0.9-0.1-1.6,0.3-1.8,0.6
				c-0.2,0.3-0.2,0.5-0.2,0.7c0,0.2,0,0.5,0,0.6c0,0.1,0,0.1,0,0.1s0-0.4,0-0.6c0-0.2,0-0.9,0.7-1.2c0.6-0.3,1.2-0.4,2-0.1
				c0.8,0.3,1,0.8,1,1c0.1,0.2,0,0-0.1-0.1C35.8,52.4,35.7,52.3,35.7,52.3z"/>
			<path fill-rule="evenodd" clip-rule="evenodd" fill="#FFFFFF" d="M34.2,51.8c0,0-0.7-0.1-1.2,0.3c-0.5,0.4-0.5,0.8-0.5,1
				c0,0.2,0,0.4,0,0.4s0-0.4,0-0.6c0-0.2,0.2-0.6,0.6-0.8c0.4-0.2,0.8-0.2,1.3-0.1c0.5,0.1,0.7,0.3,0.7,0.3l0,0
				C35.1,52.1,34.8,51.9,34.2,51.8z"/>
			<path fill-rule="evenodd" clip-rule="evenodd" fill="#A7B8C1" d="M35,52.1c0,0,0,0.6-0.7,0.8c-0.6,0.2-1.6,0.4-1.7,0.2
				c-0.1-0.2,0.1-0.8,0.6-1C33.6,51.8,34.4,51.7,35,52.1z"/>
			<path fill-rule="evenodd" clip-rule="evenodd" fill="#B3C2C9" d="M34.4,52c0,0,0.3,0.3-0.5,0.6c-0.8,0.2-1.1-0.3-0.8-0.5
				C33.6,51.8,34.3,51.9,34.4,52z"/>
			<path fill-rule="evenodd" clip-rule="evenodd" fill="#FFFFFF" d="M35.5,49.6c-0.5,0.1-0.4,0.5-0.4,0.5s0.1,0.7,0.1,1
				c0,0.3,0.1,0.3,0.1,0.4c0,0,0.5,0.3,0.7,0.4c0.2,0.1,0.3,0.4,0.3,0.4s0-0.2-0.1-0.3c-0.1-0.2-0.6-0.5-0.8-0.6
				c-0.1-0.1-0.2-0.8-0.2-1.3C35.2,49.8,35.5,49.7,35.5,49.6L35.5,49.6z"/>
			<path fill-rule="evenodd" clip-rule="evenodd" fill="#FFFFFF" d="M39.3,49.4c0,0-0.4,0.1-0.4,0.3c-0.1,0.2-0.1,1.3,0,1.4
				c0,0.1,0.1,0.2,0.2,0.3c0.1,0.1,0.5,0.4,0.6,0.6c0.1,0.2,0,0.4,0,0.4s0-0.4-0.2-0.5c-0.2-0.1-0.6-0.5-0.7-0.5
				c-0.1,0-0.1-0.1-0.1-0.5c0-0.4,0-1,0-1s0-0.3,0.2-0.4C39.2,49.4,39.3,49.4,39.3,49.4z"/>
			<path fill-rule="evenodd" clip-rule="evenodd" fill="#FFFFFF" d="M43.4,49.8c0,0-0.4,0-0.4,0.2c-0.1,0.2-0.2,1.3-0.2,1.4
				c0,0.1,0.1,0.2,0.2,0.3c0.1,0.1,0.4,0.4,0.5,0.6c0.1,0.2,0,0.4,0,0.4s0.1-0.4-0.1-0.5c-0.2-0.1-0.5-0.6-0.6-0.6
				c-0.1-0.1-0.1-0.1,0-0.5c0.1-0.4,0.2-1,0.2-1s0.1-0.3,0.3-0.3C43.2,49.7,43.4,49.8,43.4,49.8z"/>
			<path fill-rule="evenodd" clip-rule="evenodd" fill="#FFFFFF" d="M47.5,50.9c0,0-0.4-0.1-0.5,0.1c-0.1,0.2-0.4,1.2-0.5,1.3
				c0,0.1,0,0.2,0.1,0.3c0.1,0.1,0.3,0.5,0.4,0.7c0,0.2-0.1,0.4-0.1,0.4s0.1-0.4,0-0.5c-0.1-0.2-0.4-0.6-0.5-0.7
				c-0.1-0.1,0-0.2,0.1-0.5c0.1-0.4,0.3-1,0.3-1s0.1-0.3,0.3-0.3C47.4,50.8,47.5,50.9,47.5,50.9z"/>
			<path fill-rule="evenodd" clip-rule="evenodd" fill="#FFFFFF" d="M51.6,53.1c0,0-0.3-0.2-0.5-0.1c-0.2,0.1-0.8,0.9-0.8,1
				c0,0.1-0.1,0.2,0,0.3c0,0.2,0.2,0.6,0.1,0.8c-0.1,0.2-0.2,0.3-0.2,0.3s0.2-0.3,0.2-0.5c-0.1-0.2-0.2-0.7-0.2-0.8
				c0-0.1,0-0.2,0.2-0.4c0.2-0.3,0.6-0.7,0.6-0.7s0.2-0.2,0.4-0.1C51.5,53,51.6,53.1,51.6,53.1z"/>
			<path fill="#D8D9E1" d="M40.5,45.9c0,0,0.2,0.3-0.1,0.4c-0.3,0.1-0.4,0-0.4,0s0.5,0.2,0.7,0C40.9,46,40.5,45.9,40.5,45.9z"/>
			<path fill="#D8D9E1" d="M40.6,43.2c0,0,0.2,0.3-0.1,0.4c-0.3,0.1-0.4,0-0.4,0s0.5,0.2,0.7,0C41,43.3,40.6,43.2,40.6,43.2z"/>
			<path fill="#D8D9E1" d="M40.7,40.3c0,0,0.2,0.3-0.1,0.4c-0.3,0.1-0.4,0-0.4,0s0.5,0.2,0.7,0C41.1,40.4,40.7,40.3,40.7,40.3z"/>
			<path fill="#D8D9E1" d="M41.2,37.6c0,0,0.2,0.3-0.1,0.4c-0.3,0.1-0.4,0-0.4,0s0.5,0.2,0.7,0C41.6,37.7,41.2,37.6,41.2,37.6z"/>
			<path fill="#D8D9E1" d="M42,34.6c0,0,0.2,0.3-0.1,0.4c-0.3,0.1-0.4,0-0.4,0s0.5,0.2,0.7,0C42.4,34.8,42,34.6,42,34.6z"/>
			<g>
				
					<linearGradient id="SVGID_30_" gradientUnits="userSpaceOnUse" x1="68.7509" y1="44.4768" x2="81.0698" y2="44.4768" gradientTransform="matrix(0.999 4.390000e-002 -4.390000e-002 0.999 -3.2163 -0.2541)">
					<stop  offset="0" style="stop-color:#F0E23C"/>
					<stop  offset="0.1155" style="stop-color:#F0DE3B"/>
					<stop  offset="0.2572" style="stop-color:#EED437"/>
					<stop  offset="0.4126" style="stop-color:#ECC332"/>
					<stop  offset="0.5777" style="stop-color:#E9AA2C"/>
					<stop  offset="0.7488" style="stop-color:#E68C26"/>
					<stop  offset="0.7925" style="stop-color:#E58425"/>
				</linearGradient>
				<path fill="url(#SVGID_30_)" d="M66.4,40.3c0,0-0.4,2.4-1.3,3.8c-0.9,1.4-2.1,3.1-1.4,4.4c0.7,1.3,1.1,1.2,1.1,1.2
					s-0.9,2.9,0.5,3.5c1.4,0.6,3.3-0.2,3.3-0.2s0.8,1.8,2.9,1.9c2.1,0.1,2.4-1.4,1.6-2.1c-0.7-0.6-2.7-2.4-2.7-2.4s3.8,0.1,4.4-0.6
					c0.6-0.7,1.7-1.8-0.3-2.2c-2-0.3-3.8-0.2-3.8-0.2l0.2-0.4c0,0,3-2.6,2.6-3.7c-0.4-1.1-0.8-0.5-2.6,0.3c-1.7,0.8-3.1,0.9-3.1,0.9
					s-0.3-1.3,0-2.3c0.2-1-0.1-1.7-0.5-2C67,40,66.6,40,66.4,40.3z"/>
				<path fill-rule="evenodd" clip-rule="evenodd" fill="#F06724" d="M75.1,47.3c-0.5-0.2-1.1-0.1-1.6-0.1c-0.8,0-1.5,0-2.3,0
					c0.9-1.4,4.2-3.1,2.5-5c-0.4-0.5-1.3-0.1-1.7,0.2c-1.4,0.8-2.2,1.9-3.9,2c-0.1-0.2-0.1-0.5-0.2-0.7c-0.1-1.1,0.6-2,0-3.2
					C67.7,40,67,39.6,66.5,40c0,0,0,0,0,0.1c-0.2,0.1-0.3,0.4-0.3,0.6c-0.4,1.2-0.5,2.2-1.2,3.3c-0.8,1.2-1.6,2.2-1.8,3.7
					c-0.1,1,0.4,1.8,1.2,2.1C64,50.9,64,52.4,65,53.2c1,0.8,2.5,0.9,3.5,0.2c0.3,0.6,1,1.2,1.5,1.4c1.1,0.4,2.6,0.5,3.5-0.6
					c1.1-1.4-1-2.6-2.3-3.5c1.8-0.2,4.3,0.1,4.8-2C76.2,48,75.7,47.6,75.1,47.3z M72,54.3c-0.6,0.2-3-0.3-2.9-1.4
					c0.1-0.4-0.4-0.5-0.6-0.3c-0.1,0-0.2,0-0.3,0.1c-0.8,0.7-2.2,0.5-3-0.2c-0.7-0.7-0.4-2-0.1-2.8c0.1-0.2,0-0.4-0.2-0.5
					c-2.9-0.7,0.5-4.5,1.1-5.7c0.3-0.6,0.4-1.2,0.5-1.8c0.1-0.3,0.1-0.7,0.2-1c0.1-0.2,0.1-0.3,0.1-0.3c0,0,0.1-0.1,0.1-0.1
					c1.2,0,0.9,1.9,0.7,2.6c-0.2,0.6-0.2,1.1,0,1.7c0.2,0.5,0.5,1,0.7,1.5c0.4,1.1-0.3,1.9-1,2.6c-0.1,0.1,0,0.4,0.2,0.3
					c0.9-0.2,1.4-1,1.5-1.9c0.2-0.8-0.2-1.5-0.5-2.1c1.6,0.3,2.8-1.1,4-2c0.8-0.5,1.2,0.5,0.8,1.1C73,44.6,72.5,45,72,45.4
					c-0.4,0.4-0.8,0.7-1.1,1.1c-0.1-0.3-0.3-0.6-0.6-0.8c-0.2-0.1-0.4,0.1-0.3,0.3c0.8,1.7,0.3,4-0.5,5.6c-0.2,0.4,0.3,0.7,0.5,0.3
					c0.1-0.2,0.3-0.6,0.4-0.9c0.7,0.6,1.5,1,2.1,1.6C73.4,53.3,73,53.9,72,54.3z M75.4,48.8c-0.3,1.5-3.2,1.2-4.6,1.3
					c0.2-0.8,0.4-1.7,0.4-2.5c0.5,0.1,1,0.2,1.6,0.2C73.3,47.9,75.6,47.5,75.4,48.8z"/>
				<path fill="#F0E23C" d="M66.8,40.1c0,0,1.2,0,1.1,1.2c-0.1,1.2-0.5,1.7-0.2,2.7c0.3,1,0.7,1.5,0.8,2.4c0.1,0.8,0.1,1.1-0.3,1.7
					c-0.4,0.6-0.9,0.7-0.9,0.7s0.6-0.8,0.7-1c0-0.3-0.5,0.2-0.7-1.2c-0.2-1.4,0.4-1.3,0.4-1.3s-0.5-0.7-0.3-1.9
					c0.2-1.2,0.4-2,0.1-2.4c-0.3-0.4-0.7-0.1-0.8,0.2c-0.1,0.3-0.2,0.6-0.2,0.6S66.5,40.3,66.8,40.1z"/>
				<path fill="#F0E23C" d="M68.4,44.9c0,0,1.1-0.1,2.2-1c1.2-0.8,2.1-1.7,2.5-1.6c0.4,0.1,1,0.7,0.3,1.6c-0.7,0.9-1.9,1.8-2.1,2
					c-0.2,0.3-0.4,0.5-0.4,0.5s-0.1-0.3,0.5-0.9c0.6-0.6,0.7-1.4,1.3-1.9c0.5-0.6,0.3-1,0-0.9c-0.3,0.1-1.5,1.5-2.7,1.9
					C69,45.1,68.4,44.9,68.4,44.9z"/>
				<path fill="#F0E23C" d="M70,45.7c0,0,1.1,0.8,0.5,3.4c-0.6,2.6-1.2,2.7-1.2,2.7s0.4-1,0.5-1.3c0.1-0.4-0.1-0.6,0.2-1.4
					c0.3-0.8,0-0.8,0.1-1.4c0.1-0.5,0-0.9-0.3-1.4C69.6,45.8,70,45.7,70,45.7z"/>
				<path fill="#F0E23C" d="M71.1,47.6c0,0,1.1,0.1,2.1,0.1c1-0.1,2,0,2.1,0.7c0.1,0.7,0.1,1.5-1.8,1.6c-1.9,0.1-2.8,0.1-2.8,0.1
					s1.4-0.1,2.3-0.4c0.9-0.3,1.2-1.1,1.5-1.2c0.4-0.2-0.1-0.7-1.2-0.6c-1.1,0.1-2.2,0-2.2,0L71.1,47.6z"/>
				<path fill="#F0E23C" d="M70.5,51c0,0,2.5,1.4,2.6,2.2c0.1,0.7-0.8,1.6-2.3,1c-1.5-0.6-1.4-0.9-1.6-1.3c-0.2-0.5-0.7-0.2-1.2,0
					c-0.5,0.2-1.6,0.6-2.4-0.1c-0.8-0.6-0.8-1.3-0.7-1.8c0.1-0.6,0.2-1,0.2-1s-0.4,1.8,0.5,2.4c0.9,0.6,2.4,0.1,2.7-0.2
					c0.4-0.2,1.1,0.1,1.2,0.4c0.1,0.3,0.5,0.6,1.1,0.6c0.6,0,1.1-0.1,1.4,0.1c0.3,0.3,0.9,0.1,0.6-0.3c-0.3-0.5-2.1-1.8-2.1-1.8
					L70.5,51z"/>
			</g>
			<path fill="#F8EB32" d="M66.8,40.2c0,0-0.2,0.4-0.3,1.3c-0.1,0.9,0,1.4-0.6,2.7c-0.6,1.2-1.5,2.6-1.4,3.6c0.2,1,1,1.4,1,1.4
				s-0.7,1.6-0.3,2.5c0.4,0.9,1.1,1.2,1.5,1.2c0.5,0,0.6,0,0.6,0s-0.4,0.5-1.8-0.2c-1.4-0.7-0.7-1.5-0.7-2.4c0-0.9,0.5-1-0.2-1
				c-0.7-0.1-1.6-1-0.6-3c1.1-2,1.8-3.2,2-4c0.2-0.8,0.3-1.6,0.5-1.9C66.7,40,66.8,40.2,66.8,40.2z"/>
			<path fill="#F8EB32" d="M65.7,45.3c0,0-0.9,0.6-1,1.9c-0.1,1.3,0.8,1.9,1.5,0.4C66.9,46.1,66.2,45.1,65.7,45.3z"/>
			<path fill="#F8EB32" d="M65.5,49.6c0,0-0.6,1-0.4,1.9c0.2,1,1.3,1.1,1.2,0C66.2,50.5,65.8,49.5,65.5,49.6z"/>
			<path fill="#F8EB32" d="M65.1,49.4c0,0-0.4,0.5-0.4,1.4c0,0.9,0.2,1.8,1,2.1c0.8,0.3,1,0.1,1,0.1s-1.4-0.3-1.5-1.3
				C65.1,50.8,65.1,49.4,65.1,49.4z"/>
			<path fill="#FFFFFF" d="M65.7,46.6c-0.2,0.5-0.5,0.9-0.7,0.8c-0.2-0.1-0.3-0.6-0.1-1.1c0.2-0.5,0.5-0.9,0.7-0.8
				C65.8,45.6,65.9,46.1,65.7,46.6z"/>
			
				<ellipse transform="matrix(0.999 4.455334e-002 -4.455334e-002 0.999 2.3372 -2.8756)" fill="#FFFFFF" cx="65.7" cy="51" rx="0.4" ry="0.6"/>
			<path fill="#FFFFFF" d="M67,40.2c0,0-0.2,0-0.4,0.9c-0.2,0.9-0.5,2.2-1.3,3.4c-0.8,1.3-1.3,2.6-1.4,3.5c0,0.9,0.3,1,0.6,1.1
				c0.4,0.1,0.7,0.2,0.7,0.2s-0.5,1.1-0.3,2.2c0.2,1.1,0.9,1.5,1.6,1.5c0.8,0,1.7-0.3,1.7-0.3s-0.9,0.7-2.2,0.4
				c-1.2-0.3-1.5-0.9-1.6-1.8c-0.1-0.9,0.3-1.7,0.3-1.7s-1.6-0.4-1.2-2c0.3-1.5,1.3-3,1.9-4c0.5-1,0.9-2.7,1-3.1
				C66.6,40,67,40.2,67,40.2z"/>
			<polygon fill="#FFFFFF" points="30.7,60.7 30.9,59.6 31.1,60.7 32.3,60.8 31.1,61.2 30.9,62.4 30.6,61.1 29.6,61.1 			"/>
			<path fill="#9DAF80" d="M15,38.8c0,0-0.2-3.3-1.1-2.7c-0.9,0.5,0.2,1.3,0.3,0.9c0.2-0.4,0-0.4,0-0.4s0.6,0.3,0.3,0.8
				c-0.3,0.5-2.2,0.8-2.6-0.4c-0.4-1.2,0.3-2.4,1.1-2.4c0.8,0,1.6,0.9,1.6,0.9s0-0.5,0.4-0.6c0.4-0.1,0.9,0,0.3-0.4
				c-0.6-0.3-0.7-1,0.3-1.4c1.1-0.5,2.7-0.4,2.4-1.4c-0.3-1-2-0.6-2-0.6s-0.3-0.2,0-0.4c0.3-0.1-0.3,0,0.1-0.5
				c0.4-0.4,0.7-0.9,0-1.6c-0.7-0.7-2.1-1-2.2,0.1c-0.1,1.1,0.7,0.7,0.7,0.7s-0.6,0-0.5-0.5c0.1-0.5,1-0.8,1.4,0.1
				c0.4,0.9-0.8,2.3-1.7,1.8c-0.9-0.5-1.8-2.7-0.7-3.5c1.1-0.8,3.5-1.1,4.2,0c0.7,1.1-0.1,2.2,0.1,2.6c0.2,0.4-0.6,0.1,1,0.6
				c1.5,0.5,2.9,1.3,2.3,2.6c-0.6,1.3-0.9,1.3-0.9,1.3s1.2,0.3,1.6,0.9c0.4,0.6,0.3,0.9,0.3,0.9s1.3-0.3,1.6,0.7
				c0.3,1-1.1,1.5-1.4,1c-0.2-0.5,0.1-1,0.3-0.7c0.2,0.3,0.1,0.3,0.1,0.3s0.4-0.1,0.1-0.4c-0.3-0.3-0.6-0.1-0.8,0.2
				c-0.4,0.8,0,1.7,0,1.7l-0.4,0c0,0,0.4-2.2-0.5-2.8c-0.9-0.6-2.2-0.8-3-0.3c-0.8,0.5-1,1.6-1,1.6s0.7-1.6,1.8-1.6
				c1.1-0.1,2,0.2,2.2,1.2c0.2,1-0.5,2.2-1.8,2c-1.3-0.2-1.6-1.6-0.9-2.2c0.7-0.5,1.7,0.2,1.4,0.6c-0.3,0.4-0.6,0-0.6,0
				s-0.1,0.3,0.3,0.3c0.5,0,0.7-0.6,0.2-1.1c-0.6-0.4-1.6-0.1-1.7,0.3c-0.2,0.4-0.2,1.8-0.2,1.8L15,38.8z"/>
			<g>
				<path fill="#D7E9B7" d="M14.2,38.9c0,0,1.1,3.2,2.2,5.1c1.1,2,2.3,2.8,3.6,2.2c2.1-1,4.4-6.9,4.4-6.9L14.2,38.9z"/>
				<path fill="#81C241" d="M15,40.6c0,0,1.7,4.5,3,5.3c1.6,1,2.7,0,3.9-1.8c1.2-1.8,1.8-3.5,1.8-3.5L15,40.3L15,40.6z"/>
				<path fill="#62923F" d="M15.8,40.4c0,0,1.3,2.5,1.4,3.3c0.1,0.8,0.3,0.4,0.5,0.9c0.2,0.5-0.2,0.6,0.3,0.7c0.5,0.1,0.8,0,0.7,0.4
					c-0.1,0.4-0.1,0.4,0.4,0.4c0.5,0,0.2-0.6,0-1c-0.3-0.4-0.1-0.4-0.1-0.8c0-0.5-0.3,0-0.5-0.8c-0.2-0.9,0.5-0.6,0.2-1
					c-0.2-0.4-0.4-0.7-0.3-1c0.1-0.2-0.2-0.3-0.2-0.7c0.1-0.4,0.3-0.2,2.1-0.2c1.8,0,2.3,0,2.1,0.1c-0.2,0-1.9,0.1-1.9,0.1
					s1.1,0.1,0.8,0.3c-0.3,0.1-0.2,0.2,0,0.5c0.2,0.4-0.1,0.4-0.5,0.9c-0.4,0.5,0.5,0.5,0.1,0.8c-0.4,0.3,0,0.3-0.2,0.6
					c-0.3,0.4-0.2,0.2-0.2,0.6c0.1,0.4-0.1,0.6-0.3,0.9c-0.2,0.3,0.1,0.1,0,0.3c0,0.2-0.5,0.5-1,0.5c-0.5,0-1.3-0.3-2-1.7
					c-0.7-1.3-1.9-4.2-1.9-4.2L15.8,40.4z"/>
				<path fill="#2D3B1A" d="M18.5,41.9c0,0,0.5,0.6,0.3,0.8c-0.2,0.2-0.5,0.5-0.2,0.9c0.3,0.4,0.4,0.7,0.3,0.8
					c0,0.2,0.1,0.5,0.3,0.7c0.2,0.2,0.5,0.4,0.5,0.4s0.2-0.5,0.2-0.8c0-0.3-0.2-0.5,0-0.7c0.2-0.2,0.2-0.3,0.1-0.5
					c-0.2-0.2,0.5-0.5,0.2-0.6c-0.3-0.1-0.4-0.4-0.1-0.7c0.3-0.3,0.5-0.5,0.3-0.6c-0.2,0-0.5-0.5-0.1-0.7c0.4-0.2-0.2-0.3,0-0.3
					c0.2,0,1.8-0.1,1.8-0.1l-3.8-0.1l0.2,0.1c0,0-0.2,0.1,0,0.4c0.2,0.3,0,0.5,0,0.5S18.4,41.7,18.5,41.9z"/>
				<ellipse fill="#A7CF38" cx="20.1" cy="45.5" rx="0.1" ry="0.1"/>
				<path fill="#9BCB4C" d="M15.9,40.4c0,0,1.2,2.7,1.3,3.2c0.1,0.5,0,0.5,0.2,0.6c0.2,0.1,0.5,0.2,0.4,0.5
					c-0.1,0.3-0.1,0.4,0.2,0.4c0.3,0,0.7,0,0.7,0.3c0,0.3-0.1,0.5,0.3,0.5c0.3,0,0.3-0.1,0.1-0.5c-0.2-0.4-0.5-0.5-0.4-0.8
					c0.1-0.2,0.1-0.4-0.1-0.5c-0.2-0.2-0.5-0.5-0.3-1c0.2-0.5,0.3-0.5,0.1-0.7c-0.2-0.2-0.3-0.5-0.2-0.8c0.1-0.3,0.1-0.3,0-0.5
					C18,41,18,40.8,18.1,40.7c0.1-0.1,0.3-0.2,0-0.2C17.7,40.4,15.9,40.4,15.9,40.4z"/>
				<path fill="#E6F1D2" d="M17.9,40.4c0,0,0.2,0.7,0.1,1c-0.1,0.3-0.1,0.5,0.1,0.8c0.2,0.3,0,0.2,0,0.6c-0.1,0.4,0,0.8,0.2,1.1
					c0.2,0.3,0.1,0.5,0.1,0.7c0,0.2,0.3,0.3,0.3,0.7c0.1,0.4,0.1,0.6,0.2,0.6c0.1,0.1-0.1,0.1-0.2-0.1c-0.2-0.2,0-0.5-0.3-0.6
					c-0.3-0.1-0.4,0-0.3-0.4c0.1-0.4-0.1-0.4-0.3-0.7c-0.2-0.3,0-0.2-0.2-0.7c-0.2-0.5-1.5-3-1.5-3L17.9,40.4z"/>
				
					<ellipse transform="matrix(0.999 4.550216e-002 -4.550216e-002 0.999 1.9054 -0.8688)" fill="#A7CF38" cx="20" cy="41.4" rx="0.1" ry="0.1"/>
				<ellipse fill="#A7CF38" cx="20.9" cy="41.7" rx="0.1" ry="0.1"/>
				<circle fill="#A7CF38" cx="19.9" cy="43.2" r="0.1"/>
				<ellipse fill="#A7CF38" cx="19" cy="41.8" rx="0.1" ry="0.1"/>
				
					<ellipse transform="matrix(0.999 4.572536e-002 -4.572536e-002 0.999 1.8897 -0.8163)" fill="#A7CF38" cx="18.8" cy="40.9" rx="0.2" ry="0.1"/>
				
					<ellipse transform="matrix(0.999 4.514290e-002 -4.514290e-002 0.999 1.9483 -0.9366)" fill="#A7CF38" cx="21.7" cy="42.7" rx="0.3" ry="0.3"/>
				<ellipse fill="#A7CF38" cx="21.5" cy="42" rx="0.1" ry="0.1"/>
				
					<ellipse transform="matrix(0.999 4.511932e-002 -4.511932e-002 0.999 1.8938 -0.957)" fill="#A7CF38" cx="22.1" cy="41.5" rx="0.5" ry="0.4"/>
				<ellipse fill="#A7CF38" cx="21.5" cy="41.3" rx="0.1" ry="0.1"/>
				<circle fill="#A7CF38" cx="21.7" cy="40.9" r="0.1"/>
				
					<ellipse transform="matrix(0.999 4.485227e-002 -4.485227e-002 0.999 1.9764 -0.9033)" fill="#A7CF38" cx="21.1" cy="43.6" rx="0.3" ry="0.3"/>
				<ellipse fill="#A7CF38" cx="21.1" cy="43" rx="0.1" ry="0.1"/>
				<circle fill="#A7CF38" cx="16.8" cy="42.8" r="0.2"/>
				<ellipse fill="#A7CF38" cx="15.7" cy="41.3" rx="0.1" ry="0.1"/>
				
					<ellipse transform="matrix(0.999 4.530156e-002 -4.530156e-002 0.999 1.8671 -0.6749)" fill="#A7CF38" cx="15.8" cy="40.9" rx="0.2" ry="0.2"/>
				<ellipse fill="#A7CF38" cx="16.2" cy="42.2" rx="0.1" ry="0.1"/>
				<circle fill="#A7CF38" cx="17.4" cy="44.5" r="0.1"/>
				
					<ellipse transform="matrix(0.999 4.444901e-002 -4.444901e-002 0.999 2.0166 -0.8236)" fill="#A7CF38" cx="19.5" cy="44.9" rx="0.2" ry="0.2"/>
				<ellipse fill="#A7CF38" cx="19.4" cy="44" rx="0.1" ry="0.1"/>
				
					<ellipse transform="matrix(0.999 4.478371e-002 -4.478371e-002 0.999 2.0128 -0.8881)" fill="#A7CF38" cx="20.8" cy="44.5" rx="0.3" ry="0.2"/>
				<ellipse fill="#A7CF38" cx="20.4" cy="44.2" rx="0.1" ry="0.1"/>
				<circle fill="#A7CF38" cx="21.4" cy="44.1" r="0.2"/>
				<ellipse fill="#A7CF38" cx="20.5" cy="45.2" rx="0.1" ry="0.1"/>
				<path fill="#3A4F24" d="M18.9,44.5c0,0-0.1,0.3,0.1,0.7c0.2,0.3,0.3,0.9,0.1,1c-0.2,0-0.6,0-0.8-0.4c-0.2-0.4-0.2-0.3-0.4-0.3
					c-0.2,0-0.5-0.2-0.5-0.2s0.6,1,1.5,1c0.9,0.1,1.3-0.4,1.4-0.6c0,0-0.5,0.2-0.7,0.2c-0.2,0,0.2-0.2-0.1-0.3
					c-0.3-0.2-0.3-0.2-0.4-0.4c-0.1-0.2-0.1-0.1-0.1-0.3c0.1-0.3,0-0.4-0.1-0.4C19,44.3,19,44.3,18.9,44.5z"/>
				<polygon fill="#FFFFFF" points="16,40.4 17.9,40.4 17.7,39.1 15.3,39 				"/>
			</g>
			<path fill="#D7E9B7" d="M19.7,50.3c0,0-0.6,2.2-0.5,4.7c0.1,2.2,2,3.9,2.7,4.3c0.9,0.4,0.9,0.4,0.9,0.4s0.5,0.5-0.2,0.5
				C22,60.2,14.2,60,14.2,60s-0.3-0.3,0-0.5c0.3-0.2,3.4-1.6,3.8-3.6c0.4-2,0-5.5,0-5.5s1.1-1.7,0.7-2.8c-0.3-1-1.1-1.3-1.1-1.3
				l3,0.2c0,0-0.9,0.8-1,2.1C19.5,49.8,19.7,50.3,19.7,50.3z"/>
			<path fill="#6D765D" d="M20,47.2c0,0-0.8,0.9-0.8,1.9c0,1.1,0.2,1.4,0.2,1.4s-0.9,3.3-0.1,5.5c0.7,2.3,2.2,3.2,2.2,3.2l-3.2,0.2
				l4,0.1l0.7,0c0,0-3-0.9-3.5-4.9c0,0,0-2.1,0.2-3.1c0.2-1,0.2-1.4,0.2-1.4S19.4,48.6,20,47.2z"/>
			<path fill="#6D765D" d="M13.7,38.8c0,0,1.3,3.1,2.3,5c1,1.8,1.7,2.4,2.1,2.8c0.4,0.4,0.6,0.9,0.9,1c0.3,0.1,1-0.3,2-1.6
				c1-1.4,2.9-4.1,3.4-5.4c0.5-1.3,0.7-1.4,0.7-1.4l-0.7,0.1c0,0-0.4,1.5-1.8,4c-1.5,2.5-2.5,3.3-3.4,3.2c-0.8-0.1-2.1-0.8-3.4-3.8
				c-1.3-2.8-1.5-3.6-1.5-3.6L13.7,38.8z"/>
			<path fill="#FFFFFF" d="M14.5,38.9c0,0,0.7,2.9,2.7,6.1c1,1.6,2,1.6,2.9,1c0.8-0.6,2.8-3.5,3.3-4.6c0.5-1.1,0.9-2.1,0.9-2.1
				s-0.6,1.9-1.7,3.7c-1.1,1.8-1.8,2.6-2.3,3.1c-0.5,0.4-0.7,0.9-1.3,0.8c-0.5,0-1.5-1-2.4-2.4c-0.9-1.4-2.5-5.5-2.5-5.5L14.5,38.9z
				"/>
			<path fill="#373C2F" d="M18.4,46.6c0,0,0.4,0.3,0.7,0.3c0.5-0.1,0.6-0.2,0.6-0.2s-0.2,0.5-0.5,0.5C18.8,47.3,18.4,46.6,18.4,46.6
				z"/>
			<path fill="#6D765D" d="M13.8,38.9c0,0,4.4,0.3,7.6,0.3c3.2,0,3.5,0,3.5,0l0.1-0.1c0,0-3.4-0.1-7-0.2c-3.6-0.1-4.3-0.1-4.3-0.1
				L13.8,38.9z"/>
			<path fill="#FFFFFF" d="M14.2,38.9c0,0,2.5,0.1,5.7,0.2c3.2,0.1,4.3,0.2,4.3,0.2s-0.2,0.1-3.4,0c-3.2,0-6.5-0.2-6.5-0.2
				L14.2,38.9z"/>
			<path fill="#6D765D" d="M22.9,59.8c0,0-2.6,0-5.4,0c-2.9-0.1-3.2-0.2-3.2-0.1c0,0.1,0,0.2,0,0.2l8.4,0.2
				C22.7,60.1,23.1,59.9,22.9,59.8z"/>
			<path fill="#6D765D" d="M18.6,49.2c0,0,0,3.6-0.1,5.6c-0.1,2-1.1,3-1.9,3.6c-0.8,0.6-1.4,0.8-1.8,0.9c-0.4,0.1-0.6,0.1-0.6,0.1
				s2.8-1.3,3.5-2.8c0.7-1.5,0.5-4.8,0.4-5.5C18,50.4,18,50.2,18,50.2S18.5,49.3,18.6,49.2z"/>
			<path fill="#FFFFFF" d="M18.6,49.2c0,0,0.2,4.6-0.1,6c-0.3,1.4-0.7,2.6-1.1,3c-0.5,0.5-1,1.1-1,1.1s-1.4,0.1-1.3,0.2
				c0.1,0.1,1.8,0.1,3.3,0.1c1.5,0,2.1,0,1.8,0c-0.3,0-2.4-0.2-2.4-0.2l0.9-0.1c0,0,0.1-2.9,0.2-5.8c0.1-2.9,0.2-5.6,0.2-5.6
				s0.5-0.2,0.6-0.4c0.2-0.2,0.2-0.2,0.2-0.2s-0.6,0.5-0.9,0.3c-0.3-0.2-0.3-0.4-0.3-0.4s0.2,0.4,0.2,0.9
				C18.8,48.5,18.6,49.2,18.6,49.2z"/>
			<path fill="#C2C8B8" d="M18.9,51.4l-0.3,7.9l1.8-0.1c0,0-0.6-0.6-1.1-2.1c-0.2-0.6-0.3-1.3-0.4-2.5c0-1.2,0.1-3,0.2-3.6
				c0.1-0.6,0.2-0.8,0.2-0.8s-0.1-0.9,0-1.5c0.1-0.6,0.2-0.7,0.2-0.7l0.2-0.6L19,47.9L18.9,51.4z"/>
			<path fill="#9DAF80" d="M17.8,39.2l0.1,1.2c0,0,5.1,0.2,5.2,0.1c0.1-0.1-0.1-0.2-0.1-0.2s0.4-0.3,0.5-0.7
				c0.1-0.3,0.1-0.4,0.1-0.4L17.8,39.2z"/>
			<polygon fill="#9DAF80" points="15.4,39.1 16,40.4 15.1,40.3 14.7,39.1 			"/>
			<path fill="#839168" d="M17.8,39.2l0.1,1.1c0,0,3.6,0.3,4.3-0.2c0.7-0.6,0.5-0.9,0.5-0.9L17.8,39.2z"/>
			<path fill="#F8EB32" d="M21.1,46.6c0,0-0.9,0.4-1.1,1.8c-0.2,1.4,0.2,2.4,0.5,2.9c0.3,0.5,0.3,0.7,0.1,0.5
				c-0.2-0.2-0.4-0.4-0.4-0.4s-0.6,0.1-0.7,1.6c0,1.5,0.5,2,0.7,2.3c0.2,0.3,0.2,0.3,0.2,0.3l-0.3-1c0,0,0.4,0.3,0.5-0.7
				c0.1-1.1-0.1-1.6-0.2-1.7c-0.1-0.1,0.3,0.1,0.4-0.1c0.1-0.2,0-0.4-0.1-0.7c-0.1-0.3-0.6-1.9-0.3-2.4c0.2-0.6,0.7-0.7,0.9-1.2
				c0.2-0.5,0.1-0.7,0.1-0.7s0.5-0.1,0.2,0.8c-0.3,0.8-0.9,1.4-0.6,2.4c0.2,1,1.4,2,1.7,2.5c0.3,0.6,0.2,1.3-0.3,1.9
				c-0.6,0.6-1.4,0.9-1.4,0.9s-0.1,0.2,0.1,0.4c0.2,0.2,0.7,0.7,0.8,1.5c0.1,0.8-0.5,1.1-0.5,1.1l0.3,0.3c0,0,0.8-0.5,0.5-1.5
				c-0.2-1-0.7-1.4-0.7-1.4s1.5-0.8,1.6-1.8c0.1-1-0.4-2-1-2.6c-0.6-0.7-1.1-1.7-0.6-2.6c0.5-0.9,0.7-1.7,0.4-2.1
				C21.4,46.6,21.1,46.6,21.1,46.6z"/>
			<path fill="#F8EB32" d="M17.4,51.6c0,0,0.1,0.5,0,1.4c-0.1,0.9,0.1,1.7,0.2,2.2c0,0.5,0.2,0.6,0.2,0.6s0.2-0.2,0.1-2
				c-0.1-1.8-0.2-2.1-0.3-2.2C17.5,51.4,17.4,51.6,17.4,51.6z"/>
			<path fill="#F8EB32" d="M16.9,46.5c0,0,0.7,0.4,0.5,1.4c-0.1,1-0.7,1.4-1,1.9c-0.3,0.4-0.4,0.6-0.2,1.1c0.2,0.5,1,1,1,1l0,0.2
				c0,0-1.2-0.8-1.4-1.4c-0.2-0.6,0.1-0.9,0.3-1.7c0.2-0.8,0.4-1.5,0.4-1.9c0-0.5,0-0.7,0.5-0.5c0.4,0.2,1.3,0.5,1.1,1.8
				c-0.2,1.3-0.7,1.7-0.8,2.1c-0.2,0.4,0,0.8,0,0.8s-0.4-0.2-0.1-0.9c0.3-0.7,0.8-1.5,0.7-2.3C18,46.8,16.9,46.5,16.9,46.5z"/>
			<path fill="#F8EB32" d="M17.2,52.8c0,0-0.5,0.5-1.8,0.5c-1.3,0-1.9-0.1-2,0.4c-0.2,0.5-0.2,1.2,0.9,1.4c1.2,0.2,1.6,0,2.2,0
				c0.6,0,0.8,0.2,0.8,0.2s0-0.2-0.5-0.4c-0.5-0.2-1.5,0-2.2-0.2c-0.7-0.2-1-0.7-0.7-0.9c0.3-0.2,1.4,0,2.3-0.3
				C17,53.2,17.2,52.8,17.2,52.8z"/>
			
				<linearGradient id="SVGID_31_" gradientUnits="userSpaceOnUse" x1="24.4098" y1="52.5534" x2="24.6755" y2="52.5534" gradientTransform="matrix(0.999 4.390000e-002 -4.390000e-002 0.999 -3.2163 -0.2541)">
				<stop  offset="0" style="stop-color:#F0E23C"/>
				<stop  offset="0.1155" style="stop-color:#F0DE3B"/>
				<stop  offset="0.2572" style="stop-color:#EED437"/>
				<stop  offset="0.4126" style="stop-color:#ECC332"/>
				<stop  offset="0.5777" style="stop-color:#E9AA2C"/>
				<stop  offset="0.7488" style="stop-color:#E68C26"/>
				<stop  offset="0.7925" style="stop-color:#E58425"/>
			</linearGradient>
			<path fill="url(#SVGID_31_)" d="M19.2,51.2c0,0-0.2,1.2-0.3,2.1c0,0.9,0.1,2.1,0.1,2.1s-0.3-0.8-0.2-2.3
				C19,51.6,19.2,51.2,19.2,51.2z"/>
			
				<linearGradient id="SVGID_32_" gradientUnits="userSpaceOnUse" x1="24.1377" y1="53.8872" x2="23.979" y2="51.6663" gradientTransform="matrix(0.999 4.390000e-002 -4.390000e-002 0.999 -3.2163 -0.2541)">
				<stop  offset="0" style="stop-color:#F0E23C"/>
				<stop  offset="0.1155" style="stop-color:#F0DE3B"/>
				<stop  offset="0.2572" style="stop-color:#EED437"/>
				<stop  offset="0.4126" style="stop-color:#ECC332"/>
				<stop  offset="0.5777" style="stop-color:#E9AA2C"/>
				<stop  offset="0.7488" style="stop-color:#E68C26"/>
				<stop  offset="0.7925" style="stop-color:#E58425"/>
			</linearGradient>
			<path fill="url(#SVGID_32_)" d="M18.6,51c0,0,0.1,2.2,0.1,3.1c-0.1,1-0.2,1.5-0.2,1.5L18.6,51z"/>
		</g>
		<path fill="#010101" d="M48.1,32.3c0,0,3.9-1.4,7.4,1.5c2.3,1.9,3.1,3.7,3.1,3.7s-1.6-3.2-2.7-4.3c-1.1-1.1-3-1.5-3-1.5l-2.4-0.3
			L48.1,32.3z"/>
		<path fill="#010101" d="M26.4,41.7c0.4,3.8,2.5,5.2,2.5,5.2s-2.5-2.2-3.1-4.2c-0.6-2-0.5-2.9,0.1-4.1c0.6-1.2,1.5-2.4,1.5-2.4
			S26.1,38.1,26.4,41.7z"/>
		<ellipse fill="#C9DF80" cx="19.8" cy="22.2" rx="1.2" ry="1.2"/>
		<ellipse fill="#C9DF80" cx="17.6" cy="23.6" rx="0.5" ry="0.4"/>
		<circle fill="#C9DF80" cx="11.9" cy="22.7" r="1.4"/>
		<ellipse fill="#C9DF80" cx="10.9" cy="27.4" rx="0.7" ry="0.6"/>
		<circle fill="#C9DF80" cx="14.8" cy="18.7" r="0.7"/>
		<circle fill="#C9DF80" cx="17" cy="15.1" r="0.7"/>
		<ellipse fill="#C9DF80" cx="25.5" cy="36.8" rx="0.9" ry="1"/>
		<ellipse fill="#C9DF80" cx="11.2" cy="39.4" rx="2" ry="1.9"/>
		<ellipse fill="#C9DF80" cx="6.6" cy="28.7" rx="0.7" ry="0.9"/>
	</g>
	<path fill="#3F4469" d="M59.9,38.8c0,0,1.1,2.5,0.8,5.4c-0.3,2.9-0.3,2.9-0.2,3.4c0.2,0.5-0.6,0.7-0.4,1.4c0.2,0.6-0.7,0.4-0.7,1.6
		c-0.1,1.2-1.1,1.2-1.4,2.3c-0.3,1.1-1,1.2-1.4,1.7c-0.4,0.5-1.1,0.8-1.3,1.4c-0.2,0.5-0.5,0.1-0.7,0.7c-0.2,0.7-0.2,0.7-0.2,0.7
		s0.1-1.9-0.1-2.5c-0.2-0.6-0.2-0.6-0.2-0.6s4.5-3.1,5.3-6.1C60.4,45.1,59.9,38.8,59.9,38.8z"/>
	<path fill="#151743" d="M62,41.4c0,0,0.9,4.3,0.7,6.8c-0.2,2.5-0.5,2.3-0.5,3.2c0,0.9-0.5,0.5-0.9,1.8c-0.5,1.3-1.1,1.2-1.9,2.4
		c-0.8,1.1-1.4,1.4-2,2.4c-0.6,1-0.3,0.4-1.6,1.2c-1.3,0.8-1.4-0.3-1.9,0.3c-0.5,0.6,0.2-0.7,0.2-0.7s5.8-3.6,6.8-7.1
		C61.9,48.3,62,41.4,62,41.4z"/>
	<path fill="#3F4469" d="M63.8,50.5c0,0-0.6,2.2-1,2.7c-0.3,0.5-0.2,0.8-0.1,1.1c0.1,0.3-0.3-0.1-0.6,0.8c-0.3,0.9,0.3,1.2-0.5,1.9
		c-0.8,0.6-1.1,0.2-1.2,1.4c-0.2,1.1-0.5,0.6-1.5,1.6c-1,1-1.5,1.8-2.3,2c-0.8,0.2-0.8-0.1-1,0.6c-0.2,0.6-1.5,0.1-1.9,0.7
		c-0.3,0.6,0.2,1.4-0.7,1.3c-0.9-0.1-1.4-0.8-1.6-0.3c-0.3,0.5-0.3,0.8-1.5,0.8c-1.1-0.1-1.4-0.1-1.5,0.3c-0.1,0.4-1.3-0.3-1.9,0.4
		C46,66.3,46,66.3,46,66.3s3.5,0.8,9-2.8c5.5-3.6,7-5.7,8.1-8.9C64.2,51.3,63.8,50.5,63.8,50.5z"/>
</g>
</svg>
