<?xml version="1.0" encoding="utf-8"?>
<!-- Generator: Adobe Illustrator 18.0.0, SVG Export Plug-In . SVG Version: 6.00 Build 0)  -->
<!DOCTYPE svg PUBLIC "-//W3C//DTD SVG 1.1//EN" "http://www.w3.org/Graphics/SVG/1.1/DTD/svg11.dtd">
<svg version="1.1" id="Layer_1" xmlns="http://www.w3.org/2000/svg" xmlns:xlink="http://www.w3.org/1999/xlink" x="0px" y="0px"
	 viewBox="0 0 82 82" enable-background="new 0 0 82 82" xml:space="preserve">
<g>
	<path fill-rule="evenodd" clip-rule="evenodd" fill="#010101" d="M25.5,46.5c0,0-2.1,1.9-4.2,2.5c-2.1,0.7-2.1,0.7-2.1,0.7
		S19,51,19.3,51.7c0.3,0.7,0.6,1.3,0.6,1.3s-2-0.3-3.8-1.8c-1.7-1.5-3-2.4-3-2.4s1.4-0.2,3.3-1.9c1.9-1.6,2.8-2.2,2.8-2.2l-0.5,3
		c0,0,0.9,0.4,3.2-1.3c2.3-1.7,2.3-2.6,2.3-2.6L25.5,46.5z"/>
	<path fill-rule="evenodd" clip-rule="evenodd" fill="#171718" d="M19,45.1c0,0,0.1,0.9-0.1,1.8c-0.3,0.8-0.4,1-0.4,1
		s1.2,0.4,3.3-1.1c2.1-1.5,2.5-2.5,2.5-2.5l0.3,0.6c0,0-1.1,2.4-4.7,3.3c-1.2,0.3-2.4,0.5-3.9,0.7c-1.5,0.2-2.4,0.1-2.4,0.1
		S18,46.8,19,45.1z"/>
	<path fill-rule="evenodd" clip-rule="evenodd" fill="#2C2D2E" d="M13.6,48.9c0,0,2.6,2.7,4.2,3.3c1.6,0.6,1.8,0.6,1.8,0.6
		S19,52.1,19,51.2c-0.1-1-0.1-1.4-0.1-1.4s-0.2,0.7-0.2,1.3c0,0.6,0,0.8,0,0.8s-1.2-0.2-2.6-1.2C14.7,49.5,13.6,48.9,13.6,48.9z"/>
	<path fill-rule="evenodd" clip-rule="evenodd" fill="#010101" d="M50.4,15.2c0,0,1.1,1.6,0.8,2.8c-0.3,1.2-1,1.1-1,1.1
		s3.6,1.6,4.9,2.2c1.3,0.6,1.6,0.8,1.6,0.8s-0.2-2.7-1.3-4.7c-1.1-2-2.8-2.8-3.4-3c-0.6-0.2-1.1-0.2-1.2,0
		C50.6,14.7,50.4,15.2,50.4,15.2z"/>
	<path fill="#414142" d="M50.8,14.7c0,0,1.4,0.2,2.2,2.2c0.8,2.1,0.3,3.1,0.3,3.1l2.1,0.9c0,0,0.1-2.1-1.2-4.2
		c-1.4-2.1-2.6-2.5-2.6-2.5s3,0.5,4.1,3.8c1.1,3.3,0.7,3.7,0.7,3.7s-2.5-1.3-3.5-1.6c-1-0.3-2.5-0.8-2.5-0.8s1.3-1.5,0.7-2.9
		c-0.6-1.4-0.6-1.3-0.6-1.3S50.2,14.5,50.8,14.7z"/>
	<path fill="#595A5C" d="M51.5,14.3c0,0,2.2,0.2,3.5,3.3c1.3,3.3,0.6,3.8,0.6,3.8l-1.3-0.7c0,0,1-0.9,0-3.2
		C53.3,15.2,51.5,14.3,51.5,14.3z"/>
	<path fill-rule="evenodd" clip-rule="evenodd" fill="#010101" d="M27,18.5c0,0-0.1,1.4,1.4,2.8c1.5,1.4,4.1,1.8,4.1,1.8
		s-2.4,2.2-3.6,3.3c-1.2,1.1-2.6,2.7-2.6,2.7s-1-1-1.7-4.2C23.9,21.7,24.5,19.1,27,18.5z"/>
	<path fill="#414142" d="M26.8,18.8c0,0-1.3,1.9-0.3,4.1c1,2.2,2.6,3,2.6,3l3.1-2.5c0,0-1.3,0.5-3.2-1.3
		C27.1,20.3,26.8,18.8,26.8,18.8z"/>
	<path fill="#414142" d="M26.3,18.9c0,0-1.4,1.8-1.2,4.2c0.2,2.4,1.6,5.1,1.6,5.1l-0.3,0.5c0,0-1.6-2.1-1.8-5
		C24.4,20.8,25.9,19.1,26.3,18.9z"/>
	<path fill="#595A5C" d="M26.7,18.8c0,0-0.4,1.9,0.8,4.1c1.1,2.1,3.1,1.9,3.1,1.9L29,26.1c0,0-1.6-0.9-2.4-2.7
		C26,21.5,25.7,20.3,26.7,18.8z"/>
	<g>
		<path fill-rule="evenodd" clip-rule="evenodd" fill="#010101" d="M6.6,32.4c0,0,3.4,0.1,7.4-1.5c4-1.6,6.3-4.2,6.3-4.2
			s0.2,1.2,1,2.5c0.8,1.3,1.5,2.5,2.4,3.2c0.9,0.7,1.4,1.1,1.4,1.1l-1,1.9c0,0-1-0.7-1.9,0.2c-0.9,0.9-1.2,2-1.2,2s-0.5-1.5-2.3-2.4
			C16.8,34.3,14,37,14,37s-1.7-2.9-3.6-3.7C8.5,32.4,6.6,32.4,6.6,32.4z"/>
		<path fill-rule="evenodd" clip-rule="evenodd" fill="#231F20" d="M25.1,33.2c-0.3-0.1-1.7-1.4-2.3-2.2c-1.1-1.3-1.9-2.9-2.1-4.6
			c0-0.2-0.4-0.4-0.5-0.1c-0.5,1.2-1.5,1.8-2.5,2.4c-1.3,0.8-2.6,1.5-4.1,2.1c-1.4,0.5-2.9,0.8-4.4,1c-0.9,0.1-1.9,0.5-2.8,0.4
			c-0.2,0-0.3-0.1-0.5-0.1c-0.4-0.1-0.5,0.5-0.1,0.6c0.2,0.1,0.4,0.1,0.5,0.1c1.3,0.3,2.6,0.4,3.8,0.9c1.8,0.8,2.8,2.2,3.7,3.8
			c0.1,0.2,0.4,0.2,0.5,0c0.6-1.4,2.1-2.2,3.4-2.3c1.6-0.1,2.5,1.8,3.2,3c0.2,0.3,0.5,0.1,0.5-0.2c0-1,0.9-3.3,2.3-2.5
			c0.3,0.2,0.5-0.3,0.2-0.5c-1.3-0.8-2.4,0.6-2.8,1.9c-0.1-0.2-0.1-0.4-0.2-0.6c-0.3-1-0.5-2.1-0.6-3.1c-0.3-1.8-0.2-3.5-0.2-5.3
			c0.1-0.1,0.2-0.3,0.3-0.4c0.4,1.5,1.2,2.8,2.1,4c0.7,0.8,1.4,2.3,2.6,2.1C25.3,33.6,25.3,33.2,25.1,33.2z M8.4,32.6
			c0.3-0.1,0.6-0.1,0.8-0.2c1.5-0.2,3-0.5,4.5-1.1c1.5-0.5,2.8-1.3,4.2-2.1c0.5-0.3,0.9-0.6,1.4-1c-1.1,1.6-2.1,3.2-3.3,4.6
			c-0.8,1-1.8,2.2-2.1,3.6c-0.8-1.2-1.6-2.1-2.9-2.9C10.2,33,9.3,32.7,8.4,32.6z M19.9,32.9c0.1,0.9,0.3,1.9,0.5,2.8
			c0.1,0.3,0.1,0.5,0.2,0.8c-0.6-0.9-1.5-1.8-2.6-1.8c-1.3,0-2.7,0.6-3.6,1.7c0.4-1.4,1.4-2.6,2.4-3.7c0.6-0.8,1.2-1.6,1.7-2.5
			c0.4-0.6,0.8-1.1,1.2-1.7C19.6,29.9,19.7,31.4,19.9,32.9z"/>
		
			<linearGradient id="SVGID_1_" gradientUnits="userSpaceOnUse" x1="111.1063" y1="41.1521" x2="113.8151" y2="41.1521" gradientTransform="matrix(0.9519 -0.3063 0.3063 0.9519 -99.5534 28.2815)">
			<stop  offset="0" style="stop-color:#231F20"/>
			<stop  offset="0.1255" style="stop-color:#262223"/>
			<stop  offset="0.2794" style="stop-color:#2D2A2B"/>
			<stop  offset="0.4482" style="stop-color:#383637"/>
			<stop  offset="0.6262" style="stop-color:#474648"/>
			<stop  offset="0.7925" style="stop-color:#595A5C"/>
		</linearGradient>
		<path fill-rule="evenodd" clip-rule="evenodd" fill="url(#SVGID_1_)" d="M19.9,28.1c0,0-0.2,2.4,0.1,4.8c0.3,2.5,1,4.7,1,4.7
			s-2.2-2.9-2.3-5.1C18.6,30.3,19.8,28.2,19.9,28.1z"/>
		
			<linearGradient id="SVGID_2_" gradientUnits="userSpaceOnUse" x1="102.8284" y1="39.49" x2="114.1324" y2="39.49" gradientTransform="matrix(0.9519 -0.3063 0.3063 0.9519 -99.5534 28.2815)">
			<stop  offset="0" style="stop-color:#231F20"/>
			<stop  offset="0.1255" style="stop-color:#262223"/>
			<stop  offset="0.2794" style="stop-color:#2D2A2B"/>
			<stop  offset="0.4482" style="stop-color:#383637"/>
			<stop  offset="0.6262" style="stop-color:#474648"/>
			<stop  offset="0.7925" style="stop-color:#595A5C"/>
		</linearGradient>
		<path fill-rule="evenodd" clip-rule="evenodd" fill="url(#SVGID_2_)" d="M20,27.4c0,0-1.9,3-3.7,5.3c-1.8,2.3-2.3,4.4-2.3,4.4
			s-0.6-1.6-1.8-2.6C11.1,33.5,10,33,10,33s1.5,0.4,2.2,0.9c0.7,0.5,0.7,0.5,0.7,0.5s3-2.4,4.9-4.6C19.7,27.5,20.2,27.3,20,27.4z"/>
		
			<linearGradient id="SVGID_3_" gradientUnits="userSpaceOnUse" x1="112.4213" y1="40.4142" x2="116.7689" y2="40.4142" gradientTransform="matrix(0.9519 -0.3063 0.3063 0.9519 -99.5534 28.2815)">
			<stop  offset="0" style="stop-color:#231F20"/>
			<stop  offset="0.1255" style="stop-color:#262223"/>
			<stop  offset="0.2794" style="stop-color:#2D2A2B"/>
			<stop  offset="0.4482" style="stop-color:#383637"/>
			<stop  offset="0.6262" style="stop-color:#474648"/>
			<stop  offset="0.7925" style="stop-color:#595A5C"/>
		</linearGradient>
		<path fill-rule="evenodd" clip-rule="evenodd" fill="url(#SVGID_3_)" d="M20.3,27.3c0,0,0.6,2.3,2.1,4.1c1.4,1.8,2.4,2.2,2.4,2.2
			l-0.7,1.6c0,0-0.8-0.9-1.7,0.1c-0.9,0.9-1.1,1.5-1.1,1.5s0.5-0.9,1.1-1.7c0.7-0.8,0.8-1.9,0.8-1.9l-1.3,1.8c0,0,0.3-1.5-0.1-3.1
			C21.3,30.1,20.4,28.7,20.3,27.3z"/>
		<path fill-rule="evenodd" clip-rule="evenodd" fill="#2C2D2E" d="M20.3,27.5c0,0-0.3,1.5-0.2,3.6c0.1,2.1,0.6,4.4,0.8,5.1
			c0.3,0.7,0.3,0.7,0.3,0.7s-0.5-3.7-0.7-6.2C20.3,28.3,20.3,27.5,20.3,27.5z"/>
		<path fill-rule="evenodd" clip-rule="evenodd" fill="#2C2D2E" d="M20.1,27.6c0,0-2.4,3.6-3.9,5.8c-1.5,2.2-1.8,3.1-1.8,3.1
			s3.1-3.8,4.2-5.7C19.7,29,20.1,27.6,20.1,27.6z"/>
		<path fill-rule="evenodd" clip-rule="evenodd" fill="#2C2D2E" d="M20,27.4c0,0-2.8,2.5-6.2,3.8c-3.4,1.2-7.1,1.3-7.1,1.3
			s1.9,0.3,3.6,0.8c1.7,0.5,2.8,2.2,2.8,2.2s-0.5-1.6-1.8-2.2c-1.4-0.6-3.1-0.8-3.1-0.8s2.3,0.2,5.5-0.9C16.8,30.5,20,27.4,20,27.4z
			"/>
		<path fill-rule="evenodd" clip-rule="evenodd" fill="#231F20" d="M20.3,27.3c0,0-0.3,3.9,0.2,6.5c0.4,2.6,0.7,3.2,0.7,3.2
			l-0.1,0.6c0,0-1.1-4.4-1.1-6.4c0-2,0.1-3.5,0.1-3.5s-3.8,5.4-4.6,7.2c-0.8,1.8-1,2.2-1,2.2l-0.5,0c0,0,1.3-2.9,3.5-5.9
			c2-2.8,2.5-3.7,2.5-3.7L20.3,27.3z"/>
		<path fill-rule="evenodd" clip-rule="evenodd" fill="#010101" d="M6.6,32.5c0,0,3-0.2,4.8,1.1c1.8,1.2,2.5,3.2,2.5,3.2
			s-1.1-2-2.5-2.9C9.9,32.9,6.6,32.5,6.6,32.5z"/>
		<path fill-rule="evenodd" clip-rule="evenodd" fill="#010101" d="M14.6,36.4c0,0,1.7-1.7,3.4-1.4c1.7,0.3,2.1,1.2,2.5,1.8
			c0.3,0.6,0.5,0.9,0.5,0.9s-0.6-2.7-0.8-3.6c-0.2-0.9-0.2-0.9-0.2-0.9s0.1,1.2,0.2,1.9c0.1,0.7,0.3,1.4,0.3,1.4s-0.8-2-3-1.8
			C15.5,35.1,14.6,36.4,14.6,36.4z"/>
		<path fill-rule="evenodd" clip-rule="evenodd" fill="#010101" d="M21.2,37c0,0,0.9-1.7,1.8-1.9c0.9-0.2,1.2,0.3,1.2,0.3
			s0.4-0.9,0.5-1.3c0.2-0.3,0.2-0.3,0.2-0.3s-1-0.4-0.9-0.3c0,0.1,0.1,0.3,0.1,0.3s0-0.1-0.7,0.4C22.6,34.7,21.4,36,21.2,37z"/>
		<path fill-rule="evenodd" clip-rule="evenodd" fill="#595A5C" d="M20,27.4c0,0-2.3,3.5-3.8,5.6c-1.5,2.1-2.3,4-2.3,4
			s0.4-1.6,2.1-4.1C17.7,30.3,20.2,27,20,27.4z"/>
		<path fill-rule="evenodd" clip-rule="evenodd" fill="#595A5C" d="M20.3,27.3c0,0,0.9,2.8,2.1,4.1c1.1,1.3,2.4,2.2,2.4,2.2
			s-1.7-0.8-2.8-2.3C21,29.8,20.3,27.3,20.3,27.3z"/>
		<path fill-rule="evenodd" clip-rule="evenodd" fill="#595A5C" d="M19.9,28.1c0,0-0.1,3.1,0.2,5.6c0.4,2.5,0.4,2.8,0.4,2.8
			s-0.6-2.2-0.8-4.1C19.5,30.5,19.9,28.1,19.9,28.1z"/>
		<path fill-rule="evenodd" clip-rule="evenodd" fill="#231F20" d="M13.7,33.5c0.1,0.4-0.1,0.8-0.4,0.9c-0.3,0.1-0.7-0.1-0.8-0.5
			c-0.1-0.4,0.1-0.8,0.4-0.9C13.2,32.9,13.6,33.1,13.7,33.5z"/>
		<path fill-rule="evenodd" clip-rule="evenodd" fill="#231F20" d="M13,32.1c0.1,0.2,0,0.5-0.2,0.5c-0.2,0.1-0.4-0.1-0.5-0.3
			c-0.1-0.2,0-0.5,0.2-0.5C12.7,31.8,12.9,31.9,13,32.1z"/>
		<circle fill-rule="evenodd" clip-rule="evenodd" fill="#231F20" cx="13.6" cy="32.5" r="0.2"/>
		<path fill-rule="evenodd" clip-rule="evenodd" fill="#231F20" d="M15.4,32c0.1,0.2-0.1,0.5-0.3,0.5c-0.2,0.1-0.5,0-0.5-0.3
			c-0.1-0.2,0.1-0.5,0.3-0.5C15.1,31.7,15.4,31.8,15.4,32z"/>
		<path fill-rule="evenodd" clip-rule="evenodd" fill="#231F20" d="M19,33.5c0.1,0.3-0.1,0.6-0.3,0.7c-0.3,0.1-0.6-0.1-0.7-0.4
			c-0.1-0.3,0.1-0.6,0.3-0.7C18.5,33,18.9,33.2,19,33.5z"/>
		<path fill-rule="evenodd" clip-rule="evenodd" fill="#231F20" d="M18.8,32.5c0,0.1,0,0.2-0.1,0.3c-0.1,0-0.2,0-0.3-0.1
			c0-0.1,0-0.2,0.1-0.3C18.7,32.3,18.8,32.3,18.8,32.5z"/>
		<path fill-rule="evenodd" clip-rule="evenodd" fill="#231F20" d="M18.8,31.6c0,0.1,0,0.2-0.1,0.2c-0.1,0-0.2,0-0.2-0.1
			c0-0.1,0-0.2,0.1-0.2C18.7,31.4,18.8,31.5,18.8,31.6z"/>
		<path fill-rule="evenodd" clip-rule="evenodd" fill="#231F20" d="M17.7,33.4c0,0.2-0.1,0.3-0.2,0.4c-0.2,0.1-0.4,0-0.4-0.2
			c0-0.2,0.1-0.3,0.2-0.4C17.4,33.2,17.6,33.3,17.7,33.4z"/>
		<path fill-rule="evenodd" clip-rule="evenodd" fill="#231F20" d="M17.3,34.5c0,0.1-0.1,0.3-0.2,0.3c-0.2,0.1-0.3,0-0.4-0.1
			c0-0.1,0.1-0.3,0.2-0.3C17.1,34.3,17.3,34.4,17.3,34.5z"/>
		<path fill-rule="evenodd" clip-rule="evenodd" fill="#231F20" d="M22,32.8c0.1,0.2-0.1,0.4-0.2,0.4c-0.2,0.1-0.4,0-0.4-0.2
			c-0.1-0.2,0.1-0.4,0.2-0.4C21.8,32.5,22,32.6,22,32.8z"/>
		<circle fill-rule="evenodd" clip-rule="evenodd" fill="#231F20" cx="21.2" cy="31.6" r="0.2"/>
		
			<ellipse transform="matrix(0.9494 -0.3139 0.3139 0.9494 -8.4305 8.0695)" fill-rule="evenodd" clip-rule="evenodd" fill="#231F20" cx="20.8" cy="30.2" rx="0.1" ry="0.1"/>
		<path fill-rule="evenodd" clip-rule="evenodd" fill="#231F20" d="M21.4,34.3c0,0.1,0,0.2-0.1,0.3c-0.1,0-0.2,0-0.3-0.2
			c0-0.1,0-0.2,0.1-0.3C21.3,34.1,21.4,34.2,21.4,34.3z"/>
		<path fill-rule="evenodd" clip-rule="evenodd" fill="#231F20" d="M11.5,32.6c0,0.1,0,0.2-0.2,0.3c-0.1,0-0.3,0-0.3-0.1
			c0-0.1,0-0.2,0.2-0.3C11.3,32.5,11.5,32.5,11.5,32.6z"/>
		
			<ellipse transform="matrix(0.9491 -0.3151 0.3151 0.9491 -8.9507 6.6649)" fill-rule="evenodd" clip-rule="evenodd" fill="#231F20" cx="16.1" cy="31" rx="0.2" ry="0.2"/>
		<path fill-rule="evenodd" clip-rule="evenodd" fill="#010101" d="M5.7,32.1c0,0,1.2,0.5,5.1-0.4c3.9-1,5.6-1.9,7.2-3.1
			c1.6-1.2,2-1.9,2.1-2.1c0.1-0.2,0.1-0.2,0.1-0.2s-1.9,2.5-5.7,3.9C9.9,31.9,5.7,32.1,5.7,32.1z"/>
		<path fill-rule="evenodd" clip-rule="evenodd" fill="#595A5C" d="M8.4,32.6c0,0,2.6,0.2,3.8,1.6c1.2,1.4,1.3,1.8,1.3,1.8
			s-0.9-2.3-2.7-3C9.1,32.4,8.4,32.6,8.4,32.6z"/>
		<path fill-rule="evenodd" clip-rule="evenodd" fill="#595A5C" d="M15.2,35.8c0,0,1.5-1.3,3.1-1c1.6,0.3,1.8,1.1,1.8,1.1
			s-0.5-1.2-2.3-1.2C16.1,34.8,15.2,35.8,15.2,35.8z"/>
		<path fill-rule="evenodd" clip-rule="evenodd" fill="#595A5C" d="M12.5,33c0,0,0.6,0.6,0.9,1.8c0.3,1.2,0.5,2.3,0.5,2.3
			s0.2-0.9,1.7-3.2c1.5-2.4,2.1-3.3,2.1-3.3l-2,2.2l-0.6-0.2c0,0,0.1,0.5,0.1,0.9c0,0.4,0,0.4-0.4-0.2c-0.3-0.6-0.9-0.9-0.9-0.9
			s0.4,0.6,0.4,1.5c0.1,0.9-0.3,1.8-0.3,1.8S13.9,33.9,12.5,33z"/>
		<path fill-rule="evenodd" clip-rule="evenodd" fill="#595A5C" d="M16.8,34.3c0,0,1.7-0.1,2.5,0.5c0.8,0.6,1.3,1.7,1.3,1.7
			s-0.9-3.5-0.8-4.9s0-1.7,0-1.7l-0.3,2.6c0,0,0,0.4,0.1,0.6c0.1,0.1,0.1,0.4,0.1,0.4S19.3,33.1,19,33c-0.3-0.1-0.5-0.1-0.5-0.1
			s0.7,0.3,1,0.9c0.4,0.6,0.4,0.7,0.4,0.7S19.5,33.6,16.8,34.3z"/>
		<path fill-rule="evenodd" clip-rule="evenodd" fill="#595A5C" d="M21.5,30.5c0,0,0.7,1.4,0.8,2c0.1,0.6,0.2,0.9,0.2,0.9l0.4-0.6
			c0,0,0.3-0.1,0.3,0.2c0,0.3-0.2,1.3-0.2,1.3s0.3-0.4,0.6-0.7c0.3-0.4,0.3-0.4,0.3-0.4s-0.8-0.6-1.3-1.1
			C22.2,31.5,21.5,30.5,21.5,30.5z"/>
	</g>
	<g>
		<path fill-rule="evenodd" clip-rule="evenodd" fill="#010101" d="M70.6,12.9c0,0-2.5,2-6.3,3c-3.8,1-6.9,0.2-6.9,0.2
			s0.5,1.1,0.6,2.6c0.1,1.6,0.3,2.9,0,4c-0.3,1.1-0.5,1.8-0.5,1.8l1.7,1c0,0,0.3-1.1,1.5-0.9c1.2,0.2,2,0.9,2,0.9s-0.5-1.5,0.4-3.3
			c0.9-1.8,4.4-1.2,4.4-1.2s-0.3-3.3,0.7-5.1C69.2,14,70.6,12.9,70.6,12.9z"/>
		<path fill-rule="evenodd" clip-rule="evenodd" fill="#231F20" d="M57.4,24.1c0.2-0.3,0.5-2.2,0.6-3.1c0.1-1.7-0.2-3.5-0.9-5
			c-0.1-0.2,0.1-0.5,0.3-0.4c1,0.7,2.1,0.6,3.2,0.5c1.4-0.1,2.8-0.3,4.1-0.6c1.3-0.4,2.6-1,3.8-1.7c0.7-0.4,1.6-0.7,2.3-1.3
			c0.1-0.1,0.2-0.2,0.3-0.4c0.2-0.3,0.6,0.1,0.4,0.4c-0.1,0.2-0.2,0.3-0.3,0.4c-0.8,1-1.7,1.8-2.3,3c-0.9,1.6-0.9,3.4-0.7,5.3
			c0,0.2-0.2,0.4-0.4,0.3c-1.2-0.8-2.7-0.6-3.7,0.1c-1.2,0.8-0.9,3-0.7,4.3c0,0.3-0.3,0.4-0.5,0.2c-0.6-0.8-2.4-2.2-3-0.8
			c-0.1,0.3-0.6,0.1-0.4-0.3c0.6-1.4,2.1-0.9,3.1-0.1c-0.1-0.2-0.1-0.4-0.2-0.7c-0.3-1-0.8-2-1.2-2.9c-0.8-1.6-1.8-3-2.7-4.5
			c-0.1-0.1-0.3-0.1-0.4-0.2c0.5,1.5,0.6,2.9,0.6,4.5c0,1,0.2,2.7-0.8,3.2C57.4,24.6,57.3,24.3,57.4,24.1z M69.4,14
			c-0.2,0.1-0.5,0.2-0.7,0.4c-1.2,0.7-2.5,1.3-3.9,1.7c-1.4,0.4-2.8,0.6-4.2,0.7c-0.5,0-1,0.1-1.5,0c1.6,0.7,3.3,1.4,4.9,1.9
			c1.1,0.3,2.6,0.8,3.5,1.7c-0.1-1.4,0-2.6,0.5-4C68.3,15.4,68.8,14.7,69.4,14z M61.1,20.9c0.4,0.8,0.8,1.7,1.1,2.5
			c0.1,0.3,0.2,0.5,0.3,0.8c0-1.2,0.1-2.3,0.9-3c1-0.8,2.3-1.1,3.5-0.7c-1.1-0.9-2.4-1.3-3.8-1.7c-0.9-0.2-1.8-0.7-2.6-1
			c-0.6-0.3-1.2-0.5-1.8-0.7C59.7,18.3,60.4,19.7,61.1,20.9z"/>
		
			<linearGradient id="SVGID_4_" gradientUnits="userSpaceOnUse" x1="-128.0858" y1="42.4086" x2="-125.4777" y2="42.4086" gradientTransform="matrix(-0.8725 0.2807 0.3063 0.9519 -62.5765 16.3766)">
			<stop  offset="0" style="stop-color:#231F20"/>
			<stop  offset="0.1255" style="stop-color:#262223"/>
			<stop  offset="0.2794" style="stop-color:#2D2A2B"/>
			<stop  offset="0.4482" style="stop-color:#383637"/>
			<stop  offset="0.6262" style="stop-color:#474648"/>
			<stop  offset="0.7925" style="stop-color:#595A5C"/>
		</linearGradient>
		<path fill-rule="evenodd" clip-rule="evenodd" fill="url(#SVGID_4_)" d="M58.4,17c0,0,1.5,1.8,2.5,4c1.1,2.2,1.9,4.5,1.9,4.5
			s0.1-3.6-1.1-5.5C60.6,18.1,58.6,17,58.4,17z"/>
		
			<linearGradient id="SVGID_5_" gradientUnits="userSpaceOnUse" x1="-136.4348" y1="40.7093" x2="-125.3953" y2="40.7093" gradientTransform="matrix(-0.8725 0.2807 0.3063 0.9519 -62.5765 16.3766)">
			<stop  offset="0" style="stop-color:#231F20"/>
			<stop  offset="0.1255" style="stop-color:#262223"/>
			<stop  offset="0.2794" style="stop-color:#2D2A2B"/>
			<stop  offset="0.4482" style="stop-color:#383637"/>
			<stop  offset="0.6262" style="stop-color:#474648"/>
			<stop  offset="0.7925" style="stop-color:#595A5C"/>
		</linearGradient>
		<path fill-rule="evenodd" clip-rule="evenodd" fill="url(#SVGID_5_)" d="M58.2,16.5c0,0,2.8,1.3,5.4,2.2c2.6,0.9,4.1,2.3,4.1,2.3
			s-0.4-1.6-0.1-3.2c0.3-1.5,0.8-2.5,0.8-2.5s-0.9,1.2-1.1,2c-0.2,0.8-0.2,0.8-0.2,0.8s-3.5-0.2-6.1-0.9
			C58.3,16.4,58.1,16.5,58.2,16.5z"/>
		
			<linearGradient id="SVGID_6_" gradientUnits="userSpaceOnUse" x1="-126.7039" y1="41.6814" x2="-122.3918" y2="41.6814" gradientTransform="matrix(-0.8725 0.2807 0.3063 0.9519 -62.5765 16.3766)">
			<stop  offset="0" style="stop-color:#231F20"/>
			<stop  offset="0.1255" style="stop-color:#262223"/>
			<stop  offset="0.2794" style="stop-color:#2D2A2B"/>
			<stop  offset="0.4482" style="stop-color:#383637"/>
			<stop  offset="0.6262" style="stop-color:#474648"/>
			<stop  offset="0.7925" style="stop-color:#595A5C"/>
		</linearGradient>
		<path fill-rule="evenodd" clip-rule="evenodd" fill="url(#SVGID_6_)" d="M57.7,16.6c0,0,0.8,2.3,0.7,4.5c-0.1,2.3-0.6,3.2-0.6,3.2
			l1.4,0.9c0,0,0.1-1.2,1.3-1c1.2,0.2,1.6,0.6,1.6,0.6s-0.9-0.5-1.8-0.8c-0.9-0.3-1.6-1.1-1.6-1.1l1.9,0.8c0,0-1-1.1-1.6-2.7
			C58.5,19.5,58.4,17.8,57.7,16.6z"/>
		<path fill-rule="evenodd" clip-rule="evenodd" fill="#2C2D2E" d="M57.9,16.8c0,0,1.1,1.1,2.1,2.8c1,1.8,2,3.9,2.2,4.7
			c0.2,0.7,0.2,0.7,0.2,0.7s-1.6-3.3-2.8-5.5C58.4,17.4,57.9,16.8,57.9,16.8z"/>
		<path fill-rule="evenodd" clip-rule="evenodd" fill="#2C2D2E" d="M58.1,16.7c0,0,3.7,1.6,6,2.5c2.3,0.9,3,1.5,3,1.5
			s-4.3-1.4-6.2-2.3C59.1,17.6,58.1,16.7,58.1,16.7z"/>
		<path fill-rule="evenodd" clip-rule="evenodd" fill="#2C2D2E" d="M58.2,16.5c0,0,3.3,0.4,6.4-0.6c3.2-1,6-3.1,6-3.1
			s-1.2,1.4-2.2,2.8c-1,1.4-0.9,3.5-0.9,3.5s-0.5-1.5,0.2-2.9c0.7-1.3,1.8-2.5,1.8-2.5s-1.6,1.6-4.5,2.5
			C62.1,17.2,58.2,16.5,58.2,16.5z"/>
		<path fill-rule="evenodd" clip-rule="evenodd" fill="#231F20" d="M57.7,16.6c0,0,2.3,3,3.4,5.4c1.1,2.4,1.2,3,1.2,3l0.4,0.4
			c0,0-1.6-4.2-2.7-5.9c-1.1-1.7-1.9-2.9-1.9-2.9s5.7,2.2,7.3,3.3c1.6,1.1,2,1.2,2,1.2l0.4-0.3c0,0-2.5-1.6-5.8-2.8
			c-3-1.1-3.9-1.6-3.9-1.6L57.7,16.6z"/>
		<path fill-rule="evenodd" clip-rule="evenodd" fill="#010101" d="M70.7,12.9c0,0-2.3,1.6-3,3.7c-0.7,2.1-0.1,4-0.1,4
			s-0.2-2.3,0.3-3.9C68.4,15.2,70.7,12.9,70.7,12.9z"/>
		<path fill-rule="evenodd" clip-rule="evenodd" fill="#010101" d="M66.9,20.8c0,0-2.2-0.4-3.3,0.8c-1.1,1.2-0.9,2.2-0.8,2.9
			c0.1,0.7,0.1,1.1,0.1,1.1s-1-2.6-1.4-3.4c-0.4-0.8-0.4-0.8-0.4-0.8s0.6,1,0.9,1.7c0.3,0.6,0.5,1.4,0.5,1.4s-0.5-2.1,1.2-3.1
			C65.5,20.2,66.9,20.8,66.9,20.8z"/>
		<path fill-rule="evenodd" clip-rule="evenodd" fill="#010101" d="M62.3,25c0,0-1.6-0.9-2.3-0.5c-0.7,0.3-0.7,0.9-0.7,0.9
			s-0.8-0.6-1.1-0.7C58,24.5,58,24.5,58,24.5s0.5-0.9,0.5-0.8c0,0.1,0.1,0.3,0.1,0.3S58.5,24,59.3,24C60,24,61.6,24.4,62.3,25z"/>
		<path fill-rule="evenodd" clip-rule="evenodd" fill="#7A7B7D" d="M58,16.5c0,0,3.6,1.5,5.8,2.4c2.2,0.8,3.8,2,3.8,2
			s-1.2-1.1-3.8-2.2C61.3,17.5,57.7,16.3,58,16.5z"/>
		<path fill-rule="evenodd" clip-rule="evenodd" fill="#595A5C" d="M57.7,16.6c0,0,0.8,2.8,0.7,4.5c-0.1,1.7-0.6,3.2-0.6,3.2
			s0.9-1.6,0.8-3.5C58.6,19,57.7,16.6,57.7,16.6z"/>
		<path fill-rule="evenodd" clip-rule="evenodd" fill="#595A5C" d="M58.4,17c0,0,1.8,2.5,2.9,4.7c1.1,2.2,1.2,2.5,1.2,2.5
			s-0.8-2.2-1.6-3.8C60.1,18.8,58.4,17,58.4,17z"/>
		<path fill-rule="evenodd" clip-rule="evenodd" fill="#231F20" d="M65.9,17.9c0.1,0.4,0.5,0.6,0.8,0.5c0.3-0.1,0.5-0.5,0.3-0.9
			c-0.1-0.4-0.5-0.6-0.8-0.5C66,17.1,65.8,17.5,65.9,17.9z"/>
		<path fill-rule="evenodd" clip-rule="evenodd" fill="#231F20" d="M65.7,16.4c0.1,0.2,0.3,0.4,0.5,0.3c0.2-0.1,0.3-0.3,0.2-0.5
			c-0.1-0.2-0.3-0.4-0.5-0.3C65.8,15.9,65.7,16.1,65.7,16.4z"/>
		<path fill-rule="evenodd" clip-rule="evenodd" fill="#231F20" d="M65.4,17c0,0.1,0.1,0.2,0.2,0.1c0.1,0,0.1-0.1,0.1-0.2
			c0-0.1-0.1-0.2-0.2-0.1C65.4,16.8,65.3,16.9,65.4,17z"/>
		<path fill-rule="evenodd" clip-rule="evenodd" fill="#231F20" d="M63.9,17.7c0.1,0.2,0.3,0.3,0.5,0.3c0.2-0.1,0.3-0.3,0.3-0.5
			c-0.1-0.2-0.3-0.3-0.5-0.3C63.9,17.2,63.8,17.4,63.9,17.7z"/>
		<path fill-rule="evenodd" clip-rule="evenodd" fill="#231F20" d="M62.1,20.9c0.1,0.3,0.4,0.5,0.6,0.4c0.3-0.1,0.4-0.4,0.3-0.7
			c-0.1-0.3-0.4-0.5-0.6-0.4C62.2,20.3,62,20.6,62.1,20.9z"/>
		<path fill-rule="evenodd" clip-rule="evenodd" fill="#231F20" d="M61.6,20c0,0.1,0.1,0.2,0.2,0.1c0.1,0,0.2-0.1,0.1-0.3
			c0-0.1-0.1-0.2-0.2-0.1C61.6,19.7,61.6,19.9,61.6,20z"/>
		
			<ellipse transform="matrix(-0.9494 0.3141 -0.3141 -0.9494 125.5556 18.1582)" fill-rule="evenodd" clip-rule="evenodd" fill="#231F20" cx="61.3" cy="19.2" rx="0.2" ry="0.2"/>
		<path fill-rule="evenodd" clip-rule="evenodd" fill="#231F20" d="M63,20.1c0,0.2,0.2,0.2,0.4,0.2c0.2-0.1,0.2-0.2,0.2-0.4
			c0-0.2-0.2-0.2-0.4-0.2C63,19.8,63,19.9,63,20.1z"/>
		<path fill-rule="evenodd" clip-rule="evenodd" fill="#231F20" d="M63.9,20.8c0,0.1,0.2,0.2,0.4,0.1c0.2-0.1,0.2-0.2,0.2-0.3
			c0-0.1-0.2-0.2-0.4-0.1C63.9,20.5,63.8,20.7,63.9,20.8z"/>
		<path fill-rule="evenodd" clip-rule="evenodd" fill="#231F20" d="M59.5,22.1c0.1,0.2,0.2,0.3,0.4,0.2c0.2-0.1,0.3-0.2,0.2-0.4
			c-0.1-0.2-0.2-0.3-0.4-0.2C59.5,21.7,59.4,21.9,59.5,22.1z"/>
		<path fill-rule="evenodd" clip-rule="evenodd" fill="#231F20" d="M59.2,20.7c0,0.1,0.1,0.2,0.2,0.1c0.1,0,0.1-0.1,0.1-0.2
			c0-0.1-0.1-0.2-0.2-0.1C59.2,20.5,59.2,20.6,59.2,20.7z"/>
		
			<ellipse transform="matrix(-0.9487 0.3161 -0.3161 -0.9487 120.9469 18.9557)" fill-rule="evenodd" clip-rule="evenodd" fill="#231F20" cx="58.9" cy="19.3" rx="0.1" ry="0.1"/>
		<path fill-rule="evenodd" clip-rule="evenodd" fill="#231F20" d="M60.7,23c0,0.1,0.1,0.2,0.2,0.2c0.1,0,0.1-0.2,0.1-0.3
			c0-0.1-0.1-0.2-0.2-0.2C60.7,22.8,60.7,22.9,60.7,23z"/>
		<path fill-rule="evenodd" clip-rule="evenodd" fill="#231F20" d="M67.1,15.9c0,0.1,0.2,0.2,0.3,0.1c0.1,0,0.2-0.2,0.1-0.3
			c0-0.1-0.2-0.2-0.3-0.1C67.2,15.7,67.1,15.8,67.1,15.9z"/>
		
			<ellipse transform="matrix(-0.9491 0.3151 -0.3151 -0.9491 127.8991 13.7941)" fill-rule="evenodd" clip-rule="evenodd" fill="#231F20" cx="62.8" cy="17.2" rx="0.1" ry="0.2"/>
		<path fill-rule="evenodd" clip-rule="evenodd" fill="#010101" d="M71.1,12.1c0,0-0.6,1.1-4,2.6c-3.4,1.4-5.1,1.7-7,1.6
			c-1.8,0-2.5-0.4-2.7-0.5c-0.2-0.1-0.2-0.1-0.2-0.1s2.7,0.9,6.3-0.1C67.9,14.4,71.1,12.1,71.1,12.1z"/>
		<path fill-rule="evenodd" clip-rule="evenodd" fill="#595A5C" d="M69.4,14c0,0-1.8,1.7-1.9,3.6c-0.1,1.9,0,2.3,0,2.3
			s-0.6-2.4,0.4-4C68.8,14.3,69.4,14,69.4,14z"/>
		<path fill-rule="evenodd" clip-rule="evenodd" fill="#595A5C" d="M66.1,20.7c0,0-1.8-0.2-2.8,1c-1,1.2-0.7,1.9-0.7,1.9
			s-0.3-1.3,1.1-2.3C64.9,20.3,66.1,20.7,66.1,20.7z"/>
		<path fill-rule="evenodd" clip-rule="evenodd" fill="#7A7B7D" d="M66.6,16.8c0,0-0.2,0.8,0.3,2c0.4,1.2,0.9,2.2,0.9,2.2
			s-0.6-0.6-3-1.7c-2.4-1.1-3.3-1.5-3.3-1.5l2.6,0.6l0.3-0.5c0,0,0.2,0.4,0.4,0.7C65,19,65,19,65,18.3c-0.1-0.7,0.2-1.3,0.2-1.3
			s0.1,0.7,0.5,1.5c0.4,0.7,1.2,1.3,1.2,1.3S66.1,18.3,66.6,16.8z"/>
		<path fill-rule="evenodd" clip-rule="evenodd" fill="#595A5C" d="M64.1,20.3c0,0-1.3,0.9-1.6,1.8c-0.3,0.9,0,2.1,0,2.1
			s-1.3-3.4-2.1-4.5c-0.8-1.1-0.9-1.4-0.9-1.4l1.6,1.9c0,0,0.2,0.4,0.2,0.5c0,0.2,0.1,0.4,0.1,0.4s0.1-0.4,0.3-0.7
			c0.2-0.2,0.3-0.4,0.3-0.4s-0.3,0.6-0.3,1.3c0.1,0.7,0.1,0.8,0.1,0.8S61.7,21.3,64.1,20.3z"/>
		<path fill-rule="evenodd" clip-rule="evenodd" fill="#595A5C" d="M58.6,19.9c0,0,0.3,1.5,0.5,2.1c0.2,0.5,0.3,0.8,0.3,0.8
			l-0.6-0.3c0,0-0.3,0.1-0.1,0.3c0.2,0.2,0.9,0.9,0.9,0.9s-0.4-0.1-0.8-0.2c-0.4-0.1-0.4-0.1-0.4-0.1s0.3-1,0.3-1.7
			C58.6,21.1,58.6,19.9,58.6,19.9z"/>
	</g>
	
		<linearGradient id="SVGID_7_" gradientUnits="userSpaceOnUse" x1="141.9839" y1="81.5825" x2="159.8807" y2="81.5825" gradientTransform="matrix(0.9519 -0.3063 0.3063 0.9519 -99.5534 28.2815)">
		<stop  offset="0" style="stop-color:#F0E23C"/>
		<stop  offset="0.1155" style="stop-color:#F0DE3B"/>
		<stop  offset="0.2572" style="stop-color:#EED437"/>
		<stop  offset="0.4126" style="stop-color:#ECC332"/>
		<stop  offset="0.5777" style="stop-color:#E9AA2C"/>
		<stop  offset="0.7488" style="stop-color:#E68C26"/>
		<stop  offset="0.7925" style="stop-color:#E58425"/>
	</linearGradient>
	<path fill-rule="evenodd" clip-rule="evenodd" fill="url(#SVGID_7_)" d="M70.5,55.5c0,0,0.6,1.8,2.8,3.1c2.2,1.3,2.9,1.4,2.9,1.4
		s-2.6,0.2-3.6,0.5c-1,0.3-3.2,1.7-3.2,1.7s-0.4-0.7-0.5-1.7c-0.1-1.1-0.1-1.1-0.1-1.1s-2.8-1.1-4.4-0.9c-1.5,0.2-2.4,0.8-2.1,2.3
		c0.3,1.6,1.5,2.3,4.2,3.2c2.8,1,4.3,0.6,4.3,0.6l0.4-1.1c0,0,1,1.1,1.6,2.3c0.6,1.2,0.5,2.4,0.5,2.4s-3.2-2.2-4.6-2.4
		c-1.4-0.2-6-1.1-7-1.9c-1-0.9-1.8-2.3-1.9-4.8c-0.1-2.4,0.6-5.5,1.9-6.6c1.2-1.1,4.2-1.5,5.7-1.1c1.4,0.3,4,1.1,5.6,0.9
		c1.6-0.2,2.9-0.9,2.9-0.9s-0.2,0.8-1.2,2c-0.9,1.1-2.2,1.8-2.2,1.8l-0.3-1.3c0,0-4-1.3-5.9-1c-1.8,0.3-3.4,1.6-3.4,2.7
		c0,1.1,1,1.5,2.2,1.9C66.3,57.9,69,58,69,58s0.6-1.5,0.8-1.9C70.1,55.8,70.5,55.5,70.5,55.5z"/>
	
		<linearGradient id="SVGID_8_" gradientUnits="userSpaceOnUse" x1="109.4731" y1="67.2661" x2="142.7376" y2="67.2661" gradientTransform="matrix(0.9519 -0.3063 0.3063 0.9519 -99.5534 28.2815)">
		<stop  offset="0" style="stop-color:#F0E23C"/>
		<stop  offset="0.1155" style="stop-color:#F0DE3B"/>
		<stop  offset="0.2572" style="stop-color:#EED437"/>
		<stop  offset="0.4126" style="stop-color:#ECC332"/>
		<stop  offset="0.5777" style="stop-color:#E9AA2C"/>
		<stop  offset="0.7488" style="stop-color:#E68C26"/>
		<stop  offset="0.7925" style="stop-color:#E58425"/>
	</linearGradient>
	<path fill-rule="evenodd" clip-rule="evenodd" fill="url(#SVGID_8_)" d="M22.9,49l-0.4,1.3c0,0,12,4.1,16.8,5.1
		c4.7,1,15.7,2.5,17.3,2.6c1.6,0.1,3.1,0.3,3.1,0.3l0-1.1c0,0-14.6-2-17.7-2.7C38.8,53.8,22.9,49,22.9,49z"/>
	
		<radialGradient id="SVGID_9_" cx="137.791" cy="46.4437" r="19.3976" gradientTransform="matrix(0.933 -0.3101 0.3051 0.9793 -98.9394 34.1283)" gradientUnits="userSpaceOnUse">
		<stop  offset="0" style="stop-color:#EF4137"/>
		<stop  offset="0.1336" style="stop-color:#E53E35"/>
		<stop  offset="0.2975" style="stop-color:#D23730"/>
		<stop  offset="0.4771" style="stop-color:#B52C28"/>
		<stop  offset="0.6668" style="stop-color:#911D1D"/>
		<stop  offset="0.7925" style="stop-color:#771213"/>
		<stop  offset="0.9719" style="stop-color:#EB2227"/>
	</radialGradient>
	<path fill="url(#SVGID_9_)" d="M33.8,22.7c0,0-10.7,6.4-10.3,14.7c0.4,8.3,3,9,3,9s2.6-1.7,4.6,0c2,1.7,1.8,3.4,3.2,3.7
		c1.5,0.2,1.9,0.4,2.1,1.2c0.2,0.8-0.1,1.2-0.1,1.2s-0.1,0.4,1,0.6c1.1,0.3,6.8,1.5,6.8,1.5s0.6-0.9,1.4-0.9c0.8,0,1.7,0.9,1.7,0.9
		s0.8-1.5,1.6-1.4c0.8,0.1,1.4,0.9,1.4,0.9s2.9-2,3.5-1.8c0.6,0.1,0.6,0.1,0.6,0.1s6.8-4.2,8.3-9c1.6-4.9,1.9-11.1-0.3-15.5
		c-2.2-4.4-6.9-7.2-11-8.2c-4.1-1-7.2-0.9-7.8-0.8C42.7,19,42.7,19,42.7,19s-0.5-0.7-1.3-0.6c-0.9,0.1-1.2,1-1.2,1s-1.4,0.6-2.2,0.9
		C37.1,20.6,33.8,22.7,33.8,22.7z"/>
	<path fill="#9F1D20" d="M34.7,50.1c0,0,2-0.2,3,1.1c1,1.3,2.7,1.8,4.2,2.2c1.5,0.5,2.5,0.6,2.5,0.6l-0.6,1.2l-7.8-2.3
		c0,0,0.9-1.3,0-1.9C35.2,50.4,34.7,50.1,34.7,50.1z"/>
	<path fill-rule="evenodd" clip-rule="evenodd" fill="#231F20" d="M25.4,46.1c-1.3,1.3-2.9,2.1-4.5,2.7c-0.8,0.3-1.7,0.4-2.6,0.4
		c-0.6,0-1.3-0.3-1.9-0.2c-0.1,0-0.1,0.2,0,0.2c0.7,0.1,1.3,0.4,1.9,0.5c0.2,0,0.3,0,0.5,0c-0.1,0.9,0.2,2.2,0.7,3
		c-1.3-0.2-2.6-1-3.7-2c-0.7-0.6-1.5-1.4-2.3-1.8c1.2-0.4,2.3-1.1,3.4-1.9c0.7-0.5,1.5-1.1,2.1-1.9c0,0.9-0.1,1.7-0.6,2.4
		c-0.1,0.1-0.1,0.3,0.1,0.4c0.5,0.3,0.9,0.1,1.4-0.1c0.8-0.4,1.6-0.8,2.4-1.4c0.8-0.6,2.4-1.9,2.1-3.3c0-0.1-0.2-0.1-0.2,0
		c0.1,1.2-1.4,2.3-2.1,2.9c-0.6,0.5-1.3,0.8-2,1.1c-0.4,0.1-0.7,0.4-1.1,0.3c0.5-1,0.5-2,0.5-3.2c0-0.2-0.3-0.3-0.4-0.1
		c-0.6,1.1-1.6,1.8-2.5,2.5c-1.1,0.8-2.3,1.5-3.6,1.9c-0.2,0.1-0.2,0.4,0,0.5c0.8,0.2,1.4,1,2.1,1.5c0.6,0.5,1.1,1,1.7,1.4
		c1,0.7,2.1,1.2,3.2,1.2c0.1,0,0.3-0.2,0.2-0.4c-0.5-0.6-0.9-2.4-0.9-3.2c0.6-0.1,1.2-0.2,1.8-0.4c1.7-0.5,3.4-1.5,4.7-2.8
		C26,46.3,25.6,45.9,25.4,46.1z"/>
	<path fill-rule="evenodd" clip-rule="evenodd" fill="#231F20" d="M17,48.2c-0.2,0-0.3,0-0.5,0c-0.2,0-0.3,0.1-0.5,0.2
		c-0.1,0,0,0.2,0,0.2c0.3,0,0.7,0,1-0.2C17.1,48.3,17,48.2,17,48.2z"/>
	
		<radialGradient id="SVGID_10_" cx="118.7621" cy="62.6372" r="12.9063" gradientTransform="matrix(1.1485 -0.3817 0.3453 1.1082 -117.8891 -1.4488)" gradientUnits="userSpaceOnUse">
		<stop  offset="0" style="stop-color:#FFFFFF"/>
		<stop  offset="0.1044" style="stop-color:#FFF8F5"/>
		<stop  offset="0.2325" style="stop-color:#FEEBE3"/>
		<stop  offset="0.373" style="stop-color:#FDD7C9"/>
		<stop  offset="0.5224" style="stop-color:#FABBA7"/>
		<stop  offset="0.6789" style="stop-color:#F7997F"/>
		<stop  offset="0.8388" style="stop-color:#F37158"/>
		<stop  offset="0.9719" style="stop-color:#EF4137"/>
	</radialGradient>
	<path fill="url(#SVGID_10_)" d="M53.1,20.2c3.1,1.3,5.7,3.2,6.6,6.2C61.9,33,56,40.9,46.8,44c-9.3,3.1-18.4,0.2-20.5-6.5
		c-2.1-6.7,3.7-14.6,13-17.6C44.4,18.1,49.2,18.6,53.1,20.2z"/>
	<path fill="#EB2227" d="M45.2,22.3c0,0-0.1,0.7,0.6,1c0.7,0.4,0.9,0,0.9,0s2.2,0.5,4.2-0.5c0,0,0.4-0.4,1-0.3
		c0.6,0.1,0.7,0.3,0.7,0.3s-0.7-0.1-1.1,0.6c-0.4,0.6-0.5,1.2-0.5,1.2s0.9,0.5,1.6,1.5c0.7,1,1,2.4,1,2.4s-0.8-2.1-2.2-3.1
		c-1.4-1-2.9-1.4-4.7-0.6c-1.7,0.8-2.1,1.8-2.3,2.3c-0.1,0.5-0.3,0.7-0.3,0.7s-0.8-1.1-1.9-1.8c-1.1-0.7-1.5-0.7-1.5-0.7l0.8-0.8
		c0,0,0.9,0.5,2-0.2C44.8,23.7,45.2,22.3,45.2,22.3z"/>
	<path fill="#EB2227" d="M32.7,34.4c0,0,1.8,1.3,3.3,3.6c1.5,2.3,4.6,3.6,7.4,2.3c2.8-1.4,2.9-3.4,3.2-3.4c0.3,0,1.1,1.2,1.3,1.9
		c0.2,0.8,0.2,0.8,0.2,0.8L48,37.2c0,0,1.7,0.9,4.2-0.4c2.5-1.3,1.7-3.4,1.7-3.4l-0.4,0.4c0,0,0.2,2-2.6,2.7c-2.8,0.7-3.5-0.4-3.9-1
		c-0.3-0.5-0.7-0.9-0.7-0.9s-0.7,3.5-3.6,4.4c-2.9,0.9-3.9,0.4-5.9-1.8C34.9,35.2,32.7,34.4,32.7,34.4z"/>
	
		<linearGradient id="SVGID_11_" gradientUnits="userSpaceOnUse" x1="120.5637" y1="60.0102" x2="150.7203" y2="60.0102" gradientTransform="matrix(0.9519 -0.3063 0.3063 0.9519 -99.5534 28.2815)">
		<stop  offset="0" style="stop-color:#726659"/>
		<stop  offset="0.3152" style="stop-color:#FFFFFF"/>
		<stop  offset="0.6501" style="stop-color:#D0D2D3"/>
		<stop  offset="0.6781" style="stop-color:#C3BDB7"/>
		<stop  offset="0.7626" style="stop-color:#A68F7A"/>
		<stop  offset="0.8401" style="stop-color:#907054"/>
		<stop  offset="0.9079" style="stop-color:#815C3B"/>
		<stop  offset="0.9635" style="stop-color:#78512E"/>
		<stop  offset="1" style="stop-color:#754D29"/>
	</linearGradient>
	<path fill-rule="evenodd" clip-rule="evenodd" fill="url(#SVGID_11_)" d="M32.9,44.7c0,0,7.9,1.2,12.1,0.4c4.1-0.8,6.3-2.7,9.2-4.8
		c2.8-2.2,3.9-3.1,3.9-3.1s0.4,2.2,0.4,3.2c-0.1,1-0.3,2-2,2.3c-1.7,0.2-5.7,0.6-7.9,2c-2.2,1.4-5.2,4.5-6.6,5.1
		c-1.4,0.6-4.9,1-6.6-0.6c-1.7-1.6-2.3-3-2.3-3L32.9,44.7z"/>
	<radialGradient id="SVGID_12_" cx="39.979" cy="27.4537" r="9.7906" gradientUnits="userSpaceOnUse">
		<stop  offset="0" style="stop-color:#FFFFFF"/>
		<stop  offset="0.1629" style="stop-color:#F7F7F7"/>
		<stop  offset="0.4209" style="stop-color:#E0E0E2"/>
		<stop  offset="0.7401" style="stop-color:#BBBCBF"/>
		<stop  offset="0.896" style="stop-color:#A6A8AC"/>
	</radialGradient>
	<path fill="url(#SVGID_12_)" d="M36.8,25.4c0,0-3,0.6-3.1,4.2c0,3.7,2.2,6.4,2.2,6.4s2.1-1.7,4.3-2.3c2.2-0.6,3.8-0.8,4.5-0.7
		c0.7,0.1,1.3,0.4,1.3,0.4s-0.2-3.3-1.9-5.6C42.5,25.5,39.2,24.6,36.8,25.4z"/>
	<radialGradient id="SVGID_13_" cx="49.5822" cy="28.0391" r="7.5036" gradientUnits="userSpaceOnUse">
		<stop  offset="0" style="stop-color:#FFFFFF"/>
		<stop  offset="0.1629" style="stop-color:#F7F7F7"/>
		<stop  offset="0.4209" style="stop-color:#E0E0E2"/>
		<stop  offset="0.7401" style="stop-color:#BBBCBF"/>
		<stop  offset="0.896" style="stop-color:#A6A8AC"/>
	</radialGradient>
	<path fill="url(#SVGID_13_)" d="M44.5,27.7c0,0,0.6-3.9,4-3.1c3.4,0.8,4.3,2.6,4.8,4.1c0.5,1.6,0.3,4.1,0.3,4.1s-0.7-0.7-3-0.5
		c-2.3,0.2-4.4,1.4-4.4,1.4l0-0.6c0,0,0-1.5-0.8-3.5C44.6,27.8,44.5,27.7,44.5,27.7z"/>
	<path fill-rule="evenodd" clip-rule="evenodd" fill="#F06724" d="M22.9,49.4c2.2,0.8,11.7,4.2,21.3,5.8c11,1.9,15.6,2.2,15.6,2.2
		l0-0.5c0,0-5.9-0.4-14.6-1.8c-8.6-1.4-22.4-6.2-22.4-6.2C22,49,22,50.5,22,50.5l0.7,0.2c0,0,10.5,4.1,21.6,5.8
		c11,1.7,15.7,1.9,15.7,1.9l0-0.3c0,0-5.8-0.4-14.4-1.7c-8.4-1.3-21.8-5.6-22.6-5.9c-0.1-0.1-0.2-0.3-0.2-0.5
		C22.7,49.7,22.8,49.5,22.9,49.4z"/>
	<g>
		<path fill-rule="evenodd" clip-rule="evenodd" fill="#595A5C" d="M41.2,30.4c0.6,2.1,0,4.1-1.2,4.5c-1.3,0.3-2.8-1.1-3.3-3.3
			c-0.6-2.1,0-4.1,1.2-4.5C39.1,26.8,40.6,28.3,41.2,30.4z"/>
		
			<radialGradient id="SVGID_14_" cx="145.0245" cy="57.4643" r="2.5552" gradientTransform="matrix(0.9483 -0.2578 0.3297 1.2027 -117.5785 -0.6752)" gradientUnits="userSpaceOnUse">
			<stop  offset="0" style="stop-color:#A6A7AA"/>
			<stop  offset="1" style="stop-color:#6E6F71"/>
		</radialGradient>
		<path fill-rule="evenodd" clip-rule="evenodd" fill="url(#SVGID_14_)" d="M40.9,30.5c0.5,1.9,0.1,3.8-1,4.1c-1.1,0.3-2.4-1-3-3
			c-0.5-1.9-0.1-3.8,1-4.1C39,27.2,40.4,28.6,40.9,30.5z"/>
		
			<linearGradient id="SVGID_15_" gradientUnits="userSpaceOnUse" x1="138.8631" y1="34.1538" x2="142.2711" y2="34.1538" gradientTransform="matrix(0.9644 -0.2644 0.2644 0.9644 -105.5727 34.3274)">
			<stop  offset="0" style="stop-color:#D0D2D3"/>
			<stop  offset="1" style="stop-color:#6E6F71"/>
		</linearGradient>
		<path fill-rule="evenodd" clip-rule="evenodd" fill="url(#SVGID_15_)" d="M36.9,28.6c0.1,1.1,0.6,2.7,2,3.6c1.2,0.8,1.9,0.5,2.2,0
			c0-0.5-0.1-1.1-0.2-1.7c-0.5-1.9-1.9-3.3-3-3C37.5,27.6,37.1,28,36.9,28.6z"/>
		
			<ellipse transform="matrix(0.9649 -0.2625 0.2625 0.9649 -6.75 11.2648)" fill-rule="evenodd" clip-rule="evenodd" fill="#010101" cx="38.8" cy="30.9" rx="1.4" ry="2.5"/>
		
			<ellipse transform="matrix(0.9649 -0.2626 0.2626 0.9649 -6.1698 11.1982)" fill-rule="evenodd" clip-rule="evenodd" fill="#FFFFFF" cx="38.8" cy="28.7" rx="0.5" ry="0.8"/>
		
			<ellipse transform="matrix(0.9657 -0.2597 0.2597 0.9657 -7.1909 11.0542)" fill-rule="evenodd" clip-rule="evenodd" fill="#FFFFFF" cx="38.2" cy="32.7" rx="0.2" ry="0.4"/>
	</g>
	<g>
		<path fill-rule="evenodd" clip-rule="evenodd" fill="#595A5C" d="M50.1,30.4c0.5,1.8-0.1,3.5-1.3,3.8c-1.2,0.3-2.5-0.8-3-2.6
			c-0.5-1.8,0.1-3.5,1.3-3.8C48.3,27.4,49.7,28.6,50.1,30.4z"/>
		
			<radialGradient id="SVGID_16_" cx="159.2489" cy="32.3898" r="2.5532" gradientTransform="matrix(0.8984 -0.2515 0.2651 0.9879 -103.6862 39.0404)" gradientUnits="userSpaceOnUse">
			<stop  offset="0" style="stop-color:#A6A7AA"/>
			<stop  offset="1" style="stop-color:#6E6F71"/>
		</radialGradient>
		<path fill-rule="evenodd" clip-rule="evenodd" fill="url(#SVGID_16_)" d="M49.9,30.5c0.4,1.6-0.1,3.1-1.1,3.4
			c-1,0.3-2.2-0.8-2.7-2.4c-0.4-1.6,0.1-3.1,1.1-3.4C48.2,27.8,49.4,28.9,49.9,30.5z"/>
		
			<linearGradient id="SVGID_17_" gradientUnits="userSpaceOnUse" x1="147.7004" y1="36.638" x2="150.9272" y2="36.638" gradientTransform="matrix(0.9644 -0.2644 0.2644 0.9644 -105.5727 34.3274)">
			<stop  offset="0" style="stop-color:#D0D2D3"/>
			<stop  offset="1" style="stop-color:#6E6F71"/>
		</linearGradient>
		<path fill-rule="evenodd" clip-rule="evenodd" fill="url(#SVGID_17_)" d="M46.2,29c0.1,0.9,0.4,2.2,1.7,2.9
			c1.1,0.6,1.7,0.3,2.1-0.1c0-0.4,0-0.9-0.1-1.4c-0.4-1.6-1.6-2.7-2.7-2.4C46.7,28.2,46.4,28.5,46.2,29z"/>
		<path fill-rule="evenodd" clip-rule="evenodd" fill="#010101" d="M49.1,30.5c0.3,1.1,0,2.1-0.7,2.3c-0.7,0.2-1.5-0.5-1.8-1.6
			c-0.3-1.1,0-2.1,0.7-2.3C48,28.7,48.8,29.4,49.1,30.5z"/>
		<path fill-rule="evenodd" clip-rule="evenodd" fill="#FFFFFF" d="M48.4,28.9c0.1,0.4,0,0.7-0.3,0.8c-0.3,0.1-0.5-0.2-0.6-0.5
			c-0.1-0.4,0-0.7,0.3-0.8C48,28.3,48.3,28.5,48.4,28.9z"/>
		
			<ellipse transform="matrix(0.9631 -0.269 0.269 0.9631 -6.9754 13.913)" fill-rule="evenodd" clip-rule="evenodd" fill="#FFFFFF" cx="47.3" cy="32.4" rx="0.2" ry="0.3"/>
	</g>
	<path fill-rule="evenodd" clip-rule="evenodd" fill="#771213" d="M33.7,36.6c-1.2-1.2-2.6-1.3-4.1-0.8c-1.5,0.5-2.8,1.6-3.4,3.2
		c-0.4,1-0.2,2.6,0.9,3c0.1,0,0.2-0.2,0.1-0.3c-1.1-0.7-0.8-2.4-0.3-3.3c0.6-1,1.7-1.7,2.8-2.1c1.2-0.5,2.4-0.3,3.4,0.6
		c1,0.9,1.3,1.7,1.1,3c0,0.1,0.1,0.2,0.1,0.1C35.3,38.8,34.6,37.5,33.7,36.6z"/>
	<path fill-rule="evenodd" clip-rule="evenodd" fill="#570F10" d="M54.9,44.8c-1.2,0.9-1.4,2.6-2.5,3.7c-1.5,1.6-3.5,1.9-5.5,2
		c-1.4,0-2.8,0.3-3.6,1.6c-0.1,0.1,0.1,0.2,0.2,0.1c1.1-1.3,2.6-1.2,4.2-1.2c1.3,0,2.5-0.3,3.6-1c1-0.6,1.9-1.4,2.5-2.4
		c0.3-0.5,0.5-1,0.7-1.5c0.5-0.9,1.6-1.5,2.4-0.5c0.1,0.2,0.4,0,0.3-0.2C56.9,44.7,55.6,44.3,54.9,44.8z"/>
	<path fill-rule="evenodd" clip-rule="evenodd" fill="#771213" d="M46.7,36.9c-0.1,0-0.1,0.2,0,0.2c0.7,0.5,1,1.9,1.2,2.7
		c0.3,1,0.1,1.7,0.9,2.5c0.1,0.1,0.2,0,0.1-0.1c-0.4-0.6-0.3-1.2-0.4-1.8c-0.1-0.5-0.2-1-0.4-1.5C47.9,38.2,47.5,36.9,46.7,36.9z"/>
	<path fill-rule="evenodd" clip-rule="evenodd" fill="#231F20" d="M51.7,14.2c-0.5-0.4-1.2,0-1.4,0.6c-0.2,0.5,0.2,1,0.4,1.4
		c0.5,0.9,0.4,2.3-0.4,2.9c-0.2,0.2,0,0.6,0.3,0.4c0.2-0.2,0.4-0.3,0.5-0.5c0.3,0,0.5-0.1,0.8-0.2c0.5-0.1,1.1-0.2,1.6-0.2
		c0.7,0,1.9,0,2.4,0.8c0.2,0.9,0.4,1.7,0.4,2.6c0,0.2,0.4,0.3,0.4,0.1C57.1,18.7,54.7,15,51.7,14.2z M53.4,15.4
		c-0.3,0-0.7,0.1-0.9,0.1c-0.5,0.1-1.1,0.4-1.2,0.9c0-0.1-0.1-0.2-0.1-0.3c-0.1-0.2-0.2-0.4-0.3-0.6c0.1-0.3,0.3-0.5,0.6-0.7
		c0.2-0.1,0.3-0.1,0.5-0.1c0.1,0,0.2,0,0.3,0c0,0,0,0,0,0C52.7,14.9,53,15.1,53.4,15.4z M51.6,14.4C51.6,14.4,51.6,14.4,51.6,14.4
		c-0.1,0-0.3,0.1-0.4,0.1c-0.2,0.1-0.4,0.2-0.5,0.4C50.9,14.5,51.2,14.3,51.6,14.4z M51.3,18.3c0.1-0.3,0.1-0.5,0.1-0.8
		c0-0.2,0-0.4,0-0.6c0,0,0.1,0,0.1-0.1c0.1-0.5,0.8-0.8,1.2-0.9c0.5-0.1,0.8,0,1.3,0.1c0,0,0.1,0,0.1,0c0.6,0.6,1,1.4,1.4,2.2
		C54.3,17.8,52.4,17.9,51.3,18.3z"/>
	<path fill-rule="evenodd" clip-rule="evenodd" fill="#F06724" d="M59.7,57.1c-0.1,1.1-0.2,2.2,0.3,3.7c0.5,1.8,1.2,3.2,3.2,3.9
		c1.8,0.6,3.6,0.9,5.4,1.3c1.9,0.4,4.5,1.3,5,3.7c0,0.2,0.3,0.2,0.3,0c0-0.2,0-0.4-0.1-0.6c0.1-1-0.3-2-0.6-2.9c-0.4-1-1-2-1.8-2.6
		c0,0,0,0,0,0c0,0,0,0,0,0c-0.1-0.1-0.2,0-0.1,0.1c0,0,0,0,0,0c0,0.1,0,0.1-0.1,0.1c-0.1,0.1-0.1,0.2-0.2,0.4
		c-0.1,0.1-0.1,0.2-0.2,0.3c0,0,0,0-0.1,0c-2.6-0.1-5.9-0.5-7.6-3c-0.5-0.7-0.6-1.6,0-2.3c0.5-0.6,1.4-0.5,2.1-0.5
		c1.2,0.1,2.4,0.5,3.6,0.7c0,0.4,0,0.9,0.1,1.4c0,0.3,0.1,0.8,0.3,1.1c0.1,0.2,0.1,0.4,0.3,0.6c0.1,0.1,0.2,0.1,0.3,0
		c0.9-0.8,2-1.4,3.1-1.8c1.1-0.4,2.3-0.3,3.5-0.5c0.1,0,0.1,0,0.2,0.1c0.1,0,0.1-0.1,0-0.1c0,0,0,0,0,0c0,0,0-0.1,0-0.1
		c-0.1,0-0.1,0-0.2,0c-1-0.6-2.2-0.9-3.2-1.7c-1-0.8-1.8-1.7-2.5-2.7c-0.1-0.1-0.2-0.1-0.3-0.1c-0.2,0.1-0.3,0.2-0.4,0.4
		c-0.3,0.2-0.4,0.7-0.5,1c-0.2,0.4-0.3,0.8-0.4,1.2c-1.2-0.3-2.4-0.3-3.6-0.7c-0.7-0.2-1.5-0.5-1.9-1.2c-0.4-0.8,0-1.6,0.6-2.1
		c2.2-1.7,5.5-0.9,8,0c0,0,0.1,0,0.1,0c0,0.1,0.1,0.2,0.1,0.4c0,0.1,0.1,0.3,0.1,0.4c0,0.1,0,0.1,0,0.2c0,0.1,0,0.1,0,0
		c-0.1,0.1,0,0.2,0.1,0.1c0,0,0,0,0,0c0,0,0,0,0,0c1-0.3,1.8-0.9,2.4-1.8c0.5-0.7,1.1-1.6,1.3-2.5c0.1-0.2,0.2-0.4,0.2-0.6
		c0-0.2-0.2-0.3-0.2-0.1c-1,2.1-3.7,1.9-5.7,1.6c-1.8-0.3-3.7-0.8-5.5-0.7c-1.7,0.1-3.1,0.6-4.1,2C60.9,53.2,59.9,54.4,59.7,57.1z
		 M60,57.3c0.2-3.9,2.6-5,2.6-5c1.6-1,3.7-0.7,5.5-0.3c1.9,0.4,5.5,1.3,7.3-0.1c-0.2,0.5-0.5,0.9-0.8,1.4c-0.6,0.8-1.3,1.3-2.1,1.8
		c0-0.1,0-0.3,0-0.4c0-0.2-0.1-0.3-0.1-0.5c0-0.1-0.1-0.3-0.2-0.3c0,0,0,0,0,0c0,0-0.1-0.1-0.1-0.1c-1.8-0.6-3.9-1.2-5.8-0.9
		c-1.2,0.2-2.7,0.7-3.3,1.9c-1.5,3.1,4,3.7,5.9,3.7c0,0.1,0.2,0.2,0.3,0.1c0.3-0.3,0.4-0.8,0.5-1.2c0.2-0.4,0.4-0.8,0.6-1.2
		c0,0,0.1,0,0.1-0.1c1.2,2,3.2,3.3,5.3,4c-2.2,0-4.4,0.5-6.1,2c0,0,0-0.1-0.1-0.1c-0.1-0.5-0.2-0.9-0.3-1.4c0-0.5,0-1-0.2-1.4
		c0-0.1-0.2-0.1-0.3,0c-1.7-0.6-7.2-2.1-6.6,1.5c0.2,1.4,1.5,2.5,2.6,3.1c1.7,0.9,3.9,1.2,5.7,1.3c0.1,0,0.1,0,0.1,0c0,0,0,0,0,0
		c0.1,0,0.2-0.2,0.3-0.2c0.1-0.1,0.2-0.3,0.3-0.4c0.1-0.1,0.1-0.3,0.2-0.4c0.7,0.7,1.1,1.6,1.5,2.5c0.2,0.5,0.3,1.1,0.4,1.6
		c-1.4-2-5-2.5-6.9-2.9c-1.8-0.3-4-0.7-5.2-2.4C59.9,60.9,59.9,58.9,60,57.3z"/>
	<path fill-rule="evenodd" clip-rule="evenodd" fill="#231F20" d="M32.6,22.9C31.3,23,30,22.3,29,21.5c-1.1-0.8-1.5-1.6-1.7-2.9
		c0-0.1-0.1-0.1-0.2-0.1c-0.3-0.2-0.8-0.1-1.1,0.1c-0.9,0.4-1.3,1.6-1.6,2.5c-0.7,2.6,0,6.2,1.9,8.1c0.3,0.3,0.6-0.2,0.4-0.4
		c-0.4-0.4-0.7-0.9-0.9-1.4c-0.2-1.4,1-2.2,2.2-2.8c1.2-0.6,2.7-1.1,4-1.1c0.2,0,0.5,0,0.7,0C33,23.4,33,22.9,32.6,22.9z M26.9,18.8
		c-0.2,0.4-0.1,0.8,0,1.2c-0.5-0.2-1-0.2-1.5-0.1c0,0,0,0,0,0C25.7,19.3,26.3,18.6,26.9,18.8z M24.9,21.1c0.1-0.2,0.2-0.4,0.4-0.6
		c0.2-0.2,0.5-0.2,0.8-0.2c0.4,0,0.7,0.1,1.1,0.2c0.3,0.5,0.7,0.9,1,1.2c-0.8-0.1-1.7,0.2-2.5,0.5c-0.3,0.2-0.7,0.4-1.1,0.8
		C24.7,22.3,24.7,21.7,24.9,21.1z M29.5,23.5c-1,0.3-1.9,0.6-2.8,1.1c-0.5,0.3-1.2,1-1.5,1.7c-0.3-0.8-0.4-1.6-0.5-2.4
		c0.6-1.5,2.4-1.9,4-1.9c0.6,0.4,1.2,0.8,1.9,1.1C30.2,23.2,29.8,23.4,29.5,23.5z"/>
	<path fill="#EF4137" d="M57.9,28.7c0,0,2.2-0.4,3.5,1.3c0.9,1.3,0.5,1.9,0.5,1.9L61.4,31c0,0-0.1,1.8-1.5,1.7
		c-1.4-0.1-2.3-2.1-2.3-2.9C57.6,29.1,57.9,28.7,57.9,28.7z"/>
	<path fill="#EF4137" d="M26.8,38.8c0,0-0.6,0.8,0,1.8c0.6,1,1.6,0.9,1.8,0.4C28.8,40.6,26.8,38.8,26.8,38.8z"/>
	
		<radialGradient id="SVGID_18_" cx="145.5851" cy="40.539" r="6.2922" gradientTransform="matrix(0.933 -0.3101 0.3051 0.9793 -98.9394 34.1283)" gradientUnits="userSpaceOnUse">
		<stop  offset="0" style="stop-color:#FFFFFF"/>
		<stop  offset="0.1044" style="stop-color:#FFF8F5"/>
		<stop  offset="0.2325" style="stop-color:#FEEBE3"/>
		<stop  offset="0.373" style="stop-color:#FDD7C9"/>
		<stop  offset="0.5224" style="stop-color:#FABBA7"/>
		<stop  offset="0.6789" style="stop-color:#F7997F"/>
		<stop  offset="0.8388" style="stop-color:#F37158"/>
		<stop  offset="0.9719" style="stop-color:#EF4137"/>
	</radialGradient>
	<path fill="url(#SVGID_18_)" d="M53.4,33.3c0,0,0.2,0.8-1.6,1.8c-1.8,1-3.1,0.8-3.3,0.6c-0.2-0.2,0.8-0.6,0.5-0.6
		c-0.3,0-1.3,0.4-1.2,0.1c0.1-0.3,0.3-0.6,0.3-0.6s-0.8,0.4-0.9,0.2c-0.1-0.2,0.2-0.9,2.4-1.5C51.9,32.7,52.9,32.9,53.4,33.3z"/>
	<path fill="#FFFFFF" d="M31.8,36.8c0.2,0.6-0.3,1.2-1,1.5c-0.7,0.2-1.4,0-1.6-0.6c-0.2-0.6,0.3-1.2,1-1.5
		C30.8,35.9,31.6,36.2,31.8,36.8z"/>
	<path fill="#FFFFFF" d="M29.2,37.6c0.1,0.3-0.1,0.6-0.4,0.7c-0.3,0.1-0.6,0-0.7-0.3c-0.1-0.3,0.1-0.6,0.4-0.7
		C28.8,37.2,29.1,37.4,29.2,37.6z"/>
	<path fill="#FFFFFF" d="M59.9,29.7c0.2,0.6-0.3,1.3-1.1,1.6c-0.8,0.3-1.6,0-1.8-0.6c-0.2-0.6,0.3-1.3,1.1-1.6
		C58.9,28.9,59.8,29.2,59.9,29.7z"/>
	<path fill="#FFFFFF" d="M57,30.4c0.1,0.2-0.1,0.5-0.3,0.6c-0.3,0.1-0.5,0-0.6-0.3c-0.1-0.2,0.1-0.5,0.3-0.6
		C56.6,30,56.9,30.1,57,30.4z"/>
	<path fill="#B12024" d="M30.2,40.4c0,0-0.6,0.7-0.3,1.9c0.3,1.2,1.4,1.8,1.4,1.8s1.3,3.6,2.8,4.7c1.5,1.1,1.5,1.1,1.5,1.1
		s-1.7-0.4-3.1-2.8c-1.3-2.4-1.4-2.7-1.4-2.7s-1.9-1-2.2-2.1C28.6,41.2,29,40.8,30.2,40.4z"/>
	<path fill="#EB2227" d="M28.6,40.9c0,0,0.8-2,2.5-2.2C32.9,38.5,33,40,33,40s-1-0.8-2.3-0.4c-1.3,0.5-2.1,1.5-2.1,1.5L28.6,40.9z"
		/>
	<path fill-rule="evenodd" clip-rule="evenodd" fill="#771213" d="M58.3,40.5c-0.2,1.9-1.9,2.4-3.5,2.4c-3.2,0-6,1.2-8.6,3.1
		c-1.3,1-2.5,2.2-3.8,3.1C41.2,50,39.6,50.2,38,50c-3.2-0.5-5-2.7-6.1-5.6c0.5,0.2,1,0.4,1.5,0.5c3.9,1,8.4,1.1,12.3,0.3
		c4.1-0.8,7.7-3.5,10.8-6.4c0.5-0.5,1-1,1.4-1.6C58.3,38.3,58.5,39.4,58.3,40.5z M59.5,33.4c-0.7-1.1-2.8-1.6-3.5-0.2
		c-0.1,0.2,0,0.4,0.2,0.4c0.9-0.1,1.9,0,2,1.2c0.1,0.8-0.4,1.7-0.8,2.3c-0.8,1.2-2,2-3.1,2.9c-2.5,2-5,3.8-8.1,4.6
		c-3,0.7-6.1,0.7-9.1,0.5c-1.4-0.1-2.9-0.4-4.3-0.8c-0.8-0.3-1.7-0.7-2.2-1.4c-0.8-1-0.2-2.5,0.9-2.9c0,0,0,0,0.1,0
		c0.4-0.1,0.9,0,1.2,0.3c0.1,0.1,0.3,0,0.2-0.2c-0.4-1.1-2.2-0.4-2.9-0.2c-0.7,0.2-1.2,0.7-1.5,1.4c-0.1,0.3-0.3,0.7,0,0.9
		c0.2,0.1,0.3-0.1,0.3-0.3c0.1,0.3,0.1-0.2,0.2-0.4c0.2-0.5,0.6-0.8,1.1-1.1c-0.4,0.5-0.5,1.2-0.4,1.8c0.2,0.9,0.8,1.5,1.5,1.9
		c0.5,1.4,1.1,2.9,2.1,4c1,1.2,2.3,1.8,3.7,2.2c1.4,0.4,2.9,0.4,4.3-0.1c1.8-0.6,3.2-2.2,4.7-3.4c1.6-1.4,3.5-2.4,5.5-3.1
		c1.9-0.7,4-0.1,5.8-1c2-1,1.8-4.2,1-6c0.4-0.7,0.6-1.4,0.6-2.2c0-0.3-0.1-0.5-0.1-0.7c0-0.3-0.1-0.6-0.2-0.9
		c0.3,0.1,0.5,0.3,0.7,0.6C59.3,33.9,59.7,33.7,59.5,33.4z"/>
	<path fill-rule="evenodd" clip-rule="evenodd" fill="#570F10" d="M32.9,44.7c0,0,1,2.8,1.9,3.2c1,0.5,1.6-0.3,1.6-0.3
		s1.7,0.2,4-0.3c2.4-0.5,2.4-0.5,2.4-0.5s-1.3,0.7-3.8,1c-2.5,0.3-3.4,0.3-3.5,0.7c-0.1,0.3,0.1,0.7,0.1,0.7s-1.1-0.3-2.1-1.9
		c-1-1.6-1.5-2.9-1.5-2.9L32.9,44.7z"/>
	<path fill-rule="evenodd" clip-rule="evenodd" fill="#570F10" d="M57.7,37.6c0,0,0.3,2-0.6,2.6c-0.9,0.5-0.9,0.5-0.9,0.5
		s-0.5,0.4-1.2,0.7c-0.7,0.3-0.9,0.5-0.9,0.5s1.6-0.6,2.5-1c0.9-0.4,1-0.3,1.1-0.2c0.1,0.1,0.4,0.7,0.4,0.7s0.5-0.4,0.4-2
		c-0.1-1.5-0.5-2.5-0.5-2.5L57.7,37.6z"/>
	<path fill="#EB2227" d="M35.8,49.9c0,0,3.6,1.4,5.5,0.4c2-1,5.3-4.3,7-5.3c1.7-1.1,3.8-1.5,5.3-1.5c1.5,0,4.1,0.2,5-2.2
		c0.6-1.6-0.4-4.3-0.4-4.3s1.4,4,0.5,4.9c-1.9,1.8-2.1,1.7-3.3,1.8c-1.2,0.1-1.5,0.6-2.2,1.4c-0.7,0.8-2,0.4-2,0.4s-0.5,2.1-2.6,3.1
		c-2.1,1-3.2,0.2-3.2,0.2s-2.8,2.2-5.3,2.3C37.6,50.9,35.8,49.9,35.8,49.9z"/>
	<path fill="#FFFFFF" d="M50.3,45.9c0.2,0.5-0.5,1.2-1.4,1.6c-0.9,0.3-1.8,0.1-2-0.4c-0.2-0.5,0.5-1.2,1.4-1.6
		C49.3,45.1,50.2,45.3,50.3,45.9z"/>
	<path fill="#FFFFFF" d="M52.1,44.6c0.1,0.2-0.1,0.5-0.5,0.7c-0.3,0.1-0.7,0-0.8-0.2c-0.1-0.2,0.1-0.5,0.5-0.7
		C51.6,44.2,52,44.3,52.1,44.6z"/>
	<path fill="#EB2227" d="M57.2,45.5c0,0-1.7-2.1-2.9,0.1c-1.3,2.2-1.1,3.2-4.5,4.5c0,0-1.6,0.3-3.4,0.4c-1.7,0.1-2.3,0.6-2.7,1.1
		c-0.4,0.5-0.4,0.5-0.4,0.5s0.6-1.6,2.8-1.9c2.3-0.3,5.2-1.3,6.2-2.4c1.1-1.2,1.3-2.8,2.5-3.3C56.1,43.9,57.1,45.1,57.2,45.5z"/>
	<path fill="#EB2227" d="M43,19.6c0,0,0.8-0.2,1.2,1c0.4,1.2-0.8,2.1-0.8,2.1L43,19.6z"/>
	<path fill="#EB2227" d="M41.3,19.5c0,0,1.5,2.1,0.2,3.8c-1.3,1.7-3,1.7-4.8,1.8c-1.9,0.1-2.6,2-3,2.5c-0.3,0.5-0.3,0.5-0.3,0.5
		s-1.1-0.9-1-2.4c0.1-1.5,0.3-1.7,0.3-1.7s-0.1,0.5,0.2,1.1c0.3,0.5,0.3,0.5,0.3,0.5s0.9-1.2,1.8-1.4c0.9-0.2,3.3,0.1,4.1-0.1
		c0.8-0.2,2.4-0.7,2.5-2.4C41.9,20.1,41.3,19.5,41.3,19.5z"/>
	<path fill="#FFFFFF" d="M40.8,18.7c0,0,0.6,0.7,0.9,1.4c0.3,0.7,0.3,0.7,0.3,0.7l1-0.6c0,0-0.1-0.9-0.5-1.3
		C42,18.5,41.2,18.5,40.8,18.7z"/>
	<path fill-rule="evenodd" clip-rule="evenodd" fill="#F06724" d="M42.5,19c0,0,0.5,0.6,0.5,1.7c0,1.2,0,1.8,0,1.8l0.3,0.1
		c0,0,0.4-2-0.2-3.2C42.4,18.2,42.5,19,42.5,19z"/>
	<path fill-rule="evenodd" clip-rule="evenodd" fill="#F06724" d="M38.7,19.8c0,0-1,0.3-1.3,0.4c-0.4,0.1,0.3,0.3,0.8,0.1
		C38.7,20.1,38.7,19.8,38.7,19.8z"/>
	<path fill="#EB2227" d="M32.5,39.9c0,0-1.7,0.4-1.6,1.6c0.1,1.2,1.6,2.1,4.7,2.6c3.1,0.5,7.1,1.3,12.3-0.9c5.2-2.2,9.5-6.3,9.9-7.8
		c0.4-1.5-0.2-1.6-0.6-1.7c-0.4-0.1-1-0.2-1-0.2s1.5-0.5,2.1,0.8c0.5,1.3-0.5,2.5-3,4.8c-2.6,2.3-4.1,3.9-7.3,4.9
		c-3.2,1-7.1,1.6-11.9,0.8c-4.8-0.7-6-1.9-5.9-3.1C30.2,40.4,31.8,39.3,32.5,39.9z"/>
	<path fill="#B12024" d="M58,33.1c0,0,1.1,0.7,0.9,1.7c-0.2,1-0.6,2.1-0.6,2.1s0.8,2.1,0.7,3.5c-0.1,1.4-0.5,1.7-0.5,1.7
		s0.8-0.4,0.7-2.3c-0.1-1.9-0.4-3.1-0.4-3.1s0.9-1.5,0.6-2.5C59.1,33.2,58.7,33.1,58,33.1z"/>
	<path fill="#EB2227" d="M56.1,33.2c0,0,0.3-0.8,1.4-0.8c1,0,1.6,0.4,1.6,0.4s-0.6-1-1.9-1C56,31.8,55.8,32.7,56.1,33.2z"/>
	<path fill="#EB2227" d="M57.6,28.3c0,0-1,0.1-2.1,1.2c-1.1,1.1-1.3,1.7-1.3,1.7S53.7,30.6,54,30c0.3-0.6,0.4-0.9,0.4-0.9l-0.5,0.5
		c0,0-0.3-0.3,0.2-1.1c0.5-0.7,0.7-0.9,0.7-0.9s-0.4,0.8-0.5,0.9c0,0.2,0.2-0.2,0.6-0.1c0.4,0.1,0,0.3-0.2,0.6
		c-0.2,0.3-0.4,0.9-0.4,1.1c0,0.2,0.4-0.7,1.4-1.4C56.7,28.2,57.6,28.3,57.6,28.3z"/>
	<path fill="#F3777C" d="M31.5,40.5c0,0-1.1,0.7-0.1,2c1,1.3,5.5,2.5,9.7,2.3c4.2-0.1,7.1-0.8,10.7-3.3c3.6-2.5,6.2-4.9,6.2-6.6
		c0,0-0.3,1-1.2,2.2c-0.9,1.2-3.8,3.3-5.8,4.7c-2,1.4-3.9,2.1-6.9,2.6c-3,0.5-7.9,0.5-10.6-0.6C30,42.1,31.5,40.5,31.5,40.5z"/>
	<path fill="#F3777C" d="M43,49.2c0,0,4-3.8,6.7-4.9c2.7-1.1,5.4-0.8,6.4-0.9c1-0.1,1.5-0.6,1.5-0.6s-0.9,0.8-2.6,0.8
		c-1.6,0-3.6,0.2-5.6,1.2c-2,1-4.4,3-5.3,3.7c-0.9,0.8-2.1,1.5-2.1,1.5L43,49.2z"/>
	<path fill="#F3777C" d="M34.3,39.8c0,0,0.7-2.5-1.9-3.6c-2.5-1.1-5.6,1.6-5.9,3.1c-0.4,1.5,0.3,2,0.3,2s-1-1.7,0.7-3.4
		c1.7-1.6,3.9-2,5.1-1.4C33.9,37.1,34.3,38.8,34.3,39.8z"/>
	<path fill-rule="evenodd" clip-rule="evenodd" fill="#010101" d="M54.8,24.2c0,0,0.2,1.2-1,1.6c-1.2,0.4-1.4,0.1-1.4,0.1l-0.8-1.1
		C51.6,24.9,54,25.9,54.8,24.2z"/>
	<path fill-rule="evenodd" clip-rule="evenodd" fill="#010101" d="M53.6,23.3c0,0,0.2,1.2-0.9,1.6c-1.2,0.4-1.4,0.1-1.4,0.1L50.5,24
		C50.5,24,52.9,25.1,53.6,23.3z"/>
	<path fill-rule="evenodd" clip-rule="evenodd" fill="#010101" d="M52.3,22.7c0,0,0.2,1.2-0.9,1.6c-1.2,0.4-1.4,0.1-1.4,0.1
		l-0.8-1.1C49.2,23.4,51.6,24.5,52.3,22.7z"/>
	<path fill-rule="evenodd" clip-rule="evenodd" fill="#010101" d="M44.3,27.3c0,0,0.2-2.6,3.5-2.9c3.4-0.3,5.1,2.9,5.1,2.9
		s0.6,0.1,1.3-0.2c0.6-0.4,0.7-1.4,0.7-1.4s-0.8,0.6-1.3,0.6c-0.5,0.1-0.7,0-0.7,0s-2.3-3.6-5.5-2.5C44.1,24.8,44.3,27.3,44.3,27.3z
		"/>
	<g>
		<path fill-rule="evenodd" clip-rule="evenodd" fill="#010101" d="M45.5,20.6c0,0-0.1,2,1.6,2.8c1.7,0.7,3.5-0.9,4.4-0.8
			c0.9,0,1.2,0.2,1.2,0.2s-1-2.2-2.7-2.3c-1.7-0.1-2.8,0.9-3.6,0.8C45.8,21.1,45.5,20.6,45.5,20.6z"/>
		<path fill-rule="evenodd" clip-rule="evenodd" fill="#231F20" d="M52.9,22.5c-1-1-1.7-2.2-3.2-2.4c-1.2-0.2-3.3,1.6-4.1,0.2
			c-0.1-0.2-0.3-0.1-0.4,0c-0.1,0-0.1,0-0.1,0.1c-0.4,1.4,0.8,2.9,2,3.4c0.7,0.3,1.4,0.3,2.2,0.1c1.1-0.3,2.1-1.4,3.3-0.9
			C52.9,23,53.2,22.7,52.9,22.5z M49.8,23c-1.7,0.7-3.9-0.2-4.3-2.1c0.6,0.6,1.9,0.3,2.5,0.1c0.9-0.3,1.7-0.6,2.6-0.1
			c0.6,0.3,1,0.9,1.5,1.4C51.3,22.2,50.6,22.6,49.8,23z"/>
		<path fill-rule="evenodd" clip-rule="evenodd" fill="#231F20" d="M45.5,20.9c0,0,0,1,3.2,0.7c3.2-0.2,1.5-1.6,0.6-1.4
			c-0.9,0.2-2,1-2.8,0.9C45.6,21,45.4,20.8,45.5,20.9L45.5,20.9z"/>
		<path fill-rule="evenodd" clip-rule="evenodd" fill="#414142" d="M46.8,21.6c0,0,2.8,0.3,3.4-0.4c0.5-0.7-0.5-0.9-1.3-0.5
			c-0.8,0.4-1.1,0.7-1.1,0.7L46.8,21.6z"/>
	</g>
	
		<linearGradient id="SVGID_19_" gradientUnits="userSpaceOnUse" x1="109.34" y1="63.5651" x2="122.0552" y2="63.5651" gradientTransform="matrix(0.9519 -0.3063 0.3063 0.9519 -99.5534 28.2815)">
		<stop  offset="0" style="stop-color:#EF4137"/>
		<stop  offset="0.2775" style="stop-color:#EE3D34"/>
		<stop  offset="0.617" style="stop-color:#EC2F2C"/>
		<stop  offset="0.7925" style="stop-color:#EB2227"/>
	</linearGradient>
	<path fill="url(#SVGID_19_)" d="M25.6,47.5c0,0,1.4-1.5,3.2-1.5c1.8,0,2.7,0.9,3.5,2c0.8,1.1,1.3,2,2.2,2.4
		c0.9,0.4,1.9,0.9,1.8,1.8c-0.1,0.9-0.7,0.9-1.5,0.7c-0.8-0.2-1.4-0.5-1.4-0.5s-0.8,0.6-0.4,1.5c0.4,0.9,0.7,1.5,0.7,1.5
		s0.7,0.3,1.3,1c0.7,0.8,1.2,3.1,0.1,3.2c-1.1,0.2-2-1.4-2-1.4s-0.6,0.3-0.8,0.4c-0.2,0.1-2.2-0.1-2.8-0.3c-0.6-0.2-0.6-0.2-0.6-0.2
		s-1.1,0.4-3.1-1.2c-2-1.6-2.9-3.6-2.5-5.9c0.4-2.3,1.4-3,1.4-3L25.6,47.5z"/>
	
		<linearGradient id="SVGID_20_" gradientUnits="userSpaceOnUse" x1="127.6415" y1="73.8747" x2="139.8386" y2="73.8747" gradientTransform="matrix(0.9519 -0.3063 0.3063 0.9519 -99.5534 28.2815)">
		<stop  offset="0" style="stop-color:#EF4137"/>
		<stop  offset="0.2775" style="stop-color:#EE3D34"/>
		<stop  offset="0.617" style="stop-color:#EC2F2C"/>
		<stop  offset="0.7925" style="stop-color:#EB2227"/>
	</linearGradient>
	<path fill="url(#SVGID_20_)" d="M47,54.5c0,0-1.7-1.8-2.7,0.2c-1,2,0,4.6,1,5.1c0.9,0.5,1.6,0.4,2.3,0.9c0.7,0.5,1.9,1.4,2.3,1.1
		c0.5-0.3,0.4-0.5,0.4-0.5s1.5,1.7,3.2,0.8c1.7-0.9,2.1-2.7,2.1-3.4c0-0.7,0-0.7,0-0.7l-1.4-0.2L54,56.3l1.8,0.2
		c0,0,0.4-1.4-0.3-2.6c-0.7-1.1-1.9-1.9-2.7-1.5c-0.8,0.4-2.6,1.6-2.9,1.6c-0.2,0.1-0.3-1.2-1.6-0.8c-1.3,0.4-1.4,1.3-1.4,1.3
		L47,54.5z"/>
	<path fill-rule="evenodd" clip-rule="evenodd" fill="#771213" d="M38,20.1c-1.2,0.2-2.4,0.9-3.5,1.6c-1.3,0.8-2.6,1.8-3.8,2.7
		c-2.2,1.7-4.2,3.8-5.5,6.3c-1.3,2.3-2.2,5.3-2.1,8c0.1,2.9,1,5.9,2.8,8.1c-0.2,0.2-0.3,0.4-0.4,0.7c-2.2,0.2-2.9,3.8-2.5,5.7
		c0.6,2.7,3.1,5.2,5.9,5.3c0,0,0.1,0,0.1,0c0.3,0.2,0.6,0.3,0.8,0.3c0.8,0.2,2.5,0.5,3-0.4c0.6,0.5,1,1.3,1.9,1.4
		c1.1,0.2,1.5-1,1.4-1.9c-0.2-1.3-1.4-2.2-2.5-2.8c-0.3-0.6-0.5-1.3-0.6-2c-0.1-0.8,1-0.2,1.4-0.1c0.3,0.1,0.8,0.1,1.1,0.1
		c0.7-0.1,1-0.7,0.9-1.5c-0.1-0.8-0.6-1.2-1.3-1.4c-0.7-0.3-1.3-0.3-1.8-1c-0.4-0.5-0.6-1.1-0.9-1.6C32,46.8,31,46,30.1,45.7
		c-1.1-0.4-2.8-0.1-3.8,0.7c-1.7-2.5-2.5-5.1-2.6-8.2c-0.1-2.5,1-5.4,2.2-7.6c1.3-2.4,3.4-4.4,5.5-6.1c2.1-1.8,4.4-3.1,6.8-4.3
		C38.2,20.3,38.1,20.1,38,20.1z M28.7,46c1.3-0.2,2.6,0.9,3.3,1.9c0.5,0.7,0.8,1.6,1.5,2.2c0.7,0.6,1.8,0.3,2.3,1.1
		c0.3,0.5,0.2,1-0.2,1.5c-0.4,0.3-1,0.1-1.4-0.1c-0.3-0.2-0.6-0.4-1-0.5c-0.3-0.1-0.7,0.2-0.7,0.5c-0.2,1.4,0.4,3.1,1.6,3.8
		c0.1,0.1,0.2-0.1,0.2-0.2c-0.1-0.1-0.1-0.1-0.1-0.2c0.3,0.3,0.6,0.5,0.9,0.9c0.4,0.6,1.1,3-0.6,2.3c-0.4-0.2-0.7-0.7-1-1
		c-0.4-0.4-0.9-0.7-1.5-0.8c-0.5,0-1.1,0.1-1.6-0.1c-0.4-0.2-0.6-0.7-1-1c-0.1-0.1-0.2,0-0.2,0.1c0.4,1.1,1.2,1.5,2.2,1.5
		c0.4,0,0.7,0.1,1,0.3c-0.8,0.4-1.7,0.2-2.6,0.1c-0.6-0.1-1.1-0.5-1.5-0.9c0.1,0,0.2,0,0.3-0.1c0.1-0.1,0.2-0.2,0.1-0.4
		c-0.1-0.1-0.4-0.1-0.5,0c-0.1,0-0.3,0-0.4,0c0,0,0,0-0.1,0c0,0-0.1,0-0.2,0c-0.2-0.1-0.3-0.3-0.4-0.4c-0.1-0.1-0.2-0.1-0.2,0
		c-0.1,0.5,0.2,0.8,0.6,0.9c0.1,0.2,0.2,0.3,0.3,0.5c-1.9-0.7-3.5-2-4.3-4.1c-0.4-1.1-0.3-2.3,0-3.4c0.3-1.2,0.9-1.8,1.9-2.4
		c0.1,0,0.2,0,0.2-0.1C26.2,46.8,27.8,46.1,28.7,46z"/>
	<path fill-rule="evenodd" clip-rule="evenodd" fill="#771213" d="M51.7,35.7c-0.9,0.6-2.1,0.8-3.1,0.5c-1.1-0.2-1.6-1.1-2-2
		c0.3-0.8,1.9-1.1,2.6-1.2c0.7-0.2,1.4-0.3,2.1-0.3c0.5,0,1,0.1,1.5,0.2c0.1,0,0.6,0.1,0.6,0.1C53.2,34,52.7,35,51.7,35.7z
		 M44.6,27.6c0.9-3.2,4.1-3.6,6.5-1.9c1.2,0.9,1.9,2.2,2.3,3.7c0,0.1,0,0.3,0.1,0.4c0,0,0,0,0,0c0,0.2,0.1,0.5,0.1,0.7
		c0,0.2,0,0.5,0,0.6c0,0,0,0,0,0c0,0.4,0,0.9-0.1,1.3c-0.4-0.3-1.3-0.3-1.6-0.3c-1,0-1.9,0.1-2.9,0.3c-0.5,0.1-2,0.4-2.6,1
		c-0.1-1-0.3-1.9-0.6-2.8C45.5,29.6,45.1,28.5,44.6,27.6C44.5,27.7,44.6,27.6,44.6,27.6z M45.5,36.3c-0.6,1.4-1.9,2.3-3.3,2.7
		c-2.3,0.6-4.5-0.6-6-2.4c0-0.8,2.6-1.8,3.1-2c1-0.4,2.1-0.7,3.2-0.9c1-0.2,2.8-0.5,3.4,0.6C45.9,34.9,45.8,35.6,45.5,36.3z
		 M41.6,25.8c2.1,0.9,2.9,2.6,3.6,4.7c0.3,0.9,0.6,1.8,0.7,2.8c-0.5-0.4-1.3-0.4-2-0.4c-1.6,0-3.2,0.5-4.7,1c-0.6,0.2-2.9,1-3.3,2
		c-2.4-3.4-3.1-8.6,0.2-10.2c0,0,0.1,0,0.1,0C38,25.1,39.8,25.1,41.6,25.8z M55.1,20.9c-1.8-1-3.8-1.6-5.8-2
		c-2.1-0.4-4.4-0.6-6.5-0.1c-0.2-0.4-0.8-0.5-1.2-0.5c-0.3,0-1.1,0-1.2,0.4c-0.1,0.1,0.1,0.3,0.2,0.2c0.2-0.2,0.6-0.2,0.9-0.2
		c0.2,0,0.4,0,0.6,0.1c0.1,0,0.2,0.1,0.3,0.2c-0.1,0.1,0,0.3,0.2,0.3c0,0,0,0,0,0c0.7,1.6,0.5,4.2-0.8,5.3c-0.1,0-0.1,0-0.1,0.1
		c-0.4,0.3-0.9,0.4-1.5,0.4c0,0,0,0,0,0c-1.1-0.2-2.2-0.2-3.2,0.2c-1.4,0.2-2.4,1-3.2,2.5c-0.9,1.8-0.6,3.9,0,5.8c0,0,0,0,0,0.1
		c-0.4-0.3-0.8-0.6-1.2-0.8c-0.1,0-0.1,0.1-0.1,0.1c0.4,0.2,0.7,0.5,1,0.8c0.4,0.3,0.5,0.7,0.7,1.1c0,0.1,0.1,0.2,0.1,0.2
		c-1-0.7-2.3-1.1-3.2-0.7c-0.1,0-0.1,0.2,0.1,0.2c0.8-0.2,1.7,0.3,2.4,0.7c0.7,0.4,1.1,1,1.7,1.4c1.6,2.2,4,3.7,6.7,3.1
		c1.5-0.3,2.8-1.2,3.7-2.6c0.3-0.6,0.5-1.2,0.6-1.8c0.9,1.7,3.5,2,5.1,1.2c1.3-0.6,2-1.7,2.3-3c0,0.1,0.1,0.2,0.1,0.3
		c0,0.1,0.2,0.1,0.2,0c-0.2-2.2,1.2-3.9,3-4.7c1.8-0.7,4.3,0.1,4.8,2.2c0,0.1,0.2,0.1,0.2,0c0.1-2.3-2.8-3.3-4.5-2.9
		c-1.4,0.3-2.8,1.4-3.4,2.9c0-0.1,0-0.2,0-0.4c0-0.3-0.1-0.6-0.1-0.9c0.1-0.3,0.4-0.6,0.6-0.8c0.1-0.1-0.1-0.2-0.2-0.1
		c-0.1,0.2-0.3,0.4-0.5,0.5c0-0.1-0.1-0.3-0.1-0.4c0.1-0.2,0.2-0.5,0.3-0.7c0.2-0.4,0.7-0.9,1.1-1.1c0.1-0.1,0.1-0.2-0.1-0.2
		c-0.6,0.1-1,0.5-1.3,1c-0.1,0.1-0.1,0.2-0.2,0.3c-0.6-1.6-1.8-3-3.3-3.8c-2.2-1.1-5.8-0.3-5.9,2.7c-0.6-0.8-1.4-1.5-2.5-2
		c-0.2-0.1-0.5-0.2-0.8-0.3c0.3,0,0.6-0.1,0.8-0.3c1.6,0.3,3.1-0.9,3.3-2.6c0-0.1-0.2-0.2-0.2,0c-0.2,1.3-1.4,2.2-2.6,2.2
		c0.4-0.4,0.7-0.9,0.9-1.5c0.4-1.3,0.3-2.7-0.3-3.9c8.1-1.1,17,3.2,19.9,11.5c1.4,4.1,0.8,8.6-0.8,12.5c-0.8,1.9-1.8,3.4-3,5
		c-1.4,1.8-3,3.3-5.1,4.1c-1.4-0.4-2.4,1.1-3.6,1.8c-0.2-0.6-0.8-0.8-1.3-0.9c-0.8-0.2-1.6,0.5-1.9,1.2c0,0,0,0.1,0,0.1
		c-0.2-0.3-0.6-0.5-0.9-0.6c-0.6-0.3-1.2-0.1-1.6,0.3c-1.2,1.1-0.7,3.5-0.1,4.7c0.4,0.9,1,1.7,1.9,1.8c0.5,0.1,0.9-0.1,1.3,0.3
		c0.2,0.2,0.5,0.4,0.7,0.5c0.6,0.4,1.9,1.2,2.2,0.1c0.9,0.9,2,1.4,3.2,0.8c1.2-0.6,2.4-2.7,2-4.1c0-0.1-0.2-0.1-0.3,0
		c-0.3,1.4-0.7,2.5-1.8,3.4c-1.3,1.1-2.3-0.3-3.4-0.8c-0.1-0.1-0.2,0.1-0.2,0.2c0,0,0,0.1,0,0.1c-0.1,0.9-1.4-0.2-1.8-0.4
		c-0.7-0.5-1.5-0.4-2.3-0.8c-1.3-0.6-1.7-2.7-1.7-3.9c0-0.8,0.3-1.6,1-2c0.5-0.3,1.2,0.2,1.5,0.7c-0.3,1.3,0.3,3.2,1,4
		c0,0-0.1,0.1-0.1,0.1c-0.1,0.2-0.1,0.4,0,0.6c0,0.1,0.1,0.1,0.2,0c0.1-0.1,0.2-0.2,0.2-0.4c0-0.2,0.1-0.3,0.2-0.4
		c0-0.1,0-0.2-0.1-0.2c0,0,0,0,0,0c-0.7-0.7-0.8-1.9-0.9-2.9c0-0.6,0.1-1.1,0.4-1.6c0.6-0.8,1.7-0.8,2.3,0c-0.2,0.1-0.4,0.2-0.6,0.2
		c-0.1,0-0.1,0.2,0,0.3c-0.3,0.5,0.5,1.2,1.1,1.6c-0.3,0.3-0.4,0.8-0.4,1.2c-0.1,0.9-0.1,2,0.4,2.7c0.2,0.3,0.7,0,0.5-0.3
		c-0.6-0.8-0.5-2.5,0-3.3c0,0,0.1,0,0.1,0c0.8,0.2,1.6,0,2.3-0.5c0.5-0.4,0.3-1.5,0.8-1.9c0.1-0.1,0-0.2-0.1-0.2
		c-0.5,0.1-0.7,0.9-0.9,1.4C53,55.9,52.1,56,51.4,56c-0.3,0-1.9-0.6-1.4-1.3c0,0,0,0,0-0.1c0.8-0.2,1.5-1,2.1-1.6
		c1.6-1.3,4,1.3,3.2,3.1c-0.2,0.3,0.3,0.5,0.4,0.2c0.8-1.3-0.2-3.1-1.3-3.8c3.7-1.7,6.2-5,7.9-8.7c1.8-4,2.4-8.6,1.1-12.9
		C62.2,26.4,59,22.9,55.1,20.9z"/>
	<path fill="#EF4137" d="M59.1,24.7c0,0,3.9,3.7,4.4,9c0.5,5.3-1.1,9.2-3,12.4c-1.9,3.2-4.2,4.8-4.9,5.2C55,51.8,54,52.2,54,52.2
		l-0.8-0.1c0,0,8.1-4.6,9.5-13C64.1,30.7,59.2,24.8,59.1,24.7z"/>
	<path fill="#EE2C38" d="M26.2,30.2c0,0-2.7,5.7-1.9,9.8c0.8,4.1,2.5,6.1,2.5,6.1l-0.5,0.4c0,0-2.1-2.2-2.6-6.6
		C23.2,35.5,25,31.5,26.2,30.2z"/>
	<g>
		<path fill-rule="evenodd" clip-rule="evenodd" fill="#010101" d="M33.5,25.7c0,0,0.6-1.7,2.3-1.7c1.7-0.1,2.7,0.8,4.4,0
			c1.7-0.7,2-3.3,0.8-4.7C39.7,17.9,39,18,39,18s1,1.7-0.9,2.4c-2,0.7-3.7,1.2-4.5,2.3C32.8,23.8,33,25.3,33.5,25.7z"/>
		<path fill-rule="evenodd" clip-rule="evenodd" fill="#231F20" d="M37.3,23.8c-1-0.1-2.2-0.3-3.1,0.4c-0.2,0.2-0.6,0.6-0.8,1.1
			c-1.1-2.2,2.5-3.9,4.1-4.2c0.8-0.2,1.5-0.3,1.8-1.1c0.2-0.5,0.1-1.2,0-1.8c0,0,0,0,0,0c0.1,0.1,0.2,0.1,0.4,0.1c0,0,0,0,0,0
			c1.2,0.6,1.9,2.2,1.8,3.5C41.2,23.9,38.8,24,37.3,23.8z M39.6,18c-0.1-0.2-0.5-0.3-0.7-0.3c-0.1,0-0.2,0-0.2,0.1
			c0,0.1,0,0.2,0,0.2c0.1,0.5,0.1,1,0,1.5c-0.2,0.9-1.4,0.9-2.1,1.1c-0.9,0.3-2,0.8-2.7,1.5c-1.2,1.1-1.7,2.6-0.6,3.9
			c0,0.1,0.1,0.1,0.2,0.2c0.2,0.2,0.4-0.1,0.3-0.3c-0.1-0.2,0.2-0.5,0.3-0.6c0.5-0.7,1-1,1.8-1c0.9,0,1.8,0.2,2.7,0.2
			c1.1,0,2.4-0.4,3-1.5C42.6,21,41.5,18.7,39.6,18z"/>
		<path fill-rule="evenodd" clip-rule="evenodd" fill="#231F20" d="M33.1,24.4c0,0,1.2-2.1,3.8-2c2.6,0,3.3-0.1,3.5-1.9
			c0.2-1.8-1.2-2.3-1.2-2.3s0.4,1.4-0.5,1.9c-0.9,0.5-2.8,0.8-4.1,1.9C33.4,23.1,33.1,24.4,33.1,24.4z"/>
		<path fill-rule="evenodd" clip-rule="evenodd" fill="#414142" d="M39.6,18.8c0,0,0.8,1.1,0.5,2.1c-0.3,0.9-1.5,1.1-2.8,1
			C36,21.8,35,22.4,35,22.4s0.6-0.8,2.1-1c1.5-0.2,2.3-0.4,2.4-1.3c0.1-0.9-0.3-1.5-0.3-1.5S39.3,18.3,39.6,18.8z"/>
	</g>
	<path fill-rule="evenodd" clip-rule="evenodd" fill="#010101" d="M42.5,25.8c0,0-4.5-2-7.3,0.5c-2.1,1.9-1.8,4.6-1.8,4.6
		S33,31.1,32,30.9c-1-0.2-1.4-1.2-1.4-1.2s0.6,0.5,1.3,0.1c0.6-0.3,0.6-0.3,0.6-0.3s1-3.2,3-4.2C37.5,24.4,39.6,24,42.5,25.8z"/>
	<path fill-rule="evenodd" clip-rule="evenodd" fill="#010101" d="M30.2,27.8c0,0,0,1.2,1.2,1.4c1.2,0.2,1.4-0.1,1.4-0.1l0.6-1.2
		C33.4,27.9,31.2,29.4,30.2,27.8z"/>
	<path fill-rule="evenodd" clip-rule="evenodd" fill="#010101" d="M43,22.7c0,0,0.7,1-0.2,1.9c-0.9,0.9-1.2,0.7-1.2,0.7l-1.2-0.6
		C40.4,24.8,43,24.7,43,22.7z"/>
	<path fill-rule="evenodd" clip-rule="evenodd" fill="#010101" d="M30.9,26.6c0,0,0,1.2,1.2,1.4c1.2,0.2,1.4-0.1,1.4-0.1l0.6-1.2
		C34,26.7,31.9,28.2,30.9,26.6z"/>
	<path fill-rule="evenodd" clip-rule="evenodd" fill="#010101" d="M31.8,25.6c0,0,0,1.2,1.2,1.4c1.2,0.2,1.4-0.1,1.4-0.1l0.6-1.2
		C34.9,25.7,32.8,27.2,31.8,25.6z"/>
	<path fill-rule="evenodd" clip-rule="evenodd" fill="#010101" d="M33.1,24.7c0,0-0.1,1,0.9,1.4c1,0.3,1.2,0.1,1.2,0.1l0.6-0.9
		C35.8,25.2,33.8,26.2,33.1,24.7z"/>
	<path fill="#FFFFFF" d="M33,44.8c0,0,1.1,2.9,2,3c0.9,0.1,1.2-0.4,1.2-0.4l-0.4-1.2c0,0,0.5,1,1.3,1.2c0.7,0.2,2.7-0.2,4.3-0.4
		c1.6-0.3,2.3-0.5,2.3-0.5s-0.3,0.6-2.7,1.3c-2.4,0.7-3.9,0.6-4.4,0.7c-0.5,0.1-0.7,0.2-0.7,0.4c0,0.2,0.1,0.5,0.1,0.5l-0.3-0.1
		c0,0-0.3-0.7,0-0.8c0.3-0.2,0.8-0.2,2.4-0.4c1.5-0.2,3.5-0.7,4-0.9c0.5-0.2,0.6-0.2,0.6-0.2s-2.2,0.5-4,0.7c-1.8,0.2-2,0.1-2,0.1
		s-0.7,0.8-1.4,0.5c-1.3-0.6-2.1-3.4-2.1-3.4L33,44.8z"/>
	<path fill="#FFFFFF" d="M57.7,37.6c0,0,0.1,0.4,0,1.3c-0.1,0.9-0.4,1.1-0.6,1.3c-0.2,0.2-0.7,0.3-0.7,0.3s-0.9,0.6-1.4,0.9
		c-0.6,0.3-0.9,0.5-0.9,0.5s2.2-1,2.7-1.2c0.5-0.2,0.8-0.2,0.9-0.2c0.1,0.1,0.5,0.8,0.5,0.8s-0.1,0.2-0.3,0.4
		C57.7,42,57.7,42,57.7,42l0.2-0.5c0,0-0.1-0.7-0.2-0.7c-0.1-0.1-0.5,0.1-1,0.2c-0.5,0.2-2.9,1.1-2.9,1.1s1.8-1.2,2.2-1.4
		c0.4-0.3,0.5-0.5,0.5-0.8c0-0.3-0.1-0.5-0.1-0.5s0.1-0.2,0.2,0.1c0.1,0.3,0.2,0.5,0.2,0.5s0.4,0,0.7-0.5c0.3-0.6,0.2-1.7,0.2-1.7
		L57.7,37.6z"/>
	<path fill="#FFFFFF" d="M43.4,34.2c0.1,0.4-0.6,0.9-1.6,1.3c-1,0.3-1.9,0.3-2-0.1c-0.1-0.4,0.6-0.9,1.6-1.3
		C42.4,33.8,43.3,33.8,43.4,34.2z"/>
	<path fill="#FFFFFF" d="M51.4,33c0.1,0.3-0.5,0.8-1.3,1c-0.8,0.3-1.5,0.2-1.6-0.1c-0.1-0.3,0.5-0.8,1.3-1
		C50.6,32.7,51.3,32.7,51.4,33z"/>
	<path fill="#EB2227" d="M45.9,33.8c0,0-0.9-1.1-4.2-0.1c-3.3,1-3.6,1.2-4.5,1.8c-0.9,0.6-1.1,0.6-0.9,1c0.2,0.4,1.6,2.5,4.7,2.7
		c3.1,0.3,4.6-2.6,4.8-3.3c0.2-0.7,0.1-0.9,0.1-0.9s-1.2,2.2-3.5,2.8c-2.3,0.6-3.7,0-3.6-0.5c0.2-0.5,0.8-0.9,0.3-0.8
		c-0.5,0.1-0.8,0.4-0.8,0.4s0.1-0.3,0.2-0.7c0.1-0.4-0.8,0.1-0.8,0.1s0.5-0.9,3.6-1.8c3.1-0.9,4.6,0,4.6,0L45.9,33.8z"/>
	<path fill="#EB2227" d="M46.6,34.1c0,0-0.2-0.8,3.1-1.5c3.3-0.6,3.8,0.3,3.8,0.3l-0.1,0.4c0,0-1.1-0.6-3,0
		c-1.6,0.5-3.1,0.8-3.1,1.3c0,0.5,1-0.3,0.9,0c-0.2,0.3-0.6,0.7,0.1,0.5c0.6-0.2,1.1,0,0.8,0.2c-0.3,0.2-0.5,0.3-0.5,0.3
		s1.1,0.6,2.8-0.5c1.7-1.1,2-1.4,2-1.4s-0.3,1.6-2,2.4c-1.7,0.8-2.8,0.4-3.6-0.2C46.9,35.3,46.6,34.1,46.6,34.1z"/>
	<path fill="#B12024" d="M25.8,47.8c0,0,2-2.4,4.1-1.2c2.1,1.2,2.2,3.4,3.7,4c1.5,0.6,2.2,1.2,2.1,1.7c-0.1,0.4-1,0.3-1.7-0.2
		c-0.7-0.5-1.8-1.1-1.8-1.1s-0.8,1.8-0.1,3.4c0.7,1.6,2.1,2.5,2.1,2.5s0.4,0.3,0.6,1.1c0.2,0.8-0.3,1.1-0.5,1C34,59,34,59,34,59
		s0.5,0.7,1.4,0.4c0.8-0.3,0.5-1.9-0.1-2.5c-0.6-0.6-1.2-0.9-1.2-0.9s-0.2,0.2-0.8-0.7c-0.6-1-0.9-2.6-0.6-2.9
		c0.4-0.3,0.6-0.3,1.2,0.1c0.6,0.4,1.4,0.6,1.9,0.2c0.5-0.5,0.6-1.4-0.4-2c-1-0.5-1.7-0.5-2.1-0.9c-0.5-0.4-1.3-2.2-2.2-3
		c-0.9-0.7-1.7-1.2-3.3-0.7C26.3,46.5,25.8,47.8,25.8,47.8z"/>
	<path fill="#B12024" d="M31.9,45.9c0,0,1.2,2.9,3.5,3.7c2.3,0.9,2.3,0.9,2.3,0.9s-2-0.2-3.4-1.1C32.9,48.6,31.9,45.9,31.9,45.9z"/>
	<path fill="#B12024" d="M25.8,30.7c0,0-0.4,1.9-0.3,3.1c0.1,1.1,0.3,1.4,0.3,1.4S25,36.3,26.5,36c1.5-0.4,2.1-2.1,1.5-2.5
		c-0.6-0.4-0.9-0.3-0.9-0.3s-0.3-1.3,0.1-3.2c0.4-1.9,0.9-2.3,0.9-2.3S26.3,29.2,25.8,30.7z"/>
	<path fill="#231F20" d="M27.1,27.8c-1.4,1.8-1.5,4.3-1,6.4c0,0,0,0,0,0c0,0.3,0.3,0.5,0.5,0.3c0.1-0.1,0.2-0.2,0.4-0.3
		c0.3-0.2,0.1-0.7-0.3-0.6c0,0-0.1,0-0.1,0.1c-0.4-1-0.3-2-0.2-3c0.2-1,0.7-1.8,0.8-2.8C27.3,27.8,27.2,27.7,27.1,27.8z"/>
	<path fill="#B12024" d="M26.7,47c0,0-0.6,0.6-0.6,1c-0.1,0.4-0.3,0.7-1.1,1.4c-0.8,0.7-1.4,3.5,0.4,6c0,0,1.2,1.6,1.5,1.1
		c0.3-0.5,0.3-0.9,1-0.3c0.6,0.6,1.1,0.3,1.3,0.2c0.2-0.1,0,0.5-0.4,0.7c-0.4,0.2-1.1-0.1-1.3-0.3c-0.1-0.2-0.2,0.2,0.1,0.4
		c0.3,0.2,0.3,0.2,0.3,0.2l0.5,0.6c0,0-2-0.5-3.4-2c-1.3-1.5-1.8-3.3-1.4-5.2c0.4-2,1.4-2.4,1.9-2.8c0.5-0.3,1.1-1.1,1.1-1.1
		L26.7,47z"/>
	<path fill="#B12024" d="M29.3,56.5c0,0,0.3,1.1,1.3,1.3c1,0.1,1.5,0.1,1.7,0.3c0.3,0.2,0.2,0.4,0.2,0.4s-1.8,0-2.6-0.5
		C29.1,57.4,29.1,56.9,29.3,56.5z"/>
	<path fill="#B12024" d="M28.7,55c0,0,1,1.4,1,0.4C29.7,54.4,28.5,54.2,28.7,55z"/>
	<path fill="#B12024" d="M48.8,53.6c0,0,0.5,0.1,0.3,0.5c-0.2,0.3-0.9,0.6-0.7,1.4c0.2,0.8,0.9,1.4,0.9,1.7c0,0.3-0.6,1.1,0.2,2.4
		c0.8,1.3,1.3,0.7,1.3,0.7s-0.6-0.3-0.7-1.7c-0.1-1.4,0.4-2.4,0.4-2.4s-0.9-0.4-1-1.2c-0.1-0.8,0.4-0.6,0.5-0.8
		c0.1-0.1-0.1-0.5-0.6-0.6C48.9,53.5,48.8,53.6,48.8,53.6z"/>
	<path fill="#F3777C" d="M54.1,33.4c0,0-0.3-3.4,3.2-4.5c3.8-1.2,4.6,2.3,4.6,2.3s-0.7-1.6-1.6-2c-0.9-0.4-2.6-0.8-4.3,0.5
		C54.4,31.1,54.1,33.4,54.1,33.4z"/>
	<path fill="#9B9B9D" d="M30.6,23.1c0,0-2,0.5-3.6,1.5c-1.7,1-1.8,1.7-1.8,1.7L25.1,26C25.1,26,25.5,24,30.6,23.1z"/>
	<path fill="#9B9B9D" d="M24.6,23c0,0,0.4-0.6,1.9-1.1c1.5-0.5,1.7-0.3,1.7-0.3s-0.5-0.2-1.9,0.2C24.9,22.1,24.6,23,24.6,23z"/>
	<path fill="#9B9B9D" d="M25.4,19.9c0,0,0.5-0.1,1-0.1c0.5,0,0.6,0.1,0.6,0.1s-0.4-0.3-1-0.2C25.5,19.7,25.4,19.9,25.4,19.9z"/>
	<path fill="#9B9B9D" d="M26.6,28.6c0,0,2-2.2,3.2-3.2c1.2-1,1.3-1,1.3-1s-2.4,1.5-3.5,2.6C26.4,27.9,26.6,28.6,26.6,28.6z"/>
	<path fill="#414142" d="M26.5,29.3c0,0-0.6,1.7-0.4,3.1c0.2,1.4,0.7,1.4,0.6,1.6c-0.1,0.2-0.3,0.4-0.4,0.3
		c-0.1-0.2-0.1-0.2-0.1-0.2s-0.4-1.1-0.3-2.5C26.1,30.2,26.6,29.1,26.5,29.3z"/>
	<path fill="#010101" d="M35.4,21.6c0,0,1.7-0.2,2.5,0.7c0.9,0.9,1,1.5,1,1.5s0.3-0.4-0.5-1.6C37.7,21.1,36.1,21.1,35.4,21.6z"/>
	<path fill="#010101" d="M37.4,20.9c0,0,1.3,0.6,1.6,1.6c0.3,1,0.2,1.2,0.2,1.2s0.5-0.3-0.1-1.6C38.5,20.7,37.4,20.9,37.4,20.9z"/>
	<path fill="#9B9B9D" d="M51.2,18.4c0,0,1.1-0.4,2.6-0.4c1.5,0.1,1.8,0.5,1.8,0.5s-0.4-0.8-1.7-0.8C52.6,17.7,51.2,18.4,51.2,18.4z"
		/>
	<path fill="#9B9B9D" d="M51.8,19.5c0,0,2.1,0.7,3.2,1.3c1.1,0.6,1.1,0.6,1.1,0.6s0.2-0.4-1.7-1.1C52.6,19.6,51.8,19.5,51.8,19.5z"
		/>
	<path fill="#9B9B9D" d="M51.2,16.5c0,0,0.2-0.8,1.3-1c1.1-0.2,1.2,0,1.2,0s-0.3-0.3-0.9-0.3C52.2,15.2,51.2,15.7,51.2,16.5z"/>
	<path fill="#9B9B9D" d="M51.7,14.4c0,0-0.2,0.1-0.6,0.3c-0.4,0.2-0.4,0.2-0.4,0.2S50.9,14.5,51.7,14.4z"/>
	<path fill="#EF4137" d="M40.8,18.7c0,0,1-0.4,1.5,0c0.5,0.4,1,2,0.8,3.4c-0.2,1.4-0.9,2.1-1.2,2.3c-0.2,0.2-0.7,0.2-0.7,0.2
		s0.3-0.4,0.3-0.8c0.1-0.4,0-0.5,0-0.5s0.3,0,0.7-0.3c0.4-0.4,0.2-3-0.1-3.6c-0.4-0.6-1-0.3-1-0.3L40.8,18.7z"/>
	<path fill="#EF4137" d="M41.3,23.7c0,0-0.2,0.4-0.5,0.7c-0.3,0.3-0.7,0.4-0.7,0.4l-0.3-0.2C39.8,24.6,40.9,24.1,41.3,23.7z"/>
	<path fill-rule="evenodd" clip-rule="evenodd" fill="#010101" d="M41.3,22.8c0,0,0.7,0.6,0.1,1.5c-0.5,0.9-0.8,0.8-0.8,0.8l-1-0.3
		C39.7,24.8,41.7,24.3,41.3,22.8z"/>
	<path fill-rule="evenodd" clip-rule="evenodd" fill="#2C2D2E" d="M13.6,48.9c0,0,2-0.9,3.5-2.1c1.5-1.2,1.9-1.8,1.9-1.8
		s0.1,1-0.1,1.8c-0.2,0.7-0.4,1-0.4,1s0.3,0.4,2.2-0.5c1.9-0.9,2.6-1.6,3.1-2.2c0.5-0.6,0.5-0.8,0.5-0.8s-0.3,1.4-2.4,2.6
		c-2.1,1.3-2.3,1.1-3.4,1.3c-1.1,0.2-1.5,0.1-1.5,0.1s0.8-0.2,1.3-1c0.5-0.8,0.4-1.2,0.4-1.2s-0.8,0.8-2.3,1.6
		c-1.5,0.8-2.3,1.5-2.3,1.5l0.9,1L13.6,48.9z"/>
	<path fill-rule="evenodd" clip-rule="evenodd" fill="#2C2D2E" d="M16.4,49c0,0,1.9,0.6,4,0c2.1-0.6,3.6-1.5,4.2-2
		c0.6-0.4,0.9-0.8,0.9-0.8L25.2,46c0,0-2,2.2-4.7,2.8C18.5,49.2,16.4,49,16.4,49z"/>
	<path fill-rule="evenodd" clip-rule="evenodd" fill="#434445" d="M14.2,48.9c0,0,3.8,0,6.8-1.3c2.5-1,3.5-2.6,3.5-2.6
		s0,1.1-2.7,2.5C19.2,49,14.2,48.9,14.2,48.9z"/>
	<path fill-rule="evenodd" clip-rule="evenodd" fill="#7A7B7D" d="M19,45.1c0,0-1.4,1.7-3,2.6c-1.5,0.9-2.6,1.3-2.6,1.3
		s2.5,2.2,3.9,3c1.4,0.8,2.2,0.8,2.2,0.8s-1.4-0.5-2.1-0.9c-0.7-0.3-3.6-2.9-3.6-2.9s2-0.8,3.6-2.1c1.5-1.3,1.5-1.3,1.5-1.3
		s0,0.9-0.1,1.5c-0.2,0.6-0.6,1-0.6,1s1.6,0,3.2-1.1c1.6-1,1.7-1.2,1.7-1.2s-1.7,1.2-2.9,1.6c-1.2,0.4-1.5,0.5-1.5,0.5
		s0.4-0.9,0.4-1.7C19.1,45.4,19,45.1,19,45.1z"/>
	<path fill="#B12024" d="M51,56.4c0,0,1.1,0.2,2-0.4c0.9-0.6,0.9-1.2,0.9-1.2s0,1.8-0.8,2.4C52.3,57.8,51,57.1,51,56.4z"/>
	<path fill="#B12024" d="M46.8,54.7c0,0-0.2,0.8,0.1,1.9c0.3,1.1,0.9,2.2,0.9,2.2l-0.1,0.7l-0.4-0.5c0,0-1.3-1.1-1.6-2.4
		C45.5,55.3,46,54.1,46.8,54.7z"/>
	<path fill="#B12024" d="M45.2,59.4c0,0,0.6,0.4,1.3,0.3c0.7-0.1,0.8-0.4,1.3,0.2c0.5,0.6,1.5,1.6,1.7,1.3c0.2-0.3,0.3-0.9,0.8-0.6
		c0.6,0.4,1.9,1.3,2.9,0.5c1-0.8,0.5-4,0.5-4s0.3,1.4,0.7,1.5c0.4,0.1-0.2-0.9-0.2-0.9l1.4,0.2c0,0,0,1.8-1.3,3.2
		c-1.3,1.4-2.1,1.2-2.9,0.6c-0.8-0.6-1.2-0.8-1.3-0.6c-0.1,0.2,0,0.9-0.8,0.6c-0.8-0.3-1.2-1-1.6-1.2c-0.3-0.1-0.9,0-1.5-0.1
		C45.9,60.3,45.2,59.4,45.2,59.4z"/>
	<path fill="#F04D4A" d="M46.8,54.7c0,0-0.4-0.9-1.5-0.6c-1.1,0.3-1.2,1.9-1,3.1c0.3,1.2,0.9,2.3,1.1,2.4c0.2,0.1-0.9-1.5-0.9-3.1
		c0-1.6,1-2.2,1.4-2c0.5,0.2,0.9,0.4,0.9,0.4L46.8,54.7z"/>
	<path fill="#F04D4A" d="M49.9,53.8c0,0-2.2-1.1-2.6,1c-0.4,2.1,0.9,4.1,0.9,4.1l-0.4,0.9l0.9-1c0,0-1.3-1.6-1.2-3.2
		C47.6,54.1,48.6,53.5,49.9,53.8z"/>
	<path fill="#F04D4A" d="M48.3,59.4c0,0-0.3,0.6,0.2,1c0.5,0.4,0.4-0.8,0.2-1C48.4,59.1,48.3,59.4,48.3,59.4z"/>
	<path fill="#F04D4A" d="M51,56.6c0,0-0.8,1.5-0.3,2.6c0.5,1.1,0.1,1.1,0.1,1.1l0.5,0.1c0,0,0.7-0.2,0.3-0.4c-0.4-0.2-0.6-1-0.6-2
		c0-1-0.1-1.5-0.1-1.5L51,56.6z"/>
	<path fill="#F04D4A" d="M54.1,52.9c0,0-1-0.7-1.9,0c-0.9,0.7-1.4,1.5-1.9,1.6c-0.5,0.1-0.6,0.5-0.2,0.9c0.4,0.4,1,0.5,1,0.5
		s-0.7-0.5-0.7-0.7c0-0.2,0.1-0.5,0.7-0.4c0.5,0.1,0.6-0.3,1.2-1.1C52.7,52.9,53.3,52.7,54.1,52.9z"/>
	<path fill="#F04D4A" d="M29.5,56.4c0,0,0.4,1.1,1.5,1.1c1,0,1.9,0.2,2.4,0.7c0.4,0.6,1.2,1.5,1.9,1.3c0,0-0.7-0.1-1.1-0.7
		c-0.4-0.6-0.7-1.4-1.4-1.5c-0.6-0.1-1.4,0.1-2.1-0.2C29.9,56.8,29.5,56.4,29.5,56.4z"/>
	<path fill="#F04D4A" d="M28.7,54.9c0,0,0.5-0.8,0.9,0c0.4,0.8-0.1,0.9-0.1,0.9s1-0.1,0.4-1.1c-0.6-1-1.6-0.1-1.2,0.3L28.7,54.9z"/>
	<path fill="#F04D4A" d="M25.1,49.4c0,0-0.8,1.1-0.3,3.3c0.5,2.2,1.8,3.5,1.9,3c0.1-0.5,0.3-0.6,0.7-0.1c0.5,0.5,1,0.8,1.4,0.8
		c0.4,0,0.4,0,0.4,0s-0.2,0.3-0.7,0.3c-0.5,0-0.9-0.6-1.2-0.6c-0.3,0.1-0.3,0.7-0.7,0.6c-0.4-0.1-1.6-1.1-2.2-2.9
		C23.7,52.1,24,49.7,25.1,49.4z"/>
	<path fill="#F04D4A" d="M28.5,57.4c0,0,0.5,0.9,2,1.1c1.6,0.2,2-0.2,2-0.2s-0.8,0.2-2,0C29.5,58,28.5,57.4,28.5,57.4z"/>
	<path fill="#F04D4A" d="M31.9,51.8c0,0,0.1-0.7,0.6-0.4c0.5,0.3,1.6,1.4,2.6,1.4c0.9,0,0.9-0.7,0.6-1c-0.2-0.3-0.9-0.6-0.9-0.6
		s0.6,0.5,0.4,0.8c-0.2,0.4-0.8,0.1-1.6-0.4c-0.7-0.4-1.1-1-1.5-1.1C31.8,50.6,31.9,51.8,31.9,51.8z"/>
	<path fill="#F0E23C" d="M70.3,55.9c0,0,1.1,2.1,3,3c1.8,0.9,2.5,1.1,2.5,1.1s-2.3-0.3-4.1-0.9c-1.9-0.6-1.9-0.6-1.9-0.6
		s-0.4,0.4-0.4,1.7c0,1.2,0.1,1.9,0.1,1.9s-0.7-1.7-0.6-3.1C69.1,57.5,70.2,55.7,70.3,55.9z"/>
	<path fill="#F0E23C" d="M71.3,63.8c0,0,0.9,0.6,1.5,2.1c0.6,1.5,0.6,2.5,0.6,2.5s-1.3-1.7-3.1-2.3c-1.8-0.6-5.5-1.1-6.9-1.7
		c-1.4-0.5-2.5-1.5-3-3C59.9,59.9,60,58,60,58s0,4.3,2.6,5.6c2.6,1.3,3.7,1.1,6.1,1.8c2.4,0.7,3.9,1.5,3.9,1.5s-0.5-0.9-0.8-1.5
		c-0.3-0.6-0.3-0.6-0.3-0.6l-0.7,0.4c0,0-2-0.1-3.1-0.4c-1.1-0.3-1.1-0.3-1.1-0.3s2.4,0.5,3.4,0.5c1,0,0.7-0.1,0.7-0.1L71.3,63.8z"
		/>
	<path fill="#F0E23C" d="M69.6,61.8c0,0,1.2-0.9,2.9-1.4c1.8-0.5,2.6-0.4,2.6-0.4s-2-0.3-3.6,0.2C70,60.7,69.6,61.8,69.6,61.8z"/>
	<path fill="#F0E23C" d="M75.6,51.7c0,0-0.6,1.5-1.5,2.2c-0.9,0.7-1.6,1-1.6,1l-0.3-1.3c0,0-3.7-1.5-6.3-0.9c-2.6,0.6-3,1.8-3,1.8
		s0.3-2.1,4.1-2.1c3.8,0,5.6,1,5.6,1l0.3,0.8c0,0,0.8-0.4,1.2-0.9c0.4-0.6,0.4-0.7,0.4-0.7s-1.8,0.3-4.4-0.2
		c-2.6-0.5-5.2-0.9-6.9-0.2c-1.7,0.7-2.2,1.9-2.7,3c-0.4,1.1-0.5,1.8-0.5,1.8s0.2-4.5,3.4-5.2c3.2-0.8,4.9,0.1,6.5,0.4
		C71.5,52.4,74.3,52.8,75.6,51.7z"/>
	<path fill="#F0E23C" d="M54.4,56.7l5.2,0.6l0,0.3l-5.2-0.5C54.3,57.1,54.1,56.6,54.4,56.7z"/>
	<path fill-rule="evenodd" clip-rule="evenodd" fill="#771213" d="M54.3,54c-0.1,0-0.2,0.1-0.1,0.2c0.5,0.2,0.4,1-0.1,1.3
		c0-0.2,0-0.5-0.1-0.7c0-0.1-0.2-0.2-0.2,0c-0.2,1.1-0.1,2.8,0.4,3.8c0.2,0.3,0.6,0,0.4-0.3c-0.2-0.3-0.3-0.8-0.3-1.2
		c-0.1-0.3-0.1-0.7-0.2-1.1c0,0,0,0,0.1,0C55.1,55.7,55.3,54.3,54.3,54z"/>
	<path fill="#F0E23C" d="M33.3,52.7l10.5,2.4l-0.1,0.3l-10.6-2.3C33.1,53.1,32.9,52.6,33.3,52.7z"/>
	<path fill="#F0E23C" d="M62.8,56.1c0,0,0.3,1,1.7,1.4c1.4,0.4,4.3,0.8,4.3,0.8s-2.4,0.1-4.7-0.6C62.5,57.3,62.8,56.1,62.8,56.1z"/>
	<path fill="#FFFFFF" d="M70.2,56c0,0-1,1.4-1.1,2.9c-0.1,1.5,0.3,3,0.3,3s-0.1-2,0-2.8c0.1-0.8,0.1-0.8,0.1-0.8s2.3,1,3.7,1.3
		c1.4,0.3,1.4,0.3,1.4,0.3s-2.4-1.1-3.3-1.8c-0.9-0.7-1.3-1-1.3-1l0.4-0.6C70.6,56.4,70.4,55.9,70.2,56z"/>
	<path fill="#FFFFFF" d="M64.6,53.2c0,0-1.9,0.8-1.8,2.3c0.1,1.5,0.7,1.7,2.1,2c1.7,0.4,1.4,0.4,1.4,0.4s-2.4,0-3.6-1.2
		C61.5,55.4,63.1,53.4,64.6,53.2z"/>
	<path fill="#FFFFFF" d="M63.3,51.8c0,0-2.3,1.3-2.7,3.4c-0.5,2.1-0.5,6.1,0.8,7.4c1.4,1.2,3.3,2,4.2,2.2c0.9,0.2,3.2,0.5,5.1,1.2
		c1.8,0.8,2.4,1.8,2.4,1.8s0-0.9-0.7-2.1c-0.6-1.2-1.1-1.9-1.1-1.9s1.1,0.7,1.5,1.8c0.4,1.1,0.6,2.8,0.6,2.8s-1.5-1.8-3.1-2.3
		c-1.6-0.5-4.7-1-6.2-1.4c-1.5-0.4-2.9-1.1-3.5-2.7c-0.6-1.5-1-4.6-0.2-7.2C61.3,52,63.3,51.8,63.3,51.8z"/>
	<path fill="#FFFFFF" d="M62.5,58.7c0,0-0.8,0.7-0.4,2.1c0.4,1.5,2.3,2.7,2.3,2.7s-2-0.9-2.7-2.5C61.1,59.5,62.5,58.7,62.5,58.7z"/>
	<path fill="#FFFFFF" d="M54.4,56.7l5.2,0.6c0,0-1,0.2-2.6,0C55.4,57.1,54.4,56.7,54.4,56.7z"/>
	<path fill="#E58425" d="M62.9,53.6c0,0-1.4,1.3-1.2,2.4c0.2,1.1,0.8,1.7,0.8,1.7s-1.3,1.1-1.3,2.3c0,1.2,0.2,1.6,0.2,1.6
		s-0.9-0.9-0.8-3.8C60.6,55,62.2,54,62.9,53.6z"/>
	<path fill="#E58425" d="M68.7,58.3L67.3,58c0,0,0.2,0,0.3,0.2c0.1,0.2-2,0.1-2,0.1l3.1,0.8l0.2-0.9L68.7,58.3z"/>
	<path fill="#E58425" d="M69.8,61.5c0,0,1-1.4,2.4-1.5c1.4-0.1,1.7-0.1,1.7-0.1s-1.8-0.4-3,0C69.7,60.3,69.8,61.5,69.8,61.5z"/>
</g>
</svg>
