<?xml version="1.0" encoding="utf-8"?>
<!-- Generator: Adobe Illustrator 18.0.0, SVG Export Plug-In . SVG Version: 6.00 Build 0)  -->
<!DOCTYPE svg PUBLIC "-//W3C//DTD SVG 1.1//EN" "http://www.w3.org/Graphics/SVG/1.1/DTD/svg11.dtd">
<svg version="1.1" id="Layer_1" xmlns="http://www.w3.org/2000/svg" xmlns:xlink="http://www.w3.org/1999/xlink" x="0px" y="0px"
	 viewBox="0 0 50 50" enable-background="new 0 0 50 50" xml:space="preserve">
<g>
	<g>
		<g>
			<g>
				<path fill="#030304" d="M21.8,6c1.7-0.5,3.5-0.7,5.3-0.8c2,0.2,4.1,0.4,6,1c4.8,1.5,8.9,4.9,11.3,9.3c2.1,3.8,2.9,8.3,2.2,12.6
					c-0.6,4.2-2.7,8.1-5.7,11c-2.9,2.8-6.7,4.7-10.6,5.3c-4.2,0.7-8.6,0-12.4-2.1c-0.5-0.3-1-0.6-1.6-0.9c-1.4,1.2-3.2,1.7-5,1.8
					c-2.3,0.1-4.8-0.7-6.4-2.4c-1.2-1.2-1.7-2.9-1.7-4.6c0-4.2,0-8.4,0-12.6c0-1,0.6-2.2,1.6-2.5c0.6-0.2,1.2-0.1,1.7,0.1
					c-0.1-1.1,0.6-2.2,1.7-2.5c1.1-3.3,3-6.4,5.7-8.7C16.2,8.3,18.9,6.8,21.8,6z M16,10.2c-3,2.2-5.2,5.3-6.5,8.8
					c0.2,0.1,0.3,0.2,0.5,0.3c0.3-1,1.1-1.8,2.1-1.8c1.3-0.1,2.4,1.1,2.3,2.3c0.6-0.3,1.3-0.5,1.9-0.2c0.6,0.1,1,0.6,1.3,1.1
					c0.1,0.4,0.2,0.7,0.2,1.1c0,3.5,0,7,0,10.6c0.6-0.8,1.2-1.6,1.8-2.4c1-1,3-0.6,3.6,0.7c0.4,0.8,0.2,1.7-0.4,2.4
					c-2,2.5-3.8,5.1-5.8,7.5c3.3,2.1,7.2,3.1,11.1,2.9c3.5-0.2,6.9-1.4,9.7-3.4c3.2-2.3,5.6-5.6,6.8-9.4c1.3-3.9,1.2-8.1-0.2-12
					c-1.3-3.7-3.9-6.9-7.1-9.1c-3.1-2-6.7-3.2-10.4-3.2C23.1,6.5,19.2,7.8,16,10.2z M11,19.7c0,3.1,0,6.2,0,9.3c-0.3,0-0.6,0-0.9,0
					c-0.1-2.6,0-5.2,0-7.9c0-0.8-1-1.5-1.8-1.1c-0.4,0.1-0.5,0.5-0.7,0.8c0,2.7,0,5.4,0,8.1c-0.3,0-0.6,0-1,0c0-2,0-4.1,0-6.1
					c-0.3-0.3-0.6-0.6-1-0.6c-0.7-0.1-1.3,0.5-1.3,1.2c0,4.7,0,9.5,0,14.3C4.4,38.9,5,40,6,40.8c1.4,1.2,3.4,1.8,5.3,1.7
					c2.2-0.1,4.5-1.1,5.6-3.1c1.8-2.4,3.6-4.7,5.4-7.1c0.5-0.7,0-1.7-0.8-1.9c-0.5-0.1-1,0.2-1.2,0.5c-0.8,1-1.6,2.1-2.4,3.1
					c-0.1,0-0.3,0.1-0.4,0.1c-0.1,0-0.3-0.1-0.4-0.2c0-0.2-0.1-0.4-0.1-0.5c0.1-3.9,0-7.8,0-11.7c0.1-1-1.1-1.6-1.9-1.1
					c-0.2,0.3-0.5,0.6-0.5,1c0,2.4,0,4.9,0,7.3c-0.3,0-0.6,0-1,0c-0.1-3.1,0-6.2-0.1-9.4c0-0.6-0.6-0.9-1.1-1.2
					C11.7,18.6,11.1,19,11,19.7z"/>
			</g>
		</g>
		<g>
			<path fill="#030304" d="M40.5,16c0.4-0.1,0.9-0.2,1.3-0.2c0.1,1.6-0.6,3.2-1.9,4.2c-1.7,1.4-4.4,1.5-6.1,0.1
				c-0.8-0.6-1.4-1.4-1.7-2.4c0.4-0.1,0.8-0.2,1.3-0.3c0.5,0.9,1.2,1.8,2.3,2.1c1.6,0.6,3.6-0.2,4.4-1.7
				C40.3,17.2,40.4,16.6,40.5,16z"/>
		</g>
		<g>
			<path fill="#030304" d="M28.7,17.8c0.4-0.1,0.9-0.2,1.3-0.2c0.1,1.5-0.6,3.1-1.8,4.1c-1.6,1.4-4.2,1.6-6,0.3
				c-0.9-0.6-1.6-1.5-1.9-2.5c0.4-0.1,0.9-0.2,1.3-0.2c0.4,0.8,1,1.5,1.9,1.9c0.5,0.3,1.1,0.3,1.7,0.4c1.2-0.1,2.5-0.8,3.1-1.9
				C28.5,19.1,28.6,18.4,28.7,17.8z"/>
		</g>
		<g>
			<path fill="#030304" d="M29.7,31.6c1.1-1.3,3-2,4.7-1.6c1.7,0.3,3.3,1.6,3.8,3.2c-0.4,0.1-0.9,0.2-1.3,0.3c-0.4-0.8-1.1-1.6-2-2
				c-1.2-0.5-2.7-0.3-3.7,0.5c-0.9,0.7-1.3,1.8-1.4,2.9c-0.5,0.1-0.9,0.2-1.4,0.2C28.5,33.9,28.9,32.6,29.7,31.6z"/>
		</g>
	</g>
	<g>
		<g>
			<g>
				<path fill="#FFFFFF" d="M16,10.2c3.2-2.4,7.2-3.7,11.1-3.7c3.7,0,7.3,1.2,10.4,3.2c3.2,2.2,5.8,5.4,7.1,9.1
					c1.4,3.8,1.4,8.1,0.2,12c-1.2,3.7-3.7,7.1-6.8,9.4c-2.8,2-6.2,3.2-9.7,3.4c-3.9,0.2-7.8-0.8-11.1-2.9c2-2.5,3.9-5,5.8-7.5
					c0.5-0.7,0.8-1.6,0.4-2.4c-0.6-1.3-2.5-1.8-3.6-0.7c-0.7,0.8-1.2,1.6-1.8,2.4c0-3.5,0-7,0-10.6c0-0.4-0.1-0.8-0.2-1.1
					c-0.4-0.4-0.7-0.9-1.3-1.1c-0.6-0.2-1.3-0.1-1.9,0.2c0.1-1.3-1.1-2.4-2.3-2.3c-1,0-1.9,0.8-2.1,1.8c-0.2-0.1-0.3-0.2-0.5-0.3
					C10.8,15.5,13,12.4,16,10.2z M40.5,16c-0.1,0.6-0.2,1.3-0.5,1.8c-0.8,1.5-2.8,2.3-4.4,1.7c-1-0.3-1.8-1.2-2.3-2.1
					c-0.4,0.1-0.8,0.2-1.3,0.3c0.3,0.9,0.9,1.8,1.7,2.4c1.8,1.4,4.4,1.3,6.1-0.1c1.3-1,2-2.6,1.9-4.2C41.4,15.8,40.9,15.9,40.5,16z
					 M28.7,17.8c-0.1,0.6-0.2,1.3-0.5,1.8c-0.6,1.1-1.8,1.8-3.1,1.9c-0.6-0.1-1.1-0.1-1.7-0.4c-0.8-0.4-1.4-1.1-1.9-1.9
					c-0.4,0.1-0.9,0.2-1.3,0.2c0.3,1,1,1.9,1.9,2.5c1.8,1.2,4.4,1.1,6-0.3c1.2-1,1.9-2.6,1.8-4.1C29.5,17.6,29.1,17.7,28.7,17.8z"/>
			</g>
		</g>
		<g>
			<path fill="#FFFFFF" d="M11,19.7c0.1-0.7,0.7-1.1,1.4-1.2c0.5,0.2,1,0.6,1.1,1.2c0.1,3.1,0,6.2,0.1,9.4c0.3,0,0.6,0,1,0
				c0-2.4,0-4.9,0-7.3c0-0.4,0.3-0.7,0.5-1c0.8-0.4,2,0.2,1.9,1.1c0,3.9,0.1,7.8,0,11.7c0,0.2,0.1,0.4,0.1,0.5
				c0.1,0,0.3,0.1,0.4,0.2c0.1,0,0.3-0.1,0.4-0.1c0.8-1,1.6-2.1,2.4-3.1c0.3-0.4,0.8-0.7,1.2-0.5c0.8,0.1,1.3,1.2,0.8,1.9
				c-1.8,2.4-3.6,4.7-5.4,7.1c-1.1,2-3.4,2.9-5.6,3.1C9.4,42.6,7.4,42,6,40.8C5,40,4.4,38.9,4.3,37.7c0-4.7,0-9.5,0-14.3
				c0-0.7,0.6-1.3,1.3-1.2c0.4,0,0.7,0.3,1,0.6c0,2,0,4.1,0,6.1c0.3,0,0.6,0,1,0c0-2.7,0-5.4,0-8.1c0.2-0.3,0.3-0.7,0.7-0.8
				C9,19.6,10,20.3,10,21.1c0,2.6,0,5.2,0,7.9c0.3,0,0.6,0,0.9,0C11,25.9,11,22.8,11,19.7z"/>
		</g>
	</g>
	<g>
		<path d="M31,32.7c-2.2,0-3.9-0.9-3.9-0.9l0.8-1.5l-0.4,0.7l0.4-0.7c0.2,0.1,4.8,2.4,8.1-2l1.3,1C35.3,32,33,32.7,31,32.7z"/>
	</g>
</g>
</svg>
