<?xml version="1.0" encoding="UTF-8" ?>
<!DOCTYPE svg PUBLIC "-//W3C//DTD SVG 1.1//EN" "http://www.w3.org/Graphics/SVG/1.1/DTD/svg11.dtd">
<svg width="190pt" height="175pt" viewBox="0 0 190 175" version="1.1" xmlns="http://www.w3.org/2000/svg">
<g id="#ffffffff">
<path fill="#ffffff" opacity="1.00" d=" M 84.26 36.58 C 90.50 38.53 97.35 39.13 103.42 36.21 C 99.35 42.76 89.12 41.65 84.26 36.58 Z" />
</g>
<g id="#030202ff">
<path fill="#030202" opacity="1.00" d=" M 93.50 0.00 L 98.65 0.00 C 103.14 0.45 107.70 1.80 111.13 4.86 C 114.25 7.45 116.04 11.18 117.54 14.85 C 119.46 15.19 122.08 14.58 123.30 16.54 C 124.12 18.36 123.60 20.48 123.92 22.41 C 125.49 23.71 127.65 24.43 128.77 26.22 C 129.91 28.38 128.28 30.49 127.30 32.34 C 127.99 35.21 128.37 38.15 128.24 41.11 C 130.92 44.06 134.54 45.80 137.73 48.10 C 142.05 47.87 146.22 49.57 148.64 53.24 C 154.20 54.43 159.76 57.11 162.80 62.13 C 165.30 65.97 166.32 70.53 166.96 75.00 C 168.83 76.13 170.80 77.13 172.41 78.63 C 174.08 80.08 173.98 82.47 174.43 84.46 C 175.78 85.81 177.79 86.91 178.02 89.00 C 178.62 91.95 178.41 95.70 181.51 97.32 C 187.08 100.44 189.40 106.80 190.00 112.84 L 190.00 118.56 C 189.52 121.47 188.81 124.53 186.75 126.76 C 185.05 128.77 182.39 129.44 180.02 130.31 C 179.03 134.37 177.48 138.41 174.61 141.54 C 171.19 145.37 165.15 145.59 162.21 149.98 C 159.11 154.63 153.66 157.57 148.08 157.70 C 143.33 157.75 138.36 157.78 134.03 160.00 C 130.28 161.92 126.34 163.49 122.15 164.09 C 121.47 165.40 120.90 166.80 120.00 167.98 C 118.57 168.96 116.71 168.82 115.08 169.20 C 113.92 172.19 111.12 172.96 108.16 172.30 C 107.03 173.25 105.91 174.19 104.69 175.00 L 102.01 175.00 C 100.19 174.08 98.62 172.78 96.87 171.76 C 93.90 171.69 90.92 171.80 87.95 171.81 C 85.81 172.61 84.00 174.05 81.93 175.00 L 79.24 175.00 C 78.03 174.04 76.92 172.96 75.83 171.87 C 73.92 171.48 72.07 170.82 70.16 170.48 C 67.26 171.37 63.98 172.75 61.14 170.88 C 57.95 169.30 58.68 163.99 54.88 163.34 C 48.71 161.93 42.08 161.80 36.49 158.47 C 32.87 155.99 28.21 156.69 24.40 154.71 C 21.29 153.32 18.71 151.04 16.50 148.50 C 14.32 145.91 11.20 144.42 8.84 142.05 C 6.54 139.55 5.96 136.08 4.82 132.99 C 3.75 129.97 1.81 127.23 1.43 123.99 C 1.06 120.76 2.05 117.60 2.80 114.50 C 1.82 113.26 0.83 112.02 0.00 110.68 L 0.00 107.37 C 0.77 104.06 3.45 101.84 5.30 99.16 C 6.68 96.15 5.48 92.36 7.40 89.51 C 9.98 86.52 14.25 85.68 16.83 82.69 C 18.10 80.17 17.25 77.10 18.43 74.53 C 20.55 72.52 24.21 72.43 25.50 69.54 C 27.99 65.00 29.09 59.60 32.83 55.84 C 34.87 53.69 38.01 53.53 40.57 52.34 C 45.06 48.48 49.78 44.67 55.29 42.38 C 57.21 40.88 59.12 39.35 61.26 38.17 C 61.77 35.47 62.49 32.80 63.49 30.23 C 62.65 28.59 61.00 26.97 61.48 24.96 C 61.97 22.27 64.82 21.27 66.83 19.93 C 67.31 17.84 67.15 15.37 68.68 13.68 C 70.31 12.55 72.16 13.69 73.74 14.28 C 75.55 10.51 77.60 6.65 81.03 4.11 C 84.59 1.36 89.13 0.47 93.50 0.00 M 85.85 3.53 C 77.41 6.51 74.92 16.01 71.63 23.36 C 73.48 23.41 75.33 23.47 77.18 23.59 C 74.22 24.74 70.94 25.34 68.46 27.43 C 62.89 31.74 62.61 41.35 68.06 45.85 C 70.31 47.67 71.59 50.30 73.36 52.53 C 76.68 56.04 81.75 57.03 86.41 56.89 C 86.39 56.46 86.35 55.59 86.34 55.15 C 89.80 59.58 96.59 58.91 100.09 54.90 C 99.94 55.65 99.64 57.17 99.49 57.93 C 103.22 58.58 107.40 58.99 110.70 56.76 C 113.09 55.40 114.43 52.92 115.50 50.50 C 121.04 48.54 125.18 42.94 124.10 36.92 C 123.48 30.58 117.93 26.58 112.57 24.18 C 114.15 24.25 115.73 24.33 117.31 24.42 C 115.51 17.16 113.14 8.89 106.27 4.84 C 99.99 1.84 92.47 1.68 85.85 3.53 M 69.17 15.01 C 68.48 16.85 68.69 18.84 68.64 20.77 C 67.25 21.35 65.83 21.89 64.53 22.65 C 62.37 23.56 63.56 25.85 63.77 27.51 C 67.60 25.56 70.77 22.15 72.06 18.02 C 72.75 16.48 70.88 13.95 69.17 15.01 M 118.10 18.02 C 117.19 23.31 121.58 26.88 125.20 29.85 C 125.50 28.50 126.51 26.92 125.31 25.71 C 124.06 24.31 122.10 23.98 120.45 23.28 C 120.78 21.54 121.47 19.80 121.26 18.00 C 121.97 16.04 117.51 16.11 118.10 18.02 M 54.74 50.63 C 51.60 55.90 48.96 61.73 48.98 67.99 C 48.90 73.45 49.68 79.85 54.52 83.25 C 53.36 79.62 51.22 76.06 51.74 72.10 C 52.06 68.36 54.27 65.23 56.19 62.14 C 59.27 57.32 59.34 51.35 61.81 46.27 C 62.15 48.71 62.30 51.17 62.39 53.63 C 63.83 51.79 65.25 49.95 66.61 48.06 C 64.44 45.78 62.60 43.23 60.92 40.58 C 56.90 42.44 56.81 47.26 54.74 50.63 M 119.96 50.94 C 120.91 52.62 121.88 54.28 122.86 55.94 C 123.56 53.44 124.46 51.01 125.70 48.73 C 125.84 52.51 124.90 56.65 126.74 60.15 C 129.97 64.33 134.41 68.24 134.79 73.88 C 135.53 78.00 132.69 81.36 131.77 85.15 L 133.16 85.31 C 136.64 81.45 137.54 75.87 136.84 70.86 C 136.12 65.19 132.13 60.72 130.49 55.36 C 129.02 51.33 128.99 46.92 127.22 42.99 C 125.15 45.94 122.89 48.78 119.96 50.94 M 44.42 61.54 C 42.93 57.23 44.60 52.92 45.89 48.81 C 41.25 52.73 40.41 59.24 40.63 64.95 C 40.92 71.87 44.60 78.32 50.07 82.47 C 45.92 75.05 45.51 66.08 48.16 58.08 C 49.51 53.07 53.41 49.30 54.90 44.35 C 46.87 45.77 46.02 55.12 44.42 61.54 M 129.90 45.65 C 129.94 51.94 134.16 56.79 137.04 62.00 C 139.88 67.03 139.55 72.98 139.17 78.53 C 141.31 75.75 143.70 72.80 143.94 69.14 C 144.57 63.03 140.03 58.26 138.11 52.82 C 142.80 54.36 145.59 59.07 145.83 63.84 C 146.16 69.47 145.09 75.79 140.94 79.94 C 138.36 82.23 136.13 84.87 134.27 87.78 C 135.03 88.84 135.80 89.91 136.56 90.98 C 136.79 86.98 138.40 82.95 141.93 80.76 C 146.39 77.39 152.25 78.15 157.44 78.74 C 154.13 81.98 148.82 79.64 145.02 82.06 C 140.05 84.22 138.31 90.05 139.40 95.04 C 143.50 88.98 148.66 82.78 156.20 81.19 C 161.30 79.53 166.29 82.04 171.21 83.09 C 171.06 79.08 167.09 77.85 164.58 75.55 C 163.36 71.47 163.29 66.89 160.49 63.43 C 157.18 58.22 151.23 55.64 145.38 54.51 C 144.40 53.19 143.58 51.72 142.32 50.66 C 140.21 49.69 137.81 49.83 135.56 49.52 C 134.14 47.62 132.32 46.06 129.90 45.65 M 68.45 49.21 C 65.29 54.95 60.70 59.69 57.27 65.24 C 54.56 69.48 53.84 75.64 57.55 79.53 C 60.49 82.39 64.94 81.81 68.52 80.76 C 74.20 79.07 79.99 77.47 85.96 77.57 C 96.43 77.72 106.99 78.97 116.94 82.38 C 121.11 83.56 126.73 84.86 129.89 80.95 C 133.80 76.96 132.57 70.61 129.41 66.56 C 125.54 61.65 120.78 57.45 117.57 52.02 C 115.94 56.55 112.02 60.35 107.05 60.70 C 103.22 61.58 99.57 58.46 95.82 60.08 C 91.39 61.84 87.44 57.82 82.94 58.84 C 76.50 59.27 71.55 54.30 68.45 49.21 M 27.51 69.37 C 26.25 72.53 23.36 74.42 20.33 75.66 C 19.59 78.15 19.19 80.76 18.10 83.13 C 15.78 86.22 11.45 86.92 9.09 89.97 C 7.06 92.81 7.35 96.45 6.45 99.67 C 4.94 103.04 0.98 105.77 2.24 109.91 C 5.26 110.38 6.64 106.89 8.30 104.99 C 6.93 105.89 5.58 106.82 4.21 107.72 C 4.36 103.53 8.71 101.74 10.28 98.20 C 14.15 90.49 23.65 86.22 31.95 88.81 C 36.93 90.37 43.32 93.92 41.88 100.18 C 42.36 100.73 43.33 101.84 43.81 102.39 C 44.91 95.65 46.35 87.35 41.05 81.96 C 36.20 76.68 28.29 77.26 21.93 78.86 C 25.89 73.81 33.52 73.30 39.00 75.90 C 43.98 79.07 45.64 85.14 47.06 90.51 C 47.97 89.39 48.97 88.32 49.72 87.08 C 48.40 82.91 44.62 80.27 42.37 76.67 C 41.29 75.07 40.54 73.25 39.21 71.84 C 36.91 70.49 34.07 70.75 31.52 70.23 C 33.34 68.01 36.24 68.21 38.81 68.58 C 38.03 63.53 38.58 58.41 40.09 53.56 C 33.61 56.58 30.37 63.22 27.51 69.37 M 56.38 84.18 C 51.23 88.68 46.33 94.77 47.00 102.04 C 47.13 111.08 53.60 118.55 60.85 123.22 C 67.81 127.43 75.88 129.30 83.84 130.57 C 97.99 132.89 113.15 130.13 125.14 122.13 C 132.17 117.42 138.06 109.77 138.06 100.99 C 138.04 94.65 133.43 89.67 128.65 86.10 C 124.31 86.60 119.91 86.03 115.86 84.38 C 104.84 80.13 92.83 78.45 81.07 79.69 C 72.65 80.41 65.09 87.45 56.38 84.18 M 150.29 86.19 C 145.32 88.82 142.42 94.06 140.66 99.20 C 143.11 98.41 145.60 97.75 148.02 96.89 C 151.72 95.71 153.86 91.36 158.09 91.55 C 164.32 91.43 170.56 93.76 175.33 97.75 C 178.46 100.09 178.26 104.47 180.59 107.37 C 183.16 110.57 185.45 114.71 184.21 118.93 C 183.98 120.79 182.02 121.22 180.68 122.04 C 180.77 119.88 180.91 117.73 180.93 115.57 C 178.78 118.60 179.27 122.38 179.46 125.87 C 182.31 124.89 185.31 123.39 186.33 120.32 C 188.36 114.40 187.18 107.44 183.36 102.48 C 181.51 100.03 178.58 98.69 176.75 96.23 C 175.02 92.92 175.56 88.25 172.05 86.02 C 165.47 82.22 156.87 82.53 150.29 86.19 M 14.21 96.16 C 10.72 100.05 7.97 106.72 11.65 111.30 C 12.59 108.10 13.49 104.88 14.27 101.64 C 17.52 105.66 11.32 112.76 17.28 115.61 C 17.63 110.92 19.35 106.45 19.46 101.72 C 24.16 105.04 17.71 111.77 21.33 115.70 C 22.60 116.67 24.78 117.50 25.99 115.99 C 24.09 111.33 24.84 106.40 25.55 101.58 C 28.45 105.05 25.56 110.05 27.87 113.85 C 28.67 115.92 31.93 115.85 32.77 113.86 C 32.79 111.11 30.69 108.74 30.98 105.96 C 31.55 104.38 33.03 103.40 34.11 102.21 C 36.97 104.10 38.15 108.71 42.10 108.50 C 43.84 108.68 45.18 107.10 44.59 105.45 C 43.09 103.88 40.64 103.14 39.97 100.89 C 38.92 98.43 38.59 95.46 36.34 93.71 C 30.13 87.80 19.39 89.83 14.21 96.16 M 150.21 98.15 C 147.98 99.19 145.58 99.81 143.36 100.88 C 144.16 101.87 144.60 103.51 146.12 103.62 C 149.52 104.16 152.39 101.78 155.43 100.70 C 155.14 103.69 156.38 107.47 153.69 109.67 C 152.35 111.26 149.42 113.39 151.43 115.59 C 154.54 117.45 157.31 114.03 158.68 111.60 C 160.10 109.56 159.48 106.12 162.32 105.28 C 162.02 110.47 159.31 115.09 155.36 118.36 C 156.70 119.28 158.18 120.58 159.93 119.81 C 163.15 118.86 164.38 115.38 165.53 112.58 C 166.20 111.14 166.74 108.66 168.87 109.29 C 167.94 113.53 165.52 117.27 163.53 121.08 C 166.06 121.11 168.95 120.74 170.34 118.31 C 172.47 115.98 171.42 111.24 175.20 110.62 C 174.47 113.39 173.31 116.06 173.06 118.94 C 175.26 118.69 177.79 118.04 178.64 115.70 C 180.89 111.26 178.00 106.73 176.36 102.65 C 173.08 96.51 165.48 94.37 159.01 94.01 C 155.43 93.64 152.98 96.47 150.21 98.15 M 141.26 105.03 C 140.74 106.66 140.21 108.28 139.65 109.90 C 141.65 109.90 143.66 109.95 145.66 110.11 C 142.98 113.23 138.04 113.06 135.50 116.50 C 127.86 125.54 116.50 130.46 105.12 132.78 C 100.12 133.19 95.83 138.54 90.62 135.99 C 92.47 135.38 94.35 134.82 96.20 134.19 C 87.92 134.28 79.71 133.29 71.71 131.18 C 75.05 133.39 78.75 134.97 82.42 136.55 C 86.65 138.30 91.32 137.90 95.79 138.14 C 94.78 139.36 93.84 140.99 92.06 141.08 C 83.95 142.19 77.01 137.08 69.94 134.01 C 63.70 131.47 58.42 127.05 54.10 121.94 C 51.26 118.74 48.87 115.08 45.52 112.35 C 43.51 110.67 40.55 111.72 38.35 110.50 C 36.47 108.90 35.15 106.69 32.94 105.48 C 33.06 108.87 35.26 111.76 35.42 115.09 C 34.62 118.18 30.96 118.06 28.44 118.34 C 27.02 118.85 25.65 120.11 24.04 119.70 C 19.86 118.68 14.80 118.95 12.29 114.77 C 9.87 113.67 7.97 111.83 7.29 109.18 C 3.98 113.23 2.61 118.79 3.62 123.92 C 4.70 127.36 6.98 130.31 7.73 133.88 C 8.40 137.68 11.16 140.56 14.03 142.93 C 16.98 145.31 19.83 147.85 23.07 149.85 C 27.35 152.58 32.86 151.96 37.09 154.82 C 43.33 158.71 51.23 157.76 57.58 161.33 C 60.07 162.49 60.12 165.56 61.40 167.66 C 63.06 169.06 65.99 169.33 67.35 167.37 C 70.81 163.51 73.16 158.60 77.58 155.66 C 87.28 148.50 99.81 147.40 111.47 147.85 C 109.97 146.39 108.30 144.86 106.06 144.78 C 96.88 143.72 87.98 148.74 78.78 146.58 C 77.77 144.45 76.57 142.13 73.96 141.79 C 67.48 140.14 62.44 135.73 57.50 131.50 C 50.81 127.12 46.35 120.35 41.79 113.96 C 49.05 115.42 50.58 123.97 56.49 127.48 C 63.02 131.08 67.26 138.39 75.00 139.77 C 78.53 139.74 78.70 144.64 81.92 144.90 C 88.84 146.14 95.06 142.23 100.38 138.35 C 106.35 133.82 113.93 132.62 120.60 129.52 C 123.50 128.15 126.40 126.75 129.52 125.92 C 126.52 130.22 121.51 132.22 116.73 133.84 C 110.09 136.10 103.63 138.98 97.80 142.92 C 102.18 142.96 107.30 140.79 111.07 143.93 C 114.40 146.74 119.78 147.09 121.08 151.92 C 122.92 152.66 125.07 152.96 126.57 154.36 C 127.24 155.56 127.66 156.87 128.16 158.15 C 135.24 154.53 143.39 155.10 150.89 152.99 C 154.27 152.14 157.05 149.94 159.38 147.44 C 162.95 143.45 168.82 142.41 171.92 137.91 C 175.84 133.41 177.06 127.33 176.78 121.51 C 174.86 121.45 172.95 121.33 171.05 121.14 C 169.17 122.30 167.36 123.94 165.02 123.95 C 163.49 123.68 162.13 122.91 160.72 122.30 C 158.19 122.40 155.38 122.65 153.48 120.62 C 151.65 118.76 148.01 118.12 147.93 115.04 C 147.57 110.49 154.02 109.16 153.44 104.53 C 149.55 106.10 145.15 107.35 141.26 105.03 M 46.26 110.27 C 46.81 110.85 46.81 110.85 46.26 110.27 M 113.82 148.62 C 113.21 150.28 116.18 151.75 117.52 150.98 C 117.78 149.33 115.22 148.07 113.82 148.62 M 75.07 162.24 C 78.97 163.15 82.48 165.00 85.77 167.22 C 89.13 169.56 93.33 168.68 97.14 168.59 C 99.28 170.04 102.65 172.97 104.79 170.02 C 103.84 168.52 102.72 167.14 101.68 165.69 C 104.36 166.51 106.76 168.68 109.63 168.60 C 112.39 166.60 108.00 165.04 106.86 163.31 C 110.15 163.81 113.48 166.77 116.77 164.84 C 119.36 161.13 113.22 160.29 111.08 158.98 C 114.86 157.99 118.39 160.05 122.07 160.48 C 125.10 160.54 125.79 156.07 123.50 154.64 C 121.18 153.30 118.44 153.16 115.87 152.61 C 111.24 151.86 106.90 149.29 102.08 149.80 C 92.09 150.74 81.45 153.99 75.07 162.24 M 73.16 167.73 C 75.19 169.10 77.30 167.22 79.27 166.69 C 78.71 167.95 78.15 169.22 77.59 170.49 C 79.60 173.01 82.56 170.81 84.80 169.90 C 81.44 166.76 77.16 164.56 72.47 164.59 C 72.75 165.58 72.08 167.07 73.16 167.73 Z" />
<path fill="#030202" opacity="1.00" d=" M 78.65 17.55 C 79.66 12.94 83.96 8.71 88.96 9.73 C 90.92 9.71 91.91 11.40 92.55 12.98 C 90.31 12.72 87.98 11.95 85.76 12.69 C 82.93 13.53 80.90 15.79 78.65 17.55 Z" />
<path fill="#030202" opacity="1.00" d=" M 97.99 12.12 C 99.19 10.03 101.64 9.10 103.91 9.95 C 107.68 11.58 110.85 15.00 111.32 19.19 C 109.48 17.20 107.87 14.86 105.43 13.55 C 103.13 12.38 100.47 12.52 97.99 12.12 Z" />
<path fill="#030202" opacity="1.00" d=" M 100.10 25.19 C 96.91 23.02 96.96 18.52 99.67 15.97 C 99.58 16.72 99.40 18.22 99.31 18.97 C 103.59 17.76 107.67 20.08 109.64 23.86 C 106.58 22.46 103.35 21.04 99.90 21.85 C 100.16 23.04 100.43 24.23 100.65 25.43 C 102.81 26.03 104.29 27.71 103.26 29.94 C 102.30 28.35 101.20 26.85 99.40 26.16 C 99.58 25.92 99.93 25.44 100.10 25.19 Z" />
<path fill="#030202" opacity="1.00" d=" M 88.75 15.63 C 90.18 17.08 91.49 18.93 90.95 21.08 C 90.75 23.92 87.63 24.72 85.95 26.52 C 85.17 27.59 84.42 28.68 83.71 29.80 C 81.95 26.15 87.13 24.19 89.21 22.07 C 86.01 19.19 82.31 21.73 79.15 23.25 C 80.90 19.35 85.15 17.63 89.23 18.43 L 88.75 15.63 Z" />
<path fill="#030202" opacity="1.00" d=" M 90.36 25.80 C 92.27 23.67 95.19 23.87 97.14 25.81 C 94.88 25.91 92.62 25.90 90.36 25.80 Z" />
<path fill="#030202" opacity="1.00" d=" M 85.52 30.34 C 86.92 28.42 89.18 28.17 90.80 30.09 C 89.04 30.25 87.28 30.33 85.52 30.34 Z" />
<path fill="#030202" opacity="1.00" d=" M 96.85 30.08 C 98.07 27.92 100.58 28.91 102.02 30.19 C 100.30 30.45 98.55 30.43 96.85 30.08 Z" />
<path fill="#030202" opacity="1.00" d=" M 77.84 34.29 C 80.54 33.99 82.86 32.67 84.79 30.82 C 84.74 31.63 84.62 33.27 84.57 34.09 C 89.60 36.56 95.81 37.59 101.01 35.06 C 102.46 34.60 102.52 33.14 102.67 31.87 C 104.72 32.89 107.03 33.00 109.20 33.65 C 110.70 34.58 110.67 36.56 111.16 38.07 C 110.05 36.90 108.96 35.71 107.85 34.54 C 108.01 36.87 109.22 39.48 107.79 41.64 C 105.60 45.43 101.21 47.47 96.93 47.57 C 91.67 47.77 85.62 47.23 81.72 43.28 C 79.55 41.25 79.82 38.12 79.86 35.43 C 78.96 36.35 78.08 37.28 77.17 38.19 C 77.37 36.88 77.59 35.58 77.84 34.29 M 84.26 36.58 C 89.12 41.65 99.35 42.76 103.42 36.21 C 97.35 39.13 90.50 38.53 84.26 36.58 M 88.23 42.30 C 87.11 42.66 86.73 43.41 87.09 44.55 C 92.26 45.98 98.41 46.58 103.03 43.31 C 100.27 41.34 96.86 41.35 94.42 43.80 C 92.58 42.74 90.40 41.08 88.23 42.30 Z" />
<path fill="#030202" opacity="1.00" d=" M 89.88 31.33 C 92.31 31.38 94.73 31.48 97.14 31.61 C 95.05 33.76 91.77 33.74 89.88 31.33 Z" />
<path fill="#030202" opacity="1.00" d=" M 86.48 49.65 C 90.98 50.94 95.66 51.09 100.27 50.29 C 96.66 54.11 89.65 53.90 86.48 49.65 Z" />
<path fill="#030202" opacity="1.00" d=" M 144.93 77.00 C 146.00 73.85 148.26 70.29 152.04 70.42 C 154.09 70.16 155.31 71.82 156.17 73.39 C 152.09 73.35 148.39 74.98 144.93 77.00 Z" />
<path fill="#030202" opacity="1.00" d=" M 59.57 76.58 C 57.99 74.64 59.92 72.59 61.12 71.12 C 61.18 72.17 61.29 74.27 61.35 75.32 C 64.02 75.69 65.74 74.04 66.45 71.59 C 70.43 75.88 62.73 79.98 59.57 76.58 Z" />
<path fill="#030202" opacity="1.00" d=" M 123.39 71.69 C 124.96 72.33 127.50 72.59 127.04 74.92 C 126.26 80.65 116.54 78.93 117.58 73.19 C 119.61 74.69 121.71 76.47 124.38 75.37 C 124.05 74.14 123.72 72.91 123.39 71.69 Z" />
<path fill="#030202" opacity="1.00" d=" M 20.41 85.19 C 23.81 79.50 32.19 79.24 37.17 82.89 C 39.30 84.32 39.51 87.06 39.93 89.35 C 37.27 87.26 35.09 84.18 31.58 83.52 C 27.76 82.77 24.07 84.35 20.41 85.19 Z" />
<path fill="#030202" opacity="1.00" d=" M 149.59 90.85 C 151.26 88.80 153.05 86.40 155.89 86.05 C 161.35 85.16 168.37 85.82 171.04 91.46 C 167.54 89.78 163.97 87.84 159.97 87.88 C 156.26 87.69 152.92 89.47 149.59 90.85 Z" />
<path fill="#030202" opacity="1.00" d=" M 88.01 97.06 C 88.61 93.25 93.92 92.97 96.70 94.45 C 98.69 95.40 98.35 97.83 97.49 99.46 C 96.50 97.20 93.95 94.25 91.35 96.25 C 89.81 97.38 91.96 98.74 92.61 99.59 C 92.53 98.82 92.37 97.26 92.29 96.49 C 93.99 97.10 96.23 97.76 95.49 100.08 C 93.16 103.05 87.59 100.89 88.01 97.06 Z" />
<path fill="#030202" opacity="1.00" d=" M 124.61 137.58 C 132.13 136.09 137.98 142.02 144.94 143.45 C 149.96 145.10 155.21 143.96 160.33 143.68 C 156.25 148.20 149.53 146.42 144.25 145.76 C 137.41 143.94 130.77 141.04 124.61 137.58 Z" />
<path fill="#030202" opacity="1.00" d=" M 109.99 140.15 C 116.42 137.21 124.45 139.66 128.85 144.99 C 130.78 147.34 130.85 150.46 129.85 153.22 C 127.89 150.21 126.43 146.67 123.33 144.61 C 119.47 141.74 114.58 141.06 109.99 140.15 Z" />
<path fill="#030202" opacity="1.00" d=" M 42.15 147.80 C 47.76 147.41 51.72 143.12 55.99 140.01 C 57.33 143.78 53.84 146.29 51.00 147.91 C 45.56 151.14 38.77 150.81 32.95 148.86 C 27.94 147.15 22.90 145.57 17.83 144.07 C 26.35 141.92 33.61 149.52 42.15 147.80 Z" />
<path fill="#030202" opacity="1.00" d=" M 130.76 142.57 C 133.02 144.82 134.71 148.27 138.16 148.78 C 141.30 149.20 144.48 148.95 147.63 149.29 C 143.67 151.27 138.83 152.26 134.67 150.32 C 131.90 148.84 130.56 145.61 130.76 142.57 Z" />
<path fill="#030202" opacity="1.00" d=" M 62.35 149.41 C 66.85 147.37 71.99 148.02 76.77 147.36 C 73.76 150.68 68.55 149.43 65.10 152.12 C 62.17 153.90 61.55 157.46 60.56 160.46 C 56.02 157.95 58.62 151.38 62.35 149.41 Z" />
<path fill="#030202" opacity="1.00" d=" M 42.01 152.37 C 46.81 152.74 51.74 153.13 56.30 151.24 C 53.42 156.00 45.12 157.65 42.01 152.37 Z" />
</g>
<g id="#f3d3a4ff">
<path fill="#f3d3a4" opacity="1.00" d=" M 85.85 3.53 C 92.47 1.68 99.99 1.84 106.27 4.84 C 113.14 8.89 115.51 17.16 117.31 24.42 C 115.73 24.33 114.15 24.25 112.57 24.18 C 117.93 26.58 123.48 30.58 124.10 36.92 C 125.18 42.94 121.04 48.54 115.50 50.50 C 114.43 52.92 113.09 55.40 110.70 56.76 C 107.40 58.99 103.22 58.58 99.49 57.93 C 99.64 57.17 99.94 55.65 100.09 54.90 C 96.59 58.91 89.80 59.58 86.34 55.15 C 86.35 55.59 86.39 56.46 86.41 56.89 C 81.75 57.03 76.68 56.04 73.36 52.53 C 71.59 50.30 70.31 47.67 68.06 45.85 C 62.61 41.35 62.89 31.74 68.46 27.43 C 70.94 25.34 74.22 24.74 77.18 23.59 C 75.33 23.47 73.48 23.41 71.63 23.36 C 74.92 16.01 77.41 6.51 85.85 3.53 M 78.65 17.55 C 80.90 15.79 82.93 13.53 85.76 12.69 C 87.98 11.95 90.31 12.72 92.55 12.98 C 91.91 11.40 90.92 9.71 88.96 9.73 C 83.96 8.71 79.66 12.94 78.65 17.55 M 97.99 12.12 C 100.47 12.52 103.13 12.38 105.43 13.55 C 107.87 14.86 109.48 17.20 111.32 19.19 C 110.85 15.00 107.68 11.58 103.91 9.95 C 101.64 9.10 99.19 10.03 97.99 12.12 M 100.10 25.19 C 99.93 25.44 99.58 25.92 99.40 26.16 C 101.20 26.85 102.30 28.35 103.26 29.94 C 104.29 27.71 102.81 26.03 100.65 25.43 C 100.43 24.23 100.16 23.04 99.90 21.85 C 103.35 21.04 106.58 22.46 109.64 23.86 C 107.67 20.08 103.59 17.76 99.31 18.97 C 99.40 18.22 99.58 16.72 99.67 15.97 C 96.96 18.52 96.91 23.02 100.10 25.19 M 88.75 15.63 L 89.23 18.43 C 85.15 17.63 80.90 19.35 79.15 23.25 C 82.31 21.73 86.01 19.19 89.21 22.07 C 87.13 24.19 81.95 26.15 83.71 29.80 C 84.42 28.68 85.17 27.59 85.95 26.52 C 87.63 24.72 90.75 23.92 90.95 21.08 C 91.49 18.93 90.18 17.08 88.75 15.63 M 90.36 25.80 C 92.62 25.90 94.88 25.91 97.14 25.81 C 95.19 23.87 92.27 23.67 90.36 25.80 M 85.52 30.34 C 87.28 30.33 89.04 30.25 90.80 30.09 C 89.18 28.17 86.92 28.42 85.52 30.34 M 96.85 30.08 C 98.55 30.43 100.30 30.45 102.02 30.19 C 100.58 28.91 98.07 27.92 96.85 30.08 M 77.84 34.29 C 77.59 35.58 77.37 36.88 77.17 38.19 C 78.08 37.28 78.96 36.35 79.86 35.43 C 79.82 38.12 79.55 41.25 81.72 43.28 C 85.62 47.23 91.67 47.77 96.93 47.57 C 101.21 47.47 105.60 45.43 107.79 41.64 C 109.22 39.48 108.01 36.87 107.85 34.54 C 108.96 35.71 110.05 36.90 111.16 38.07 C 110.67 36.56 110.70 34.58 109.20 33.65 C 107.03 33.00 104.72 32.89 102.67 31.87 C 102.52 33.14 102.46 34.60 101.01 35.06 C 95.81 37.59 89.60 36.56 84.57 34.09 C 84.62 33.27 84.74 31.63 84.79 30.82 C 82.86 32.67 80.54 33.99 77.84 34.29 M 89.88 31.33 C 91.77 33.74 95.05 33.76 97.14 31.61 C 94.73 31.48 92.31 31.38 89.88 31.33 M 86.48 49.65 C 89.65 53.90 96.66 54.11 100.27 50.29 C 95.66 51.09 90.98 50.94 86.48 49.65 Z" />
<path fill="#f3d3a4" opacity="1.00" d=" M 69.17 15.01 C 70.88 13.95 72.75 16.48 72.06 18.02 C 70.77 22.15 67.60 25.56 63.77 27.51 C 63.56 25.85 62.37 23.56 64.53 22.65 C 65.83 21.89 67.25 21.35 68.64 20.77 C 68.69 18.84 68.48 16.85 69.17 15.01 Z" />
<path fill="#f3d3a4" opacity="1.00" d=" M 118.10 18.02 C 117.51 16.11 121.97 16.04 121.26 18.00 C 121.47 19.80 120.78 21.54 120.45 23.28 C 122.10 23.98 124.06 24.31 125.31 25.71 C 126.51 26.92 125.50 28.50 125.20 29.85 C 121.58 26.88 117.19 23.31 118.10 18.02 Z" />
<path fill="#f3d3a4" opacity="1.00" d=" M 68.45 49.21 C 71.55 54.30 76.50 59.27 82.94 58.84 C 87.44 57.82 91.39 61.84 95.82 60.08 C 99.57 58.46 103.22 61.58 107.05 60.70 C 112.02 60.35 115.94 56.55 117.57 52.02 C 120.78 57.45 125.54 61.65 129.41 66.56 C 132.57 70.61 133.80 76.96 129.89 80.95 C 126.73 84.86 121.11 83.56 116.94 82.38 C 106.99 78.97 96.43 77.72 85.96 77.57 C 79.99 77.47 74.20 79.07 68.52 80.76 C 64.94 81.81 60.49 82.39 57.55 79.53 C 53.84 75.64 54.56 69.48 57.27 65.24 C 60.70 59.69 65.29 54.95 68.45 49.21 M 59.57 76.58 C 62.73 79.98 70.43 75.88 66.45 71.59 C 65.74 74.04 64.02 75.69 61.35 75.32 C 61.29 74.27 61.18 72.17 61.12 71.12 C 59.92 72.59 57.99 74.64 59.57 76.58 M 123.39 71.69 C 123.72 72.91 124.05 74.14 124.38 75.37 C 121.71 76.47 119.61 74.69 117.58 73.19 C 116.54 78.93 126.26 80.65 127.04 74.92 C 127.50 72.59 124.96 72.33 123.39 71.69 Z" />
<path fill="#f3d3a4" opacity="1.00" d=" M 56.38 84.18 C 65.09 87.45 72.65 80.41 81.07 79.69 C 92.83 78.45 104.84 80.13 115.86 84.38 C 119.91 86.03 124.31 86.60 128.65 86.10 C 133.43 89.67 138.04 94.65 138.06 100.99 C 138.06 109.77 132.17 117.42 125.14 122.13 C 113.15 130.13 97.99 132.89 83.84 130.57 C 75.88 129.30 67.81 127.43 60.85 123.22 C 53.60 118.55 47.13 111.08 47.00 102.04 C 46.33 94.77 51.23 88.68 56.38 84.18 M 88.01 97.06 C 87.59 100.89 93.16 103.05 95.49 100.08 C 96.23 97.76 93.99 97.10 92.29 96.49 C 92.37 97.26 92.53 98.82 92.61 99.59 C 91.96 98.74 89.81 97.38 91.35 96.25 C 93.95 94.25 96.50 97.20 97.49 99.46 C 98.35 97.83 98.69 95.40 96.70 94.45 C 93.92 92.97 88.61 93.25 88.01 97.06 Z" />
<path fill="#f3d3a4" opacity="1.00" d=" M 14.21 96.16 C 19.39 89.83 30.13 87.80 36.34 93.71 C 38.59 95.46 38.92 98.43 39.97 100.89 C 40.64 103.14 43.09 103.88 44.59 105.45 C 45.18 107.10 43.84 108.68 42.10 108.50 C 38.15 108.71 36.97 104.10 34.11 102.21 C 33.03 103.40 31.55 104.38 30.98 105.96 C 30.69 108.74 32.79 111.11 32.77 113.86 C 31.93 115.85 28.67 115.92 27.87 113.85 C 25.56 110.05 28.45 105.05 25.55 101.58 C 24.84 106.40 24.09 111.33 25.99 115.99 C 24.78 117.50 22.60 116.67 21.33 115.70 C 17.71 111.77 24.16 105.04 19.46 101.72 C 19.35 106.45 17.63 110.92 17.28 115.61 C 11.32 112.76 17.52 105.66 14.27 101.64 C 13.49 104.88 12.59 108.10 11.65 111.30 C 7.97 106.72 10.72 100.05 14.21 96.16 Z" />
<path fill="#f3d3a4" opacity="1.00" d=" M 150.21 98.15 C 152.98 96.47 155.43 93.64 159.01 94.01 C 165.48 94.37 173.08 96.51 176.36 102.65 C 178.00 106.73 180.89 111.26 178.64 115.70 C 177.79 118.04 175.26 118.69 173.06 118.94 C 173.31 116.06 174.47 113.39 175.20 110.62 C 171.42 111.24 172.47 115.98 170.34 118.31 C 168.95 120.74 166.06 121.11 163.53 121.08 C 165.52 117.27 167.94 113.53 168.87 109.29 C 166.74 108.66 166.20 111.14 165.53 112.58 C 164.38 115.38 163.15 118.86 159.93 119.81 C 158.18 120.58 156.70 119.28 155.36 118.36 C 159.31 115.09 162.02 110.47 162.32 105.28 C 159.48 106.12 160.10 109.56 158.68 111.60 C 157.31 114.03 154.54 117.45 151.43 115.59 C 149.42 113.39 152.35 111.26 153.69 109.67 C 156.38 107.47 155.14 103.69 155.43 100.70 C 152.39 101.78 149.52 104.16 146.12 103.62 C 144.60 103.51 144.16 101.87 143.36 100.88 C 145.58 99.81 147.98 99.19 150.21 98.15 Z" />
<path fill="#f3d3a4" opacity="1.00" d=" M 75.07 162.24 C 81.45 153.99 92.09 150.74 102.08 149.80 C 106.90 149.29 111.24 151.86 115.87 152.61 C 118.44 153.16 121.18 153.30 123.50 154.64 C 125.79 156.07 125.10 160.54 122.07 160.48 C 118.39 160.05 114.86 157.99 111.08 158.98 C 113.22 160.29 119.36 161.13 116.77 164.84 C 113.48 166.77 110.15 163.81 106.86 163.31 C 108.00 165.04 112.39 166.60 109.63 168.60 C 106.76 168.68 104.36 166.51 101.68 165.69 C 102.72 167.14 103.84 168.52 104.79 170.02 C 102.65 172.97 99.28 170.04 97.14 168.59 C 93.33 168.68 89.13 169.56 85.77 167.22 C 82.48 165.00 78.97 163.15 75.07 162.24 Z" />
<path fill="#f3d3a4" opacity="1.00" d=" M 73.16 167.73 C 72.08 167.07 72.75 165.58 72.47 164.59 C 77.16 164.56 81.44 166.76 84.80 169.90 C 82.56 170.81 79.60 173.01 77.59 170.49 C 78.15 169.22 78.71 167.95 79.27 166.69 C 77.30 167.22 75.19 169.10 73.16 167.73 Z" />
</g>
<g id="#f47f32ff">
<path fill="#f47f32" opacity="1.00" d=" M 54.74 50.63 C 56.81 47.26 56.90 42.44 60.92 40.58 C 62.60 43.23 64.44 45.78 66.61 48.06 C 65.25 49.95 63.83 51.79 62.39 53.63 C 62.30 51.17 62.15 48.71 61.81 46.27 C 59.34 51.35 59.27 57.32 56.19 62.14 C 54.27 65.23 52.06 68.36 51.74 72.10 C 51.22 76.06 53.36 79.62 54.52 83.25 C 49.68 79.85 48.90 73.45 48.98 67.99 C 48.96 61.73 51.60 55.90 54.74 50.63 Z" />
<path fill="#f47f32" opacity="1.00" d=" M 88.23 42.30 C 90.40 41.08 92.58 42.74 94.42 43.80 C 96.86 41.35 100.27 41.34 103.03 43.31 C 98.41 46.58 92.26 45.98 87.09 44.55 C 86.73 43.41 87.11 42.66 88.23 42.30 Z" />
<path fill="#f47f32" opacity="1.00" d=" M 119.96 50.94 C 122.89 48.78 125.15 45.94 127.22 42.99 C 128.99 46.92 129.02 51.33 130.49 55.36 C 132.13 60.72 136.12 65.19 136.84 70.86 C 137.54 75.87 136.64 81.45 133.16 85.31 L 131.77 85.15 C 132.69 81.36 135.53 78.00 134.79 73.88 C 134.41 68.24 129.97 64.33 126.74 60.15 C 124.90 56.65 125.84 52.51 125.70 48.73 C 124.46 51.01 123.56 53.44 122.86 55.94 C 121.88 54.28 120.91 52.62 119.96 50.94 Z" />
<path fill="#f47f32" opacity="1.00" d=" M 44.42 61.54 C 46.02 55.12 46.87 45.77 54.90 44.35 C 53.41 49.30 49.51 53.07 48.16 58.08 C 45.51 66.08 45.92 75.05 50.07 82.47 C 44.60 78.32 40.92 71.87 40.63 64.95 C 40.41 59.24 41.25 52.73 45.89 48.81 C 44.60 52.92 42.93 57.23 44.42 61.54 Z" />
<path fill="#f47f32" opacity="1.00" d=" M 129.90 45.65 C 132.32 46.06 134.14 47.62 135.56 49.52 C 137.81 49.83 140.21 49.69 142.32 50.66 C 143.58 51.72 144.40 53.19 145.38 54.51 C 151.23 55.64 157.18 58.22 160.49 63.43 C 163.29 66.89 163.36 71.47 164.58 75.55 C 167.09 77.85 171.06 79.08 171.21 83.09 C 166.29 82.04 161.30 79.53 156.20 81.19 C 148.66 82.78 143.50 88.98 139.40 95.04 C 138.31 90.05 140.05 84.22 145.02 82.06 C 148.82 79.64 154.13 81.98 157.44 78.74 C 152.25 78.15 146.39 77.39 141.93 80.76 C 138.40 82.95 136.79 86.98 136.56 90.98 C 135.80 89.91 135.03 88.84 134.27 87.78 C 136.13 84.87 138.36 82.23 140.94 79.94 C 145.09 75.79 146.16 69.47 145.83 63.84 C 145.59 59.07 142.80 54.36 138.11 52.82 C 140.03 58.26 144.57 63.03 143.94 69.14 C 143.70 72.80 141.31 75.75 139.17 78.53 C 139.55 72.98 139.88 67.03 137.04 62.00 C 134.16 56.79 129.94 51.94 129.90 45.65 M 144.93 77.00 C 148.39 74.98 152.09 73.35 156.17 73.39 C 155.31 71.82 154.09 70.16 152.04 70.42 C 148.26 70.29 146.00 73.85 144.93 77.00 Z" />
<path fill="#f47f32" opacity="1.00" d=" M 27.51 69.37 C 30.37 63.22 33.61 56.58 40.09 53.56 C 38.58 58.41 38.03 63.53 38.81 68.58 C 36.24 68.21 33.34 68.01 31.52 70.23 C 34.07 70.75 36.91 70.49 39.21 71.84 C 40.54 73.25 41.29 75.07 42.37 76.67 C 44.62 80.27 48.40 82.91 49.72 87.08 C 48.97 88.32 47.97 89.39 47.06 90.51 C 45.64 85.14 43.98 79.07 39.00 75.90 C 33.52 73.30 25.89 73.81 21.93 78.86 C 28.29 77.26 36.20 76.68 41.05 81.96 C 46.35 87.35 44.91 95.65 43.81 102.39 C 43.33 101.84 42.36 100.73 41.88 100.18 C 43.32 93.92 36.93 90.37 31.95 88.81 C 23.65 86.22 14.15 90.49 10.28 98.20 C 8.71 101.74 4.36 103.53 4.21 107.72 C 5.58 106.82 6.93 105.89 8.30 104.99 C 6.64 106.89 5.26 110.38 2.24 109.91 C 0.98 105.77 4.94 103.04 6.45 99.67 C 7.35 96.45 7.06 92.81 9.09 89.97 C 11.45 86.92 15.78 86.22 18.10 83.13 C 19.19 80.76 19.59 78.15 20.33 75.66 C 23.36 74.42 26.25 72.53 27.51 69.37 M 20.41 85.19 C 24.07 84.35 27.76 82.77 31.58 83.52 C 35.09 84.18 37.27 87.26 39.93 89.35 C 39.51 87.06 39.30 84.32 37.17 82.89 C 32.19 79.24 23.81 79.50 20.41 85.19 Z" />
<path fill="#f47f32" opacity="1.00" d=" M 150.29 86.19 C 156.87 82.53 165.47 82.22 172.05 86.02 C 175.56 88.25 175.02 92.92 176.75 96.23 C 178.58 98.69 181.51 100.03 183.36 102.48 C 187.18 107.44 188.36 114.40 186.33 120.32 C 185.31 123.39 182.31 124.89 179.46 125.87 C 179.27 122.38 178.78 118.60 180.93 115.57 C 180.91 117.73 180.77 119.88 180.68 122.04 C 182.02 121.22 183.98 120.79 184.21 118.93 C 185.45 114.71 183.16 110.57 180.59 107.37 C 178.26 104.47 178.46 100.09 175.33 97.75 C 170.56 93.76 164.32 91.43 158.09 91.55 C 153.86 91.36 151.72 95.71 148.02 96.89 C 145.60 97.75 143.11 98.41 140.66 99.20 C 142.42 94.06 145.32 88.82 150.29 86.19 M 149.59 90.85 C 152.92 89.47 156.26 87.69 159.97 87.88 C 163.97 87.84 167.54 89.78 171.04 91.46 C 168.37 85.82 161.35 85.16 155.89 86.05 C 153.05 86.40 151.26 88.80 149.59 90.85 Z" />
<path fill="#f47f32" opacity="1.00" d=" M 141.26 105.03 C 145.15 107.35 149.55 106.10 153.44 104.53 C 154.02 109.16 147.57 110.49 147.93 115.04 C 148.01 118.12 151.65 118.76 153.48 120.62 C 155.38 122.65 158.19 122.40 160.72 122.30 C 162.13 122.91 163.49 123.68 165.02 123.95 C 167.36 123.94 169.17 122.30 171.05 121.14 C 172.95 121.33 174.86 121.45 176.78 121.51 C 177.06 127.33 175.84 133.41 171.92 137.91 C 168.82 142.41 162.95 143.45 159.38 147.44 C 157.05 149.94 154.27 152.14 150.89 152.99 C 143.39 155.10 135.24 154.53 128.16 158.15 C 127.66 156.87 127.24 155.56 126.57 154.36 C 125.07 152.96 122.92 152.66 121.08 151.92 C 119.78 147.09 114.40 146.74 111.07 143.93 C 107.30 140.79 102.18 142.96 97.80 142.92 C 103.63 138.98 110.09 136.10 116.73 133.84 C 121.51 132.22 126.52 130.22 129.52 125.92 C 126.40 126.75 123.50 128.15 120.60 129.52 C 113.93 132.62 106.35 133.82 100.38 138.35 C 95.06 142.23 88.84 146.14 81.92 144.90 C 78.70 144.64 78.53 139.74 75.00 139.77 C 67.26 138.39 63.02 131.08 56.49 127.48 C 50.58 123.97 49.05 115.42 41.79 113.96 C 46.35 120.35 50.81 127.12 57.50 131.50 C 62.44 135.73 67.48 140.14 73.96 141.79 C 76.57 142.13 77.77 144.45 78.78 146.58 C 87.98 148.74 96.88 143.72 106.06 144.78 C 108.30 144.86 109.97 146.39 111.47 147.85 C 99.81 147.40 87.28 148.50 77.58 155.66 C 73.16 158.60 70.81 163.51 67.35 167.37 C 65.99 169.33 63.06 169.06 61.40 167.66 C 60.12 165.56 60.07 162.49 57.58 161.33 C 51.23 157.76 43.33 158.71 37.09 154.82 C 32.86 151.96 27.35 152.58 23.07 149.85 C 19.83 147.85 16.98 145.31 14.03 142.93 C 11.16 140.56 8.40 137.68 7.73 133.88 C 6.98 130.31 4.70 127.36 3.62 123.92 C 2.61 118.79 3.98 113.23 7.29 109.18 C 7.97 111.83 9.87 113.67 12.29 114.77 C 14.80 118.95 19.86 118.68 24.04 119.70 C 25.65 120.11 27.02 118.85 28.44 118.34 C 30.96 118.06 34.62 118.18 35.42 115.09 C 35.26 111.76 33.06 108.87 32.94 105.48 C 35.15 106.69 36.47 108.90 38.35 110.50 C 40.55 111.72 43.51 110.67 45.52 112.35 C 48.87 115.08 51.26 118.74 54.10 121.94 C 58.42 127.05 63.70 131.47 69.94 134.01 C 77.01 137.08 83.95 142.19 92.06 141.08 C 93.84 140.99 94.78 139.36 95.79 138.14 C 91.32 137.90 86.65 138.30 82.42 136.55 C 78.75 134.97 75.05 133.39 71.71 131.18 C 79.71 133.29 87.92 134.28 96.20 134.19 C 94.35 134.82 92.47 135.38 90.62 135.99 C 95.83 138.54 100.12 133.19 105.12 132.78 C 116.50 130.46 127.86 125.54 135.50 116.50 C 138.04 113.06 142.98 113.23 145.66 110.11 C 143.66 109.95 141.65 109.90 139.65 109.90 C 140.21 108.28 140.74 106.66 141.26 105.03 M 124.61 137.58 C 130.77 141.04 137.41 143.94 144.25 145.76 C 149.53 146.42 156.25 148.20 160.33 143.68 C 155.21 143.96 149.96 145.10 144.94 143.45 C 137.98 142.02 132.13 136.09 124.61 137.58 M 109.99 140.15 C 114.58 141.06 119.47 141.74 123.33 144.61 C 126.43 146.67 127.89 150.21 129.85 153.22 C 130.85 150.46 130.78 147.34 128.85 144.99 C 124.45 139.66 116.42 137.21 109.99 140.15 M 42.15 147.80 C 33.61 149.52 26.35 141.92 17.83 144.07 C 22.90 145.57 27.94 147.15 32.95 148.86 C 38.77 150.81 45.56 151.14 51.00 147.91 C 53.84 146.29 57.33 143.78 55.99 140.01 C 51.72 143.12 47.76 147.41 42.15 147.80 M 130.76 142.57 C 130.56 145.61 131.90 148.84 134.67 150.32 C 138.83 152.26 143.67 151.27 147.63 149.29 C 144.48 148.95 141.30 149.20 138.16 148.78 C 134.71 148.27 133.02 144.82 130.76 142.57 M 62.35 149.41 C 58.62 151.38 56.02 157.95 60.56 160.46 C 61.55 157.46 62.17 153.90 65.10 152.12 C 68.55 149.43 73.76 150.68 76.77 147.36 C 71.99 148.02 66.85 147.37 62.35 149.41 M 42.01 152.37 C 45.12 157.65 53.42 156.00 56.30 151.24 C 51.74 153.13 46.81 152.74 42.01 152.37 Z" />
<path fill="#f47f32" opacity="1.00" d=" M 46.26 110.27 C 46.81 110.85 46.81 110.85 46.26 110.27 Z" />
<path fill="#f47f32" opacity="1.00" d=" M 113.82 148.62 C 115.22 148.07 117.78 149.33 117.52 150.98 C 116.18 151.75 113.21 150.28 113.82 148.62 Z" />
</g>
</svg>
