<?xml version="1.0" encoding="utf-8"?>
<!-- Generator: Adobe Illustrator 18.0.0, SVG Export Plug-In . SVG Version: 6.00 Build 0)  -->
<!DOCTYPE svg PUBLIC "-//W3C//DTD SVG 1.1//EN" "http://www.w3.org/Graphics/SVG/1.1/DTD/svg11.dtd">
<svg version="1.1" id="Layer_1" xmlns="http://www.w3.org/2000/svg" xmlns:xlink="http://www.w3.org/1999/xlink" x="0px" y="0px"
	 viewBox="0 0 50 50" enable-background="new 0 0 50 50" xml:space="preserve">
<g>
	<g>
		<g>
			<g>
				<path fill="#030304" d="M21.8,5.9c1.7-0.5,3.5-0.7,5.3-0.8c2,0.2,4.1,0.4,6,1.1c4.8,1.5,9,4.9,11.4,9.3
					c2.1,3.8,2.9,8.4,2.2,12.7c-0.6,4.2-2.7,8.2-5.8,11.1c-2.9,2.8-6.7,4.7-10.7,5.3c-4.2,0.7-8.7,0-12.5-2.1
					c-0.5-0.3-1.1-0.6-1.6-0.9c-1.4,1.2-3.2,1.7-5,1.8c-2.3,0.1-4.8-0.7-6.4-2.4C3.5,39.9,3,38.2,3,36.5c0-4.2,0-8.5,0-12.7
					c0-1,0.6-2.2,1.6-2.5c0.6-0.2,1.2-0.1,1.8,0.1C6.3,20.3,7,19.2,8.1,19c1.1-3.3,3.1-6.4,5.7-8.7C16.1,8.2,18.9,6.7,21.8,5.9z
					 M15.9,10.1c-3,2.2-5.3,5.4-6.5,8.9c0.2,0.1,0.3,0.2,0.5,0.3c0.3-1,1.1-1.8,2.2-1.8c1.3-0.1,2.4,1.1,2.4,2.3
					c0.6-0.3,1.3-0.5,1.9-0.2c0.6,0.1,1,0.6,1.3,1.1c0.1,0.4,0.2,0.7,0.2,1.1c0,3.5,0,7.1,0,10.6c0.6-0.8,1.2-1.6,1.8-2.4
					c1-1.1,3-0.6,3.6,0.7c0.4,0.8,0.2,1.8-0.4,2.4c-2,2.5-3.9,5.1-5.9,7.6c3.3,2.1,7.3,3.1,11.2,2.9c3.5-0.2,6.9-1.4,9.7-3.5
					c3.2-2.3,5.7-5.6,6.9-9.4c1.3-3.9,1.2-8.2-0.2-12.1c-1.3-3.7-3.9-7-7.1-9.2c-3.1-2-6.7-3.2-10.4-3.2
					C23.1,6.4,19.1,7.7,15.9,10.1z M10.9,19.6c0,3.1,0,6.3,0,9.4c-0.3,0-0.6,0-1,0c-0.1-2.6,0-5.3,0-7.9c0-0.9-1-1.5-1.8-1.1
					c-0.4,0.1-0.5,0.5-0.7,0.8c0,2.7,0,5.4,0,8.2c-0.3,0-0.6,0-1,0c0-2.1,0-4.1,0-6.2c-0.3-0.3-0.6-0.6-1-0.6
					c-0.7-0.1-1.3,0.5-1.3,1.2c0,4.8,0,9.6,0,14.4c0.2,1.2,0.8,2.3,1.7,3.1c1.5,1.3,3.4,1.8,5.3,1.7c2.2-0.1,4.5-1.1,5.6-3.1
					c1.8-2.4,3.7-4.8,5.5-7.2c0.5-0.7,0-1.7-0.8-1.9c-0.5-0.1-1,0.2-1.2,0.5c-0.8,1-1.6,2.1-2.4,3.1c-0.1,0-0.3,0.1-0.4,0.1
					c-0.1,0-0.3-0.1-0.4-0.2c0-0.2-0.1-0.4-0.1-0.5c0.1-3.9,0-7.9,0-11.8c0.1-1-1.1-1.6-1.9-1.1c-0.2,0.3-0.5,0.6-0.5,1
					c0,2.5,0,4.9,0,7.4c-0.3,0-0.6,0-1,0c-0.1-3.1,0-6.3-0.1-9.4c0-0.6-0.6-1-1.1-1.2C11.6,18.5,11,18.9,10.9,19.6z"/>
			</g>
		</g>
		<g>
			<path fill="#030304" d="M28.7,17.8c0.4-0.1,0.9-0.2,1.3-0.2c0.1,1.6-0.6,3.1-1.8,4.1c-1.7,1.4-4.3,1.6-6,0.3
				c-0.9-0.6-1.6-1.5-1.9-2.5c0.4-0.1,0.9-0.2,1.3-0.2c0.4,0.8,1,1.5,1.9,1.9c0.5,0.3,1.1,0.3,1.7,0.4c1.2-0.1,2.5-0.8,3.1-1.9
				C28.5,19,28.6,18.4,28.7,17.8z"/>
		</g>
		<g>
			<path fill="#030304" d="M29.8,31.6c1.1-1.3,3-2,4.7-1.7c1.8,0.3,3.3,1.6,3.9,3.3c-0.4,0.1-0.9,0.2-1.3,0.3c-0.4-0.8-1.1-1.6-2-2
				c-1.2-0.5-2.7-0.3-3.7,0.5c-0.9,0.7-1.3,1.8-1.4,2.9c-0.5,0.1-0.9,0.2-1.4,0.3C28.5,33.9,28.9,32.6,29.8,31.6z"/>
		</g>
	</g>
	<g>
		<g>
			<g>
				<path fill="#FFFFFF" d="M15.9,10.1c3.2-2.4,7.2-3.7,11.2-3.7c3.7,0,7.4,1.2,10.4,3.2c3.2,2.2,5.8,5.5,7.1,9.2
					c1.4,3.8,1.5,8.2,0.2,12.1c-1.2,3.8-3.7,7.1-6.9,9.4c-2.8,2-6.3,3.3-9.7,3.5c-3.9,0.2-7.9-0.8-11.2-2.9c2-2.5,3.9-5.1,5.9-7.6
					c0.6-0.7,0.8-1.6,0.4-2.4c-0.6-1.4-2.5-1.8-3.6-0.7c-0.7,0.8-1.3,1.6-1.8,2.4c0-3.5,0-7.1,0-10.6c0-0.4-0.1-0.8-0.2-1.1
					c-0.4-0.4-0.7-0.9-1.3-1.1c-0.6-0.2-1.3-0.1-1.9,0.2c0.1-1.3-1.1-2.4-2.4-2.3c-1,0-1.9,0.8-2.2,1.8c-0.2-0.1-0.3-0.2-0.5-0.3
					C10.7,15.5,12.9,12.3,15.9,10.1z M28.7,17.8c-0.1,0.6-0.2,1.3-0.5,1.9c-0.6,1.1-1.8,1.8-3.1,1.9c-0.6-0.1-1.1-0.1-1.7-0.4
					c-0.8-0.4-1.5-1.1-1.9-1.9c-0.4,0.1-0.9,0.2-1.3,0.2c0.3,1,1,1.9,1.9,2.5c1.8,1.2,4.4,1.1,6-0.3c1.2-1,1.9-2.6,1.8-4.1
					C29.6,17.6,29.1,17.7,28.7,17.8z"/>
			</g>
		</g>
		<g>
			<path fill="#FFFFFF" d="M10.9,19.6c0.1-0.7,0.7-1.1,1.4-1.2c0.5,0.2,1,0.6,1.1,1.2c0.1,3.1,0,6.3,0.1,9.4c0.3,0,0.6,0,1,0
				c0-2.5,0-4.9,0-7.4c0-0.4,0.3-0.7,0.5-1c0.8-0.4,2,0.2,1.9,1.1c0,3.9,0.1,7.9,0,11.8c0,0.2,0.1,0.4,0.1,0.5
				c0.1,0,0.3,0.1,0.4,0.2c0.1,0,0.3-0.1,0.4-0.1c0.8-1,1.6-2.1,2.4-3.1c0.3-0.4,0.8-0.7,1.2-0.5c0.8,0.1,1.3,1.2,0.8,1.9
				c-1.8,2.4-3.7,4.8-5.5,7.2c-1.1,2-3.4,2.9-5.6,3.1c-1.9,0.1-3.9-0.5-5.3-1.7c-0.9-0.8-1.5-1.9-1.7-3.1c0-4.8,0-9.6,0-14.4
				c0-0.7,0.6-1.3,1.3-1.2c0.4,0,0.7,0.3,1,0.6c0,2.1,0,4.1,0,6.2c0.3,0,0.6,0,1,0c0-2.7,0-5.4,0-8.2c0.2-0.3,0.3-0.7,0.7-0.8
				c0.7-0.5,1.8,0.2,1.8,1.1c0,2.6,0,5.3,0,7.9c0.3,0,0.6,0,1,0C10.9,25.9,10.9,22.8,10.9,19.6z"/>
		</g>
	</g>
	<g>
		<path d="M42.5,18.5c-0.6,2.5-3.1,4.1-5.6,3.5s-4.1-3.1-3.5-5.6L42.5,18.5z"/>
	</g>
	<g>
		<path d="M26.7,29.4c0,0,6.8,2,11.2-2.6C37.9,26.8,37.1,38.5,26.7,29.4z"/>
	</g>
	<g>
		<path d="M44.9,18.9c-0.5,0-12.7-0.3-27.9-9.6l0.9-1.4c14.7,9.1,26.9,9.4,27,9.4L44.9,18.9z"/>
	</g>
	<g>
		<polygon fill="#FFFFFF" points="30.9,29.7 31.2,31.1 32.3,30.8 32.3,29.6 		"/>
	</g>
</g>
</svg>
