<?xml version="1.0" encoding="utf-8"?>
<!-- Generator: Adobe Illustrator 18.0.0, SVG Export Plug-In . SVG Version: 6.00 Build 0)  -->
<!DOCTYPE svg PUBLIC "-//W3C//DTD SVG 1.1//EN" "http://www.w3.org/Graphics/SVG/1.1/DTD/svg11.dtd">
<svg version="1.1" id="Layer_1" xmlns="http://www.w3.org/2000/svg" xmlns:xlink="http://www.w3.org/1999/xlink" x="0px" y="0px"
	 viewBox="0 0 50 50" enable-background="new 0 0 50 50" xml:space="preserve">
<g>
	<g>
		<g>
			<path fill="#030304" d="M21.9,6.3c1.7-0.5,3.4-0.6,5.2-0.8c2,0.2,4,0.4,5.9,1c4.7,1.5,8.7,4.8,11.1,9.1c2.1,3.7,2.9,8.2,2.2,12.4
				c-0.6,4.1-2.7,8-5.7,10.9c-2.9,2.7-6.5,4.6-10.5,5.2c-4.1,0.7-8.5,0-12.2-2c-0.5-0.3-1-0.6-1.6-0.9c-1.4,1.1-3.1,1.7-4.9,1.8
				c-2.3,0.1-4.7-0.6-6.3-2.3c-1.2-1.2-1.7-2.9-1.6-4.5c0-4.1,0-8.2,0-12.4c0-1,0.6-2.1,1.6-2.4c0.6-0.2,1.2-0.1,1.7,0.1
				c-0.1-1.1,0.6-2.2,1.7-2.4c1.1-3.2,3-6.2,5.6-8.5C16.3,8.6,19,7.1,21.9,6.3z M16.1,10.4c-2.9,2.2-5.1,5.2-6.4,8.7
				c0.2,0.1,0.3,0.2,0.5,0.3c0.3-0.9,1.1-1.7,2.1-1.8c1.2-0.1,2.4,1,2.3,2.3c0.6-0.3,1.2-0.5,1.9-0.2c0.6,0.1,0.9,0.6,1.3,1
				c0.1,0.4,0.2,0.7,0.2,1.1c0,3.5,0,6.9,0,10.4c0.6-0.8,1.2-1.6,1.8-2.4c1-1,2.9-0.6,3.5,0.7c0.4,0.8,0.2,1.7-0.3,2.4
				c-1.9,2.5-3.8,5-5.7,7.4c3.2,2.1,7.1,3.1,10.9,2.8c3.4-0.2,6.7-1.4,9.5-3.4c3.1-2.3,5.5-5.5,6.7-9.2c1.2-3.8,1.2-8-0.2-11.8
				c-1.3-3.6-3.8-6.8-7-9c-3-2-6.6-3.1-10.2-3.1C23.2,6.8,19.3,8.1,16.1,10.4z M11.2,19.8c0,3.1,0,6.1,0,9.2c-0.3,0-0.6,0-0.9,0
				c-0.1-2.6,0-5.2,0-7.7c0-0.8-1-1.5-1.7-1C8.2,20.3,8,20.7,7.8,21c0,2.7,0,5.3,0,8c-0.3,0-0.6,0-0.9,0c0-2,0-4,0-6
				c-0.3-0.3-0.6-0.6-1-0.6c-0.7-0.1-1.3,0.5-1.3,1.2c0,4.7,0,9.3,0,14c0.2,1.2,0.8,2.2,1.6,3c1.4,1.2,3.4,1.8,5.2,1.7
				c2.1-0.1,4.4-1.1,5.5-3c1.7-2.4,3.6-4.6,5.3-7c0.5-0.7,0-1.7-0.8-1.8c-0.5-0.1-0.9,0.2-1.2,0.5c-0.8,1-1.6,2-2.4,3.1
				c-0.1,0-0.3,0.1-0.4,0.1c-0.1,0-0.3-0.1-0.4-0.2c0-0.2-0.1-0.3-0.1-0.5c0.1-3.8,0-7.7,0-11.5c0.1-1-1.1-1.6-1.9-1.1
				c-0.2,0.3-0.5,0.6-0.5,0.9c0,2.4,0,4.8,0,7.2c-0.3,0-0.6,0-0.9,0c-0.1-3.1,0-6.1-0.1-9.2c0-0.6-0.6-0.9-1-1.1
				C11.9,18.7,11.3,19.1,11.2,19.8z"/>
		</g>
		<path fill="#030304" d="M40.3,16.1c0.4-0.1,0.9-0.2,1.3-0.2c0.1,1.6-0.6,3.2-1.8,4.1c-1.7,1.4-4.3,1.4-6,0.1
			c-0.8-0.6-1.4-1.4-1.7-2.3c0.4-0.1,0.8-0.2,1.3-0.3c0.5,0.9,1.2,1.7,2.2,2.1c1.6,0.6,3.5-0.2,4.3-1.7
			C40.1,17.4,40.1,16.7,40.3,16.1z"/>
		<path fill="#030304" d="M28.6,17.9c0.4-0.1,0.9-0.2,1.3-0.2c0.1,1.5-0.6,3.1-1.8,4c-1.6,1.4-4.2,1.5-5.9,0.3
			c-0.9-0.6-1.6-1.5-1.9-2.5c0.4-0.1,0.9-0.2,1.3-0.2c0.4,0.8,1,1.5,1.8,1.9c0.5,0.3,1.1,0.3,1.6,0.4c1.2-0.1,2.4-0.7,3-1.9
			C28.4,19.2,28.5,18.5,28.6,17.9z"/>
		<path fill="#030304" d="M29.7,31.5c1.1-1.3,2.9-2,4.6-1.6c1.7,0.3,3.2,1.5,3.8,3.2c-0.4,0.1-0.9,0.2-1.3,0.3
			c-0.4-0.8-1.1-1.6-2-1.9c-1.2-0.5-2.7-0.3-3.6,0.5c-0.9,0.7-1.3,1.7-1.4,2.8c-0.4,0.1-0.9,0.2-1.3,0.2
			C28.4,33.7,28.8,32.4,29.7,31.5z"/>
	</g>
	<g>
		<g>
			<path fill="#FFFFFF" d="M16.1,10.4c3.1-2.4,7-3.6,10.9-3.6c3.6,0,7.2,1.1,10.2,3.1c3.2,2.2,5.7,5.3,7,9c1.4,3.8,1.4,8,0.2,11.8
				c-1.2,3.7-3.6,6.9-6.7,9.2c-2.8,2-6.1,3.2-9.5,3.4c-3.8,0.2-7.7-0.7-10.9-2.8c2-2.4,3.8-4.9,5.7-7.4c0.5-0.6,0.8-1.6,0.3-2.4
				c-0.6-1.3-2.5-1.7-3.5-0.7c-0.6,0.7-1.2,1.5-1.8,2.4c0-3.5,0-6.9,0-10.4c0-0.4-0.1-0.8-0.2-1.1c-0.4-0.4-0.7-0.9-1.3-1
				c-0.6-0.2-1.3-0.1-1.9,0.2c0.1-1.2-1.1-2.3-2.3-2.3c-1,0-1.8,0.8-2.1,1.8c-0.2-0.1-0.3-0.2-0.5-0.3C11,15.7,13.2,12.6,16.1,10.4z
				 M40.3,16.1c-0.1,0.6-0.2,1.2-0.5,1.8c-0.8,1.5-2.7,2.3-4.3,1.7c-1-0.3-1.8-1.1-2.2-2.1c-0.4,0.1-0.8,0.2-1.3,0.3
				c0.3,0.9,0.9,1.7,1.7,2.3c1.7,1.3,4.3,1.3,6-0.1c1.2-1,1.9-2.6,1.8-4.1C41.1,16,40.7,16.1,40.3,16.1z M28.6,17.9
				c-0.1,0.6-0.2,1.3-0.5,1.8c-0.6,1.1-1.8,1.7-3,1.9c-0.5-0.1-1.1-0.1-1.6-0.4c-0.8-0.4-1.4-1.1-1.8-1.9c-0.4,0.1-0.9,0.2-1.3,0.2
				c0.3,1,1,1.9,1.9,2.5c1.7,1.2,4.3,1.1,5.9-0.3c1.2-1,1.8-2.5,1.8-4C29.5,17.8,29,17.9,28.6,17.9z"/>
		</g>
		<path fill="#FFFFFF" d="M11.2,19.8c0.1-0.7,0.7-1.1,1.3-1.2c0.5,0.2,1,0.5,1,1.1c0.1,3.1,0,6.1,0.1,9.2c0.3,0,0.6,0,0.9,0
			c0-2.4,0-4.8,0-7.2c0-0.4,0.3-0.7,0.5-0.9c0.8-0.4,1.9,0.2,1.9,1.1c0,3.8,0.1,7.7,0,11.5c0,0.2,0.1,0.3,0.1,0.5
			c0.1,0,0.3,0.1,0.4,0.2c0.1,0,0.3-0.1,0.4-0.1c0.8-1,1.6-2,2.4-3.1c0.3-0.4,0.7-0.7,1.2-0.5c0.8,0.1,1.3,1.1,0.8,1.8
			c-1.7,2.4-3.6,4.6-5.3,7c-1.1,1.9-3.4,2.9-5.5,3c-1.9,0.1-3.8-0.5-5.2-1.7c-0.9-0.8-1.5-1.8-1.6-3c0-4.7,0-9.3,0-14
			c0-0.7,0.6-1.3,1.3-1.2c0.4,0,0.7,0.3,1,0.6c0,2,0,4,0,6c0.3,0,0.6,0,0.9,0c0-2.7,0-5.3,0-8c0.2-0.3,0.3-0.7,0.7-0.8
			c0.7-0.4,1.8,0.2,1.7,1c0,2.6,0,5.2,0,7.7c0.3,0,0.6,0,0.9,0C11.3,25.9,11.2,22.8,11.2,19.8z"/>
	</g>
	<path opacity="0.95" enable-background="new    " d="M35.4,27c-0.2,0-0.4,0.2-0.4,0.4c0,1.7-1.4,3.1-3.1,3.1
		c-1.7,0-3.1-1.4-3.1-3.1c0-0.2-0.2-0.4-0.4-0.4s-0.4,0.2-0.4,0.4c0,2.1,1.7,3.9,3.9,3.9c2.1,0,3.9-1.7,3.9-3.9
		C35.8,27.2,35.7,27,35.4,27z"/>
</g>
</svg>
