<?xml version="1.0" encoding="utf-8"?>
<!-- Generator: Adobe Illustrator 18.0.0, SVG Export Plug-In . SVG Version: 6.00 Build 0)  -->
<!DOCTYPE svg PUBLIC "-//W3C//DTD SVG 1.1//EN" "http://www.w3.org/Graphics/SVG/1.1/DTD/svg11.dtd">
<svg version="1.1" id="Layer_1" xmlns="http://www.w3.org/2000/svg" xmlns:xlink="http://www.w3.org/1999/xlink" x="0px" y="0px"
	 viewBox="0 0 50 50" enable-background="new 0 0 50 50" xml:space="preserve">
<g>
	<g>
		<g>
			<path fill="#030304" d="M21.9,5.7c1.7-0.5,3.5-0.7,5.2-0.8c2,0.2,4,0.4,5.9,1c4.7,1.5,8.8,4.8,11.1,9.2c2.1,3.8,2.9,8.2,2.2,12.5
				c-0.6,4.1-2.7,8-5.7,10.9c-2.9,2.8-6.6,4.6-10.5,5.2c-4.2,0.7-8.5,0-12.2-2.1c-0.5-0.3-1-0.6-1.6-0.9c-1.4,1.1-3.2,1.7-4.9,1.8
				c-2.3,0.1-4.7-0.6-6.3-2.3c-1.2-1.2-1.7-2.9-1.6-4.5c0-4.1,0-8.3,0-12.4c0-1,0.6-2.1,1.6-2.4c0.6-0.2,1.2-0.1,1.7,0.1
				c-0.1-1.1,0.6-2.2,1.7-2.4c1.1-3.3,3-6.3,5.6-8.5C16.3,8,19,6.5,21.9,5.7z M16.1,9.8c-2.9,2.2-5.2,5.3-6.4,8.7
				c0.2,0.1,0.3,0.2,0.5,0.3c0.3-0.9,1.1-1.7,2.1-1.8c1.2-0.1,2.4,1.1,2.3,2.3c0.6-0.3,1.2-0.5,1.9-0.2c0.6,0.1,1,0.6,1.3,1.1
				c0.1,0.4,0.2,0.7,0.2,1.1c0,3.5,0,7,0,10.4c0.6-0.8,1.2-1.6,1.8-2.4c1-1,3-0.6,3.5,0.7c0.4,0.8,0.2,1.7-0.3,2.4
				c-1.9,2.5-3.8,5-5.7,7.4c3.2,2.1,7.1,3.1,11,2.8c3.4-0.2,6.8-1.4,9.6-3.4c3.1-2.3,5.6-5.5,6.8-9.2c1.2-3.8,1.2-8-0.2-11.8
				c-1.3-3.7-3.8-6.8-7-9c-3-2-6.6-3.1-10.2-3.1C23.2,6.2,19.2,7.5,16.1,9.8z M11.2,19.2c0,3.1,0,6.1,0,9.2c-0.3,0-0.6,0-0.9,0
				c-0.1-2.6,0-5.2,0-7.8c0-0.8-1-1.5-1.7-1c-0.4,0.1-0.5,0.5-0.7,0.8c0,2.7,0,5.3,0,8c-0.3,0-0.6,0-0.9,0c0-2,0-4,0-6.1
				c-0.3-0.3-0.6-0.6-1-0.6c-0.7-0.1-1.3,0.5-1.3,1.2c0,4.7,0,9.4,0,14.1c0.2,1.2,0.8,2.3,1.7,3c1.4,1.2,3.4,1.8,5.2,1.7
				c2.1-0.1,4.4-1.1,5.5-3c1.8-2.4,3.6-4.7,5.4-7c0.5-0.7,0-1.7-0.8-1.8c-0.5-0.1-0.9,0.2-1.2,0.5c-0.8,1-1.6,2.1-2.4,3.1
				c-0.1,0-0.3,0.1-0.4,0.1c-0.1,0-0.3-0.1-0.4-0.2c0-0.2-0.1-0.4-0.1-0.5c0.1-3.8,0-7.7,0-11.6c0.1-1-1.1-1.6-1.9-1.1
				c-0.2,0.3-0.5,0.6-0.5,1c0,2.4,0,4.8,0,7.2c-0.3,0-0.6,0-0.9,0c-0.1-3.1,0-6.2-0.1-9.2c0-0.6-0.6-0.9-1.1-1.1
				C11.9,18.1,11.2,18.5,11.2,19.2z"/>
		</g>
		<path fill="#030304" d="M40.3,15.6c0.4-0.1,0.9-0.2,1.3-0.2c0.1,1.6-0.6,3.2-1.9,4.1c-1.7,1.4-4.3,1.4-6,0.1
			c-0.8-0.6-1.4-1.4-1.7-2.3c0.4-0.1,0.8-0.2,1.3-0.3c0.5,0.9,1.2,1.8,2.2,2.1c1.6,0.6,3.5-0.2,4.3-1.7
			C40.2,16.8,40.2,16.2,40.3,15.6z"/>
		<path fill="#030304" d="M28.6,17.4c0.4-0.1,0.9-0.2,1.3-0.2c0.1,1.5-0.6,3.1-1.8,4.1c-1.6,1.4-4.2,1.5-5.9,0.3
			c-0.9-0.6-1.6-1.5-1.9-2.5c0.4-0.1,0.9-0.2,1.3-0.2c0.4,0.8,1,1.5,1.9,1.9c0.5,0.3,1.1,0.3,1.6,0.4c1.2-0.1,2.4-0.7,3-1.9
			C28.5,18.6,28.5,18,28.6,17.4z"/>
		<path fill="#030304" d="M29.7,31c1.1-1.3,2.9-2,4.6-1.6c1.7,0.3,3.2,1.6,3.8,3.2c-0.4,0.1-0.9,0.2-1.3,0.3c-0.4-0.8-1.1-1.6-2-1.9
			c-1.2-0.5-2.7-0.3-3.7,0.5c-0.9,0.7-1.3,1.8-1.4,2.8c-0.4,0.1-0.9,0.2-1.4,0.2C28.4,33.2,28.8,31.9,29.7,31z"/>
	</g>
	<g>
		<g>
			<path fill="#FFFFFF" d="M16.1,9.8c3.1-2.4,7.1-3.6,11-3.7c3.6,0,7.2,1.1,10.2,3.1c3.2,2.2,5.7,5.4,7,9c1.4,3.8,1.4,8,0.2,11.8
				c-1.2,3.7-3.6,7-6.8,9.2c-2.8,2-6.1,3.2-9.6,3.4c-3.8,0.2-7.7-0.7-11-2.8c2-2.4,3.8-5,5.7-7.4c0.5-0.6,0.8-1.6,0.3-2.4
				c-0.6-1.3-2.5-1.8-3.5-0.7c-0.6,0.8-1.2,1.6-1.8,2.4c0-3.5,0-7,0-10.4c0-0.4-0.1-0.8-0.2-1.1c-0.4-0.4-0.7-0.9-1.3-1.1
				c-0.6-0.2-1.3-0.1-1.9,0.2c0.1-1.3-1.1-2.4-2.3-2.3c-1,0-1.9,0.8-2.1,1.8c-0.2-0.1-0.3-0.2-0.5-0.3C10.9,15.1,13.1,12,16.1,9.8z"
				/>
		</g>
		<path fill="#FFFFFF" d="M11.2,19.2c0.1-0.7,0.7-1.1,1.3-1.2c0.5,0.2,1,0.5,1.1,1.1c0.1,3.1,0,6.2,0.1,9.2c0.3,0,0.6,0,0.9,0
			c0-2.4,0-4.8,0-7.2c0-0.4,0.3-0.7,0.5-1c0.8-0.4,1.9,0.2,1.9,1.1c0,3.9,0.1,7.7,0,11.6c0,0.2,0.1,0.3,0.1,0.5
			c0.1,0,0.3,0.1,0.4,0.2c0.1,0,0.3-0.1,0.4-0.1c0.8-1,1.6-2.1,2.4-3.1c0.3-0.4,0.7-0.7,1.2-0.5c0.8,0.1,1.3,1.2,0.8,1.8
			c-1.8,2.4-3.6,4.7-5.4,7c-1.1,1.9-3.4,2.9-5.5,3c-1.9,0.1-3.8-0.5-5.2-1.7c-0.9-0.8-1.5-1.8-1.7-3c0-4.7,0-9.4,0-14.1
			c0-0.7,0.6-1.3,1.3-1.2c0.4,0,0.7,0.3,1,0.6c0,2,0,4,0,6.1c0.3,0,0.6,0,0.9,0c0-2.7,0-5.3,0-8c0.2-0.3,0.3-0.7,0.7-0.8
			c0.7-0.4,1.8,0.2,1.7,1c0,2.6,0,5.2,0,7.8c0.3,0,0.6,0,0.9,0C11.2,25.3,11.1,22.3,11.2,19.2z"/>
	</g>
	<g>
		<path opacity="0.95" enable-background="new    " d="M38.2,16.3c-1.4,0.1-2.4,1.4-2.3,2.8c0.1,1.4,1.4,2.4,2.8,2.3
			c1.4-0.1,2.4-1.4,2.3-2.8C40.9,17.2,39.6,16.2,38.2,16.3z M38.1,21.1c-0.2,0-0.4-0.1-0.4-0.4c0-0.2,0.1-0.4,0.4-0.4
			c0.2,0,0.4,0.1,0.4,0.4C38.5,20.8,38.3,21,38.1,21.1z M39.4,19.5c-0.5,0.1-1-0.5-1.1-1.2c-0.1-0.7,0.3-1.4,0.8-1.4
			c0.5-0.1,1,0.5,1.1,1.2C40.2,18.8,39.9,19.4,39.4,19.5z"/>
		<path opacity="0.95" enable-background="new    " d="M21.1,18.1c-1.4,0.1-2.4,1.4-2.3,2.8c0.1,1.4,1.4,2.4,2.8,2.3
			c1.4-0.1,2.4-1.4,2.3-2.8C23.7,19,22.5,18,21.1,18.1z M21,22.9c-0.2,0-0.4-0.1-0.4-0.4c0-0.2,0.1-0.4,0.4-0.4
			c0.2,0,0.4,0.1,0.4,0.4C21.4,22.6,21.2,22.8,21,22.9z M22.2,21.3c-0.5,0.1-1-0.5-1.1-1.2c-0.1-0.7,0.3-1.4,0.8-1.4
			c0.5-0.1,1,0.5,1.1,1.2C23.1,20.6,22.7,21.2,22.2,21.3z"/>
	</g>
	<path opacity="0.95" enable-background="new    " d="M33.4,27.1c-0.2,0-0.4,0.2-0.4,0.4c0,1.7-1.4,3.1-3.1,3.1
		c-1.7,0-3.1-1.4-3.1-3.1c0-0.2-0.2-0.4-0.4-0.4c-0.2,0-0.4,0.2-0.4,0.4c0,2.1,1.7,3.9,3.9,3.9c2.1,0,3.9-1.7,3.9-3.9
		C33.8,27.3,33.6,27.1,33.4,27.1z"/>
</g>
</svg>
