<?xml version="1.0" encoding="utf-8"?>
<!-- Generator: Adobe Illustrator 18.0.0, SVG Export Plug-In . SVG Version: 6.00 Build 0)  -->
<!DOCTYPE svg PUBLIC "-//W3C//DTD SVG 1.1//EN" "http://www.w3.org/Graphics/SVG/1.1/DTD/svg11.dtd">
<svg version="1.1" id="Layer_1" xmlns="http://www.w3.org/2000/svg" xmlns:xlink="http://www.w3.org/1999/xlink" x="0px" y="0px"
	 viewBox="0 0 50 50" enable-background="new 0 0 50 50" xml:space="preserve">
<g>
	<g>
		<g>
			<path fill="#030304" d="M21.9,6.6C23.6,6.2,25.3,6,27,5.8c2,0.2,3.9,0.4,5.8,1c4.6,1.4,8.6,4.7,10.9,9c2,3.7,2.8,8.1,2.1,12.3
				c-0.6,4-2.6,7.8-5.6,10.7c-2.8,2.7-6.5,4.6-10.3,5.1c-4.1,0.7-8.4,0-12-2c-0.5-0.3-1-0.6-1.5-0.8c-1.3,1.1-3.1,1.6-4.8,1.7
				c-2.2,0.1-4.6-0.6-6.2-2.3c-1.2-1.1-1.7-2.8-1.6-4.4c0-4.1,0-8.1,0-12.2c0-1,0.5-2.1,1.6-2.4c0.6-0.2,1.1-0.1,1.7,0.1
				c-0.1-1.1,0.6-2.1,1.7-2.4c1.1-3.2,2.9-6.2,5.5-8.4C16.5,8.8,19.1,7.4,21.9,6.6z M16.3,10.7c-2.9,2.1-5.1,5.2-6.3,8.5
				c0.2,0.1,0.3,0.2,0.5,0.3c0.3-0.9,1.1-1.7,2.1-1.7c1.2-0.1,2.3,1,2.3,2.3c0.6-0.3,1.2-0.4,1.8-0.2c0.6,0.1,0.9,0.6,1.3,1
				c0.1,0.4,0.2,0.7,0.2,1.1c0,3.4,0,6.8,0,10.2c0.6-0.8,1.1-1.6,1.8-2.3c1-1,2.9-0.6,3.4,0.7c0.4,0.8,0.2,1.7-0.3,2.3
				c-1.9,2.4-3.7,4.9-5.6,7.3c3.2,2,7,3,10.7,2.8c3.4-0.2,6.6-1.4,9.4-3.3c3.1-2.2,5.5-5.4,6.6-9.1c1.2-3.7,1.2-7.9-0.2-11.6
				c-1.3-3.6-3.7-6.7-6.9-8.8c-3-2-6.5-3.1-10-3.1C23.2,7.1,19.3,8.3,16.3,10.7z M11.4,19.8c0,3,0,6,0,9c-0.3,0-0.6,0-0.9,0
				c-0.1-2.5,0-5.1,0-7.6c0-0.8-1-1.5-1.7-1c-0.3,0.1-0.5,0.5-0.7,0.8c0,2.6,0,5.2,0,7.9c-0.3,0-0.6,0-0.9,0c0-2,0-4,0-6
				c-0.2-0.3-0.5-0.6-0.9-0.6c-0.7-0.1-1.3,0.5-1.3,1.2c0,4.6,0,9.2,0,13.8c0.2,1.1,0.7,2.2,1.6,3C8,41.5,9.9,42,11.7,42
				c2.1-0.1,4.3-1.1,5.4-3c1.7-2.3,3.5-4.6,5.3-6.9c0.5-0.7,0-1.7-0.8-1.8c-0.5-0.1-0.9,0.2-1.2,0.5c-0.8,1-1.5,2-2.3,3
				c-0.1,0-0.3,0.1-0.4,0.1c-0.1,0-0.3-0.1-0.4-0.2c0-0.2-0.1-0.3-0.1-0.5c0.1-3.8,0-7.6,0-11.3c0.1-0.9-1-1.5-1.9-1.1
				c-0.2,0.3-0.5,0.6-0.5,0.9c0,2.4,0,4.7,0,7.1c-0.3,0-0.6,0-0.9,0c-0.1-3,0-6-0.1-9.1c0-0.6-0.6-0.9-1-1.1
				C12.1,18.8,11.5,19.2,11.4,19.8z"/>
		</g>
		<path fill="#030304" d="M40,16.3c0.4-0.1,0.8-0.2,1.3-0.2c0.1,1.5-0.6,3.1-1.8,4.1c-1.6,1.4-4.2,1.4-5.9,0.1
			c-0.8-0.6-1.4-1.4-1.7-2.3c0.4-0.1,0.8-0.2,1.2-0.3c0.5,0.9,1.2,1.7,2.2,2c1.6,0.6,3.5-0.2,4.2-1.6C39.9,17.5,39.9,16.9,40,16.3z"
			/>
		<path fill="#030304" d="M28.6,18c0.4-0.1,0.8-0.2,1.3-0.2c0.1,1.5-0.6,3-1.7,4c-1.6,1.4-4.1,1.5-5.8,0.3c-0.9-0.6-1.5-1.4-1.9-2.4
			c0.4-0.1,0.8-0.2,1.3-0.2c0.4,0.8,1,1.5,1.8,1.9c0.5,0.3,1.1,0.3,1.6,0.4c1.2-0.1,2.4-0.7,3-1.8C28.4,19.3,28.5,18.6,28.6,18z"/>
		<path fill="#030304" d="M29.6,31.4c1.1-1.3,2.9-1.9,4.5-1.6c1.7,0.3,3.2,1.5,3.7,3.1c-0.4,0.1-0.8,0.2-1.3,0.3
			c-0.4-0.8-1-1.6-1.9-1.9C33.5,30.8,32,31,31,31.8c-0.9,0.6-1.3,1.7-1.3,2.8c-0.4,0.1-0.9,0.2-1.3,0.2
			C28.4,33.6,28.8,32.3,29.6,31.4z"/>
	</g>
	<g>
		<g>
			<path fill="#FFFFFF" d="M16.3,10.7c3.1-2.3,6.9-3.6,10.8-3.6c3.6,0,7.1,1.1,10,3.1c3.1,2.2,5.6,5.3,6.9,8.8
				c1.4,3.7,1.4,7.9,0.2,11.6c-1.2,3.6-3.5,6.8-6.6,9.1c-2.7,1.9-6,3.1-9.4,3.3c-3.8,0.2-7.6-0.7-10.7-2.8c1.9-2.4,3.7-4.9,5.6-7.3
				c0.5-0.6,0.8-1.6,0.3-2.3c-0.6-1.3-2.4-1.7-3.4-0.7c-0.6,0.7-1.2,1.5-1.8,2.3c0-3.4,0-6.8,0-10.2c0-0.4-0.1-0.7-0.2-1.1
				c-0.4-0.4-0.7-0.9-1.3-1c-0.6-0.2-1.3-0.1-1.8,0.2c0.1-1.2-1-2.3-2.3-2.3c-1,0-1.8,0.8-2.1,1.7c-0.2-0.1-0.3-0.2-0.5-0.3
				C11.2,15.8,13.4,12.8,16.3,10.7z"/>
		</g>
		<path fill="#FFFFFF" d="M11.4,19.8c0.1-0.7,0.7-1.1,1.3-1.1c0.5,0.2,1,0.5,1,1.1c0.1,3,0,6,0.1,9.1c0.3,0,0.6,0,0.9,0
			c0-2.4,0-4.7,0-7.1c0-0.4,0.3-0.7,0.5-0.9c0.8-0.4,1.9,0.2,1.9,1.1c0,3.8,0,7.6,0,11.3c0,0.2,0.1,0.3,0.1,0.5
			c0.1,0,0.3,0.1,0.4,0.2c0.1,0,0.3-0.1,0.4-0.1c0.8-1,1.5-2,2.3-3c0.3-0.4,0.7-0.6,1.2-0.5c0.8,0.1,1.3,1.1,0.8,1.8
			c-1.7,2.3-3.5,4.6-5.3,6.9c-1.1,1.9-3.3,2.8-5.4,3C9.9,42,8,41.5,6.5,40.3c-0.9-0.7-1.5-1.8-1.6-3c0-4.6,0-9.2,0-13.8
			c0-0.7,0.6-1.3,1.3-1.2c0.4,0,0.7,0.3,0.9,0.6c0,2,0,4,0,6c0.3,0,0.6,0,0.9,0c0-2.6,0-5.2,0-7.9c0.2-0.3,0.3-0.7,0.7-0.8
			c0.7-0.4,1.7,0.2,1.7,1c0,2.5,0,5.1,0,7.6c0.3,0,0.6,0,0.9,0C11.5,25.9,11.4,22.9,11.4,19.8z"/>
	</g>
	<g>
		<path opacity="0.95" enable-background="new    " d="M38,17c-1.4,0.1-2.4,1.4-2.2,2.7c0.1,1.4,1.4,2.4,2.7,2.2s2.4-1.4,2.2-2.7
			C40.6,17.9,39.3,16.9,38,17z M37.9,21.7c-0.2,0-0.4-0.1-0.4-0.4c0-0.2,0.1-0.4,0.4-0.4c0.2,0,0.4,0.1,0.4,0.4
			C38.2,21.5,38.1,21.6,37.9,21.7z M39.1,20.1c-0.5,0.1-1-0.5-1-1.2c-0.1-0.7,0.3-1.3,0.8-1.4c0.5-0.1,1,0.5,1,1.2
			S39.6,20,39.1,20.1z"/>
		<path opacity="0.95" enable-background="new    " d="M21.2,18.8c-1.4,0.1-2.4,1.4-2.2,2.7c0.1,1.4,1.4,2.4,2.7,2.2
			s2.4-1.4,2.2-2.7C23.8,19.6,22.5,18.6,21.2,18.8z M21,23.4c-0.2,0-0.4-0.1-0.4-0.4c0-0.2,0.1-0.4,0.4-0.4s0.4,0.1,0.4,0.4
			C21.4,23.2,21.3,23.4,21,23.4z M22.3,21.9c-0.5,0.1-1-0.5-1-1.2c-0.1-0.7,0.3-1.3,0.8-1.4c0.5-0.1,1,0.5,1,1.2
			S22.8,21.8,22.3,21.9z"/>
	</g>
	<path opacity="0.95" enable-background="new    " d="M26.4,31.8c0.2,0,0.4-0.2,0.4-0.4c0-1.7,1.4-3,3-3c1.7,0,3,1.4,3,3
		c0,0.2,0.2,0.4,0.4,0.4s0.4-0.2,0.4-0.4c0-2.1-1.7-3.8-3.8-3.8c-2.1,0-3.8,1.7-3.8,3.8C26,31.6,26.2,31.8,26.4,31.8z"/>
</g>
</svg>
