<?xml version="1.0" encoding="utf-8"?>
<!-- Generator: Adobe Illustrator 18.0.0, SVG Export Plug-In . SVG Version: 6.00 Build 0)  -->
<!DOCTYPE svg PUBLIC "-//W3C//DTD SVG 1.1//EN" "http://www.w3.org/Graphics/SVG/1.1/DTD/svg11.dtd">
<svg version="1.1" id="Layer_1" xmlns="http://www.w3.org/2000/svg" xmlns:xlink="http://www.w3.org/1999/xlink" x="0px" y="0px"
	 viewBox="0 0 50 50" enable-background="new 0 0 50 50" xml:space="preserve">
<g>
	<g>
		<g>
			<g>
				<circle fill="#FFFFFF" cx="26.4" cy="24.5" r="18.3"/>
			</g>
		</g>
		<g>
			<g>
				<path d="M26.4,43.4C16,43.4,7.5,35,7.4,24.7C7.3,14.3,15.6,5.7,26.1,5.5c10.4-0.1,19.1,8.3,19.2,18.7c0.1,5.1-1.8,9.9-5.4,13.5
					c-3.5,3.6-8.3,5.7-13.3,5.7C26.5,43.4,26.4,43.4,26.4,43.4z M26.4,6.8c-0.1,0-0.2,0-0.3,0C16.4,6.9,8.5,15,8.7,24.7
					c0.1,9.6,8.1,17.4,17.7,17.4c0.1,0,0.2,0,0.3,0c4.7-0.1,9.1-2,12.4-5.4c3.3-3.4,5.1-7.9,5-12.6C43.9,14.6,36,6.8,26.4,6.8z"/>
			</g>
		</g>
	</g>
	<g>
		<path fill="#030304" d="M16.2,20.5c-0.3,0.1-0.6,0.1-0.8,0.2c-0.1-1,0.3-2.1,1.1-2.8c1.1-1,2.8-1.1,4-0.3c0.5,0.4,1,0.9,1.2,1.5
			c-0.3,0.1-0.5,0.2-0.8,0.2c-0.3-0.6-0.9-1.1-1.5-1.3c-1.1-0.3-2.3,0.2-2.8,1.3C16.2,19.6,16.2,20.1,16.2,20.5z"/>
	</g>
	<g>
		<path fill="#030304" d="M29.9,17.3c0-0.5,0.1-1,0.3-1.5c0.4-0.9,1.4-1.5,2.4-1.6c0.4,0,0.9,0,1.3,0.2c0.7,0.3,1.2,0.8,1.6,1.4
			c0.3-0.1,0.7-0.2,1-0.3c-0.3-0.8-0.9-1.5-1.6-1.9c-1.5-0.9-3.5-0.7-4.8,0.5c-0.9,0.8-1.4,2.1-1.2,3.3
			C29.2,17.5,29.6,17.4,29.9,17.3z"/>
	</g>
	<g>
		<path d="M28.5,37.1c-1.2,0-2.4-0.4-3.7-1.1c-0.4-0.2-0.5-0.7-0.3-1.1c0.2-0.4,0.7-0.5,1.1-0.3c1.6,0.9,3,1.1,4.2,0.7
			c2.1-0.7,3.1-3,3.1-3c0.2-0.4,0.6-0.6,1-0.4c0.4,0.2,0.6,0.6,0.4,1c-0.1,0.1-1.3,3-4,3.9C29.7,37,29.1,37.1,28.5,37.1z"/>
	</g>
	<g>
		<path d="M34.3,17.4c-2,0.1-4.1,0.3-5.5,1.4c-1.6,0.4-3.2,0.5-5.2,0.3c-1.4-0.9-3.6-0.9-5.6-0.8c-2.3,0.1-4,0.9-4.8,2.1
			c-0.8,1.2-0.9,2.7-0.3,4.6c1.5,4.5,3.2,4.7,5.7,4.6c3.4-0.2,5.1-0.8,6.1-3.9c0.1-0.5,0.2-0.9,0.3-1.3c0,0,0,0,0,0
			c0.3-1.2,0.5-1.5,1.4-1.5c0.7,0,1,0.1,1.4,1.1c0.1,0.5,0.3,1,0.5,1.5c1.3,3,3,3.4,6.5,3.2c2.5-0.1,4.2-0.6,5.2-5.2
			c0.4-2,0.2-3.5-0.8-4.6C38.3,17.8,36.6,17.2,34.3,17.4z M26.4,21.6c-0.4,0-0.8,0.1-1.1,0.3c0-0.5-0.2-1-0.4-1.4c0.5,0,1,0,1.5,0
			c0.4,0,0.9-0.1,1.3-0.1c-0.1,0.4-0.2,0.9-0.2,1.5C27.2,21.6,26.8,21.6,26.4,21.6z"/>
	</g>
	<g>
		<path d="M10.9,40.1c-2,0-3.9-0.7-5.3-1.9c-1-0.9-1.7-2.1-1.9-3.5l0-0.1l0-0.4c0-4.4,0-8.7,0-13.1c0-1.1,0.9-2.1,2.1-2.1
			c0.1,0,0.1,0,0.2,0c0.3,0,0.6,0.1,0.8,0.2c0-0.2,0-0.8,0-0.8l0.2-0.3c0.2-0.3,0.4-0.8,1-1.1c0.3-0.2,0.6-0.2,0.9-0.2
			c0.4,0,0.9,0.1,1.2,0.4c0.2-0.9,1-1.6,2.1-1.7l0.2,0l0.2,0.1c1.3,0.5,1.6,1.4,1.6,1.9c0,0.1,0,0.2,0,0.3l0.1,0
			c0.3-0.2,0.7-0.2,1-0.2c0.6,0,1.2,0.3,1.6,0.7c0.4,0.4,0.6,0.9,0.6,1.5c0,1.5,0,3,0,4.4c0,1.8,0,3.6,0,5.5
			c0.2-0.2,0.3-0.4,0.5-0.6c0.3-0.4,0.7-0.9,1-1.3c0.4-0.6,1.1-0.9,1.7-0.9c0.1,0,0.3,0,0.4,0c0.7,0.1,1.3,0.6,1.6,1.3
			c0.3,0.7,0.2,1.4-0.2,1.9c-0.8,1.1-1.7,2.2-2.5,3.3c-0.9,1.1-1.7,2.2-2.6,3.4c-1.1,1.9-3.4,3.1-6,3.3C11.1,40.1,11,40.1,10.9,40.1
			z"/>
	</g>
	<g>
		<path fill="#FFFFFF" d="M11,17.6c0-0.7,0.7-1.1,1.3-1.1c0.5,0.2,1,0.5,1,1.1c0.1,2.9,0,5.9,0.1,8.8c0.3,0,0.6,0,0.9,0
			c0-2.3,0-4.6,0-6.9c0-0.4,0.3-0.6,0.5-0.9c0.8-0.4,1.9,0.2,1.8,1.1c0,3.7,0,7.4,0,11c0,0.2,0.1,0.3,0.1,0.5c0.1,0,0.3,0.1,0.4,0.2
			c0.1,0,0.3-0.1,0.4-0.1c0.8-1,1.5-2,2.3-2.9c0.3-0.3,0.7-0.6,1.2-0.5c0.8,0.1,1.2,1.1,0.8,1.7c-1.7,2.3-3.4,4.5-5.1,6.7
			c-1.1,1.8-3.2,2.8-5.3,2.9c-1.8,0.1-3.6-0.4-5-1.6c-0.9-0.7-1.4-1.8-1.6-2.9c0-4.5,0-9,0-13.4c0-0.6,0.6-1.2,1.2-1.1
			c0.4,0,0.7,0.3,0.9,0.5c0,1.9,0,3.9,0,5.8c0.3,0,0.6,0,0.9,0c0-2.5,0-5.1,0-7.6C7.9,18.5,8,18.1,8.3,18C9,17.6,10,18.2,10,19
			c0,2.5,0,4.9,0,7.4c0.3,0,0.6,0,0.9,0C11,23.5,10.9,20.5,11,17.6z"/>
	</g>
</g>
</svg>
