<?xml version="1.0" encoding="utf-8"?>
<!-- Generator: Adobe Illustrator 18.0.0, SVG Export Plug-In . SVG Version: 6.00 Build 0)  -->
<!DOCTYPE svg PUBLIC "-//W3C//DTD SVG 1.1//EN" "http://www.w3.org/Graphics/SVG/1.1/DTD/svg11.dtd">
<svg version="1.1" id="Layer_1" xmlns="http://www.w3.org/2000/svg" xmlns:xlink="http://www.w3.org/1999/xlink" x="0px" y="0px"
	 viewBox="0 0 50 50" enable-background="new 0 0 50 50" xml:space="preserve">
<g>
	<g>
		<path d="M26.5,27"/>
	</g>
	<g>
		<g>
			<g>
				<g>
					<path fill="#030304" d="M22,6.9c1.6-0.5,3.3-0.6,5-0.8c1.9,0.2,3.9,0.4,5.7,1c4.5,1.4,8.5,4.7,10.8,8.8c2,3.6,2.8,8,2.1,12.1
						c-0.6,4-2.6,7.7-5.5,10.5c-2.8,2.7-6.4,4.5-10.2,5.1c-4,0.7-8.2,0-11.8-2c-0.5-0.3-1-0.6-1.5-0.8c-1.3,1.1-3,1.6-4.7,1.7
						c-2.2,0.1-4.5-0.6-6.1-2.2c-1.2-1.1-1.7-2.8-1.6-4.4c0-4,0-8,0-12c0-1,0.5-2.1,1.5-2.4c0.5-0.2,1.1-0.1,1.7,0.1
						C7.3,20.6,8,19.5,9,19.3c1.1-3.1,2.9-6.1,5.4-8.3C16.6,9.1,19.2,7.7,22,6.9z M16.4,10.9c-2.8,2.1-5,5.1-6.2,8.4
						c0.2,0.1,0.3,0.2,0.5,0.3c0.3-0.9,1.1-1.7,2-1.7c1.2-0.1,2.3,1,2.2,2.2c0.6-0.3,1.2-0.4,1.8-0.2c0.6,0.1,0.9,0.6,1.3,1
						c0.1,0.4,0.2,0.7,0.2,1.1c0,3.4,0,6.7,0,10.1c0.6-0.8,1.1-1.6,1.7-2.3c1-1,2.8-0.6,3.4,0.7c0.4,0.7,0.2,1.7-0.3,2.3
						c-1.9,2.4-3.6,4.8-5.5,7.2c3.1,2,6.9,3,10.6,2.7c3.3-0.2,6.5-1.4,9.2-3.3c3-2.2,5.4-5.3,6.5-8.9c1.2-3.7,1.2-7.8-0.2-11.4
						c-1.2-3.5-3.7-6.6-6.7-8.7c-2.9-1.9-6.4-3-9.9-3C23.2,7.4,19.4,8.6,16.4,10.9z M11.7,19.9c0,3,0,5.9,0,8.9c-0.3,0-0.6,0-0.9,0
						c-0.1-2.5,0-5,0-7.5c0-0.8-1-1.4-1.7-1c-0.3,0.1-0.5,0.5-0.7,0.8c0,2.6,0,5.2,0,7.7c-0.3,0-0.6,0-0.9,0c0-2,0-3.9,0-5.9
						c-0.2-0.3-0.5-0.6-0.9-0.5c-0.7-0.1-1.3,0.5-1.3,1.1c0,4.5,0,9.1,0,13.6c0.1,1.1,0.7,2.2,1.6,2.9c1.4,1.2,3.3,1.7,5.1,1.6
						c2.1-0.1,4.3-1,5.3-2.9c1.7-2.3,3.5-4.5,5.2-6.8c0.5-0.7,0-1.6-0.8-1.8c-0.5-0.1-0.9,0.2-1.2,0.5c-0.8,1-1.5,2-2.3,3
						c-0.1,0-0.3,0.1-0.4,0.1c-0.1,0-0.3-0.1-0.4-0.2c0-0.2-0.1-0.3-0.1-0.5c0.1-3.7,0-7.4,0-11.2c0.1-0.9-1-1.5-1.8-1.1
						c-0.2,0.3-0.5,0.5-0.5,0.9c0,2.3,0,4.7,0,7c-0.3,0-0.6,0-0.9,0c-0.1-3,0-6-0.1-8.9c0-0.6-0.5-0.9-1-1.1
						C12.3,18.9,11.7,19.3,11.7,19.9z"/>
				</g>
			</g>
			<g>
				<path fill="#030304" d="M29.5,31.3c1.1-1.3,2.8-1.9,4.4-1.6c1.7,0.3,3.1,1.5,3.7,3.1c-0.4,0.1-0.8,0.2-1.2,0.3
					c-0.4-0.8-1-1.5-1.9-1.9c-1.1-0.5-2.6-0.3-3.5,0.5c-0.9,0.6-1.3,1.7-1.3,2.7c-0.4,0.1-0.9,0.2-1.3,0.2
					C28.3,33.4,28.7,32.2,29.5,31.3z"/>
			</g>
		</g>
		<g>
			<g>
				<path fill="#FFFFFF" d="M16.4,10.9c3-2.3,6.8-3.5,10.6-3.5c3.5,0,7,1.1,9.9,3c3.1,2.1,5.5,5.2,6.7,8.7c1.3,3.6,1.4,7.7,0.2,11.4
					c-1.1,3.6-3.5,6.7-6.5,8.9c-2.7,1.9-5.9,3.1-9.2,3.3c-3.7,0.2-7.5-0.7-10.6-2.7c1.9-2.4,3.7-4.8,5.5-7.2
					c0.5-0.6,0.7-1.5,0.3-2.3c-0.5-1.3-2.4-1.7-3.4-0.7c-0.6,0.7-1.2,1.5-1.7,2.3c0-3.4,0-6.7,0-10.1c0-0.4-0.1-0.7-0.2-1.1
					c-0.3-0.4-0.7-0.9-1.3-1c-0.6-0.2-1.2-0.1-1.8,0.2c0.1-1.2-1-2.3-2.2-2.2c-1,0-1.8,0.8-2,1.7c-0.2-0.1-0.3-0.2-0.5-0.3
					C11.4,16,13.6,13,16.4,10.9z"/>
			</g>
		</g>
		<g>
			<path d="M30.6,32l-1.4-0.8c0.1-0.1,1.6-2.8,4.5-3.5c1.8-0.4,3.6,0.1,5.4,1.4l-0.9,1.3c-1.5-1.1-2.9-1.5-4.2-1.2
				C31.8,29.8,30.6,32,30.6,32z"/>
		</g>
	</g>
	<g>
		<path d="M36.1,13c-2,0-4.2,0.1-5.6,1.1c-1.7,0.4-3.3,0.4-5.3,0c-1.4-1-3.6-1.1-5.6-1.1c-2.3,0-4,0.6-5,1.9c-0.9,1.1-1,2.7-0.5,4.7
			c1.2,4.6,3,4.9,5.5,4.9c3.5,0,5.2-0.5,6.3-3.6c0.2-0.5,0.3-0.9,0.4-1.3c0,0,0,0,0,0c0.4-1.2,0.6-1.5,1.5-1.5c0.8,0,1,0.2,1.4,1.2
			c0.1,0.5,0.3,1,0.5,1.6c1.1,3.1,2.8,3.6,6.3,3.6c2.5,0,4.3-0.3,5.5-4.9c0.5-2,0.4-3.5-0.5-4.7C40.2,13.6,38.4,13,36.1,13z
			 M27.9,16.8c-0.4,0-0.8,0.1-1.1,0.2c0-0.6-0.1-1-0.3-1.5c0.5,0.1,1,0.1,1.5,0.1c0.4,0,0.9,0,1.3-0.1C29.1,15.9,29,16.4,29,17
			C28.7,16.8,28.4,16.8,27.9,16.8z"/>
	</g>
	<g>
		<g>
			<path fill="#FFFFFF" d="M17.2,21.4c-0.3-0.6-1.1-0.8-1.7-0.5c-0.2,0.2-0.4,0.5-0.5,0.8c0.1-0.3,0.4-0.5,0.5-0.7
				C16.1,20.6,16.8,20.9,17.2,21.4z"/>
		</g>
		<g>
			<path fill="#F9F9F9" d="M21.6,30.2c-0.5-0.1-0.9,0.2-1.2,0.5c-0.8,1-1.5,2-2.3,3c-0.1,0-0.3,0.1-0.4,0.1c-0.1,0-0.3-0.1-0.4-0.2
				c0-0.2-0.1-0.3-0.1-0.5c0.1-3,0-10.4,0-11.1c0-0.2,0-0.5-0.1-0.6c-0.3-0.5-1-0.9-1.7-0.5c-0.2,0.1-0.4,0.5-0.5,0.8
				c0,0,0,4.8,0,7.1c-0.3,0-0.6,0-0.9,0c-0.1-3,0-6-0.1-8.9c0-0.6-0.5-0.9-1-1.1c-0.6,0.1-1.2,0.5-1.3,1.1c0,3,0,5.9,0,8.9
				c-0.3,0-0.6,0-0.9,0c-0.1-2.5,0-5,0-7.5c0-0.8-1-1.4-1.7-1c-0.3,0.1-0.5,0.5-0.7,0.8c0,2.6,0,5.2,0,7.7c-0.3,0-0.6,0-0.9,0
				c0-2,0-3.9,0-5.9c-0.2-0.3-0.5-0.6-0.9-0.5c-0.7-0.1-1.3,0.5-1.3,1.1c0,4.5,0,9.1,0,13.6c0.1,1.1,0.7,2.2,1.6,2.9
				c1.4,1.2,3.3,1.7,5.1,1.6c2.1-0.1,4.3-1,5.3-2.9c1.7-2.3,3.5-4.5,5.2-6.8C22.9,31.3,22.4,30.3,21.6,30.2z"/>
		</g>
	</g>
</g>
</svg>
