<?xml version="1.0" encoding="utf-8"?>
<!-- Generator: Adobe Illustrator 18.0.0, SVG Export Plug-In . SVG Version: 6.00 Build 0)  -->
<!DOCTYPE svg PUBLIC "-//W3C//DTD SVG 1.1//EN" "http://www.w3.org/Graphics/SVG/1.1/DTD/svg11.dtd">
<svg version="1.1" id="Layer_1" xmlns="http://www.w3.org/2000/svg" xmlns:xlink="http://www.w3.org/1999/xlink" x="0px" y="0px"
	 viewBox="0 0 50 50" enable-background="new 0 0 50 50" xml:space="preserve">
<g>
	<g>
		<g>
			<g>
				<circle fill="#FFFFFF" cx="26.8" cy="25" r="18"/>
			</g>
			<g>
				<path d="M26.8,43.6c-10.1,0-18.4-8.2-18.6-18.3C8.1,15,16.3,6.6,26.6,6.4c10.2-0.1,18.7,8.1,18.8,18.3c0.1,5-1.8,9.7-5.3,13.2
					c-3.5,3.6-8.1,5.6-13.1,5.6C27,43.6,26.9,43.6,26.8,43.6z M26.8,7.6c-0.1,0-0.2,0-0.2,0C17,7.8,9.3,15.7,9.5,25.2
					c0.1,9.4,7.9,17.1,17.3,17.1c0.1,0,0.2,0,0.2,0c4.6-0.1,9-1.9,12.2-5.3c3.2-3.3,5-7.7,4.9-12.3C44.1,15.3,36.3,7.6,26.8,7.6z"/>
			</g>
		</g>
		<path d="M35.2,14.9c-1.9,0.1-4,0.3-5.3,1.3c-1.6,0.4-3.2,0.5-5.1,0.3c-1.4-0.9-3.5-0.9-5.5-0.7c-2.2,0.1-3.9,0.8-4.7,2.1
			c-0.8,1.2-0.9,2.7-0.3,4.6c1.4,4.4,3.1,4.6,5.6,4.5c3.4-0.2,5-0.8,5.9-3.8c0.1-0.4,0.2-0.9,0.3-1.3c0,0,0,0,0,0
			c0.3-1.2,0.5-1.4,1.3-1.5c0.7,0,1,0.1,1.4,1.1c0.1,0.5,0.3,1,0.5,1.5c1.2,2.9,3,3.3,6.3,3.2c2.4-0.1,4.1-0.6,5.1-5.1
			c0.4-1.9,0.2-3.4-0.8-4.5C39.2,15.3,37.5,14.8,35.2,14.9z M27.5,19c-0.4,0-0.8,0.1-1.1,0.3c0-0.5-0.2-1-0.4-1.4c0.5,0,1,0,1.5,0
			c0.4,0,0.8-0.1,1.2-0.1c-0.1,0.4-0.2,0.9-0.2,1.4C28.3,19.1,27.9,19,27.5,19z"/>
		<path d="M11.7,40.3c-2,0-3.8-0.6-5.2-1.8c-1-0.8-1.7-2.1-1.9-3.4l0-0.1l0-0.4c0-4.3,0-8.5,0-12.8c0-1.1,0.9-2,2-2
			c0.1,0,0.1,0,0.2,0c0.3,0,0.6,0.1,0.8,0.2c0-0.2,0-0.8,0-0.8l0.2-0.3c0.2-0.3,0.4-0.8,1-1.1c0.3-0.2,0.6-0.2,0.9-0.2
			c0.4,0,0.8,0.1,1.2,0.4c0.2-0.9,1-1.6,2.1-1.7l0.2,0l0.2,0.1c1.3,0.5,1.5,1.4,1.6,1.9c0,0.1,0,0.2,0,0.2l0.1,0
			c0.3-0.2,0.6-0.2,1-0.2c0.6,0,1.2,0.2,1.6,0.7c0.4,0.4,0.6,0.9,0.6,1.5c0,1.4,0,2.9,0,4.4c0,1.8,0,3.6,0,5.4
			c0.1-0.2,0.3-0.4,0.4-0.6c0.3-0.4,0.6-0.8,1-1.3c0.4-0.6,1.1-0.9,1.7-0.9c0.1,0,0.3,0,0.4,0c0.7,0.1,1.3,0.6,1.5,1.3
			c0.3,0.7,0.2,1.4-0.2,1.9c-0.8,1.1-1.6,2.2-2.5,3.2c-0.8,1.1-1.7,2.2-2.5,3.3c-1.1,1.9-3.3,3.1-5.9,3.2
			C11.9,40.3,11.8,40.3,11.7,40.3z"/>
		<path fill="#FFFFFF" d="M11.7,18.3c0-0.6,0.7-1,1.3-1.1c0.5,0.2,1,0.5,1,1.1c0.1,2.9,0,5.8,0.1,8.7c0.3,0,0.6,0,0.9,0
			c0-2.3,0-4.5,0-6.8c0-0.4,0.3-0.6,0.5-0.9c0.8-0.4,1.8,0.1,1.8,1.1c0,3.6,0,7.2,0,10.8c0,0.2,0.1,0.3,0.1,0.5
			c0.1,0,0.3,0.1,0.4,0.2c0.1,0,0.3-0.1,0.4-0.1c0.8-1,1.5-1.9,2.2-2.9c0.3-0.3,0.7-0.6,1.1-0.5c0.7,0.1,1.2,1.1,0.7,1.7
			c-1.6,2.2-3.4,4.4-5,6.6c-1,1.8-3.2,2.7-5.2,2.8c-1.7,0.1-3.6-0.4-4.9-1.6c-0.8-0.7-1.4-1.7-1.6-2.8c0-4.4,0-8.8,0-13.2
			c0-0.6,0.6-1.2,1.2-1.1c0.4,0,0.7,0.3,0.9,0.5c0,1.9,0,3.8,0,5.7c0.3,0,0.6,0,0.9,0c0-2.5,0-5,0-7.5c0.2-0.3,0.3-0.6,0.6-0.8
			c0.7-0.4,1.7,0.2,1.6,1c0,2.4,0,4.9,0,7.3c0.3,0,0.6,0,0.9,0C11.8,24,11.7,21.2,11.7,18.3z"/>
	</g>
	<path d="M36.4,31.2c0,0-0.3,0.1-0.7,0.1c-0.8,0-1.9-0.2-2.8-1.1c0,0-0.1-0.1-0.1-0.1c-0.9-0.7-2.2-0.6-3.1,0.1
		c-0.8-0.7-2.2-0.8-3.1-0.1c0,0-0.1,0-0.1,0.1c-0.9,0.9-2,1.1-2.8,1.1c-0.4,0-0.7-0.1-0.7-0.1c-0.1,0-0.3,0-0.4,0.1
		c-0.1,0.1-0.1,0.2-0.1,0.4c0,0,0.8,2.8,4.5,2.8c0.5,0,1,0,1.5-0.1c0,0,0.1,0,0.1,0c0.4-0.1,0.7-0.3,1-0.6c0.3,0.3,0.7,0.5,1,0.6
		c0,0,0.1,0,0.1,0c0.5,0.1,1,0.1,1.5,0.1c3.7,0,4.5-2.7,4.5-2.8c0-0.1,0-0.3-0.1-0.4C36.7,31.3,36.5,31.2,36.4,31.2z"/>
</g>
</svg>
