<?xml version="1.0" encoding="utf-8"?>
<!-- Generator: Adobe Illustrator 18.0.0, SVG Export Plug-In . SVG Version: 6.00 Build 0)  -->
<!DOCTYPE svg PUBLIC "-//W3C//DTD SVG 1.1//EN" "http://www.w3.org/Graphics/SVG/1.1/DTD/svg11.dtd">
<svg version="1.1" id="Layer_1" xmlns="http://www.w3.org/2000/svg" xmlns:xlink="http://www.w3.org/1999/xlink" x="0px" y="0px"
	 viewBox="0 0 50 50" enable-background="new 0 0 50 50" xml:space="preserve">
<g>
	<g>
		<g>
			<path fill="#FFFFFF" d="M41.2,11c-1.6-2.6-5.8-4.8-9.7-5.8c0,0,0,0,0,0c-0.1,0-0.2,0-0.4-0.1c0,0,0,0,0,0c0,0,0,0,0,0
				c-1.2-0.2-2.4-0.3-3.7-0.4c0,0-0.1,0-0.1,0c-1.5,0.1-2.8,0.2-4.1,0.5c-0.2,0-0.4,0.1-0.6,0.1c-0.2,0-0.4,0.1-0.6,0.1
				c-4,1-6.9,2.8-8.6,5.5c-3.5,5.6-1,13.5-0.2,15.7c0,0,0,0,0,0c0.6-0.4,2.6-3.2,2.7-1.8c1.7,23.3,24.6,19,25.2,1.7
				c0,0,0.1,0.1,0.1,0.1C42.2,24.5,44.6,16.6,41.2,11z"/>
			<path d="M22.2,22.9c-1.1,0-2.1,0.9-2.1,2.1c0,1.1,0.9,2.1,2.1,2.1s2.1-0.9,2.1-2.1C24.3,23.9,23.4,22.9,22.2,22.9"/>
			<path d="M32.2,27.1c1.1,0,2.1-0.9,2.1-2.1s-0.9-2.1-2.1-2.1c-1.1,0-2.1,0.9-2.1,2.1S31.1,27.1,32.2,27.1"/>
			<path d="M38.9,27.9c0,0.3,0,0.6,0,0.9c-0.3-0.1-0.6-0.2-1-0.2c-1.1,0-2,0.7-2.5,1.2c-0.6-0.5-1.2-0.8-1.9-0.8
				c-1,0-1.8,0.5-2.3,0.8c-0.5-0.2-1-0.3-1.5-0.3c-1.1,0-2,0.5-2.5,0.8c-0.7-0.5-1.5-0.8-2.4-0.8c-0.7,0-1.3,0.2-1.7,0.3
				c-0.7-0.5-1.4-0.7-2.2-0.7c-0.8,0-1.5,0.3-1.9,0.6c-1-1-2-1.2-2.8-1.2c-0.3,0-0.5,0-0.7,0.1c0-0.2,0-0.4,0-0.7
				c0-0.4,0-0.8,0.1-1.2c-1.3,0.9-2.2,1.4-2.4,1.5c0,0,0,0,0,0c0,0.6,0.1,1.2,0.1,1.8c-0.3,0.4-0.6,0.9-0.7,1.4
				c-0.1,0.7,0,1.5,0.5,2.2c-0.2,1.2,0.1,3.1,1.8,3.8c0.1,1.4,0.9,3.4,3,3.6c0.3,1.2,1.3,3,3.4,3c0.1,0,0.3,0,0.5,0
				c0.5,0.4,1.7,1.2,3.2,1.2c0.8,0,1.5-0.2,2.3-0.6c0.8,0.3,1.6,0.5,2.3,0.5h0c1.9,0,2.9-1.1,3.3-1.8c0.1,0,0.3,0,0.4,0
				c1.9,0,2.9-1.4,3.2-2.4c2.2-0.2,2.9-2.3,3-3.6c1.7-0.7,2-2.6,1.8-3.8c0.5-0.8,0.5-1.6,0.4-2c-0.1-0.4-0.3-0.8-0.6-1.1
				c0.1-0.7,0.3-3,0.3-3.8c-0.3-0.2-1.2-0.7-2.4-1.6C39,25.4,38.9,27.4,38.9,27.9 M27.2,37.2c-2.7,0-4.9-1.7-5.9-4.1h11.7
				C32.1,35.5,29.9,37.2,27.2,37.2"/>
			<path d="M41.2,11c-1.7-2.7-4.6-4.6-8.6-5.5c-0.1,2.1-1.9,6.4-2.8,7.8c-0.1,0.2-0.3,0.5-0.4,0.7c-0.4,0.6-0.9,1.2-1.4,1.8
				c0.1,0.1,7.6,7.1,10.5,9.1c1.1,0.8,2.1,1.4,2.7,1.8c0,0,0.1,0.1,0.1,0.1C42.2,24.5,44.7,16.6,41.2,11"/>
			<path d="M27.3,4.8c0,0-0.1,0-0.1,0c-1.5,0.1-2.8,0.2-4.1,0.5c-0.2,0-0.4,0.1-0.6,0.1c-0.2,0-0.4,0.1-0.6,0.1
				c-4,1-6.9,2.8-8.6,5.5c-3.5,5.6-1,13.5-0.2,15.7c0,0,0,0,0,0c0.6-0.4,1.5-1,2.7-1.8c2.9-2,7.1-5.2,10.3-8.8
				c0.1-0.1,0.2-0.3,0.4-0.4c0.1-0.2,0.3-0.3,0.4-0.5c0.1-0.2,0.3-0.3,0.4-0.5c0.3-0.3,0.5-0.7,0.8-1.1c0.3-0.4,0.5-0.8,0.8-1.1
				c1.4-2.2,2.7-6.4,2.6-7.4C30.2,5,28.8,4.8,27.3,4.8"/>
		</g>
		<path d="M10.8,40.7c-1.8,0-3.5-0.6-4.7-1.7c-0.9-0.8-1.5-1.9-1.7-3.1l0-0.1l0-0.4c0-3.9,0-7.8,0-11.6c0-1,0.8-1.9,1.8-1.9
			c0.1,0,0.1,0,0.2,0c0.3,0,0.5,0.1,0.7,0.2c0-0.2,0-0.7,0-0.7l0.1-0.3c0.2-0.3,0.4-0.7,0.9-1c0.3-0.1,0.5-0.2,0.8-0.2
			c0.4,0,0.8,0.1,1.1,0.3c0.2-0.8,0.9-1.4,1.9-1.5l0.2,0l0.2,0.1c1.2,0.5,1.4,1.3,1.4,1.7c0,0.1,0,0.1,0,0.2l0.1,0
			c0.3-0.1,0.6-0.2,0.9-0.2c0.5,0,1.1,0.2,1.4,0.6c0.3,0.4,0.5,0.8,0.5,1.3c0,1.3,0,2.7,0,4c0,1.6,0,3.2,0,4.9
			c0.1-0.2,0.3-0.4,0.4-0.5c0.3-0.4,0.6-0.8,0.9-1.1c0.4-0.5,1-0.8,1.5-0.8c0.1,0,0.2,0,0.4,0c0.6,0.1,1.1,0.6,1.4,1.2
			c0.2,0.6,0.2,1.2-0.2,1.7c-0.7,1-1.5,2-2.2,2.9c-0.8,1-1.5,2-2.3,3c-1,1.7-3,2.8-5.3,2.9C11,40.7,10.9,40.7,10.8,40.7z"/>
		<path fill="#FFFFFF" d="M10.8,20.7c0-0.6,0.6-0.9,1.1-1c0.4,0.2,0.9,0.5,0.9,1c0.1,2.6,0,5.2,0,7.9c0.3,0,0.5,0,0.8,0
			c0-2.1,0-4.1,0-6.2c0-0.3,0.3-0.6,0.5-0.8c0.7-0.4,1.7,0.1,1.6,1c0,3.3,0,6.6,0,9.8c0,0.1,0.1,0.3,0.1,0.4c0.1,0,0.2,0.1,0.3,0.1
			c0.1,0,0.3-0.1,0.3-0.1c0.7-0.9,1.3-1.7,2-2.6c0.2-0.3,0.6-0.6,1-0.5c0.7,0.1,1.1,1,0.7,1.6c-1.5,2-3.1,4-4.6,6
			c-0.9,1.6-2.9,2.5-4.7,2.6c-1.6,0.1-3.2-0.4-4.5-1.4c-0.8-0.6-1.3-1.6-1.4-2.6c0-4,0-8,0-12c0-0.6,0.5-1.1,1.1-1
			c0.3,0,0.6,0.2,0.8,0.5c0,1.7,0,3.4,0,5.2c0.3,0,0.5,0,0.8,0c0-2.3,0-4.5,0-6.8c0.1-0.3,0.3-0.6,0.6-0.7c0.6-0.4,1.5,0.2,1.5,0.9
			c0,2.2,0,4.4,0,6.6c0.3,0,0.5,0,0.8,0C10.9,25.9,10.8,23.3,10.8,20.7z"/>
	</g>
	<path d="M45.7,21"/>
</g>
</svg>
