<?xml version="1.0" encoding="utf-8"?>
<!-- Generator: Adobe Illustrator 18.0.0, SVG Export Plug-In . SVG Version: 6.00 Build 0)  -->
<!DOCTYPE svg PUBLIC "-//W3C//DTD SVG 1.1//EN" "http://www.w3.org/Graphics/SVG/1.1/DTD/svg11.dtd">
<svg version="1.1" id="Layer_1" xmlns="http://www.w3.org/2000/svg" xmlns:xlink="http://www.w3.org/1999/xlink" x="0px" y="0px"
	 viewBox="0 0 82 82" enable-background="new 0 0 82 82" xml:space="preserve">
<g>
	<g>
		<g>
			<g>
				<path fill="#030304" d="M35.7,9c2.9-0.8,5.9-1.1,8.9-1.4c3.4,0.3,6.8,0.7,10.1,1.8c8,2.5,15,8.2,19,15.6
					c3.6,6.4,4.9,14.1,3.7,21.3c-1.1,7-4.6,13.6-9.7,18.6c-4.9,4.7-11.2,7.9-17.9,8.9c-7.1,1.1-14.5-0.1-20.9-3.5
					c-0.9-0.5-1.8-1-2.7-1.5c-2.3,1.9-5.4,2.9-8.4,3c-3.9,0.1-8-1.1-10.8-4c-2-2-2.9-4.9-2.8-7.7c0-7.1,0-14.1,0-21.2
					c0-1.7,0.9-3.7,2.7-4.2c1-0.4,2-0.1,2.9,0.2c-0.2-1.9,1-3.7,2.9-4.2c1.9-5.6,5.1-10.7,9.5-14.6C26.1,12.9,30.7,10.4,35.7,9z
					 M25.8,16c-5,3.7-8.8,9-10.9,14.9c0.3,0.2,0.5,0.4,0.8,0.5c0.5-1.6,1.9-3,3.6-3c2.1-0.1,4,1.8,3.9,3.9c1-0.5,2.1-0.8,3.2-0.4
					c1,0.2,1.6,1.1,2.2,1.8c0.2,0.6,0.4,1.3,0.4,1.9c0,5.9,0,11.9,0,17.8c1-1.4,2-2.7,3.1-4c1.8-1.8,5-1,6,1.2
					c0.7,1.3,0.3,2.9-0.6,4.1c-3.3,4.2-6.4,8.5-9.8,12.7c5.5,3.6,12.2,5.2,18.7,4.8c5.8-0.3,11.6-2.4,16.3-5.8
					c5.4-3.9,9.5-9.4,11.5-15.8c2.1-6.5,2-13.7-0.3-20.2c-2.2-6.2-6.5-11.6-11.9-15.4c-5.2-3.4-11.3-5.3-17.5-5.3
					C37.8,9.8,31.2,12,25.8,16z M17.4,32c-0.1,5.2,0,10.5-0.1,15.7c-0.5,0-1.1,0-1.6,0c-0.1-4.4,0-8.8,0-13.3c0-1.4-1.8-2.5-3-1.8
					c-0.6,0.2-0.9,0.9-1.2,1.4c0,4.6,0.1,9.1,0,13.7c-0.5,0-1.1,0-1.6,0c-0.1-3.4-0.1-6.9,0-10.4c-0.4-0.5-1-1-1.6-1
					c-1.2-0.2-2.2,0.9-2.2,2c0,8,0,16,0,24c0.3,2,1.3,3.9,2.8,5.1c2.4,2.1,5.8,3,8.9,2.9c3.7-0.2,7.5-1.8,9.4-5.1c3-4,6.1-8,9.1-12
					c0.9-1.2,0-2.9-1.4-3.1c-0.8-0.2-1.6,0.3-2.1,0.9c-1.4,1.7-2.7,3.5-4,5.2c-0.2,0-0.5,0.1-0.7,0.2c-0.2-0.1-0.5-0.2-0.7-0.3
					c-0.1-0.3-0.2-0.6-0.2-0.9c0.2-6.6,0-13.1,0.1-19.7c0.1-1.7-1.8-2.7-3.2-1.9c-0.4,0.5-0.9,1-0.9,1.6c0,4.1,0,8.2,0,12.4
					c-0.5,0-1.1,0-1.6,0c-0.2-5.3,0-10.5-0.1-15.8c0-1-1-1.6-1.8-1.9C18.6,30.2,17.5,30.9,17.4,32z"/>
			</g>
			<path fill="#030304" d="M47.2,28.9c0.7-0.1,1.5-0.3,2.2-0.4c0.1,2.6-1,5.3-3,6.9c-2.8,2.4-7.1,2.6-10.1,0.5
				c-1.5-1-2.7-2.5-3.3-4.2c0.7-0.1,1.5-0.3,2.2-0.4c0.7,1.3,1.7,2.6,3.2,3.2c0.9,0.4,1.8,0.5,2.8,0.6c2.1-0.2,4.2-1.3,5.2-3.2
				C46.9,31,47,29.9,47.2,28.9z"/>
			<path fill="#030304" d="M49,52.1c1.9-2.2,5-3.3,7.9-2.8c2.9,0.5,5.5,2.6,6.5,5.5c-0.7,0.2-1.5,0.3-2.2,0.5
				c-0.7-1.4-1.8-2.7-3.4-3.3c-2-0.9-4.5-0.6-6.2,0.9c-1.5,1.1-2.2,3-2.3,4.8c-0.8,0.2-1.5,0.3-2.3,0.4C46.8,55.9,47.5,53.7,49,52.1
				z"/>
		</g>
		<g>
			<g>
				<path fill="#FFFFFF" d="M25.8,16c5.4-4,12.1-6.2,18.8-6.2c6.2,0,12.3,1.9,17.5,5.3c5.4,3.7,9.7,9.1,11.9,15.4
					c2.4,6.4,2.4,13.7,0.3,20.2c-2,6.3-6.2,11.9-11.5,15.8c-4.8,3.4-10.5,5.5-16.3,5.8c-6.5,0.4-13.2-1.3-18.7-4.8
					c3.3-4.2,6.5-8.5,9.8-12.7c0.9-1.1,1.3-2.7,0.6-4.1c-1-2.3-4.2-3-6-1.2c-1.1,1.3-2.1,2.7-3.1,4c0-5.9,0-11.9,0-17.8
					c0-0.7-0.2-1.3-0.4-1.9c-0.6-0.7-1.3-1.6-2.2-1.8c-1.1-0.4-2.2-0.1-3.2,0.4c0.1-2.1-1.8-4-3.9-3.9c-1.7,0-3.2,1.4-3.6,3
					c-0.3-0.2-0.6-0.4-0.8-0.5C17,25,20.8,19.8,25.8,16z"/>
			</g>
			<path fill="#FFFFFF" d="M17.4,32c0.1-1.2,1.2-1.9,2.3-2c0.8,0.3,1.8,0.9,1.8,1.9c0.1,5.3-0.1,10.5,0.1,15.8c0.5,0,1.1,0,1.6,0
				c0.1-4.1,0-8.2,0-12.4c0-0.7,0.5-1.1,0.9-1.6c1.4-0.7,3.3,0.3,3.2,1.9c-0.1,6.6,0.1,13.1-0.1,19.7c0.1,0.3,0.2,0.6,0.2,0.9
				c0.2,0.1,0.5,0.2,0.7,0.3c0.2,0,0.5-0.1,0.7-0.2c1.4-1.7,2.7-3.5,4-5.2c0.5-0.6,1.3-1.1,2.1-0.9c1.4,0.2,2.2,2,1.4,3.1
				c-3,4-6.1,8-9.1,12c-1.9,3.3-5.7,4.9-9.4,5.1c-3.2,0.1-6.5-0.8-8.9-2.9c-1.5-1.3-2.6-3.2-2.8-5.1c0-8,0-16,0-24
				c0-1.1,1.1-2.2,2.2-2c0.7,0,1.2,0.5,1.6,1c0,3.4-0.1,6.9,0,10.4c0.5,0,1.1,0,1.6,0c0.1-4.6,0-9.1,0-13.7c0.3-0.5,0.6-1.1,1.2-1.4
				c1.2-0.8,3,0.4,3,1.8c0,4.4-0.1,8.8,0,13.3c0.5,0,1.1,0,1.6,0C17.5,42.5,17.4,37.3,17.4,32z"/>
		</g>
	</g>
	<circle cx="39.4" cy="35.1" r="2.6"/>
	<path d="M63.4,38.8c-0.5,0.1-0.9,0.6-0.8,1.2c1.1,5.3-2.4,10.5-7.7,11.6c-5.3,1.1-10.5-2.4-11.6-7.7c-0.1-0.5-0.6-0.9-1.2-0.8
		c-0.5,0.1-0.9,0.6-0.8,1.2c1.3,6.4,7.5,10.5,13.9,9.2s10.5-7.5,9.2-13.9C64.5,39.1,64,38.7,63.4,38.8z"/>
	<path d="M62.3,25c-0.6-0.4-1.5-0.3-2,0.4l-3.1,4.7c-0.2,0.3-0.3,0.7-0.2,1.1c0.2,0.8,0.9,1.3,1.7,1.1l5.5-1.1
		c0.8-0.2,1.3-0.9,1.1-1.7c-0.2-0.8-0.9-1.3-1.7-1.1l-2.2,0.4l1.2-1.9C63.1,26.3,62.9,25.4,62.3,25z"/>
</g>
</svg>
