<?xml version="1.0" encoding="utf-8"?>
<!-- Generator: Adobe Illustrator 18.0.0, SVG Export Plug-In . SVG Version: 6.00 Build 0)  -->
<!DOCTYPE svg PUBLIC "-//W3C//DTD SVG 1.1//EN" "http://www.w3.org/Graphics/SVG/1.1/DTD/svg11.dtd">
<svg version="1.1" id="Layer_1" xmlns="http://www.w3.org/2000/svg" xmlns:xlink="http://www.w3.org/1999/xlink" x="0px" y="0px"
	 viewBox="0 0 82 82" enable-background="new 0 0 82 82" xml:space="preserve">
<g>
	<g>
		<path d="M43.5,49.8"/>
		<g>
			<g>
				<g>
					<path fill="#030304" d="M36.1,17c2.7-0.7,5.5-1,8.2-1.3c3.1,0.3,6.3,0.6,9.3,1.6C61,19.7,67.4,25,71.2,31.9
						c3.3,5.9,4.6,13,3.4,19.7c-1,6.5-4.3,12.6-9,17.2c-4.5,4.3-10.4,7.3-16.6,8.3c-6.6,1.1-13.4-0.1-19.3-3.2
						c-0.8-0.4-1.6-0.9-2.5-1.3c-2.1,1.8-5,2.6-7.7,2.8c-3.6,0.1-7.4-1-10-3.7C7.7,69.7,6.9,67,7,64.4c0-6.5,0-13.1,0-19.6
						c0-1.6,0.9-3.4,2.5-3.9c0.9-0.4,1.8-0.1,2.7,0.1c-0.2-1.7,1-3.5,2.7-3.9c1.7-5.1,4.7-9.9,8.8-13.5C27.3,20.6,31.5,18.3,36.1,17
						z M26.9,23.5c-4.6,3.4-8.1,8.3-10.1,13.7c0.3,0.2,0.5,0.3,0.8,0.5C18,36.3,19.4,35,21,35c2-0.1,3.7,1.7,3.6,3.6
						c0.9-0.5,2-0.7,2.9-0.3c0.9,0.2,1.5,1,2.1,1.7c0.2,0.6,0.4,1.2,0.3,1.8c0,5.5,0,11,0,16.5c0.9-1.3,1.8-2.5,2.9-3.7
						c1.6-1.6,4.7-1,5.5,1.1c0.7,1.2,0.3,2.7-0.6,3.7c-3,3.9-6,7.9-9.1,11.7c5.1,3.3,11.2,4.8,17.3,4.5c5.4-0.3,10.7-2.2,15.1-5.4
						c5-3.6,8.8-8.7,10.6-14.6c2-6,1.9-12.7-0.3-18.6c-2-5.8-6-10.8-11-14.2c-4.8-3.1-10.4-4.9-16.1-4.9
						C38.1,17.8,31.9,19.8,26.9,23.5z M19.2,38.3c-0.1,4.8,0,9.7,0,14.5c-0.5,0-1,0-1.5,0c-0.1-4.1,0-8.2,0-12.3
						c0-1.3-1.6-2.4-2.8-1.6c-0.6,0.2-0.8,0.8-1.1,1.3c0,4.2,0.1,8.4,0,12.6c-0.5,0-1,0-1.5,0c-0.1-3.2,0-6.4,0-9.6
						c-0.4-0.4-0.9-0.9-1.5-0.9c-1.1-0.1-2,0.8-2.1,1.9c0,7.4,0,14.8,0,22.2c0.2,1.8,1.2,3.6,2.6,4.8c2.3,1.9,5.3,2.8,8.3,2.7
						c3.4-0.2,6.9-1.7,8.7-4.8c2.8-3.7,5.7-7.4,8.4-11.1c0.8-1.1,0-2.7-1.3-2.9c-0.7-0.2-1.5,0.3-1.9,0.8c-1.3,1.6-2.5,3.2-3.7,4.8
						c-0.2,0-0.5,0.1-0.6,0.2c-0.2-0.1-0.5-0.2-0.6-0.3c-0.1-0.3-0.1-0.6-0.2-0.8c0.1-6.1,0-12.1,0.1-18.2c0.1-1.5-1.7-2.5-3-1.8
						c-0.3,0.5-0.8,0.9-0.8,1.5c0,3.8,0,7.6,0,11.4c-0.5,0-1,0-1.5,0c-0.1-4.9,0-9.7-0.1-14.6c0-0.9-0.9-1.5-1.7-1.8
						C20.3,36.6,19.3,37.2,19.2,38.3z"/>
				</g>
				<path fill="#030304" d="M48.4,56.9c1.7-2.1,4.6-3.1,7.3-2.6c2.7,0.4,5.1,2.4,6,5.1c-0.7,0.1-1.4,0.3-2,0.4
					c-0.7-1.3-1.7-2.5-3.1-3.1c-1.9-0.8-4.2-0.5-5.8,0.8c-1.4,1-2.1,2.8-2.2,4.5c-0.7,0.2-1.4,0.3-2.1,0.4
					C46.4,60.4,47,58.4,48.4,56.9z"/>
			</g>
			<g>
				<path fill="#FFFFFF" d="M26.9,23.5c5-3.7,11.1-5.7,17.3-5.8c5.7,0,11.4,1.8,16.1,4.9c5,3.5,9,8.4,11,14.2
					c2.2,6,2.3,12.6,0.3,18.6c-1.9,5.8-5.7,11-10.6,14.6c-4.4,3.1-9.7,5-15.1,5.4c-6,0.4-12.2-1.2-17.3-4.5c3.1-3.8,6-7.8,9.1-11.7
					c0.9-1,1.2-2.5,0.6-3.7c-0.9-2.1-3.9-2.8-5.5-1.1c-1,1.2-1.9,2.5-2.9,3.7c0-5.5,0-11,0-16.5c0-0.6-0.2-1.2-0.3-1.8
					c-0.6-0.7-1.2-1.4-2.1-1.7c-1-0.4-2-0.1-2.9,0.3c0.1-2-1.7-3.7-3.6-3.6c-1.6,0-2.9,1.3-3.3,2.8c-0.3-0.2-0.5-0.3-0.8-0.5
					C18.8,31.8,22.3,27,26.9,23.5z"/>
			</g>
		</g>
		<g>
			<path fill="#FFFFFF" d="M28.2,40.7c-0.5-0.9-1.8-1.3-2.8-0.8c-0.3,0.4-0.7,0.8-0.8,1.3c0.2-0.4,0.6-0.9,0.9-1.2
				C26.4,39.5,27.7,39.9,28.2,40.7z"/>
			<path fill="#F9F9F9" d="M35.5,55.1c-0.7-0.2-1.5,0.3-1.9,0.8c-1.3,1.6-2.5,3.2-3.7,4.8c-0.2,0-0.5,0.1-0.6,0.2
				c-0.2-0.1-0.5-0.2-0.6-0.3c-0.1-0.3-0.1-0.6-0.2-0.8c0.1-4.9,0-17,0-18.1c0-0.4,0-0.7-0.2-1c-0.5-0.9-1.7-1.4-2.8-0.8
				c-0.3,0.2-0.7,0.8-0.8,1.3c0,0,0,7.8-0.1,11.6c-0.5,0-1,0-1.5,0c-0.1-4.9,0-9.7-0.1-14.6c0-0.9-0.9-1.5-1.7-1.8
				c-1,0.1-2,0.8-2.1,1.8c-0.1,4.8,0,9.7,0,14.5c-0.5,0-1,0-1.5,0c-0.1-4.1,0-8.2,0-12.3c0-1.3-1.6-2.4-2.8-1.6
				c-0.6,0.2-0.8,0.8-1.1,1.3c0,4.2,0.1,8.4,0,12.6c-0.5,0-1,0-1.5,0c-0.1-3.2,0-6.4,0-9.6c-0.4-0.4-0.9-0.9-1.5-0.9
				c-1.1-0.1-2,0.8-2.1,1.9c0,7.4,0,14.8,0,22.2c0.2,1.8,1.2,3.6,2.6,4.8c2.3,1.9,5.3,2.8,8.3,2.7c3.4-0.2,6.9-1.7,8.7-4.8
				c2.8-3.7,5.7-7.4,8.4-11.1C37.5,56.9,36.7,55.3,35.5,55.1z"/>
		</g>
	</g>
	<path d="M66.4,35.5c-0.2,0-0.3,0-0.5,0.1c-0.6-1.3-2-2.2-3.5-2.2h-8.2c-0.8,0-1.6,0.3-2.2,0.7c-0.8-0.4-1.7-0.7-2.8-0.7
		c-1.1,0-2.3,0.2-3.4,0.7c-0.7-0.5-1.5-0.8-2.3-0.8h-8.2c-1.6,0-2.9,0.9-3.5,2.2c-0.1,0-0.2-0.1-0.4-0.1c-0.7,0-1.3,0.6-1.3,1.3v1.2
		c0,0.7,0.6,1.3,1.3,1.3v2c0,2.2,1.8,3.9,3.9,3.9h8.2c2.2,0,3.9-1.8,3.9-3.9v-3.9c0-0.2,0-0.4,0-0.6c0.6-0.2,1.2-0.4,1.7-0.3
		c0.5,0,0.9,0.1,1.3,0.3c0,0.2-0.1,0.5-0.1,0.7v3.9c0,2.2,1.8,3.9,3.9,3.9h8.2c2.2,0,3.9-1.8,3.9-3.9v-2.1c0,0,0,0,0,0
		c0.7,0,1.3-0.6,1.3-1.3v-1.2C67.7,36.1,67.1,35.5,66.4,35.5z"/>
	<path d="M51.5,64.1c-3,0-5.4-0.8-7.2-2.4c-2.8-2.6-2.8-6.2-2.8-6.4c0-0.7,0.6-1.2,1.3-1.2c0,0,0,0,0,0c0.7,0,1.2,0.6,1.2,1.3
		c0,0.1,0,2.7,2,4.4c1.7,1.5,4.3,2,7.8,1.5c0.7-0.1,1.3,0.4,1.4,1.1c0.1,0.7-0.4,1.3-1.1,1.4C53.2,64.1,52.3,64.1,51.5,64.1z"/>
	<path d="M52.9,14.6l-0.1-0.1c-0.1-0.1-1.6-2.8-2.7-6.5c-0.9-2.9-3.4-3.4-3.8-3.4c-0.8,0.1-9.7,0.7-16.8,2.2
		c-1.2,0.2-2.3,0.5-3.2,0.8C24.3,8.1,23,9,22.4,10.4c-1.4,3.1,0.6,7.3,0.6,7.3l0.1,0.2l-2.5,8.9c1.1,0.2,2.1,0.1,3.1-0.1
		c0,0,0,0,0,0c0.2,0,0.3-0.1,0.5-0.1c1.9-0.5,3.4-1.6,4.9-2.8c0.1-0.1,0.2-0.1,0.3-0.2c1.8-1.4,3.7-2.8,6.1-3.3
		c1.2-0.3,2.5-0.2,3.9,0c4.3,0.9,10,0.8,14.5,0.5c1.3-0.1,2.5-0.2,3.5-0.3c0.9-0.1,1.7-0.2,2.4-0.3L52.9,14.6z"/>
</g>
</svg>
