<?xml version="1.0" encoding="utf-8"?>
<!-- Generator: Adobe Illustrator 18.0.0, SVG Export Plug-In . SVG Version: 6.00 Build 0)  -->
<!DOCTYPE svg PUBLIC "-//W3C//DTD SVG 1.1//EN" "http://www.w3.org/Graphics/SVG/1.1/DTD/svg11.dtd">
<svg version="1.1" id="Layer_1" xmlns="http://www.w3.org/2000/svg" xmlns:xlink="http://www.w3.org/1999/xlink" x="0px" y="0px"
	 viewBox="0 0 82 82" enable-background="new 0 0 82 82" xml:space="preserve">
<g>
	<linearGradient id="SVGID_1_" gradientUnits="userSpaceOnUse" x1="25.9222" y1="37.9722" x2="36.7194" y2="37.9722">
		<stop  offset="0" style="stop-color:#F0E23C"/>
		<stop  offset="0.1155" style="stop-color:#F0DE3B"/>
		<stop  offset="0.2572" style="stop-color:#EED437"/>
		<stop  offset="0.4126" style="stop-color:#ECC332"/>
		<stop  offset="0.5777" style="stop-color:#E9AA2C"/>
		<stop  offset="0.7488" style="stop-color:#E68C26"/>
		<stop  offset="0.7925" style="stop-color:#E58425"/>
	</linearGradient>
	<path fill="url(#SVGID_1_)" d="M27.4,32c0,0-0.4,0.3-0.6,0.8c-0.2,0.5-1,1.1-0.9,1.8c0.2,0.7,0.6,1.2,0.4,1.8
		c-0.2,0.7,0.2,1.8,0.8,2.7c0.6,0.9,0.8,1.2,0.9,1.7c0.1,0.4,0.5,0.9,1,1c0.5,0.1,0.6,0.5,0.9,0.9c0.3,0.4,0.9,0.6,1.1,0.9
		c0.2,0.4,0.1,0.7,1.1-0.4c1-1,4.3-4.3,4.3-4.3s0.5-1.7,0.2-2.4c-0.3-0.7-1.1-0.5-1.1-0.5s-0.5-1.5-1-1.9c-0.4-0.4-0.6-0.1-0.6-0.1
		s-1-1.2-1.6-1.5c-0.6-0.2-1.1-0.1-1.1-0.1L27.4,32z"/>
	<path fill="#F06724" d="M36.9,38.2c-0.1-1.2-0.3-2.7-1.5-2.6c-0.1-0.4-0.2-0.7-0.2-0.8c-0.1-0.4-0.4-0.7-0.7-0.9
		c-0.2-0.1-0.4,0-0.5,0.1c-0.5-1-1.6-2.1-2.6-1.8c-0.1,0-0.1,0.1-0.1,0.2c0,0,0,0.1,0,0.2c0.2,0.5,0,1.1-0.4,1.5c0,0,0,0,0,0
		c-1-0.2-1.5-0.7-2.1-1.5c-0.2-0.3-0.6-0.8-1-0.9c-0.3-0.1-0.5,0-0.8,0.2c-0.1,0.1-0.1,0.3-0.1,0.4c-0.1,0.5-0.5,0.9-0.7,1.3
		c-0.4,0.7-0.2,1.3-0.1,2c0,0.1,0,0.1,0,0.2c0,0.2,0.1,0.5,0,0.7c-0.1,1.5,0.5,3,1.6,3.9c0,0,0,0,0.1,0c0.1,0.4,0.3,0.8,0.6,1.1
		c0.2,0.3,0.6,0.5,1,0.5c0,0,0,0.1,0.1,0.1c0,0,0.1,0.1,0.1,0.1c0,0,0,0,0,0c0,0.1,0,0.1,0,0.2c0.1,0.3,0.3,0.6,0.7,0.7
		c0.7,0.2,0.7,0.8,1.1,1.3c0.6,0.7,1.5,1,2.4,1c0.9,0,1.7-0.6,2.3-1.2c0.4-0.4,1-1.1,1-1.8c0,0.1,0.1,0.1,0.2,0
		c0.6-0.5,0.6-1.8,0.6-2.5C37.8,39.3,37.6,38.3,36.9,38.2z M36.5,38.9c-0.1-0.1-0.2-0.1-0.3-0.2c0-0.5,0-1-0.4-1.4
		c-0.1-0.1-0.1-0.1-0.2-0.2c0.1-0.3,0.1-0.7,0-1.2C36.5,36.5,36.5,37.8,36.5,38.9z M29.7,41.4c-0.4-0.1-0.7-0.1-1-0.4
		c-0.2-0.2-0.3-0.4-0.4-0.7c0.2,0.1,0.4-0.1,0.3-0.3c-0.2-0.4-0.7-0.6-1.1-0.7c0,0,0,0,0,0c-0.7-0.9-1-2-0.8-3.1
		c0.1,0.1,0.1,0.2,0.2,0.2c0.2,0.3,0.4,0.6,0.7,0.8c0.1,0.1,0.3,0,0.3-0.2c0-0.4-0.4-0.8-0.6-1.1c-0.2-0.2-0.4-0.5-0.7-0.6
		c-0.6-0.9,0.1-1.7,0.6-2.5c0.1-0.1,0.1-0.2,0.1-0.4c0.1-1,0.9,0.1,1.1,0.3c0.6,0.7,1.2,1.4,2.1,1.5c0,0,0,0,0,0c-0.1,0-0.2,0-0.2,0
		c-0.1,0.1-0.1,0.2-0.1,0.3c0,0.2,0.2,0.3,0.4,0.2c0.7-0.3,1.6-1.4,1.3-2.3c0.5,0.2,1,0.5,1.4,0.9c0.8,0.9,0.7,1.8-0.2,2.6
		c-0.6,0.6-1.3,1.2-1.7,2c0,0-0.1,0-0.1,0.1c0,0.1,0,0.1,0,0.2c-0.1,0.3-0.2,0.7-0.3,1.1c0,0.1,0.2,0.2,0.3,0.2c0,0.2,0,0.4,0,0.6
		c0,0.7-0.4,1.5-1.1,1.7C30.1,41.7,30,41.5,29.7,41.4z M36.4,41.9C36.4,42,36.4,42,36.4,41.9c-0.9,1.4-1.5,3.1-3.5,2.8
		c-1-0.1-1.3-0.9-1.8-1.6c-0.1-0.1-0.2-0.2-0.4-0.2c-0.3-0.1-0.5-0.2-0.7-0.3c0.5,0,0.9-0.4,1.2-0.8c0.5-0.7,0.6-1.7,0.4-2.6
		c0,0,0,0,0,0c0.3-0.4,0.7-0.7,1-1.1c0.4-0.6,0.8-1.2,1.1-1.8c0-0.1,0-0.2,0-0.2c0.3-0.4,0.5-0.8,0.4-1.3c0-0.1-0.1-0.3-0.1-0.4
		c0.5-0.2,0.8,1.1,0.8,1.4c0.1,0.4,0.1,0.7,0.1,1.1c0,0.1,0,0.1,0,0.2c-0.2-0.1-0.5,0-0.7,0.2c-0.1,0.1,0,0.2,0.1,0.2
		c0.4,0,0.7,0.3,0.9,0.6c0.2,0.3,0.2,0.6,0.1,0.9c0,0.3-0.1,0.5,0.2,0.7c0.1,0.1,0.3,0,0.4-0.1c0.3,0.4,0.5,0.8,0.5,1.4
		C36.5,41,36.4,41.5,36.4,41.9z M37.2,40.4c0,0.2-0.1,0.4-0.1,0.6c0-0.3-0.1-0.7-0.1-0.8c0-0.2-0.1-0.4-0.2-0.6c0,0,0.1-0.1,0.1-0.2
		c0-0.2,0-0.6,0-1C37.4,38.8,37.3,39.9,37.2,40.4z"/>
	<path fill="#8C191B" d="M66.2,65.2c0,0,2.4-0.3,3.5,0.1c1.2,0.4,2.9,1.6,1.9,2.3c-1,0.7-1.4,0.2-2.1-0.3c-0.7-0.5-1.4-0.6-1.6-0.4
		c-0.2,0.2-0.4,0.7-0.4,0.7S66.3,65.6,66.2,65.2z"/>
	<path fill="#771213" d="M72.1,66.6c-0.4-1.6-3.4-1.9-4.7-1.2c-0.1,0,0,0.2,0.1,0.2c0.8,0,1.6-0.1,2.4,0c0.5,0.1,0.9,0.3,1.3,0.5
		c0.6,0.5,0.7,1.4-0.2,1.7c-0.8,0.3-1.7-1.2-2.6-1.3c-0.7-0.1-0.8,0.4-1,1c0,0.2,0.2,0.2,0.3,0.1c0.5-1.7,2.1,0.9,3.2,0.7
		C71.8,68.2,72.3,67.5,72.1,66.6z"/>
	<path fill="#FFFFFF" d="M68.8,63.1l-0.5,2.2l-2.6-0.1c0,0-0.3-1.8-0.4-2.9c-0.1-1.1,0-1.3,0-1.3L68.8,63.1z"/>
	<path fill="#010101" d="M64.9,35.7c0,0,0.9,0.2,0.8,1.8c-0.2,1.6-0.5,2.1-1,2.1c-0.5,0-0.7,0-0.7,0l-2.8-2
		C61.2,37.5,64.6,37.2,64.9,35.7z"/>
	<radialGradient id="SVGID_2_" cx="47.2988" cy="46.5793" r="26.4231" gradientUnits="userSpaceOnUse">
		<stop  offset="0" style="stop-color:#F0E23C"/>
		<stop  offset="0.1155" style="stop-color:#F0DE3B"/>
		<stop  offset="0.2572" style="stop-color:#EED437"/>
		<stop  offset="0.4126" style="stop-color:#ECC332"/>
		<stop  offset="0.5777" style="stop-color:#E9AA2C"/>
		<stop  offset="0.7488" style="stop-color:#E68C26"/>
		<stop  offset="0.7925" style="stop-color:#E58425"/>
		<stop  offset="0.9719" style="stop-color:#F3A91D"/>
	</radialGradient>
	<path fill="url(#SVGID_2_)" d="M54.2,34.9c0,0-10.3-2.4-19.1,5.7c-8.8,8.2-7.5,16.3-6.2,20.5c1.3,4.2,3,5.6,3,5.6s2,4.9,7.8,5.4
		c5.9,0.6,7.8-3.1,7.9-3.6c0.1-0.5,0.4-0.4,0.4-0.4s4,3.6,7.8,4.5c3.8,0.9,9.8-2.8,9.8-2.8s2,0.2,2.2-0.9C67.8,67.8,66,66,66,66
		s-0.6-2.9-0.7-3.6c-0.1-0.6,0-1.3,0-1.3s0.5,1.3,1.8,1.7c1.3,0.3,2.6-0.3,2.6-0.3l0.8-2.9c0,0,0.9-3,0.4-5.9
		c-0.5-2.9-0.6-3.2-0.6-3.2s2.4-0.3,2-1.5c-0.4-1.2-1-2.7-1.7-3.5c-0.6-0.8-2.1-1-2.1-1l-0.8-0.1c0,0-2.8-4.1-6.4-6.5
		C57.7,35.6,54.2,34.9,54.2,34.9z"/>
	<radialGradient id="SVGID_3_" cx="38.5672" cy="62.6685" r="10.4132" gradientUnits="userSpaceOnUse">
		<stop  offset="0" style="stop-color:#F0E23C"/>
		<stop  offset="0.1155" style="stop-color:#F0DE3B"/>
		<stop  offset="0.2572" style="stop-color:#EED437"/>
		<stop  offset="0.4126" style="stop-color:#ECC332"/>
		<stop  offset="0.5777" style="stop-color:#E9AA2C"/>
		<stop  offset="0.7488" style="stop-color:#E68C26"/>
		<stop  offset="0.7925" style="stop-color:#E58425"/>
		<stop  offset="0.9719" style="stop-color:#F3A91D"/>
	</radialGradient>
	<path fill="url(#SVGID_3_)" d="M46.1,63.5c0,3.1,5.2,10-8.1,8.2c-3.5-0.5-7.2-5.1-7.2-8.2c0-7.2,4.7-6.4,6.2-6.4
		C40.5,57,46.1,60.4,46.1,63.5z"/>
	<radialGradient id="SVGID_4_" cx="55.4008" cy="64.3355" r="8.7412" gradientUnits="userSpaceOnUse">
		<stop  offset="0" style="stop-color:#EF4137"/>
		<stop  offset="0.1541" style="stop-color:#EE4736"/>
		<stop  offset="0.3431" style="stop-color:#EB5633"/>
		<stop  offset="0.5502" style="stop-color:#E96A2E"/>
		<stop  offset="0.7691" style="stop-color:#E58126"/>
		<stop  offset="0.7925" style="stop-color:#E58425"/>
		<stop  offset="0.9719" style="stop-color:#F3A91D"/>
	</radialGradient>
	<path fill="url(#SVGID_4_)" d="M63.3,64.5c0,4.1,6,8.9-8.1,8c-4.5-0.3-9-4.5-9-8.6c0-2.2,0.4-4.1,1.8-5.8c1.2-1.4,3.7-2,5.7-2
		C58.3,56,63.3,60.4,63.3,64.5z"/>
	<path fill="#F06724" d="M51.6,63.1c0,0-0.1,0-0.1,0c0.1,0,0,0-0.1,0c-0.1,0-0.2,0-0.2-0.1c-0.1,0-0.3-0.2-0.4-0.3
		c-0.1-0.1,0-0.1,0.1-0.1c0.1,0,0.4,0.1,0.5,0.2c0.2,0.2,0.5,0,0.4-0.2c-0.3-0.6-1.5-0.8-1.6,0.1c-0.1,0.6,0.9,1.3,1.5,0.9
		C51.8,63.4,51.8,63.1,51.6,63.1z"/>
	<path fill="#F06724" d="M54.2,63.1c0,0,0-0.1-0.1-0.1c-0.1,0-0.2,0-0.2,0c-0.1,0-0.2,0-0.2,0.1c-0.1,0.3,0.2,0.5,0.5,0.5
		C54.5,63.6,54.5,63.2,54.2,63.1z"/>
	<path fill="#F06724" d="M55,65.6c-0.2-0.2-0.6-0.3-0.9-0.1c-0.3,0.2-0.3,0.6-0.2,0.8c0.3,0.5,1.2,0.3,1-0.4
		C55.1,65.8,55.1,65.7,55,65.6z"/>
	<path fill="#F06724" d="M43.6,65.8c0-0.1,0-0.2-0.1-0.3c-0.4-0.2-1.1-0.3-1.4,0.2c-0.2,0.5,0.3,0.9,0.7,0.8c0.2,0,0.3-0.1,0.3-0.3
		c0-0.1,0-0.1,0-0.1c0-0.1-0.2-0.1-0.2-0.1c-0.1,0-0.3,0-0.3,0c0,0,0,0,0,0c0,0,0,0,0,0c0.1-0.2,0.3-0.1,0.5-0.1c0,0,0,0,0,0
		c0,0.2,0.3,0.3,0.4,0.1c0,0,0,0,0,0C43.5,66,43.6,65.9,43.6,65.8z"/>
	<path fill="#F06724" d="M35.7,67.6c-0.1-0.2-0.3-0.5-0.5-0.4C35,67.3,35,67.6,35,67.8c0,0.2,0,0.5,0.2,0.5c0.3,0.1,0.6-0.1,0.7-0.4
		C36,67.8,35.9,67.6,35.7,67.6z"/>
	<path fill="#F06724" d="M37.7,61.6c-0.3-0.7-1.3-0.7-1.9-0.3c-0.5,0.3-0.7,1.1-0.3,1.5c0.3,0.3,0.9,0.4,1.4,0.3
		c0.5-0.1,0.7-0.6,0.3-0.9c-0.2-0.1-0.4,0-0.3,0.2c0,0.1,0,0.2,0.1,0.2c0,0-0.1,0.1-0.2,0.1c-0.3,0.1-0.6,0-0.8-0.2
		c-0.3-0.2-0.1-0.5,0-0.7c0.3-0.4,1.2-0.4,1.4,0C37.5,62,37.8,61.8,37.7,61.6z"/>
	<path fill="#F06724" d="M40.9,69.8c-0.2,0-0.4,0-0.5,0.1c-0.1,0.1-0.2,0.3-0.1,0.5c0,0,0.1,0.1,0.1,0.1c0.2-0.1,0.3-0.3,0.5-0.3
		C41.1,70.2,41.1,69.8,40.9,69.8z"/>
	<path fill="#F06724" d="M63.6,56.2c-2.3,0.9-2.6,4.8-0.7,6.2c0.2,0.1,0.3-0.1,0.2-0.2c-0.4-0.9-0.8-1.7-0.7-2.8
		c0-0.9,0.5-1.9,1.3-2.4c1-0.7,2.1,0,2.7,0.8c0.7,0.9,0.7,1.9,0.7,3c0,0.2,0.2,0.2,0.3,0.1C68.6,58.7,66.1,55.2,63.6,56.2z"/>
	<path fill="#010101" d="M71.3,37.1c0-0.1,0-0.1,0-0.2c0-0.2-0.4-0.2-0.4,0c0,0.1,0,0.2-0.1,0.3c-0.1,0.1-0.1,0.2-0.1,0.3
		c-0.4,1.8-1.1,3.4-2.4,4.9c-0.2,0.2-0.1,0.5,0.1,0.6C72.4,45.1,75.5,38,71.3,37.1z M69.2,42.5c1.1-1.3,2-3,2.1-4.7
		C74,38.8,71.9,43.4,69.2,42.5z"/>
	<path fill="#010101" d="M65,35.5C64.9,35.5,64.9,35.5,65,35.5c-0.1-0.2-0.3-0.2-0.3-0.1c-0.3,1.4-2.6,1.6-3.7,1.7
		c-0.5,0-0.4,0.7,0,0.7c0,0,0,0,0,0c1-0.1,4.1-0.5,4.1-1.9c0.7,0.5,0.6,1.6,0.4,2.3c-0.1,0.4-0.3,0.9-0.6,1.1c-0.3,0.2-0.7,0-1,0.1
		c-0.1,0-0.1,0.2-0.1,0.3c0.2,0.6,1,0.5,1.4,0.3c0.6-0.3,0.9-1,1.1-1.6C66.4,37.5,66.3,35.5,65,35.5z"/>
	<path fill="#C0BFBF" d="M68.7,62.9c0-0.1-0.2-0.1-0.2,0c-0.3,0.5-0.4,1.3-0.5,1.9c-0.8,0.1-1.8,0.2-2.6-0.2
		c-0.1-0.1-0.2,0.1-0.2,0.2c0.5,1,2.1,0.7,3,0.6c0.2,0,0.3-0.1,0.3-0.3C68.6,64.3,68.9,63.6,68.7,62.9z"/>
	
		<radialGradient id="SVGID_5_" cx="59.0147" cy="130.0477" r="14.2485" gradientTransform="matrix(0.779 0 0 0.7144 3.7831 -59.3124)" gradientUnits="userSpaceOnUse">
		<stop  offset="0" style="stop-color:#FFFFFF"/>
		<stop  offset="0.6763" style="stop-color:#F4E87E"/>
		<stop  offset="0.9719" style="stop-color:#F0E23C"/>
	</radialGradient>
	<ellipse fill="url(#SVGID_5_)" cx="50.1" cy="43" rx="12.6" ry="8.6"/>
	<path fill="#F06724" d="M68.1,44.3c-0.3-0.5-0.7-1.1-1.1-1.6c-2.1-2.8-5-4.9-8.1-6.4c-2.8-1.4-6.9-2.9-10.1-2
		c-0.2,0.1-0.2,0.4,0.1,0.4c1.6,0.1,3.1,0.1,4.7,0.4c1.7,0.4,3.4,1,5,1.8c3,1.5,5.7,3.5,7.8,6.2c3.7,4.9,5.3,12.7,2.9,18.5
		c0,0,0,0.1,0,0.1c-0.3,0.6-0.6,1-1.4,1c-0.6,0-1.1-0.2-1.5-0.6c-0.3-0.3-1.2-1.2-0.8-1.7c0.2-0.1,0.5-0.2,0.7-0.1
		c0.2,0,0.4-0.2,0.2-0.3c-1.3-1.2-3.9,1.9-2.4,2.6c0.3,0.1,0.6-0.1,0.4-0.4c-0.2-0.4,0.1-0.9,0.5-1.3c0,0.1,0,0.3,0,0.4
		c-0.5,1.9,0.2,4,1.3,5.6c0.3,0.5,0.6,0.9,0.8,1.4c0.4,1.2-1.1,1.8-1.8,0.9c-0.5-0.6-0.6-1.4-0.9-2.1C64.3,66.9,64,67,64,67.2
		c0,0.8,0.4,1.9,1,2.6c0,0,0,0,0,0c-2.9,2.7-6.7,3.1-10.3,2.2c0-0.1,0.1-0.1,0.1-0.2c0.2-0.2,0-0.4-0.2-0.3
		c-0.2,0.1-0.3,0.2-0.4,0.4c-1.2-0.4-2.3-0.9-3.4-1.5c-2.3-1.4-3.9-3.4-4.2-6.1c-0.2-1.4-0.1-3.1,0.5-4.5c0,0,0.1-0.2,0.1-0.3
		c0.1-0.2,0.2-0.2,0.2-0.4c0.3-0.4,0.6-0.8,1-1.2c0.2-0.1,0-0.4-0.2-0.3c-0.3,0.2-0.6,0.3-0.8,0.6c0,0,0-0.1,0-0.1
		c-0.1-0.6-0.3-1.1-0.8-1.5c-0.1-0.1-0.3,0-0.2,0.2c0.3,0.5,0.4,1.1,0.4,1.7c0,0.2,0,0.3,0,0.5c-0.9,1.4-0.9,3.4-0.9,5
		c0.1,1.7,0.6,3.1,1.5,4.3c0,0,0,0,0,0c-1,4-6.9,4.1-10,3c-2.1-0.7-3.8-2.3-5-4.2c-0.7-1.2-1.2-2.5-1.3-3.9
		c-0.3-2.5,0.3-2.7,0.7-4.1c0.1-0.2-0.2-0.3-0.4-0.2c-1.8,2.4-0.9,5.8,0.3,8.3c0.5,1,1.2,1.9,2,2.7c0,0,0,0,0,0
		c-0.4,0-1,0.1-1.1,0.6c0,0.1,0,0.2,0.1,0.2c0.3,0,0.6-0.4,0.9-0.5c0.1,0,0.2-0.1,0.1-0.2c0.2,0.2,0.4,0.4,0.6,0.5c0,0,0,0-0.1,0
		c-0.3,0.1-0.7,0.5-0.6,0.8c0,0.1,0.1,0.1,0.2,0.1c0.2-0.2,0.3-0.5,0.6-0.6c0.1,0,0.1-0.1,0.1-0.2c0.2,0.2,0.4,0.3,0.6,0.4
		c-0.1,0.2-0.1,0.4,0,0.5c0,0.1,0.1,0.1,0.2,0c0.1-0.1,0.1-0.2,0.1-0.4c0.2,0.2,0.5,0.3,0.8,0.4c0.1,0.2,0.2,0.5,0.4,0.6
		c0.1,0,0.2,0,0.2-0.1c0-0.1,0-0.1,0-0.2c0.2,0.1,0.3,0.2,0.5,0.2c2.1,0.8,4.6,0.8,6.7,0.2c1.8-0.5,3.7-1.7,3.8-3.6
		c0.5,0.7,1.2,1.3,1.9,1.8c1.2,0.9,2.5,1.6,3.9,2.1c-0.1,0.1-0.1,0.2-0.1,0.3c0,0.1,0.1,0.1,0.1,0.1c0.2,0,0.3-0.2,0.4-0.3
		c0,0,0,0,0,0c0.4,0.1,0.7,0.2,1.1,0.3c0,0.3,0.1,0.6,0.4,0.6c0.1,0,0.1-0.1,0.1-0.1c0-0.1-0.1-0.3-0.1-0.4c0.2,0,0.4,0.1,0.7,0.1
		c0,0,0,0.1,0,0.1c0.1,0.3,0.2,0.5,0.4,0.7c0.1,0,0.1,0.1,0.2,0.1c0.1,0,0.2-0.2,0.1-0.3c-0.1-0.2-0.2-0.3-0.3-0.5
		c3.3,0.4,6.7-0.4,9.2-2.8c0,0,0-0.1,0.1-0.1c0.5,0.3,1.1,0.3,1.8-0.3c0.8-0.8,0.5-2,0-2.8c-0.5-0.9-1.1-1.6-1.5-2.5
		c-0.3-0.8-0.4-1.7-0.5-2.5c0.4,0.5,0.9,0.9,1.5,1.1c1.3,0.5,3.1-0.2,3.1-1.7c1.6-2.8,1.3-6.4,0.9-9.5c-0.4-2.5-1.2-4.9-2.4-7.1
		c1,0.3,1.8,0.7,2.4,1.7c0.7,1,1,2.2,1.1,3.4c0,0.5,0.7,0.5,0.7,0C72.7,47.8,70.9,43.6,68.1,44.3z"/>
	<path fill="#010101" d="M74.5,51.6c-0.2-0.1-0.3-0.2-0.5-0.3c0.5,0.1,1,0,1.1-0.5c0-0.2-0.2-0.2-0.3-0.1c-0.2,0.3-0.7,0-1.1-0.2
		c0.4-0.1,0.7-0.3,0.8-0.7c0-0.2-0.2-0.3-0.3-0.1c-0.1,0.2-0.6,0.1-0.8,0.1c-0.3-0.1-0.5-0.2-0.7-0.5c0-0.1-0.1-0.1-0.1-0.1
		c0,0,0,0-0.1-0.1C72.5,49,72.4,49,72.3,49c0,0,0,0,0-0.1c0.1-0.2-0.2-0.2-0.3-0.1c-0.2,0.3-0.6,0.5-0.9,0.7c-0.3,0.2-0.6,0.3-0.8,0
		c-0.2-0.3-0.8-0.1-0.7,0.3c0,0,0,0,0,0.1c-0.1,0-0.3,0.1-0.3,0.2c-0.1,0.5,0.2,0.7,0.7,0.8c0,0.1,0.1,0.1,0.1,0.2
		c0.2,0.2,0.6,0.3,0.9,0.3c0,0,0,0,0,0.1c0,0.4,0.2,0.8,0.5,1.2c0.1,0.1,0.4,0,0.3-0.2c-0.1-0.3-0.2-0.7-0.2-1c0.1,0,0.3,0,0.4-0.1
		c0,0.1,0.1,0.2,0.1,0.3c0.2,0.5,0.5,0.9,1.1,1c0.2,0.1,0.3-0.2,0.1-0.3c-0.5-0.3-0.6-0.8-0.8-1.3c0,0,0-0.1,0-0.1c0,0,0-0.1,0-0.1
		c0.4,0.4,0.8,0.7,1.3,1c0.3,0.2,0.7,0.5,1,0.3c0.1,0,0.1-0.2,0.1-0.2C74.9,51.9,74.6,51.8,74.5,51.6z"/>
	<path fill="#F06724" d="M51.3,34.1c-8.1-0.4-16.2,3.8-20.5,10.7c-2.2,3.5-3.2,7.3-3.1,11.4c0.1,3.6,0.7,7.4,3.3,10.1
		c0.3,0.3,0.7-0.1,0.4-0.4c-2.3-2.8-2.8-6.5-2.9-10c-0.1-4,1.1-7.6,3.2-10.9c2-3.2,4.8-5.6,8.1-7.3c1.7-0.9,3.5-1.6,5.4-2.1
		c2-0.6,4.1-0.4,6.1-0.9C51.6,34.5,51.5,34.1,51.3,34.1z"/>
	<ellipse fill="#F0E23C" cx="35.3" cy="59.2" rx="1.9" ry="1.4"/>
	<ellipse fill="#F0E23C" cx="38.6" cy="59.7" rx="0.6" ry="0.6"/>
	<ellipse fill="#F0675E" cx="52.6" cy="60.2" rx="1.9" ry="1.5"/>
	<ellipse fill="#F0675E" cx="55.9" cy="60.8" rx="0.6" ry="0.5"/>
	<ellipse fill="#FBF4D6" cx="55" cy="40.1" rx="2.3" ry="1.6"/>
	<ellipse fill="#FBF4D6" cx="58.7" cy="40.7" rx="1.1" ry="0.8"/>
	<path fill="#ECC631" d="M48.4,57.7c0,0-3.3,2.2-1.8,7.4c1.5,5.2,8,7.5,12.6,7.3c4.6-0.2,5.8-2.7,5.8-2.7l-0.3-0.3
		c0,0-1.7,2.7-7.6,2.3C51.2,71.3,42.9,63.8,48.4,57.7z"/>
	<path fill="#ECC631" d="M31.6,58.9c0,0-2.4,3.8,0.8,8.3c3.2,4.5,7.5,5.6,11.6,4c0,0,1.9-0.7,2.6-1.7c0.7-1.1,0.7-1.3,0.7-1.3
		l-0.5-0.6c0,0-0.9,2.9-5.1,3.5C37.6,71.6,28.8,66.4,31.6,58.9z"/>
	<ellipse fill="#FBF4D6" cx="52.9" cy="59.2" rx="0.9" ry="0.7"/>
	<ellipse fill="#FBF4D6" cx="54.7" cy="59.4" rx="0.4" ry="0.3"/>
	<ellipse fill="#FBF4D6" cx="36.6" cy="58.5" rx="0.9" ry="0.6"/>
	<ellipse fill="#FBF4D6" cx="38.2" cy="58.7" rx="0.4" ry="0.3"/>
	<path fill="#F06724" d="M41.6,70.3c-0.1,0.2-0.2,0.5,0,0.7c0,0,0.1,0,0.2,0c0.1-0.2,0.1-0.4,0.2-0.6C41.9,70.2,41.6,70.1,41.6,70.3
		z"/>
	<path fill="#F06724" d="M44.2,70.4C44.1,70.3,44,70.2,44,70c0-0.2-0.3-0.2-0.3,0C43.7,70.3,43.8,70.4,44.2,70.4
		C44.1,70.5,44.2,70.5,44.2,70.4z"/>
	<path fill="#FBF4D6" d="M55.8,35.8c0,0-9-4-19,3.4c-10.1,7.4-8.1,20.1-8.1,20.1s-0.6-8,3.4-14.2C36.1,39,44.1,33.3,55.8,35.8z"/>
	<path fill="#F8EB32" d="M48.4,57.8c0,0-2.5,1.8-1.6,6c0.8,4.2,3.1,5.8,3.1,5.8s-3.4-1.7-3.6-6.5C46.1,58.4,48.4,57.8,48.4,57.8z"/>
	<path fill="#F8EB32" d="M31.6,58.9c0,0-2.3,4,1.4,8.4c3.6,4.5,5.9,3.9,8.1,4.2c2.2,0.3,3.8-0.5,3.8-0.5s-3,1.7-6.8,0.7
		c-3.8-1-5.9-4.5-6.7-6.3C30.4,63.5,30.5,60.6,31.6,58.9z"/>
	<path fill="#ECC631" d="M57.9,36.7c0,0,6.9,2.2,9.9,8.6c3,6.3,3.1,10.6,2.5,13.4c-0.5,2.9-1.2,4.1-2.5,4c-1.3-0.1-1.8-0.9-1.8-0.9
		s1.2,0.7,2.1,0.3c0.9-0.4,1.7-5.3,0.9-10.9C68.3,45.5,63.7,38.7,57.9,36.7z"/>
	<ellipse fill="#ECC631" cx="64.6" cy="57.5" rx="0.7" ry="0.7"/>
	<circle fill="#ECC631" cx="65.7" cy="57.7" r="0.2"/>
	<path fill="#ECC631" d="M67.1,60.8c0,0,0.8-3.7-2-4.2c-2.8-0.5-3.1,3.2-2.7,3.4c0,0,0-2.9,1.8-3.1C66.2,56.6,67.3,59.3,67.1,60.8z"
		/>
	<path fill="#ECC631" d="M66.4,59.9c0,0-1.2-0.9-2.3,0.7C64.1,60.6,65.3,58.5,66.4,59.9z"/>
	<path fill="#ECC631" d="M64.8,62.2c0,0-0.1,1.9,1.1,3.7c1.3,1.8,1.5,2.5,1.3,3.1c-0.3,0.6-1.1,1-1.8,0.3c-0.7-0.7-0.9-2.1-0.9-2.1
		s0.7,1.3,1.3,1.4c0.6,0.1,1.1-0.2,0.6-1C65.9,66.9,64.1,64.7,64.8,62.2z"/>
	<path fill="#F69321" d="M46.8,58.7c0,0-1.1,1.4-1,4.4c0.1,3,1,4.4,1,4.4s-0.8-1.8-1.4-3.6c-0.6-1.9-1.3-3.7-1.3-3.7h0.5
		c0,0-0.3-1,0.3-2.2c0.6-1.2,1.4-1.4,1.4-1.4S47.1,57.5,46.8,58.7z"/>
	<path fill="#F69321" d="M65,56.1c0,0-2.2-0.5-3.1,1.4c-0.9,1.9-0.3,2.7-0.3,2.7s-1.4-2-0.9-3.4C61.3,55.4,64,54.7,65,56.1z"/>
	<path fill="#F69321" d="M31.6,46.3c0,0-0.6,0.9-0.9,3.8c-0.4,2.9,0.2,6.8,0.4,7.4c0.2,0.6,0.5,1.2,0.5,1.2s-0.7,0.7-1.1,2.6
		c-0.4,1.9,0.1,3.3,0.1,3.3s-2.1-3.2-1.9-7.8C28.8,52.3,30.3,47.9,31.6,46.3z"/>
	<ellipse fill="#F8EB32" cx="51.3" cy="62.8" rx="0.6" ry="0.4"/>
	<ellipse fill="#F8EB32" cx="42.9" cy="66.1" rx="0.5" ry="0.3"/>
	<ellipse fill="#F8EB32" cx="36.5" cy="61.8" rx="0.5" ry="0.3"/>
	<ellipse fill="#F8EB32" cx="37" cy="61.7" rx="0.2" ry="0.1"/>
	<ellipse fill="#F8EB32" cx="35.7" cy="67.6" rx="0.4" ry="0.3"/>
	<ellipse fill="#FBF4D6" cx="36.6" cy="61.7" rx="0.2" ry="0.2"/>
	<ellipse fill="#FBF4D6" cx="42.8" cy="65.9" rx="0.2" ry="0.1"/>
	<ellipse fill="#FBF4D6" cx="35.7" cy="67.6" rx="0.1" ry="0.1"/>
	<ellipse fill="#FBF4D6" cx="51" cy="62.7" rx="0.2" ry="0.1"/>
	<path fill="#010101" d="M71.1,36.8c0,0,2.7,1,1.9,3.6c-0.8,2.5-3,2.9-3.7,2.6c-0.6-0.3-0.4-0.2,0.1-1.2
		C70,40.8,71.1,36.8,71.1,36.8z"/>
	<path fill="#010101" d="M72.4,48.3c0,0-0.5,1-1.8,1c-0.5,0-1.1-0.1-1.1-0.1l0.5,1.8c0,0,2.2,0.5,2.6-0.2c0.4-0.7,0.4-0.9,0.4-0.9
		S72.5,48.7,72.4,48.3z"/>
	<path fill="#FFFFFF" d="M52,57.6c0,0-2.8,1.5-2.8,4.4c0,2.8,0.9,3.6,0.9,3.6s-2.3-1.2-1.9-4.3C48.6,58.2,51.6,57.6,52,57.6z"/>
	<path fill="#FFFFFF" d="M36,57.3c0,0-2.8,1.5-2.8,4.4c0,2.8,0.9,3.6,0.9,3.6s-2.3-1.2-1.9-4.3C32.6,57.8,35.6,57.3,36,57.3z"/>
	<path fill="#F06724" d="M58.3,56.9c-0.2-0.2-0.7-0.1-0.8,0.2c0,0.1,0,0.1,0.1,0.2c0.1,0,0.2,0,0.3,0c0.1,0,0.3-0.1,0.4-0.1
		C58.3,57,58.4,57,58.3,56.9z"/>
	<path fill="#F06724" d="M57.4,55.8c-0.3-0.2-0.5,0-0.6,0.3c-0.1,0.3-0.1,0.6-0.1,0.9c0,0.1,0.1,0.1,0.1,0c0.1-0.2,0.1-0.4,0.2-0.6
		c0.1-0.3,0.2-0.3,0.4-0.4C57.5,55.9,57.5,55.8,57.4,55.8z"/>
	<path fill="#F06724" d="M56.3,56.4c0-0.1,0-0.2,0-0.4c0-0.1-0.2-0.1-0.2,0c0,0.2-0.1,0.6,0.2,0.8c0,0,0.1,0,0.1-0.1
		C56.3,56.6,56.3,56.5,56.3,56.4z"/>
	<path fill="#F06724" d="M55.5,56.6c-0.1-0.1-0.2,0.1-0.1,0.1c0,0,0.1,0.1,0.1,0.1c0,0,0.1,0,0.1-0.1C55.6,56.7,55.5,56.7,55.5,56.6
		z"/>
	<path fill="#F06724" d="M54.8,56.9c-0.1,0-0.2,0-0.3,0c0,0,0,0,0,0.1C54.6,56.9,54.7,56.9,54.8,56.9C54.8,57,54.9,56.9,54.8,56.9z"
		/>
	<path fill="#F06724" d="M59.5,58.4c-0.3-0.5-1.3-0.1-1.6,0.2c-0.1,0.1,0,0.3,0.1,0.2c0.2-0.2,0.5-0.2,0.8-0.2c0.2,0,0.4,0.1,0.7,0
		C59.5,58.5,59.6,58.4,59.5,58.4z"/>
	<path fill="#F06724" d="M59.2,59.2c-0.2-0.2-0.6,0-0.6,0.3c0,0.2,0.2,0.2,0.3,0c0-0.1,0.3-0.1,0.4-0.2
		C59.2,59.2,59.2,59.2,59.2,59.2z"/>
	<path fill="#F06724" d="M39.6,56.5c0-0.1-0.2-0.1-0.2,0c-0.1,0.3-0.2,0.7,0,1c0,0.1,0.1,0.1,0.2,0C39.7,57.2,39.6,56.8,39.6,56.5z"
		/>
	<path fill="#F06724" d="M40.7,56.8c-0.2,0.2-0.5,0.5-0.5,0.9c0,0.1,0.1,0.1,0.2,0c0.1-0.1,0.1-0.2,0.2-0.3c0.1-0.2,0.2-0.3,0.3-0.4
		C41,56.9,40.9,56.7,40.7,56.8z"/>
	<path fill="#F06724" d="M41.1,57.7c-0.2,0.2-0.3,0.2-0.4,0.5c0,0.1,0,0.1,0.1,0.1c0.2-0.1,0.3-0.2,0.5-0.4
		C41.4,57.8,41.3,57.6,41.1,57.7z"/>
	<path fill="#F06724" d="M38.2,57c0-0.1-0.2-0.1-0.2,0c0,0.3,0.1,0.7,0.4,0.9c0.1,0,0.1,0,0.1-0.1C38.5,57.6,38.3,57.3,38.2,57z"/>
	<path fill="#F06724" d="M59.3,67.1c-0.2-0.4-0.7-0.7-1.1-0.5c-0.2,0.1-0.1,0.4,0.1,0.3c0.2-0.1,0.3,0.1,0.5,0.2
		c0.1,0.1,0.3,0.1,0.4,0.2C59.3,67.2,59.4,67.2,59.3,67.1z"/>
	<path fill="#F06724" d="M57.9,67.6c-0.2,0-0.3,0.2-0.1,0.3c0.2,0,0.2,0.3,0.4,0.3c0,0,0.1,0,0.1-0.1C58.4,67.9,58.1,67.6,57.9,67.6
		z"/>
	<path fill="#F06724" d="M55.4,68.8c0-0.2-0.3-0.2-0.4,0c0,0.2-0.1,0.6,0,0.8c0.1,0.1,0.1,0.1,0.2,0C55.5,69.4,55.4,69,55.4,68.8z"
		/>
	<path fill="#F06724" d="M52.2,68.8c0,0.1,0,0.2,0,0.3c0,0,0.1,0.1,0.1,0c0.1-0.1,0.1-0.2,0.1-0.4C52.4,68.6,52.2,68.6,52.2,68.8z"
		/>
	<path fill="#F06724" d="M51.3,68.5c0,0.2-0.1,0.3-0.1,0.5c0,0,0.1,0.1,0.1,0.1c0.2-0.1,0.3-0.3,0.3-0.5
		C51.6,68.3,51.3,68.3,51.3,68.5z"/>
	<path fill="#F06724" d="M50.2,68.3c-0.1,0.1-0.1,0.3-0.2,0.4c-0.1,0.1-0.2,0.2-0.2,0.4c0,0,0,0.1,0.1,0.1c0.5,0.1,0.5-0.5,0.6-0.8
		C50.5,68.3,50.3,68.2,50.2,68.3z"/>
	<radialGradient id="SVGID_6_" cx="55.4167" cy="55.7171" r="3.9367" gradientUnits="userSpaceOnUse">
		<stop  offset="0" style="stop-color:#EF4137"/>
		<stop  offset="0.1541" style="stop-color:#EE4736"/>
		<stop  offset="0.3431" style="stop-color:#EB5633"/>
		<stop  offset="0.5502" style="stop-color:#E96A2E"/>
		<stop  offset="0.7691" style="stop-color:#E58126"/>
		<stop  offset="0.7925" style="stop-color:#E58425"/>
		<stop  offset="0.9719" style="stop-color:#F3A91D"/>
	</radialGradient>
	<path fill="url(#SVGID_6_)" d="M50.1,55.8c0,0,2.2-1.6,6-0.6c3.8,1,4.6,2.2,4.6,2.2s-1.8-3.1-5.2-3.4
		C52.2,53.7,50.1,55.8,50.1,55.8z"/>
	<polygon fill="#FFFFFF" points="58.7,51.5 56.7,55.2 52.5,54.2 56.3,56.2 54.8,61 57.2,56.7 60.9,57.6 57.6,55.9 	"/>
	<path fill="#231F20" d="M71,36.9c0,0,1.3,0.6,1.3,2.3c0,1.8-2.3,3.2-2.9,3.2c-0.6,0-0.2-0.4,0.2-1.3c0.4-0.8,1.4-3.1,1.3-3.6
		C70.9,37.1,71,36.9,71,36.9z"/>
	<path fill="#231F20" d="M65,35.7c0,0,0.4,0.2,0.5,1.3c0,1.1-1.5,1.5-2.4,1.2s-1.6-0.8-1.2-0.9c0.4-0.1,2.5-0.6,2.7-0.9
		C64.8,36,64.7,35.6,65,35.7z"/>
	<path fill="#3F3D3E" d="M65.5,36.9c0.1-0.4,0-0.8-0.2-0.7c0,0-1,0.8-0.6,1.3C64.9,37.7,65.3,37.3,65.5,36.9z"/>
	<path fill="#D32027" d="M70.2,65.7c-0.3-0.1-0.6-0.2-0.8,0c0,0.1,0,0.1-0.1,0c-0.1,0-0.1-0.1-0.2-0.1c-0.1,0-0.3,0-0.4,0
		c-0.1,0-0.2,0-0.3,0.1c0,0-0.2-0.1-0.2,0c-0.1,0-0.2,0.1-0.3,0.2c0,0-0.2,0-0.2,0c-0.1,0-0.1,0-0.1,0.1c0,0,0,0,0,0.1
		c0,0,0,0.1,0,0.1c0.2,0.1,0.2,0.3,0.4,0.2c0.1,0,0.3-0.1,0.3-0.1c0.1,0,0.2,0.1,0.3,0c0.2-0.1,0.5,0.4,0.8,0.4c0.2,0,0.3,0,0.5-0.1
		c0.1-0.1,0.4,0,0.5,0C70.6,66.4,70.5,65.8,70.2,65.7z"/>
	<path fill="#FFFFFF" d="M70.4,66.1c0-0.1,0-0.2-0.2-0.2c0,0,0,0,0,0c-0.2,0-0.3,0.2-0.2,0.3c0,0,0,0,0,0c0.1,0.2,0.2,0.1,0.3,0
		c0,0.2,0.3,0.2,0.4,0C70.8,66.1,70.5,66,70.4,66.1z"/>
	<path fill="#010101" d="M28.7,32.5c0,0-1.4-1.2-2.9-1.1c-1.5,0.1-1.8-0.9-1.8-0.9l-9.4-15.8c0,0-0.3-2.9,3.9-3.6
		c6.2-1,7.3,1.6,7.3,1.6L32,29.1c0,0-0.3,0.5-0.9,1.3c-0.6,0.8-0.1,0.9,0.1,2.1c0.2,1.2-0.1,1.8-1.4,1.2
		C28.5,33.1,28.7,32.5,28.7,32.5z"/>
	<path fill="#3E3E3E" d="M18.6,11.1c0,0-2,0.7-2.5,1.5c-0.6,0.8-0.5,1.6-0.5,1.6l9.4,16c0,0,0.5,0.5,1.1,0.6
		c0.6,0.1,1.7,0.2,2.4,0.9c0.7,0.7,0.9,1.4,1.3,1.8c0.4,0.4,1.3,0.6,1.3,0.6s-0.9,0.2-1.8-0.6c-1-0.8-0.9-1.4-1.9-1.6
		c-1-0.2-1.8-0.3-2.2-0.3c-0.5,0.1-0.7,0-1.4-1.1c-0.7-1.1-9.1-15.6-9.1-15.6S14.2,11.9,18.6,11.1z"/>
	<path fill="#B9B9B9" d="M22,34.4c-3.7-0.3-7.8-0.6-10.6-3.3c-2.5-2.4-3.6-6-3.8-9.3C7.3,14.6,13.6,8,20.9,8.4c0.2,0,0.2-0.3,0-0.3
		c-7.6-0.5-14,5.8-14,13.3c0,3.6,1.4,7.2,3.8,9.9c2.9,3.1,7.3,3.3,11.2,3.2C22.1,34.5,22.1,34.4,22,34.4z"/>
	<path fill="#B9B9B9" d="M19.2,25.5c-3.5-0.8-6.4-3.1-7.2-6.7c-0.7-3.2,1.2-7.3,4.4-8.4c0.1,0,0.1-0.2,0-0.2c-3.4,0.9-5.5,4.7-5,8
		c0.5,3.8,3.8,7.4,7.9,7.3C19.2,25.7,19.2,25.6,19.2,25.5z"/>
	<path fill="#2E2E2E" d="M16.3,12.4c0,0-0.6,1-0.4,1.4C16.1,14.3,25,30,25,30l-9.2-15.6l-1.3,0.3l0.9-0.8
		C15.4,13.9,15.6,13,16.3,12.4z"/>
	<path fill="#ECC631" d="M31.5,32.4c0,0,0.3,0.5-0.1,1.2c-0.4,0.7-1.4,1.1-1.3,0.9c0.1-0.1,0.3-0.4,0.3-0.4s-1.1-0.2-1.6-0.9
		c-0.5-0.6-0.9-1-0.9-1s0.5,1.1,1.1,1.5c0.5,0.5,0.8,0.5,0.8,0.5s0,1,0.6,0.7c0.6-0.3,1.2-0.7,1.4-1.4c0.3-0.7,0.4-0.8,0.7-0.6
		c0.3,0.2,1.4,1.4,0.8,2.4c-0.6,0.9-1.5,1.2-2.1,2.2c-0.6,1.1-0.4,1.7-0.4,1.7s0.6-1.2,1.3-2c0.8-0.8,1.7-1.1,1.8-2.4
		C34,33.7,32.2,32.5,31.5,32.4z"/>
	<path fill="#ECC631" d="M30.9,39.5c0,0,0.5-0.1,0.4,0.8c-0.1,0.9-1.1,1.7-1.5,1.5c-0.3-0.2-1-0.2-1.3-0.8c-0.3-0.6-0.2-0.8-0.2-0.8
		s0.5-0.1,0.3-0.3c-0.2-0.3-0.7-0.6-0.7-0.6s0.7,0.2,0.8,0.6c0.1,0.4-0.1,0.5-0.1,0.5s0.5,0.8,1.1,0.9c0.5,0,1.2-0.9,1.2-1.3
		C30.8,39.7,30.9,39.5,30.9,39.5z"/>
	<path fill="#ECC631" d="M34.3,34.2c0,0,0.3,0.1,0.5,1.2c0.2,1.1,0.3,1.3,0.3,1.3s0.1-0.8-0.2-1.7C34.5,34,34.3,34.2,34.3,34.2z"/>
	<path fill="#ECC631" d="M35.6,36.1c0,0,0.4,0.3,0.6,1.1c0.2,0.7,0.3,1.5,0.3,1.5s0.2-0.9-0.2-1.8C35.9,36,35.6,36.1,35.6,36.1z"/>
	<path fill="#FBF4D6" d="M31.5,32.4c0,0,1.7,0.3,2.1,1.5c0.4,1.2,0.3,1.7-0.2,2.2c-0.5,0.6-1.5,1.3-1.8,1.8
		c-0.4,0.5-0.7,1.2-0.7,1.2s0.5-1.5,1.3-2.2c0.8-0.7,1.5-1.3,1.4-2.3C33.4,33.6,32.4,32.7,31.5,32.4z"/>
	<path fill="#FFFFFF" d="M31.6,32.7c0,0,0.2,0.3-0.1,1c-0.3,0.7-0.7,1-1.2,1.1c-0.5,0.1-0.6,0.1-0.6,0.1l0.5-0.4c0,0-0.1-0.1,0-0.3
		c0.2-0.2-0.5,0-1.3-0.8c-0.8-0.8-0.9-1.2-1.2-1.3c-0.3-0.1-0.2,0.3-0.3,0.4c-0.1,0.2-0.6,0.8-0.7,1.1c-0.2,0.2,0,0.4,0,0.6
		c0,0.3-0.1,0.5-0.1,0.5s-0.1,0.1,0.3,0.5c0.4,0.3,0.7,0.8,0.7,0.8s-0.9-0.6-1.1-0.9c-0.2-0.3-0.4-0.7-0.1-1.2
		c0.2-0.5,0.8-0.8,0.8-1.3s0.2-0.8,0.5-0.6c0,0,0.4,0,0.7,0.3c0.3,0.3,1.1,1.4,1.7,1.5c0.6,0.1,0.5,0.2,0.5,0.2l-0.1,0.3
		c0,0,1-0.3,1.2-1c0.2-0.7,0.1-1,0.1-1L31.6,32.7z"/>
	<path fill="#FFFFFF" d="M26.7,36.2c0,0-0.1,0.7,0.2,1.7c0.3,1,0.5,1.3,0.9,1.5c0.4,0.2,0.6,0.5,0.6,0.5s-0.5-0.3-0.8-0.4
		c-0.3-0.1-0.4,0.1-0.8-1.1C26.3,37.2,26.5,36,26.7,36.2z"/>
	<path fill="#FFFFFF" d="M28.2,40.3c0,0,0.2,1,1,1.3c0.8,0.3,1.4-0.2,1.7-0.6c0,0,0.1-0.1,0.1-0.1c0.2-0.4,0.1-1,0.1-1
		s0.2,0.3,0,0.9c-0.2,0.6-1,1.2-1.4,1.2C29.3,41.9,28.5,41.8,28.2,40.3z"/>
	<path fill="#E2B627" d="M26.8,37.1c0,0,0.2-0.3,1.3,0.7c1.1,0.9,1.7,2.5,1.3,2.4c-0.4-0.1-1.3-0.7-1.3-0.7s0.7,0.6,0.5,0.8
		c-0.2,0.2-0.1,0.3,0.5,0.6c0.6,0.3,1.7,0.3,1.3-0.6c-0.4-0.9-1.5-3-2.4-4.1c-0.8-1.1-1.4-1.3-1.4-1.3s-0.2,0,0,0.3
		c0.2,0.3,0.5,0.5,0.8,1c0.3,0.5,0.3,0.8-0.2,0.4c-0.5-0.4-0.5-0.4-0.5-0.4C26.7,36.2,26.6,36.6,26.8,37.1z"/>
</g>
</svg>
