<?xml version="1.0" encoding="utf-8"?>
<!-- Generator: Adobe Illustrator 18.0.0, SVG Export Plug-In . SVG Version: 6.00 Build 0)  -->
<!DOCTYPE svg PUBLIC "-//W3C//DTD SVG 1.1//EN" "http://www.w3.org/Graphics/SVG/1.1/DTD/svg11.dtd">
<svg version="1.1" id="Layer_1" xmlns="http://www.w3.org/2000/svg" xmlns:xlink="http://www.w3.org/1999/xlink" x="0px" y="0px"
	 viewBox="0 0 50 50" enable-background="new 0 0 50 50" xml:space="preserve">
<g>
	<g>
		<g>
			<g>
				<path fill="#030304" d="M21.8,5.8c1.7-0.5,3.5-0.7,5.3-0.8c2,0.2,4.1,0.4,6,1.1c4.8,1.5,9,4.9,11.4,9.4c2.1,3.9,3,8.4,2.2,12.8
					c-0.6,4.2-2.8,8.2-5.8,11.2c-2.9,2.8-6.7,4.8-10.8,5.4c-4.3,0.7-8.7,0-12.5-2.1c-0.5-0.3-1.1-0.6-1.6-0.9
					c-1.4,1.2-3.2,1.7-5,1.8c-2.3,0.1-4.8-0.7-6.5-2.4c-1.2-1.2-1.8-3-1.7-4.6c0-4.2,0-8.5,0-12.7c0-1,0.6-2.2,1.6-2.5
					c0.6-0.2,1.2-0.1,1.8,0.1c-0.1-1.1,0.6-2.2,1.7-2.5c1.1-3.3,3.1-6.4,5.7-8.7C16.1,8.1,18.8,6.6,21.8,5.8z M15.9,10
					c-3,2.2-5.3,5.4-6.5,8.9c0.2,0.1,0.3,0.2,0.5,0.3c0.3-1,1.1-1.8,2.2-1.8c1.3-0.1,2.4,1.1,2.4,2.4c0.6-0.3,1.3-0.5,1.9-0.2
					c0.6,0.1,1,0.6,1.3,1.1c0.1,0.4,0.2,0.7,0.2,1.1c0,3.6,0,7.1,0,10.7c0.6-0.8,1.2-1.6,1.9-2.4c1.1-1.1,3-0.6,3.6,0.7
					c0.4,0.8,0.2,1.8-0.4,2.4c-2,2.5-3.9,5.1-5.9,7.6c3.3,2.1,7.3,3.1,11.2,2.9c3.5-0.2,6.9-1.4,9.8-3.5c3.2-2.3,5.7-5.7,6.9-9.5
					c1.3-3.9,1.2-8.2-0.2-12.1c-1.3-3.7-3.9-7-7.2-9.2c-3.1-2-6.8-3.2-10.5-3.2C23.1,6.3,19.1,7.6,15.9,10z M10.9,19.6
					c0,3.1,0,6.3,0,9.4c-0.3,0-0.6,0-1,0c-0.1-2.7,0-5.3,0-8c0-0.9-1.1-1.5-1.8-1.1c-0.4,0.1-0.5,0.5-0.7,0.8c0,2.7,0,5.5,0,8.2
					c-0.3,0-0.6,0-1,0c0-2.1,0-4.1,0-6.2c-0.3-0.3-0.6-0.6-1-0.6c-0.7-0.1-1.3,0.5-1.3,1.2c0,4.8,0,9.6,0,14.4
					c0.2,1.2,0.8,2.3,1.7,3.1c1.5,1.3,3.5,1.8,5.4,1.7c2.2-0.1,4.5-1.1,5.6-3.1c1.8-2.4,3.7-4.8,5.5-7.2c0.5-0.7,0-1.7-0.8-1.9
					c-0.5-0.1-1,0.2-1.3,0.6c-0.8,1-1.6,2.1-2.4,3.1c-0.1,0-0.3,0.1-0.4,0.1c-0.1,0-0.3-0.1-0.4-0.2c0-0.2-0.1-0.4-0.1-0.5
					c0.1-3.9,0-7.9,0-11.8c0.1-1-1.1-1.6-1.9-1.2c-0.2,0.3-0.5,0.6-0.5,1c0,2.5,0,4.9,0,7.4c-0.3,0-0.6,0-1,0
					c-0.1-3.2,0-6.3-0.1-9.5c0-0.6-0.6-1-1.1-1.2C11.6,18.5,10.9,18.9,10.9,19.6z"/>
			</g>
		</g>
		<g>
			<path fill="#030304" d="M40.7,15.9c0.4-0.1,0.9-0.2,1.3-0.2c0.1,1.6-0.6,3.2-1.9,4.2c-1.7,1.4-4.4,1.5-6.2,0.1
				c-0.8-0.6-1.4-1.4-1.7-2.4c0.4-0.1,0.9-0.2,1.3-0.3c0.5,0.9,1.2,1.8,2.3,2.1c1.6,0.6,3.6-0.2,4.4-1.7
				C40.5,17.2,40.6,16.5,40.7,15.9z"/>
		</g>
		<g>
			<path fill="#030304" d="M28.7,17.7c0.4-0.1,0.9-0.2,1.3-0.2c0.1,1.6-0.6,3.2-1.8,4.1c-1.7,1.4-4.3,1.6-6.1,0.3
				c-0.9-0.6-1.6-1.5-2-2.5c0.4-0.1,0.9-0.2,1.3-0.2c0.4,0.8,1,1.6,1.9,1.9c0.5,0.3,1.1,0.3,1.7,0.4c1.2-0.1,2.5-0.8,3.1-1.9
				C28.5,19,28.6,18.4,28.7,17.7z"/>
		</g>
		<g>
			<path fill="#030304" d="M29.8,31.7c1.1-1.3,3-2,4.7-1.7c1.8,0.3,3.3,1.6,3.9,3.3c-0.4,0.1-0.9,0.2-1.3,0.3c-0.4-0.8-1.1-1.6-2-2
				c-1.2-0.5-2.7-0.3-3.7,0.5c-0.9,0.7-1.3,1.8-1.4,2.9c-0.5,0.1-0.9,0.2-1.4,0.3C28.5,34,28.9,32.6,29.8,31.7z"/>
		</g>
	</g>
	<g>
		<g>
			<g>
				<path fill="#FFFFFF" d="M15.9,10c3.2-2.4,7.2-3.7,11.2-3.7c3.7,0,7.4,1.2,10.5,3.2c3.3,2.2,5.8,5.5,7.2,9.2
					c1.4,3.9,1.5,8.2,0.2,12.1c-1.2,3.8-3.7,7.1-6.9,9.5c-2.9,2-6.3,3.3-9.8,3.5C24.3,44,20.3,43,17,40.9c2-2.5,3.9-5.1,5.9-7.6
					c0.6-0.7,0.8-1.6,0.4-2.4c-0.6-1.4-2.5-1.8-3.6-0.7c-0.7,0.8-1.3,1.6-1.9,2.4c0-3.6,0-7.1,0-10.7c0-0.4-0.1-0.8-0.2-1.1
					c-0.4-0.4-0.8-0.9-1.3-1.1c-0.6-0.2-1.3-0.1-1.9,0.2c0.1-1.3-1.1-2.4-2.4-2.4c-1,0-1.9,0.8-2.2,1.8c-0.2-0.1-0.3-0.2-0.5-0.3
					C10.6,15.4,12.9,12.3,15.9,10z M40.7,15.9c-0.1,0.6-0.2,1.3-0.5,1.8c-0.8,1.5-2.8,2.3-4.4,1.7c-1-0.3-1.8-1.2-2.3-2.1
					c-0.4,0.1-0.9,0.2-1.3,0.3c0.3,0.9,0.9,1.8,1.7,2.4c1.8,1.4,4.5,1.3,6.2-0.1c1.3-1,2-2.6,1.9-4.2C41.6,15.7,41.1,15.8,40.7,15.9
					z M28.7,17.7c-0.1,0.6-0.2,1.3-0.5,1.9c-0.6,1.1-1.9,1.8-3.1,1.9c-0.6-0.1-1.2-0.1-1.7-0.4c-0.9-0.4-1.5-1.1-1.9-1.9
					c-0.4,0.1-0.9,0.2-1.3,0.2c0.3,1,1.1,1.9,2,2.5c1.8,1.3,4.4,1.1,6.1-0.3c1.2-1,1.9-2.6,1.8-4.1C29.6,17.6,29.2,17.7,28.7,17.7z"
					/>
			</g>
		</g>
		<g>
			<path fill="#FFFFFF" d="M10.9,19.6c0.1-0.7,0.7-1.1,1.4-1.2c0.5,0.2,1.1,0.6,1.1,1.2c0.1,3.2,0,6.3,0.1,9.5c0.3,0,0.6,0,1,0
				c0-2.5,0-4.9,0-7.4c0-0.4,0.3-0.7,0.5-1c0.8-0.4,2,0.2,1.9,1.2c0,3.9,0.1,7.9,0,11.8c0,0.2,0.1,0.4,0.1,0.5
				c0.1,0,0.3,0.1,0.4,0.2c0.1,0,0.3-0.1,0.4-0.1c0.8-1,1.6-2.1,2.4-3.1c0.3-0.4,0.8-0.7,1.3-0.6c0.8,0.1,1.3,1.2,0.8,1.9
				c-1.8,2.4-3.7,4.8-5.5,7.2c-1.1,2-3.4,3-5.6,3.1c-1.9,0.1-3.9-0.5-5.4-1.7c-0.9-0.8-1.5-1.9-1.7-3.1c0-4.8,0-9.6,0-14.4
				c0-0.7,0.6-1.3,1.3-1.2c0.4,0,0.7,0.3,1,0.6c0,2.1,0,4.1,0,6.2c0.3,0,0.6,0,1,0c0-2.7,0-5.5,0-8.2c0.2-0.3,0.3-0.7,0.7-0.8
				c0.7-0.5,1.8,0.2,1.8,1.1c0,2.7,0,5.3,0,8c0.3,0,0.6,0,1,0C10.9,25.9,10.8,22.8,10.9,19.6z"/>
		</g>
	</g>
	<g>
		<polygon points="27.5,33.1 26.2,32 30.1,27.2 32.3,30.3 35,27.5 38,29.4 39.8,25.7 41.3,26.5 38.7,31.8 35.3,29.7 32.1,32.9 
			30,30 		"/>
	</g>
</g>
</svg>
