<?xml version="1.0" encoding="utf-8"?>
<!-- Generator: Adobe Illustrator 18.0.0, SVG Export Plug-In . SVG Version: 6.00 Build 0)  -->
<!DOCTYPE svg PUBLIC "-//W3C//DTD SVG 1.1//EN" "http://www.w3.org/Graphics/SVG/1.1/DTD/svg11.dtd">
<svg version="1.1" id="Layer_1" xmlns="http://www.w3.org/2000/svg" xmlns:xlink="http://www.w3.org/1999/xlink" x="0px" y="0px"
	 viewBox="0 0 82 82" enable-background="new 0 0 82 82" xml:space="preserve">
<g>
	<path fill="#E3E3E2" d="M69.2,56.8c0,0,1.2-1.9,1.3-2.9c0.1-1,0.3-2,0.3-2s0.7,0.3,0.7,1.4c0,1.1-0.2,1.8-0.2,1.8s0.3-0.2,1.1-0.4
		c0.8-0.3,1.1-0.1,0.9,0.3c-0.2,0.4-0.3,1.1-0.3,1.1s0.5,0.1,0.7,0.1c0.2,0,0.3,0.1,0.2,0.4c-0.1,0.3-0.2,0.7-0.2,0.7s1.1,0.2,1,0.5
		c-0.1,0.4-0.4,0.7-0.4,0.7s0.1,0.3,0.4,0.6c0.3,0.3-0.1,0.9-0.1,0.9l-0.1,0.9c0,0,1.3,1.7,0.2,3.1c-1.1,1.4-3.8,3.5-3.8,3.5
		s0.2,0.6-0.9,0.9c-1.1,0.3-1.3,0.4-1.2,0.7c0,0.3-0.4,1.1-1.2,0.9c-0.8-0.2-0.9-0.3-0.9-0.3s-0.2,1-0.7,0.6
		c-0.6-0.3-1.5-0.7-1.5-0.7s-0.1,0.6-0.6,0c-0.5-0.6-0.7-0.9-0.7-0.9s-0.5,0.1-0.7-0.4c-0.2-0.5-0.2-0.5-0.2-0.5s-0.3-0.2-0.3-0.3
		c0-0.2,6.1-10,6.1-10L69.2,56.8z"/>
	<path fill="#E3E3E2" d="M41.3,8.8c0,0-2.5-0.6-5.5,3.6c-3,4.2-3.7,10.3-3.3,12c0.4,1.7,1.1,2.7,1.1,2.7l5.7-0.4c0,0,5.4-6.2,5.2-12
		C44.2,8.9,41.3,8.8,41.3,8.8z"/>
	<path fill="#E3E3E2" d="M52.2,8.7c0,0,0.5-1.1-1,0.3c-1.6,1.4-4.9,8.9-5.7,12.2c-0.9,3.2-1.2,5.3-1.2,5.3l6.8,1.6
		c0,0,4.5-0.8,5.4-8.1c1-7.3-0.9-11.5-1.8-11.3c-0.9,0.2-1.6,0.9-1.7,0.8c0-0.2-0.5-1-0.5-1L52.2,8.7z"/>
	<path fill="#BABAB6" d="M40.9,9.2c0,0,2,1,2,3.5c0,2.5,0.2,3,0.2,3l0.7-1.8c0,0-0.3,2.6-0.9,3.7c-0.7,1.2,0.6-0.4,0.6-0.4
		s-1.1,3.3-2.2,4.9c-1.1,1.5-2.4,2.8-3.7,3.4c-1.3,0.6-2.7,0.5-3.4-0.5c-0.7-0.9-1-2.1-1-2.1v1.3l-0.6-2.4c0,0-0.2,2,0.2,3.2
		c0.4,1.2,0.9,2.3,0.9,2.3l6-0.8c0,0,3.3-1.7,4.9-7.4c1.6-5.7,0.3-10.7-0.5-10.8c-0.8-0.2-1.5,0-1.5,0l-1,0.5l-0.8,0.1L40.9,9.2z"/>
	<path fill="#BABAB6" d="M52.1,9.4c0,0,0.7,0.8,0.9,1.1c0.1,0.2,0.1-0.7,0.1-0.7s0.2,0.2,0.5,0.9c0.3,0.7,0.7,1.2,0.7,1.2
		s0-1.6,0.1-2.1c0.1-0.4,0.1-0.4,0.1-0.4s0.3,1.4,0.5,2.5c0.3,1.1,0.4,1.8,0.4,3.3c0,1.6,0,2,0,2l0.3-0.8c0,0,0.1,1.5-0.6,3.8
		c-0.7,2.3-1,2.8-1,2.8l0.6-0.4c0,0-0.3,1.3-1.2,2.2c-0.9,0.9-1.6,1.4-1.6,1.4S51.3,27,50.5,27c-0.8,0-2.3-0.1-2.6-0.1
		c-0.3,0,4.2,1.5,4.2,1.5s4.9-1.8,6.1-8.2c1.1-6.4,0.9-9.3-1.8-11.1c-2.7-1.8-2.7-1-2.7-1l-0.7,1.1l-0.4-0.7L52,8.6
		C52,8.6,51.6,8.7,52.1,9.4z"/>
	<path fill="#D97882" d="M41.4,12.8c0,0-3.5,0.6-5.2,3.5c-1.7,2.9-2.7,8.9-0.1,8.7c2.5-0.2,4.8-4.4,5.5-7.8
		C42.3,13.7,42,12.9,41.4,12.8z"/>
	<path fill="#D97882" d="M53.5,13.1c0,0-3.7,1.5-5.3,7.1c-1.6,5.6-0.5,7.7,3.1,5.3c3.1-2.1,3.6-8.8,3.3-10.3
		C54.4,13.7,53.5,13.1,53.5,13.1z"/>
	<path fill="#818181" d="M54.3,7.6c-0.1,0-0.2,0-0.2,0.1c0,0,0-0.1,0-0.1c0-0.1,0-0.2-0.2-0.2c-0.1,0-0.2,0-0.3,0.1
		c-0.1,0.2-0.2,0.4-0.3,0.6C53.2,8.4,53,8.9,53,9.2c0,0.2,0.2,0.4,0.5,0.3c0.3-0.2,0.4-0.6,0.5-1c0-0.2,0.1-0.4,0.1-0.6
		c0,0,0,0,0.1,0.1c1.6,1,3,2,3.7,3.9c0.7,1.8,0.7,3.9,0.4,5.7c-0.5,3.8-2.4,8.9-6.3,10.5c-0.5,0.2-0.3,0.9,0.2,0.7
		c4.4-1.3,6.5-7.2,7.1-11.3C59.8,13.7,58.8,8.4,54.3,7.6z"/>
	<path fill="#818181" d="M53.2,7.7c0-0.1,0-0.3,0-0.4c0-0.2-0.2-0.3-0.3-0.1c-0.1,0.2-0.1,0.3-0.2,0.5c-3,1.4-4.4,4.6-5.8,7.4
		c-1.6,3.5-2.7,7.4-2.9,11.3c0,0.4,0.7,0.5,0.8,0.1c0.5-3.5,1.1-6.8,2.4-10.1c0.7-1.7,1.6-3.2,2.4-4.8c0.5-0.9,1.1-1.7,1.8-2.5
		c0.1-0.1,0.3-0.2,0.4-0.4c0,0.3,0,0.5,0.2,0.6c0.2,0.1,0.3-0.1,0.4-0.3c0,0.1,0,0.1,0.1,0.2c0.1,0.1,0.1,0.1,0.2,0
		C53,9.2,53,8.8,53.1,8.5c0-0.2,0.1-0.4,0.1-0.6c0,0,0,0,0,0C53.2,7.9,53.2,7.7,53.2,7.7z"/>
	<path fill="#818181" d="M43.3,7.8c0-0.1,0-0.2,0.1-0.3c0.1,0,0.2-0.2,0.1-0.3c0-0.1,0-0.2-0.2-0.3c-0.1-0.1-0.4-0.2-0.5,0
		c-0.2,0.2-0.3,0.5-0.4,0.8c-0.1,0.2-0.2,0.5-0.2,0.7c0,0,0,0,0-0.1c0.1-0.4,0.1-0.9,0.3-1.3c0.1-0.2-0.2-0.3-0.3-0.1
		c-0.2,0.4-0.3,0.7-0.4,1.1c0,0,0,0,0,0c0-0.1-0.3-0.2-0.3,0c0,0,0,0.1,0,0.1c0,0,0,0,0,0c-0.1,0-0.2,0-0.4,0.1
		c-0.1-0.1-0.3,0-0.3,0.1c-1.8,0.4-3.1,1.7-4.3,3.1c-1.6,1.8-2.8,3.7-3.6,6c-0.7,1.9-0.7,4-0.8,6c0,1.3,0.1,2.9,1.3,3.6
		c0.6,0.3,1.1-0.5,0.5-0.9c-1.1-0.7-0.8-2.7-0.8-3.8c0.1-1.6,0.2-3.2,0.7-4.7c1-3.4,3.6-7,6.8-8.7c0,0,0,0,0,0c0,0,0,0,0,0
		c0,0.1,0.1,0.2,0.2,0.2c0,0,0,0,0.1,0c0.1,0,0.3,0,0.4-0.1c0.1,0.1,0.4,0.1,0.5-0.1c0,0,0-0.1,0.1-0.1c0,0,0,0.1,0.1,0.1
		c0,0,0.1,0.1,0.1,0C42,9.1,42,9,42.1,8.9c0.1,0.3,0.4,0.4,0.7,0.2c0.2-0.2,0.3-0.5,0.4-0.7c2.4,0.7,1.9,5.8,1.7,7.7
		c-0.5,3.3-2.1,9.4-5.9,10.2c-0.4,0.1-0.3,0.8,0.1,0.8c2,0.1,3.4-2,4.3-3.6c1.3-2.4,2.2-5.1,2.5-7.8C45.9,13.7,46.2,7.9,43.3,7.8z"
		/>
	<path fill="#E5A6AC" d="M54.1,14.4c0,0-1.5-0.7-1.9,0.8c-0.4,1.6,1.8,5,0.7,3.5c-1.1-1.5-1.6-2.4-1.5-1.8c0.1,0.6,1.8,2.9,1,2.7
		c-0.7-0.1-1.3-2.4-1.7-1.6c-0.4,0.7,1.3,4,1.7,3.6c0.4-0.4,0.7-1,0.7-1s-0.7,2.2-1.5,3c-0.7,0.8-0.7,0.8-0.7,0.8l0.9-2.1
		c0,0-2.3-3.5-2.1-2.2c0.1,1.3,1.6,3.9,0.6,2.9c-1-1,0,0.5-0.1,1.3c-0.1,0.8-1.3,2-2.1,0.2c-0.8-1.8-0.2-4.2,1.5-7.2
		c1.7-3,3.5-4.4,4-4.4C54,13.2,54.1,14,54.1,14.4z"/>
	<path fill="#FFFFFF" d="M54.2,17.1c0,0,0.3-3.9-0.5-4.2c-0.8-0.3-2.9,1.8-4.2,4.2c-1.3,2.4-2.5,5.6-1.8,7.6c0.7,2,2.8,0.9,3.5,0.1
		c0,0-1.1,0.8-1.7,0.9c-0.7,0.1-1.3-0.6-1.4-1.6c-0.1-1,0.1-3.7,0.4-3.5c0.3,0.2,0.4,0.9,0.3,0.2c-0.1-0.7-0.2-1.3,0-1.4
		c0.2-0.1,0.7,0,1.3,0.7c0.5,0.7,1.3,1.5,1.1,1.1c-0.2-0.4-1.5-2.6-1.5-3.2c-0.1-0.6,0.3-1.2,0.7-0.7c0.4,0.6,1.6,2.2,1.5,1.9
		c-0.1-0.3-1.4-2.9-1.2-3.2c0.1-0.3,0.4,0.3,0.9,1c0.5,0.7,1.5,1.8,1.5,1.8s-1.4-2.5-1.7-3c-0.3-0.5,0.5-1.5,0.9-1.5
		c0.4,0,0.2-0.1,0.7-0.5c0.5-0.4,1.1,0.2,1.3,1.1C54.2,15.7,54.2,17.1,54.2,17.1z"/>
	<path fill="#FFFFFF" d="M53.1,20.5c0,0-0.5,1.4-1,2.3c-0.5,0.9-0.7,0.9-0.3,0.2C52.2,22.4,53.1,20.2,53.1,20.5z"/>
	<path fill="#CB4B58" d="M50.8,18.2c0,0,0.7,1.5,1.1,2.3c0.4,0.8,0.9,0.4,0.1-1C51.2,18.1,50.4,17.6,50.8,18.2z"/>
	<path fill="#CB4B58" d="M52.3,18.4c0,0,0.7,1.8,0.8,1.5C53.3,19.5,52.3,18,52.3,18.4z"/>
	<path fill="#CB4B58" d="M52.7,16.6c0,0,0.5,2.7,0.9,2.4c0.3-0.4,0.3-1.5,0.2-1.3c-0.1,0.2-0.1,0.3-0.3-0.2
		C53.1,17.1,52.7,16,52.7,16.6z"/>
	<path fill="#CB4B58" d="M50.2,23.4c0,0,0.1,1.3,0.4,0.8C50.9,23.7,50.2,23.1,50.2,23.4z"/>
	<path fill="#E5A6AC" d="M41.6,16.6c0,0-0.9-2.9-1.2-2.2c-0.3,0.7,0.1,4.2,0.2,4.8c0.1,0.6,0.5-0.4,0.5-0.4s-0.4,1.2-0.9,2
		c-0.4,0.8-0.4,0.8-0.4,0.8s0.3-0.4,0-2.9c-0.3-2.5-0.8-4.7-1.1-3.9c-0.3,0.8-0.3,4.4-0.3,5.2c0,0.8-0.2-1.8-0.4-3.2
		c-0.2-1.4-0.9,0.3-1.2,1.1c-0.3,0.8-0.6,0.5-0.6,0.5s0,1.2-0.2,2.7c-0.2,1.5-0.1,1.3-0.4-0.1c-0.3-1.4-0.7,1.6-0.6,2.2
		c0.1,0.6,1.1,1.1,2.2,0.5c1.1-0.6,1.3-0.8,1.3-0.8s-0.9,1.4-2.5,1.4c-1.6,0-2-2.4-0.6-5.7c1.4-3.3,3.8-5.6,5.1-5.9
		c1.2-0.2,1.6,0.9,1.4,2.1C41.8,16.3,41.6,16.6,41.6,16.6z"/>
	<path fill="#FFFFFF" d="M41.5,17.2c0,0,0.9-3,0.3-3.8c-0.6-0.8-1.7-1.1-3.8,1.1c-2.1,2.2-3.6,6-3.5,8.3c0.1,2.3,2,1.9,2.7,1.5
		c0.6-0.4,0.6-0.4,0.6-0.4s-1.1,0.9-2.4,0.5c-1.3-0.4-0.6-4-0.2-5c0.4-1,0.5,0.8,0.6,1.7c0.1,0.8,0.1,0.8,0.1,0.8s-0.1-3.7,0-3.9
		c0.1-0.2,0.2,0.1,0.3,0.2c0.1,0.1,0-0.3,0.5-1.3c0.5-1.1,1-2.1,1.2-1.3c0.2,0.8,0.7,4.8,0.7,4.8s-0.4-5.1-0.3-5.6
		c0.1-0.5,0.4-1.1,0.8,0c0.4,1.1,0.8,4.2,0.8,5.3c0.1,1.1-0.4,2-0.4,2s0.3-0.2,0.6-1c0.4-0.8,0.4-0.8,0.4-0.8l-0.3,0.1l-0.9-6.7
		c0,0,0.2-0.6,0.5-0.3c0.3,0.3,1,1.5,1.2,2.1c0.2,0.6,0.5,1.1,0.5,1.1s-1.1-2.9-0.9-3.2c0.2-0.3,1-0.1,1,1.6
		C41.7,16.5,41.5,17.2,41.5,17.2z"/>
	<path fill="#CB4B58" d="M39.4,17.8c0,0,0.6,3.4-0.2,3.1C38.4,20.7,39.1,17.3,39.4,17.8z"/>
	<path fill="#CB4B58" d="M35.7,22c0,0-0.4,0.3-0.2,0.9c0.2,0.6,0.3,0.5,0.3-0.1C35.7,22.2,35.7,22,35.7,22z"/>
	<path fill="#CB4B58" d="M40.9,15.5c0,0-0.1,0.6,0.3,1.3c0.3,0.6,0.5,0.2,0.4,0C41.5,16.5,40.9,15,40.9,15.5z"/>
	<path fill="#FFFFFF" d="M43,7.9l-0.6,0.9l-0.2-0.2c0,0-0.5,0.5-0.5,0.3c0-0.2,0.1-0.8,0.1-0.8l-0.6,0.8l-0.2-0.2l-0.5,0.3
		c0,0-0.4-0.3-2.3,1.1c-1.9,1.4-6.3,6.6-6.3,12.6c0.1,6,1.5,4.6,1.5,4.6s1.1-0.2,1.6-0.3c0.5-0.1,0.5-0.1,0.5-0.1s-1.7-0.8-2.3-2.3
		c-0.5-1.5-0.4-7.4,2.3-10.8c2.7-3.4,4.8-3.4,4.8-3.4s0.5-0.8,0.6-0.3c0.1,0.5,0.3,0.2,0.4,0c0.2-0.2,0.8,1.1,0.9,1.9
		c0.1,0.8,0.2,1.1,0.2,1.1s0.1-2.2,0.1-2.8c0-0.6,0-0.6,0-0.6l0.4,0.5l0.2-0.3c0,0,1.2,1,1.3,4.3c0.1,3.2-0.9,6.6-0.9,6.6
		s1.8-4.1,1.4-8c-0.4-3.8-1.7-4.4-1.9-4.3C43.1,8.2,43.1,7.5,43,7.9z"/>
	<path fill="#FFFFFF" d="M52.4,8.3c0,0-3.1,1.1-5.7,8.4c-2.5,7.3-2.4,9.5-2.4,9.5s1.5,0.2,2.2,0.3c0.7,0.2,0.7,0.2,0.7,0.2
		s-1.3-1.2-1-4.1c0.3-2.9,3.1-7.5,3.6-8.4c0.5-0.8,0.9-3.6,1-3.1c0.1,0.5,0.1,0.9,0.1,0.9s0.3-0.5,0.4-1.1c0-0.6,0.3,0.5,0.3,0.5
		l0.2-0.7l0.4,0.3c0,0,1.6,0.5,2.1,2.1c0.6,1.6,0.6,2.6,0.6,2.6s0-1.8-0.2-2.9c-0.2-1.1-0.3-0.8-0.3-0.8s-1.3-1.5-1.3-1.4
		c0,0.2-1-0.4-1.1-1.3C52,8.5,52.4,8.3,52.4,8.3z"/>
	<path fill="#FFFFFF" d="M54.1,7.9c0,0-0.8,1.7-1.1,1.3c-0.3-0.4,0.2-1.5-0.1-1c-0.3,0.5-0.5,1.5-0.4,0.9c0.1-0.6,0-0.5-0.2-0.2
		C52,9.2,52,9.2,52,9.2l0.1,0.8c0,0,0.3,0.2,0.5-0.3c0.2-0.5,0.3,0,0.3,0s0.3-0.3,0.5,0c0.1,0.3,0.3,0.3,0.5-0.3
		c0.2-0.6,1-0.9,1.4,0.5c0.4,1.4,0.8,1,0.8,0.4c0.1-0.6,1.6,1.5,1.7,4.3c0.2,2.8-0.5,6.3-1.1,8c-0.6,1.7-0.9,2.2-0.9,2.2
		s2.6-3.9,2.7-8.4c0.1-4.5-0.7-5.8-2.2-7.2C54.7,7.8,54.1,7.9,54.1,7.9z"/>
	<radialGradient id="SVGID_1_" cx="39.1531" cy="43.3346" r="32.4969" gradientUnits="userSpaceOnUse">
		<stop  offset="0" style="stop-color:#F0E23C"/>
		<stop  offset="0.1155" style="stop-color:#F0DE3B"/>
		<stop  offset="0.2572" style="stop-color:#EED437"/>
		<stop  offset="0.4126" style="stop-color:#ECC332"/>
		<stop  offset="0.5777" style="stop-color:#E9AA2C"/>
		<stop  offset="0.7488" style="stop-color:#E68C26"/>
		<stop  offset="0.7925" style="stop-color:#E58425"/>
		<stop  offset="0.9719" style="stop-color:#F3A91D"/>
	</radialGradient>
	<path fill="url(#SVGID_1_)" d="M63.5,36.7c0,0,0.3,2.6-0.7,3.7c-1,1.1-2.4,2.6-2.9,4c-0.5,1.4-0.5,1.7,0.1,3
		c0.5,1.3,0.8,1.1,0.8,1.1s-1.3,4.3,1.5,5.5c2.7,1.2,6.3-1.5,6.3-1.5s0.7,9.9-8.5,15.8c-9.2,6-12.8,7-23.1,5.9
		c-10.3-1.1-14.7-6.7-17.4-9.7c-2.7-3-3.8-5.5-3.8-5.5L15,56.7l0.1-0.5c0,0,2-0.5,2.2-2.4c0.2-1.9-0.2-3.1-0.2-3.1s2-1.2,1.5-3.3
		c-0.5-2.1-2.3-3.4-2.3-3.4L15,42.9c0,0,2.3-7,7.3-10.7c5-3.7,11.5-5.3,20.7-5.4c9.3-0.1,13.1,4,15,5.2c1.9,1.2,4.1,3.4,4.1,3.4
		L63.5,36.7z"/>
	<path fill="#FBE400" d="M68,50.8C67.6,63.8,55.6,72.3,43.5,73c-6,0.4-12.2-0.7-17.3-4c-2.3-1.5-4.3-3.4-6.1-5.4
		c-2.1-2.3-4.1-5-4.8-8.1c-0.1-0.3-0.7-0.3-0.6,0.1c0.8,5.7,5.8,10.6,10.2,13.8c5.3,3.9,12.2,5,18.7,4.7
		c12.5-0.5,25.6-9.9,25.4-23.3C68.9,50.2,68,50.2,68,50.8z"/>
	
		<radialGradient id="SVGID_2_" cx="40.907" cy="30.1803" r="18.2315" gradientTransform="matrix(1.0017 0 0 1 -2.6941 0)" gradientUnits="userSpaceOnUse">
		<stop  offset="0" style="stop-color:#FFFFFF"/>
		<stop  offset="0.1055" style="stop-color:#FFFEF8"/>
		<stop  offset="0.2349" style="stop-color:#FDFBEC"/>
		<stop  offset="0.3769" style="stop-color:#FBF7D8"/>
		<stop  offset="0.5278" style="stop-color:#F8F2BD"/>
		<stop  offset="0.6859" style="stop-color:#F6EC9A"/>
		<stop  offset="0.8474" style="stop-color:#F3E66E"/>
		<stop  offset="0.9719" style="stop-color:#F0E23C"/>
	</radialGradient>
	<path fill="url(#SVGID_2_)" d="M59.1,41.9c0,8.5-9.3,15.4-20.8,15.4c-11.5,0-20.8-6.9-20.8-15.4c0-8.5,9.7-15.2,21.2-15.2
		C50.2,26.6,59.1,33.4,59.1,41.9z"/>
	<radialGradient id="SVGID_3_" cx="43.1648" cy="41.8295" r="7.1494" gradientUnits="userSpaceOnUse">
		<stop  offset="0.3809" style="stop-color:#FFFFFF"/>
		<stop  offset="0.4707" style="stop-color:#F5F5F4"/>
		<stop  offset="0.575" style="stop-color:#E3E1E1"/>
		<stop  offset="0.6865" style="stop-color:#C9C7C7"/>
		<stop  offset="0.8031" style="stop-color:#A9A7A8"/>
		<stop  offset="0.9224" style="stop-color:#868586"/>
		<stop  offset="1" style="stop-color:#6E6F71"/>
	</radialGradient>
	<path fill="url(#SVGID_3_)" d="M48.4,35.3c0,0-2.9-2.6-8.3,2.3c-5.3,4.9-4.3,10.1-2.5,11c1.8,0.9,8.2,0.7,10.5-2.9
		c2.2-3.6,2.5-6.3,2-8C49.4,36.1,48.4,35.3,48.4,35.3z"/>
	<radialGradient id="SVGID_4_" cx="30.669" cy="41.9998" r="6.103" gradientUnits="userSpaceOnUse">
		<stop  offset="0.3809" style="stop-color:#FFFFFF"/>
		<stop  offset="0.4707" style="stop-color:#F5F5F4"/>
		<stop  offset="0.575" style="stop-color:#E3E1E1"/>
		<stop  offset="0.6865" style="stop-color:#C9C7C7"/>
		<stop  offset="0.8031" style="stop-color:#A9A7A8"/>
		<stop  offset="0.9224" style="stop-color:#868586"/>
		<stop  offset="1" style="stop-color:#6E6F71"/>
	</radialGradient>
	<path fill="url(#SVGID_4_)" d="M33.1,35.2c0,0,3,0.9,2.6,5.4c-0.4,4.5-2.5,7.8-4.4,8.2c-2,0.4-5.3,0.5-5.6-4.5
		C25.4,39.3,28.2,33.7,33.1,35.2z"/>
	<path fill="#F69321" d="M37.8,35.1c0,0-0.6,0.9-0.5,1.8c0.2,0.9,0.8,0.6,0.8,0.6s-0.6,0.7-1.2,3c-0.6,2.3-0.7,3.2-0.7,3.2
		s2.3-6.1,6.2-8.2c3.9-2.1,8-0.2,7.6,3.8c-0.4,4-3,7.2-3,7.2s3.6-3.2,3.3-8.2c-0.3-4.9-2.7-4.8-3.6-5.1c-0.9-0.3-0.6-0.9,0.1-1.4
		c0.7-0.5,1.8-0.5,1.8-0.5l-3.1,0.1c0,0-3.3,2.8-5.1,3.2C38.7,35.1,37.8,35.1,37.8,35.1z"/>
	<path fill="#F69321" d="M34.7,34.5c0,0,1.8,0.6,1.5,4.8C35.9,43.4,35,45,35,45s0.9-4.4,0.3-7.1c-0.6-2.7-3.2-3.8-6-2.3
		c-2.8,1.6-4.5,6.4-4,8.9c0.5,2.5,2.8,4.9,5,4.5c2.2-0.4,2.2-0.4,2.2-0.4s-2.7,1.8-4.9,1.4c-2.2-0.3-2.6-1-2.6-1s1.3,0.5,1.9,0.1
		c0.6-0.3-2-0.3-3-4.6c-1.1-4.3,1-8.4,3.2-10.2c1.8-1.4,3.8-1.7,5.1-1.4C33.5,33.2,34.7,34.5,34.7,34.5z"/>
	<path fill="#F69321" d="M43.5,57.1c0,0-1.9,1.7,0.7,3.7c2.6,2,5.5-1.8,7.6-2.3c2.1-0.5,4.1-1.1,4.5-2.8c0.4-1.6-0.9-2.4-0.9-2.4
		s-1.8,1.3-3.4,1c-1.6-0.2-1.9-0.9-1.9-0.9s-1,0.6-1.6,0.6c-0.5,0-0.8-0.1-1.8,0.5c-1,0.6-2.5,1-2.5,1s4.2-0.8,5.6-0.7
		c1.4,0.1,2.4,0.5,1.7,2c-0.7,1.5-5,2-6.1,1.7C44.4,58.2,43.5,57.1,43.5,57.1z"/>
	<path fill="#F69321" d="M51.7,45.2c0,0,4.1-1.3,5.5,1c1.3,2.2,0.2,3.6-0.2,3.8c-0.5,0.2-0.9,0.3-0.9,0.3s3,0.7,3.4-1.7
		c0.3-2.4-0.8-5.2-4.6-4.9C52,44.1,51.7,45.2,51.7,45.2z"/>
	<path fill="#F69321" d="M59.1,44.7c0,0-0.9,0.9-0.6,2.8c0.2,2,0.9,2.5,0.9,2.5s-0.9,3,0.4,5.7c1.3,2.8,4.7,3,6,2
		c0,0,0.5,0.9,0.3,2.1c-0.2,1.1-0.2,1.4-0.2,1.4s2.1-3.3,2.4-6c0.3-2.7,0.3-2.7,0.3-2.7l-2.4,0.9c0,0-0.7,1.3-2.7,0.7
		c-2-0.6-3-1.8-3.1-3.2c-0.1-1.3,0.5-2.4,0.5-2.4s-1-1-1.3-2.1C59.2,45.4,59.1,44.7,59.1,44.7z"/>
	<path fill="#F69321" d="M44.3,33.1c0,0,2.6-1.8,5-0.8c2.4,1,2.1,2.1,2.1,2.1s1-0.5,1.3-1.2c0.2-0.7,0.2-0.7,0.2-0.7
		s2.9,2.5,4.3,5.7c1.4,3.2,0.9,4.9,0.9,4.9s1.3,1.2,2.5-0.9c0.5-0.9-1-2.8-1-2.8s0.4,1.8,0.1,1.9c-0.3,0.1-0.3-2.8-2.4-6.1
		c-2.1-3.4-6.7-6.4-7.2-6.7c-0.6-0.3-1.3-0.4-1.3-0.4l0.1,0.8l1.3,1.6c0,0-2.2-0.5-3.7,0.2C45.1,31.5,44.3,33.1,44.3,33.1z"/>
	<path fill="#F06724" d="M50.3,38.8c-0.3-2-1.3-3.7-3.4-4.2c-1.1-0.3-2.3-0.2-3.4,0.4c-2.1,0.8-4.3,2.8-5.5,4.7
		c-1.3,2.1-2.7,4.5-2.1,7c0.8,3.9,6,3.2,8.7,2.1C48.1,47.2,50.8,42.7,50.3,38.8z M49.4,41.5c-0.7,3.2-2.5,5.5-5.6,6.7
		c-2.7,1-7,0.9-7.1-2.9c0-2,1.3-4.4,2.5-6c1.1-1.6,2.5-2.9,4.1-3.6c1.2-0.6,2.5-0.9,3.9-0.5C49.5,35.8,49.8,39.5,49.4,41.5z"/>
	<path fill="#F06724" d="M32.1,35c0,0,0.1,0,0.1,0c0.1,0,0.1-0.3,0-0.3c-4.2,0.1-6.4,3.3-6.9,7.2c-0.5,3.1,0.5,6.7,4.1,7.3
		c4.1,0.7,6.1-3.7,6.5-7.1C36.2,38.9,35.4,35.3,32.1,35z M35,42.4c-0.5,3.3-2.6,7.1-6.5,5.9c-2.8-0.8-2.9-4.5-2.5-6.8
		c0.2-1.3,0.7-2.5,1.4-3.6c1-1.7,2.3-2.2,4.1-2.4c1.5,0.1,3,0.8,3.6,2.4C35.6,39.3,35.3,40.9,35,42.4z"/>
	<path fill="#F06724" d="M57,45.8c-1.7-1.5-6.7-1.8-6.6,1.4c0,0.1,0.1,0.1,0.2,0c0.6-1.1,1.3-1.7,2.7-1.8c1.1-0.1,2.2,0.2,3,0.8
		c0.7,0.6,1.2,1.4,1.3,2.3c0.1,1.1-0.9,1.5-1.7,1.9c-0.2,0.1-0.1,0.4,0.1,0.4c1.2,0.1,2.3-0.7,2.5-1.9C58.6,47.8,57.9,46.6,57,45.8z
		"/>
	<path fill="#F06724" d="M51.3,48.3c-0.1,0.3,0.1,0.7,0.4,0.6c0.3-0.1,0.6-0.2,1-0.4c0.2,1.7-4.6,5-5.7,5.6c-2.2,1.2-5.2,2-7.4,0.5
		c-0.7-0.5-2.4-1.1-2.4,0.3c0,0.4,0.6,0.5,0.7,0.1c0.1-0.3,2.2,0.9,2.5,1c1.1,0.3,2.3,0.2,3.4,0c1.4-0.2,2.6-0.7,3.8-1.4
		c0,0,0.1,0,0.1,0.1c0.7,0.1,1.7-0.2,2.3-0.5c0.7-0.4,1-1.1,0.6-1.7c0,0,0,0,0,0c1.4-1.2,3.1-3,2.6-4c0,0,0,0,0,0
		c0.5-0.1,0.9,0,1.4,0.3c0.1,0,0.2,0,0.2-0.1C54.9,47.2,51.7,47.4,51.3,48.3z"/>
	<path fill="#F06724" d="M54.5,53.3c-0.1-0.1-0.2,0-0.2,0.1c0.9,2-2.9,4.1-4.5,4.5c-1.7,0.5-5.2,0.9-6.1-1c-0.2-0.3-0.3-0.3-0.3,0
		c0.1,2.8,5,2.1,6.6,1.7C51.8,58.2,56.1,55.5,54.5,53.3z"/>
	<path fill="#B7606B" d="M52.4,11c-0.3-0.1-0.5,0.3-0.3,0.5c0.4,0.3,0.7,0.7,1,1.1c-3.2,1.3-4.7,5.3-5.8,8.3c-0.6,1.5-0.9,3.4,0,4.9
		c0.7,1.2,2,1.2,3.1,0.7c2.9-1.2,4-5,4.4-7.8C55.2,16.3,55.3,11.9,52.4,11z M51.7,24.1c-0.8,1-2.2,2.4-3.5,1.3
		c-1.3-1.1-0.4-3.4,0.1-4.7c0.9-2.5,2.4-6.3,5.1-7.2c0.1,0,0.1-0.1,0.2-0.1C55.1,16.7,53.7,21.6,51.7,24.1z"/>
	<path fill="#B7606B" d="M40.6,11c-0.3,0-0.2,0.4,0,0.4c0.5,0,0.8,0.5,1,1.1c-1.7-1-4.3,1.9-5.3,3.1c-1.7,2.1-3.9,7.4-1.2,9.4
		c1,0.7,2.5-0.1,3.3-0.7c1.6-1.3,2.6-3,3.4-4.9C42.5,17.8,43.8,10.9,40.6,11z M41.3,18.1c-0.6,2.2-2.4,6-5.1,6.2
		c-1.9,0.1-1.2-3.2-1-4.1c0.3-1.2,0.9-2.6,1.7-3.6c0.6-0.8,3.6-4.4,4.6-2.9c0.1,0.1,0.2,0.2,0.3,0.2C41.9,15.6,41.5,17.6,41.3,18.1z
		"/>
	<path fill="#818181" d="M75.1,61.3c0.4-0.7-0.2-1.1,0.1-1.8c0.3-0.6-0.1-0.9-0.6-1c0.2-0.2,0.3-0.4,0.5-0.7c0.1-0.1,0-0.3-0.1-0.4
		c-0.4-0.2-0.7-0.3-1-0.4c0.1-0.3,0.2-0.5,0.4-0.8c0.1-0.2,0-0.4-0.2-0.4c-0.3,0-0.6,0-0.9,0.1c0.2-0.5,0.5-0.9,0.7-1.5
		c0.1-0.2-0.2-0.4-0.4-0.4c-0.6,0.1-1.1,0.3-1.7,0.5c0.2-1.2-0.2-2.3-0.8-3.4C71,51,70.5,51,70.4,51.3c-0.2,1-0.3,2.1-0.6,3.1
		c-0.4,1.3-1.5,2.3-2.1,3.5c-0.1,0.2,0.2,0.5,0.3,0.3c0.9-1,1.7-1.8,2.3-3c0.4-0.8,0.5-1.7,0.6-2.6c0,0.1,0.1,0.1,0.1,0.2
		c0,0,0,0.1,0,0.1c0.3,0.5,0.2,1.5,0.1,2.1c-0.1,0.3-0.2,0.7-0.3,1c-0.1,0.2-0.3,0.4-0.3,0.6c0,0.1,0,0.1,0.1,0.2
		c0.7,0.3,1-0.9,1.1-1.4c0.5-0.1,0.9-0.2,1.4-0.4c-0.2,0.4-0.5,0.8-0.6,1.3c0,0.2,0.1,0.4,0.3,0.3c0.3,0,0.6-0.1,0.9-0.1
		c-0.1,0.2-0.2,0.5-0.3,0.8c0,0.2,0.1,0.3,0.3,0.3c1.3,0.1,0.6,0.5,0.3,1c-0.1,0.2,0,0.4,0.2,0.4c0.9,0.1,0.2,0.9,0.1,1.3
		c0,0.1,0,0.3,0.1,0.3c0,0.2,0,0.3,0,0.5c-0.1,0.1-0.1,0.3-0.1,0.4c1.2,2-1.7,4.6-3.5,5.3c-0.3,0.1-0.5,0.5-0.2,0.8
		c0.7,0.8-1.6,0.7-1.9,0.7c-0.2,0-0.5,0.2-0.5,0.5c-0.3,1-0.7,1.2-1.3,0.6c-0.3-0.2-0.6,0.1-0.7,0.4c0,0.5-1.1-0.5-1.3-0.6
		c-0.2-0.1-0.5,0-0.6,0.2c-0.1-0.1-0.1-0.2-0.2-0.3c-0.1-0.2-0.2-0.4-0.4-0.6c-0.1-0.1-0.4-0.2-0.5-0.1c-0.2,0.1-0.4-0.7-0.5-0.8
		c-0.1-0.2-0.4-0.2-0.6-0.1c0-0.1,0.1-0.2,0.1-0.4c0-0.4-0.7-0.4-0.7,0c0,0.5,0.2,1.1,0.6,1.1c0.2,0.6,0.4,1.4,1.1,1.1
		c0.5,0.7,1.2,1.6,1.6,0.9c0.8,0.6,1.7,1.1,2.1,0.2c1.1,0.4,2,0,2.1-1.2c1.3-0.1,3.2-0.4,2.5-1.8C73.8,66.3,76.7,63.5,75.1,61.3z"/>
	<path fill="#818181" d="M71,56.9c0,0.3-0.2,0.5-0.3,0.6c-0.2,0.2-0.4,0.2-0.4,0.5c0,0.1,0,0.1,0.1,0.1c0.3,0.1,0.6-0.1,0.7-0.3
		c0.2-0.3,0.3-0.6,0.2-0.9C71.3,56.7,71,56.7,71,56.9z"/>
	<path fill="#818181" d="M71.4,57.8c-0.3,0.2-0.6,0.5-0.7,0.9c0,0.1,0.1,0.2,0.2,0.2c0.4,0,0.5-0.5,0.8-0.8
		C71.8,57.9,71.6,57.6,71.4,57.8z"/>
	<path fill="#F06724" d="M63.8,37.1c-2-3.3-5.6-5.7-8.9-7.6c-3.4-1.9-7.9-3.6-11.8-3.1c-0.2,0-0.2,0.3,0,0.3
		c1.7,0.3,3.4,0.4,5.1,0.9c2,0.5,4,1.4,5.8,2.4c1.8,1,3.6,2.2,5.2,3.4c1.5,1.2,2.7,2.7,4,4.1C63.5,37.9,64,37.5,63.8,37.1z"/>
	<path fill="#F06724" d="M39.1,26.5C33.6,26.5,28,28,23.4,31c-3.9,2.6-8,6.7-8.5,11.6c0,0.4,0.6,0.5,0.7,0.1
		c0.4-1.1,0.7-2.2,1.2-3.3c0.5-1.2,1.4-2.3,2.2-3.3c1.6-1.9,3.6-3.6,5.7-4.9c2-1.3,4.3-2.2,6.6-2.9c2.6-0.7,5.3-0.7,7.8-1.4
		C39.3,26.8,39.3,26.5,39.1,26.5z"/>
	<path fill="#F06724" d="M68.1,51.9c-0.4,12.9-12.3,21.5-24.5,22.2c-6,0.4-12.2-0.7-17.3-4c-2.3-1.5-4.3-3.4-6.1-5.4
		c-2.1-2.3-4.1-5-4.8-8.1c-0.1-0.3-0.7-0.3-0.6,0.1c0.8,5.7,5.8,10.6,10.2,13.8c5.3,3.9,12.2,5,18.7,4.7
		c12.5-0.5,25.6-9.9,25.4-23.3C69.1,51.2,68.1,51.2,68.1,51.9z"/>
	<g>
		
			<ellipse transform="matrix(0.9991 4.352819e-002 -4.352819e-002 0.9991 1.8971 -1.8814)" fill-rule="evenodd" clip-rule="evenodd" fill="#595A5C" cx="44.2" cy="42.6" rx="3.1" ry="4.2"/>
		
			<radialGradient id="SVGID_5_" cx="53.3483" cy="36.4411" r="3.2936" gradientTransform="matrix(0.999 4.370000e-002 -4.370000e-002 0.999 -7.5867 3.9173)" gradientUnits="userSpaceOnUse">
			<stop  offset="0" style="stop-color:#A6A7AA"/>
			<stop  offset="1" style="stop-color:#6E6F71"/>
		</radialGradient>
		<path fill-rule="evenodd" clip-rule="evenodd" fill="url(#SVGID_5_)" d="M46.8,42.8c-0.1,2.1-1.4,3.7-2.9,3.7
			c-1.5-0.1-2.6-1.8-2.6-3.9c0.1-2.1,1.4-3.7,2.9-3.7C45.8,38.9,46.9,40.7,46.8,42.8z"/>
		
			<linearGradient id="SVGID_6_" gradientUnits="userSpaceOnUse" x1="51.5962" y1="35.501" x2="56.0702" y2="35.501" gradientTransform="matrix(0.999 4.370000e-002 -4.370000e-002 0.999 -7.5867 3.9173)">
			<stop  offset="0" style="stop-color:#D0D2D3"/>
			<stop  offset="1" style="stop-color:#6E6F71"/>
		</linearGradient>
		<path fill-rule="evenodd" clip-rule="evenodd" fill="url(#SVGID_6_)" d="M42.6,39.5c-0.3,1.1-0.3,2.8,1.1,4.2
			c1.2,1.1,2.2,1.1,2.8,0.7c0.2-0.5,0.3-1.1,0.4-1.7c0.1-2.1-1.1-3.8-2.6-3.9C43.7,38.8,43.1,39.1,42.6,39.5z"/>
		
			<ellipse transform="matrix(0.999 4.370216e-002 -4.370216e-002 0.999 1.8974 -1.8844)" fill-rule="evenodd" clip-rule="evenodd" fill="#010101" cx="44" cy="42.5" rx="1.8" ry="2.6"/>
		
			<ellipse transform="matrix(0.999 4.385664e-002 -4.385664e-002 0.999 1.8096 -1.9318)" fill-rule="evenodd" clip-rule="evenodd" fill="#FFFFFF" cx="44.9" cy="40.3" rx="0.7" ry="0.8"/>
		
			<ellipse transform="matrix(0.999 4.526047e-002 -4.526047e-002 0.999 2.0384 -1.8842)" fill-rule="evenodd" clip-rule="evenodd" fill="#FFFFFF" cx="42.6" cy="44.1" rx="0.3" ry="0.4"/>
	</g>
	<g>
		
			<ellipse transform="matrix(0.9991 4.347933e-002 -4.347933e-002 0.9991 1.9367 -1.3435)" fill-rule="evenodd" clip-rule="evenodd" fill="#595A5C" cx="31.9" cy="43.9" rx="2.4" ry="3.2"/>
		
			<radialGradient id="SVGID_7_" cx="41.122" cy="38.1993" r="2.5129" gradientTransform="matrix(0.999 4.370000e-002 -4.370000e-002 0.999 -7.5867 3.9173)" gradientUnits="userSpaceOnUse">
			<stop  offset="0" style="stop-color:#A6A7AA"/>
			<stop  offset="1" style="stop-color:#6E6F71"/>
		</radialGradient>
		<path fill-rule="evenodd" clip-rule="evenodd" fill="url(#SVGID_7_)" d="M33.9,44c-0.1,1.6-1.1,2.8-2.2,2.8c-1.1,0-2-1.4-1.9-3
			c0.1-1.6,1.1-2.8,2.2-2.8C33.1,41,34,42.4,33.9,44z"/>
		
			<linearGradient id="SVGID_8_" gradientUnits="userSpaceOnUse" x1="39.7854" y1="37.4819" x2="43.1997" y2="37.4819" gradientTransform="matrix(0.999 4.370000e-002 -4.370000e-002 0.999 -7.5867 3.9173)">
			<stop  offset="0" style="stop-color:#D0D2D3"/>
			<stop  offset="1" style="stop-color:#6E6F71"/>
		</linearGradient>
		<path fill-rule="evenodd" clip-rule="evenodd" fill="url(#SVGID_8_)" d="M30.7,41.5c-0.2,0.8-0.3,2.2,0.8,3.2
			c0.9,0.9,1.7,0.8,2.1,0.6c0.2-0.4,0.3-0.8,0.3-1.3c0.1-1.6-0.8-2.9-2-3C31.5,40.9,31,41.1,30.7,41.5z"/>
		
			<ellipse transform="matrix(0.9991 4.350432e-002 -4.350432e-002 0.9991 1.9322 -1.3409)" fill-rule="evenodd" clip-rule="evenodd" fill="#010101" cx="31.8" cy="43.7" rx="1.4" ry="1.9"/>
		
			<ellipse transform="matrix(0.999 4.431187e-002 -4.431187e-002 0.999 1.8957 -1.3965)" fill-rule="evenodd" clip-rule="evenodd" fill="#FFFFFF" cx="32.4" cy="42.1" rx="0.5" ry="0.6"/>
		
			<ellipse transform="matrix(0.999 4.376905e-002 -4.376905e-002 0.999 1.9972 -1.3002)" fill-rule="evenodd" clip-rule="evenodd" fill="#FFFFFF" cx="30.7" cy="45" rx="0.2" ry="0.3"/>
	</g>
	<path fill="#231F20" d="M41.7,30.2c-0.2,0.4-0.4,0.8-0.4,1.3c0,0,0,0,0,0C41.5,31,41.6,30.6,41.7,30.2
		C41.8,30.2,41.8,30.1,41.7,30.2z"/>
	<path fill="#F06724" d="M38.7,34.1c-1.1-0.5-2.2,0.4-2.8-1.2c-0.7-1.7,1.1-3.5,1.9-4.9c0.1-0.1-0.1-0.3-0.2-0.2
		c-1.2,0.9-2.2,2.4-2.3,4c-0.1-0.2-0.2-0.5-0.2-0.7c0-0.5,0-0.9,0.1-1.4c0,0-0.1-0.1-0.1,0c-0.2,0.8-0.8,2.1,0,2.9
		c0.1,0.1,0.1,0.1,0.2,0c0,0.2,0,0.3,0,0.5c0.3,1.6,2.2,1.9,3.5,1.3C38.7,34.3,38.8,34.2,38.7,34.1z"/>
	<path fill="#F06724" d="M32.4,48.2c-1.2,0.3-2.2,1.2-3.4,1.5c-1.8,0.5-3.5-0.1-4.7-1.6c-0.1-0.2-0.3,0-0.3,0.1
		c0.8,1.7,2.5,2.3,4.3,2.2c1.3-0.1,3.7-0.6,4.2-2.1C32.6,48.3,32.5,48.2,32.4,48.2z"/>
	<path fill="#F06724" d="M43.2,50.2c-2,0.4-4.9,1-6.4-0.9c-0.1-0.1-0.2,0-0.2,0.1c0.3,1,1.5,1.4,2.4,1.6c1.5,0.3,3,0.4,4.3-0.5
		C43.5,50.4,43.4,50.2,43.2,50.2z"/>
	<path fill="#010101" d="M35.5,37.6c0,0-2.1-3.3-5.1-2.4c-3,0.9-3.7,2.8-3.7,2.8s-0.2,0.2-1.2-0.3c-1-0.6-1.1-1.5-1.1-1.5
		s0.4,0.4,1.5,0.4c0.6,0,0.8-0.1,0.8-0.1s2.2-2,4.9-2C35.1,34.4,35.5,37.6,35.5,37.6z"/>
	<path fill="#010101" d="M40.7,36.7c0,0,2.5-2.2,5.9-2c3.2,0.2,3.7,4.3,3.8,4.9c0,0.5,0,0.5,0,0.5s0.3,0.7,1,0.7
		c0.7,0.1,2.1-0.9,2.1-0.9S52.6,40,52,39.7c-0.6-0.2-0.8-0.6-0.8-0.6s-0.3-4.5-3.1-5.1C45.7,33.4,42.7,34.2,40.7,36.7z"/>
	<path fill="#F69321" d="M35.5,52c0,0-2.8,0.6-2.5,3.7c0.3,3,4.6,1.3,4.6,1.3s-1.8-0.4-2.7-1.6C33.9,54.1,35.5,52,35.5,52z"/>
	<path fill="#9F1D20" d="M50.5,52.7c0,0-1.1,0.1-1.3,0.7c-0.2,0.7,0.3,0.7,0.3,0.7s2.8,0.6,4.1,1.9c1.3,1.3,4-1,3-2.9
		c-0.9-1.8-4.2-2.6-4.2-2.6s-0.2,0.1-0.4,0.2c-0.2,0.2-1.5,1.5-1.5,1.5L50.5,52.7z"/>
	<path fill="#FFFFFF" d="M45.9,35.5c0,0-4,0.9-6.1,5.6c-2.1,4.8-0.9,6.5,0.2,6.8c1.1,0.3,2.3,0.2,2.3,0.2S40,49,38.4,47.7
		c-1.7-1.3-1.1-5.6,1.7-8.9C42.7,35.7,44.5,35.4,45.9,35.5z"/>
	<path fill="#FFFFFF" d="M31.8,35.7c0,0-3.4,0.5-4.1,6c-0.7,5.6,2.1,6.4,3.2,6.1c1.1-0.3,1.1-0.3,1.1-0.3s-1.4,1.4-3.4,0.3
		c-2-1-3.1-4.7-1-9.1C29.5,34.8,31.8,35.7,31.8,35.7z"/>
	<path fill="#5E5E5C" d="M52.9,29.6c-4.3-3.1-9.1-4.1-14.3-3.1c-0.4,0.1-0.3,0.6,0.1,0.6c2.2,0.3,4.5-0.1,6.7,0.2
		c2.2,0.3,4.2,1.5,6,2.7c4,2.5,7.1,6.4,7.4,11.2c0,0.7,1.1,0.7,1.1,0C60,36.4,56.6,32.3,52.9,29.6z"/>
	<path fill="#F0E23C" d="M48,55c0,0,2.7-0.4,3.1,0.5c0.3,0.9-4,2.2-5.3,1.8c-1.4-0.4-0.9-1.2,0.4-1.6C47.4,55.2,48,55,48,55z"/>
	<path fill="#F0E23C" d="M53.6,56.1l-0.3-0.3c0,0-2.1,1.5-5.1,2.1c-3,0.6-4.7-1.2-4.7-1.2s0.4,1.7,4.1,1.6c3.7-0.1,5.7-2.4,5.7-2.4
		L53.6,56.1z"/>
	<path fill="#F06724" d="M37.5,51.4c-0.9,0-1.9,0.3-2.6,1c-1.7,1.8,0.2,5.1,2.6,4.5c0.2,0,0.2-0.4,0-0.4c-1.4-0.3-2.9-1.7-2.2-3.3
		c0.2-0.6,0.7-0.9,1.3-1.1c0.3-0.1,1.6-0.8,1.9,0c0,0.1,0.1,0.1,0.1,0C38.8,51.5,38,51.4,37.5,51.4z"/>
	<ellipse fill="#FFFFFF" cx="53.6" cy="46.3" rx="1.5" ry="0.8"/>
	<ellipse fill="#FFFFFF" cx="55.3" cy="46.1" rx="0.4" ry="0.3"/>
	<ellipse fill="#FFFFFF" cx="37.1" cy="52.8" rx="1.2" ry="0.7"/>
	<ellipse fill="#FFFFFF" cx="46.8" cy="56.4" rx="0.9" ry="0.5"/>
	<ellipse fill="#FFFFFF" cx="48.3" cy="56.2" rx="0.4" ry="0.3"/>
	<ellipse fill="#FFFFFF" cx="35.8" cy="53.2" rx="0.3" ry="0.2"/>
	<path fill="#FFFFFF" d="M52.7,48.5c0,0,0.7,1.4-3.3,4.2c-4,2.8-7,3.2-8.3,2.6c-1.4-0.6-2.4-1.3-3.1-1.3c-0.7,0-0.7,0.5-0.7,0.5
		s0-1.1,1.1-0.9c1.1,0.2,2.5,1.6,5.3,1.4c2.8-0.2,6.7-3.2,7.9-4.5C52.6,49.3,52.7,48.5,52.7,48.5z"/>
	<path fill="#FFFFFF" d="M38.5,52.1c0,0-0.1-0.8-1.5-0.3c-1.2,0.3-2,0.9-2,2.6c0,1.7,2.6,2.3,2.7,2.3c0.1-0.1-0.1-0.1-0.1-0.1
		s-1.4-0.4-2-1.4c-0.6-1-0.1-2.4,0.6-2.8C36.9,52,38.3,51.5,38.5,52.1z"/>
	<path fill="#FFFFFF" d="M51.3,48.5c0,0-0.2-0.5,1.2-0.8c1.4-0.3,2,0.2,2.2,0.5c0.2,0.3,0,0.4,0,0.4s0.5,0,0.2-0.5
		c-0.3-0.5-1.1-0.6-1.7-0.6C52.5,47.5,51,47.8,51.3,48.5z"/>
	<path fill="#FFFFFF" d="M50.6,47.2c0,0,0.7-2.2,3.4-1.9c2.7,0.3,3.8,1.9,3.8,3.2c0,1.3-1.3,1.8-1.7,1.9c-0.3,0.1-0.3,0-0.3,0
		s1.5-0.5,1.7-1.7c0.2-1.2-0.9-2.2-1.7-2.7C55.1,45.6,52.1,44.8,50.6,47.2z"/>
	<path fill="#411411" d="M52.8,50l-0.3,0.6c0,0-0.8,0.7-1.3,1.1c-0.4,0.5-0.4,1-0.4,1s-0.9-0.1-1.3,0.3c-0.4,0.3-0.3,0.7-0.1,0.9
		c0.1,0.1,0.1,0.2,0.1,0.2s-1,0.2-1.4,0.2c-0.4,0-0.5,0-0.5,0s1.2-0.6,1.4-0.9c0.2-0.3,0.4-0.6,0.7-0.7c0.3-0.1,0.7-0.4,1-0.6
		c0.2-0.2,1.4-1.3,1.8-1.9c0.3-0.5,0.6-0.9,0.7-1.2c0.1-0.3,0-0.6,0-0.6S53.5,48.8,52.8,50z"/>
	<path fill="#EB2227" d="M49.5,53.9c0,0,1.1,0.2,2.2,0.8c1.1,0.5,2.1,1.4,2.4,1.5c0.3,0.1,1.7-0.1,2.2-1.1c0.4-1,0.4-2-1-3
		c-1.4-1-3.2-1-3.7-0.5c-0.5,0.6-0.1,0.9,0.5,1.3c0.6,0.3,2,1.2,2.2,1.7c0.3,0.5-0.1,0.3-1.6-0.8c-1.4-1-2.5-0.8-2.9-0.7
		C49.4,53.3,49.3,53.7,49.5,53.9z"/>
	<path fill="#EF4137" d="M53.8,51.9c0,0,2.3,0.9,2.5,2c0.3,1.1-1,2.2-1.9,2.1c-0.5-0.1-1.9-1.1-2.6-1.4c-0.6-0.3-1.7-0.6-1.7-0.6
		s-0.2-0.1-0.1-0.2c0.1-0.1,0.4-0.1,0.9,0.1c0.5,0.1,1.5,0.5,2.2,0.9c0.7,0.4,1.4,1,1.6,1.1c0.2,0.1,0.8-0.2,1.1-0.7
		c0.3-0.5-1.7-1.8-2.2-2.2C53.1,52.5,52.7,51.7,53.8,51.9z"/>
	<path fill="#FFFFFF" d="M50.1,53.8c0,0,1.1,0.1,2.1,0.7c1,0.6,1.1,0.9,0.8,0.7c-0.3-0.1-2-1.1-2.5-1.2C50.2,53.9,50,53.8,50.1,53.8
		z"/>
	<path fill="#FFFFFF" d="M53.8,55.7c0,0,0.6,0.4,1,0.3c0.4-0.2,1.3-0.6,1.4-1.3c0.1-0.7-0.1-1.1-0.1-1.1s0.1,1-0.3,1.4
		c-0.4,0.5-1.1,0.8-1.3,0.7c-0.3-0.1-0.5-0.3-0.7-0.3C53.7,55.5,53.6,55.6,53.8,55.7z"/>
	<path fill="#010101" d="M36.4,32.4c0,0,0.6,2.1,2,2.4c1.5,0.3,3.4-0.3,5.2-1.9c1.9-1.6,3.8-2.7,5.2-2.7c1.4,0.1,1.6,0.3,1.6,0.3
		s-2.5-3.7-6.3-2.7c-3.7,1-4.6,3.3-5.9,4.2C36.9,32.9,36.4,32.4,36.4,32.4z"/>
	<path fill="#010101" d="M34.6,33.8c0,0-1.1-3.8-2.9-4.6c-1.8-0.8-4.2,1-5.4,2.5c-1.2,1.5-2.6,2.4-2.6,2.4s0.7,0.9,2,0.4
		s4.5-1.8,6.3-1.7C33.7,33,34.6,33.8,34.6,33.8z"/>
	<path fill="#231F20" d="M34.8,33.8c0.1,0,0.2-0.1,0.2-0.2c-0.3-2.7-2.2-5.6-5.3-5.2c-1.3,0.2-2.6,1.1-3.4,2.1
		c-0.9,1.2-2,3.5-3.8,2.9c-0.2-0.1-0.4,0.2-0.3,0.3c0.1,0.1,0.2,0.3,0.3,0.4c1.2,1.3,3.2,1,4.6,0.3c2.4-1.2,5.6-2.1,7.7,0.3
		c0.1,0.1,0.3,0,0.2-0.1C35.1,34.3,35,34.1,34.8,33.8z M31.4,32.3c-0.3-0.3-0.7-0.6-1.1-0.7c-0.6-0.3-1.2-0.4-1.9-0.5
		c-0.2,0-0.2,0.3,0,0.3c0.6,0.1,1.2,0.3,1.7,0.6c0.2,0.1,0.3,0.2,0.5,0.3c-0.1,0-0.2,0-0.3,0c-0.1-0.1-0.2-0.1-0.3-0.1
		c-0.4-0.2-0.9-0.1-1.4-0.1c-0.2,0-0.2,0.3,0,0.3c0.3,0,0.5,0.1,0.8,0.1c-1.7,0.5-3.3,1.6-5,1.6c1-0.5,1.9-1.7,2.4-2.3
		c0.3-0.4,0.7-0.9,1-1.2c1.1,0.1,2.3,0.3,3.3,0.9c0.4,0.2,0.7,0.5,1,0.8C31.8,32.3,31.6,32.3,31.4,32.3z M28.1,30.3
		c0.3-0.3,0.7-0.5,1.1-0.6c0.7,0.1,1.4,0.5,2,0.9c0.5,0.3,0.9,0.7,1.3,1.1c0.1,0.1,0.2,0.2,0.3,0.4C31.4,30.9,29.8,30.3,28.1,30.3z
		 M34.1,33.1c-0.1-0.2-0.3-0.4-0.4-0.6c0-0.1-0.1-0.1-0.1-0.2c-0.1-0.9-1.2-1.8-1.9-2.3c-0.3-0.2-0.6-0.4-0.9-0.6
		c0.2,0,0.3,0.1,0.5,0.1C33,30.1,33.4,31.8,34.1,33.1C34.2,33.2,34.1,33.1,34.1,33.1z"/>
	<path fill="#231F20" d="M51.3,31.6c-0.2-3.3-4.5-4.6-7.2-4.2c-1.6,0.2-2.9,0.9-4.1,2c-0.7,0.6-2.7,3.9-3.7,2.3
		c-0.1-0.1-0.3-0.1-0.3,0.1c0,0.2,0,0.3,0.1,0.5c0,0,0,0,0,0c0,3.2,3.7,3.8,6,2.6c1.4-0.8,2.5-2.1,3.8-3.1c1.3-1.1,3.7-1.6,4.7-0.2
		c0.1,0.1,0.1,0.3,0.2,0.4c0,0.1,0.1,0.1,0.1,0.1c0,0,0,0.1,0,0.1c0.1,0.3,0.6,0.3,0.5-0.1C51.4,32,51.3,31.8,51.3,31.6z M36.8,33
		c0.4,0,1-0.2,1.6-0.6c-0.1,0.3-0.1,0.6,0,0.9c0.1,0.4,0.2,0.8,0.5,1.1C38,34.2,37.3,33.8,36.8,33z M39.6,34.4
		c-0.1-0.1-0.2-0.1-0.3-0.2c-0.3-0.2-0.4-0.6-0.4-0.9c-0.1-0.4,0-0.9,0.1-1.3c0.3-0.2,0.5-0.4,0.7-0.6c-0.4,1.1-0.3,2.3,0.3,3
		C39.9,34.4,39.7,34.4,39.6,34.4z M46.2,30.4c-1.3,0.5-2.3,1.6-3.3,2.5c0.5-1.5,0.5-3.4,2.1-4.1c0.1-0.1,0-0.3-0.1-0.2
		c-2.1,0.8-2.1,3.3-2.9,5c-0.2,0.1-0.4,0.2-0.6,0.3c-0.1-0.2-0.1-0.3-0.1-0.5c0-0.2,0-0.5,0-0.7c0-0.1-0.1-0.1-0.1,0
		c0,0.4-0.2,0.9,0,1.3c-0.2,0.1-0.5,0.2-0.7,0.3c0,0,0,0,0,0c-0.9-0.9-0.5-2.7,0.1-3.8c1.2-1.2,2.6-1.9,4.5-2.1
		c1.8-0.1,3.4,0.5,4.5,1.7C48.4,29.8,47.2,30,46.2,30.4z"/>
	<path fill="#FFFFFF" d="M56.9,54.5c0,0-0.7,1.9-1,4.4c-0.3,2.4,0.3,5,0.4,6.3c0.1,1.3-0.6,2.1-1.8,1.5c-1.1-0.6,1.7-3.9,0.7-7.6
		c0,0-0.8-2.5-0.9-2.2c0,0.3-0.1,0.6-0.5,0.4c-0.3-0.3-0.3-0.9-0.3-0.9s-0.5,0.6-1.3-0.3c-0.8-0.8-0.6-1-1.1-1.2
		c-0.4-0.2-0.7-0.4-0.7-0.4s1.6,0.4,2.1,0.8c0.5,0.4,0.2-0.2,0.2-0.2l0.2,0.2c0,0,0.6,0.9,1,0.7c0.4-0.2,0.5,0,0.5,0
		s-0.1,0.4,0.6,0.2c0.8-0.2,1-0.7,1.2-1.1c0.2-0.4,0-0.8,0-0.8s0.4,0.3,0.5-0.2c0.1-0.5-0.2-1.1-0.2-1.1S57.1,53.5,56.9,54.5z"/>
	<path fill="#E58425" d="M55.5,61.6c0,0-0.1,1.6-0.5,2.4c-0.4,0.9-0.5,1.6-0.4,1.8c0.1,0.2,1,0.3,1.1-1.7
		C55.8,62.2,55.5,61.6,55.5,61.6z"/>
	<path fill="#F06724" d="M55.1,64.1c0,0,0.3,0.2,0.2,0.7c-0.1,0.5-0.6,0.7-0.5,0.1C54.9,64.3,55.1,64.1,55.1,64.1z"/>
	<path fill="#E58425" d="M54.7,56.4c0,0,0.6,1.7,0.7,2.1c0.1,0.4,0,0,0.3-1.2c0.4-1.2,0.7-2.1,0.7-2.2c0-0.1-0.3,0.7-0.8,1
		C55.2,56.5,54.7,56.4,54.7,56.4z"/>
	<path fill="#FBE400" d="M56.1,56c0,0-0.7,0.4-0.7,1.2c0,0.7,0,0.9-0.1,0.8c-0.1-0.1-0.2-0.5-0.2-0.5s0.4,1.2,0.4,1.7
		c0.1,0.4,0.1,0.4,0.1,0.4s0.2-1.8,0.3-2.6C56.1,56.2,56.1,56,56.1,56z"/>
	<path fill="#FBE400" d="M56,64.9c0,0,0,0.8-0.3,1.1c-0.3,0.3-0.4,0.3-0.4,0.3s0.5,0.1,0.7-0.4C56.3,65.3,56,64.9,56,64.9z"/>
	<path fill="#E58425" d="M52,55.3c0,0,0.7,1.1,1.1,0.9c0.3-0.2,0-0.7,0-0.7s0,0.2-0.3,0.1C52.5,55.5,51.9,55,52,55.3z"/>
	<path fill="#E58425" d="M53.8,56.3c0,0,0,0.7,0.1,0.6c0.2-0.1-0.1-0.1,0-0.3c0.1-0.1,0.2-0.3,0-0.3C53.8,56.2,53.8,56.3,53.8,56.3z
		"/>
	<path fill="#5E5E5C" d="M70.5,54.8c0,0,0,1.7-0.3,2.3c-0.3,0.6,0.3,0.4,0.5,0.2c0.2-0.2,0.2,0.2,0,0.5c-0.2,0.3,0.4-0.2,0.3,0.1
		c-0.1,0.3-0.6,1.2-0.6,1.2s0.5-0.6,0.8-0.6c0.3,0-0.1,0.7-0.2,0.8c-0.1,0.1,0.5-0.3,0.2,0.4c-0.2,0.7-1.1,1.5-1.1,1.5
		s0.6-0.2,0.8-0.3c0.2-0.2,0.2,0.2,0,0.4c-0.2,0.2,1.7-0.3,0.5,1.1c-1.2,1.4-2.8,1.4-2.8,1.4s1.4,0.1,0.9,0.3
		c-0.5,0.2-0.7,0.2-0.7,0.2s0.8,1,0.2,1C68.4,65.3,68,65,68,65s0,1-0.5,0.7c-0.5-0.3-0.8-0.6-0.8-0.6s0,0.3-0.4,0.5
		c-0.4,0.1,0.2-1.6,0.2-1.6s-0.7,1.2-1.1,1.1c-0.4,0,0.2-1.1,0.2-1.1h-0.5c0,0,1.1-1.8,2-3.5c0.9-1.7,1.2-2.7,1.2-2.7
		s1.6-1.8,1.8-2.6c0.2-0.8,0.3-1.1,0.3-1.1S70.9,54.1,70.5,54.8z"/>
	<path fill="#FFFFFF" d="M70.3,54.8c0,0,0.3-1,0.4-1.9c0.2-0.8,0.2-1,0.2-1s0.6,0.6,0.6,2c-0.1,1.4-0.9,2.4-0.9,2.4s0.5-1.5,0.5-2.3
		c0-0.7,0-0.7,0-0.7s-0.3,1-0.3,1.3c-0.1,0.2-0.2,0.2-0.2,0.2s0.1-0.3,0.1-0.5C70.6,54.1,70.3,54.8,70.3,54.8z"/>
	<path fill="#FFFFFF" d="M71.7,55.3c0,0,1.3-0.9,1.4-0.7c0.1,0.2,0,0.4-0.2,0.8c-0.2,0.5-0.6,1-0.1,0.8c0.5-0.2,1.2-0.2,1.1,0
		c-0.1,0.2-0.4,1-0.4,1s0.2,0.1,0.7,0.2c0.5,0.1,0.5,0.2,0.2,0.5c-0.4,0.3-0.9,0.7-0.4,0.8c0.4,0.1,0.9,0.1,0.9,0.4
		c-0.1,0.3-0.4,0.8-0.4,0.8s0.4,0.2,0.2,0.5c-0.1,0.4-0.3,0.6-0.3,0.6s0.6,0.7,0.5,1.3c0,0.6,0.2,1.6-1.7,3
		c-1.8,1.4-2.6,1.6-2.6,1.6s0.8,0.6,0.5,0.9c-0.2,0.3-1.9,0.8-2.2,0.8c-0.3,0-0.6-0.1-0.6-0.1s0,1.1-0.7,1.1c-0.7,0-1.2-0.5-1.2-0.5
		s0.3,0.8-0.3,0.7c-0.6-0.1-1.6-1-1.6-1s0.2,1-0.4,0.4c-0.6-0.5-0.7-1.1-0.7-1.1s-0.2,0.6-0.6,0.2c-0.4-0.5-0.5-1.2-0.5-1.2
		s-0.2,0.2-0.3,0c-0.1-0.2-0.1-0.2-0.1-0.2s0.4-0.4,0.7-0.6c0.2-0.2,0.2-0.2,0.2-0.2s0.2,0.9,0.5,1c0.3,0.2,0.4-0.6,0.4-0.6
		s0.3,1,0.5,1c0.2,0,0.2-0.4,0.2-0.4s0.8,1,1.4,1c0.6-0.1,0-1.1,0-1.1s0.6,1.3,1.1,1c0.5-0.3,0.2-0.6,0.2-0.6s1.3,0.6,2.1,0.2
		c0.8-0.4-0.1-1.2-0.1-1.2s0.8,0.1,0.6-0.2c-0.2-0.3-0.4-0.4-0.4-0.4s3.1-1.1,3.7-2.4c0.7-1.3-0.8-0.7-0.8-0.7s1.4-1.3,1.3-1.6
		c-0.1-0.3-0.7-0.1-0.7-0.1s0.8-1.3,0.9-1.8c0-0.6-0.8-0.4-0.8-0.4s0-0.3,0.2-1c0.2-0.7-0.6-0.3-0.8-0.3c-0.2,0,0.4-0.3,0.5-0.6
		c0.1-0.3-0.2-0.3-0.2-0.3s-0.1-0.6-0.2-0.6c-0.2,0-0.6,0.2-0.6,0.2s0.4-0.4,0.2-0.7c-0.2-0.2-0.6,0.1-0.6,0.1L71.7,55.3z"/>
	<g>
		<path fill="#E3E3E2" d="M15,35.5c0,0-1.2,2.5-0.3,5.3c1,2.8,2.5,3.2,3,4.1c0.5,0.8,1.2,3.4,0.4,4.6c-0.8,1.2-1.2,1-0.6,2.3
			c0.5,1.4-0.5,4-2.3,4.4c-1.8,0.5-2.4-0.5-2.4-0.5s-3.4-0.3-4-2.2c-0.6-1.9,0.1-2.5-0.4-2.9c-0.5-0.4-1.5-0.4-0.8-2.5
			c0.7-2.1,0.9-2.2,0.6-2.9c-0.3-0.7-0.4-1.5,1.2-2.3c1.6-0.8,2.9-0.9,2.7-1.9c-0.2-1-2-2-1-3.9c1-1.9,3.1-2.2,3.1-2.2
			S15.2,34.6,15,35.5z"/>
		<path fill="#818181" d="M19,47.4c-0.3-2-1.8-3.3-3.2-4.5c-0.6-0.9-0.8-2.2-1-3c-0.3-1.7-0.3-3.5,0.3-5.1c0.1-0.2-0.2-0.3-0.3-0.2
			c-0.1,0.1-0.2-0.3-0.3-0.2c-1-0.5-2.5,0.5-3.2,1.4c-1.4,1.6-0.8,3.3-0.1,4.9c-0.1,2.1-3.8,1.2-4,3.6c-0.1,0.9,0.9,0.9,0,2.2
			c-0.4,0.5-0.7,1.1-0.7,1.8c-0.1,1.2,0.5,1.9,1.5,2.5c-0.8,2.1,0.4,4.4,2.6,4.8c0.3,0.2,0.7,0.3,1.1,0.3c0.2,0.5,0.7,0.9,1.2,1
			c0.9,0.3,2-0.1,2.9-0.4c0.9-0.4,1.7-1,2.1-2c0.5-1.1,0.4-2.7-0.3-3.7C18.7,50.3,19.2,48.7,19,47.4z M16.8,51.2
			c0.5,1.7,0.6,3.4-1.2,4.4c-0.6,0.4-1.4,0.6-2.1,0.6c0,0,0,0-0.1,0c0.7-0.1,1.3-0.5,1.5-1.1c0.2-0.5,0.1-1.5-0.2-2.2
			c0.4-0.2,0.8-0.4,1.2-0.9c0.4-0.6,0.4-2-0.1-2.8c0.5-0.1,0.9-0.4,1.1-1c0.5-1.2-0.6-2.6-1.5-3.3c-1.3-1-3.4-1.7-5-1.3
			c-0.3,0.1-0.2,0.5,0,0.5c0,0,0,0,0,0c1.2,0.3,2.4,0.3,3.5,0.9c0.8,0.4,2.6,1.8,2.1,2.9c-0.3,0.7-1.8,0.5-2.3,0.4
			c-1.1-0.2-2.3-0.5-3.3-1c-0.3-0.2-0.5,0.3-0.3,0.4c0.9,0.5,2.8,1.4,4.4,1.6c0,0,0.1,0,0.1,0c0.1,0,0.1,0,0.1,0
			c0.7,0.5,0.5,2,0,2.5c-0.3,0.3-0.6,0.4-1.1,0.5c0,0,0,0-0.1,0c-1.3,0.1-3-0.8-3.9-1.1c-0.5-0.1-0.6,0.6-0.2,0.7
			c1.2,0.4,2.9,1.2,4.3,1.1c0.1,0.3,0.2,0.7,0.2,0.9c0,0.6-0.1,1.1-0.7,1.3c-0.5,0.2-0.9,0.1-1.4,0c0,0,0,0,0,0
			C12,55,11.9,55,11.8,55c-0.1,0-0.2-0.1-0.4-0.1c-0.1-0.1-0.2-0.2-0.4-0.2c-1.8-0.1-3-2.1-2.1-3.7C9,50.7,9,50.4,8.7,50.3
			c-0.9-0.5-1.4-1.1-1.3-2.2c0.1-0.8,0.9-1.3,1.1-2.1c0.1-0.3,0-0.8-0.2-1.1c-0.6-1.1,0.5-1.4,1.2-1.7c0.7-0.2,1.6-0.6,2-1.2
			c0,0,0,0,0,0c0.2,0.5,1,0.3,0.9-0.2c-0.3-1.3-1.2-2.4-1.2-3.8c0-1.3,1.6-3.1,2.9-2.6c-0.8,1.4-0.5,3.4-0.3,4.8
			c0.1,0.4,0.1,1.1,0.3,1.8c-0.1,0-0.1,0.1-0.1,0.2c0.1,0.4,0.3,0.7,0.5,1c0.3,0.6,0.6,1.1,1.1,1.2c0.2,0.2,0.5,0.4,0.7,0.6
			c1.4,1.3,2.3,4.1,0.2,5.2C16.2,50.5,16.4,51,16.8,51.2z"/>
		<path fill="#BABAB6" d="M13.3,52.9c0,0,0.6,1.2-0.1,1.5C12.5,54.7,12,54,11.3,54c-0.7,0-2-0.2-2.4-0.9c-0.4-0.7-0.2-1.4-0.2-1.4
			S8,53,9,54.1c1,1.2,2.6,1.3,3.7,1.5c1,0.2,1.9-0.3,1.9-1.2c0-0.9-0.6-1.5-0.6-1.5L13.3,52.9z"/>
		<path fill="#BABAB6" d="M9.7,51.1c0,0,0.5,0.1,1.7,0.6c1.2,0.5,3,0.8,3.8,0.1c0.8-0.7,0.5-2.2,0.2-2.5C15,49,14.9,49,14.9,49
			s-1.1-0.2-1.7-0.3c-0.6-0.2-1.1-0.3-1.1-0.3s2.8,0.9,2.9,1.9c0.1,1-0.7,1.9-2.6,1.2C10.5,50.7,9.9,50.5,9.7,51.1z"/>
		<path fill="#BABAB6" d="M10.2,47.1c0,0,2,1.1,4.2,1.2c2.2,0.1,2.5-1,1.4-2c-1.1-1.1-2.1-1.5-2.1-1.5s1.9,1.2,1.3,2.3
			c-0.6,1-1.8,0.7-2.7,0.2C11.3,46.6,10.1,46.9,10.2,47.1z"/>
		<path fill="#BABAB6" d="M8.4,43.9c0,0-0.3,0.1,0.1,0.7c0.3,0.5,0.6,1.1,0.5,1.4c-0.2,0.3-0.5,0.5-0.5,0.5s0.1-0.7-0.2-1.1
			C8,44.9,7.7,44.3,8.4,43.9z"/>
		<path fill="#BABAB6" d="M7.5,47.9c0,0-0.2,0.7,0.5,1.2c0.8,0.5,1.1,0.9,1,1.2c-0.1,0.3-0.1,0.5-0.1,0.5S8.8,50.3,8.2,50
			C7.5,49.6,7,48.8,7.5,47.9z"/>
		<path fill="#BABAB6" d="M16.8,50.5c0,0,0.7,1.1,0.5,2.9c-0.2,1.9-2,2.5-2.7,2.7c-0.7,0.2-1.1,0-1.1,0s1.3-0.2,1.5-1.1
			c0.2-1-0.2-2.2-0.2-2.2s1.1-0.7,1.3-1.6c0.2-0.9-0.4-2.3-0.4-2.3s1.1,0,1.2-1.1c0.2-1.1-0.4-1.9-0.4-1.9s1,1,1.2,2
			C17.9,49.6,16.8,50.5,16.8,50.5z"/>
		<path fill="#BABAB6" d="M14.3,35.4c0,0-0.8,2.6-0.1,4.9c0.6,2.3,1.6,3.3,2.3,4.3c0.7,1,0.9,1.5,0.9,1.5s-1.5-1.6-2.3-2
			c-0.8-0.5-2.2-1.8-1.9-1.6c0.3,0.2,0.3,0.2,0.3,0.2s-1-2.2-0.8-3.2c0.2-1,0.5-1.3,0.8-2.5C13.8,35.7,13.9,35.3,14.3,35.4z"/>
		<path fill="#FFFFFF" d="M8.8,43.9c0,0-0.6,0.4,0.1,1.2c0.7,0.9,0.8-0.5,0.5-1C9.1,43.6,8.8,43.9,8.8,43.9z"/>
		<path fill="#FFFFFF" d="M8.2,47.5c0,0-0.5,0.2,0,1.2c0.6,1.1,1.1,0.6,0.8-0.4C8.8,47.4,8.2,47.5,8.2,47.5z"/>
		<path fill="#FFFFFF" d="M8.7,51.9c0,0,0.1,1.6,0.7,1.2C10.1,52.8,9.1,51.4,8.7,51.9z"/>
		<path fill="#FFFFFF" d="M8.2,46.9c0,0-0.9,1.3-0.7,1.9c0.2,0.6,1.1,1.2,1.4,1.5c0.4,0.3,0.1,0.8-0.1,1.2c-0.2,0.4-0.4,1.2,0,2.1
			c0.4,0.9,2.5,1.7,3.6,1.8c1.1,0.1,2,0.1,2.2-0.7c0.2-0.9-0.2-1.4-0.2-1.4s0.6,0.5,0.3,1.6c-0.3,1.1-1.7,0.9-3,0.6
			c-1.2-0.4-2.6-0.7-3.2-1.8c-0.6-1.1-0.2-2.1-0.1-2.6c0.1-0.5-0.5-1.2-0.9-1.5c-0.3-0.3-0.7-1,0-2.3c0.7-1.2,0.4-2.1,0.2-2.6
			c-0.2-0.5,0.2-0.9,1-1.2c0.8-0.4,1.9-0.8,1.9-0.8s-2.5,1.1-2.5,1.6c0,0.5,0.4,0.9,0.5,1.5C8.7,46.4,8.2,46.9,8.2,46.9z"/>
		<path fill="#FFFFFF" d="M14.4,35.4c0,0-1-0.8-2.3,0.4c-1.2,1.3-1,2.7-0.5,3.7c0.5,1,0.8,2.2,0.9,2.5c0,0.3-0.4,0.3-0.5,0.2
			C11.7,42,11.7,42,11.7,42s-0.4,0.3-1.2,0.7c-0.7,0.3-1.1,0.5-1.1,0.5l-0.1,0.1c0,0,1.3-0.5,1.7-0.7c0.4-0.3,0.5-0.3,0.5-0.3
			s0.5,0.3,0.8,0.3c0.3,0,0.2-0.5,0.4-0.4c0.2,0.1,0.2,0,0.2-0.1c0-0.1-0.9-1.9-1.1-2.7c-0.1-0.8,0-0.9,0.4-2.2
			c0.4-1.3,1.1-1.9,1.5-1.8c0.4,0.1,0.2,0.7,0.1,1.2c-0.1,0.4-0.7,3,0.3,4.8c1,1.8,1.3,2.2,1.3,2.2s-1.2-2-1.4-3.2
			c-0.3-1.2-0.1-3.3,0.1-4C14.4,35.6,14.4,35.4,14.4,35.4z"/>
		<path fill="#FFFFFF" d="M16.3,44.4c0,0,1.6,1.2,1.7,3.5c0.2,2.3-1.2,2.6-1.2,2.6s1.3-1.5,0.7-3.4C17,45.1,16.3,44.4,16.3,44.4z"/>
	</g>
	<g>
		<path fill="#E3E3E2" d="M63.2,32.9c0,0,1.4,2.5,0.3,5.3c-1.1,2.8-2.7,3.2-3.3,4.1c-0.6,0.8-1.3,3.4-0.4,4.6c0.9,1.2,1.3,1,0.7,2.3
			c-0.6,1.4,0.6,4,2.5,4.4c2,0.5,2.7-0.5,2.7-0.5s3.8-0.3,4.5-2.2c0.6-1.9-0.1-2.5,0.4-2.9c0.6-0.4,1.7-0.4,0.9-2.5
			c-0.8-2.1-1-2.2-0.7-2.9c0.4-0.7,0.4-1.5-1.3-2.3c-1.7-0.8-3.2-0.9-3-1.9c0.2-1,2.2-2,1.1-3.9c-1.2-1.9-3.5-2.2-3.5-2.2
			S63,31.9,63.2,32.9z"/>
		<path fill="#818181" d="M58.8,44.7c0.3-2,2-3.3,3.5-4.5c0.6-0.9,0.9-2.2,1.1-3c0.3-1.7,0.3-3.5-0.4-5.1c-0.1-0.2,0.2-0.3,0.3-0.2
			c0.1,0.1,0.3-0.3,0.3-0.2c1.2-0.5,2.8,0.5,3.6,1.4c1.5,1.6,0.8,3.3,0.1,4.9c0.2,2.1,4.2,1.2,4.5,3.6c0.1,0.9-1,0.9,0,2.2
			c0.5,0.5,0.8,1.1,0.8,1.8c0.1,1.2-0.6,1.9-1.6,2.5c0.8,2.1-0.4,4.4-2.9,4.8c-0.3,0.2-0.8,0.3-1.2,0.3c-0.2,0.5-0.8,0.9-1.4,1
			c-1.1,0.3-2.3-0.1-3.2-0.4c-1-0.4-1.9-1-2.3-2c-0.6-1.1-0.5-2.6,0.4-3.7C59.1,47.7,58.6,46,58.8,44.7z M61.2,48.5
			c-0.6,1.7-0.6,3.4,1.3,4.4c0.7,0.4,1.5,0.6,2.3,0.6c0,0,0,0,0.1,0c-0.7-0.1-1.5-0.5-1.7-1.1c-0.2-0.5-0.2-1.5,0.2-2.2
			c-0.5-0.2-0.9-0.4-1.3-0.9c-0.5-0.6-0.4-2,0.1-2.8c-0.5-0.1-1-0.4-1.2-1c-0.6-1.2,0.7-2.6,1.7-3.3c1.4-1,3.8-1.7,5.6-1.3
			c0.4,0.1,0.3,0.5,0,0.5c0,0,0,0,0,0c-1.3,0.3-2.6,0.3-3.9,0.9c-0.9,0.4-2.9,1.8-2.4,2.9c0.3,0.7,2,0.5,2.6,0.4
			c1.2-0.2,2.5-0.5,3.6-1c0.3-0.2,0.6,0.3,0.3,0.4c-0.9,0.5-3.1,1.4-4.9,1.6c-0.1,0-0.1,0-0.2,0c-0.1,0-0.1,0-0.2,0
			c-0.7,0.5-0.6,2,0,2.5c0.3,0.3,0.7,0.4,1.2,0.5c0,0,0.1,0,0.1,0c1.4,0.1,3.3-0.8,4.3-1.1c0.5-0.1,0.7,0.6,0.2,0.7
			c-1.4,0.4-3.2,1.2-4.7,1.1C64.1,50.5,64,51,64,51.2c-0.1,0.6,0.1,1.1,0.8,1.3c0.5,0.2,1,0.1,1.5,0c0,0,0,0,0,0
			c0.1-0.1,0.3-0.1,0.4-0.1c0.1,0,0.3-0.1,0.4-0.1c0.1-0.1,0.2-0.2,0.5-0.2c2-0.1,3.3-2.1,2.3-3.7c-0.1-0.2-0.1-0.5,0.2-0.6
			c1-0.5,1.6-1.1,1.4-2.2c-0.1-0.8-1-1.4-1.3-2.1c-0.1-0.3,0-0.8,0.2-1.1c0.7-1.1-0.5-1.4-1.3-1.7c-0.8-0.2-1.8-0.6-2.2-1.2
			c0,0,0,0,0,0c-0.2,0.5-1.1,0.3-1-0.2c0.3-1.3,1.3-2.4,1.3-3.8c0-1.3-1.8-3.1-3.2-2.6c0.8,1.4,0.6,3.4,0.3,4.8
			c-0.1,0.4-0.2,1.1-0.3,1.8c0.1,0,0.1,0.1,0.1,0.2c-0.1,0.4-0.3,0.7-0.5,1c-0.3,0.6-0.7,1.1-1.2,1.2c-0.3,0.2-0.5,0.4-0.8,0.6
			c-1.5,1.3-2.6,4.1-0.2,5.2C61.9,47.8,61.7,48.4,61.2,48.5z"/>
		<path fill="#BABAB6" d="M65.1,50.3c0,0-0.6,1.2,0.1,1.5c0.7,0.3,1.2-0.5,2-0.4c0.8,0,2.2-0.2,2.7-0.9c0.5-0.7,0.3-1.4,0.3-1.4
			s0.7,1.3-0.4,2.5c-1.1,1.2-2.9,1.3-4,1.5c-1.1,0.2-2.2-0.3-2.2-1.2c0-0.9,0.6-1.5,0.6-1.5L65.1,50.3z"/>
		<path fill="#BABAB6" d="M69,48.4c0,0-0.6,0.1-1.9,0.6c-1.3,0.5-3.3,0.8-4.2,0.1c-0.9-0.7-0.5-2.2-0.2-2.5c0.4-0.3,0.6-0.3,0.6-0.3
			s1.2-0.2,1.9-0.3c0.7-0.2,1.2-0.3,1.2-0.3s-3.1,0.9-3.2,1.9c-0.1,1,0.7,1.9,2.8,1.2C68.2,48.1,68.9,47.8,69,48.4z"/>
		<path fill="#BABAB6" d="M68.5,44.4c0,0-2.2,1.1-4.6,1.2c-2.4,0.1-2.8-1-1.6-2c1.2-1.1,2.4-1.5,2.4-1.5s-2.1,1.2-1.4,2.3
			c0.7,1,2,0.7,3,0.2C67.2,43.9,68.7,44.2,68.5,44.4z"/>
		<path fill="#BABAB6" d="M70.4,41.2c0,0,0.3,0.1-0.1,0.7c-0.4,0.5-0.7,1.1-0.5,1.4c0.2,0.3,0.5,0.5,0.5,0.5s-0.1-0.7,0.2-1.1
			C70.9,42.3,71.3,41.6,70.4,41.2z"/>
		<path fill="#BABAB6" d="M71.5,45.3c0,0,0.3,0.7-0.6,1.2c-0.8,0.5-1.2,0.9-1.1,1.2c0.1,0.3,0.1,0.5,0.1,0.5s0.1-0.5,0.8-0.8
			C71.5,46.9,72,46.2,71.5,45.3z"/>
		<path fill="#BABAB6" d="M61.2,47.8c0,0-0.8,1.1-0.6,2.9c0.2,1.9,2.2,2.5,3,2.7c0.8,0.2,1.2,0,1.2,0s-1.5-0.2-1.6-1.1
			c-0.2-1,0.2-2.2,0.2-2.2s-1.3-0.7-1.5-1.6c-0.2-0.9,0.5-2.3,0.5-2.3s-1.2,0-1.3-1.1c-0.2-1.1,0.4-1.9,0.4-1.9s-1.1,1-1.3,2
			C59.9,46.9,61.2,47.8,61.2,47.8z"/>
		<path fill="#BABAB6" d="M64,32.7c0,0,0.8,2.6,0.1,4.9C63.4,40,62.4,41,61.6,42c-0.8,1-1,1.5-1,1.5s1.7-1.6,2.5-2
			c0.9-0.5,2.5-1.8,2.1-1.6C64.9,40,64.9,40,64.9,40s1.1-2.2,0.9-3.2c-0.2-1-0.6-1.3-0.9-2.5C64.5,33,64.4,32.7,64,32.7z"/>
		<path fill="#FFFFFF" d="M70,41.2c0,0,0.6,0.4-0.1,1.2c-0.7,0.9-0.9-0.5-0.5-1C69.8,41,70,41.2,70,41.2z"/>
		<path fill="#FFFFFF" d="M70.7,44.8c0,0,0.6,0.2,0,1.2c-0.6,1.1-1.2,0.6-0.9-0.4C70,44.7,70.7,44.8,70.7,44.8z"/>
		<path fill="#FFFFFF" d="M70.1,49.2c0,0-0.1,1.6-0.8,1.2C68.7,50.1,69.7,48.8,70.1,49.2z"/>
		<path fill="#FFFFFF" d="M70.7,44.2c0,0,1,1.3,0.8,1.9c-0.2,0.6-1.2,1.2-1.6,1.5c-0.4,0.3-0.1,0.8,0.1,1.2c0.2,0.4,0.4,1.2,0,2.1
			c-0.4,0.9-2.7,1.7-3.9,1.8c-1.2,0.1-2.2,0.1-2.4-0.7c-0.2-0.9,0.2-1.4,0.2-1.4s-0.7,0.5-0.3,1.6c0.4,1.1,1.9,0.9,3.3,0.6
			c1.3-0.4,2.9-0.7,3.5-1.8c0.6-1.1,0.2-2.1,0.1-2.6c-0.1-0.5,0.6-1.2,0.9-1.5c0.4-0.3,0.8-1,0-2.3c-0.8-1.2-0.4-2.1-0.2-2.6
			c0.3-0.5-0.2-0.9-1.1-1.2c-0.8-0.4-2.2-0.8-2.2-0.8s2.8,1.1,2.8,1.6c0,0.5-0.5,0.9-0.5,1.5C70.2,43.7,70.7,44.2,70.7,44.2z"/>
		<path fill="#FFFFFF" d="M63.9,32.7c0,0,1.1-0.8,2.5,0.4c1.4,1.3,1.1,2.7,0.6,3.7c-0.5,1-0.9,2.2-1,2.5c0,0.3,0.4,0.3,0.6,0.2
			c0.2-0.1,0.2-0.1,0.2-0.1s0.5,0.3,1.3,0.7c0.8,0.3,1.2,0.5,1.2,0.5l0.1,0.1c0,0-1.4-0.5-1.9-0.7c-0.5-0.3-0.6-0.3-0.6-0.3
			S66.4,40,66,39.9c-0.3,0-0.2-0.5-0.5-0.4c-0.2,0.1-0.2,0-0.2-0.1c0-0.1,1.1-1.9,1.2-2.7c0.1-0.8,0-0.9-0.4-2.2
			c-0.4-1.3-1.2-1.9-1.7-1.8c-0.5,0.1-0.2,0.7-0.1,1.2c0.1,0.4,0.7,3-0.4,4.8c-1.1,1.8-1.5,2.2-1.5,2.2s1.3-2,1.6-3.2
			c0.3-1.2,0.1-3.3-0.1-4C63.8,32.9,63.9,32.7,63.9,32.7z"/>
		<path fill="#FFFFFF" d="M61.7,41.7c0,0-1.7,1.2-1.9,3.5c-0.2,2.3,1.3,2.6,1.3,2.6s-1.5-1.5-0.8-3.4C61,42.5,61.7,41.7,61.7,41.7z"
			/>
	</g>
	<path fill="#818181" d="M69.9,55.4c0,0,0.2,0.1-0.1,0.7c-0.3,0.6-0.5,1.1-0.5,1.1s0.4-0.4,0.3,0.1c-0.1,0.5-0.6,1.1-0.7,1.2
		c-0.1,0,1-0.5,0.6,0.3c-0.4,0.9-1.1,1.3-1.1,1.3s1.3,0,0.8,0.5c-0.5,0.4-0.8,0.5-0.8,0.5s0.7,0.7,0.2,0.8c-0.5,0.1-0.9-0.4-0.9-0.4
		s0.2,1.1-0.5,1c-0.7-0.1-0.6-0.6-0.6-0.6s-0.3,0.4-0.3,0.4S66.2,62,66.2,62s1.2-2,1.5-2.9c0.3-0.9,0.6-1.8,0.6-1.8L69.9,55.4z"/>
	<path fill="#5E3824" d="M34.3,65.9c0-0.2-0.3-0.2-0.3,0c0,0.3-0.3,0.7,0,1.1c0.1,0.1,0.2,0.1,0.3,0C34.5,66.7,34.4,66.2,34.3,65.9z
		"/>
	<path fill="#5E3824" d="M32.2,65.1c-0.1,0.2-0.2,0.4-0.2,0.6c0,0.1,0.1,0.1,0.2,0.1c0.2-0.1,0.2-0.4,0.3-0.6
		C32.6,65,32.3,64.9,32.2,65.1z"/>
	<path fill="#5E3824" d="M33.2,65.1c0,0.2-0.1,0.3-0.1,0.5c0,0.1,0.1,0.1,0.1,0.1c0.3-0.1,0.3-0.3,0.3-0.6
		C33.5,64.9,33.2,64.9,33.2,65.1z"/>
	<path fill="#5E3824" d="M32.4,67.2c0,0.2-0.2,0.3-0.2,0.5c0,0.1,0.1,0.1,0.1,0.1c0.2-0.1,0.3-0.3,0.4-0.6
		C32.7,67,32.4,67,32.4,67.2z"/>
	<path fill="#5E3824" d="M28.4,65.4c-0.1,0.2-0.3,0.3-0.2,0.5c0,0,0.1,0.1,0.1,0.1c0.2,0,0.3-0.2,0.4-0.4
		C28.8,65.4,28.5,65.2,28.4,65.4z"/>
	<path fill="#5E3824" d="M27,63.6c-0.2,0.1-0.7,0.5-0.5,0.8c0,0,0.1,0.1,0.2,0.1c0.1,0,0.2-0.1,0.2-0.2c0.1-0.2,0.2-0.3,0.3-0.4
		C27.3,63.7,27.1,63.5,27,63.6z"/>
	<path fill="#5E3824" d="M28.4,61.8C28.2,62,28,62,28,62.3c0,0.1,0.1,0.2,0.2,0.2c0.3,0,0.3-0.2,0.5-0.4
		C28.7,61.9,28.6,61.7,28.4,61.8z"/>
	<path fill="#5E3824" d="M28.9,63c-0.1,0.1-0.3,0.3-0.3,0.5c0,0.1,0.1,0.1,0.1,0.1c0.3,0,0.4-0.2,0.4-0.5C29.2,63,29,62.8,28.9,63z"
		/>
	<path fill="#5E3824" d="M26.3,65.5c-0.2,0.1-0.4,0.2-0.4,0.5c0,0.1,0.1,0.2,0.2,0.2c0.3,0,0.4-0.2,0.5-0.4
		C26.6,65.6,26.4,65.4,26.3,65.5z"/>
	<path fill="#5E3824" d="M24.4,63.4c-0.1,0.1-0.2,0.1-0.3,0.2c-0.2,0.2,0.1,0.6,0.3,0.3c0.1-0.1,0.1-0.1,0.2-0.2
		C24.8,63.6,24.7,63.3,24.4,63.4z"/>
	<path fill="#5E3824" d="M22.8,61.9c-0.1,0.1-0.2,0.1-0.3,0.1c-0.1,0-0.1,0.1-0.1,0.2c0,0,0,0.1,0,0.1c0.1,0.1,0.2,0.2,0.3,0.1
		c0.2-0.1,0.3-0.2,0.4-0.4C23.1,61.8,22.9,61.7,22.8,61.9z"/>
	<path fill="#5E3824" d="M21.7,62.1c-0.2,0.1-0.3,0.1-0.4,0.3c0,0.1,0,0.1,0.1,0.1c0.2,0,0.3-0.1,0.4-0.2C22,62.3,21.9,62,21.7,62.1
		z"/>
	<path fill="#5E3824" d="M20.7,60.1C20.7,60.1,20.7,60.1,20.7,60.1c-0.6-0.1-0.4,0.7,0,0.5c0.1-0.1,0.2-0.1,0.3-0.2
		C21.1,60.2,20.9,60.1,20.7,60.1z"/>
	<path fill="#5E3824" d="M20.3,58.5c-0.2,0-0.7,0.1-0.6,0.4c0,0.1,0.1,0.2,0.2,0.2c0.2,0,0.3-0.1,0.5-0.2
		C20.6,58.7,20.5,58.4,20.3,58.5z"/>
	<path fill="#5E3824" d="M26.5,58.1c-0.2,0.1-0.4,0.1-0.4,0.4c0,0.1,0,0.2,0.1,0.2c0.3,0,0.3-0.1,0.5-0.3
		C26.9,58.2,26.7,58,26.5,58.1z"/>
	<path fill="#5E3824" d="M26.3,59.7c-0.1,0.1-0.1,0.1-0.1,0.2c-0.1,0.3,0.4,0.4,0.4,0.1c0,0,0-0.1,0-0.1
		C26.7,59.7,26.4,59.5,26.3,59.7z"/>
	<path fill="#5E3824" d="M47.5,65.7c-0.1-0.2-0.4-0.2-0.4,0c-0.1,0.2-0.1,0.4,0.1,0.6c0,0,0.1,0,0.2,0C47.6,66.2,47.6,66,47.5,65.7z
		"/>
	<path fill="#5E3824" d="M47.9,67.9c-0.1-0.3-0.4-0.2-0.5,0.1c0,0.3,0,0.6,0.3,0.7c0,0,0.1,0,0.1,0C48.1,68.4,48,68.2,47.9,67.9z"/>
	<path fill="#5E3824" d="M44.9,67.7c0-0.3-0.4-0.3-0.4,0c0,0.4-0.1,0.8,0.2,1.2c0.1,0.1,0.2,0.1,0.2,0C45,68.5,45,68.1,44.9,67.7z"
		/>
	<path fill="#5E3824" d="M43.8,70.6c0,0.2,0,0.3,0.1,0.4c0.1,0,0.1,0,0.2,0c0.1-0.1,0.1-0.3,0.1-0.4C44.2,70.3,43.8,70.3,43.8,70.6z
		"/>
	<path fill="#5E3824" d="M41.1,68.9c0-0.3-0.4-0.3-0.4,0c0,0.2-0.1,0.4,0,0.7c0,0.1,0.1,0.1,0.2,0.1C41.1,69.5,41.1,69.2,41.1,68.9z
		"/>
	<path fill="#5E3824" d="M39,65.2c-0.1,0.2-0.1,0.4,0,0.7c0,0.1,0.1,0.1,0.2,0.1c0.2-0.2,0.2-0.4,0.2-0.6
		C39.5,65.1,39.1,64.9,39,65.2z"/>
	<path fill="#5E3824" d="M38.2,69.5c0-0.3-0.4-0.2-0.5,0c-0.1,0.2-0.3,0.8,0.1,0.8C38.2,70.3,38.2,69.8,38.2,69.5z"/>
	<path fill="#5E3824" d="M35.7,69.7c0,0.1-0.1,0.2-0.1,0.4c0,0.1,0.1,0.1,0.2,0.1c0.3,0,0.3-0.3,0.3-0.5
		C36.1,69.5,35.7,69.5,35.7,69.7z"/>
	<path fill="#5E3824" d="M33,70.1c-0.1,0.1-0.2,0.3-0.2,0.4c0,0.1,0.1,0.1,0.1,0.1c0,0,0,0,0,0c0.1,0,0.1,0,0.2-0.1
		c0-0.1,0.1-0.1,0.1-0.2C33.5,70.2,33.2,69.9,33,70.1z"/>
	<path fill="#5E3824" d="M29.3,69.3c0,0.1,0,0.2,0.1,0.3c0,0,0.1,0,0.1,0c0.1-0.1,0.1-0.1,0.1-0.3C29.6,69.1,29.3,69.1,29.3,69.3z"
		/>
	<path fill="#5E3824" d="M49.3,66.8c0,0.1,0,0.2,0.1,0.3c0,0,0.1,0,0.2,0c0.1-0.1,0.1-0.2,0.1-0.3C49.7,66.5,49.3,66.5,49.3,66.8z"
		/>
	<path fill="#5E3824" d="M50.5,68.8c-0.1-0.2-0.5-0.1-0.4,0.2c0.1,0.3,0.1,0.6,0.4,0.7c0.1,0,0.2,0,0.2-0.1
		C50.8,69.3,50.6,69,50.5,68.8z"/>
	<path fill="#5E3824" d="M52.1,69.2c-0.1-0.2-0.4,0-0.3,0.2c0.1,0.1,0.1,0.2,0.2,0.3c0.1,0,0.1,0,0.2-0.1
		C52.2,69.5,52.1,69.4,52.1,69.2z"/>
	<path fill="#5E3824" d="M58.6,63.3c-0.1-0.1-0.3,0-0.3,0.1c0,0.3,0.2,0.5,0.5,0.5c0.1,0,0.2-0.1,0.2-0.2
		C58.9,63.6,58.8,63.4,58.6,63.3z"/>
	<path fill="#5E3824" d="M59.4,64.7c0.1-0.2-0.2-0.3-0.3-0.1c-0.2,0.2,0,0.5,0.2,0.5c0.1,0,0.2,0,0.2-0.1
		C59.5,64.9,59.4,64.7,59.4,64.7z"/>
	<path fill="#5E3824" d="M57.9,65.7c-0.2-0.2-0.5,0.1-0.3,0.3c0.1,0.1,0.2,0.2,0.3,0.2c0.1,0,0.2,0,0.2-0.1
		C58.1,65.9,58,65.8,57.9,65.7z"/>
	<path fill="#5E3824" d="M52.5,63.6c-0.1-0.3-0.5,0-0.4,0.2c0.1,0.1,0.1,0.3,0.2,0.4c0.1,0.1,0.2,0.1,0.3,0
		C52.9,64.1,52.6,63.8,52.5,63.6z"/>
	<path fill="#5E3824" d="M49,62.3c0-0.2-0.4-0.2-0.4,0c0,0.2,0,0.3,0.2,0.4c0.1,0,0.2,0,0.2-0.1C49,62.5,49,62.4,49,62.3z"/>
	<path fill="#5E3824" d="M43.5,63.7c0-0.3-0.5-0.3-0.5,0c0,0.2,0,0.4,0.3,0.5c0.1,0,0.1,0,0.2-0.1C43.5,64,43.5,63.9,43.5,63.7z"/>
	<path fill="#5E3824" d="M58.4,59.9c-0.1-0.1-0.3,0.1-0.2,0.2c0.1,0.1,0.1,0.1,0.2,0.1c0.1,0,0.1,0,0.1-0.1
		C58.5,60,58.5,59.9,58.4,59.9z"/>
	<path fill="#5E3824" d="M61,61.6c-0.2-0.2-0.5,0-0.4,0.2c0.2,0.3,0.4,0.5,0.7,0.6c0.1,0,0.2-0.1,0.1-0.1C61.4,62,61.2,61.8,61,61.6
		z"/>
	<path fill="#5E3824" d="M62.5,60.9c-0.1-0.1-0.2-0.1-0.3-0.2C62,60.6,61.8,60.9,62,61c0.1,0.1,0.1,0.1,0.2,0.1c0.1,0,0.2,0,0.2-0.1
		c0,0,0,0,0,0C62.5,61,62.5,60.9,62.5,60.9z"/>
</g>
</svg>
