<?xml version="1.0" encoding="utf-8"?>
<!-- Generator: Adobe Illustrator 18.0.0, SVG Export Plug-In . SVG Version: 6.00 Build 0)  -->
<!DOCTYPE svg PUBLIC "-//W3C//DTD SVG 1.1//EN" "http://www.w3.org/Graphics/SVG/1.1/DTD/svg11.dtd">
<svg version="1.1" id="Layer_1" xmlns="http://www.w3.org/2000/svg" xmlns:xlink="http://www.w3.org/1999/xlink" x="0px" y="0px"
	 viewBox="0 0 82 82" enable-background="new 0 0 82 82" xml:space="preserve">
<g>
	<g>
		<path fill="#FBCBC2" d="M48.4,28.6c0,0,1.9-3.2,2.7-0.9c0.8,2.4-3.2,4.6-3.2,4.6s-3-3-2-4.9C46.9,25.6,48.4,28.6,48.4,28.6z"/>
		<path fill-rule="evenodd" clip-rule="evenodd" fill="#967271" d="M66.7,55.4c0,0-0.3,2.5,2.2,2.4c2.5-0.2,2.1-4.2-0.4-4.9
			c-2.4-0.7-4.8,1.9-4.8,3.8c0,1.8,1.1,3.6,1.1,3.6l1,0.9l1.1-1.6c0,0-0.3,0.2-1-1.6C65.2,56,66.7,55.4,66.7,55.4z"/>
		<g>
			<path fill-rule="evenodd" clip-rule="evenodd" fill="#D7DFE3" d="M74.4,31.3c0,0-0.2-0.8-1.4,0.1c-1.2,0.9-3.6,1.7-6.1,1.7
				c-2.6,0-6.2,0.4-8.5,2.1c-2.2,1.7-1.5,4.5-1.5,4.5l-1-1.2c0,0,0-3.8,3-5.2c3-1.5,4.9-1.1,8.6-1.5c3.7-0.4,3.7-0.1,5-1
				C73.7,29.9,75.2,29.9,74.4,31.3z"/>
			<path fill-rule="evenodd" clip-rule="evenodd" fill="#D7DFE3" d="M73.8,30.2c0,0,0.9,0.1,0,1.6c-0.9,1.6-2.8,2.4-4.2,2.9
				c-1.5,0.5-2,0.5-2,0.5s4.9,1.5,5.1,3c0.2,1.5-2.1,1.7-3.8,1.2c-1.7-0.5-2.4-0.6-2.4-0.6s2,2.8,1.9,4c-0.2,1.2-1.2,1-2.6,0.1
				c-1.4-0.9-2-1.5-2-1.5l-0.7,1.1c0,0,0.8,1.4,0.5,2.6c-0.3,1.2-1.4,0.9-2.3,0.1c-0.8-0.7-0.9-1.3-0.9-1.3l-0.6,0.1
				c0,0,0.2,1.3,0,2c-0.3,0.7-0.6,0.2-0.6,0.2V47c0,0,0.2,0.7,0.9,0.3c0.7-0.4,0.9-1.6,0.9-1.6s1.2,1.6,2.3,1.5
				c1.1-0.2,1.8-1.1,1.7-2.3c-0.1-1.1-0.5-1.7-0.5-1.7s1.9,2,3.6,1.5c1.8-0.6,2.6-2.5,1.3-3.6C67.9,40,67.9,40,67.9,40
				s4.4,0.8,5.4-0.3c1-1.1,0.4-2.5-1.3-3.3c-1.6-0.8-1.9-0.8-1.9-0.8s1.7-0.3,2.8-1.2c1.2-0.8,2.1-1.8,2.1-3.1
				C75.1,30,74.6,29.9,73.8,30.2z"/>
			<path fill-rule="evenodd" clip-rule="evenodd" fill="#D7DFE3" d="M60.1,40.5c0,0-0.7-0.6,0.7-1.3c1.4-0.7,1.1,2.3-0.5,2.9
				c-1.6,0.7-3.1-1.3-3.2-1.9c-0.1-0.6-0.2,0.1-0.2,0.5c0,0.4,1.4,2.8,1.4,2.8s1.3,1.2,3.1,0c1.8-1.3,2.3-3.6,1.6-4.6
				c-0.7-1.1-3.2-1.4-3.9,0.4C58.3,41.1,60.1,40.5,60.1,40.5z"/>
			<path fill-rule="evenodd" clip-rule="evenodd" fill="#6DA6BE" d="M58.3,43.5c2.3,1,4.8-1.2,4.7-3.4c0-1.3-1.2-2.1-2.4-1.9
				c-0.5,0.1-1,0.4-1.3,0.8c-0.2,0.2-0.3,0.5-0.3,0.8c-0.1,0.7,0.3,0.5,0.8,0.6c-0.1,0-0.1-0.2,0-0.2c0.4,0.1,0.5,0.4,0.1,0.7
				c-0.5,0.3-1-0.1-1.2-0.6c-0.6-1.6,1.3-3.1,2.9-2.7c2.1,0.4,2.5,2.6,1.7,4.3c-0.5,1-1.5,1.7-2.5,2.1c-0.8,0.3-2.1,0.3-2.6-0.4
				C58.1,43.6,58.2,43.5,58.3,43.5z"/>
			<path fill-rule="evenodd" clip-rule="evenodd" fill="#6DA6BE" d="M60.5,32.2c1.4-0.5,3-0.7,4.5-0.8c2.2-0.1,4.5,0.5,6.6-0.4
				c1-0.4,2.2-1.7,3.4-1.3c0.8,0.3,0.5,1.7,0.4,2.4c-0.5,1.8-2.6,3.1-4.5,3.6c1.6,0.5,3.6,1.5,3.2,3.1c-0.5,2.1-3.2,2.2-5.1,1.8
				c0.5,0.4,0.9,0.9,1.1,1.6c0.2,0.8,0,1.7-0.6,2.3c-1.2,1.4-3.1,0.6-4.5-0.3c0.4,0.9,0.4,1.8-0.4,2.6c-1.2,1.2-2.5,0.4-3.5-0.4
				c-0.2,0.8-0.6,1.5-1.6,1.2c-0.3-0.1-0.2-0.5,0.1-0.4c0.9,0.2,1-0.8,1.1-1.3c0-0.2,0.3-0.3,0.4-0.2c1.1,0.9,2.3,1.7,3.4,0.3
				c0.7-0.8-0.2-2-0.7-2.7c-0.2-0.3,0.2-0.5,0.5-0.3c1.2,0.9,2.8,2.2,4.4,1.4c0.9-0.4,1-1.4,0.7-2.3c-0.2-0.8-1.1-1.3-1.7-1.9
				c-0.2-0.2,0-0.6,0.3-0.5c1.5,0.5,5.4,1.1,5.6-1.2c0.2-1.5-2.9-2.3-3.9-2.6c-0.3-0.1-0.2-0.5,0.1-0.6c2.1-0.2,4.4-1.4,5.2-3.4
				c0.1-0.4,0.5-1.7-0.3-1.8c-0.7-0.1-1.5,0.7-2.1,1c-1,0.6-2.1,0.8-3.2,0.8c-1.3,0.1-2.5-0.1-3.8-0.1c-1.3,0-2.6,0.2-3.9,0.5
				C58.8,33,56,35,56.2,38c0,0.2-0.3,0.3-0.4,0C55.4,35.2,58,33.1,60.5,32.2z"/>
		</g>
		<radialGradient id="SVGID_1_" cx="40.369" cy="48.3452" r="18.4527" gradientUnits="userSpaceOnUse">
			<stop  offset="0" style="stop-color:#F0E23C"/>
			<stop  offset="0.1155" style="stop-color:#F0DE3B"/>
			<stop  offset="0.2572" style="stop-color:#EED437"/>
			<stop  offset="0.4126" style="stop-color:#ECC332"/>
			<stop  offset="0.5777" style="stop-color:#E9AA2C"/>
			<stop  offset="0.7488" style="stop-color:#E68C26"/>
			<stop  offset="0.7925" style="stop-color:#E58425"/>
			<stop  offset="0.9719" style="stop-color:#F3A91D"/>
		</radialGradient>
		<path fill="url(#SVGID_1_)" d="M27.7,35.2c0,0-2.9,3.3-4.2,8c-1.3,4.7-1.2,4.9-1.2,4.9s-0.9,0.9-0.5,2.5c0.4,1.6,0.5,1.5,0.5,2.9
			c-0.1,1.4,0,8.1,5.6,11.1c5.6,3,12.8,1.9,13.8,1.4c1-0.5,1.1-1,1.1-1s-0.8-1-0.3-1.7c0.6-0.7,0.9-1.1,0.9-1.1s0-0.8-1-1.5
			c-1-0.7-0.5-2.1,0.2-2.8c0.7-0.6,2.4-1.1,3.3-1.5c0.9-0.4,1.4-0.5,1.4-0.5s1.2,0.1,1,1.3c-0.3,1.1-1.8,1.9-1.8,1.9s-0.1,1,0.3,1.5
			c0.4,0.5,0.4,0.5,0.4,0.5l0.9-1l0.9,0.4c0,0,0.5-1.4,1.5-1.3c1,0.1,1.2,0.4,1.2,1.2c-0.1,0.8-0.7,2-0.7,2s1.5-1.3,2.2-2.2
			c0.7-0.9,0.7-0.9,0.7-0.9s0.7-0.8,0.2-1.3c-0.5-0.5-0.5-0.5-0.5-0.5s-0.5,2-3.1,0.9c-2.6-1-0.9-4.9,0.8-4.9c1.7,0,3.2,0.9,3.7,1.7
			c0.5,0.8,0.8,2.2,0.8,2.2s1.9-3.6,2.4-6.2c0.5-2.6,1.3-7.5-0.9-12.2c-2.2-4.7-4.5-7-6.8-7.8c-2.3-0.7-3.7-1-3.7-1
			s5.2,6.2,1.6,11.9c-3.5,5.7-11.5,6.6-14.8,5.8c-3.4-0.8-6.2-5.3-5.2-8.9C29.6,35.3,27.7,35.2,27.7,35.2z"/>
		<path fill-rule="evenodd" clip-rule="evenodd" fill="#F06724" d="M54.2,58.8C54.2,58.8,54.2,58.7,54.2,58.8
			c-0.3,0.2-0.5,0.6-0.7,0.8c-0.3,0.3-0.5,0.6-0.8,0.9c-0.3,0.3-0.6,0.7-0.9,1c-0.3,0.2-0.5,0.4-0.7,0.8c0,0.1,0.1,0.2,0.2,0.1
			c0.6-0.7,1.3-1.3,1.9-2C53.6,60,54.4,59.4,54.2,58.8z"/>
		<path fill-rule="evenodd" clip-rule="evenodd" fill="#967271" d="M53.1,53.9c0,0-3.2-0.9-3.8,1.9c-0.6,2.8,2.1,3.1,2.9,2.9
			c0.8-0.2,1.5-1.2,1.5-1.2s0.5,0.7,0.4,2.1c-0.2,1.5-1.7,5.2-2.5,7c-0.8,1.8,0,5.9,2,7.7c2,1.8,3.2,1.3,4.3,1
			c1-0.3,1.1-0.5,1.1-0.5s-0.3,1.1,0.5,1.1c0.8,0,1.2-0.8,1.2-0.8s0.2,0.9,1.4,0.8c1.2-0.1,1.2-1.1,1.2-1.1s0.4,0.7,0.9,0.6
			c0.6-0.1,0.8-0.7,0.8-0.7s0.8,0.4,2.2-0.2c1.5-0.6,3.2-3,3.4-4.7c0.2-1.7,0.1-2.5,0.1-2.5L68.6,68c0,0-0.2,2.1-1.6,2.9
			c-1.4,0.8-2.6,0.3-2.6,0.3s-0.7-0.4-1.1-0.3c-0.5,0.1-0.5,0.3-0.5,0.3s-0.9-0.1-1.3,0c-0.4,0.1-0.6,0.6-0.6,0.6s-1-1.1-1.6-0.7
			c-0.6,0.4-1.5,1.3-2.8,0.3c-1.4-1-1.8-1.6-1.8-3.9c0-2.2,1.1-5.9,1.3-7.3c0.2-1.4,0.1-3.7-0.7-4.8C54.5,54.3,53.1,53.9,53.1,53.9z
			"/>
		<g>
			<path fill-rule="evenodd" clip-rule="evenodd" fill="#D7DFE3" d="M7.6,31.5c0,0,0.2-0.8,1.4,0.1c1.2,0.9,3.4,1.7,5.9,1.7
				c2.5,0,6,0.4,8.1,2.1c2.1,1.7,1.5,4.5,1.5,4.5l0.9-1.2c0,0,0-3.8-2.9-5.2c-2.9-1.5-4.7-1.1-8.3-1.5c-3.6-0.4-3.6-0.1-4.8-1
				C8.2,30,6.8,30,7.6,31.5z"/>
			<path fill-rule="evenodd" clip-rule="evenodd" fill="#D7DFE3" d="M8.1,30.4c0,0-0.9,0.1,0,1.7c0.9,1.6,2.6,2.4,4.1,2.9
				c1.4,0.5,1.9,0.5,1.9,0.5s-4.7,1.5-4.9,3c-0.2,1.5,2,1.7,3.7,1.2c1.6-0.5,2.3-0.6,2.3-0.6s-2,2.8-1.8,4c0.2,1.2,1.1,1,2.5,0.1
				c1.4-0.9,2-1.5,2-1.5l0.7,1.1c0,0-0.7,1.4-0.5,2.6c0.3,1.2,1.4,0.9,2.2,0.1c0.8-0.7,0.9-1.3,0.9-1.3l0.6,0.1c0,0-0.2,1.3,0,2
				c0.3,0.7,0.6,0.2,0.6,0.2v0.7c0,0-0.2,0.7-0.9,0.3c-0.7-0.4-0.8-1.6-0.8-1.6s-1.2,1.7-2.3,1.5c-1.1-0.2-1.7-1.1-1.6-2.3
				c0.1-1.1,0.5-1.7,0.5-1.7s-1.8,2-3.5,1.5c-1.7-0.6-2.5-2.5-1.3-3.6c1.2-1.1,1.2-1.1,1.2-1.1S9.6,41,8.6,39.9
				c-1-1.1-0.3-2.5,1.2-3.3c1.6-0.8,1.8-0.8,1.8-0.8s-1.6-0.3-2.7-1.2c-1.1-0.8-2-1.8-2-3.1C6.9,30.2,7.4,30.1,8.1,30.4z"/>
			<path fill-rule="evenodd" clip-rule="evenodd" fill="#D7DFE3" d="M21.3,40.7c0,0,0.7-0.6-0.7-1.3c-1.4-0.7-1.1,2.3,0.5,2.9
				c1.6,0.7,3-1.3,3.1-1.9c0.1-0.6,0.2,0.1,0.2,0.5c0,0.4-1.3,2.8-1.3,2.8s-1.2,1.2-2.9,0c-1.7-1.3-2.2-3.6-1.5-4.6
				c0.7-1.1,3-1.4,3.8,0.4C23,41.3,21.3,40.7,21.3,40.7z"/>
			<path fill-rule="evenodd" clip-rule="evenodd" fill="#6DA6BE" d="M23,43.7c-2.2,1-4.6-1.2-4.6-3.4c0-1.3,1.1-2.1,2.4-1.9
				c0.5,0.1,0.9,0.4,1.2,0.8c0.2,0.2,0.2,0.5,0.2,0.8c0.1,0.7-0.2,0.5-0.7,0.6c0.1,0,0.1-0.2,0-0.2c-0.4,0.1-0.5,0.4-0.1,0.7
				c0.5,0.3,1-0.1,1.2-0.6c0.6-1.6-1.2-3.1-2.7-2.7c-2,0.4-2.4,2.6-1.6,4.3c0.4,1,1.4,1.7,2.4,2.1c0.8,0.3,2,0.3,2.5-0.4
				C23.2,43.8,23.1,43.7,23,43.7z"/>
			<path fill-rule="evenodd" clip-rule="evenodd" fill="#6DA6BE" d="M21,32.4c-1.4-0.5-2.9-0.7-4.4-0.8c-2.1-0.1-4.3,0.5-6.3-0.4
				c-1-0.4-2.1-1.7-3.3-1.3c-0.8,0.3-0.5,1.7-0.3,2.4c0.5,1.8,2.5,3.1,4.4,3.6C9.5,36.5,7.6,37.4,8,39c0.5,2.1,3,2.2,4.9,1.8
				c-0.5,0.4-0.9,0.9-1.1,1.6c-0.2,0.8,0,1.7,0.5,2.3c1.2,1.4,3,0.6,4.4-0.3c-0.4,0.9-0.4,1.8,0.4,2.6c1.2,1.2,2.4,0.4,3.4-0.4
				c0.2,0.8,0.6,1.5,1.5,1.2c0.3-0.1,0.1-0.5-0.1-0.4c-0.9,0.2-1-0.8-1-1.3c0-0.2-0.2-0.3-0.4-0.2c-1,0.9-2.2,1.7-3.3,0.3
				c-0.6-0.8,0.2-2,0.7-2.7c0.2-0.3-0.2-0.5-0.5-0.3c-1.2,0.9-2.7,2.2-4.2,1.4c-0.9-0.4-0.9-1.4-0.7-2.3c0.2-0.8,1.1-1.3,1.7-1.9
				c0.2-0.2,0-0.6-0.3-0.5c-1.5,0.5-5.1,1.1-5.4-1.2c-0.2-1.5,2.8-2.3,3.8-2.6c0.3-0.1,0.2-0.5-0.1-0.6c-2-0.2-4.3-1.4-5-3.4
				c-0.1-0.4-0.4-1.7,0.3-1.8c0.6-0.1,1.5,0.7,2,1c1,0.6,2,0.8,3.1,0.8c1.2,0.1,2.5-0.1,3.7-0.1c1.2,0,2.5,0.2,3.7,0.5
				c2.6,0.6,5.3,2.6,5.1,5.6c0,0.2,0.3,0.3,0.4,0C25.8,35.4,23.4,33.2,21,32.4z"/>
		</g>
		
			<radialGradient id="SVGID_2_" cx="58.6434" cy="44.0983" r="11.0088" gradientTransform="matrix(1.1701 0 0 1.0786 -28.6292 -16.4309)" gradientUnits="userSpaceOnUse">
			<stop  offset="0" style="stop-color:#FFFFFF"/>
			<stop  offset="0.1055" style="stop-color:#FFFEF8"/>
			<stop  offset="0.2349" style="stop-color:#FDFBEC"/>
			<stop  offset="0.3769" style="stop-color:#FBF7D8"/>
			<stop  offset="0.5278" style="stop-color:#F8F2BD"/>
			<stop  offset="0.6859" style="stop-color:#F6EC9A"/>
			<stop  offset="0.8474" style="stop-color:#F3E66E"/>
			<stop  offset="0.9719" style="stop-color:#F0E23C"/>
		</radialGradient>
		<path fill="url(#SVGID_2_)" d="M54.3,38.7C54.3,44.2,43.5,49,36,49c-7.5,0-10.4-3.3-10.4-8.8c0-5.5,7.6-11.4,15.1-11.4
			C48.2,28.8,54.3,33.2,54.3,38.7z"/>
		<path fill="#F0E23C" d="M39.9,29.7c0,0-1.2,2.3,1.1,2.8c2.2,0.5,4.9-0.1,4.9-0.3C45.9,32.1,39.9,29.7,39.9,29.7z"/>
		<path fill="#F0E23C" d="M39,29.3c0,0-1.5,1.2-1.3,2.5c0.2,1.3,0.8,1.4,0.8,1.4s-0.3-1.5-0.1-2.3C38.7,30.1,39,29.3,39,29.3z"/>
		<path fill="#F0E23C" d="M37.6,30.2c0,0-1.1,2.6-3.2,2.9c-2.1,0.4-2.8-1.1-2.5-1.5C32.2,31.2,37.6,30.2,37.6,30.2z"/>
		<path fill-rule="evenodd" clip-rule="evenodd" fill="#F8EB32" d="M54.4,19.1c0,0-1.1,3.8-1.1,5.6c-0.1,1.8-0.3,2.3-0.3,2.3l-0.9-1
			c0,0,0-3.9,0.6-5.6c0.6-1.7,1.5-2.2,1.5-2.2L54.4,19.1z"/>
		<path fill-rule="evenodd" clip-rule="evenodd" fill="#F6AB31" d="M55.4,16.5L54,20.7c0,0-0.1-2-0.5-1.4c-0.5,0.6-1.4,3.1-1.4,5
			c0.1,2,0.8,1.3,0.8,1.3l-0.5,5.6c0,0-0.2,0.2-0.3-1.1c-0.1-1.4-0.3-7.4,0.7-10.1c1-2.6,1.9-3.5,1.9-3.5S55.6,15.9,55.4,16.5z"/>
		<path fill-rule="evenodd" clip-rule="evenodd" fill="#F8EB32" d="M29.2,7.8c0,0,1.9-1.8,7.4-1.7c5.5,0.1,11.8,1.5,15,3.1
			c3.2,1.6,5,3.4,5,4.6c0,1.2-1.1,1.6-1.1,1.6s0.9-1.1-0.9-2.6c-1.7-1.5-5.3-3.7-11.6-4.6c-6.3-0.9-9.2-1.1-11.5-0.5
			c-2.3,0.5-2.9,1-2.9,1S28.6,8.4,29.2,7.8z"/>
		<path fill-rule="evenodd" clip-rule="evenodd" fill="#F6AB31" d="M50.3,8.4c0,0,0.9,0.5,0.7,1.1c-0.2,0.6-1,0.6-1,0.6l2.5,1.2
			c0,0,2.2,0.3,1.1-1.2C53.5,10.1,51.9,9.1,50.3,8.4z"/>
		<path fill-rule="evenodd" clip-rule="evenodd" fill="#F6AB31" d="M38.3,6.1c0,0-0.7,0.2-0.8,0.6c-0.1,0.4,1,0.9,1,0.9l-2.8-0.1
			c0,0,1.5-0.5,1.4-1.1c0-0.6-0.3-0.5-0.3-0.5L38.3,6.1z"/>
		<path fill-rule="evenodd" clip-rule="evenodd" fill="#FFFFFF" d="M36.9,6.1c0,0-0.5,1.1-2.1,1.2c-1.6,0.1-1.9-0.9-1.9-0.9
			S34.9,5.9,36.9,6.1z"/>
		<path fill-rule="evenodd" clip-rule="evenodd" fill="#FFFFFF" d="M38.5,6.4c0,0-0.7,0.6,2.2,1.2c3,0.6,8.6,1.3,8.7,0.9
			c0.2-0.4-1.6-1-1.6-1S41.9,6.5,38.5,6.4z"/>
		<path fill-rule="evenodd" clip-rule="evenodd" fill="#D07528" d="M55.3,14.5c0,0-1.1,1.2-5.4,1.2c-4.3,0-6.7-0.7-10.6-1.6
			c-3.8-0.9-6.5-2.1-6.5-2.1s-1.4,0.8,0.8,1.8s13.7,3.9,18,3.1c4.3-0.8,4.3-2.1,4.1-2.4C55.4,14.3,55.3,14.5,55.3,14.5z"/>
		<path fill-rule="evenodd" clip-rule="evenodd" fill="#F15B2A" d="M29.2,8.7c0,0-0.4,0.7,0.9,1.6c1.3,0.9,3.1,1.6,3.1,1.6
			s-0.7,0.6,0.7,1.6c1.4,1,10,3.6,14.8,3.1c4.8-0.5,3.5-1.1,3.5-1.1l1.2-0.1c0,0-0.5,0.9,0.4,0.7c0.8-0.2,0.9-1.3,0.9-1.3
			s0.4-0.1,0.5-0.6c0.2-0.5,0.2-0.5,0.2-0.5s0.7,1.7-0.2,2.3c-0.9,0.6-4.4,0.9-7.9,0.9c-3.5-0.1-10.2-1.6-13.7-3.1
			c-3.5-1.6-4.9-3-5.2-3.8c-0.2-0.9,0.3-1.3,0.7-1.4C29.5,8.6,29.2,8.7,29.2,8.7z"/>
		<path fill-rule="evenodd" clip-rule="evenodd" fill="#F69321" d="M54.9,10.8c-2.7-2.3-6.6-3.3-10-4C41.1,6.1,37.1,5.4,33.2,6
			c-1.8,0.3-4.8,1-5.1,3.3c-0.2,1.2,1.4,2.6,2.3,3.2c1.1,0.8,2.4,1.3,3.7,1.8c1.9,0.7,3.9,1.2,5.9,1.7c3.8,0.9,7.6,1.5,11.5,1.2
			c0.6,0,1.6-0.1,2.5-0.3c-0.2,0.4-0.4,0.8-0.6,1.2c-0.6,1.3-1,2.7-1.2,4.2c-0.2,1.9-0.3,3.8-0.4,5.7c0,1.3-0.2,3.1,0.5,4.3
			c0,0.1,0.1,0.1,0.2,0c0.1,0.1,0.1,0.3,0.2,0.4c0.1,0.1,0.3,0,0.3-0.2c-0.4-1-0.1-2.5-0.1-3.6c0.1-1.8,0.3-3.6,0.7-5.3
			c0.5-2.8,0.9-5.6,2.5-8c0,0,0,0,0-0.1C57.9,14.3,56.3,11.9,54.9,10.8z M54.1,18.9c-0.5,1.6-0.7,3.3-1,4.9
			c-0.3,1.8-0.5,3.6-0.6,5.5c0,0.4-0.1,0.9-0.1,1.5c-0.3-2.4-0.1-4.9,0.1-7.3c0.2-2.2,0.6-5.2,2.2-6.8c0.1,0,0.2-0.1,0.3-0.2
			C54.6,17.3,54.3,18.1,54.1,18.9z M55.5,15.2c0,0-0.1,0.1-0.1,0.1c-0.1,1.4-4.1,1.4-5,1.4c-3.3,0.1-6.6-0.4-9.8-1.2
			c-2.9-0.7-5.9-1.4-8.5-2.7c-0.7-0.3-2.6-1.5-3.3-2.7c0,0,0,0,0-0.1c-0.3-0.6-0.1-1.1,0.4-1.5c-1.5,2.6,10.7,6,11.6,6.2
			c3.5,0.9,7.2,1.3,10.8,1.2c1.2,0,2.4-0.1,3.4-1c0.3-0.3,0.4-0.6,0.4-1C55.5,14.4,55.6,14.8,55.5,15.2z M29.6,8.4
			c1.1-0.5,3-0.6,3.6-0.6c1.5,0,3.1-0.1,4.6,0c1.6,0.1,3.2,0.4,4.8,0.6c2.8,0.4,5.6,1,8.2,2.3c1,0.5,2,1.1,2.9,1.8
			c0.3,0.2,0.6,0.4,0.8,0.6c0,0,0,0,0,0c1.7,1.8-1.5,2.3-2.6,2.4c-1.3,0.1-2.6,0-3.8,0c-2.8-0.1-5.6-0.6-8.3-1.4
			c-1.1-0.3-12-3.1-10.2-5.5C29.6,8.5,29.6,8.4,29.6,8.4z M55.7,15.3C55.7,15.2,55.7,15.2,55.7,15.3c0.7-2-2.1-3.5-3.5-4.4
			c-3-1.9-6.7-2.6-10.2-3c-1.8-0.3-3.6-0.5-5.4-0.5c-1,0-2.1,0.1-3.1,0c-0.7,0-1.4,0-2.1,0.1c-0.7,0.1-1.8,0.3-2.6,0.9
			c1-1.5,3.9-2.1,5.4-2.2c3.2-0.2,7,0.3,10.1,0.9c3,0.6,5.6,1.3,8.3,2.7C54,10.5,58.1,13.7,55.7,15.3z"/>
		<linearGradient id="SVGID_3_" gradientUnits="userSpaceOnUse" x1="42.0135" y1="62.9468" x2="51.9268" y2="62.9468">
			<stop  offset="0" style="stop-color:#F0E23C"/>
			<stop  offset="0.1155" style="stop-color:#F0DE3B"/>
			<stop  offset="0.2572" style="stop-color:#EED437"/>
			<stop  offset="0.4126" style="stop-color:#ECC332"/>
			<stop  offset="0.5777" style="stop-color:#E9AA2C"/>
			<stop  offset="0.7488" style="stop-color:#E68C26"/>
			<stop  offset="0.7925" style="stop-color:#E58425"/>
		</linearGradient>
		<path fill="url(#SVGID_3_)" d="M47.5,55.5c0,0-5.2,1.8-5.5,2.7c-0.3,1,0.3,2.1,0.7,2.7c0.4,0.5,0.5,1,0.3,1.3
			c-0.2,0.3-0.9,0.6-0.6,1.7c0.3,1.1,1.1,1.3,1.1,1.9c0.1,0.6-1.3,0.8-1.2,2c0.1,1.2,1.2,1.9,1.5,2c0.3,0.1,0.7,0,0.7,0s2.7,1,4,0.1
			c1.3-0.9,1.1-2.3,1-2.4c0-0.1-0.2-0.8-0.2-0.8s1.6-1,1.8-1.8c0.2-0.8-0.7-1.7-0.5-2.4c0.2-0.7,0.8-0.9,1-1.5
			c0.2-0.6,0.1-1.8-0.4-2c-0.6-0.3-1.6-0.3-1.6-0.3S48.3,55.8,47.5,55.5z"/>
		<radialGradient id="SVGID_4_" cx="42.5635" cy="33.7329" r="10.047" gradientUnits="userSpaceOnUse">
			<stop  offset="0" style="stop-color:#FFFFFF"/>
			<stop  offset="0.1629" style="stop-color:#F7F7F7"/>
			<stop  offset="0.4209" style="stop-color:#E0E0E2"/>
			<stop  offset="0.7401" style="stop-color:#BBBCBF"/>
			<stop  offset="0.896" style="stop-color:#A6A8AC"/>
		</radialGradient>
		<path fill="url(#SVGID_4_)" d="M45.8,34.4c0,0,1.4,1,1.4,4.1c0.1,3.1-0.8,4.4-0.8,4.4l-0.7,0.8c0,0-1.9-1.6-4-2
			c-2.1-0.4-3.5-0.2-3.9,0.2c-0.7,0.7-0.5,0.3-0.5,0.3s-1.2-2.8,0.3-5.6C39.1,33.9,43,32.2,45.8,34.4z"/>
		<radialGradient id="SVGID_5_" cx="32.9234" cy="37.7519" r="7.4556" gradientUnits="userSpaceOnUse">
			<stop  offset="0" style="stop-color:#FFFFFF"/>
			<stop  offset="0.1629" style="stop-color:#F7F7F7"/>
			<stop  offset="0.4209" style="stop-color:#E0E0E2"/>
			<stop  offset="0.7401" style="stop-color:#BBBCBF"/>
			<stop  offset="0.896" style="stop-color:#A6A8AC"/>
		</radialGradient>
		<path fill="url(#SVGID_5_)" d="M37.7,34.6c0,0-3.9-1.7-6.4,2.1c-2.6,3.8-2,6-2,6s1.2-0.9,3.5-1.1c2.4-0.1,4,1.1,4,1.1
			s-0.7-1.4,0-3.7c0.7-2.3,1.4-4.1,1.4-4.1L37.7,34.6z"/>
		<g>
			<path fill-rule="evenodd" clip-rule="evenodd" fill="#595A5C" d="M43.4,37.6c-0.7,1.6-2.2,2.6-3.4,2.1c-1.2-0.5-1.5-2.3-0.8-3.9
				c0.7-1.6,2.2-2.6,3.4-2.1C43.7,34.2,44.1,36,43.4,37.6z"/>
			
				<radialGradient id="SVGID_6_" cx="-9.3213" cy="94.0573" r="2.5825" gradientTransform="matrix(0.8709 0.3786 -0.3934 0.9155 86.3687 -45.8523)" gradientUnits="userSpaceOnUse">
				<stop  offset="0" style="stop-color:#A6A7AA"/>
				<stop  offset="1" style="stop-color:#6E6F71"/>
			</radialGradient>
			<path fill-rule="evenodd" clip-rule="evenodd" fill="url(#SVGID_6_)" d="M43.1,37.5c-0.6,1.5-2,2.4-3,1.9c-1-0.4-1.3-2-0.7-3.5
				c0.6-1.5,2-2.4,3-1.9C43.4,34.5,43.8,36,43.1,37.5z"/>
			
				<linearGradient id="SVGID_7_" gradientUnits="userSpaceOnUse" x1="-8.4503" y1="92.3924" x2="-5.1155" y2="92.3924" gradientTransform="matrix(0.9179 0.3966 -0.3966 0.9179 84.7381 -45.9192)">
				<stop  offset="0" style="stop-color:#D0D2D3"/>
				<stop  offset="1" style="stop-color:#6E6F71"/>
			</linearGradient>
			<path fill-rule="evenodd" clip-rule="evenodd" fill="url(#SVGID_7_)" d="M41.1,34.1c-0.5,0.7-1,2-0.4,3.3
				c0.5,1.2,1.2,1.3,1.7,1.3c0.3-0.3,0.5-0.7,0.7-1.1c0.6-1.5,0.3-3.1-0.7-3.5C42,33.8,41.5,33.8,41.1,34.1z"/>
			<path fill-rule="evenodd" clip-rule="evenodd" fill="#010101" d="M42.5,37.1c-0.4,1-1.3,1.6-2,1.3C39.8,38.1,39.6,37,40,36
				c0.4-1,1.3-1.6,2-1.3C42.7,35,42.9,36.1,42.5,37.1z"/>
			
				<ellipse transform="matrix(0.9171 0.3986 -0.3986 0.9171 17.5547 -14.0137)" fill-rule="evenodd" clip-rule="evenodd" fill="#FFFFFF" cx="42.5" cy="35.2" rx="0.5" ry="0.7"/>
			
				<ellipse transform="matrix(0.917 0.3989 -0.3989 0.917 18.2099 -12.7807)" fill-rule="evenodd" clip-rule="evenodd" fill="#FFFFFF" cx="39.8" cy="37.4" rx="0.2" ry="0.3"/>
		</g>
		<g>
			<path fill-rule="evenodd" clip-rule="evenodd" fill="#595A5C" d="M36.9,37.9c-0.7,1.3-2.1,2-3,1.5c-1-0.5-1.2-2-0.4-3.4
				c0.7-1.3,2.1-2,3-1.5C37.4,35,37.6,36.5,36.9,37.9z"/>
			
				<radialGradient id="SVGID_8_" cx="-25.5727" cy="110.7599" r="2.1922" gradientTransform="matrix(0.8388 0.4451 -0.4634 0.8822 107.9348 -49.3712)" gradientUnits="userSpaceOnUse">
				<stop  offset="0" style="stop-color:#A6A7AA"/>
				<stop  offset="1" style="stop-color:#6E6F71"/>
			</radialGradient>
			<path fill-rule="evenodd" clip-rule="evenodd" fill="url(#SVGID_8_)" d="M36.7,37.8C36,39,34.8,39.6,34,39.2
				c-0.8-0.4-1-1.8-0.4-3c0.6-1.2,1.8-1.9,2.7-1.4C37.2,35.2,37.3,36.5,36.7,37.8z"/>
			
				<linearGradient id="SVGID_9_" gradientUnits="userSpaceOnUse" x1="-23.9965" y1="108.794" x2="-21.1657" y2="108.794" gradientTransform="matrix(0.8843 0.4668 -0.4668 0.8843 106.4722 -49.1148)">
				<stop  offset="0" style="stop-color:#D0D2D3"/>
				<stop  offset="1" style="stop-color:#6E6F71"/>
			</linearGradient>
			<path fill-rule="evenodd" clip-rule="evenodd" fill="url(#SVGID_9_)" d="M35.2,34.7c-0.5,0.6-1,1.6-0.6,2.8
				c0.4,1,0.9,1.2,1.4,1.2c0.3-0.2,0.5-0.6,0.7-0.9c0.6-1.2,0.5-2.6-0.4-3C36,34.5,35.6,34.5,35.2,34.7z"/>
			<path fill-rule="evenodd" clip-rule="evenodd" fill="#010101" d="M36.2,37.4c-0.4,0.8-1.2,1.3-1.8,1c-0.6-0.3-0.7-1.2-0.2-2
				c0.4-0.8,1.2-1.3,1.8-1C36.5,35.6,36.6,36.5,36.2,37.4z"/>
			
				<ellipse transform="matrix(0.8832 0.4689 -0.4689 0.8832 21.0041 -12.8467)" fill-rule="evenodd" clip-rule="evenodd" fill="#FFFFFF" cx="36.3" cy="35.8" rx="0.4" ry="0.6"/>
			
				<ellipse transform="matrix(0.8825 0.4703 -0.4703 0.8825 21.5761 -11.5507)" fill-rule="evenodd" clip-rule="evenodd" fill="#FFFFFF" cx="33.9" cy="37.4" rx="0.2" ry="0.3"/>
		</g>
		<path fill-rule="evenodd" clip-rule="evenodd" fill="#F06724" d="M54.6,48.6c0-0.7-0.6-1.2-1.2-1.5c-0.5-0.3-1.4-0.5-1.7,0.2
			c0,0.1,0,0.2,0,0.2c-0.1,0.1-0.1,0.3-0.1,0.5c0,0.1,0,0.3,0.1,0.4c0,0.1,0,0.1,0,0.2c0.2,0.5-0.1,0.8-0.9,0.9
			c-0.2-0.2-0.5,0-0.4,0.2c0.7,1.7-3,1.4-3.7,1.2c-0.9-0.2-1.7-0.7-2.6-1.1c-0.9-0.4-1.9-0.5-2.9-0.6c-1.8-0.1-3.6,0.2-5.3,0.9
			c-0.9,0.4-1.8,0.9-2.7,1.2c-0.7,0.2-2.4,0.5-2.8-0.2c-0.1-0.2-0.3-0.2-0.5-0.1c-0.6,0.5-1.3,0.6-2,0.5c-0.4,0-0.9-0.2-1.2-0.3
			c-0.5-0.2-1.2-1.3-0.7-1.8c0,0.1,0.2,0.3,0.3,0.2c0.3-0.2,0.4-0.4,0.3-0.7c0-0.1-0.1-0.2-0.2-0.2c-0.6-0.1-1.1,0.4-1.1,1
			c-0.1,0.8,0.3,1.5,0.9,2c1,0.8,2.9,0.8,3.9,0c1,0.9,3,0.4,4,0c1.2-0.5,2.4-1.2,3.7-1.6c1.4-0.4,3-0.4,4.5-0.2
			c2.2,0.3,4.1,2,6.4,1.7c1-0.1,2.2-0.5,2.2-1.5c0.3,0.1,0.7,0.1,0.9-0.2c0.3-0.3,0.3-0.5,0.4-0.9c0-0.2-0.1-0.4-0.1-0.6
			c-0.1-0.3-0.4-1.2,0.6-0.9c0,0,0,0,0,0c0,0,0.1,0.1,0.1,0.1c0.2,0.2,0.2,0.4,0.3,0.7c0.1,0.3,0.2,0.6,0.4,0.9
			C54.1,49.7,54.7,49.2,54.6,48.6z M53.8,48.5c-0.1-0.2-0.2-0.5-0.3-0.7c0.3,0.2,0.5,0.5,0.5,0.9C54.1,49.1,53.9,48.6,53.8,48.5z"/>
		<path fill-rule="evenodd" clip-rule="evenodd" fill="#F06724" d="M42.2,65.4c-2.4,1.1-4.9,1.1-7.5,0.8c-2.3-0.3-4.6-0.8-6.6-1.9
			c-4.5-2.4-5.8-7.4-5.8-12.1c0.6,0.5,1.3,0.7,2,0.1c0.1-0.1,0-0.3-0.1-0.3c-0.6,0.1-1.2,0.1-1.7-0.3c-0.6-0.5-0.6-1.4-0.4-2
			c0.2-1.1,1.2-2,2.1-2.6c1.1-0.7,4.7-1.5,4.3,0.9c0,0.1,0.2,0.2,0.3,0.1c0.6-1-0.1-1.7-1-2.1c-1.4-0.5-2.9-0.1-4,0.7
			c-0.4,0.2-0.8,0.6-1.1,0.9c0.4-1,0.6-2.1,0.8-3.1c0.5-1.9,1.1-3.7,2-5.5c0.8-1.7,2-3.2,3.3-4.5c1.1-1.2,2.3-2.4,3.6-3.3
			c0.1-0.1,0.1-0.2-0.1-0.2C31,31,30,32.5,29.1,33.3c-1.4,1.3-2.7,2.7-3.7,4.4c-1,1.6-1.6,3.4-2.2,5.1c-0.3,0.9-0.5,1.9-0.8,2.8
			c-0.2,0.9-0.3,1.8-0.5,2.7c-0.4,0.7-0.7,1.6-0.5,2.4c0.1,0.4,0.2,0.7,0.5,1.1c-0.5,5,1.2,10.2,5.6,12.9c2.1,1.3,4.5,1.8,6.9,2.1
			c2.7,0.4,5.6,0.4,8.1-0.9C42.9,65.8,42.6,65.2,42.2,65.4z"/>
		<path fill-rule="evenodd" clip-rule="evenodd" fill="#F06724" d="M47.2,53.8c-0.8-1.8-3.1-2-4.7-1.3c-1.8,0.7-4.1,3-6.2,1.5
			c-0.1,0-0.1,0-0.1,0.1c0.6,1.4,3.1,0.7,4.1,0.3c1.1-0.5,2-1.3,3.2-1.5c1.4-0.3,2.6,0.1,3.6,1.1C47.1,54,47.2,53.9,47.2,53.8z"/>
		<path fill-rule="evenodd" clip-rule="evenodd" fill="#F06724" d="M56.7,46.2c-0.8-1.5-2.8-2.7-4.5-2.2c-0.1,0-0.1,0.2,0,0.2
			c1.4,0,2.7,0.6,3.7,1.7c0.5,0.5,0.8,1.2,0.8,1.9c0.1,1.1-0.7,1.6-1.4,2.3c0,0,0,0.1,0.1,0.1C57.3,49.8,57.6,47.8,56.7,46.2z"/>
		<path fill-rule="evenodd" clip-rule="evenodd" fill="#F06724" d="M51,41.1c-1.5-0.3-2.8,0.2-3.9,1.1c0.1-0.3,0.2-0.5,0.3-0.7
			c0.5-0.8,1.5-1.3,2.4-1.6c0.1,0,0.1-0.1,0-0.1c-1,0.1-1.9,0.4-2.5,1.2c-0.1,0.1-0.2,0.2-0.3,0.4c1-3.3,0.8-7.6-3.3-8.4
			c-1.5-0.3-2.9,0.2-4.2,1c-0.2-0.2-0.4-0.3-0.5-0.5c-0.2-0.4-0.3-1-0.3-1.4c-0.1-0.8-0.1-2,0.5-2.6c0,0,0-0.1,0-0.1c0,0,0,0,0,0
			c0.3,0,0.6,0,0.9-0.1c0.1,0,0.1-0.2,0-0.2c-0.3-0.2-0.7-0.1-1,0c-0.4,0.1-0.7,0.2-1.1,0.4c-0.1,0,0,0.1,0.1,0.1
			c0.3-0.1,0.6-0.1,1-0.1c-0.8,0.6-0.8,2-0.8,2.9c0,0.3,0.1,1.3,0.5,1.8c-0.2,0.1-0.7,0-0.8-0.1c-0.5-0.2-0.9-0.7-1-1.2
			c0-0.1-0.2-0.1-0.2,0c0,0.5,0.2,0.9,0.5,1.2c-1-0.3-2.5-0.1-3.3,0.3c-2.6,1.2-4.1,4.2-4.7,6.9c-0.1,0.4-0.1,0.7-0.2,1.1
			c0-0.1-0.1-0.2-0.1-0.3c-0.3-0.7-0.7-1.2-1.3-1.7c-0.1,0-0.1,0-0.1,0.1c0.6,0.5,0.9,1.2,1.1,1.9c0.2,0.5,0.1,1,0.3,1.5
			c-0.8-1.1-2.2-2-3.4-1.9c-0.1,0-0.1,0.2,0,0.2c1.1,0.1,2.2,0.8,2.8,1.6c0.3,0.5,0.5,1.1,0.9,1.6c0.3,0.9,0.9,1.7,1.9,2.3
			c2.2,1.2,5-0.5,6.3-2.3c0.8,1.7,2.2,2.9,4.1,3c1.8,0.1,2.9-1.7,3.7-3c1.3-2,3.2-4.1,5.8-3.8C51.1,41.3,51.1,41.1,51,41.1z
			 M38.6,34.6c-0.1,0.1-0.2,0.2-0.4,0.4c-0.1-0.2-0.2-0.3-0.3-0.5C38.2,34.6,38.4,34.6,38.6,34.6z M29.7,41.3c0.4-2.1,1.4-4,2.9-5.5
			c1.4-1.3,4-2.4,5.4-0.6c-0.9,1-1.3,2.3-1.5,3.7c-0.2,1-0.2,2.2,0.1,3.4c-1-1-2.8-1.4-4.1-1.2c-0.8,0.1-2.2,0.4-2.8,1.1
			C29.6,42,29.6,41.6,29.7,41.3z M31.4,46.9c-1.6-0.7-1.9-2.3-1.9-3.9c0.6-1,2.3-1.3,3.3-1.4c0.9-0.1,1.8,0.1,2.6,0.5
			c0.5,0.2,0.8,0.7,1.3,1c0.1,0.5,0.3,0.9,0.4,1.3C35.7,46.1,33.6,48,31.4,46.9z M44.4,45.3c-0.5,0.7-1,1.4-1.8,1.9
			c-1.2,0.8-2.6,0.1-3.5-0.7c-1.1-0.9-1.7-2.3-2-3.7c0,0,0,0,0,0c0.6-1.2,2.5-1,3.6-0.9c1.6,0.2,3.2,1,4.6,2c0,0,0.1,0,0.1,0
			C45.1,44.4,44.7,44.9,44.4,45.3z M46.7,41.8c-0.2,0.3-0.3,0.7-0.3,1c-0.2,0.2-0.5,0.5-0.7,0.8c0,0,0-0.1-0.1-0.1
			c-1.8-1.2-3.9-2.2-6.1-2.2c-0.7,0-2,0.1-2.5,0.8c0-0.3-0.1-0.6-0.1-0.9c-0.3-3.6,1.6-7.4,5.6-7.7C47.1,33.1,47.4,38.6,46.7,41.8
			C46.7,41.8,46.7,41.8,46.7,41.8z"/>
		<path fill-rule="evenodd" clip-rule="evenodd" fill="#F06724" d="M58,39.1c-1.7-4.9-6.4-9.4-11.8-9.5c-0.3,0-0.3,0.4-0.1,0.4
			c2.6,0.5,4.9,1.2,7,2.9c2.1,1.7,3.6,4.1,4.4,6.7c1.8,5.3,1.4,12.3-1.3,17.3c-0.2,0.3,0.3,0.6,0.4,0.3C59.7,52,59.9,44.7,58,39.1z"
			/>
		<g>
			<path fill-rule="evenodd" clip-rule="evenodd" fill="#F06724" d="M51.1,62.4c0,0,0-0.1,0-0.1c0.7-0.6,1-1.9,0.8-2.5
				c-0.1-0.5-0.8-1-1.5-0.9c-0.7,0.2-1,0.8-1.3,1.3c-0.3-0.2-0.6-0.3-1-0.2c-0.1,0-0.2,0.2-0.1,0.2c-0.3,0.1-0.6,0.3-0.9,0.4
				c0,0,0,0,0,0c-0.1-0.1-0.3-0.2-0.4-0.3c-0.1-0.1-0.2-0.3-0.2-0.5c-0.1-0.2-0.1-0.8,0.4-0.9c0.1,0,0.1-0.1,0.1-0.1
				c0.7-0.3,1.3-0.7,1.4-1.5c0.1-0.5-0.3-2.1-1.2-1.7c-1.1,0.3-2,0.8-3.1,1.1c-0.8,0.2-1.5,0.5-2,1.1c-0.5,0.6-0.6,1.2-0.5,1.9
				c0.2,0.8,1.4,1.3,1.3,2.2c0,0.1,0.1,0.1,0.1,0.2c0,0-0.1,0-0.1,0.1c-0.5,0.4-0.9,1.1-0.8,1.8c0.1,0.3,0.1,0.5,0.3,0.8
				c0.2,0.2,1,0.8,0.9,1.2c0,0.1,0,0.2,0.1,0.2c-0.5,0.3-0.9,0.7-1.2,1.1c-0.4,0.6-0.4,1.3,0,1.9c0.4,0.6,1.3,1.1,2,0.8
				c1,0.8,2.8,0.8,3.9,0.4c0.6-0.2,1.1-0.6,1.5-1.2c0.4-0.8,0.2-1.5-0.2-2.2c0,0,0,0,0,0c0.7-0.1,1.2-0.6,1.5-1.2
				c0.2-0.4,0.2-0.9,0.3-1.3C51.4,63.7,50.8,62.9,51.1,62.4z M43,60.9c-0.8-0.9-1.2-1.5-0.6-2.6c0.9-1.6,3.6-1.2,4.9-2.5
				c0.6,0,0.7,0.9,0.7,1.3c0,0.9-0.9,1.3-1.7,1.6c-0.8,0.3-2,0.7-1.9,1.6c0,0.1,0.1,0.1,0.2,0c0.2-0.6,0.8-0.9,1.4-1.1
				C46,59.3,46,59.5,46,59.7c0,0.3,0.2,0.9,0.6,1.1c-1.1,0.3-2.2,0.6-3.2,1.2C43.5,61.5,43.3,61.2,43,60.9z M49.9,62.5
				c0.2,0.1,0.4,0.1,0.6,0.1c-0.1,0.5,0.2,1,0.3,1.5c0,0.5-0.1,1-0.3,1.5c-0.2,0.6-0.8,0.8-1.2,1.1c-0.1,0-0.1,0.1,0,0.2
				c0,0-0.1,0.1-0.1,0.2c0.4,1.3,0.2,2.5-1.4,2.9c-1.2,0.3-2.3-0.1-3.4-0.4c-0.1,0-0.1,0-0.1,0c-0.7-0.1-1.2-0.3-1.5-0.8
				c-0.4-0.5-0.1-1.2,0.3-1.6c0.6-0.7,1.8-1.2,2.8-1.2c0.2,0.1,0.4,0.3,0.5,0.5c0.2,0.4-0.1,0.9-0.4,1.2c-0.5,0.5-1.1,0.6-1.7,1
				c-0.1,0.1,0,0.2,0.1,0.2c1,0,2-0.7,2.4-1.4c0.4-0.7,0-1.7-0.9-1.7c0,0,0,0,0,0c-0.6-0.1-1.3,0-1.8,0.3c0.2-0.3-0.1-0.6-0.4-0.9
				c-0.3-0.3-0.7-0.6-0.8-1c-0.2-0.7,0.3-1.3,0.8-1.7c1.2-1,3.9-0.7,4.8-2c1.5,0.6,0.6,2-0.5,2.6c-0.9,0.5-2,0.6-2.9,1.1
				c-0.2,0.1-0.1,0.3,0.1,0.3c0.2,0,0.3-0.1,0.5-0.1c-0.1,0.1-0.1,0.2-0.1,0.4c0,0,0,0.1,0.1,0.1c0.3,0,0.4-0.3,0.4-0.5
				c0.5-0.1,1-0.3,1.5-0.5c0,0,0,0,0,0c0.1,0,0.2,0.8,0.2,1c0,0.4-0.1,0.9-0.1,1.3c0,0.1,0.1,0.1,0.2,0.1c0.3-0.3,0.3-0.8,0.3-1.3
				c0.1-0.2,0.1-0.5,0.1-0.7c0.1-0.3,0.2-0.6,0.4-0.9c0,0,0-0.1,0-0.1c0.3-0.2,0.6-0.5,0.9-0.8c0.4-0.5,0.4-1.3,0-1.8
				c0.3-0.2,0.5-0.5,0.7-0.8c0.5-0.6,1.2-0.2,1.3,0.4c0.1,0.9-0.6,1.9-1.6,2.2C49.8,62.3,49.8,62.4,49.9,62.5z M48.2,63.4
				c-0.1,0.1-0.2,0.3-0.2,0.5c0,0,0,0.1,0,0.1c-0.1-0.2-0.1-0.3-0.2-0.4C47.9,63.5,48,63.5,48.2,63.4z"/>
			<path fill-rule="evenodd" clip-rule="evenodd" fill="#F06724" d="M49.7,63c-0.2,0-0.4,0-0.6,0.1c-0.1,0-0.1,0.1,0,0.1
				c0.2,0.1,0.5,0,0.6,0C49.9,63.1,49.8,62.9,49.7,63z"/>
		</g>
		<path fill-rule="evenodd" clip-rule="evenodd" fill="#7D4F4F" d="M70.7,66.9c-0.1-0.1-0.3,0-0.2,0.1c0.8,1.2-0.2,3.4-0.7,4.5
			c-0.5,0.9-1.1,1.8-2,2.4c-0.4,0.3-0.9,0.5-1.3,0.6c-0.2,0-1.2,0.3-1.3,0.2c0,0-0.1-0.1-0.1-0.1c0-0.3-0.1-0.5-0.1-0.8
			c0-0.1-0.2-0.1-0.2,0c0,0.4,0,1-0.5,1.2c-0.1,0-0.3,0-0.4,0c-0.1-0.1-0.1-0.2-0.3-0.3c0.1-0.4,0.2-0.9,0.2-1.2
			c0-0.8-0.3-1.6-0.8-2.1c0,0,0,0,0,0c0.3-0.5,0.9-0.6,1.2,0c0.3,0.5,0.4,1,0.5,1.6c0,0.1,0.1,0.1,0.1,0c0.1-0.4,0.1-0.8,0-1.2
			c0.7,0.1,1.7-0.3,2.1-0.6c1.2-0.7,1.9-2,1.7-3.4c0-0.1-0.2-0.1-0.2,0c-0.2,1-0.3,1.7-1,2.5c-0.5,0.5-2,1.5-2.7,0.8c0,0,0,0-0.1,0
			c-0.1-0.1-0.2-0.2-0.3-0.3c-0.5-0.4-1.6-0.1-1.5,0.5c-0.1,0-0.1-0.1-0.2-0.1c-0.6-0.4-1.4-0.2-1.7,0.4c-0.1-0.1-0.2-0.2-0.3-0.4
			c-0.3-0.4-1.1-0.4-1.4,0c0,0,0,0,0,0c-1.5,1.4-3.3,0.2-3.9-1.4c-0.4-1.1-0.3-2.5-0.3-3.6c0.1-1.5,0.6-2.9,0.9-4.4
			c0.3-1.3,0.4-2.8,0.3-4.1c-0.2-2-1.5-3.7-3.5-4.2c-1.7-0.4-3.9,0.8-3.9,2.7c0,1.6,1.5,3.3,3.2,3c0.7-0.1,1.4-0.7,1.7-1.4
			c1,2.2-0.8,5.1-1.6,7c-1,2.4-1.4,5.2-0.3,7.6c0.9,1.9,2.3,3.5,4.4,3.8c0.9,0.1,1.9-0.1,2.6-0.6c0.1,0.6,0.7,0.7,1.3,0.5
			c0.3-0.1,0.5-0.3,0.7-0.6c0.3,0.7,1.1,1.1,1.9,0.7c0.3-0.2,0.6-0.4,0.7-0.8c0.2,0.3,0.6,0.4,1,0.2c0.2-0.1,0.4-0.3,0.5-0.5
			c0,0,0.1,0.1,0.1,0.1c0.6,0.1,0.6,0.2,1.2,0c0.5-0.1,1-0.2,1.5-0.5c1.1-0.6,1.9-1.7,2.4-2.8C70.8,70.7,72,67.9,70.7,66.9z
			 M60.5,75c-0.1,0.3-1,1-1.1,0.2c0,0,0-0.1,0-0.1c0.5-0.4,0.9-1,1-1.7c0-0.2-0.2-0.3-0.3-0.1c-0.6,0.9-1.1,1.6-2.2,2
			c-1.1,0.4-2.4,0.1-3.3-0.5c-2.1-1.3-2.9-4.2-2.8-6.5c0.2-2.5,1.4-4.7,2.3-7c0.5-1.3,0.7-3-0.1-4.2c0.1-0.5,0-1.1-0.6-1.5
			c-0.8-0.5-2.7-0.2-2,1c0.4,0.7,1.6,0.7,1.3-0.3c0-0.1-0.1-0.1-0.2-0.1c-0.1,0-0.1,0-0.2,0c-0.2,0-0.2,0.3,0,0.3c0,0-0.1,0.2-0.3,0
			c-0.1-0.1-0.1-0.1-0.2-0.2c0.2-0.7,0.6-0.9,1.2-0.5c0.4,0.2,0.5,0.6,0.5,0.9c0,0,0,0.1,0,0.1c0,0.3-0.1,0.6-0.3,0.8
			c-0.4,0.7-1.2,0.9-1.9,0.7c-2.2-0.4-2.3-3.1-0.6-4.2c1.7-1.1,3.8,0.2,4.6,1.8c0.8,1.6,0.5,3.9,0.1,5.5c-0.6,2.8-1.5,5.5-0.6,8.3
			c0.6,2.1,3.2,3.3,4.8,1.6c0.1-0.1,0.1-0.1,0.1-0.2c0.5-0.4,0.9,0.6,1,0.9c0.1,0.4,0.2,0.9,0.2,1.4C60.9,74.1,60.7,74.6,60.5,75z
			 M63,75.1c-0.4,0.8-1.5,0.5-1.8-0.3c0.1-0.3,0.2-0.6,0.2-0.9c0-0.6,0-1.3-0.2-1.9c0,0,0,0,0,0c0.6-0.6,1.1-0.7,1.5-0.2
			c0.2,0.2,0.4,0.5,0.5,0.8c0.1,0.4,0.2,0.8,0.2,1.2C63.3,74.2,63.2,74.7,63,75.1z"/>
		<path fill-rule="evenodd" clip-rule="evenodd" fill="#7D4F4F" d="M70.5,54.6c-0.3-1.4-2-2.4-3.4-2.3c-1.5,0.1-2.7,1.4-3.2,2.7
			c-0.7,1.7-0.2,4.2,1,5.5c0.1,0.1,0.3,0,0.2-0.1c-0.7-1.8-1.3-3.2-0.7-5.2c0.3-0.9,1-1.6,1.7-2c1.1-0.7,2.2-0.2,3.1,0.5
			c1.5,1.3,0.3,4.8-1.7,3.7c-0.5-0.3-0.8-1-0.8-1.6c0-0.5,0.3-0.9,0.6-1.1c0.9-0.6,2.3,0.7,0.7,1c0.2,0,0.1-0.3,0-0.3
			c-0.1,0-0.2,0-0.3,0.1c-0.1,0-0.1,0.1-0.1,0.2c0.1,1,1.3,0.5,1.6-0.2c0.4-1.1-1.1-1.6-1.8-1.3c-0.5,0.2-0.9,0.6-1,1
			c-0.6,0.2-0.7,1.3-0.8,1.9c-0.1,1.2,0.3,2.2,1.3,2.9c0.2,0.1,0.5-0.2,0.3-0.4c-1-0.8-1.4-2.4-0.9-3.6c0.1,1.2,1.1,2.4,2.5,2.1
			C70.2,57.6,70.7,55.9,70.5,54.6z"/>
		<path fill-rule="evenodd" clip-rule="evenodd" fill="#F69321" d="M37.1,42.7c0,0,0.1-0.8,1.8-0.9c1.7-0.1,2.8,0,4.3,0.8
			c1.5,0.7,2.2,1.4,2.2,1.4s-1.1,1.6-1.7,2.5c-0.6,0.8-1.4,1.6-3.3,1c-2.3-0.6-3.1-3.9-3.1-3.9s1,2,2.2,2.7c1.2,0.7,3.7,0.8,3.3,0.1
			c-0.4-0.7-1.2-1.4-0.3-1.1c0.9,0.3,0.9,0.5,0.9,0.5s-1.5-1.7-0.9-1.9c0.6-0.2,1.3,1.2,1.3,1.2s0.7-1-1.4-1.8
			c-4.2-1.6-5.2,0-5.2-0.1C37.3,42.9,37.1,42.7,37.1,42.7z"/>
		<path fill-rule="evenodd" clip-rule="evenodd" fill="#F69321" d="M29.5,43.1c0,0,0.5-1,2.7-1.4c2.2-0.4,4.1,0.6,4.4,1.2
			c0.3,0.7,0.5,1.7,0.5,1.7s-1,1.7-3,2.5c-1.9,0.7-3.4-0.1-3.9-0.9c-0.5-0.8-0.6-1.3-0.7-1.8c-0.1-0.5-0.1-0.8-0.1-0.8
			s0.6,2.5,3.2,2.4c2.5-0.1,1.3-1.3,0.9-1.6c-0.4-0.3,0.1-0.5,1,0.1c0.8,0.6,1.2,0.7,0.8,0.1c-0.3-0.6-0.9-0.9-0.9-0.9
			s0.1-0.4,1,0.1c0.9,0.4,1.1,0.3,0.8,0c-0.2-0.4-2-1.6-4-1.5c-2,0.1-2.8,1-2.8,1L29.5,43.1z"/>
		<path fill-rule="evenodd" clip-rule="evenodd" fill="#F69321" d="M45.9,34c0,0,1.4,1.5,1.5,3.9c0.1,2.2-0.5,3.5-0.5,3.5
			s0.7-1,1.6-1.4c0.9-0.4,1.2-0.3,1.2-0.3s-1.3,0.1-1.7,0.3c-0.4,0.2-0.2,0-0.2-1.6S47.4,34.9,45.9,34z"/>
		<path fill-rule="evenodd" clip-rule="evenodd" fill="#F69321" d="M49.5,39.9c0,0-1.1,0.6-1.3,0.9c-0.2,0.3-0.2,0.3-0.2,0.3
			s0.6-0.5,1.8-0.5c1.2,0,1.4,0.5,1.2,0.5c-0.2,0.1-1.4-0.3-3,0.6c0,0-0.5,0.3-0.7,0.5c-0.3,0.2-0.4,0.3-0.4,0.3
			S47.4,40.6,49.5,39.9z"/>
		<path fill-rule="evenodd" clip-rule="evenodd" fill="#010101" d="M38.3,35.1c0,0,1.5-1.5,3.4-2c1.9-0.4,3.9,0.4,4.6,1.5
			c0.7,1,0.9,2.1,0.9,2.1s0.2,0.8,1.5,0.7c1.2-0.1,1.3-0.7,1.3-0.7s-0.4,0.2-1,0c-0.6-0.2-1.2-0.7-1.2-0.7s-0.1-2.7-3.6-3.2
			c-3.2-0.5-4.8,0.6-4.8,0.6s-0.7,0.4-1.2-0.1c-0.5-0.5-0.5-0.8-0.5-0.8s-0.3,0.8,0,1.5c0.3,0.7,0.7,0.7,0.7,0.7s-0.4,0.1-0.7,0
			c-0.4-0.2-0.5-0.4-0.5-0.4S37.4,35.3,38.3,35.1z"/>
		<path fill="#F0E23C" d="M28.5,48.1c0,0,0.5-2.9-3.4-1.5c-4,1.4-3.5,4.5-2.5,5.2c1,0.6,1.7,0.3,1.7,0.3s-1.2,0-1.6-1.1
			c-0.5-1.1,1.2-2.6,1.6-2.8c0.4-0.2,1.4,0.6,2.6-0.2c1.2-0.7,0.7-1.2,0.7-1.2S28.3,46.6,28.5,48.1z"/>
		<path fill="#F0E23C" d="M26.7,48.9c0,0,0,0.6-0.3,0.7c-0.3,0.1-0.3-0.2-0.3-0.2s-0.5,0.8,0.6,1.8c0.5,0.5,1.4,0.7,2.5,0.3
			c1.1-0.4,1.1-0.4,1.1-0.4s1.3,0.8,2.8,0.3c1.6-0.5,5.4-2.2,7-2.3c1.6-0.1,3.6,0.4,4.9,1.1c1.3,0.6,3.8,1.6,5.3,0.7
			c0.9-0.6,0.4-1.4,0.4-1.4s1.3,0.1,1.4-0.4c0.1-0.5-0.3-1.4,0-1.8c0.3-0.4,1.5-0.5,2.2,0.4c0.7,0.9,0.3,2-0.2,1.7
			c-0.4-0.3-0.5-0.6-0.5-0.6s0.1,1.1,1.1,0.7c0.9-0.4,0.4-1.8-0.5-2.5c-1-0.7-2.3-0.7-2.3,0.1c0,0.8,0.2,1.8-0.3,1.8
			C50.9,49,50,49,50,49s0.8,1,0,1.3c-0.8,0.3-2.7,0.4-5-0.5c-2.3-0.9-5.1-1.4-7.1-0.7c-2,0.7-4.3,1.8-5.7,2c-1.4,0.2-2-0.7-2-0.7
			s-1.8,1.1-3.1,0.5c-1.3-0.6-1.1-1-1.1-1s1.1,0.3,0.9-0.3C26.9,49,26.7,48.9,26.7,48.9z"/>
		<path fill="#F0E23C" d="M51.4,44.1c0,0,2.9-0.4,4.5,1.6c1.3,1.6,1.3,2.9,0.1,4l-0.8,0.5c0,0,1.1-1.1,1.1-1.8
			c0-0.7-0.9-1.7-0.9-1.7s-3.1,0-4.1-0.8c-0.9-0.8-0.5-0.8-0.5-0.8s-1.6,1.3-4.1,2c-2.5,0.6-2.7,0.6-2.6,0.5
			c0.1-0.1,8.4-5.1,8.4-5.1L51.4,44.1z"/>
		<path fill="#F0E23C" d="M36.3,54c0,0,0.6,1.2,3.1,0.2c2.5-1,3-2.2,4.7-2c1.7,0.1,2.8,1.1,3,1.4c0.2,0.4,0.2,0.4,0.2,0.4
			s-0.2-1.1-0.9-1.8c-0.7-0.7-0.7-0.7-0.7-0.7s-2.3-0.4-3.4,0.4c-1.1,0.8-3.7-1.9-5.2-0.6c-1.4,1.3-0.4,2.6,1.4,2.4
			C40.3,53.4,37.8,54.8,36.3,54z"/>
		<path fill="#FFFFFF" d="M39.3,50.6c-0.1-0.1-2.3,0-1.2,1.3c1.1,1.4,4.5,0.5,4.2-0.4C41.9,50.6,39.3,50.6,39.3,50.6z"/>
		<path fill="#FFFFFF" d="M44.9,51.1c0,0-2.2-0.4-1.6,0.3c0.6,0.7,2.2,0.5,2.1,0.2C45.3,51.2,44.9,51.1,44.9,51.1z"/>
		<path fill="#FFFFFF" d="M36.3,54c0,0,1.3,0.9,3,0c1.7-0.9,2.8-1.9,4-2.1c1.2-0.2,2.4,0.3,2.9,0.7c0.5,0.4,1,1.2,1,1.2
			s-1.3-1.5-2.7-1.6c-1.4-0.1-2.3,0.7-3.7,1.4C39.3,54.4,37.5,55.2,36.3,54z"/>
		<path fill="#FFFFFF" d="M46.3,50.8c0,0-3.5-1.7-5.4-1.6c-1.9,0.1-3.6,0.9-4.9,1.3c-1.2,0.4-1.9,0.6-1.9,0.6s4.3-2.7,7.1-2.5
			C44,48.6,46.3,50.8,46.3,50.8z"/>
		<ellipse fill="#FFFFFF" cx="52.9" cy="45" rx="1.5" ry="0.8"/>
		<ellipse fill="#FFFFFF" cx="54.8" cy="45.6" rx="0.5" ry="0.3"/>
		<ellipse fill="#FFFFFF" cx="25.9" cy="47.3" rx="1" ry="0.6"/>
		<ellipse fill="#FFFFFF" cx="26.7" cy="46.7" rx="0.3" ry="0.2"/>
		<path fill="#FFFFFF" d="M51.1,41.4c0,0-2.1,0.1-3.6,1.4c-1.5,1.3-2.7,4.1-4,4.8c-1.3,0.7-2.1,0.5-2.1,0.5s1.6-0.2,2.3-1
			c0.7-0.8,2-3.5,3.7-4.8C49.2,41,51.4,41.2,51.1,41.4z"/>
		<path fill="#FFFFFF" d="M25.3,41.9c0,0,2.2-0.1,3.3,2.2c1.1,2.3,1.6,3,2.5,3.4c0.8,0.4,0.8,0.4,0.8,0.4s-1.4,0.1-2.3-1.3
			c-0.9-1.4-0.8-2-2-3.2C26.6,42.1,25.3,41.9,25.3,41.9z"/>
		<path fill="#F0E23C" d="M22.3,52.2c0,0-0.8,6.1,3.3,10.2c3.6,3.6,9.3,4.1,13.3,3.9c0,0,1.7-0.2,2.8-0.6c1.1-0.4,1.2-0.6,1.2-0.6
			l-0.5-0.5c0,0-3.3,2.2-10.8,0.4C23.6,63.1,22.4,55.8,22.3,52.2z"/>
		<path fill="#F0E23C" d="M26.1,38c0,0-1.2,2.1-1.8,4.4c-0.6,2.3-0.9,4.3-0.9,4.3l-0.9,0.8c0,0,0.6-3.2,1.8-6.3
			c0.9-2.5,1-2.8,2.4-4.6c1.4-1.8,2.6-2.9,2.6-2.9S26.8,36.9,26.1,38z"/>
		<path fill="#F47D66" d="M29.8,21.5c0,0,2.3-2.9,2.8-0.5c0.5,2.4-3.8,4.2-3.8,4.2s-2.6-3.4-1.3-5.1C28.7,18.3,29.8,21.5,29.8,21.5z
			"/>
		<path fill="#F9B1A2" d="M29.3,29.7c0,0,1.2-1.5,1.5-0.3c0.3,1.3-2,2.2-2,2.2s-1.3-1.8-0.7-2.7C28.7,28.1,29.3,29.7,29.3,29.7z"/>
		<path fill="#F9B1A2" d="M20.8,30.2c0,0,0.9-1.1,1-0.2c0.2,0.9-1.4,1.5-1.4,1.5s-0.9-1.3-0.5-1.9C20.4,29,20.8,30.2,20.8,30.2z"/>
		<path fill="#F9B1A2" d="M41.1,21.4c0,0,0.9-1.1,1-0.2c0.2,0.9-1.4,1.5-1.4,1.5s-0.9-1.3-0.5-1.9C40.7,20.2,41.1,21.4,41.1,21.4z"
			/>
		<path fill="#F69784" d="M29,14.3c0,0,0.9-1.1,1-0.2c0.2,0.9-1.4,1.5-1.4,1.5s-0.9-1.3-0.5-1.9C28.6,13.1,29,14.3,29,14.3z"/>
		<path fill="#F69784" d="M20.7,19.1c0,0,1-1.2,1.2-0.2c0.2,1-1.6,1.7-1.6,1.7s-1.1-1.4-0.6-2.1C20.3,17.8,20.7,19.1,20.7,19.1z"/>
		<path fill="#F69784" d="M40.1,9.4c0,0,1-1.2,1.2-0.2c0.2,1-1.6,1.7-1.6,1.7s-1.1-1.4-0.6-2.1C39.7,8.1,40.1,9.4,40.1,9.4z"/>
		<path fill="#F69784" d="M14.5,50.6c0,0,1-1.2,1.2-0.2c0.2,1-1.6,1.7-1.6,1.7S13,50.7,13.5,50C14,49.3,14.5,50.6,14.5,50.6z"/>
		<path fill="#F0E23C" d="M47.4,55.8c0,0-0.9,0.7-2.8,1c-1.8,0.4-3,1.8-2.5,2.8c0.5,1,1,1.2,1.1,1.7c0.1,0.5,0.2,0.6,0.2,0.6
			s0.3-0.8-0.1-1.3c-0.3-0.5-1-1.1-0.5-1.5c0.5-0.5,2.5-0.9,3.5-1.6C47.3,56.7,47.4,55.8,47.4,55.8z"/>
		<path fill="#F0E23C" d="M47.5,56c0,0,0.6,0.5,0.4,1.4c-0.3,0.9-0.9,0.8-1.9,1.2c-1,0.5-1.5,1.2-1.5,1.2s0.7-0.6,1.6-1
			c0.9-0.4,1.8-0.6,2-1.2c0.2-0.6,0.1-1.4-0.2-1.6c-0.3-0.2-0.4-0.3-0.5-0.2c-0.1,0.1-0.3,0.2-0.3,0.2L47.5,56z"/>
		<path fill="#F0E23C" d="M48.3,60.3c0,0-0.5,0.9-2.1,1.1c-1.6,0.2-3,0.6-3.5,1.7c-0.4,1,0.2,1.4,0.5,1.7c0.3,0.3,0.6,0.9,0.6,0.9
			s-0.1-0.7-0.5-1.2c-0.4-0.5-0.3-0.8,0.2-0.9c0.5-0.1,2.6-0.3,3.8-1.1c1.2-0.8,1.4-1.2,1.3-1.5c-0.1-0.3,0.2-0.2,0.2,0.6
			c0,0.7-1,1.3-1.9,1.8c-1,0.4-2,0.8-2,0.8s2.7-0.5,3.6-1.5c0.9-1.1,0.7-1.7,0.4-2C48.7,60.3,48.3,60.3,48.3,60.3z"/>
		<path fill="#F0E23C" d="M45.9,66c0,0,1-0.1,0.7,1c-0.3,1.1-2.4,1.7-2.4,1.7s1.4-0.6,1.7-1.3c0.3-0.7-0.1-1.1-0.6-1
			c-0.5,0.1-2.4,1-2.3,1.8c0.1,0.9,1.1,1.1,1.3,1.1c0.2-0.1,0.2-0.1,0.2-0.1s1.3,0.8,3,0.5c1.6-0.2,1.7-1.2,1.6-2
			c-0.2-0.8-0.3-1-0.3-1s1.5-0.7,1.7-1.7c0.2-1-0.2-1.6-0.2-2c0-0.4,0.2-0.5,0.2-0.5s-0.1,0.5,0.2,1.1c0.3,0.6,0.2,1.7-0.3,2.3
			c-0.5,0.6-1.1,0.8-1.1,0.8s0.6,1.1-0.1,2.3c-0.7,1.1-2.2,1.4-4.1,0.9l-0.7-0.3c0,0-1.4,0-1.8-1c-0.4-1.1,0.8-1.9,1.6-2.3
			C45.1,65.9,45.9,66,45.9,66z"/>
		<path fill="#F0E23C" d="M49.4,60.3c0,0,0.6-0.7,0.9-1c0.3-0.3,1.2-0.5,1.3,0.6c0.1,1.2-0.4,1.8-1,2c-0.6,0.3-0.8,0.3-0.8,0.3
			s1.1-0.4,1.3-1.1c0.2-0.7,0.3-1.6-0.2-1.6c-0.5,0-1.4,0.9-1.4,0.9L49.4,60.3z"/>
		<path fill="#F0E23C" d="M49.8,63.1l-0.8,0.1c0,0,0.3,0.4,0.6,0.2C50,63.2,49.8,63.1,49.8,63.1z"/>
		<path fill="#FFFFFF" d="M48.3,60.4c0,0,0.1,0.8-1.6,1.3c-1.7,0.5-3.2,0.5-3.7,1.4c-0.5,0.9-0.1,1,0.4,1.4c0.5,0.4,0.6,0.9,0.6,1.1
			c0,0.2-0.2,0.3-0.2,0.3s0.2-0.3-0.3-0.7c-0.5-0.4-1.1-0.9-1.1-1.6c0-0.7,0.6-1.5,1.5-1.9c0.9-0.4,2.9-0.6,3.5-1
			c0.6-0.4,0.7-0.6,0.7-0.6L48.3,60.4z"/>
		<path fill="#FFFFFF" d="M43.4,57.3c0,0-1.1,0.7-1.1,1.5c0.1,0.8,0.8,1.3,1,2c0.2,0.7,0.2,1.1,0.2,1.1l-0.2,0.1
			c0,0-0.1-0.6-0.5-1.1c-0.5-0.5-1.3-1.3-0.8-2.2C42.5,57.6,43.4,57.3,43.4,57.3z"/>
		<path fill="#FFFFFF" d="M46.1,66.1c0,0-1.7,0.1-2.6,0.9c-0.9,0.9-0.7,1.7-0.2,2c0.5,0.3,1.1,0.3,1.1,0.3s0.3,0.3,1.5,0.5
			c1.2,0.2,2.5-0.1,2.5-0.1s-0.2,0.5-1.7,0.4c-1.6-0.1-2.2-0.5-2.2-0.5s-1.4,0.2-1.8-1C42.2,67.5,43.7,65.6,46.1,66.1z"/>
		<path fill="#010101" d="M38.5,26.4c0,0,0.1,3.6-2.8,5.3c-2.9,1.7-4.1-0.4-3.8-1.5c0.4-1,0.7-1.2,2.5-2.1c1.8-0.9,1.9-0.7,2.9-1.3
			C38.2,26.3,38.5,26.1,38.5,26.4z"/>
		<path fill="#010101" d="M40.9,25.8c0,0,1.3,1.6,3.2,2.5c1.9,0.9,2.9,1.6,2.8,2.5c-0.1,0.9-1.4,2-3.7,1.5C41,31.8,39.6,29.6,40,28
			C40.4,26.4,40.9,25.8,40.9,25.8z"/>
		<path fill-rule="evenodd" clip-rule="evenodd" fill="#231F20" d="M38.9,26.4c0-0.1,0-0.3,0-0.4c0.1-0.3-0.2-0.5-0.4-0.3
			c-0.8,1-2,1.5-3.3,1.8c-0.6,0.2-1.1,0.3-1.7,0.6c-0.6,0.3-1.1,0.9-1.8,1.1c-0.1,0-0.2,0.1-0.2,0.2c0.1,1.1,0.2,2.1,1.2,2.7
			c0.9,0.5,2,0.1,2.8-0.3C37.3,31.1,39.3,28.5,38.9,26.4C38.8,26.5,38.9,26.4,38.9,26.4z M36.6,30.5c-0.9,0.9-2.8,1.9-3.9,0.8
			c-0.5-0.4-0.9-1.5-0.2-1.9c0.9-0.5,1.6-1.1,2.6-1.4c1.2-0.4,2.4-0.7,3.3-1.5C38.3,28,37.6,29.4,36.6,30.5z"/>
		<path fill-rule="evenodd" clip-rule="evenodd" fill="#231F20" d="M46.3,29.2c-0.7-0.6-1.5-0.9-2.3-1.3c-1.2-0.6-2.1-1.2-2.9-2.2
			c0,0,0,0,0-0.1c0.2-0.3-0.2-0.5-0.4-0.3c-1.6,1.5-1.3,4.1-0.1,5.7c1.1,1.6,3.3,1.9,5.1,1.4C47.4,32,47.7,30.3,46.3,29.2z
			 M46.4,31.5c-1,1.2-3.7,0.7-4.8-0.2c-1.6-1.3-1.7-3.5-0.8-5.2c0.5,1.1,1.9,1.8,2.9,2.3C44.7,28.9,47.6,30,46.4,31.5z"/>
		<path fill-rule="evenodd" clip-rule="evenodd" fill="#231F20" d="M40.8,26c0,0-1.2,2.4,0.7,3.9c2,1.6,4.5,1.5,4.6,0.6
			c0.1-0.9,0.4-1.2-1.4-1.9c-1.9-0.7-2-1.2-2.9-2C40.9,25.9,40.8,26,40.8,26z"/>
		<path fill-rule="evenodd" clip-rule="evenodd" fill="#231F20" d="M38.7,26.2c0,0-0.5,2.6-2.5,3.7c-2,1.1-4.6,0-3.5-1.1
			c1.1-1.1,3.2-0.8,4.3-1.6c1.1-0.8,1.4-1.2,1.4-1.2S38.5,25.2,38.7,26.2z"/>
		<path fill-rule="evenodd" clip-rule="evenodd" fill="#414142" d="M41.3,26.9c0,0-1.1,1.1,0.7,2.4c1.8,1.3,4.1,0.7,3.2-0.1
			C44.3,28.3,41.8,26.8,41.3,26.9z"/>
		<path fill-rule="evenodd" clip-rule="evenodd" fill="#414142" d="M37.7,26.9c0,0-1,0.7-1,1.2c0,0.5,1.5-0.4,1.5-1
			C38.2,26.5,37.7,26.9,37.7,26.9z"/>
		<path fill-rule="evenodd" clip-rule="evenodd" fill="#F69321" d="M47.2,53.9c0,0-0.6,1-1.6,0.7c-1-0.3-2.4-1.2-3.8,0
			c-1.5,1.2-3.1,2.1-4.5,1.4c-1.4-0.7-1.1-1.9-1.1-1.9s0.8,1.5,2.8,0.6c2-0.8,3.5-2.2,5.2-2.2c1.7,0.1,3,1.3,3,1.3L47.2,53.9z"/>
		<path fill-rule="evenodd" clip-rule="evenodd" fill="#F06724" d="M36.7,50.4c0,0-1.5,1.7-1.9,3.2c-0.3,1.5-1.2,4.1-2.7,4.7
			c-1.5,0.6-2.9,0.3-3.7-1.7c-0.7-2-0.3-2.4-0.3-2.4s0.2,2.8,2.3,2.5c2-0.2,3.7-2.7,4.4-4.2c0.7-1.6,1-1.9,1-1.9L36.7,50.4z"/>
		<path fill-rule="evenodd" clip-rule="evenodd" fill="#F06724" d="M36.2,54c0,0,0.1,1.7,2.6,1c2.5-0.7,3.9-3,5.5-2.2
			c1.6,0.8,2.1,1.8,2.4,1.2c0.3-0.6-1-1.9-2.2-1.8c-1.2,0-2.9,0.8-4.1,1.6c-1.2,0.8-2.1,1.4-3,1C36.5,54.5,36.2,54,36.2,54z"/>
		<path fill-rule="evenodd" clip-rule="evenodd" fill="#771213" d="M35.7,50.6c-1.4,1-1.8,2.9-2.7,4.2c-0.9,1.3-2.9,2.3-4.1,0.7
			c-0.8-1.2,0-2.7,1.1-3.3c0.2,0,0.4,0.2,0.5,0.5c0,0,0,0.1,0.1,0.1c-0.4,0.4-0.7,0.9-0.8,1.4c0,0.1,0.1,0.1,0.1,0.1
			c0.5-0.5,0.8-1,1.3-1.5c0.7-0.6,1.5-1,2.4-1.1c0.1,0,0.1-0.2,0-0.2c-0.6,0-1.4,0.2-2,0.6c0-0.1,0-0.1-0.1-0.1
			c-0.4-0.1-0.7-0.3-1.1-0.5c-0.1,0-0.1,0-0.2,0c0,0,0,0,0,0c-0.1,0-0.2,0-0.2,0.1c0,0.1-0.1,0.1-0.1,0.2c0,0.1,0,0.1,0.1,0.2
			c0,0-0.1,0-0.1,0c-2.3,0.5-2.2,4.3,0.2,4.9c1.4,0.3,2.6-0.8,3.4-1.8c1-1.3,1.5-3,2.4-4.4C35.9,50.7,35.8,50.6,35.7,50.6z"/>
		<path fill="#9F1D20" d="M35.6,50.7c0,0-2.8,0.8-4,1.7c-1.1,0.8-1.7,1.7-1.7,1.7s0.7-1,0.7-1.4c0.1-0.4-0.4-0.6-1.1-0.2
			c-0.7,0.4-1.3,1.7-0.9,2.8c0.4,1.1,1.9,2.1,3.6,0.7c1.8-1.4,2-3.2,2.6-4.1C35.5,50.9,35.7,50.6,35.6,50.7L35.6,50.7z"/>
		<path fill="#D32027" d="M33.9,52.8c0,0-0.5-1-1.9,0c-1.4,1-2,2.3-1.8,2.7C30.5,56.1,31,56,31,56s-0.7,0.7-1.5-0.3
			c-0.5-0.6-0.1-1.6,0.2-2.4c0.4-0.7-0.2-0.9-0.7-0.4c-0.4,0.5-1,2.2,0.3,3.1c1.1,0.7,2.7,0.2,3.6-1.3c1-1.4,1.7-3,1.7-3L33.9,52.8z
			"/>
		<path fill="#EF4137" d="M32.9,54.4c0,0,0-0.6-1,0.2c-1,0.8-0.7,1.5,0.1,1.2c0,0-0.6,0.5-1.6,0.5c-1,0-1.2-0.4-1.2-0.4
			s0.5,0.9,2.2,0.4c1.6-0.5,2.5-2.5,2.6-2.9c0,0-0.4,0.7-0.7,0.9C33,54.5,32.9,54.4,32.9,54.4z"/>
		<path fill-rule="evenodd" clip-rule="evenodd" fill="#B44E26" d="M42.1,53.2c0,0,1.4-1.1,2.1-0.7c0.7,0.3,1.2,0.9,1.2,0.9
			S43.1,52.8,42.1,53.2z"/>
		<path fill-rule="evenodd" clip-rule="evenodd" fill="#B44E26" d="M53.4,47.5c0,0,0.1,1.6,0.8,1.4C54.8,48.8,53.4,47.5,53.4,47.5z"
			/>
		<path fill-rule="evenodd" clip-rule="evenodd" fill="#7D4F4F" d="M68.4,68.7c0,0,0.9-0.9,1.5,0.5c0.6,1.4-0.2,2.4-0.2,2.4
			s0.9-1.3,1-2.6c0.2-1.3-0.1-1.8-0.1-1.8l-2.4,0.6L68.4,68.7z"/>
		<path fill-rule="evenodd" clip-rule="evenodd" fill="#7D4F4F" d="M66.9,59.5L66,60.8l-1.2-0.6L64.6,59c0,0,0.6,0.8,1.3,0.2
			c0.6-0.6,0.1-1.2,0.1-1.2L66.9,59.5z"/>
		<path fill-rule="evenodd" clip-rule="evenodd" fill="#AB8D8D" d="M55.2,58.4c0,0,0.1,2.1-1,5.3c-1.1,3.2-1.5,5.4,0.1,7.6
			c1.6,2.2,4,2.2,4.7,1.6c0.7-0.5,0.5,0.2-0.6,0.9c-1.1,0.7-4,1.1-5.8-2.5c-1.8-3.5,1.1-8.1,2-10.7c0.9-2.6-0.2-4.1-0.6-4.4
			c-0.4-0.2,0.1-0.7,0.5-0.2C55.1,56.6,55.2,57.4,55.2,58.4z"/>
		<g>
			<linearGradient id="SVGID_10_" gradientUnits="userSpaceOnUse" x1="64.2492" y1="63.2764" x2="72.5624" y2="63.2764">
				<stop  offset="0" style="stop-color:#F0E23C"/>
				<stop  offset="0.1155" style="stop-color:#F0DE3B"/>
				<stop  offset="0.2572" style="stop-color:#EED437"/>
				<stop  offset="0.4126" style="stop-color:#ECC332"/>
				<stop  offset="0.5777" style="stop-color:#E9AA2C"/>
				<stop  offset="0.7488" style="stop-color:#E68C26"/>
				<stop  offset="0.7925" style="stop-color:#E58425"/>
			</linearGradient>
			<path fill="url(#SVGID_10_)" d="M65.8,61.1c0,0-0.8-1.4-1.2-0.7c-0.4,0.6-0.6,2.3,0.1,2.8c0.7,0.5,1,0.3,1,0.3s-0.1,0.7,0.2,1.1
				c0.3,0.4,0.6,0.3,0.6,0.3s0.4,1,0.8,1.3c0.4,0.3,0.4,0.3,0.4,0.3s-0.5,0.9,0.3,1.2c0.8,0.3,2.9-0.5,3.7-1.2
				c0.8-0.7,0.8-1.6,0.7-2C72.3,64,72,63.7,72,63.7s0.5-1.8-0.2-2.2c-0.7-0.3-0.8-0.3-0.8-0.3s1.1-0.7,0.1-1.6
				c-1.1-0.9-2.9-1.1-4.2,0.3C65.7,61.2,65.8,61.1,65.8,61.1z"/>
			<path fill-rule="evenodd" clip-rule="evenodd" fill="#F06724" d="M72.6,64.3c-0.5-0.8,0.1-1.6-0.2-2.5c-0.2-0.4-0.5-0.7-0.8-0.7
				c0.4-0.7,0-1.5-0.6-2.1c-0.8-0.8-2-0.6-3-0.2C67,59.2,66.3,60,65.9,61c-0.1-0.5-0.6-0.9-1.1-0.8c-0.7,0.1-1,1-1.1,1.6
				c-0.1,0.6,0.2,1.4,0.7,1.8c0.3,0.2,0.6,0.3,0.9,0.2c0,0.6,0.6,1.2,1.1,1.3c0,0.1,0,0.2,0.1,0.3c0.1,0.4,0.5,0.9,1,1.1
				c-0.3,0.4-0.3,0.9,0.3,1.2c1,0.6,2.5-0.2,3.4-0.7C72.1,66.6,73.4,65.4,72.6,64.3z M64.7,63c-0.3-0.3-0.4-0.7-0.4-1
				c0-0.4,0.1-0.8,0.3-1.1c0.4-0.7,0.9,0.3,1.1,0.5c0,0.1-0.1,0.2-0.1,0.3c-0.1,0.5,0,1,0.3,1.3C65.5,63.2,65.1,63.4,64.7,63z
				 M66.4,64.7c-0.2-0.1-0.3-0.2-0.5-0.4c-0.1-0.2-0.2-0.4-0.2-0.6c0.2-0.1,0.4-0.2,0.5-0.4c0.1,0.1,0.3,0.1,0.5,0.1
				C66.6,63.8,66.4,64.3,66.4,64.7z M72.3,65.3c-0.1,0.4-0.5,0.7-0.8,1c-0.7,0.6-1.5,1-2.4,1.2c-0.4,0.1-0.8,0.1-1.1-0.1
				c-0.3-0.3-0.2-0.5,0-0.8c0.1-0.1,0.2-0.1,0.3-0.3c0,0,0,0,0,0c0.3-0.2,0.6-0.4,0.8-0.5c0.1-0.1,0-0.3-0.1-0.2
				c-0.4,0.1-0.8,0.4-1.2,0.7c-0.6-0.1-0.9-0.8-0.8-1.4c0-0.9,0.5-1.7,1-2.4c0.1-0.1-0.1-0.2-0.2-0.2c-0.3,0.2-0.6,0.5-0.8,0.8
				c-1.8-0.4-0.5-2.3,0.5-3.3c0,0.4,0.1,0.9,0.4,1c0.1,0,0.1,0,0.1-0.1c0-0.3-0.3-1-0.1-1.3c0,0,0,0,0.1,0c1.4-0.9,3.8-0.2,3.3,1.6
				c-0.4-0.1-0.9,0-1.2,0.1c-0.3,0.1-1.3,0.4-1.5,0.9c-0.2,0.2-0.4,0.4-0.4,0.7c0,0.3,0.2,0.7,0.5,0.9c0.1,0,0.1,0,0.1-0.1
				c-0.1-0.2-0.2-0.4-0.3-0.7c-0.1-0.2,0-0.4,0-0.5c0,0,0,0,0,0c0.2,0,0.3-0.1,0.5-0.2c0.3-0.2,0.5-0.3,0.8-0.4
				c0.4-0.2,0.8-0.2,1.2-0.2c0,0.1,0.1,0.2,0.2,0.1c0,0,0,0,0.1-0.1c0.6,0.2,0.9,0.8,0.8,1.4c-0.1,0.4-0.3,0.6-0.2,1
				C72,64.4,72.5,64.7,72.3,65.3z"/>
			<path fill-rule="evenodd" clip-rule="evenodd" fill="#F06724" d="M69.6,65.9c-0.1-0.1-0.2-0.3-0.2-0.5c0-0.1-0.2-0.1-0.2,0
				c0,0.3,0.2,0.9,0.5,0.9c0.1,0,0.1,0,0.1-0.1C69.8,66.1,69.7,66,69.6,65.9z"/>
		</g>
		<ellipse fill-rule="evenodd" clip-rule="evenodd" fill="#FFFFFF" cx="47.5" cy="56.5" rx="0.5" ry="0.5"/>
		<path fill-rule="evenodd" clip-rule="evenodd" fill="#CDBCBC" d="M54.2,62.6c0,0-2.4,5.1-0.4,8.8c2,3.7,5.3,1.9,5.3,1.9
			s-1.2,2-4.3,0.3C52.1,72,51.7,67.5,54.2,62.6z"/>
		<path fill-rule="evenodd" clip-rule="evenodd" fill="#AB8D8D" d="M55.6,56.9c0,0,0.3,0.7,0.2,2.2c-0.1,1.5-0.8,4.2-1.1,6.1
			c-0.3,1.9-0.5,5.5,1.7,6.6c2.2,1.1,3-0.3,3.2-0.5c0.1-0.2,0.8-0.1,1.1,0.7c0.3,0.8,0.2,1.5,0.2,1.5s0-0.9-0.4-1.3
			c-0.3-0.4-0.6-0.5-0.7-0.4c-0.2,0.1-0.9,0.9-2.4,0.7c-1.5-0.2-2.7-1-3.1-3.7c-0.3-2.6,0.5-5.4,0.9-7.4c0.5-2,0.8-4.7-0.8-6.4
			c-1.5-1.7-3.6-1-4.2-0.3c-0.6,0.6-1.2,2.3,0.2,3.3c1.3,0.9,2.7-0.1,2.8-0.9c0.1-0.7-0.2-1.2-0.8-1.3c-0.6-0.1-0.8,0.6-0.5,0.8
			c0.3,0.2,0.3,0,0.3,0s-0.1,0.3-0.4,0.1c-0.3-0.3-0.3-0.8,0.2-1c0.5-0.1,1,0,1.2,0.6c0.3,0.6,0.1,1.5-0.5,1.9
			c-0.6,0.4-1.5,0.5-2.3,0c-0.8-0.5-1.3-1.2-1.1-2.4c0.2-1.2,1.4-2.2,3.1-2C54.2,54,55.4,55.4,55.6,56.9z"/>
		<path fill-rule="evenodd" clip-rule="evenodd" fill="#AB8D8D" d="M52.5,55.3c0,0-1.3-0.1-1.3,0.9c0,1.1,1.2,1,1.3,0.8
			c0.1-0.2,0-0.7,0-0.7s0.2,0,0.1,0.5c-0.1,0.5-0.6,0.8-1.3,0.2C50.7,56.4,51.1,54.9,52.5,55.3z"/>
		<path fill-rule="evenodd" clip-rule="evenodd" fill="#CDBCBC" d="M52.4,54.5c0,0-1.9,0.3-1.8,1.6c0.1,1.7,1.4,1.8,1.9,1.4
			c0.5-0.3,0.3,0.1,0.1,0.2c-0.3,0.3-1.8,0.9-2.5-0.7C49.4,55.5,50.8,53.8,52.4,54.5z"/>
		<path fill-rule="evenodd" clip-rule="evenodd" fill="#EDE7E7" d="M50.8,55.1c0,0-0.6,0.5-0.4,1.3c0.2,0.9,0.5,1,0.5,1
			S49.2,56.2,50.8,55.1z"/>
		<path fill-rule="evenodd" clip-rule="evenodd" fill="#EDE7E7" d="M56.9,72c0,0,1,0.4,1.6,0.1c0.6-0.2,1-0.8,1-0.8s0.5-0.3,0.8,0.1
			c0.3,0.5,0.4,0.5,0.4,0.5s-0.6-0.5-0.8-0.4c-0.2,0.1-0.4,0.4-1,0.6C57.9,72.6,56.9,72,56.9,72z"/>
		<path fill-rule="evenodd" clip-rule="evenodd" fill="#AB8D8D" d="M60.2,73.3c0,0-1,2.4-3.9,2.2c-2.9-0.3-3.9-2.8-4.5-5
			c-0.6-2.1,0.3-4.6,1.1-6.2c0.7-1.6,1.5-3.5,1.6-4.5c0.1-1-0.1-2.1-0.2-2.4c-0.1-0.3-0.3-0.4-0.3-0.4s0.6,0.6,0.6,2.2
			c0,1.6-0.5,2.8-1.1,4.1c-0.5,1.4-1.6,3.8-1.6,5.6c0,1.8,0.9,3.9,1.8,4.8c0.9,1,2.7,1.4,4,1.2c1.2-0.3,2.5-1.7,2.5-1.7
			S60.3,73.1,60.2,73.3z"/>
		<path fill-rule="evenodd" clip-rule="evenodd" fill="#433232" d="M54.7,57.5c-0.1-0.1-0.4-0.1-0.4,0.1c0,0.1,0,0.2-0.1,0.3
			c-0.1,0.4,0.5,0.6,0.6,0.2C54.9,57.9,54.9,57.6,54.7,57.5z"/>
		<path fill-rule="evenodd" clip-rule="evenodd" fill="#EDE7E7" d="M53.1,67c0,0-0.6,2.8,1,4.9c1.6,2.1,2.8,1.8,2.8,1.8
			s-1.4,0.5-2.7-1.1C52.9,71.1,52.4,69.2,53.1,67z"/>
		<path fill-rule="evenodd" clip-rule="evenodd" fill="#AB8D8D" d="M61.2,72c0,0,0.3-0.6,0.8-0.6c0.5,0,1.6,0.5,1.5,2.2
			c-0.1,1.7-0.5,2.3-1.4,2.2c-0.9-0.1-0.9-0.9-0.9-0.9s0.5,0.7,1.2,0.5c0.7-0.2,0.6-2.7,0.1-3.2C62,71.6,61.2,72,61.2,72L61.2,72z"
			/>
		<path fill-rule="evenodd" clip-rule="evenodd" fill="#CDBCBC" d="M61.4,71.9c0,0,1,0,1.1,1.5c0.1,1.5-0.3,1.9-0.5,1.9
			c-0.2,0-0.3,0-0.3,0s0.3,0.2,0.6,0.1c0.4-0.1,0.7-0.7,0.6-1.9c-0.1-1.2-0.5-1.7-1-1.7C61.4,71.8,61.4,71.9,61.4,71.9z"/>
		<path fill-rule="evenodd" clip-rule="evenodd" fill="#EDE7E7" d="M61.6,71.8c0,0,1.3-0.2,1.3,1.6c0,1.8-0.6,2-0.6,2s0.6,0,0.7-1.1
			c0.1-1.1-0.1-2.2-0.6-2.6C61.9,71.4,61.6,71.8,61.6,71.8z"/>
		<path fill-rule="evenodd" clip-rule="evenodd" fill="#AB8D8D" d="M63.1,71.4c0,0,0.3-0.6,0.8-0.6c0.5,0,1,1.5,1,1.8
			c0,0.3,0,0.3,0,0.3s0.1-0.4,0.1-0.8c0-0.4,0-0.4,0-0.4s1.7,0.1,2.9-1.3c1.1-1.4,0.9-2,0.9-2s0.5,0.3,0,2.1
			c-0.5,1.8-2.5,2.1-2.9,2.1c-0.4,0-0.6-0.1-0.7,0.2c-0.1,0.3-0.2,0.4-0.2,0.4c0,0,0.1,0.5,0,1.1c-0.1,0.6-0.5,1-0.8,0.9
			c-0.3-0.1-0.4-0.4-0.4-0.4s0.4,0.3,0.7-0.2c0.3-0.5,0.1-2.6-0.4-3.1C63.5,71,63.1,71.4,63.1,71.4z"/>
		<path fill-rule="evenodd" clip-rule="evenodd" fill="#CDBCBC" d="M63.2,71.3c0,0,0.7-0.1,1,1.2c0.3,1.3,0.1,2,0,2.2
			c-0.1,0.2-0.3,0.1-0.3,0.1s0.4,0.1,0.5-0.3c0.1-0.4,0.2-1.5,0-2.3C64.2,71.5,63.9,71,63.2,71.3z"/>
		<path fill-rule="evenodd" clip-rule="evenodd" fill="#EDE7E7" d="M63.4,71.3c0,0,0.6-0.2,0.9,1c0.3,1.2,0.2,1.6,0.2,1.9
			c0,0.3-0.1,0.5-0.1,0.5s0.3-0.5,0.2-1.8C64.4,71.6,63.9,71,63.4,71.3z"/>
		<path fill-rule="evenodd" clip-rule="evenodd" fill="#CDBCBC" d="M68.6,68.5c0,0,0.3,2.3-1.1,3.2c-1.4,0.9-2.4,0.7-2.4,0.7
			s0.4,0.2,0.5,0.8c0.1,0.6,0.1,0.8,0.1,0.8l0.2-1c0,0,2.1-0.3,2.9-1.7C69.7,69.8,68.6,68.5,68.6,68.5z"/>
		<path fill-rule="evenodd" clip-rule="evenodd" fill="#AB8D8D" d="M70,69.2c0,0,0.3,1.7-1.3,3.5c-1.5,1.8-3.2,1.8-3.3,1.8
			c-0.2-0.1-0.4-0.6-0.4-0.6s0.2,0.7,0.1,0.8C65,74.8,65,74.8,65,74.8s1.5,0.4,3.3-1.1C70.2,72.1,70.7,70.7,70,69.2z"/>
		<path fill-rule="evenodd" clip-rule="evenodd" fill="#AB8D8D" d="M61.2,72c0,0,0.7,0.1,0.8,1.3c0.1,1.3-0.1,1.4-0.1,1.4
			s0.4-0.9,0.2-2C61.8,71.7,61.2,72,61.2,72z"/>
		<path fill-rule="evenodd" clip-rule="evenodd" fill="#AB8D8D" d="M66.1,59c0,0-0.7-1.3-0.3-2.5c0.3-1.2,0.7-1.3,0.7-1.3
			s0.4-1.1,1.8-1.1c1.4,0,1.5,1.5,0.8,1.7c-0.7,0.3-1.3-0.1-1.1-0.3c0.2-0.2,0.3,0.1,0.3,0.1s0.8,0,0.8-0.5
			c-0.1-0.5-0.5-0.9-1.3-0.7c-0.8,0.2-1.1,1.2-1,1.9c0.2,0.7,1.3,1.6,2.5,0.9c1.2-0.7,1.3-2.5,0.3-3.5c-1-1.1-2.6-1.8-4.5,0.2
			c-1.9,1.9-0.2,5.2-0.2,5.2s-0.7-2.4-0.2-3.8c0.5-1.4,1.6-2.4,3-2.3c1.4,0,2.1,0.9,2.3,1.9c0.1,1.1-0.5,1.9-1.3,2.2
			c-0.9,0.2-1.5-0.7-1.4-1.6c0.2-0.9,1.1-1.1,1.4-0.8c0.2,0.3-0.2,0.5-0.2,0.5s-0.5-0.2-0.5,0.2c0,0.4,0.1,0.9,0.8,0.8
			c0.7-0.1,1.2-0.6,1-1.5c-0.3-0.8-1.1-1.2-2.1-0.9c-1,0.3-1,1-1,1s-0.7,0.3-0.9,1.5C65.4,57.6,65.6,58.6,66.1,59z"/>
		<path fill-rule="evenodd" clip-rule="evenodd" fill="#CDBCBC" d="M68.5,53.3c0,0-1.9-0.5-3,1.1c-1.1,1.6-0.8,3.9-0.6,4.3
			c0.2,0.4,0.1,0.7-0.1,0.4c-0.2-0.3-0.7-2.5-0.2-4C65.1,53.7,66.6,52.7,68.5,53.3z"/>
		<path fill-rule="evenodd" clip-rule="evenodd" fill="#CDBCBC" d="M68.5,55c0,0-0.4-0.4-1,0.2c-0.6,0.6-0.2,1.9,0.8,1.9
			c1,0,1.4-0.9,1.4-0.9s-0.2,1-1.3,1c-1.1,0.1-1.3-0.7-1.4-1.4C66.9,55.1,68,54.2,68.5,55z"/>
		<path fill="#F0E23C" d="M54,58.8c0,0-0.4,0.8-1,1.4c-0.7,0.7-1.4,1.3-1.4,1.3s0.3-0.5,0.3-0.9c0-0.3,0-0.3,0-0.3s1.1-0.8,1.5-1.6
			c0.4-0.8,0.5-1,0.5-1S54.3,58.6,54,58.8z"/>
		<path fill="#F0E23C" d="M55.8,55.7c0,0,0.3,0.7,0.3,1c0.1,0.3,0.1,0.3,0.1,0.3s2.4-3.7,2.5-8.4c0.1-4.6-0.3-6-0.3-6
			s0.4,5.1-0.4,8.1C57,53.8,55.8,55.7,55.8,55.7z"/>
		<path fill-rule="evenodd" clip-rule="evenodd" fill="#433232" d="M65.4,56.8c0-0.1-0.1-0.1-0.1-0.2c0,0,0,0,0,0
			c0-0.1-0.1-0.1-0.1-0.1c-0.1-0.1-0.3-0.2-0.5-0.1c-0.1,0.1-0.1,0.2,0,0.3c0.1,0,0.1,0.1,0.1,0.1c-0.7,0.7-1.6,1.1-2.5,1.4
			c-0.4-0.8-0.3-1.5-0.1-2.5c0.3-1.3,0.7-2.6-0.2-3.8c-0.1-0.1-0.2,0-0.2,0.1c0.7,1.6-0.1,3.3-0.2,5c0,0.5,0.1,0.9,0.3,1.4
			c-0.1,0-0.1,0-0.2,0.1c-0.4,0.1-0.8,0.2-1.2,0.2c-0.1-0.2-0.1-0.4-0.2-0.6c-0.1-1,0.3-2,0.4-3c0.1-1.2-0.3-2.6-1.4-3.3
			c-0.1,0-0.1,0-0.1,0.1c1.7,1.4,0.9,3.6,0.7,5.4c-0.1,0.5,0,0.9,0.1,1.3c-0.5,0-1,0-1.5-0.1c0-1.2,0.3-2.6,0.1-3.7
			c-0.2-1-0.6-2.4-1.7-2.7c-0.1,0-0.2,0.1-0.1,0.2c1.3,0.6,1.7,2.4,1.6,3.7c-0.1,0.8-0.2,1.7-0.2,2.5c-0.8-0.2-1.5-0.5-2-0.9
			c-0.2-0.2-0.5,0-0.4,0.3c0.4,0.7,1.4,0.9,2.1,1.1c0.1,0,0.2,0.1,0.3,0.1c0,0.7,0.1,1.4,0.5,2c0.2,0.4,0.4,0.7,0.7,1
			c0.3,0.4-0.1,1.2-0.2,1.7c-0.2,0.6,0.1,1.3,0.3,1.9c0.4,1,0.7,1.8,0.5,2.9c-0.1,0.6-0.2,1-0.2,1.6c0,0,0,0,0,0
			c0,0.1-0.1,0.2-0.1,0.3c0,0,0,0.1,0,0.1c0,0.2-0.1,0.3-0.1,0.5c0,0.3,0.4,0.3,0.4,0c0-0.1,0-0.2-0.1-0.4c0.1-0.1,0.1-0.3,0-0.4
			c0.2-0.8,0.5-1.6,0.6-2.4c0.1-0.8-0.3-1.7-0.6-2.4c-0.2-0.5-0.3-0.9-0.3-1.5c0-0.5,0.3-0.9,0.3-1.3c0.1-0.8-0.4-1.2-0.8-1.9
			c-0.3-0.5-0.4-1.1-0.5-1.7c0.6,0.1,1.1,0.1,1.7,0.1c0,0.1,0.1,0.2,0.1,0.3c0.3,0.7,0.7,1.3,0.5,2.1c-0.1,0.4-0.1,0.7-0.1,1
			c0,0.7,0,1.6,0.3,2.3c0.5,1,1,1.7,0.8,2.9C61.8,69,61.4,70,62.3,71c0.1,0.1,0.3-0.1,0.2-0.2c-1.1-1.3,0.3-3.1-0.2-4.7
			c-0.1-0.3-0.3-0.6-0.5-0.9c-0.4-0.6-0.5-1.2-0.6-1.9c-0.1-0.9,0.3-1.8,0.2-2.7c0-0.5-0.3-1-0.6-1.5c0.1,0,0.3,0,0.4,0
			c0.3,0,0.6-0.1,1-0.2c0,0,0,0,0,0c0.8,1.3,0.6,2.2,0.4,3.6c-0.2,1.6,1.2,2.9,1.2,4.5c0,1.5-0.8,2.9,0.5,4.2
			c0.2,0.2,0.4-0.1,0.2-0.2c-1.4-1.4,0-3.4-0.5-5.1c-0.2-0.7-0.7-1.4-0.9-2.1c-0.4-1,0.1-2.1,0.1-3.1c0-0.7-0.3-1.3-0.7-1.8
			c1-0.3,2.1-0.9,2.5-1.7C65.3,57.1,65.5,57,65.4,56.8z"/>
		<path fill="#F0E23C" d="M71.2,61c0,0,0.4-1.1-0.5-1.6c-1-0.5-2.5-0.4-2.8,0.1c-0.3,0.5,0.1,1.3,0.1,1.3s-0.2-1.1,1-1.3
			C70.1,59.2,71.4,60,71.2,61z"/>
		<path fill="#F0E23C" d="M67.4,60.3c0,0-1.2,1.1-1.2,1.9c0,0.8,1,0.4,1,0.4l-0.4,0.5c0,0-0.9,0.1-1-1c-0.1-1,1.5-2.3,1.5-2.3
			L67.4,60.3z"/>
		<path fill="#F0E23C" d="M71.8,63.5c0,0,0.7-1,0-1.8c-0.7-0.7-2.1,0-2.7,0.2c-0.6,0.2-0.7,0.5-0.6,1c0.1,0.5,0.3,0.5,0.3,0.5
			s-0.1-0.6,0.5-1.1c0.6-0.5,2.3-0.7,2.6,0c0.3,0.7-0.4,1-0.3,1.6c0.1,0.7,0.8,0.7,0.6,1.2c-0.2,0.5-2,1.8-2.8,2
			c-0.1,0.1-0.3,0.1-0.4,0.1c-0.6,0.1-0.9-0.1-0.9-0.5c0-0.5,1-1.1,1-1.1s-0.8,0.2-1.1,0.8c0,0-0.7,1,0.7,1c1.4,0,3.3-1.2,3.6-1.9
			c0.3-0.7,0.1-1-0.2-1.3C71.9,64.1,71.7,63.9,71.8,63.5z"/>
		<path fill="#F0E23C" d="M67.9,62.4c0,0-0.9,1.2-1,2.4c0,1.2,0.8,1.4,0.8,1.4s0.4-0.2,0.6-0.4c0.3-0.3,0.6-0.3,0.6-0.3
			s-0.8,0.1-1,0.2c-0.2,0.1-0.9-0.4-0.6-1.5C67.6,63.2,67.9,62.4,67.9,62.4z"/>
		<path fill="#F0E23C" d="M69.4,65.5c0,0,0.3,0.9,0.7,0.8c0.4-0.1,0.2-0.3,0.2-0.3s-0.6-0.2-0.5-0.5C69.8,65.1,69.3,65.1,69.4,65.5z
			"/>
	</g>
	<path fill-rule="evenodd" clip-rule="evenodd" fill="#010101" d="M29.2,33.9c0,0-0.4,1.1,0.8,1.7c1.1,0.6,1.4,0.3,1.4,0.3l0.9-0.9
		C32.2,35,29.7,35.8,29.2,33.9z"/>
	<path fill-rule="evenodd" clip-rule="evenodd" fill="#010101" d="M30,33.1c0,0-0.4,1.1,0.8,1.7c1.1,0.6,1.4,0.3,1.4,0.3l0.9-0.9
		C33.1,34.2,30.6,34.9,30,33.1z"/>
	<path fill-rule="evenodd" clip-rule="evenodd" fill="#010101" d="M31.2,32.4c0,0-0.4,1.1,0.8,1.7c1.1,0.6,1.4,0.3,1.4,0.3l0.9-0.9
		C34.2,33.5,31.7,34.3,31.2,32.4z"/>
	<path fill-rule="evenodd" clip-rule="evenodd" fill="#010101" d="M38.6,30.8c0,0-0.7,0.9,0.1,1.9c0.8,1,1.2,0.8,1.2,0.8L41,33
		C41,33,38.4,32.7,38.6,30.8z"/>
	<path fill-rule="evenodd" clip-rule="evenodd" fill="#010101" d="M40.3,31c0,0-0.6,0.8,0.1,1.6c0.7,0.8,1,0.7,1,0.7l1-0.5
		C42.4,32.8,40.1,32.6,40.3,31z"/>
	<path fill-rule="evenodd" clip-rule="evenodd" fill="#010101" d="M32.7,32.1c0,0-0.5,0.8,0.3,1.5c0.8,0.7,1,0.5,1,0.5l0.9-0.6
		C35,33.5,32.9,33.6,32.7,32.1z"/>
	<path fill-rule="evenodd" clip-rule="evenodd" fill="#010101" d="M37.6,34.1c0,0-2.7-0.9-4.7,0.8c-2,1.7-2.2,2.4-2.2,2.4
		s-0.2,0.6-1.5-0.1c-1-0.6-1.1-1.5-1.1-1.5s0.6,0.5,1.3,0.6c0.9,0.1,1.3-0.2,1.3-0.2s2.3-2.5,4.3-2.5C37,33.4,37.6,34.1,37.6,34.1z"
		/>
</g>
</svg>
